<svg xmlns="http://www.w3.org/2000/svg" xmlns:xlink="http://www.w3.org/1999/xlink" width="1200" height="300"><defs><path id="a" transform="rotate(-180 619 117.499)" d="M0-65.002h1238V300H0z"/></defs><clipPath id="b"><use xlink:href="#a" overflow="visible"/></clipPath><path d="M799.478-1304.702c131.06 63.289 244.683 164.521 321.937 297.428 47.709 82.08 78.307 168.887 93.207 256.574 18.304 107.869 69.297 205.651 142.844 285.95 60.181 65.685 102.148 150.506 115.354 248.772 26.953 200.354-71.874 393.03-264.363 474.685-130.446 55.336-261.992 52.482-382.864-5.577-19.129-9.188-36.789-17.395-54.403-29.198-17.668-11.833-36.056-22.299-55-31.45-75.301-36.358-157.252-34.004-241.735-33.43-115.625.767-236.806-23.397-339.851-73.182-147.229-71.087-280.776-203.542-354.309-364.481-176.403-386.085-7.553-872.083 400.202-1043.634 204.438-86.016 429.854-73.804 618.981 17.543" clip-path="url(#b)" fill="#10069e"/></svg>