<svg xmlns="http://www.w3.org/2000/svg" viewBox="0 0 389.24 50.92"><defs><clipPath id="clip-path"><path fill="none" d="M0 0h389.24v50.92H0z"/></clipPath><style>.cls-3{fill:#10069f}</style></defs><g id="レイヤー_2" data-name="レイヤー 2"><g clip-path="url(#clip-path)" id="レイヤー_1-2" data-name="レイヤー 1"><path class="cls-3" d="M375.48 21a.84.84 0 01-.58-.2 1 1 0 01-.33-.53l-.26.63h-.83l1.52-7.49h1l-.44 2.11a2.26 2.26 0 01-.08.3c0 .12-.06.24-.1.36a1.37 1.37 0 011.16-.73.89.89 0 01.76.4 1.89 1.89 0 01.28 1.12 7.16 7.16 0 01-.08 1 7.94 7.94 0 01-.26 1.07 5.47 5.47 0 01-.43 1 2.58 2.58 0 01-.61.72 1.29 1.29 0 01-.8.27m-.13-.88a.54.54 0 00.41-.21 1.93 1.93 0 00.35-.55 4.94 4.94 0 00.26-.74c.07-.27.13-.54.17-.8a4.72 4.72 0 00.06-.7c0-.51-.15-.76-.43-.76a.61.61 0 00-.45.22 2 2 0 00-.37.56 5.65 5.65 0 00-.26.76 6 6 0 00-.15.81 4.6 4.6 0 00-.06.69c0 .48.16.72.47.72m4.35.85a1.42 1.42 0 01-1.1-.44 1.78 1.78 0 01-.41-1.24 6.17 6.17 0 01.17-1.44 4.51 4.51 0 01.48-1.23 2.69 2.69 0 01.77-.86 1.77 1.77 0 011-.32 1.27 1.27 0 01.88.31 1.15 1.15 0 01.34.89 1.65 1.65 0 01-.68 1.41 3 3 0 01-1.83.5h-.08a3.36 3.36 0 00-.06.63 1.15 1.15 0 00.18.72.68.68 0 00.56.22 1.9 1.9 0 00.54-.07 3.4 3.4 0 00.58-.26v.82a2.38 2.38 0 01-.66.28 3.22 3.22 0 01-.71.08m-.29-3.18a1.69 1.69 0 001.14-.3 1 1 0 00.33-.78c0-.29-.14-.44-.42-.44a.81.81 0 00-.62.41 3.4 3.4 0 00-.46 1.11m3.94 3.24a.79.79 0 01-.69-.28 1.22 1.22 0 01-.2-.73 3.38 3.38 0 01.1-.76l.59-2.8h-.47l.1-.55.63-.29.47-1.19h.73l-.26 1.16h.79l-.18.87H384l-.62 2.91a2 2 0 010 .24.88.88 0 000 .2c0 .21.1.31.3.31h.22a1.14 1.14 0 00.26-.09v.83a1.49 1.49 0 01-.45.15 4.53 4.53 0 01-.46 0m2.86-.04a.9.9 0 01-.79-.4 2 2 0 01-.27-1.13 5.72 5.72 0 01.08-1 6.86 6.86 0 01.24-1.07 5.58 5.58 0 01.43-1 2.48 2.48 0 01.6-.71 1.25 1.25 0 01.79-.28.92.92 0 01.56.19 1.07 1.07 0 01.34.58l.23-.67h.89l-1.14 5.34h-.82v-.72a3.13 3.13 0 01-.53.59.92.92 0 01-.64.23m.41-.88a.61.61 0 00.49-.25 2.17 2.17 0 00.35-.64 7.66 7.66 0 00.25-.77c.07-.31.12-.57.16-.79a4.54 4.54 0 00.05-.6c0-.47-.16-.7-.47-.7a.57.57 0 00-.42.21 1.93 1.93 0 00-.35.55 4.81 4.81 0 00-.26.73 5.66 5.66 0 00-.16.8 4.62 4.62 0 00-.06.7c0 .51.14.76.42.76M46.64 38.73v2.75a2.31 2.31 0 01-.81.29h-2.4a1.13 1.13 0 01-.8-.21c-.25-.26-.25-.84-.25-1.73v-.71l-.35.3a11.19 11.19 0 01-7.27 2.95 10.92 10.92 0 01-3.69-.67 7.49 7.49 0 01-5-6.81 8.61 8.61 0 014.51-8.32c2.67-1.37 11.62-1.42 11.71-1.42h.22v-.21c0-.06-.08-6.21-5.41-7.35a6.13 6.13 0 00-1.2-.11A19.5 19.5 0 0032 18a9.55 9.55 0 01-1.4.25c-.61 0-1.08-.63-1.3-1.17-.33-.82-.65-1.6.61-2.2a18.82 18.82 0 016.14-1.21 8.7 8.7 0 01.93.05c3.65.46 6.19 1.88 8 4.49a12.15 12.15 0 011.62 6.68v13.82M38.12 9.4a20 20 0 00-7.37-.27 14.87 14.87 0 01-8.53-1.34 12.08 12.08 0 00-7.36-.93 12.26 12.26 0 00-4.79 2 11.74 11.74 0 012.6.71c3.36 1.5 5.29 3.52 6.27 6.54a12.07 12.07 0 01-.41 6.77l-1.7 5.53c-1 3.38-1.94 6.36-2.36 7.69-.09.31-.19.63-.28.93a20.45 20.45 0 0016.33 13.68C42.18 52.4 53 43.71 54 31.52A20.86 20.86 0 0038.12 9.4"/><path class="cls-3" d="M14.72 22.16l.1-.35c0-.06 1.78-6.07-3.08-8.77A12.64 12.64 0 007 12a12.64 12.64 0 00-2.25 6 12.77 12.77 0 00-.05 2 60.94 60.94 0 019.67 2.07zm27.5 6.24h-.2c-.58 0-3.57.28-5.11.44h-.23c-1.88.19-3.82.39-5.15 1.88a5 5 0 00-1 4.82 5.17 5.17 0 005.19 3.33 6.87 6.87 0 004.8-1.87 5.07 5.07 0 00.83-1c1.22-2.19 1.16-5.21.9-7.35zm144.67-8.34a10.23 10.23 0 00-3.7-4.68 10.37 10.37 0 00-6.19-1.71 10.72 10.72 0 00-5.93 1.62 14.5 14.5 0 00-2 1.68 15.11 15.11 0 00-2-1.68 10.74 10.74 0 00-5.93-1.62 10.41 10.41 0 00-6.2 1.71 10.28 10.28 0 00-3.69 4.68 8.07 8.07 0 00-.51 2.68c-.12 2.11-.07 9.17 0 13.85v3.57a1.42 1.42 0 001.51 1.58h2.2a2.24 2.24 0 001-.37V25c0-2 .16-4.28 1.75-5.77a5.88 5.88 0 014-1.36 6.33 6.33 0 013.93 1.36c1.77 1.49 1.78 3.77 1.74 5.77v14.81a2 2 0 002.26 1.7 2 2 0 002.26-1.7V25c0-2 0-4.28 1.73-5.77a6.33 6.33 0 013.88-1.32 5.85 5.85 0 014 1.36c1.6 1.49 1.77 3.77 1.75 5.77v16.33a2.31 2.31 0 001 .37h2.19a1.42 1.42 0 001.51-1.58v-3.57c0-4.68.09-11.74 0-13.85a8.33 8.33 0 00-.51-2.68m-93.6 0a10.23 10.23 0 00-3.7-4.68 10.37 10.37 0 00-6.19-1.71 10.75 10.75 0 00-5.94 1.62 15.07 15.07 0 00-2 1.68 15.11 15.11 0 00-2-1.68 10.75 10.75 0 00-5.94-1.62 10 10 0 00-9.89 6.39 8.32 8.32 0 00-.5 2.68c-.12 2.11-.07 9.17 0 13.85v3.57a1.42 1.42 0 001.51 1.58h2.2a2.24 2.24 0 001-.37V25c0-2 .16-4.28 1.75-5.77a5.87 5.87 0 014-1.36 6.33 6.33 0 013.94 1.36C73.29 20.76 73.3 23 73.26 25v14.81a2.35 2.35 0 004.52 0V25c0-2 0-4.28 1.73-5.77a6.33 6.33 0 013.94-1.36 5.85 5.85 0 014 1.36C89 20.76 89.18 23 89.16 25v16.37a2.31 2.31 0 001 .37h2.19a1.42 1.42 0 001.51-1.58v-3.57c0-4.68.09-11.74 0-13.85a8.06 8.06 0 00-.5-2.68m122.2 10.17c-.33 4.67-1.79 7.15-4.89 7.93a10.36 10.36 0 01-4.7 0c-3.1-.78-4.56-3.26-4.89-7.93a18.79 18.79 0 010-4.24c.33-4.67 1.79-7.1 4.89-7.89a9.86 9.86 0 012.35-.27 10 10 0 012.35.27c3.1.79 4.56 3.22 4.89 7.89a20 20 0 010 4.24m4.86-3c0-2.49-.69-10.81-7.47-13.16a13.64 13.64 0 00-4.49-.74h-.28a13.7 13.7 0 00-4.5.74c-6.77 2.35-7.42 10.67-7.46 13.16v1.69c0 2.8.68 10.77 7.46 13.13a14 14 0 004.5.85h.28a13.64 13.64 0 004.49-.74c6.78-2.35 7.42-10.44 7.47-13.24v-1.71M138.92.17a3.29 3.29 0 00-3.42.83 3.25 3.25 0 00-.85 3.51 3.41 3.41 0 003.21 2.38 3.54 3.54 0 003.49-3.11 3.32 3.32 0 00-2.43-3.61m-1 14.36a12.49 12.49 0 01-2.31-.2v26.45c0 1.11 1.18 1.44 2.29 1.42s2.29-.31 2.29-1.42V14.33a12.56 12.56 0 01-2.31.2m-18.52.11a12.77 12.77 0 00-5.22-1.07 12.34 12.34 0 00-5.14 1.07 10.12 10.12 0 00-4.26 3.91 11.44 11.44 0 00-1.56 5.27v16.35a1.46 1.46 0 001.47 1.59H107a2.5 2.5 0 001-.37V24.84a7.73 7.73 0 011.79-5.34 5.85 5.85 0 014.33-1.65 6.24 6.24 0 014.43 1.65 7.73 7.73 0 011.79 5.34v16.55a2.43 2.43 0 001 .37h2.3a1.46 1.46 0 001.47-1.59V23.82a9.79 9.79 0 00-1.56-5.27 10.12 10.12 0 00-4.26-3.91M13.24 24.83c-.81-.18-3.57-.78-5-1.07h-.22a16.15 16.15 0 00-2.68-.37H5.1a5 5 0 00-2.68.7A5.13 5.13 0 000 28.48a5.31 5.31 0 004.09 4.83 7.14 7.14 0 002.15.32 6.54 6.54 0 003.08-.73 5.16 5.16 0 001.14-.82 8 8 0 00.8-.93 14.55 14.55 0 002.26-5.91l.06-.34zM223.9 41.72h-.37v-2.61h-.92v-.32h2.2v.32h-.91v2.61zm2.64 0l-1-2.57a3 3 0 010 .34v2.23h-.34v-2.93h.55l.9 2.4.92-2.4h.55v2.93h-.37v-2.57l-1 2.57zm27.94-7.24a6.73 6.73 0 01-2.77 5.79c-1.85 1.35-4.47 2-7.89 2a22 22 0 01-5.09-.52 17.94 17.94 0 01-3.7-1.24v-2.82a19.1 19.1 0 004.14 1.52 18.91 18.91 0 004.75.6q4 0 5.85-1.38a4.43 4.43 0 001.81-3.74 3.92 3.92 0 00-1.89-3.5 27.55 27.55 0 00-5.69-2.51c-1.69-.58-3.18-1.17-4.48-1.75a7.72 7.72 0 01-3-2.31 6.14 6.14 0 01-1.09-3.85 5.94 5.94 0 012.69-5.17 12.42 12.42 0 017.19-1.86 20.55 20.55 0 014.63.49 25.72 25.72 0 013.91 1.21l-1 2.43a19.47 19.47 0 00-3.62-1.18 17.88 17.88 0 00-4-.47 9.47 9.47 0 00-5.07 1.14 3.67 3.67 0 00-1.81 3.31 3.7 3.7 0 00.88 2.61 7.17 7.17 0 002.53 1.66c1.1.46 2.45 1 4 1.52a43.75 43.75 0 014.42 1.76 8.61 8.61 0 013.15 2.38 6 6 0 011.17 3.88m18.39-20.74a10.2 10.2 0 015.9 1.63 9.85 9.85 0 013.56 4.47 16.66 16.66 0 011.19 6.52v2.07h-19.65q0 5.43 2.53 8.35t7.3 2.92a22 22 0 004.5-.41 21.41 21.41 0 004.19-1.45v2.69a19.33 19.33 0 01-4.09 1.34 23.26 23.26 0 01-4.71.42q-6.15 0-9.46-3.78c-2.21-2.51-3.31-5.95-3.31-10.29a18.6 18.6 0 011.42-7.47 11.81 11.81 0 014.11-5.15 11.18 11.18 0 016.52-1.86m-.05 2.48a8 8 0 00-6.13 2.53 11.81 11.81 0 00-2.77 7.19h16.5a12.19 12.19 0 00-1.84-7 6.48 6.48 0 00-5.76-2.69m31.5-2.51q4.7 0 7.19 2.43t2.48 7.6v18h-2.95V24q0-3.93-1.78-5.79a6.91 6.91 0 00-5.28-1.89q-9.11 0-9.11 10.45v15H292V14.25h2.38l.41 4.76h.21a9.11 9.11 0 013.44-3.77 10.71 10.71 0 015.87-1.5m36.85 20.74a6.71 6.71 0 01-2.77 5.79q-2.76 2-7.88 2a22.18 22.18 0 01-5.1-.52 17.83 17.83 0 01-3.69-1.24v-2.82a19.2 19.2 0 004.13 1.52 19 19 0 004.76.6q4 0 5.85-1.38a4.45 4.45 0 001.81-3.74 3.92 3.92 0 00-1.89-3.5 27.68 27.68 0 00-5.67-2.51c-1.69-.58-3.18-1.17-4.47-1.75a7.83 7.83 0 01-3-2.31 6.2 6.2 0 01-1.08-3.85 5.92 5.92 0 012.69-5.17 12.42 12.42 0 017.15-1.86 20.62 20.62 0 014.63.49 25.23 25.23 0 013.9 1.21l-1 2.43a19.71 19.71 0 00-3.62-1.18 18 18 0 00-4-.47 9.52 9.52 0 00-5.07 1.14 3.69 3.69 0 00-1.84 3.31 3.75 3.75 0 00.88 2.61 7.22 7.22 0 002.54 1.66c1.1.46 2.44 1 4 1.52a42.83 42.83 0 014.42 1.76A8.64 8.64 0 01340 30.6a6 6 0 011.16 3.88m18.01-20.74a10.14 10.14 0 015.89 1.63 9.81 9.81 0 013.57 4.47 16.85 16.85 0 011.19 6.52v2.07h-19.65q0 5.43 2.53 8.35t7.3 2.92a21.86 21.86 0 004.5-.41 21 21 0 004.19-1.45v2.69a19.26 19.26 0 01-4.08 1.34 23.4 23.4 0 01-4.71.42q-6.15 0-9.47-3.78c-2.2-2.51-3.31-5.95-3.31-10.29a18.6 18.6 0 011.43-7.47 11.67 11.67 0 014.11-5.15 11.16 11.16 0 016.52-1.86m-.06 2.48a8 8 0 00-6.12 2.53 11.81 11.81 0 00-2.76 7.19h16.5a12.27 12.27 0 00-1.84-7 6.5 6.5 0 00-5.77-2.69"/></g></g></svg>