<svg version="1.1" id="レイヤー_1" xmlns="http://www.w3.org/2000/svg" x="0" y="0" width="30" height="30" xml:space="preserve"><style>.st0{fill:#10069f}</style><circle class="st0" cx="15" cy="10" r="5"/><path class="st0" d="M15 17a8.75 8.75 0 00-8.75 8.75V30h17.5v-4.25A8.75 8.75 0 0015 17zM10.971 4.285C10.978 4.189 11 4.098 11 4a4 4 0 10-4 4c.488 0 .949-.1 1.381-.26a7.027 7.027 0 012.59-3.455zM21.619 7.74c.432.16.893.26 1.381.26a4 4 0 10-4-4c0 .098.022.189.029.285a7.027 7.027 0 012.59 3.455zM8 10c0-.105.011-.207.016-.311A6.939 6.939 0 007 9.6a7 7 0 00-7 7V22h4.938a10.798 10.798 0 016.105-6.231A6.998 6.998 0 018 10zm15-.4c-.347 0-.683.04-1.016.089.005.104.016.206.016.311a6.998 6.998 0 01-3.043 5.769A10.798 10.798 0 0125.062 22H30v-5.4a7 7 0 00-7-7z"/></svg>