<svg version="1.1" id="レイヤー_1" xmlns="http://www.w3.org/2000/svg" x="0" y="0" viewBox="0 0 113.9 130.6" xml:space="preserve"><style>.st0{fill:#1a2c77}.st1{fill:#f1f0f8}.st2{fill:#fff}</style><g id="XMLID_30_"><path class="st0" d="M111.1 25.8c1.5.7 2.5 2.3 2.5 4 0 48.2-20 84.7-54.9 100.2-.5.2-1.2.4-1.8.4-.6 0-1.2-.1-1.8-.4C20.3 114.5.2 77.9.2 29.7c0-1.7 1-3.2 2.5-4L55 .7c1.2-.6 2.6-.6 3.8 0l52.3 25.1zm-2.1 4.1l-52.1-25-52.1 25c0 46.2 19 81.1 52.1 95.9C90 111 109 76.1 109 29.9z"/><path class="st1" d="M56.9 4.9l52.1 25c0 46.2-19 81.1-52.1 95.9-33-14.8-52-49.7-52.1-95.9l52.1-25zM101 37.4c0-.9-.5-1.8-1.3-2.2L57.9 15.3c-.6-.3-1.3-.3-2 0L14.2 35.2c-.8.4-1.4 1.3-1.3 2.2 1 21.2 7.9 59.4 43 77.8.3.2.7.3 1.1.3.4 0 .7-.1 1.1-.3 35-18.4 41.9-56.6 42.9-77.8z"/><path class="st0" d="M99.7 35.2c.8.4 1.3 1.3 1.3 2.2-1 21.2-8 59.4-43 77.8-.3.2-.7.3-1.1.3-.4 0-.7-.1-1.1-.3-35.1-18.4-42-56.6-43-77.8 0-.9.5-1.8 1.3-2.2l41.8-19.9c.6-.3 1.4-.3 2 0l41.8 19.9zm-3.4 3.5L56.9 20 17.5 38.7c1.2 20.2 8.1 54.7 39.4 71.8 31.3-17 38.2-51.6 39.4-71.8z"/><path class="st1" d="M56.9 20l39.4 18.8c-1.2 20.2-8.1 54.7-39.4 71.8-31.3-17.1-38.2-51.7-39.4-71.9L56.9 20zm17.7 58.5V58.6c0-2.7-2.1-5-4.8-5.2h-.2v-2.2c0-7-5.7-12.7-12.7-12.7s-12.7 5.7-12.7 12.7v2.2c-2.8.1-5 2.4-5 5.2v19.9c0 2.9 2.4 5.2 5.2 5.2h24.9c2.9 0 5.3-2.3 5.3-5.2z"/><path class="st0" d="M74.6 58.6v19.9c0 2.9-2.3 5.2-5.2 5.2H44.5c-2.9 0-5.2-2.3-5.2-5.2V58.6c0-2.8 2.2-5.1 5-5.2h2.5c-1.1.3-2 1.4-2 2.7 0 1.4 1 2.6 2.2 2.8h-2.2v19.4h24.4V58.9h-.9c1.2-.2 2.2-1.3 2.2-2.8 0-.8-.3-1.5-.7-2l.1-.7c2.6.2 4.7 2.5 4.7 5.2z"/><path class="st0" d="M69.7 54.2c.5.5.7 1.2.7 2 0 1.4-1 2.6-2.2 2.8h-1.4c-1.5 0-2.7-1.2-2.7-2.7v-2.8h3.8c.7-.2 1.4.2 1.8.7z"/><path class="st0" d="M69.8 53.4l-.1.7c-.5-.5-1.1-.8-1.8-.8h-3.8v-2.2c0-4-3.2-7.2-7.2-7.2s-7.2 3.2-7.2 7.2v2.2h-2.5c-.2 0-.3 0-.5.1h-2.5v-2.2c0-7 5.7-12.7 12.7-12.7s12.7 5.7 12.7 12.7v2.2h.2z"/><path class="st2" d="M69.1 58.9v19.4H44.8V58.9h24.3zM59 70.3v-4.2c0-1.2-.9-2.1-2.1-2.1-1.2 0-2.1.9-2.1 2.1v4.2c0 1.2.9 2.1 2.1 2.1 1.2 0 2.1-1 2.1-2.1z"/><path class="st0" d="M66.9 58.9h1.4H47c1.5 0 2.7-1.2 2.7-2.7v-2.8h14.4v2.8c0 1.5 1.3 2.7 2.8 2.7z"/><path class="st2" d="M64.1 51.2v2.2H49.7v-2.2c0-4 3.2-7.2 7.2-7.2s7.2 3.2 7.2 7.2z"/><path class="st0" d="M59 66.1v4.2c0 1.2-.9 2.1-2.1 2.1-1.2 0-2.1-.9-2.1-2.1v-4.2c0-1.2.9-2.1 2.1-2.1 1.2 0 2.1.9 2.1 2.1zm-9.3-12.8v2.8c0 1.5-1.2 2.7-2.7 2.7-1.2-.2-2.2-1.3-2.2-2.8 0-1.3.9-2.5 2-2.7.2 0 .3-.1.5-.1h2.4z"/></g></svg>