<svg version="1.1" id="レイヤー_1" xmlns="http://www.w3.org/2000/svg" x="0" y="0" viewBox="0 0 77.1 138.5" xml:space="preserve"><style>.st0{fill:#f1f0f8}.st1{fill:#fff}.st2{fill:#1a2c77}</style><path class="st0" d="M4.7 15.3h67.7v104.8H4.7z"/><path class="st1" d="M19.6 47.8h37.8v37.8H19.6z"/><path class="st0" d="M72.4 124.3v4.4c0 2.8-2.3 5.1-5.1 5.1H9.8c-2.8 0-5.1-2.3-5.1-5.1v-4.4h67.7z"/><path class="st2" d="M4.7 15.3h67.7v.3H4.7z"/><path class="st0" d="M72.4 9.8v2H4.7v-2C4.7 7 7 4.7 9.8 4.7h57.6c2.8 0 5 2.2 5 5.1z"/><path class="st2" d="M61.2 78.1v7.6c0 2.1-1.7 3.8-3.8 3.8h-7.6v-3.8h7.6v-7.6h3.8zm0-30.3v7.6h-3.8v-7.6h-7.6V44h7.6c2.1 0 3.8 1.7 3.8 3.8zM49.9 72.4h3.8v5.7h-3.8zm0-7.6h3.8v3.8h-3.8z"/><path class="st2" d="M53.7 51.6v11.3H42.3V51.6h11.4zm-3.8 7.6v-3.8h-3.8v3.8h3.8zm-3.8 18.9h3.8v3.8h-3.8zm0-9.5h3.8v3.8h-3.8z"/><path class="st1" d="M46.1 55.4h3.8v3.8h-3.8z"/><path class="st2" d="M46.1 72.4v5.7h-5.7v3.7h-3.7v-7.5h5.6v-1.9zm-3.8-7.6h3.8v3.8h-3.8zm-1.9 0v7.6h-3.7v-3.8h-3.8v-3.8zm-3.7-9.4h3.8V63h-3.8zm-1.9 15.1v11.3H23.4V70.5h11.4zM31 78.1v-3.8h-3.8v3.8H31zm3.8-26.5v11.3H23.4V51.6h11.4zM31 59.2v-3.8h-3.8v3.8H31z"/><path class="st1" d="M27.2 74.3H31v3.8h-3.8zm0-18.9H31v3.8h-3.8z"/><path class="st2" d="M27.2 85.6v3.8h-7.6c-2.1 0-3.8-1.7-3.8-3.8V78h3.8v7.6h7.6zm-3.8-20.8h3.8v3.8h-3.8zM27.2 44v3.8h-7.6v7.6h-3.8v-7.6c0-2.1 1.7-3.8 3.8-3.8h7.6z"/><path class="st2" d="M67.3 0H9.8C4.4 0 0 4.4 0 9.8v118.9c0 5.4 4.4 9.8 9.8 9.8h57.6c5.4 0 9.8-4.4 9.8-9.8V9.8C77.1 4.4 72.7 0 67.3 0zm5.1 128.7c0 2.8-2.3 5.1-5.1 5.1H9.8c-2.8 0-5.1-2.3-5.1-5.1v-4.4h67.7v4.4zm0-8.3H4.7v-105h67.7v105zm0-108.7H4.7v-2c0-2.8 2.3-5.1 5.1-5.1h57.6c2.8 0 5.1 2.3 5.1 5.1v2z"/></svg>