<svg version="1.1" id="レイヤー_1" xmlns="http://www.w3.org/2000/svg" x="0" y="0" width="54" height="54" xml:space="preserve"><style>.st0{fill:#10069f}</style><path class="st0" d="M36.444 27.062c-1.865.191-3.793.388-5.08 1.857-1.112 1.269-1.495 3.166-.954 4.72.714 2.051 2.612 3.301 5.067 3.301 1.789 0 3.555-.654 4.703-1.816a5.38 5.38 0 00.849-1.122c1.204-2.184 1.111-5.185.844-7.383l-5.429.443z"/><path class="st0" d="M37.922 7.959a19.786 19.786 0 00-7.236-.272c-2.52.373-5.049.03-7.406-.893a18.57 18.57 0 01-.975-.419c-1.57-.719-3.385-1.236-5.914-1.072-2.339.152-4.434 1.093-5.908 2.115.846.156 1.658.373 2.304.663 3.201 1.433 5.234 3.438 6.231 6.535.533 1.656.422 4.083-.395 6.757l-4.21 13.769c2.419 6.927 8.412 12.272 16.045 13.379 11.449 1.66 22.084-6.869 23.088-18.847.851-10.167-5.89-19.539-15.624-21.715zm8.281 31.428s-.575.346-.981.361h-1.99c-1.465 0-1.235-.476-1.235-2.606-3.108 2.869-7.14 4.036-11.078 2.535-6.668-2.542-6.363-11.709-.509-14.858 2.615-1.407 11.724-1.395 11.724-1.395s-.058-6.711-5.654-7.493c-2.084-.291-4.859.575-5.771.718-.72.113-1.163-.363-1.423-.961-.345-.795-.848-1.664.532-2.317 1.077-.51 4.697-1.42 6.934-1.141 3.481.435 6.011 1.758 7.87 4.428.994 1.428 1.583 3.781 1.583 6.578-.002 5.309-.002 16.151-.002 16.151z"/><path class="st0" d="M14.742 20.429c-.057-.017-5.675-1.734-9.333-2.098l-.164-.016-.012-.164c-.192-3.385.776-5.757 2.033-7.706l.064-.096.115.009c1.3.105 2.955.3 4.22.889 5.216 2.427 3.341 8.985 3.322 9.051l-.056.189-.189-.058zm-8.137 11.4a7.514 7.514 0 01-2.201-.331C1.975 30.755.473 28.955.385 26.681c-.065-1.713.893-3.484 2.385-4.409.756-.468 1.625-.696 2.654-.696.257 0 .524.014.813.041.698.067 1.398.205 2.074.339l5.509 1.204-.033.185c-.351 1.979-.879 3.639-1.568 4.933-.422.792-.911 1.461-1.454 1.987a5.569 5.569 0 01-1.183.856c-.857.463-1.886.708-2.977.708z"/></svg>