<svg version="1.1" id="レイヤー_1" xmlns="http://www.w3.org/2000/svg" x="0" y="0" viewBox="0 0 147.2 84.6" xml:space="preserve"><style>.st0{fill:#fff}.st2{fill:#172788}.st3{fill:#f1f0f8}</style><path class="st0" d="M141.4 8.6c0 2-1.6 3.6-3.6 3.6s-3.6-1.6-3.6-3.6 1.6-3.6 3.6-3.6c2-.1 3.6 1.6 3.6 3.6z"/><path d="M139.6 82.9H7.7c-3.1 0-5.7-2.5-5.7-5.7V8c0-3.1 2.5-5.7 5.7-5.7h131.9c3.1 0 5.7 2.5 5.7 5.7v69.2c-.1 3.1-2.6 5.7-5.7 5.7z" fill="#f1f0f8" stroke="#172788" stroke-width="4" stroke-miterlimit="10"/><g id="XMLID_27_"><path class="st2" d="M40.5 59.1c0 .1 0 .1 0 0v.1c-.1.5-.2 1.1-.3 1.6-1 5.9-5.4 9-12.9 9h-.4c-3.6 0-6.3-.7-8.3-2.1-2.6-1.8-3.3-5.3-3.8-8.2l-.1-.7v-.2c.1-4.9.5-10.1 1.4-15.9v-.2c.3-2 .6-4.4 2-6.2.9-1.2 2.8-2 3-2 1.7-.7 3.8-1.1 6.1-1.1 2 0 3.8.3 5.4.8 1.6.5 3.2 1.2 4.4 2.3 1.6 1.7 1.9 4 2.2 6.1 0 .3.1.6.1.8.7 4.2 1.1 8.8 1.2 14.3v1.6zm-2-1.1v-.2c-.1-5.5-.5-10-1.2-14.3 0-.3-.1-.6-.1-.9-.2-1.4-.4-2.7-.9-3.9-1 2.2-5.2 3.4-9.1 3.4-4 0-7.2-1.1-8.5-2.8-.3 1-.5 2.2-.6 3.3v.2c-.8 5.6-1.2 10.6-1.3 15.4.3.5.8.9 1.5 1.4.8.5 1.8.9 2.7 1.2v-.6c0-.5 0-.9.1-1.4 0-.4 0-.8.1-1.1v-.1c0-.3 0-1 .5-1.4.5-.5 1.2-.4 1.5-.3l.5.1c.2 0 .4.1.6.1.3 0 .6.1.9.1l.7.1c.2 0 .5 0 .7.1 1.1.4 1.2 1.5 1.2 1.9v3.4c2 0 3.9-.1 5.9-.7 1.1-.3 2.5-.8 3.5-1.6.5-.3.8-.7 1.1-1.1 0 0 .1-.1.2-.3zm-4-20.3c0-.4-.6-1-1.9-1.6-.2-.1-.4-.1-.6-.2-1.4-.5-3-.7-4.7-.7-2 0-3.9.3-5.4.9-1.1.5-1.8 1.1-1.8 1.6 0 1 2.8 2.5 7.2 2.5 4.3.1 7.2-1.5 7.2-2.5zm-8.8 25v-4.3h-.1l-.7-.1c-.3 0-.7-.1-1-.1-.2 0-.4-.1-.6-.1h-.2v.8c0 .6 0 1-.1 1.5l-.1 1.8v.1c.8.3 1.8.4 2.8.4z"/><path class="st0" d="M38.5 57.8v.2c0 .2-.1.3-.2.5-.3.4-.6.8-1.1 1.1-1 .7-2.5 1.2-3.5 1.6-2.1.6-3.9.7-5.9.7v-3.4c0-.5 0-1.5-1.2-1.9-.2-.1-.5-.1-.7-.1l-.9-.1c-.3 0-.6-.1-.9-.1-.2 0-.4-.1-.6-.1l-.5-.1c-.3-.1-1-.2-1.5.3s-.5 1.1-.5 1.4v.1c0 .3 0 .7-.1 1.1 0 .5 0 .9-.1 1.4v.6c-1-.3-1.9-.6-2.7-1.2-.7-.5-1.2-.9-1.5-1.4.1-4.8.5-9.8 1.3-15.4v-.2c.2-1.1.3-2.3.6-3.3 1.4 1.7 4.6 2.8 8.5 2.8 3.9 0 8-1.2 9.1-3.4.5 1.1.7 2.5.9 3.9 0 .3.1.6.1.9.9 4.1 1.2 8.6 1.4 14.1zm-12.3-4.1v-2.1l-.9-.1-1-.1-.9-.1-.9-.2-.1 2.1 1 .2 1 .2 1 .1h.8z"/><path class="st0" d="M32.5 36.1c1.3.6 1.9 1.2 1.9 1.6 0 1-2.9 2.6-7.3 2.6s-7.2-1.5-7.2-2.5c0-.5.7-1.1 1.8-1.6 1.4-.6 3.3-.9 5.4-.9 1.8 0 3.4.2 4.7.7.3-.1.5 0 .7.1z"/><path class="st2" d="M26.3 51.7l-.1 2h-.9l-1-.1-.9-.2-1-.1.2-2.1.9.2.9.1.9.1z"/><path class="st0" d="M25.7 62.5v.2c-1 0-2-.2-2.9-.3v-.1l.1-1.8c0-.5 0-.9.1-1.5v-.8h.2c.2 0 .4.1.6.1.3.1.7.1 1 .1l.7.1h.1V61c0 .5.1 1 .1 1.5z"/></g><path class="st2" d="M41.3 34.7c-.6-.1-1-.5-1-1.1.1-.8-.5-1.4-1.2-1.5-.5-.1-.9-.6-.9-1.1.1-.5.6-.9 1.1-.9 1.8.2 3.1 1.9 2.9 3.7.1.5-.4.9-.9.9zm7.3.7s-.1 0 0 0c-.6-.1-1-.5-1-1.1.2-2.3-.5-4.6-2-6.4-1.5-1.8-3.6-2.9-5.9-3.1-.5-.1-1-.5-.9-1.1.1-.5.5-1 1.1-.9 5.9.5 10.2 5.8 9.7 11.7 0 .5-.5.9-1 .9z"/><path class="st2" d="M44.9 35c-.4 0-.6-.3-.7-.6-.1-.7-.2-1.4-.4-2.1-.1-.7-.5-1.4-1-2-.5-.6-1.1-1.1-1.8-1.3-.7-.3-1.4-.6-2-.8-.3-.1-.5-.4-.5-.8s.3-.7.7-.7c.5-.1 1.1-.1 1.7.1 1.6.4 3 1.4 3.9 2.8.9 1.3 1.4 2.9 1.2 4.6-.1.5-.5.9-1.1.8 0 .1 0 .1 0 0z"/><path class="st2" d="M41.3 34.7c-.6-.1-1-.5-1-1.1 0-.4-.1-.7-.3-1-.2-.3-.6-.5-.9-.5-.5-.1-1-.5-.9-1.1.1-.5.5-.9 1.1-.9.9.1 1.7.5 2.3 1.2.6.7.9 1.6.8 2.5-.1.5-.6.9-1.1.9zm-25.6-21v-.1s.6-2.1-1.1-3.1c-.5-.2-1.1-.3-1.7-.3-.4.6-.7 1.3-.8 2.1v.7c1.3.1 3.4.7 3.4.7h.2"/><path class="st2" d="M26.9 19.3v1c-.1 0-.2.1-.3.1h-.8c-.1 0-.2 0-.3-.1-.1-.1-.1-.3-.1-.6v-.2l-.1.1c-.8.7-1.7 1.1-2.5 1.1-.4 0-.9-.1-1.3-.2-1-.3-1.7-1.2-1.8-2.4-.1-1.2.5-2.4 1.5-2.9.9-.5 4.1-.6 4.1-.6h.1v-.1s-.1-2.2-1.9-2.6h-.4c-.5 0-1 .1-1.3.2-.2.1-.4.1-.5.1-.2 0-.4-.2-.5-.4-.1-.3-.2-.6.2-.8.3-.1 1.3-.4 2.1-.5h.3c1.3.1 2.2.6 2.8 1.5.4.5.6 1.4.6 2.3v2.1c.1 1.4.1 2.4.1 2.9m2.6-2.5c.3-3.6-2.2-6.9-5.7-7.7-.9-.2-1.8-.2-2.6-.1-1 .2-2.1 0-3-.4-.8-.3-1.7-.5-2.6-.3-.6.1-1.1.4-1.6.7.3.1.7.1.9.2 1.2.5 1.9 1.2 2.2 2.3.2.6.2 1.5-.1 2.4l-.6 1.9c-.3 1.2-.6 2.2-.8 2.7 0 .1-.1.2-.1.3.9 2.5 3.1 4.3 5.8 4.7 4.1.6 7.9-2.5 8.2-6.7"/><path class="st2" d="M25.3 15.7c-.3 0-1.3.1-1.9.2h-.1c-.7.1-1.3.2-1.8.7-.4.5-.5 1.1-.3 1.7.3.7 1 1.2 1.8 1.1.6 0 1.3-.3 1.7-.7.1-.1.2-.2.3-.4.5-.7.5-1.8.3-2.6m-10.1-1.1c-.3-.1-1.3-.3-1.8-.4h-.1c-.3-.1-.6-.1-.9-.1h-.1c-.4 0-.7.1-.9.3-.5.3-.9 1-.8 1.6 0 .8.6 1.4 1.5 1.7.2.1.5.1.8.1.4 0 .8-.1 1.1-.3.1-.1.3-.2.4-.3l.3-.3c.4-.6.7-1.4.8-2.1v-.1l-.3-.1m74.4 1.3H76.4c-1.1 0-2-.9-2-2v-3.6c0-1.1.9-2 2-2h13.1c1.1 0 2 .9 2 2V14c.1 1.1-.8 1.9-1.9 1.9z"/><path class="st3" d="M59.4 35.3c-.4 0-.7-.3-.7-.7v-6.9c0-.4.3-.7.7-.7h30.1c.4 0 .7.3.7.7v6.9c0 .4-.3.7-.7.7H59.4z"/><path class="st2" d="M89 28.2V34H59.9v-5.8H89m.5-2.5H59.4c-1.1 0-2 .9-2 2v6.9c0 1.1.9 2 2 2h30.1c1.1 0 2-.9 2-2v-6.9c0-1.1-.9-2-2-2z"/><path class="st3" d="M59.4 54.4c-.4 0-.7-.3-.7-.7v-6.9c0-.4.3-.7.7-.7h30.1c.4 0 .7.3.7.7v6.9c0 .4-.3.7-.7.7H59.4z"/><path class="st2" d="M89 47.3v5.8H59.9v-5.8H89m.5-2.5H59.4c-1.1 0-2 .9-2 2v6.9c0 1.1.9 2 2 2h30.1c1.1 0 2-.9 2-2v-6.9c0-1.1-.9-2-2-2z"/><path class="st3" d="M59.4 72.5c-.4 0-.7-.3-.7-.7v-6.9c0-.4.3-.7.7-.7h30.1c.4 0 .7.3.7.7v6.9c0 .4-.3.7-.7.7H59.4z"/><path class="st2" d="M89 65.4v5.8H59.9v-5.8H89m.5-2.5H59.4c-1.1 0-2 .9-2 2v6.9c0 1.1.9 2 2 2h30.1c1.1 0 2-.9 2-2v-6.9c0-1.1-.9-2-2-2zm22.4-47H98.8c-1.1 0-2-.9-2-2v-3.6c0-1.1.9-2 2-2h13.1c1.1 0 2 .9 2 2V14c0 1.1-.9 1.9-2 1.9zm22.3 0h-13.1c-1.1 0-2-.9-2-2v-3.6c0-1.1.9-2 2-2h13.1c1.1 0 2 .9 2 2V14c0 1.1-.9 1.9-2 1.9z"/><path d="M102 31.1h32m-32 10.2h32m-32 11.2h32" fill="none" stroke="#172788" stroke-width="2.5" stroke-linecap="round" stroke-miterlimit="10"/><path class="st2" d="M133 73.2h-30.1c-1.1 0-2-.9-2-2v-5.8c0-1.1.9-2 2-2H133c1.1 0 2 .9 2 2v5.8c0 1.1-.9 2-2 2z"/><path class="st0" d="M105.8 69.1c0 .4-.1.7-.4.9-.3.2-.7.3-1.2.3s-.9-.1-1.2-.3v-.8c.2.1.4.2.6.2.2.1.4.1.7.1.2 0 .4 0 .5-.1.1-.1.1-.2.1-.3 0-.1 0-.2-.1-.3-.1-.1-.2-.1-.3-.2-.1-.1-.3-.1-.4-.2-.1 0-.2-.1-.3-.2-.1-.1-.2-.1-.3-.2-.1-.1-.2-.2-.3-.4-.1-.1-.1-.3-.1-.5 0-.4.1-.7.4-.9.3-.2.6-.3 1.1-.3.2 0 .4 0 .6.1.2.1.4.1.6.2l-.3.7c-.2-.1-.4-.1-.5-.2-.2 0-.3-.1-.5-.1s-.3 0-.4.1c-.1.1-.1.2-.1.3 0 .2.1.3.2.4.1.1.3.2.6.3l.6.3c.2.1.3.2.4.4-.1.3 0 .5 0 .7zm5.6-3.1v2.8c0 .3-.1.6-.2.8-.1.2-.3.4-.6.6-.3.1-.6.2-1 .2-.6 0-1-.1-1.3-.4s-.4-.7-.4-1.1V66h.9v2.6c0 .4.1.6.2.7.1.1.4.2.6.2.3 0 .5-.1.6-.2.1-.2.2-.4.2-.7V66h1zm2.5 0h1.3c.6 0 1 .1 1.3.2.3.2.4.4.4.8 0 .2-.1.5-.2.6-.1.2-.3.3-.5.3.1 0 .3.1.4.2l.3.3c.1.1.1.3.1.5 0 .4-.1.7-.4.9-.3.2-.7.3-1.1.3h-1.6V66zm.9 1.7h.5c.3 0 .4 0 .5-.1.1-.1.2-.2.2-.4s-.1-.3-.2-.4c-.1-.1-.3-.1-.6-.1h-.5v1zm0 .7v1.1h.6c.3 0 .5-.1.6-.2.1-.1.2-.2.2-.4s-.1-.3-.2-.4c-.1-.1-.3-.1-.6-.1h-.6zm6.3 1.9l-1-3.4v3.4h-.8V66h1.2l1 3.3 1.1-3.3h1.2v4.3h-.8v-3.4l-1.1 3.4h-.8zm6.9 0h-2v-.5l.5-.2v-2.8l-.5-.2V66h1.9v.5l-.5.2v2.8l.5.2v.6zm3.9 0h-.9v-3.5h-1.2V66h3.2v.8h-1.2v3.5z"/></svg>