<svg id="レイヤー_1" data-name="レイヤー 1" xmlns="http://www.w3.org/2000/svg" viewBox="0 0 847.91 281.26"><defs><style>.cls-1{fill:#162789}.cls-2{fill:#f7f9f9}</style></defs><path class="cls-1" d="M87 8.22a16.18 16.18 0 014.27 2.37l-1.42 2A18.53 18.53 0 0085.67 10zm2.66 7l2 1.29c-1 2.77-2.21 5.88-3.32 8.33l-2.21-1.27a72.2 72.2 0 003.57-8.34zm-1.55-14a16.47 16.47 0 014.16 2.56l-1.44 1.99a18.79 18.79 0 00-4-2.77zm7.9 18.56a18.46 18.46 0 01-3.63 5.45A17.72 17.72 0 0090.49 24a13.47 13.47 0 003.32-4.74zm4.59-17.71v16.7h-7.71V2.11zM95 7h3.51V4.24H95zm0 4.85h3.51V9H95zm0 4.79h3.51v-2.81H95zm4.32 2.43a35.32 35.32 0 012.9 4l-2 1.22a26.76 26.76 0 00-2.8-4.19zm5.17-15.39v15h-2.14v-15zM109 1v21.27c0 1.37-.29 2.05-1.11 2.45a11.27 11.27 0 01-4.21.45 8.85 8.85 0 00-.71-2.35c1.47.05 2.82.05 3.24 0s.55-.14.55-.56V1zm49.78 3.93c-.53.34-1.14.73-1.61 1.08-1.34 1-4.51 3.71-6.35 5.24a9.74 9.74 0 013.08-.45c4.38 0 7.62 2.69 7.62 6.33 0 4.19-3.35 7.17-9.2 7.17-3.61 0-6-1.64-6-4a4 4 0 014.32-3.72 5.22 5.22 0 015.48 4.59 4.26 4.26 0 002.74-4.09c0-2.45-2.48-4.19-5.67-4.19-4.16 0-6.64 1.95-9.72 5.22l-1.92-1.95c2-1.66 5.29-4.4 6.82-5.67s4.46-3.71 5.77-4.85c-1.37.06-5.82.24-7.19.32-.66 0-1.34.11-1.92.19l-.08-2.72a18.58 18.58 0 002.08.13c1.37 0 7.27-.16 8.69-.29a9.27 9.27 0 001.63-.27zm-5.09 16.89c-.21-1.93-1.34-3.19-3.08-3.19-1.08 0-1.87.63-1.87 1.45 0 1.13 1.34 1.84 3.11 1.84a13.44 13.44 0 001.84-.1zM376.57 8.27c2.11-.66 7.3-2.53 11.15-2.53 4.48 0 8 2.61 8 7.17 0 6.11-6 9.49-14.52 9.94l-1.19-2.77c6.93-.16 12.78-2.21 12.78-7.22 0-2.61-1.87-4.64-5.21-4.64-4.09 0-10.52 2.77-12.89 3.74l-1.19-2.9c.99-.18 2.1-.5 3.07-.79zm37.14-.76a40 40 0 01-4.64.92 45.69 45.69 0 01-5.67 11.1l-2.52-1.3a37.75 37.75 0 005.45-9.51h-1.87c-1 0-2.08 0-3.14-.1l-.18-2.43a33.1 33.1 0 003.32.16c.87 0 1.76 0 2.69-.1a21 21 0 00.76-4.43l2.87.26c-.21.9-.55 2.35-.94 3.82a27.61 27.61 0 003.79-.89zm3.21 2.71a28.49 28.49 0 000 3.06c0 .84.1 2.35.18 3.82a17.28 17.28 0 015.4 3.3l-1.39 2.24a20.59 20.59 0 00-3.9-2.9v.71c0 2.21-1.35 4-4.77 4-3 0-5.48-1.29-5.48-4 0-2.45 2.21-4.19 5.45-4.19a12 12 0 012.19.18c-.11-2.05-.24-4.5-.29-6.22zm-2.26 8.49a8.86 8.86 0 00-2.4-.32c-1.74 0-2.87.77-2.87 1.82s.89 1.87 2.68 1.87c1.95 0 2.61-1.1 2.61-2.45 0-.26 0-.55-.02-.92zm7.14-7.49a33.68 33.68 0 00-6.09-3.63l1.32-2a43.91 43.91 0 016.24 3.5zm10.89-7.64c-.19.56-.4 1.37-.53 1.87-.74 3.4-1.64 8.75-.79 12.57.37-1 .87-2.39 1.32-3.55l1.37.87a61.91 61.91 0 00-1.74 6 7.36 7.36 0 00-.13 1.22c0 .26.05.65.05 1l-2.27.24a28.49 28.49 0 01-1.45-8.36 66.49 66.49 0 011-10.17 17.82 17.82 0 00.16-1.95zm12.8-.39c-.08.55-.1 1.05-.13 1.6s0 2.14 0 3.64a35 35 0 004.43-.58v2.72c-1.21.18-2.74.31-4.38.42v.76c0 6.09-.23 10.15-5.58 13.42l-2.4-1.9a9.63 9.63 0 002.77-1.82c2.42-2.27 2.68-4.95 2.68-9.7v-.63c-.94 0-1.89.05-2.81.05-1.22 0-2.93-.08-4.14-.16V8.35a27.48 27.48 0 004.08.29c.92 0 1.87 0 2.82-.05 0-1.53-.08-3.06-.13-3.77a13 13 0 00-.26-1.63zm2.11 3.29a31.52 31.52 0 00-1.45-3.74l1.5-.45A28 28 0 01449.13 6zm2.74-5a35.15 35.15 0 011.5 3.66l-1.52.5A28.81 28.81 0 00448.84 2zm21.75 3.45c-.53.34-1.14.73-1.61 1.08-1.34 1-4.51 3.71-6.35 5.24a9.78 9.78 0 013.08-.45c4.38 0 7.62 2.69 7.62 6.33 0 4.19-3.35 7.17-9.2 7.17-3.61 0-6-1.64-6-4a4 4 0 014.32-3.72 5.22 5.22 0 015.48 4.59 4.26 4.26 0 002.74-4.09c0-2.45-2.48-4.19-5.67-4.19-4.16 0-6.64 1.95-9.72 5.22l-1.92-1.95c2-1.66 5.29-4.4 6.82-5.67s4.46-3.71 5.77-4.85c-1.37.06-5.82.24-7.19.32-.66 0-1.34.11-1.92.19l-.08-2.72a18.58 18.58 0 002.08.13c1.37 0 7.27-.16 8.69-.29a9.27 9.27 0 001.63-.27zM467 21.82c-.21-1.93-1.34-3.19-3.08-3.19-1.08 0-1.87.63-1.87 1.45 0 1.13 1.34 1.84 3.11 1.84a13.44 13.44 0 001.84-.1zm212.25-8.7c-1.08-.74-3.27-2-4.85-2.82l1.35-1.82c1.5.74 3.74 1.9 4.84 2.61zm-4.32 10.09a78.53 78.53 0 005-8.32l1.77 1.63c-1.35 2.72-3.11 5.88-4.67 8.33zM680.49 6c-1.08-.77-3.27-2-4.82-2.9L677 1.37A54.21 54.21 0 01681.94 4zm11 5v3.9h5.43V25h-2.32v-1h-8.72v1.11h-2.28V14.89h5.53V11h-7.32V8.64h7.32V4.9c-1.84.29-3.74.5-5.48.63a8.32 8.32 0 00-.71-2.05c4.51-.48 9.62-1.32 12.52-2.4L697.38 3a35 35 0 01-5.93 1.52v4.12h7V11zm3.11 6.11h-8.72v4.74h8.72zm29.74 5c0 1.42-.34 2.16-1.29 2.53a14.46 14.46 0 01-4.93.42 10.07 10.07 0 00-.81-2.37c1.68.08 3.42 0 3.92 0s.66-.16.66-.66v-4.67h-6.38v7.54h-2.45v-7.54H707a15.16 15.16 0 01-3.29 8 8.15 8.15 0 00-1.93-1.61c2.88-3.19 3.14-7.85 3.14-11.57V2.79h19.42zm-11.28-7.06v-3.9h-5.71v1c0 .9 0 1.87-.11 2.85zm-5.71-9.91v3.71h5.71V5.14zm14.54 0h-6.38v3.71h6.38zm0 9.91v-3.9h-6.38v3.9zm29.68-7.22c-1.56-.08-4-.14-7.8-.14v4.09a6.44 6.44 0 01.92 3.48c0 3.47-1.85 7.56-8 9.35l-2.24-2.21c3.06-.69 5.46-1.82 6.72-3.77a4.45 4.45 0 01-6.22-4.19 4.73 4.73 0 014.88-4.69 5.19 5.19 0 011.45.18V7.72c-4 0-8.22.21-11.46.42l-.08-2.53c2.95 0 7.8-.18 11.51-.24 0-.55 0-1-.05-1.31 0-.66-.13-1.53-.21-1.9h3c-.05.34-.13 1.53-.13 1.9v1.29h7.8zm-11.75 8.88c1.34 0 2.34-1.08 2-3.56a2.13 2.13 0 00-2-1.21 2.34 2.34 0 00-2.35 2.45 2.27 2.27 0 002.35 2.32zm32.7-11.78c-.52.34-1.13.73-1.6 1.08-1.35 1-4.51 3.71-6.35 5.24a9.74 9.74 0 013.08-.45c4.37 0 7.61 2.69 7.61 6.33 0 4.19-3.34 7.17-9.19 7.17-3.61 0-6-1.64-6-4a4 4 0 014.32-3.72 5.22 5.22 0 015.49 4.59 4.27 4.27 0 002.74-4.09c0-2.45-2.48-4.19-5.67-4.19-4.16 0-6.64 1.95-9.72 5.22l-1.93-1.95 6.83-5.67c1.53-1.27 4.45-3.71 5.77-4.85-1.37.06-5.83.24-7.2.32-.65 0-1.34.11-1.92.19l-.08-2.72a18.58 18.58 0 002.08.13c1.37 0 7.28-.16 8.7-.29A9.27 9.27 0 00771.1 3zm-5.08 16.89c-.21-1.93-1.35-3.19-3.09-3.19-1.08 0-1.87.63-1.87 1.45 0 1.13 1.35 1.84 3.11 1.84a13.59 13.59 0 001.85-.1zm-42.13 256.44a120.61 120.61 0 100-241.21C692 37.05 660.51 53 640 72.37s-39.62 29.89-65 29.89-44.53-10.48-65-29.89-52-35.32-85.28-35.32S359.93 53 339.45 72.37s-39.62 29.89-65 29.89-44.53-10.48-65-29.89-52-35.32-85.28-35.32a120.61 120.61 0 100 241.21c33.3 0 64.8-15.91 85.28-35.32s39.62-29.9 65-29.9 44.53 10.48 65 29.9 52 35.32 85.28 35.32 64.8-15.91 85.28-35.32S549.63 213 575 213s44.52 10.48 65 29.9 52 35.36 85.31 35.36z"/><path class="cls-2" d="M589.66 133.79C588.88 120.59 578 110 564.88 110a25.87 25.87 0 00-20.46 10.28c-.11 0-.23-.09-.34-.15-.29-.14-.58-.27-.89-.39l-.5-.19-.91-.28-.51-.13c-.33-.07-.66-.13-1-.18l-.45-.07a14.15 14.15 0 00-1.47-.09 13.23 13.23 0 00-13.21 13.2 5.25 5.25 0 000 .56 20.26 20.26 0 00-10.3 17.27 18.87 18.87 0 0018.85 18.84h7.56a1.47 1.47 0 100-2.93h-7.56a15.93 15.93 0 01-15.91-15.91 17.44 17.44 0 019.43-15l.84-.4v-2.39a10.28 10.28 0 0110.27-10.27 10 10 0 011.34.1h.34a8.87 8.87 0 011.16.26h.15a9.16 9.16 0 011.23.47l.3.14a9.62 9.62 0 011 .59 10.26 10.26 0 014.71 8.62 1.47 1.47 0 002.93 0 13.19 13.19 0 00-4.62-9.95 23.23 23.23 0 0118-9 22.14 22.14 0 0121.78 20.37 27.83 27.83 0 00-6 .18 1.47 1.47 0 00.22 2.92h.22a27 27 0 016.87 0 15 15 0 0112 14.65 14.73 14.73 0 01-14.71 14.71h-5.83a1.47 1.47 0 000 2.93h5.83a17.66 17.66 0 0017.65-17.64 18.06 18.06 0 00-13.23-17.33z"/><path class="cls-2" d="M585.25 169.15h-5.83a1.9 1.9 0 110-3.8h5.83a14.3 14.3 0 0014.28-14.28 14.6 14.6 0 00-11.63-14.22 26.34 26.34 0 00-6.72 0 1.93 1.93 0 01-2.17-1.59 1.86 1.86 0 01.35-1.41 1.9 1.9 0 011.24-.76 28.13 28.13 0 015.58-.22 21.76 21.76 0 00-21.3-19.47 22.74 22.74 0 00-17.43 8.5A13.58 13.58 0 01552 132a1.9 1.9 0 11-3.8 0 9.81 9.81 0 00-4.51-8.26 11.27 11.27 0 00-1-.56l-.29-.14a9.84 9.84 0 00-1.17-.45h-.15a7.5 7.5 0 00-1.11-.25h-.32a9 9 0 00-1.29-.1 9.85 9.85 0 00-9.84 9.84v2.64l-1.08.52a17 17 0 00-9.19 14.65 15.5 15.5 0 0015.48 15.48h7.56a1.9 1.9 0 010 3.8h-7.56a19.3 19.3 0 01-19.28-19.28 20.67 20.67 0 0110.28-17.52v-.31a13.66 13.66 0 0113.64-13.64 14 14 0 011.52.09h.46c.35 0 .7.11 1 .19.16 0 .31.08.46.12.39.1.69.19 1 .3l.52.19c.32.13.62.27.92.41a26.16 26.16 0 0120.6-10.18 25.46 25.46 0 0125.19 23.85 18.52 18.52 0 0113.26 17.62 18.1 18.1 0 01-18.05 18.14zm-5.83-2.94a1 1 0 000 2.07h5.83a17.23 17.23 0 0017.21-17.21 17.63 17.63 0 00-12.91-16.86l-.31-.08v-.32a24.6 24.6 0 00-24.34-23.34 25.29 25.29 0 00-20.12 10.1l-.22.3-.33-.17-.14-.07-.18-.08-.85-.38-.49-.18c-.29-.1-.58-.19-.88-.27l-.49-.13c-.32-.07-.64-.12-1-.17h-.44a12 12 0 00-1.42-.08A12.78 12.78 0 00525.58 132v.8l-.25.14a19.76 19.76 0 00-10.06 16.89 18.43 18.43 0 0018.41 18.41h7.56a1 1 0 000-2.07h-7.56a16.37 16.37 0 01-16.35-16.34 17.92 17.92 0 019.69-15.44l.58-.28V132a10.72 10.72 0 0110.71-10.71 10.59 10.59 0 011.4.11h.35a10.73 10.73 0 011.21.27h.16a10 10 0 011.28.49l.32.16a9.42 9.42 0 011.08.61 10.65 10.65 0 014.9 9 1 1 0 002.07 0 12.76 12.76 0 00-4.54-9.75l-.32-.27.25-.33a23.62 23.62 0 0118.37-9.16c11.45 0 21.2 9.12 22.21 20.77v.51h-.51a27.53 27.53 0 00-5.89.18 1 1 0 00-.68.41 1 1 0 00-.19.77 1 1 0 001.22.94 27.63 27.63 0 017 0 15.49 15.49 0 0112.36 15.08 15.16 15.16 0 01-15.15 15.14z"/><path class="cls-2" d="M561.39 148.61a1.31 1.31 0 00-.48-.32 1.45 1.45 0 00-1.12 0 1.39 1.39 0 00-.48.32l-11.73 11.73a1.46 1.46 0 000 2.08 1.46 1.46 0 002.07 0l9.24-9.24v30.2a1.47 1.47 0 102.93 0v-30.2l9.23 9.24a1.49 1.49 0 001 .43 1.51 1.51 0 001-.43 1.48 1.48 0 000-2.08z"/><path class="cls-2" d="M560.35 185.29a1.91 1.91 0 01-1.9-1.91v-29.15l-8.45 8.49a2 2 0 01-2.69 0 1.88 1.88 0 010-2.68L559 148.3a1.77 1.77 0 01.62-.41 1.91 1.91 0 012.07.41l11.74 11.7a1.9 1.9 0 010 2.68 1.93 1.93 0 01-2.68 0l-8.5-8.49v29.15a1.91 1.91 0 01-1.9 1.95zm-1-33.15v31.24a1 1 0 102.07 0v-31.24l10 10a1.06 1.06 0 001.46 0 1 1 0 000-1.46l-11.74-11.74a1 1 0 00-.33-.22 1 1 0 00-.79 0 1.11 1.11 0 00-.34.22l-11.74 11.74a1 1 0 00-.3.73 1 1 0 001.77.73zM444.52 183.3h-43.37a24.54 24.54 0 01-5.95-48.3 31.28 31.28 0 0155.28 0 24.54 24.54 0 01-6 48.35zm-21.68-60.84a27 27 0 00-24.39 15.2 2 2 0 01-1.44 1.11 20.41 20.41 0 004.14 40.4h43.37a20.41 20.41 0 004.14-40.4 2.05 2.05 0 01-1.44-1.11 27 27 0 00-24.38-15.2z"/><path class="cls-2" d="M389.85 167.7a2.07 2.07 0 01-2-1.6l-9-38.42-9 38.42a2.07 2.07 0 01-4-.94l11-47a2.06 2.06 0 014 0l11 47a2.06 2.06 0 01-1.54 2.48 2 2 0 01-.46.06z"/><path class="cls-2" d="M387.12 159.15H370.6a2.07 2.07 0 010-4.14h16.52a2.07 2.07 0 010 4.14zm-1.96-9.47h-12.61a2.07 2.07 0 110-4.13h12.61a2.07 2.07 0 110 4.13zm-.26-24.13a2 2 0 01-1.46-.61 2.06 2.06 0 010-2.92 6.49 6.49 0 00-4.58-11.02 6.48 6.48 0 00-4.59 11 2.06 2.06 0 01-2.92 2.92 10.62 10.62 0 1115 0 2 2 0 01-1.45.63z"/><path class="cls-2" d="M392.18 132.34a2 2 0 01-1.46-.61 2.06 2.06 0 010-2.92 16.78 16.78 0 10-23.72 0 2.06 2.06 0 01-2.92 2.92 20.9 20.9 0 1129.56 0 2 2 0 01-1.46.61zm345.95 34.92h9.78v15.43h-9.78z"/><path class="cls-2" d="M747.91 185.46h-9.78a2.76 2.76 0 01-2.77-2.76v-15.44a2.76 2.76 0 012.77-2.76h9.78a2.75 2.75 0 012.76 2.76v15.44a2.75 2.75 0 01-2.76 2.76zm-7-5.53h4.24V170h-4.25zm50.02-61h18.84v63.77h-18.84z"/><path class="cls-2" d="M809.77 185.46h-18.84a2.76 2.76 0 01-2.77-2.76v-63.77a2.77 2.77 0 012.77-2.77h18.84a2.77 2.77 0 012.77 2.77v63.77a2.76 2.76 0 01-2.77 2.76zm-16.08-5.53H807V121.7h-13.31z"/><rect class="cls-1" x="705.56" y="118.93" width="74.91" height="48.33" rx="3.14"/><path class="cls-2" d="M777.34 170H708.7a5.9 5.9 0 01-5.9-5.9v-42.03a5.91 5.91 0 015.9-5.91h68.64a5.91 5.91 0 015.9 5.91v42.06a5.91 5.91 0 01-5.9 5.87zm-68.64-48.3a.38.38 0 00-.37.37v42.06a.38.38 0 00.37.37h68.64a.39.39 0 00.37-.37v-42.06a.38.38 0 00-.37-.37zm54.76 63.76h-40.88a2.77 2.77 0 110-5.53h40.88a2.77 2.77 0 010 5.53z"/><rect class="cls-1" x="797.91" y="124.61" width="4.88" height="7.87" rx=".94"/><rect class="cls-1" x="797.91" y="135.79" width="4.88" height="7.87" rx=".94"/><circle class="cls-1" cx="800.35" cy="174.4" r="2.35"/><rect class="cls-2" x="657.72" y="132.02" width="37.61" height="50.68" rx="2.89"/><path class="cls-2" d="M692.45 185.24h-31.84a5.43 5.43 0 01-5.43-5.43v-44.9a5.44 5.44 0 015.43-5.44h31.84a5.44 5.44 0 015.43 5.44v44.9a5.44 5.44 0 01-5.43 5.43zm-31.84-50.67a.35.35 0 00-.34.34v44.9a.35.35 0 00.34.34h31.84a.35.35 0 00.34-.34v-44.9a.35.35 0 00-.34-.34z"/><circle class="cls-1" cx="676.53" cy="179.56" r="1.94"/><rect class="cls-1" x="659.83" y="134.76" width="33.41" height="39.68" rx="1.73"/><rect class="cls-2" x="674.55" y="84.68" width="21.26" height="38.54" rx="3.14"/><path class="cls-2" d="M692.68 124.89h-15a4.81 4.81 0 01-4.8-4.8V87.82a4.81 4.81 0 014.8-4.8h15a4.81 4.81 0 014.79 4.8v32.27a4.81 4.81 0 01-4.79 4.8zm-15-38.55a1.48 1.48 0 00-1.48 1.48v32.27a1.47 1.47 0 001.48 1.47h15a1.47 1.47 0 001.47-1.47V87.82a1.48 1.48 0 00-1.47-1.48z"/><path class="cls-1" d="M687.73 87.68h-5.1a1 1 0 010-1.94h5.1a1 1 0 110 1.94z"/><circle class="cls-1" cx="685.18" cy="120.4" r="1.87"/><rect class="cls-1" x="676.51" y="90.11" width="17.34" height="26.25" rx="1.25"/><path class="cls-2" d="M240.05 196.56a11.35 11.35 0 001.58-.1v1.75c-.55-.05-1.21-.05-1.58-.05h-2.53c-.29 4.46-2 7.26-4.88 9.06l-1.73-1.17a4.82 4.82 0 001.41-.81c1.65-1.24 3.2-3.3 3.46-7.08h-3.84a13.24 13.24 0 01-2.65 3.43l-1.6-1a12.08 12.08 0 002.83-3.42 10.74 10.74 0 00.94-2.23 6.54 6.54 0 00.27-1.45l2 .38c-.16.39-.34.88-.47 1.22s-.32.92-.54 1.44zm-.45-.65a21 21 0 00-1.28-2.25l1-.43a21.4 21.4 0 011.31 2.21zm1.87-.71a16.44 16.44 0 00-1.32-2.22l1-.43a18 18 0 011.34 2.2zm3.53 3.72c.52.05 1.52.1 2.4.1h8.78c.79 0 1.42-.07 1.81-.1v2c-.36 0-1.08-.07-1.8-.07h-8.79c-.91 0-1.87 0-2.4.07zm26 3.25a43.73 43.73 0 00-6.11-2.52v5a19.19 19.19 0 00.12 2.07h-2a17.2 17.2 0 00.12-2.07v-9.35a11.42 11.42 0 00-.14-1.82h2c-.05.54-.11 1.25-.11 1.82v2.52a55.53 55.53 0 016.84 2.59zm16.39-5.84a6.55 6.55 0 00-.27 1.1 15.1 15.1 0 01-1.55 4.74 10.36 10.36 0 01-6.49 4.71l-1.33-1.54a10.7 10.7 0 001.94-.53 8.3 8.3 0 004.08-3 11.32 11.32 0 001.49-4.47h-8.61V200a7.12 7.12 0 00.07 1.07H275c0-.34.06-.81.06-1.16V197c0-.36 0-.94-.06-1.31a14.9 14.9 0 001.56.08h3.53v-1.39a8.23 8.23 0 00-.11-1.35h1.95a13 13 0 00-.09 1.35v1.39h3.27a3.58 3.58 0 001.21-.16zm12.61 8.46a7.44 7.44 0 001.14-.1v1.69h-11.32v-1.69a10.9 10.9 0 001.23.1h3.54v-5.63h-2.76c-.31 0-.86 0-1.2.05v-1.62a10.31 10.31 0 001.18.08h7.43a8.91 8.91 0 001.19-.08v1.62c-.37 0-.82-.05-1.19-.05h-3v5.63zm12.12.03a12.25 12.25 0 00.11 1.91h-2a18 18 0 00.1-1.91v-5.76a30.48 30.48 0 01-5.85 2.38l-.93-1.57a25.31 25.31 0 007.3-2.94 18 18 0 004.22-3.62l1.38 1.24a26.88 26.88 0 01-4.32 3.48zm68.66.18c0 .6.05 1.4.08 1.91H379a18.08 18.08 0 00.11-1.91v-3.21a26.08 26.08 0 01-5.26 2.14l-1-1.51a19.62 19.62 0 006.59-2.73 12 12 0 003-2.72h-6.34c-.58 0-1.54 0-2 .07v-1.68c.55.06 1.46.09 2 .09h3v-.95a10.68 10.68 0 00-.09-1.46h1.84a12.73 12.73 0 00-.1 1.46v.95h2.36a3.92 3.92 0 001.15-.13l1.07 1c-.34.36-.76.8-1.05 1.14a22.37 22.37 0 01-3.56 3.28zm2.31-4.61a36.77 36.77 0 013.9 2.33l-1.07 1.4a27.58 27.58 0 00-3.88-2.52zm9.25.81l-1.53.57a33 33 0 00-1.48-3.69l1.52-.55c.38.74 1.15 2.8 1.49 3.67zm8.19-3.48a7.91 7.91 0 00-.31 1 12.92 12.92 0 01-2.27 4.87 12.68 12.68 0 01-5.32 3.92l-1.34-1.38a11.12 11.12 0 005.31-3.41 11.34 11.34 0 002.15-5.53zm-4.61 2.48l-1.52.55a30.66 30.66 0 00-1.3-3.56l1.52-.5c.29.68 1.09 2.8 1.3 3.51zm16.77 1.97a43.36 43.36 0 00-6.12-2.52v5a19.32 19.32 0 00.13 2.07h-2a17.16 17.16 0 00.13-2.07v-9.35a12.72 12.72 0 00-.14-1.82h2c0 .54-.11 1.25-.11 1.82v2.52a54.32 54.32 0 016.84 2.59zm16.23-6.84a6.21 6.21 0 00-.24.89 15.69 15.69 0 01-1.85 6 11.5 11.5 0 01-6.13 4.58l-1.4-1.43a10.23 10.23 0 006-4 12.25 12.25 0 001.51-5.17h-8.41v4.16h-1.86c0-.44.07-.81.07-1.16v-3.45c0-.39 0-.81-.07-1.2h9.89a6 6 0 001.24-.09zm2.96 3.59c.51.05 1.52.1 2.39.1h8.78c.8 0 1.43-.07 1.81-.1v2c-.35 0-1.08-.07-1.79-.07h-8.8c-.91 0-1.86 0-2.39.07zM461 196a5.3 5.3 0 00-.45 1 16 16 0 01-2.85 5.5 14.79 14.79 0 01-6.5 4.5l-1.5-1.35a13 13 0 006.48-4 12 12 0 002.46-4.77h-5a17.08 17.08 0 01-4.11 4l-1.43-1.06a13.69 13.69 0 005.08-5.35 6.82 6.82 0 00.6-1.46l1.88.62a15.94 15.94 0 00-.84 1.44l-.23.4h3.88a3.86 3.86 0 001.21-.16zm80.37 0a5.3 5.3 0 00-.45 1 16 16 0 01-2.85 5.5 14.73 14.73 0 01-6.47 4.5l-1.5-1.35a13 13 0 006.49-4 12.15 12.15 0 002.45-4.77h-5a17.08 17.08 0 01-4.11 4l-1.42-1.06a13.73 13.73 0 005.07-5.35 6.82 6.82 0 00.6-1.46l1.88.62c-.32.48-.66 1.12-.84 1.44l-.23.4h3.88a3.92 3.92 0 001.22-.16zm14.7 2.39a4 4 0 00-.24.55 11.62 11.62 0 01-2.38 4.54 12.07 12.07 0 01-5.79 3.45l-1.26-1.46a11 11 0 005.66-2.91 7.79 7.79 0 001.8-3.24h-8.24c-.39 0-1.1 0-1.71.07v-1.68c.63.06 1.24.11 1.71.11h8.28a3.23 3.23 0 001-.15zm-10.69-4.45a14.65 14.65 0 001.54.08h6.3a15.2 15.2 0 001.59-.08v1.66h-9.43zm26.2 2.39a6.56 6.56 0 00-.28 1.1 14.85 14.85 0 01-1.55 4.74 10.31 10.31 0 01-6.48 4.71l-1.33-1.54a10.93 10.93 0 001.94-.53 8.35 8.35 0 004.08-3 11.14 11.14 0 001.48-4.47h-8.6V200a8.84 8.84 0 00.06 1.07h-1.76c0-.34.07-.81.07-1.16V197a11.62 11.62 0 00-.07-1.31 15 15 0 001.57.08h3.53v-1.39a7.39 7.39 0 00-.12-1.35h2a11 11 0 00-.1 1.35v1.39h3.27a3.54 3.54 0 001.21-.16zm6.08 1.72a52.86 52.86 0 016.84 2.58l-.71 1.75a45.92 45.92 0 00-6.13-2.51v5c0 .5.05 1.47.12 2.07h-2a17.16 17.16 0 00.13-2.07v-9.35a12.36 12.36 0 00-.14-1.81h2c0 .53-.13 1.23-.13 1.81zm4.62-.78a15 15 0 00-1.42-2.48l1.08-.46a18.78 18.78 0 011.47 2.44zm2.1-.86a15.92 15.92 0 00-1.48-2.41l1.08-.51a19.24 19.24 0 011.5 2.4zm128.13 1.91a11 11 0 001.36-.08v1.67h-5.52a9.82 9.82 0 01-1 4.31 8 8 0 01-3.2 3l-1.51-1.1a6.68 6.68 0 003-2.41 7.43 7.43 0 001-3.82h-6.15v-1.68a14 14 0 001.47.08zm-8.51-2.57c-.55 0-1.14 0-1.58.06v-1.66a13.39 13.39 0 001.57.09h5.47a14.48 14.48 0 001.61-.09v1.66c-.51 0-1.1-.06-1.61-.06zm8.2-.16a20 20 0 00-1.27-2.24l1-.43a21.4 21.4 0 011.31 2.21zm1.59-3.35a17.28 17.28 0 011.34 2.2l-1.05.45a14.39 14.39 0 00-1.33-2.21zm6.21 2.89l1.84.38c-.11.4-.26 1-.34 1.37a34.34 34.34 0 01-1.42 5 23.12 23.12 0 01-2.38 4.52l-1.76-.75a21.33 21.33 0 002.51-4.43 24 24 0 001.55-6.09zm4.07.36l1.67-.55c.65 1.21 1.73 3.56 2.38 5.19s1.47 4.08 1.91 5.6l-1.85.6a52.31 52.31 0 00-1.76-5.63 45.51 45.51 0 00-2.32-5.21zm4.81.13l-1 .45a21.15 21.15 0 00-1.3-2.23l1.05-.44a20.73 20.73 0 011.28 2.22zm1.86-.71l-1 .47a17 17 0 00-1.32-2.23l1-.44a23 23 0 011.35 2.2zm10.16 9.91a12.05 12.05 0 00.12 1.91h-2a18 18 0 00.1-1.91v-5.76a30.31 30.31 0 01-5.86 2.38l-.92-1.57a25.31 25.31 0 007.3-2.94 18 18 0 004.22-3.62l1.37 1.24a26 26 0 01-4.33 3.45zm17.76-9.57a5.25 5.25 0 00-.47.84 22.41 22.41 0 01-2.65 4.61 42.82 42.82 0 014.62 4.74l-1.43 1.26a34.35 34.35 0 00-4.28-4.72 20.75 20.75 0 01-6.22 4.64l-1.31-1.36a18.17 18.17 0 006.65-4.74 13.36 13.36 0 002.57-4.27h-5.94c-.63 0-1.5.08-1.76.1v-1.83a16.87 16.87 0 001.76.11h6a4.85 4.85 0 001.41-.16zM201 149.14c0-1 .66-1.33 1.46-.77l12 8.27a1.15 1.15 0 010 2l-12 8.27c-.8.55-1.46.21-1.46-.77zm133.62 0c0-1 .66-1.33 1.47-.77l12 8.27a1.15 1.15 0 010 2l-12 8.27c-.81.55-1.47.21-1.47-.77zm150.78 0c0-1 .66-1.33 1.47-.77l12 8.27a1.16 1.16 0 010 2l-12 8.27c-.81.55-1.47.21-1.47-.77zm135.38 0c0-1 .66-1.33 1.46-.77l12 8.27a1.15 1.15 0 010 2l-12 8.27c-.8.55-1.46.21-1.46-.77zm-304.26 28.95h-3.64V155a6.16 6.16 0 00-6.16-6.16h-66a6.16 6.16 0 00-6.16 6.16v23.12H231V155a9.81 9.81 0 019.8-9.8h66a9.82 9.82 0 019.8 9.8z"/><path class="cls-2" d="M222.99 174.45H324.5v3.64H222.99zm79.14-8.03a5.76 5.76 0 115.76-5.76 5.76 5.76 0 01-5.76 5.76zm0-7.87a2.12 2.12 0 102.12 2.11 2.12 2.12 0 00-2.12-2.11z"/><path class="cls-2" d="M301.07 169.88h-27.55a9.22 9.22 0 010-18.43h27.55a9.22 9.22 0 010 18.43zm-27.55-14.79a5.58 5.58 0 000 11.15h27.55a5.58 5.58 0 000-11.15zm-21.18-6.28h-3.63v-32a.59.59 0 00-.58-.57h-5a.58.58 0 00-.57.57v32H239v-32a4.22 4.22 0 014.21-4.21h5a4.22 4.22 0 014.21 4.21zm56.2 0h-3.64v-32a.58.58 0 00-.57-.57h-5a.59.59 0 00-.58.57v32h-3.64v-32a4.22 4.22 0 014.22-4.21h5a4.22 4.22 0 014.21 4.21zM105.88 252H70a1.71 1.71 0 01-1.7-1.71v-51.2a1.71 1.71 0 011.7-1.71h10.9a1.71 1.71 0 011.7 1.71V243h23.28a1.71 1.71 0 011.7 1.71v5.57a1.71 1.71 0 01-1.7 1.72zm-34.16-3.41h32.45v-2.17H80.9a1.7 1.7 0 01-1.7-1.7v-43.9h-7.48z"/><path class="cls-2" d="M126.77 239.31H91.62a1.7 1.7 0 01-1.7-1.7v-42.42a1.7 1.7 0 011.7-1.7h35.15a1.7 1.7 0 011.7 1.7v42.42a1.7 1.7 0 01-1.7 1.7zm-33.44-3.4h31.73v-39H93.33z"/><path class="cls-2" d="M91.62 239.32a1.7 1.7 0 01-.58-.11l-10.72-3.9a1.68 1.68 0 01-1.12-1.6v-34.62a1.68 1.68 0 011.12-1.6l10.68-3.9a1.7 1.7 0 012.29 1.6v42.42a1.7 1.7 0 01-.73 1.4 1.73 1.73 0 01-.94.31zm-9-6.8l7.32 2.66v-37.56l-7.32 2.66zM70 235.42H42.92a1.71 1.71 0 01-1.7-1.71v-47.37a1.7 1.7 0 011.7-1.7h16.42a1.71 1.71 0 011.71 1.7v11h9a1.71 1.71 0 011.7 1.71v34.62a1.71 1.71 0 01-1.75 1.75zM44.62 232h23.7v-31.21h-9a1.7 1.7 0 01-1.7-1.7V188h-13z"/><path class="cls-2" d="M59.34 213.53a1.7 1.7 0 01-1.7-1.7v-12.74a1.71 1.71 0 113.41 0v12.74a1.71 1.71 0 01-1.71 1.7zm2.6-25.53H40.32a1.7 1.7 0 01-1.7-1.7v-6.5a1.7 1.7 0 011.7-1.7h21.62a1.7 1.7 0 011.7 1.7v6.5a1.7 1.7 0 01-1.7 1.7zM42 184.64h18.24v-3.09H42zm84.77 54.68a1.79 1.79 0 01-1-.3 1.73 1.73 0 01-.74-1.41v-42.42a1.73 1.73 0 01.74-1.41 1.71 1.71 0 011.58-.18l5.17 2c3.27 1.26 5.84 4.62 5.84 7.65v26.32c0 3-2.57 6.39-5.84 7.65l-5.17 2a1.66 1.66 0 01-.58.1zm1.7-41.65v37.46l2.86-1.1c2.15-.83 3.65-3 3.65-4.47v-26.32c0-1.45-1.5-3.64-3.65-4.47z"/><path d="M120.14 230.46H91.62m28.52-7.03H91.62m28.52-7.03H91.62m28.52-7.03H91.62m0-7.03h28.52" fill="none" stroke="#f7f9f9" stroke-linecap="round" stroke-linejoin="round" stroke-width="3.41"/><path class="cls-2" d="M42.92 226.31H32.77a1.7 1.7 0 01-1.7-1.7v-16.42a1.7 1.7 0 011.7-1.7h10.15a1.7 1.7 0 011.7 1.7v16.42a1.7 1.7 0 01-1.7 1.7zm-8.44-3.4h6.74v-13h-6.74zm-8.2 3.4H5.11a1.7 1.7 0 110-3.4h19.46v-13H-2.3a1.7 1.7 0 01-1.7-1.7 1.7 1.7 0 011.7-1.7h28.58a1.7 1.7 0 011.7 1.7v16.42a1.7 1.7 0 01-1.7 1.68zm33.06-44.76H42.92a1.7 1.7 0 01-1.7-1.71v-21.16a1.7 1.7 0 113.4 0v19.46h13v-19.46a1.71 1.71 0 113.41 0v21.16a1.71 1.71 0 01-1.69 1.71z"/><path class="cls-2" d="M32.77 228.91h-6.49a1.71 1.71 0 01-1.71-1.7v-21.62a1.71 1.71 0 011.71-1.7h6.49a1.71 1.71 0 011.71 1.7v21.62a1.71 1.71 0 01-1.71 1.7zm-4.77-3.4h3.09v-18.22H28zm138-82.4H76.56a1.82 1.82 0 01-1.82-1.82V96.75a1.82 1.82 0 011.82-1.82H166a1.82 1.82 0 011.82 1.82v44.54a1.82 1.82 0 01-1.82 1.82zm-87.61-3.64h85.79v-40.9h-85.8z"/><path class="cls-2" d="M163.53 98.57H79a1.81 1.81 0 01-1.82-1.82V84.13A1.82 1.82 0 0179 82.31h84.51a1.82 1.82 0 011.82 1.82v12.62a1.81 1.81 0 01-1.8 1.82zm-82.7-3.64h80.88V86H80.83z"/><path class="cls-2" d="M161.07 86H81.48a1.81 1.81 0 01-1.82-1.82V71.51a1.81 1.81 0 011.82-1.81h79.59a1.81 1.81 0 011.82 1.81v12.62a1.81 1.81 0 01-1.82 1.87zm-77.78-3.69h76v-9h-76z"/><path class="cls-2" d="M116.35 79.64H90.09a1.82 1.82 0 010-3.64h26.26a1.82 1.82 0 110 3.64zm36.11 0H126.2a1.82 1.82 0 010-3.64h26.26a1.82 1.82 0 110 3.64zm-36.11 12.62H90.09a1.82 1.82 0 110-3.64h26.26a1.82 1.82 0 110 3.64zm36.11 0H126.2a1.82 1.82 0 010-3.64h26.26a1.82 1.82 0 010 3.64zm-31.01 36.44H85.94a1.82 1.82 0 01-1.82-1.82v-19.5a1.82 1.82 0 011.82-1.82h35.51a1.82 1.82 0 011.82 1.82v19.5a1.82 1.82 0 01-1.82 1.82zm-33.69-3.64h31.87V109.2H87.76z"/><path class="cls-2" transform="rotate(-135 135.15 117.131)" d="M132.13 114.11h6.03v6.03h-6.03z"/><path class="cls-2" d="M135.15 123.21a1.8 1.8 0 01-1.29-.53l-4.26-4.26a1.83 1.83 0 010-2.58l4.26-4.26a1.83 1.83 0 012.58 0l4.26 4.26a1.83 1.83 0 010 2.58l-4.26 4.26a1.8 1.8 0 01-1.29.53zm-1.69-6.08l1.69 1.69 1.69-1.69-1.69-1.69z"/><path class="cls-2" transform="rotate(-135 152.26 117.131)" d="M149.24 114.11h6.03v6.03h-6.03z"/><path class="cls-2" d="M152.26 123.21a1.8 1.8 0 01-1.29-.53l-4.26-4.26a1.83 1.83 0 010-2.58l4.26-4.26a1.83 1.83 0 012.58 0l4.26 4.26a1.83 1.83 0 010 2.58l-4.26 4.26a1.8 1.8 0 01-1.29.53zm-1.69-6.08l1.69 1.69 1.69-1.69-1.69-1.69z"/><path class="cls-2" transform="rotate(-135 143.706 125.683)" d="M140.69 122.67h6.03v6.03h-6.03z"/><path class="cls-2" d="M143.7 131.77a1.82 1.82 0 01-1.28-.53l-4.27-4.24a1.82 1.82 0 010-2.57l4.27-4.27a1.82 1.82 0 012.57 0l4.26 4.27a1.8 1.8 0 010 2.57l-4.25 4.24a1.84 1.84 0 01-1.3.53zm-1.7-6.09l1.69 1.7 1.7-1.7-1.69-1.68z"/><path class="cls-2" transform="rotate(-135 143.701 108.574)" d="M140.69 105.56h6.03v6.03h-6.03z"/><path class="cls-2" d="M143.7 114.66a1.82 1.82 0 01-1.28-.53l-4.27-4.27a1.82 1.82 0 010-2.57l4.27-4.27a1.82 1.82 0 012.57 0l4.26 4.27a1.8 1.8 0 010 2.57l-4.25 4.27a1.84 1.84 0 01-1.3.53zm-1.7-6.08l1.69 1.69 1.7-1.69-1.7-1.7zm-24.84 86.62a1.64 1.64 0 01-1.55-2.1l7.43-24h-7.65a1.61 1.61 0 01-1.54-2.09l8.08-26.15a1.62 1.62 0 113.09 1l-7.43 24h7.65a1.61 1.61 0 011.54 2.09l-8.08 26.15a1.63 1.63 0 01-1.54 1.1z"/><rect class="cls-1" x="145.34" y="219.08" width="31.17" height="31.17" rx="4.11"/><path class="cls-2" d="M172.4 251.22h-22.94a5.09 5.09 0 01-5.08-5.08V223.2a5.09 5.09 0 015.08-5.09h22.94a5.09 5.09 0 015.08 5.09v22.94a5.09 5.09 0 01-5.08 5.08zm-22.94-31.17a3.15 3.15 0 00-3.15 3.15v22.94a3.15 3.15 0 003.15 3.14h22.94a3.15 3.15 0 003.15-3.14V223.2a3.16 3.16 0 00-3.15-3.15z"/><path class="cls-2" d="M163.22 237.39v-12.94a2.29 2.29 0 00-4.58 0v12.94a5.25 5.25 0 104.58 0z"/><path class="cls-2" d="M160.93 248.08a6 6 0 01-6-6 5.91 5.91 0 013-5.14v-12.49a3 3 0 016 0V237a5.91 5.91 0 013 5.14 6 6 0 01-6 5.94zm0-25.2a1.57 1.57 0 00-1.57 1.57v12.94a.73.73 0 01-.4.65 4.53 4.53 0 103.94 0 .71.71 0 01-.4-.65v-12.94a1.58 1.58 0 00-1.57-1.57z"/><circle class="cls-1" cx="160.93" cy="242.1" r="1.94"/><path class="cls-1" d="M160.93 244.76a2.66 2.66 0 112.66-2.66 2.66 2.66 0 01-2.66 2.66zm0-3.87a1.21 1.21 0 101.21 1.21 1.21 1.21 0 00-1.21-1.21z"/><path class="cls-1" d="M160.93 240.22a.73.73 0 01-.73-.73v-15a.73.73 0 01.73-.73.73.73 0 01.72.73v15a.73.73 0 01-.72.73z"/><path class="cls-2" d="M168.07 226.47h-4.85a.61.61 0 010-1.21h4.85a.61.61 0 110 1.21zm-1.78 2.39h-3.07a.61.61 0 010-1.21h3.07a.61.61 0 010 1.21zm0 4.79h-3.07a.61.61 0 010-1.21h3.07a.61.61 0 010 1.21zm1.78-2.39h-4.85a.61.61 0 010-1.21h4.85a.61.61 0 110 1.21zm4.33-16.02h-22.94a5.09 5.09 0 01-5.08-5.09v-22.94a5.09 5.09 0 015.08-5.08h22.94a5.09 5.09 0 015.08 5.08v22.94a5.09 5.09 0 01-5.08 5.09zm-22.94-31.17a3.15 3.15 0 00-3.15 3.14v22.94a3.15 3.15 0 003.15 3.15h22.94a3.16 3.16 0 003.15-3.15v-22.94a3.15 3.15 0 00-3.15-3.14z"/><path class="cls-2" transform="rotate(-90 160.93 204.13)" d="M150.79 201.5h20.28v5.26h-20.28z"/><path class="cls-2" d="M163.56 215h-5.26a.73.73 0 01-.73-.72V194a.73.73 0 01.73-.73h5.26a.73.73 0 01.73.73v20.28a.73.73 0 01-.73.72zm-4.56-1.46h3.81v-18.83H159z"/><circle class="cls-2" cx="160.93" cy="198.6" r="11.24"/><path class="cls-2" d="M160.93 210.57a12 12 0 1112-12 12 12 0 01-12 12zm0-22.49a10.52 10.52 0 1010.52 10.52 10.53 10.53 0 00-10.52-10.52z"/><circle class="cls-1" cx="160.93" cy="198.6" r="8.9"/><path class="cls-1" d="M160.93 208.23a9.63 9.63 0 119.63-9.63 9.64 9.64 0 01-9.63 9.63zm0-17.81a8.18 8.18 0 108.18 8.18 8.19 8.19 0 00-8.18-8.18z"/><path class="cls-2" d="M160.62 197.43l2.39-4.21-1.06 4.72-1.02.66-.31-1.17z"/><path class="cls-2" d="M160.93 198.84h-.09a.26.26 0 01-.15-.17l-.3-1.17a.22.22 0 010-.18l2.39-4.21a.24.24 0 01.44.17l-1.04 4.72a.25.25 0 01-.1.15l-1 .66a.22.22 0 01-.15.03zm-.05-1.38l.2.75.65-.42.68-3z"/><path class="cls-2" d="M166.19 204.47a.58.58 0 01-.42-.18.59.59 0 010-.85 6.84 6.84 0 10-9.68 0 .6.6 0 11-.85.85 8.05 8.05 0 1111.38 0 .6.6 0 01-.43.18z"/><path class="cls-2" d="M160.93 193.65a.6.6 0 01-.61-.6v-1.89a.61.61 0 111.21 0v1.89a.6.6 0 01-.6.6zm-3.93 1.63a.61.61 0 01-.43-.18l-1.33-1.34a.6.6 0 01.85-.85l1.34 1.34a.59.59 0 010 .85.6.6 0 01-.43.18zm-1.62 3.92h-1.9a.6.6 0 010-1.2h1.9a.6.6 0 110 1.2zm.29 5.27a.6.6 0 01-.43-.18.59.59 0 010-.85l1.33-1.34a.61.61 0 01.86.86l-1.34 1.33a.59.59 0 01-.42.18zm9.19-9.19a.6.6 0 01-.43-.18.59.59 0 010-.85l1.34-1.34a.6.6 0 01.85.85l-1.34 1.34a.58.58 0 01-.42.18zm3.51 3.92h-1.89a.6.6 0 010-1.2h1.89a.6.6 0 110 1.2zm-2.18 5.27a.58.58 0 01-.42-.18l-1.34-1.29a.6.6 0 010-.86.59.59 0 01.85 0l1.34 1.34a.59.59 0 010 .85.6.6 0 01-.43.14z"/><circle class="cls-1" cx="160.93" cy="198.6" r="1.34"/><path class="cls-2" d="M160.93 200.67a2.07 2.07 0 112.07-2.07 2.07 2.07 0 01-2.07 2.07zm0-2.68a.61.61 0 00-.62.61.62.62 0 00.62.62.61.61 0 00.61-.62.61.61 0 00-.61-.6zm47.45 17.2h-22.94a5 5 0 01-5-5v-11.51a.92.92 0 011.83 0v11.47a3.2 3.2 0 003.2 3.2h22.94a3.2 3.2 0 003.2-3.2v-7.94a.92.92 0 111.83 0v7.94a5 5 0 01-5.06 5.04zm4.12-15.59a.92.92 0 01-.92-.92v-11.47a3.2 3.2 0 00-3.2-3.19h-22.94a3.2 3.2 0 00-3.2 3.19v7.95a.92.92 0 11-1.83 0v-7.95a5 5 0 015-5h22.94a5 5 0 015 5v11.47a.92.92 0 01-.85.92z"/><path class="cls-2" d="M197.75 211.15a.92.92 0 01-.87-.82L195 191.87l-2.93 11.7a.91.91 0 01-.88.69.92.92 0 01-.88-.68l-2-7.52-.64 2.83a.92.92 0 01-.9.71h-5.47a.92.92 0 110-1.83h4.74l1.31-5.74a.92.92 0 01.88-.71.9.9 0 01.9.68l2 7.67 3.35-13.39a.94.94 0 01.95-.7.92.92 0 01.85.83l1.7 17.44 2.21-11.43a.91.91 0 011.8 0l1.64 10.18 2.3-4.37a.92.92 0 01.81-.49h5.69a.92.92 0 010 1.83h-5.14l-3.29 6.35a.9.9 0 01-1 .48.92.92 0 01-.76-.76l-1.24-7.78-2.43 12.54a.92.92 0 01-.82.75z"/><rect class="cls-1" x="181.33" y="219.08" width="31.17" height="31.17" rx="4.11"/><path class="cls-2" d="M208.38 251.22h-22.94a5.09 5.09 0 01-5.08-5.08V223.2a5.09 5.09 0 015.08-5.09h22.94a5.09 5.09 0 015.08 5.09v22.94a5.09 5.09 0 01-5.08 5.08zm-22.94-31.17a3.16 3.16 0 00-3.15 3.15v22.94a3.15 3.15 0 003.15 3.14h22.94a3.15 3.15 0 003.15-3.14V223.2a3.15 3.15 0 00-3.15-3.15z"/><rect class="cls-2" x="184.9" y="222.66" width="24.02" height="15.68" rx="1.37"/><path class="cls-1" d="M197 236.54l4.58-6.29-3.16 7.12-1.51.97.09-1.8z"/><path class="cls-1" d="M196.91 238.7a.41.41 0 01-.18 0 .35.35 0 01-.18-.33l.08-1.79a.48.48 0 01.07-.2l4.59-6.3a.36.36 0 01.62.36l-3.16 7.12a.29.29 0 01-.13.16l-1.51 1a.36.36 0 01-.2-.02zm.44-2v1l.82-.53 1.74-3.9z"/><path class="cls-1" d="M194.73 238.34a2.19 2.19 0 114.37 0z"/><path class="cls-1" d="M199.1 239.06h-4.37a.73.73 0 01-.73-.72 2.91 2.91 0 015.82 0 .72.72 0 01-.72.72zm-3.45-1.45h2.53a1.47 1.47 0 00-1.27-.73 1.44 1.44 0 00-1.26.73zm10.03-8.04a12.41 12.41 0 00-17.54 0l-.85-.86a13.63 13.63 0 0119.25 0z"/><path class="cls-1" d="M196.91 227.75a.6.6 0 01-.6-.61v-1.81a.61.61 0 011.21 0v1.81a.61.61 0 01-.61.61zM189 231a.6.6 0 01-.43-.18l-1.28-1.28a.6.6 0 010-.86.61.61 0 01.85 0l1.28 1.28a.6.6 0 010 .86.59.59 0 01-.42.18zm2.31-1.75a.59.59 0 01-.52-.31l-.91-1.57a.61.61 0 01.23-.82.6.6 0 01.82.22l.91 1.57a.62.62 0 01-.22.83.68.68 0 01-.31.08zm2.69-1.12a.61.61 0 01-.58-.45l-.47-1.75a.61.61 0 011.17-.31l.47 1.75a.62.62 0 01-.43.74zm5.81 0h-.16a.62.62 0 01-.43-.74l.47-1.75a.61.61 0 01.74-.43.6.6 0 01.43.74l-.47 1.75a.6.6 0 01-.58.43zm2.7 1.12a.64.64 0 01-.3-.08.61.61 0 01-.22-.83l.9-1.57a.61.61 0 011.05.61L203 229a.6.6 0 01-.49.25zm2.32 1.75a.61.61 0 01-.43-1l1.28-1.28a.61.61 0 11.86.86l-1.29 1.28a.58.58 0 01-.42.14z"/><circle class="cls-1" cx="196.91" cy="243.88" r="2.76"/><path class="cls-2" d="M196.91 247.36a3.49 3.49 0 113.48-3.48 3.48 3.48 0 01-3.48 3.48zm0-5.51a2 2 0 102 2 2 2 0 00-2-2z"/></svg>