<svg xmlns="http://www.w3.org/2000/svg" viewBox="0 0 487.6 139.6"><path d="M418.6 139.6c38.6-.5 69.4-32.1 69-70.6-.5-37.9-31.1-68.5-69-69-19.3 0-37.5 9.2-49.4 20.5-11.9 11.2-22.9 17.3-37.6 17.3-14.7 0-25.8-6.1-37.6-17.3C282.1 9.2 263.9 0 244.6 0c-19.2 0-37.5 9.2-49.4 20.5-11.9 11.2-22.9 17.3-37.6 17.3-14.7 0-25.8-6.1-37.6-17.3C108.2 9.2 89.9 0 70.6 0 32.1-.5.5 30.4 0 69s30.4 70.2 69 70.6h1.7c19.3 0 37.5-9.2 49.4-20.4 11.9-11.2 22.9-17.3 37.6-17.3 14.7 0 25.8 6.1 37.6 17.3 11.9 11.2 30.1 20.4 49.4 20.4 19.3 0 37.5-9.2 49.4-20.4 11.9-11.2 22.9-17.3 37.6-17.3 14.7 0 25.8 6.1 37.6 17.3 11.8 11.2 30 20.4 49.3 20.4z" fill="#172788"/><path d="M48.3 62.4c1.5.5 2.9 1.3 4.1 2.3l-1.4 2c-1.2-1-2.6-1.8-4-2.4l1.3-1.9zm2.5 6.8l1.9 1.2c-.9 2.7-2.1 5.7-3.2 8l-2.1-1.2c1.3-2.6 2.5-5.3 3.4-8zm-1.5-13.5c1.4.6 2.8 1.4 4 2.4L51.9 60c-1.2-1.1-2.5-2-3.9-2.7l1.3-1.6zm7.6 17.9c-.8 1.9-2 3.7-3.5 5.2-.6-.5-1.2-.9-1.9-1.3 1.4-1.3 2.5-2.8 3.2-4.6l2.2.7zm4.4-17v16h-7.4v-16h7.4zm-5.4 4.7h3.4v-2.7h-3.4v2.7zm0 4.7h3.4v-2.8h-3.4V66zm0 4.6h3.4v-2.8h-3.4v2.8zm4.2 2.3c1 1.2 2 2.5 2.8 3.9L61 77.9c-.8-1.4-1.7-2.7-2.7-4l1.8-1zM65 58.2v14.4h-2V58.1l2 .1zm4.4-2.6V76c0 1.3-.3 2-1.1 2.4-1.3.4-2.7.5-4 .4-.1-.8-.3-1.5-.7-2.2h3.1c.4 0 .5-.1.5-.5V55.5l2.2.1zm21.2 3.7c-.5.3-1.1.7-1.5 1-1.3.9-4.3 3.6-6.1 5 1-.3 2-.4 3-.4 4.2 0 7.3 2.6 7.3 6.1 0 4-3.2 6.9-8.8 6.9-3.5 0-5.8-1.6-5.8-3.8.2-2.1 2-3.7 4.1-3.6 2.6-.2 5 1.8 5.3 4.4 1.6-.6 2.7-2.2 2.6-4 0-2.3-2.4-4-5.4-4-4 0-6.4 1.9-9.3 5L74.1 70c2-1.6 5.1-4.2 6.6-5.4 1.5-1.2 4.3-3.6 5.5-4.7-1.3 0-5.6.2-6.9.3-.6 0-1.3.1-1.9.2l-.1-2.6c.7.1 1.3.1 2 .1 1.3 0 7-.2 8.4-.3.5 0 1.1-.1 1.6-.3l1.3 2zm-4.9 16.2c-.2-1.9-1.3-3.1-3-3.1-1 0-1.8.6-1.8 1.4 0 1.1 1.3 1.8 3 1.8.6 0 1.2 0 1.8-.1zm112.6-13c2-.6 7-2.4 10.7-2.4 4.3 0 7.7 2.5 7.7 6.9 0 5.9-5.7 9.1-13.9 9.5l-1.1-2.7c6.7-.1 12.3-2.1 12.3-7 0-2.5-1.8-4.5-5-4.5-3.9 0-10.1 2.7-12.4 3.6l-1.1-2.8c.8 0 1.9-.3 2.8-.6zm35.7-.7c-1.5.4-3 .7-4.5.9-1.3 3.8-3.2 7.4-5.5 10.7l-2.4-1.2c2.2-2.8 3.9-5.9 5.2-9.1H225c-1 0-2 0-3-.1l-.2-2.3c1 .1 2.2.1 3.2.1.8 0 1.7 0 2.6-.1.4-1.4.6-2.8.7-4.3l2.8.3c-.2.9-.5 2.2-.9 3.7 1.2-.2 2.5-.5 3.7-.9l.1 2.3zm3.1 2.6c-.1 1-.1 2 0 3 0 .8.1 2.3.2 3.7 1.9.7 3.7 1.8 5.2 3.2l-1.3 2.2c-1.1-1.1-2.4-2-3.7-2.8v.7c0 2.1-1.3 3.9-4.6 3.9-2.9 0-5.3-1.2-5.3-3.9 0-2.3 2.1-4 5.2-4 .7 0 1.4.1 2.1.2-.1-2-.2-4.3-.3-6l2.5-.2zm-2.2 8.1c-.7-.2-1.5-.3-2.3-.3-1.7 0-2.8.7-2.8 1.8 0 1 .9 1.8 2.6 1.8 1.2.2 2.3-.6 2.5-1.8v-.5c.1-.3.1-.6 0-1zm6.9-7.2c-1.8-1.4-3.8-2.5-5.9-3.5l1.3-2c2.1 1 4.1 2.1 6 3.4l-1.4 2.1zm10.5-7.3c-.2.5-.4 1.3-.5 1.8-.7 3.3-1.6 8.4-.8 12.1.4-.9.8-2.3 1.3-3.4l1.3.8c-.7 1.9-1.4 4.5-1.7 5.8-.1.4-.1.8-.1 1.2v.9l-2.2.2c-.9-2.6-1.3-5.3-1.4-8 .1-3.3.4-6.5.9-9.8.1-.6.1-1.2.1-1.9l3.1.3zm12.2-.4c-.1.5-.1 1-.1 1.6v3.5c1.4-.1 2.9-.3 4.3-.6v2.6c-1.2.2-2.6.3-4.2.4v.7c0 5.8-.2 9.7-5.4 12.9l-2.3-1.8c1-.4 1.9-1 2.7-1.8 2.3-2.2 2.6-4.8 2.6-9.3v-.6c-.9 0-1.8.1-2.7.1-1.2 0-2.8-.1-4-.2v-2.6c1.3.2 2.6.3 3.9.3h2.7c0-1.5-.1-3-.1-3.6-.1-.5-.1-1.1-.3-1.6h2.9zm2 3.2c-.4-1.2-.9-2.4-1.4-3.6l1.4-.4c.6 1.1 1 2.3 1.4 3.5l-1.4.5zm2.7-4.9c.5 1.1 1 2.3 1.4 3.5l-1.5.5c-.4-1.2-.9-2.4-1.4-3.5l1.5-.5zm20.9 3.4c-.5.3-1.1.7-1.5 1-1.3.9-4.3 3.6-6.1 5 1-.3 2-.4 3-.4 4.2 0 7.3 2.6 7.3 6.1 0 4-3.2 6.9-8.8 6.9-3.5 0-5.8-1.6-5.8-3.8.2-2.1 2-3.7 4.1-3.6 2.7-.2 5 1.8 5.3 4.4 1.6-.6 2.7-2.2 2.6-4 0-2.3-2.4-4-5.4-4-4 0-6.4 1.9-9.3 5l-1.9-1.8c2-1.6 5.1-4.2 6.6-5.4 1.5-1.2 4.3-3.6 5.6-4.7-1.3 0-5.6.2-6.9.3-.6 0-1.3.1-1.9.2l-.1-2.6c.7.1 1.3.1 2 .1 1.3 0 7-.2 8.3-.3.5 0 1.1-.1 1.6-.3l1.3 1.9zm-4.9 16.2c-.2-1.9-1.3-3.1-3-3.1-1 0-1.8.6-1.8 1.4 0 1.1 1.3 1.8 3 1.8.6 0 1.2 0 1.8-.1zm89.1-8.3c-1.5-1-3.1-1.9-4.7-2.7l1.3-1.8c1.4.7 3.6 1.8 4.7 2.5l-1.3 2zm-4.1 9.7c1.8-2.6 3.3-5.2 4.8-8l1.7 1.6c-1.3 2.6-3 5.7-4.5 8l-2-1.6zm5.3-16.6c-1-.7-3.1-2-4.6-2.8l1.3-1.7c1.6.8 3.2 1.6 4.7 2.6l-1.4 1.9zm10.6 4.8v3.7h5.2v9.8H389v-.9h-8.4v1.1h-2.2v-9.9h5.3v-3.7h-7v-2.3h7v-3.6c-1.8.3-3.6.5-5.3.6-.1-.7-.4-1.4-.7-2 4.1-.3 8.1-1.1 12.1-2.3l1.9 1.8c-1.9.7-3.8 1.1-5.7 1.5v4h6.7v2.3l-6.6-.1zM389 71h-8.4v4.6h8.4V71zm28.7 4.8c0 1.4-.3 2.1-1.2 2.4-1.5.4-3.1.5-4.7.4-.2-.8-.4-1.6-.8-2.3 1.6.1 3.3 0 3.8 0s.6-.1.6-.6v-4.5h-6.1v7.2H407v-7.2h-6c-.3 2.8-1.4 5.5-3.2 7.7-.5-.6-1.2-1.1-1.9-1.5 2.8-3.1 3-7.6 3-11.1v-9h18.7v18.5zM406.9 69v-3.8h-5.5v1c0 .9 0 1.8-.1 2.7l5.6.1zm-5.5-9.5v3.6h5.5v-3.6h-5.5zm13.9 0h-6.1v3.6h6.1v-3.6zm0 9.5v-3.8h-6.1V69h6.1zm28.5-6.9c-1.5-.1-3.8-.1-7.5-.1v3.9c.6 1 .9 2.2.9 3.3 0 3.3-1.8 7.3-7.7 9l-2.1-2.1c2.9-.7 5.2-1.8 6.5-3.6-2.2.9-4.7-.1-5.6-2.3-.2-.5-.3-1.1-.3-1.7 0-2.5 2.1-4.5 4.6-4.5h.1c.5 0 .9.1 1.4.2V62c-3.8 0-7.9.2-11 .4L423 60c2.8 0 7.5-.2 11.1-.2v-1.3c0-.6-.1-1.5-.2-1.8h2.9c0 .3-.1 1.5-.1 1.8v1.2h7.5l-.4 2.4zm-11.3 8.6c1.3 0 2.3-1 1.9-3.4-.4-.8-1.2-1.2-2-1.2-1.2 0-2.3 1-2.3 2.3v.1c0 1.2.9 2.2 2.1 2.2h.3zM464 59.3c-.5.3-1.1.7-1.5 1-1.3.9-4.3 3.6-6.1 5 1-.3 2-.4 3-.4 4.2 0 7.3 2.6 7.3 6.1 0 4-3.2 6.9-8.8 6.9-3.5 0-5.8-1.6-5.8-3.8.2-2.1 2-3.7 4.1-3.6 2.7-.2 5 1.8 5.3 4.4 1.6-.6 2.7-2.2 2.6-4 0-2.3-2.4-4-5.4-4-4 0-6.4 1.9-9.3 5l-1.9-1.9c2-1.6 5.1-4.2 6.6-5.4 1.5-1.2 4.3-3.6 5.6-4.7-1.3 0-5.6.2-6.9.3-.6 0-1.3.1-1.9.2l-.1-2.5c.7.1 1.3.1 2 .1 1.3 0 7-.2 8.4-.3.5 0 1.1-.1 1.6-.3l1.2 1.9zm-4.9 16.2c-.2-1.9-1.3-3.1-3-3.1-1 0-1.8.6-1.8 1.4 0 1.1 1.3 1.8 3 1.8.6 0 1.2 0 1.8-.1z" fill="#fff"/></svg>