<svg id="レイヤー_1" data-name="レイヤー 1" xmlns="http://www.w3.org/2000/svg" viewBox="0 0 576.1 473.34"><defs><style>.cls-1{fill:#162789}.cls-2,.cls-4{fill:none;stroke:#162789;stroke-width:3px;stroke-linecap:round;stroke-linejoin:round}.cls-4{fill:#f7f9f9}</style></defs><path class="cls-1" d="M336.28 224.52v8.18a6.74 6.74 0 01-2.41.85h-7.17a3.39 3.39 0 01-2.4-.62c-.75-.75-.75-2.5-.74-5.14v-2.12l-1.06.9c-6.88 5.83-14.15 8.78-21.62 8.78a33 33 0 01-11-2c-8.69-3.07-14.27-10.65-14.93-20.28-.71-10.48 4.57-20.21 13.46-24.78 7.91-4.08 34.58-4.23 34.85-4.23h.63v-.64c0-.18-.22-18.5-16.08-21.88a16.81 16.81 0 00-3.58-.34 56.75 56.75 0 00-11.46 1.65 30.91 30.91 0 01-4.17.75c-1.83 0-3.21-1.87-3.86-3.48-1-2.46-1.94-4.78 1.8-6.55a55.87 55.87 0 0118.3-3.57 21.33 21.33 0 012.77.16c10.85 1.35 18.43 5.59 23.85 13.36 3.06 4.38 4.82 11.63 4.82 19.87v41.15m-25.37-87.3a60.09 60.09 0 00-21.93-.83 44.39 44.39 0 01-25.41-4 36 36 0 00-36.15 3.31 33.12 33.12 0 017.72 2.1c10 4.46 15.75 10.47 18.66 19.47 1.62 5 1.17 12.35-1.22 20.16l-5 16.46c-3.07 10.05-5.79 18.94-7 22.88-.29.95-.58 1.88-.86 2.77 7.33 21 25.47 37.25 48.63 40.61 34.71 5 67-20.82 70-57.13 2.59-30.82-17.85-59.23-47.36-65.83m-69.68 38l.31-1c.06-.18 5.31-18.08-9.17-26.11-3.89-2.16-9.64-2.74-14.11-3.11a37.8 37.8 0 00-6.7 17.94 40.52 40.52 0 00-.13 5.81c11 .86 28.59 6.13 28.78 6.19zm81.89 18.58l-.62.05c-1.73.14-10.6.86-15.21 1.33l-.67.06c-5.6.57-11.38 1.16-15.32 5.6a14.83 14.83 0 00-2.93 14.33c2.19 6.22 8 9.93 15.46 9.93a20.44 20.44 0 0014.22-5.57 15.18 15.18 0 002.46-3.26c3.64-6.51 3.47-15.48 2.68-21.86zm-86.27-10.62c-2.42-.53-10.63-2.32-14.95-3.17l-.66-.14a48.82 48.82 0 00-8-1.1h-.65a14.81 14.81 0 00-8 2.08 15.25 15.25 0 00-7.2 13.23c.28 6.77 4.83 12.15 12.17 14.38a21.69 21.69 0 006.41 1 19.52 19.52 0 009.15-2.17 15.46 15.46 0 003.4-2.46 20.91 20.91 0 002.36-2.77c3.85-5.22 5.79-12.21 6.74-17.59l.17-1z"/><rect class="cls-2" x="13" y="221.48" width="13.09" height="13.97" rx="1.42"/><rect class="cls-2" x="49.08" y="221.48" width="13.09" height="13.97" rx="1.42"/><rect class="cls-2" x="85.16" y="221.48" width="13.09" height="13.97" rx="1.42"/><path class="cls-2" d="M98.63 196.76a.82.82 0 01-1.28-.8v-19.4a1.43 1.43 0 00-1.42-1.42h-8.45a1.43 1.43 0 00-1.42 1.42v24.83a2.47 2.47 0 01-1.27 2l-9.85 4.73a.82.82 0 01-1.27-.8v-14.49a.82.82 0 00-1.28-.8l-33.53 16.12a.82.82 0 01-1.28-.8v-14.52a.82.82 0 00-1.27-.8L2.78 208.15a2.46 2.46 0 00-1.28 2v51.46a1.43 1.43 0 001.42 1.42h105.41a1.43 1.43 0 001.42-1.42v-68.78a.82.82 0 00-1.28-.8z"/><path class="cls-2" d="M98.63 196.76a.82.82 0 01-1.28-.8v-19.4a1.43 1.43 0 00-1.42-1.42h-8.45a1.43 1.43 0 00-1.42 1.42v24.83a2.47 2.47 0 01-1.27 2l-9.85 4.73a.82.82 0 01-1.27-.8v-14.49a.82.82 0 00-1.28-.8l-33.53 16.12a.82.82 0 01-1.28-.8v-14.52a.82.82 0 00-1.27-.8L2.78 208.15a2.46 2.46 0 00-1.28 2v51.46a1.43 1.43 0 001.42 1.42h105.41a1.43 1.43 0 001.42-1.42v-68.78a.82.82 0 00-1.28-.8z"/><path class="cls-1" d="M46.1 286a15.41 15.41 0 01-2.52 1.42 8.89 8.89 0 003.36 1.19 3.27 3.27 0 00-.73 1 7.5 7.5 0 01-5.79-4.17 9.94 9.94 0 01-1.83 1.09v1.5l3-.45v1l-5.52.84-.19-1.08c.4 0 .88-.11 1.4-.18v-1.14a17.12 17.12 0 01-2.58.73 4.47 4.47 0 00-.7-.95 16.07 16.07 0 004.81-1.54h-4.52v-1h5.55v-.8h1.28v.8h5.57v1h-5.1a5.23 5.23 0 001.15 1.46 19.35 19.35 0 002.42-1.46zm-8.84-5.8h-3v-.91h.93a6.46 6.46 0 00-.82-.43 6 6 0 001.11-2.08l1 .26c-.09.22-.17.45-.27.67h1.08v-.95h1.12v.95h2.41v.87h-2.44v.71h2.83v.91h-2.83v.63h2.51v1.66c0 .44-.07.65-.4.79a3.5 3.5 0 01-1.34.14 3.69 3.69 0 00-.34-.79h.86c.12 0 .15 0 .15-.14v-.83h-1.44v2.17h-1.12v-2.17H35.9v1.82h-1v-2.66h2.38zm0-.91v-.71h-1.51c-.16.26-.31.5-.47.71zm5.8 2.66h-1.18v-4.65h1.18zm3.11.62c0 .62-.13.9-.56 1.08a6.53 6.53 0 01-2.06.18 4.3 4.3 0 00-.41-1.06h1.58c.21 0 .26-.07.26-.22v-5.68h1.19zm5.83 4.09a3.85 3.85 0 003.31 1.47c1.55.05 4.66 0 6.41-.1a6.29 6.29 0 00-.43 1.33c-1.58.07-4.4.1-6 0a4.79 4.79 0 01-3.86-1.61c-.66.57-1.33 1.13-2.06 1.74l-.67-1.35a21.32 21.32 0 002-1.44v-3.29h-1.79v-1.21H52zm-.64-6.54A10.69 10.69 0 0049 277.9l1-.78a11.25 11.25 0 012.39 2.14zm3.07-.54a9.28 9.28 0 01-1 1.35 6.65 6.65 0 00-1.11-.63 8.13 8.13 0 002-3.34l1.22.27a12.21 12.21 0 01-.51 1.23h1.35v-1.66h1.29v1.66h3.2v1.12h-3.2v1.52h3.79v1.1H52.5v-1.1h3.86v-1.52zm-.7 7.55v-4h6.82v4zm1.27-1.06h4.19v-1.86H55zm16.63.34a13 13 0 004.75 1.9 6.17 6.17 0 00-.87 1.16 12.49 12.49 0 01-5-2.63v2.82h-1.29v-2.72a13.91 13.91 0 01-5 2.52 6.06 6.06 0 00-.85-1.11 13.86 13.86 0 004.72-1.94h-4.3v-1.1h5.43v-.85h-4.13v-1h4.13v-.84H64.4v-1h2.88a7.28 7.28 0 00-.59-1.27l.33-.06h-3.18v-1.09h2.08a9.84 9.84 0 00-1-1.89l1.14-.38a10.22 10.22 0 011.12 2l-.72.27H68v-2.4h1.21v2.4h1.39v-2.4h1.23v2.4h1.52l-.54-.17a11.89 11.89 0 001-2.07l1.35.33c-.38.69-.8 1.39-1.16 1.91h2v1.09h-2.7c-.27.48-.55.94-.78 1.33h3v1h-5v.84h4.3v1H70.5v.85H76v1.1zM68 280.27a5.62 5.62 0 01.6 1.25l-.4.08h3a12.65 12.65 0 00.62-1.33zm92.77-163.93a20.14 20.14 0 01-2.39 1 10.61 10.61 0 003.23.73 4.25 4.25 0 00-.75 1.11 8.69 8.69 0 01-4.56-1.71v.9l-5 .63-.15-1.1c.35 0 .74-.07 1.17-.12v-2h-1.17a7.42 7.42 0 01-1.33 3.42 5.09 5.09 0 00-1.11-.66 7.84 7.84 0 001.34-5v-1.78H161v1h-9.68v.84c0 .38 0 .8-.06 1.25h10.08v.94h-1.31zm-.42-5.15h-10.14v-4h2.86v-.91h1.27v.91h1.74v-.91h1.29v.91h3zm-8.95-2.41h1.67V108h-1.67zm0 1.55h1.67v-.76h-1.67zm.67 3.83v-.85h7.82v.85zm1.55 3.43l2.54-.3a5.89 5.89 0 01-1.23-1.55h-1.31zm.72-9.56v.75h1.74V108zm0 1.54v.76h1.74v-.76zm1.89 6.17a4.75 4.75 0 001.17 1.05 21.75 21.75 0 002.17-1.05zm2.88-7.71h-1.74v.75h1.74zm0 1.54h-1.74v.76h1.74zm12.5 6.32a13 13 0 004.75 1.91 5.42 5.42 0 00-.87 1.16 12.59 12.59 0 01-5-2.63v2.81h-1.29v-2.72a13.77 13.77 0 01-5 2.53 6.11 6.11 0 00-.86-1.11 13.51 13.51 0 004.72-2h-4.33v-1.04h5.44v-.86h-4.13v-1h4.13v-.84h-4.82v-1h2.87a7 7 0 00-.59-1.28h.34-3.18v-1.1h2.07a11 11 0 00-1-1.89l1.13-.37a9.05 9.05 0 011.12 2l-.71.26h1.6v-2.39h1.22v2.39h1.39v-2.39h1.23v2.39h1.51l-.53-.16a12 12 0 001-2.08l1.34.34a17.58 17.58 0 01-1.16 1.9h2v1.1h-2.7c-.27.47-.55.94-.79 1.33h3v1h-5v.85h4.3v1h-4.3v.86H176v1.09zm-3.6-6.13a6 6 0 01.6 1.24l-.41.09h3c.21-.38.43-.88.62-1.33z"/><path class="cls-2" d="M91.46 91.85h17.99l44.44-41.63h-8.19L91.46 91.85zm36.89 0h17.99l24.34-41.63h-8.19l-34.14 41.63zm36.89 0h18l4.24-41.63h-8.2l-14.04 41.63zm36.89 0h18l-15.86-41.63h-8.19l6.05 41.63z"/><circle cx="134.2" cy="27" r="8.3" stroke-linecap="round" stroke-linejoin="round" stroke="#162789" stroke-width="3" fill="#162789"/><path class="cls-2" d="M138.66 22.55l9.47-9.48m-18.39 9.48l-9.48-9.48M127.89 27h-10.13m16.44 6.31v10.14M140.5 27h10.14m-16.44-6.3V10.56m-4.46 20.9l-9.48 9.48m18.4-9.48l9.47 9.48"/><path class="cls-4" d="M208.78 78.74V65s-1.06-25.88 27.46-25.88c0 0-2.64 25.36-27.46 25.88"/><path class="cls-4" d="M208.78 82.06V65s1.05-25.88-27.47-25.88c0 0 2.64 25.36 27.47 25.88"/><path class="cls-1" d="M401.26 112.49a9.49 9.49 0 00-2.38-1.44l.71-1a9.38 9.38 0 012.42 1.34zm1.26 2c-.62 1.49-1.42 3.15-2.12 4.47l-1.16-.77a41.26 41.26 0 002.25-4.48zm-.58-5.62a9.74 9.74 0 00-2.35-1.52l.73-1a9.12 9.12 0 012.39 1.43zm1.46 2.36c-.17.18-.35.33-.52.49a7.69 7.69 0 00-1-1 12.06 12.06 0 003.29-4.41l1.28.39c-.13.29-.28.59-.42.88h2.17l.27-.08.84.6a16.21 16.21 0 01-1.06 1.74H411v5.59h-7.6zm-1.46 7.2a4.79 4.79 0 001.52-2.55l1.05.36a5.52 5.52 0 01-1.6 2.9zm2.62-6.32h2v-1.25h-2zm0 2.26h2v-1.27h-2zm.84-5.69c-.25.39-.52.78-.8 1.15h2.27a9.85 9.85 0 00.66-1.15zm.8 7.34a11.85 11.85 0 01.38 2.76l-1.12.18a11.1 11.1 0 00-.32-2.76zm1.84-.09a10.79 10.79 0 011 2.72L408 119a12.6 12.6 0 00-1-2.76zm1.71-5.07h-2v1.25h2zm0 2.24h-2v1.27h2zm.36 2.64a11.36 11.36 0 011.72 2.79l-1.06.6a13.16 13.16 0 00-1.67-2.87zm11.66.15a13 13 0 004.75 1.91 5.77 5.77 0 00-.87 1.16 12.49 12.49 0 01-5-2.63v2.81h-1.28v-2.72a13.77 13.77 0 01-5 2.53 5.7 5.7 0 00-.86-1.11 13.51 13.51 0 004.72-2h-4.32v-1.04h5.43v-.86h-4.13v-1h4.13v-.84h-4.82v-1h2.87a6.93 6.93 0 00-.58-1.28h.33H414v-1.1h2.08a11.87 11.87 0 00-1-1.89l1.14-.37a9.94 9.94 0 011.12 2l-.72.26h1.54v-2.39h1.22v2.39h1.39v-2.39H422v2.39h1.51l-.53-.16a12 12 0 001-2.08l1.35.34a21.48 21.48 0 01-1.16 1.9h2v1.1h-2.7c-.27.47-.55.94-.79 1.33h3v1h-4.95v.85h4.3v1h-4.3v.86h5.51v1.09zm-3.6-6.13a6 6 0 01.6 1.24l-.4.09h2.95a12.65 12.65 0 00.62-1.33z"/><path class="cls-2" d="M353 60.35c4.11 5.94 12.22 8.91 20.36 8.91a27.43 27.43 0 0020.36-8.91 27.72 27.72 0 00-40.72 0z"/><path class="cls-2" d="M393.7 60.35l9.75 6.5V53.84l-9.75 6.51m-15.63 25.17c4.12 5.94 12.23 8.91 20.36 8.91a27.43 27.43 0 0020.36-8.91 27.72 27.72 0 00-40.72 0zm40.72 0l9.75 6.51V79.02l-9.75 6.5m-.59-26.02c4.12 5.94 12.23 8.91 20.36 8.91a27.41 27.41 0 0020.36-8.91 27.72 27.72 0 00-40.72 0zm40.72 0l9.75 6.5V52.99l-9.75 6.51m-59.88-24.9l-11.62-11.97h52.11l-5.98 11.97m-24.83-22.54h21.42v10.56h-21.42zm7.92-10.56h6.25v10.56h-6.25z"/><path class="cls-2" d="M483.8 38.12a14.36 14.36 0 00-17.8 0 14.36 14.36 0 01-17.8 0 14.36 14.36 0 00-17.8 0 14.36 14.36 0 01-17.8 0 14.36 14.36 0 00-17.8 0 14.36 14.36 0 01-17.8 0 14.36 14.36 0 00-17.8 0 14.36 14.36 0 01-17.8 0"/><path class="cls-1" d="M472.13 277.46a14.14 14.14 0 01-1.45 2.05 10.37 10.37 0 01.91 4.82c0 2-.14 3.87-.77 4.7a1.26 1.26 0 01-.84.51 6.84 6.84 0 01-1.78.1 3 3 0 00-.37-1.26 9.21 9.21 0 001.58 0 .62.62 0 00.47-.26 9.46 9.46 0 00.47-3.81V284a12.12 12.12 0 01-2.17 2.27 4.37 4.37 0 00-.85-1 9.66 9.66 0 002.88-3.15 7.46 7.46 0 00-.43-1.67 14.88 14.88 0 01-1.54 1.35 5.47 5.47 0 00-.88-.85 13.2 13.2 0 001.83-1.63 7.6 7.6 0 00-1.6-1.76l.9-.71a9.27 9.27 0 011.49 1.53 10.78 10.78 0 001-1.53zm8.11 5.61h-2v5c0 .73-.16 1.09-.65 1.29a8 8 0 01-2.48.21 4.53 4.53 0 00-.4-1.25h2c.29 0 .31-.06.31-.27v-5H472v-1.15h5v-1.52h1.25v1.52h2zm-4.83-4.56v-1.73h1.34v1.73h3.38v2.66h-1.25v-1.49h-5.61v1.49h-1.21v-2.66zm-1.68 5.26a12.94 12.94 0 011.86 2.66l-1 .66a13.14 13.14 0 00-1.76-2.74zm12.77-6.33a13.52 13.52 0 01-1.42 2.09 11.23 11.23 0 01.81 4.79c0 2-.14 3.95-.71 4.75a1.19 1.19 0 01-.8.47 5.08 5.08 0 01-1.54.1 2.56 2.56 0 00-.32-1.25 5.5 5.5 0 001.3 0 .5.5 0 00.41-.22c.32-.41.45-2.11.45-3.88v-.15a11.1 11.1 0 01-1.84 2.07 5.52 5.52 0 00-.84-1 9.26 9.26 0 002.56-3 8.83 8.83 0 00-.36-1.68 16.26 16.26 0 01-1.3 1.22 5.51 5.51 0 00-.89-.84 11.61 11.61 0 001.66-1.57 7.91 7.91 0 00-1.43-1.79l.91-.68a9.09 9.09 0 011.29 1.49 11.66 11.66 0 00.92-1.5zm7.28 2.9c-.06 3.91-.08 7.9.56 8.08a5.54 5.54 0 00.21-1.73 5.38 5.38 0 00.7.85c-.14 2-.76 2.38-1.41 2.07s-1-1.41-1.15-3h-1.75v2.81h-1.17v-2.81H488a6.1 6.1 0 01-1.51 3.11 4.45 4.45 0 00-1-.73c1.37-1.4 1.51-3.39 1.51-5v-3.66h5l-.41-.18a18.31 18.31 0 001.62-3.22l1.29.53c-.5 1-1.12 2.07-1.64 2.87zm-6-.15a8.88 8.88 0 00-1.24-2.61l1-.46a9.07 9.07 0 011.32 2.56zm2 5.26V284h-1.55c0 .45 0 .94-.06 1.44zm-1.55-3.95v1.36h1.55v-1.36zm1.86-1.69a9.64 9.64 0 00-.94-2.65l1-.38a8.88 8.88 0 011 2.58zm2.48 1.69h-1.62v1.36h1.62zm.06 3.95v-1.47h-1.64v1.47zm6.19-2.22a9.36 9.36 0 012.77-6.7l1.07.5a8.73 8.73 0 000 12.39l-1.07.5a9.35 9.35 0 01-2.77-6.69zm10.27-.41l-.81 1.25a32.38 32.38 0 00-3.11-2l.8-1.21c.87.52 2.46 1.5 3.12 1.96zm1.42 3.29a14.27 14.27 0 005.36-5.2l.86 1.49a16.3 16.3 0 01-10.13 6.75l-.83-1.44a15.54 15.54 0 004.74-1.6zm.7-6.39l-.84 1.21c-.72-.52-2.22-1.5-3.07-2l.8-1.21c.9.49 2.43 1.53 3.11 2zm4.2.41l-1 .43a13.74 13.74 0 00-1.26-2.19l1-.41a23.89 23.89 0 011.26 2.17zm1.92-.71l-1 .43a13.52 13.52 0 00-1.32-2.16l1-.4a20.46 20.46 0 011.32 2.13zm4.67 7.04c0 .67.29.84 1 1a12.05 12.05 0 001.75.1 23.07 23.07 0 004.82-.46v1.61a41 41 0 01-4.9.28 15.05 15.05 0 01-2.3-.14c-1.13-.21-1.78-.77-1.78-1.95v-7.67a7.87 7.87 0 00-.09-1.26h1.63a10.14 10.14 0 00-.08 1.26v2.94a39.85 39.85 0 005.11-1.64 7 7 0 001.36-.69l.62 1.42c-.46.18-1 .43-1.47.59a54.68 54.68 0 01-5.67 1.75zm6.49-6.74a22 22 0 00-1.12-1.93l.89-.38a22 22 0 011.14 1.92zm1.37-2.9a22 22 0 011.15 1.91l-.91.39a14.08 14.08 0 00-1.1-1.92zm13.44 9.78a8.85 8.85 0 001.22-.1v1.6c-.38 0-.93-.06-1.22-.06h-9.25c-.4 0-.85 0-1.3.06v-1.6a8.31 8.31 0 001.3.1h3.77v-6.12h-3a10.7 10.7 0 00-1.24.06V279c.37 0 .91.07 1.24.07h7.66a12.43 12.43 0 001.26-.07v1.53a10.53 10.53 0 00-1.26-.06h-3.18v6.12zm7.22-3.37a9.32 9.32 0 01-2.78 6.69l-1.06-.5a8.73 8.73 0 000-12.39l1.06-.5a9.32 9.32 0 012.78 6.7z"/><path class="cls-2" d="M558.06 209.38l-7.75-1.89.7-4.89-8.45-1.5.71-4.89-13.38.38v-4.52l-13 .76.35-4.14-15.14 1.5.7-6.39c-32 4.89-33.45 26.7-33.45 26.7l-16.58 7.5 5.29 9.4h18.74l8.7 24.07h5.56l-2.72-19.56h52.74l9.11 19.56h6.42l-3.79-21.06z"/><path class="cls-2" d="M529.38 231.94l1.55 10.1-6.6 9.46h7.32l9.16-9.47.27-10.09h-11.7zm-52.58-4.51l-7.17 24.07h7.32l5.05-9.4-5.2-14.67zm-1.8-10.16s-2.12 11.66-13.38 16.93m93.97-13.2s5.28 13.54 19 11.28m-73.58-31.18l5.64 4.14-5.99 5.26m9.16 4.14l5.63 4.14-5.99 5.26m-17.25-9.4l5.63 4.14-5.98 5.26"/><circle class="cls-2" cx="484.21" cy="205.21" r="1.16"/><path class="cls-2" d="M518.62 202.98l5.63 4.14-5.98 5.26m7.04 3.39l5.63 4.14-5.98 5.26m11.97-15.42l5.63 4.14-5.98 5.26"/><path class="cls-1" d="M144.4 470.4a3.74 3.74 0 003.26 1.47c1.59.07 4.84 0 6.62-.1a5.41 5.41 0 00-.42 1.27c-1.61.07-4.58.1-6.21 0a4.65 4.65 0 01-3.79-1.62c-.59.58-1.21 1.14-1.9 1.74l-.64-1.29a19.64 19.64 0 001.84-1.43v-3.37h-1.69v-1.21h2.93zm-.67-6.5a9.86 9.86 0 00-2.16-2.34l1-.73a10.35 10.35 0 012.21 2.24zm5.1 6.47H145v-1h3.83v-.69h-2.93v-4h2.93V464h-3.31v-.93h3.31v-.87h1.27v.87h3.36v.93h-3.36v.7h3v4h-3v.69h4v1h-4v1.15h-1.27zm-2.48-7.58h-1.15v-1.85h8.64v1.85h-1.2v-.88h-6.29zm.67 3.5h1.81v-.75H147zm1.81 1.57v-.78H147v.78zm1.27-2.32v.75h1.9v-.75zm1.87 1.54h-1.87v.78h1.9zm7.44 2.78h2.12V471h-2.12v2.29h-1.15V471h-2.2v-1.17h2.2v-1h-1.83V464h1.82v-1h-2v-1.14h2v-1.43h1.16v1.43h2.16V463h-2.16v1h1.88v.18a9.36 9.36 0 003.27-3.61h1.15a10.2 10.2 0 003.51 3.47 9 9 0 00-.68 1.12 9.82 9.82 0 01-1.45-1.13v1h-3.83v-.9a9 9 0 01-1.39 1.11 4.63 4.63 0 00-.58-1v4.64h-1.88zm-2.06-3.9h1.08v-1.06h-1.08zm0 2h1.08v-1.08h-1.08zm3-3h-1.06V466h1.06zm0 2h-1.06v1.08h1.06zm4.72 5.44c0 .42 0 .7-.31.85a2 2 0 01-1.09.18 3.15 3.15 0 00-.24-.91h.6c.1 0 .12 0 .12-.14v-1.64h-1.35v2.65h-.93V466H165zm-2.24-5.38v.92h1.32v-.92zm1.32 2.79v-1h-1.35v1zm2.95-5.73a11.92 11.92 0 01-1.87-2.26 11 11 0 01-1.77 2.26zm-.43 7.24h-.94v-4.92h.94zm.89-5.48h1v6.42c0 .53-.1.81-.43 1a4.94 4.94 0 01-1.71.17 3.76 3.76 0 00-.31-1h1.2c.16 0 .21 0 .21-.19zm11.44 4.25a12.8 12.8 0 004.74 1.9 5.78 5.78 0 00-.86 1.17 12.49 12.49 0 01-5-2.64v2.82h-1.27v-2.72a13.91 13.91 0 01-5 2.52 6.89 6.89 0 00-.86-1.11 13.31 13.31 0 004.72-1.94h-4.33V469h5.44v-.86h-4.14v-1h4.14v-.84h-4.82v-1h2.87a6.9 6.9 0 00-.63-1.3l.34-.06h-3.18v-1.09h2.07a10.34 10.34 0 00-1-1.89l1.13-.38a9.28 9.28 0 011.12 2l-.71.27h1.54v-2.4h1.22v2.4h1.39v-2.4h1.23v2.4h1.51l-.53-.17a11.89 11.89 0 001-2.07l1.34.33a18.83 18.83 0 01-1.16 1.91h2V464h-2.7c-.27.48-.55.94-.79 1.33h3v1h-5v.84h4.3v1h-4.3v.83h5.52v1.09zm-3.6-6.14a6.1 6.1 0 01.6 1.25l-.41.08h3a12.64 12.64 0 00.61-1.33z"/><path class="cls-2" d="M105.67 418.56H94.81v-19.35l5.74-15.77h25.44v35.12h-7.89"/><path class="cls-2" d="M104.27 399.46l3.36-9.26h8.91v9.26h-12.27z"/><circle class="cls-2" cx="112.01" cy="422.13" r="6.45"/><circle class="cls-2" cx="167.64" cy="422.13" r="6.45"/><path class="cls-2" d="M173.41 418.56h6.44v-8.88h-53.86v8.88h35.44"/><path class="cls-4" d="M125.99 373.05h53.86v36.63h-53.86z"/><path class="cls-4" d="M150.67 436.32h-10.86v-19.34l5.74-15.77h25.44v35.11h-7.89"/><path class="cls-4" d="M149.27 417.22l3.36-9.25h8.91v9.25h-12.27z"/><circle class="cls-4" cx="157.01" cy="439.9" r="6.45"/><path class="cls-4" d="M218.41 436.32h6.44v-8.88h-53.86v8.88h35.44"/><path class="cls-4" d="M170.99 390.82h53.86v36.63h-53.86z"/><circle class="cls-4" cx="212.64" cy="439.9" r="6.45"/><path class="cls-1" d="M411.64 472.71h-10.72v.61h-1.3v-12.13h11.69v1.25h-10.39v9h10.72zm-4.57-5.3a5.39 5.39 0 004.1 2.5 4.47 4.47 0 00-.77 1.09 6.18 6.18 0 01-4-2.51c-.58 1-1.75 1.88-4 2.55a4.85 4.85 0 00-.81-1c2.66-.7 3.6-1.68 3.89-2.66h-3.81v-1.12h3.95v-1.4h-2a8.31 8.31 0 01-1 1.05 10.5 10.5 0 00-1.09-.66 6.49 6.49 0 002-2.74l1.23.31a6 6 0 01-.45.92h6v1.12h-3.5v1.4H411v1.12zm14.67 2.73a11.94 11.94 0 004.74 2 4.49 4.49 0 00-.79 1 11.71 11.71 0 01-5-2.66v2.84h-1.29v-2.87a12.88 12.88 0 01-5 2.75 5.47 5.47 0 00-.8-1 13 13 0 004.57-2.05h-4.26V469h5.49v-.73h-1.9v-4.5h1.63a8.77 8.77 0 00.36-1.05l1.27.2-.39.85h2.32v3l.7-.77a19 19 0 012.85 1.69l-.79.93a15.9 15.9 0 00-2.76-1.77v1.46h-2v.69h5.52v1.1zm-4.47-2.95c-1 .49-2.06 1-2.94 1.4l-.53-1.09c.83-.31 2-.83 3.19-1.33zm-.3-4.72h-3.1v-1.11H417v-.88h1.28v.88h3.49v-.88h1.32v.88h3.15v1.11h-3.15v1h-1.32v-1h-3.49v1H417zm-1.85.89a7.75 7.75 0 011.88 1.84l-1 .73a8.88 8.88 0 00-1.78-1.91zm3.5 2.26h2.83v-.93h-2.83zm0 1.81h2.83v-1h-2.83zm4.3-2.2a12.76 12.76 0 001.88-1.94l1.1.55a14.76 14.76 0 01-2 1.91z"/><path class="cls-2" d="M430.54 366h1.8v30.14l-21 37c-2.68 4.73-.83 8.6 4.12 8.6h49.22c4.95 0 6.81-3.87 4.12-8.6l-21-37V366h1.8m-27.72 49.45c11.62-4.75 20.07 8.16 35.39-1.87M391 415.09a11.09 11.09 0 114.49 21.72l-24.31 5a11.09 11.09 0 01-4.49-21.73z"/><path class="cls-2" d="M377 418c3.49-.72 7.32 3.56 8.56 9.56S385 439 381.52 439.7M371 394.27a9.37 9.37 0 110 18.73h-21a9.37 9.37 0 010-18.74z"/><path class="cls-2" d="M358.93 394.27c3 0 5.44 4.19 5.44 9.37s-2.43 9.36-5.43 9.36"/><ellipse class="cls-2" cx="399.32" cy="391.12" rx="12.72" ry="7.89"/><path class="cls-2" d="M386.6 391.12c0 4.36 5.7 7.89 12.72 7.89s12.68-3.53 12.68-7.89v7.48c0 4.36-5.69 7.89-12.71 7.89S386.6 403 386.6 398.6z"/><path d="M386.1 341.19a39.54 39.54 0 0026.41-9.79 31 31 0 000-47.29 39.5 39.5 0 00-26.41-9.8 42.2 42.2 0 00-26.41 9.8c-6.34 5.38-12.27 8.28-20.13 8.28s-13.79-2.9-20.13-8.28a40.49 40.49 0 00-52.82 0c-6.34 5.38-12.27 8.28-20.13 8.28s-13.79-2.9-20.13-8.28a42.2 42.2 0 00-26.41-9.8 39.5 39.5 0 00-26.41 9.8 31 31 0 000 47.29 39.54 39.54 0 0026.41 9.79 42.25 42.25 0 0026.41-9.79c6.34-5.38 12.27-8.29 20.13-8.29s13.79 2.91 20.13 8.29a40.52 40.52 0 0052.82 0c6.34-5.38 12.27-8.29 20.13-8.29s13.79 2.91 20.13 8.29a42.25 42.25 0 0026.41 9.79z" stroke-miterlimit="10" stroke="#162789" stroke-width="3" fill="none"/><path class="cls-1" d="M186.62 303.45a9.13 9.13 0 012.45 1.36l-.82 1.13a10.38 10.38 0 00-2.41-1.46zm1.53 4l1.14.74c-.55 1.59-1.26 3.37-1.9 4.77l-1.27-.72a41.1 41.1 0 002.03-4.78zm-.89-8a9.09 9.09 0 012.38 1.46l-.84 1.12a10.4 10.4 0 00-2.33-1.59zm4.52 10.62a10.25 10.25 0 01-2.08 3.12 9.66 9.66 0 00-1.1-.75 7.93 7.93 0 001.9-2.72zm2.63-10.07v9.57H190V300zm-3.25 2.8h2v-1.58h-2zm0 2.78h2v-1.61h-2zm0 2.75h2v-1.62h-2zm2.48 1.39a21.24 21.24 0 011.66 2.28l-1.13.69a15.83 15.83 0 00-1.6-2.4zm3-8.82v8.59h-1.22v-8.59zm2.59-1.54v12.18c0 .79-.16 1.18-.63 1.41a6.55 6.55 0 01-2.41.25 4.88 4.88 0 00-.41-1.34h1.85c.24 0 .32-.07.32-.31v-12.2zm12.62 2.2l-.92.62c-.77.54-2.58 2.13-3.64 3a5.74 5.74 0 011.77-.25c2.5 0 4.36 1.54 4.36 3.62 0 2.4-1.92 4.1-5.27 4.1-2.07 0-3.45-.93-3.45-2.27a2.3 2.3 0 012.47-2.13 3 3 0 013.14 2.62 2.43 2.43 0 001.57-2.33c0-1.41-1.42-2.4-3.25-2.4-2.38 0-3.8 1.11-5.56 3L202 308c1.17-.95 3-2.52 3.91-3.25l3.31-2.77c-.79 0-3.34.13-4.12.18l-1.1.1-.05-1.55c.38 0 .83.07 1.19.07.79 0 4.17-.09 5-.16a5.08 5.08 0 00.95-.15zm-2.91 9.68a1.8 1.8 0 00-1.77-1.83c-.62 0-1.07.36-1.07.83 0 .65.77 1.06 1.78 1.06a8.91 8.91 0 001.06-.06zm56.52-7.76a24.05 24.05 0 016.38-1.45c2.57 0 4.61 1.49 4.61 4.11 0 3.5-3.41 5.43-8.32 5.68l-.68-1.58c4-.09 7.32-1.27 7.32-4.13a2.67 2.67 0 00-3-2.66c-2.33 0-6 1.58-7.37 2.14l-.68-1.66a17 17 0 001.74-.45zm21.26-.48a22.28 22.28 0 01-2.66.53 26 26 0 01-3.24 6.35l-1.45-.74a21.64 21.64 0 003.12-5.44h-1.07c-.57 0-1.19 0-1.8-.06l-.1-1.39c.59.06 1.3.09 1.9.09s1 0 1.54-.06a11.67 11.67 0 00.44-2.54l1.6.26c-.12.52-.31 1.35-.54 2.19a16 16 0 002.17-.51zm1.84 1.56a17.09 17.09 0 000 1.75c0 .48.06 1.34.11 2.19a9.8 9.8 0 013.09 1.88l-.8 1.28a12.67 12.67 0 00-2.23-1.66v.41c0 1.27-.77 2.3-2.73 2.3-1.74 0-3.14-.74-3.14-2.3 0-1.4 1.27-2.4 3.12-2.4a6.49 6.49 0 011.26.11c-.06-1.18-.14-2.58-.17-3.56zm-1.3 4.86a5 5 0 00-1.37-.19c-1 0-1.65.44-1.65 1.05s.52 1.07 1.54 1.07a1.31 1.31 0 001.5-1.41 5.07 5.07 0 00-.02-.48zm4.09-4.29a19 19 0 00-3.48-2.08l.75-1.17a25.23 25.23 0 013.58 2zm6.23-4.34c-.11.32-.23.79-.3 1.07-.43 1.95-.94 5-.46 7.2.21-.56.5-1.37.76-2l.78.49a35.73 35.73 0 00-1 3.44 3.85 3.85 0 00-.08.7v.56l-1.3.13a16.41 16.41 0 01-.83-4.78 38.46 38.46 0 01.55-5.83c.06-.37.07-.8.09-1.11zm7.33-.22c0 .31-.06.6-.07.92s0 1.22 0 2.08a22 22 0 002.54-.33v1.55c-.69.11-1.57.18-2.5.24v.44c0 3.49-.14 5.81-3.2 7.68l-1.38-1.08a5.56 5.56 0 001.59-1.05c1.39-1.29 1.54-2.83 1.54-5.55v-.36h-1.62c-.69 0-1.67-.05-2.37-.09v-1.53a15.7 15.7 0 002.34.17h1.62c0-.87-.05-1.75-.08-2.16a7.25 7.25 0 00-.15-.93zm1.21 1.88a20.21 20.21 0 00-.83-2.14l.86-.26a15.58 15.58 0 01.84 2.1zm1.57-2.88a20.12 20.12 0 01.86 2.1l-.88.29a15.32 15.32 0 00-.84-2.1zm12.44 1.99l-.92.62c-.77.54-2.58 2.13-3.63 3a5.68 5.68 0 011.76-.25c2.51 0 4.36 1.54 4.36 3.62 0 2.4-1.92 4.1-5.26 4.1-2.07 0-3.46-.93-3.46-2.27a2.3 2.3 0 012.47-2.13 3 3 0 013.14 2.62 2.43 2.43 0 001.57-2.33c0-1.41-1.42-2.4-3.24-2.4-2.39 0-3.8 1.11-5.57 3l-1.1-1.11c1.16-.95 3-2.52 3.91-3.25s2.55-2.13 3.3-2.77c-.78 0-3.33.13-4.12.18l-1.1.1v-1.55c.37 0 .83.07 1.19.07.78 0 4.16-.09 5-.16a5.43 5.43 0 00.95-.15zm-2.91 9.68a1.8 1.8 0 00-1.77-1.83c-.61 0-1.07.36-1.07.83 0 .65.77 1.06 1.78 1.06a8.78 8.78 0 001.06-.06zm40-4.98a32 32 0 00-2.77-1.62l.77-1c.86.42 2.14 1.09 2.77 1.49zm-2.47 5.74a45.28 45.28 0 002.83-4.77l1 .93a52.08 52.08 0 01-2.68 4.77zm3.18-9.86c-.62-.44-1.87-1.16-2.76-1.66l.78-1a31 31 0 012.81 1.52zm6.28 2.85v2.24h3.11v5.81H366v-.56h-5v.63h-1.29v-5.88h3.17V305h-4.19v-1.34h4.19v-2.14c-1.05.16-2.14.28-3.14.36a5.3 5.3 0 00-.4-1.18 34.13 34.13 0 007.16-1.37l1.11 1.09a20 20 0 01-3.4.87v2.37h4V305zm1.78 3.51h-5v2.71h5zm17.01 2.9c0 .82-.2 1.24-.74 1.45a8.07 8.07 0 01-2.82.24 6.46 6.46 0 00-.47-1.36h2.25c.25 0 .37-.09.37-.37v-2.7H378V313h-1.4v-4.31h-3.47a8.65 8.65 0 01-1.89 4.57 4.45 4.45 0 00-1.1-.92c1.64-1.83 1.79-4.5 1.79-6.63v-5.37H383zm-6.46-4v-2.24h-3.24v.61c0 .51 0 1.07-.06 1.63zm-3.28-5.68v2.13h3.28v-2.13zm8.33 0H378v2.13h3.65zm0 5.68v-2.24H378v2.24zm17.03-4.18c-.89 0-2.29-.07-4.47-.07v2.34a3.62 3.62 0 01.53 2c0 2-1.06 4.33-4.61 5.36l-1.28-1.27a5.86 5.86 0 003.85-2.16 2.44 2.44 0 01-1 .21 2.51 2.51 0 01-2.54-2.63 2.71 2.71 0 012.79-2.69 2.78 2.78 0 01.83.11v-1.27c-2.26 0-4.7.12-6.56.24v-1.44c1.68 0 4.46-.11 6.59-.14v-.75c0-.38-.08-.88-.12-1.09h1.72c0 .19-.08.87-.08 1.09v.73h4.47zm-6.73 5.09c.77 0 1.34-.62 1.15-2a1.23 1.23 0 00-1.17-.69 1.34 1.34 0 00-1.34 1.4 1.3 1.3 0 001.36 1.29zm18.72-6.75l-.92.62c-.77.54-2.58 2.13-3.64 3a5.78 5.78 0 011.77-.25c2.51 0 4.36 1.54 4.36 3.62 0 2.4-1.91 4.1-5.27 4.1-2.06 0-3.45-.93-3.45-2.27a2.3 2.3 0 012.47-2.13 3 3 0 013.14 2.62 2.43 2.43 0 001.57-2.33c0-1.41-1.42-2.4-3.24-2.4-2.39 0-3.81 1.11-5.57 3l-1.1-1.11c1.16-.95 3-2.52 3.91-3.25s2.55-2.13 3.3-2.77c-.78 0-3.33.13-4.12.18l-1.1.1-.05-1.55c.38 0 .83.07 1.2.07.78 0 4.16-.09 5-.16a5.43 5.43 0 00.95-.15zm-2.91 9.68a1.8 1.8 0 00-1.77-1.83c-.61 0-1.07.36-1.07.83 0 .65.77 1.06 1.78 1.06a8.78 8.78 0 001.06-.06z"/></svg>