<svg version="1.1" id="レイヤー_1" xmlns="http://www.w3.org/2000/svg" x="0" y="0" viewBox="0 0 471.1 189.3" xml:space="preserve"><style>.st0{fill:#5354a2}.st3{fill:#9794c8}.st4{fill:#2c3590}.st6{fill:#50bcb6}</style><path class="st0" d="M235.1 6.2c37.1 0 67.3 30.2 67.3 67.3 0 37.1-30.2 67.3-67.3 67.3-37.1 0-67.3-30.2-67.3-67.3 0-37.1 30.2-67.3 67.3-67.3m0-6.2c-40.6 0-73.5 32.9-73.5 73.5s32.9 73.5 73.5 73.5 73.5-32.9 73.5-73.5C308.7 32.9 275.7 0 235.1 0z"/><path fill="none" stroke="#2c3590" stroke-width="8.316" stroke-miterlimit="10" d="M30.5 73.5h42.9"/><path class="st0" d="M73.5 6.2c37.1 0 67.3 30.2 67.3 67.3 0 37.1-30.2 67.3-67.3 67.3-37.1 0-67.3-30.2-67.3-67.3 0-37.1 30.2-67.3 67.3-67.3m0-6.2C32.9 0 0 32.9 0 73.5S32.9 147 73.5 147 147 114.1 147 73.5C147.1 32.9 114.1 0 73.5 0zm324.1 6.2c37.1 0 67.3 30.2 67.3 67.3 0 37.1-30.2 67.3-67.3 67.3-37.1 0-67.3-30.2-67.3-67.3 0-37.1 30.1-67.3 67.3-67.3m0-6.2C356.9 0 324 32.9 324 73.5s32.9 73.5 73.5 73.5S471 114.1 471 73.5C471.1 32.9 438.2 0 397.6 0z"/><path d="M396.7 100c0 16.8-13.7 30.5-30.5 30.5h-305c-16.8 0-30.5-13.7-30.5-30.5V47.6c0-16.8 13.7-30.5 30.5-30.5h305c16.8 0 30.5 13.7 30.5 30.5V100z" fill="none" stroke="#2c3590" stroke-width="4.067" stroke-miterlimit="10"/><path class="st3" d="M235.1 118.9c-34.8 0-63.1-20.4-63.1-45.4s28.3-45.4 63.1-45.4 63.1 20.4 63.1 45.4-28.3 45.4-63.1 45.4z"/><path class="st3" d="M235.1 29.3c34.1 0 61.9 19.9 61.9 44.3s-27.8 44.3-61.9 44.3c-34.2 0-61.9-19.9-61.9-44.3s27.8-44.3 61.9-44.3m0-2.3c-35.5 0-64.2 20.8-64.2 46.5s28.7 46.5 64.2 46.5 64.2-20.8 64.2-46.5S270.6 27 235.1 27z"/><path class="st4" d="M49.3 73.5c0 10.3-8.4 18.7-18.7 18.7-10.3 0-18.7-8.4-18.7-18.7 0-10.3 8.4-18.7 18.7-18.7 10.3 0 18.7 8.4 18.7 18.7zm42.8 0c0 10.3-8.4 18.7-18.7 18.7-10.3 0-18.7-8.4-18.7-18.7 0-10.3 8.4-18.7 18.7-18.7 10.3 0 18.7 8.4 18.7 18.7z"/><circle class="st4" cx="116.2" cy="73.5" r="18.7"/><path class="st3" d="M360.5 78.7c-2.9 0-5.2-2.3-5.2-5.2V37.1c0-2.9 2.3-5.2 5.2-5.2h16.8c2.9 0 5.2 2.3 5.2 5.2v36.4c0 2.9-2.3 5.2-5.2 5.2h-16.8z"/><path class="st3" d="M377.2 32.9c2.3 0 4.2 1.9 4.2 4.2v36.4c0 2.3-1.9 4.2-4.2 4.2h-16.8c-2.3 0-4.2-1.9-4.2-4.2V37.1c0-2.3 1.9-4.2 4.2-4.2h16.8m0-2.1h-16.8c-3.4 0-6.2 2.8-6.2 6.2v36.4c0 3.4 2.8 6.2 6.2 6.2h16.8c3.4 0 6.2-2.8 6.2-6.2V37.1c.1-3.5-2.7-6.3-6.2-6.3z"/><path d="M439.5 73.4c0 3.4-2.8 6.2-6.2 6.2h-39.9c-3.4 0-6.2-2.8-6.2-6.2V37c0-3.4 2.8-6.2 6.2-6.2h39.9c3.4 0 6.2 2.8 6.2 6.2v36.4z" fill="#495354"/><path class="st6" d="M360.5 83c-3.4 0-6.2 2.8-6.2 6.2V110c0 3.4 2.8 6.2 6.2 6.2h72.8c3.4 0 6.2-2.8 6.2-6.2V89.2c0-3.4-2.8-6.2-6.2-6.2h-72.8z"/><path class="st4" d="M158.4 73.8l-8.3 8.3V65.5zm162.1 0l-8.3 8.3V65.5z"/><path class="st6" d="M290.5 73.5c0 15.5-12.6 28.1-28.1 28.1-15.5 0-28.1-12.6-28.1-28.1s12.6-28.1 28.1-28.1c15.5.1 28.1 12.6 28.1 28.1z"/><path class="st4" d="M226.5 73.5c0 10.3-8.4 18.7-18.7 18.7-10.3 0-18.7-8.4-18.7-18.7 0-10.3 8.4-18.7 18.7-18.7 10.4 0 18.7 8.4 18.7 18.7zm54.6 0c0 10.3-8.4 18.7-18.7 18.7-10.3 0-18.7-8.4-18.7-18.7 0-10.3 8.4-18.7 18.7-18.7 10.4 0 18.7 8.4 18.7 18.7zm39.6-48.8H106.4c-4.2 0-7.7-3.4-7.7-7.7 0-4.2 3.4-7.7 7.7-7.7h214.3c4.2 0 7.7 3.4 7.7 7.7-.1 4.3-3.5 7.7-7.7 7.7z"/><path d="M21 73.8c.5-.5 1-1.2 1.2-1.7-.1 0-1.4.3-2.6.5v2.1c0 .5.2.6 1 .6s1.5-.1 2.2-.2v.6c-.6.1-1.3.1-2.2.1-1.3 0-1.5-.3-1.5-1v-2.1c-.7.1-1.3.3-1.6.3l-.1-.6c.3 0 1-.2 1.7-.3v-1.7h.7v1.7c1.2-.2 2.4-.5 2.7-.5.2 0 .3-.1.4-.1l.4.3c0 .1-.1.2-.2.3-.3.6-.9 1.5-1.4 2l-.7-.3zm6.2.5c1.1-.7 1.9-1.7 2.3-2.6l.3.6c-.5.9-1.3 1.8-2.4 2.5-.7.4-1.6.9-2.8 1.1l-.4-.6c1.5-.1 2.4-.5 3-1zm-.4-2.2l-.4.4c-.4-.4-1.2-1.1-1.7-1.5l.4-.4c.4.4 1.3 1.1 1.7 1.5zm9.6-.3h.6v.6h-1.4v.2c0 1.9-.4 2.8-2 3.5l-.5-.4c1.3-.5 1.9-1.1 1.9-3.1v-.3h-2V74h-.6v-1.7H31v-.6h1.4v-1.4h.6v1.4h2v-1.5h.6v1.5h.8zm1.7 1h5.6v.7h-5.5v-.7zm26.2 2.1c.3.5.9.8 1.7.8h3.1c-.1.1-.1.4-.2.5h-3c-.9 0-1.5-.3-2-.8-.3.3-.7.6-1.1.9l-.3-.5c.3-.2.7-.5 1.1-.8v-1.8h-1v-.5h1.5v2.2zm-.2-3.4c-.2-.3-.7-.8-1.2-1.1l.4-.3c.4.3 1 .7 1.2 1.1l-.4.3zm3.2 1.7c.3.9.9 1.5 1.8 1.7-.1.1-.3.3-.3.4-.9-.3-1.5-.9-1.8-1.8-.2.6-.7 1.3-1.8 1.8-.1-.1-.2-.3-.3-.4 1.2-.5 1.6-1.2 1.7-1.8h-1.8v-.5h1.9v-1H65v-.5h.9c-.1-.3-.3-.8-.6-1.1l.4-.2c.3.3.5.8.6 1.1l-.4.2h3v.5h-1.8v1h2v.5h-1.8zm1.2-3.1c-.2.4-.5.9-.8 1.2l-.4-.2c.2-.3.5-.8.7-1.2l.5.2zm3.7 0c-.2.5-.4 1-.7 1.4v4.8H71v-4c-.3.4-.5.7-.8.9 0-.1-.2-.4-.3-.5.7-.7 1.4-1.7 1.8-2.8l.5.2zm4.3 1.1v.4H72v-.4h4.5zm-4 2.9h3.6v2.2h-.5V76H73v.3h-.5v-2.2zm3.5-1.5h-3.4v-.4H76v.4zm-3.4.6H76v.4h-3.4v-.4zm3.3-2.5h-3.2v-.4h3.2v.4zM73 74.5v1h2.5v-1H73zm8.6-1.3c.5.5 1.3.9 2.1 1.1-.1.1-.3.3-.3.4-.1 0-.3-.1-.4-.1v1.8h-.5v-.2h-1.3v.3h-.5v-2.3H82c-.4-.3-.8-.6-1.1-.9h-1.1c-.3.4-.7.7-1.2.9H80v2.2h-.5v-.2h-1.3v.3h-.5v-1.9c-.1.1-.3.1-.4.2-.1-.1-.2-.3-.3-.4.8-.3 1.5-.6 2-1.1h-1.9v-.5h2.3c.1-.2.3-.3.4-.5h-2.2v-1.9H80v1.8-.1l.5.2-.3.6h3.3v.5h-1.9zm-2-2.5h-1.3v1.1h1.3v-1.1zm0 3.8h-1.3v1.1h1.3v-1.1zm3.5-2.3h-2.3v-1.9h2.3v1.9zm-.6 3.4v-1.1h-1.3v1.1h1.3zm.1-4.9h-1.3v1.1h1.3v-1.1zm21.9 1h.7v.6h-1.9c-.1 2-.9 3.2-2.1 3.9l-.6-.4.6-.3c.7-.5 1.4-1.4 1.5-3.2H101c-.3.5-.8 1.2-1.2 1.5l-.6-.3c.5-.4 1-1.1 1.2-1.5.2-.3.3-.7.4-1 0-.2.1-.4.1-.6l.7.1c-.1.2-.1.3-.2.5s-.2.5-.3.7h3.4zm-.1-.3c-.1-.3-.4-.7-.6-1l.4-.2c.2.3.4.7.6 1l-.4.2zm.6-1.4c.2.3.5.7.6 1l-.4.2c-.2-.3-.4-.7-.6-1l.4-.2zm.5 2.8h5.6v.7h-5.5v-.7zm9.7 1.2c-.8-.4-2-.9-2.8-1.1V76h-.7v-4.9c0-.2 0-.5-.1-.7h.7v1.8c.9.3 2.2.8 3 1.2l-.1.6zm6.2-2.4c0 .1-.1.3-.1.4-.1.6-.3 1.4-.7 2.1-.5.9-1.5 1.6-2.8 2l-.5-.5c.2 0 .5-.1.7-.2.7-.2 1.5-.7 1.9-1.4.4-.6.6-1.4.7-2h-3.9v1.7h-.6v-2.1h2.2v-1.2h.7v1.2h1.6c.3 0 .4 0 .5-.1l.3.1zm4.6 3.7h.5v.6h-4.9v-.6h2.1v-2.6h-1.8v-.6h4.2v.6h-1.9v2.6h1.8zm6.3-4.5c-.5.5-1.2 1.1-1.9 1.5V76h-.7v-3.3c-.7.4-1.7.8-2.6 1.1l-.3-.5c1.2-.3 2.4-.8 3.1-1.3.7-.4 1.4-1.1 1.8-1.5l.6.3zm63.2-.1h.7v5.1h-.7v-5.1zm1.9 3.2c0-1.3.8-2 1.8-2s1.8.7 1.8 2-.8 2-1.8 2-1.8-.7-1.8-2zm2.8 0c0-.9-.4-1.5-1.1-1.5s-1.1.6-1.1 1.5.4 1.5 1.1 1.5 1.1-.6 1.1-1.5zm2.4-2.7H201v-.5h3.8v.5h-1.6v4.6h-.7v-4.6zm10.4-1v6.1h-.6V76h-4.7v.4h-.5v-6.1h5.8zm-.5 5.3v-4.7h-4.7v4.7h4.7zm-1-3.7v2.5h-2.7v-2.5h2.7zm-.5.5h-1.7v1.6h1.7v-1.6zm4 1.7c-.1.7-.3 1.3-.5 1.8-.1-.1-.3-.2-.4-.2.2-.4.4-1.1.4-1.7l.5.1zm.7-.6v2.9h-.5v-2.9l-1.1.1V73h.5c.1-.2.3-.4.4-.6-.2-.3-.6-.7-.9-1l.3-.3.2.2c.2-.4.5-.9.6-1.3l.5.2c-.2.5-.5 1.1-.8 1.4.1.2.3.3.4.4.3-.4.6-.9.7-1.3l.4.2c-.4.6-.9 1.4-1.4 2h1l-.3-.6.4-.2c.3.4.6 1.1.7 1.4l-.4.2c0-.1-.1-.3-.1-.4l-.6.1zm.6.5c.2.4.3.9.4 1.2l-.4.1c0-.3-.2-.9-.4-1.3h.4zm1.9-.1c-.2 1.1-.8 1.8-1.5 2.2-.1-.1-.2-.3-.3-.4.6-.3 1-.8 1.3-1.5h-.9v-.4h1.2l.2.1zm2.3-.1c-.3.3-.7.6-1.1.9.3.4.7.8 1.2 1-.1.1-.2.3-.3.4-.7-.4-1.2-1-1.5-1.7v1.4c0 .3 0 .4-.2.5-.2.1-.4.1-.9.1 0-.1-.1-.3-.1-.4h.7c.1 0 .1 0 .1-.1v-2.7H217v-2.5h1.1c.1-.2.2-.5.3-.7l.6.1-.3.6h1.6v2.5h-1.4v.1c.1.3.2.7.4 1 .3-.3.7-.6.9-.8l.3.3zm-3.1-2h2.4v-.6h-2.4v.6zm0 1h2.4v-.6h-2.4v.6zm31.6-2h.7v5.1h-.7v-5.1zm2.2 0h.7v5.1h-.7v-5.1zm1.8 3.2c0-1.3.8-2 1.8-2 .9 0 1.8.7 1.8 2s-.8 2-1.8 2-1.8-.7-1.8-2zm2.9 0c0-.9-.4-1.5-1.1-1.5s-1.1.6-1.1 1.5.4 1.5 1.1 1.5 1.1-.6 1.1-1.5zm2.4-2.7h-1.6v-.5h3.8v.5h-1.6v4.6h-.7v-4.6zm9.1 2.5c.4.5 1 .9 1.6 1.1-.1.1-.3.3-.3.4-.7-.3-1.4-.9-1.8-1.5h-2.2c-.4.7-1.1 1.3-1.8 1.6-.1-.1-.2-.3-.3-.4.6-.2 1.2-.7 1.6-1.2h-1.5v-.4h1.4v-2.2H263v-.4h1.1V70h.5v.7h2.5V70h.5v.7h1v.4h-1v2.2h1.4v.4h-1.6zm-1.4 2h2.4v.4h-5.3v-.4h2.3V75H264v-.4h1.4V74h.5v.6h1.5v.4H266v.7zm-1.5-4.6v.5h2.5v-.5h-2.5zm0 1.3h2.5v-.5h-2.5v.5zm0 .9h2.5v-.5h-2.5v.5zm7.8-1c-.5 0-1 .1-1.4.1-.1.6-.3 1.3-.8 1.8l-.3-.3c.4-.4.6-1 .7-1.5h-.6V72h.6v-1.5h.8c.1-.2.2-.4.2-.5l.5.1c-.1.2-.1.3-.2.4h1v1.4h.3v.4h-.3v1.2c0 .2 0 .4-.2.4-.2.1-.4.1-.8.1 0-.1-.1-.3-.1-.4h.6c.1 0 .1 0 .1-.1v-1.2zm3.1 3.4h.8v.4h-6.3v-.4h.8v-1.6h4.7v1.6zm-4.5-4v.2c.4 0 .9 0 1.4-.1v-1.1h-1.4v1zm.6-.7c.2.2.3.5.4.7l-.3.1c-.1-.2-.2-.5-.4-.7l.3-.1zm-.3 4.7h.9v-1.2h-.9v1.2zm.5-3.2v1h-.4v-1h.4zm.9 2v1.2h.9v-1.2h-.9zm3.1-2.4c-.2.5-.5.9-.9 1.2.4.2.9.3 1.4.4-.1.1-.2.3-.3.4-.6-.1-1.1-.3-1.5-.5-.4.2-.8.4-1.3.5-.1-.1-.2-.3-.3-.4.4-.1.8-.2 1.2-.4-.3-.2-.5-.5-.7-.8l.3-.1h-.5V72c0-.1-.2-.3-.3-.3.5-.3.6-.6.6-1v-.5h1.8v1c0 .1 0 .1.1.1h.3c.1 0 .1 0 .1-.5.1.1.3.1.4.2 0 .6-.2.8-.5.8h-.4c-.4 0-.5-.1-.5-.5v-.6h-.9v.1c0 .4-.1.9-.7 1.3h2.6zm-1.8.3c.1.3.4.5.6.7.3-.2.5-.4.7-.7h-1.3zm.1 2.1v1.2h.9v-1.2h-.9zm92.3-27h-1.9l-.5 1.6h-.7l1.7-5.1h.7l1.7 5.1h-.7l-.3-1.6zm-.1-.5l-.2-.8c-.2-.6-.4-1.1-.5-1.7-.2.6-.3 1.2-.5 1.7l-.3.8h1.5zm2.3-3h1.5c1.2 0 1.9.4 1.9 1.5s-.8 1.6-1.9 1.6h-.8v2h-.7V44zm1.4 2.5c.9 0 1.3-.3 1.3-1.1 0-.7-.5-1-1.4-1h-.7v2h.8zM373 44h.7v5.1h-.7V44zm-2.1 13.7c-.4-.1-.8-.3-1.2-.6-.4.4-.9.6-1.5.6-.9 0-1.6-.6-1.6-1.4 0-.7.5-1.1 1-1.5-.2-.4-.3-.8-.3-1.2 0-.7.5-1.2 1.2-1.2.6 0 1 .4 1 1 0 .7-.6 1.1-1.2 1.5.3.5.8 1.1 1.3 1.4.3-.4.6-.9.7-1.5h.6c-.2.7-.5 1.3-.9 1.8.3.2.7.4 1 .5l-.1.6zm-2.6-.5c.4 0 .7-.2 1-.4-.5-.4-1-1-1.4-1.5-.4.3-.6.6-.6 1 0 .6.4.9 1 .9zm-.2-2.7c.5-.3.9-.6.9-1.1 0-.3-.1-.6-.5-.6s-.6.3-.6.7c0 .4.1.7.2 1zm-5.8 11.1l.4-.4c.4.4.9.6 1.4.6.7 0 1.1-.3 1.1-.8s-.4-.7-.9-.9l-.7-.3c-.5-.2-1-.6-1-1.3 0-.8.7-1.4 1.6-1.4.6 0 1.1.3 1.5.6l-.3.4c-.3-.3-.7-.5-1.2-.5-.6 0-1 .3-1 .8s.4.7.8.9l.7.3c.6.3 1.1.6 1.1 1.4 0 .8-.7 1.5-1.7 1.5-.8-.2-1.4-.5-1.8-.9zm4.6-4.5h1.3c1.6 0 2.4.9 2.4 2.5s-.8 2.6-2.4 2.6h-1.3v-5.1zm1.2 4.6c1.2 0 1.8-.8 1.8-2.1s-.6-2-1.8-2h-.6v4.1h.6zm3.7-4.6h.7v2.6l2.1-2.6h.7l-1.6 2 1.9 3.2h-.7l-1.5-2.7-.9 1.1v1.6h-.7v-5.2zm37.6-8.3c0 .1-.1.2-.2.3-.3.5-.9 1.4-1.7 1.9l-.5-.4c.6-.4 1.3-1.1 1.5-1.6h-4.8v-.6c.2 0 .5.1.8.1h4.5l.4.3zm-2.8.9c0 1.9-.2 3.2-2 4.1l-.5-.4.6-.3c1.1-.7 1.2-1.7 1.2-2.8v-.5h.7zm8.3-.9h.2v-.2c0-.4.3-.8.8-.8s.8.4.8.8-.3.8-.8.8h-.3v.1c-.2.7-.5 1.9-1 2.6-.6.8-1.5 1.5-2.8 1.9l-.5-.5c1.4-.3 2.1-.9 2.7-1.7.5-.6.8-1.6.9-2.3h-4.3v-.6h4.3zm1.5-.3c0-.3-.2-.5-.5-.5s-.5.2-.5.5.2.5.5.5c.2 0 .5-.2.5-.5zm2.4-.2v3.3h-.6v-3.3h.6zm3.2-.1V54c0 1.7-.2 2.2-.7 2.8-.5.5-1.2.8-1.7 1l-.5-.5c.6-.2 1.2-.4 1.7-.9.5-.6.6-1.1.6-2.5v-1.7h.6zm-47 47c0-1.2.8-2 1.7-2 1 0 1.5.7 1.5 1.8v.4h-2.6c0 .8.5 1.3 1.3 1.3.4 0 .7-.1 1-.3l.2.4c-.3.2-.7.4-1.3.4-1 0-1.8-.7-1.8-2zm2.7-.3c0-.8-.4-1.2-.9-1.2s-1 .4-1.1 1.2h2zm6 2.3v-.4h-4.2v-.6h4.2v-3.3h-4.2v-.6h4.8v4.8h-.6zm7.9-4.5c-.1.1-.1.2-.2.2-.5.8-1.4 2-2.5 2.8.4.4.9.9 1.2 1.3l-.5.4c-.3-.4-.8-1-1.3-1.4-.4-.4-1.2-1.1-1.6-1.4l.5-.4c.3.2.8.7 1.3 1.1 1-.8 1.8-1.8 2.2-2.4h-4.8v-.6c.2 0 .5.1.7.1h4.2c.2 0 .4 0 .4-.1l.4.4zm.8 1.4h5.6v.7h-5.5v-.7zm10.8-1.7c0 .1-.1.2-.2.3-.2.6-.7 1.4-1.2 2.1.7.6 1.6 1.5 2 2.1l-.5.4c-.5-.6-1.2-1.4-1.9-2.1-.7.8-1.7 1.6-2.7 2l-.4-.5c1.1-.4 2.2-1.3 2.9-2.1.5-.5 1-1.4 1.2-1.9H399v-.6h3.4c.2 0 .4 0 .5-.1l.3.4zm6.5 2.6c.4.5 1 .9 1.6 1.1-.1.1-.3.3-.3.4-.7-.3-1.4-.9-1.8-1.5H407c-.4.7-1.1 1.3-1.8 1.6-.1-.1-.2-.3-.3-.4.6-.2 1.2-.7 1.6-1.2H405v-.4h1.4v-2.2h-1.1V96h1.1v-.7h.5v.7h2.5v-.7h.5v.7h1v.4h-1v2.2h1.4v.4h-1.6zm-1.5 2h2.4v.4h-5.3v-.4h2.3v-.7h-1.4v-.4h1.4v-.6h.5v.6h1.5v.4h-1.5v.7zm-1.5-4.6v.5h2.5v-.5h-2.5zm0 1.3h2.5v-.5h-2.5v.5zm0 .9h2.5v-.5h-2.5v.5zm7.8-1c-.5 0-1 .1-1.4.1-.1.6-.3 1.3-.8 1.8l-.3-.3c.4-.4.6-1 .7-1.5h-.6v-.4h.6v-1.5h.8c.1-.2.2-.4.2-.5l.5.1c-.1.2-.1.3-.2.4h1v1.4h.3v.4h-.3v1.2c0 .2 0 .4-.2.4-.2.1-.4.1-.8.1 0-.1-.1-.3-.1-.4h.6c.1 0 .1 0 .1-.1v-1.2zm3.1 3.4h.8v.4h-6.3v-.4h.8v-1.6h4.7v1.6zm-4.4-4v.2c.4 0 .9 0 1.4-.1V96h-1.4v1zm.5-.7c.2.2.3.5.4.7l-.3.1c-.1-.2-.2-.5-.4-.7l.3-.1zm-.3 4.7h.9v-1.2h-.9v1.2zm.6-3.2v1h-.4v-1h.4zm.8 2.1v1.2h.9v-1.2h-.9zm3.2-2.5c-.2.5-.5.9-.9 1.2.4.2.9.3 1.4.4-.1.1-.2.3-.3.4-.6-.1-1.1-.3-1.5-.5-.4.2-.8.4-1.3.5-.1-.1-.2-.3-.3-.4.4-.1.8-.2 1.2-.4-.3-.2-.5-.5-.7-.8l.3-.1h-.5v-.4c0-.1-.2-.3-.3-.3.5-.3.6-.6.6-1v-.5h1.8v1c0 .1 0 .1.1.1h.3c.1 0 .1 0 .1-.5.1.1.3.1.4.2 0 .6-.2.8-.5.8h-.4c-.4 0-.5-.1-.5-.5V96h-.9c0 .4-.1.9-.7 1.3h2.2l.4.1zm-1.9.3c.1.3.4.5.6.7.3-.2.5-.4.7-.7h-1.3zm.1 2.2v1.2h.9v-1.2h-.9zM124.1 14.3c.7 0 1.3.2 1.7.5.4.3.6.8.6 1.5v3.6h-1l-.3-.7c-.2.3-.5.5-.7.6-.3.1-.6.2-1.1.2-.5 0-.9-.1-1.2-.4-.3-.3-.5-.7-.5-1.3 0-.6.2-1 .6-1.3.4-.3 1-.4 1.8-.5h1v-.2c0-.3-.1-.5-.2-.6-.1-.1-.4-.2-.6-.2s-.5 0-.8.1c-.3.1-.5.2-.8.3l-.5-1c.3-.1.6-.3 1-.4.2-.2.6-.2 1-.2zm.8 3h-.6c-.5 0-.8.1-1 .3-.2.2-.3.4-.3.6 0 .2.1.4.2.5.1.1.3.1.5.1.3 0 .6-.1.8-.3.2-.2.3-.5.3-.8v-.4zm9.6-3c.6 0 1.1.2 1.4.5.3.3.5.8.5 1.5v3.6h-1.5v-3.2c0-.8-.3-1.2-.8-1.2-.4 0-.7.1-.8.4-.2.3-.2.7-.2 1.2v2.7h-1.5v-3.2c0-.8-.3-1.2-.8-1.2-.4 0-.7.2-.9.5-.2.3-.2.8-.2 1.3v2.6h-1.5v-5.5h1.1l.2.7h.1c.2-.3.4-.5.7-.6.3-.1.6-.2.9-.2.4 0 .7.1 1 .2.3.1.5.3.6.6h.1c.2-.3.4-.5.7-.6.3 0 .6-.1.9-.1zm6.7 0c.6 0 1.1.2 1.4.5.4.3.5.8.5 1.5v3.6h-1.5v-3.2c0-.4-.1-.7-.2-.9-.1-.2-.4-.3-.7-.3-.5 0-.8.2-.9.5-.2.3-.2.8-.2 1.3v2.6h-1.5v-5.5h1.1l.2.7h.1c.2-.3.4-.5.7-.6.4-.1.7-.2 1-.2zm4.4-2c.2 0 .4.1.6.2.2.1.2.3.2.6s-.1.5-.2.6c-.2.1-.4.2-.6.2-.2 0-.4-.1-.6-.2-.2-.1-.2-.3-.2-.6s.1-.5.2-.6c.2-.2.4-.2.6-.2zm.8 2.1v5.5h-1.5v-5.5h1.5zm8.2-.1c.6 0 1.1.2 1.4.5.3.3.5.8.5 1.5v3.6H155v-3.2c0-.8-.3-1.2-.8-1.2-.4 0-.7.1-.8.4-.2.3-.2.7-.2 1.2v2.7h-1.5v-3.2c0-.8-.3-1.2-.8-1.2-.4 0-.7.2-.9.5-.2.3-.2.8-.2 1.3v2.6h-1.5v-5.5h1.1l.2.7h.1c.2-.3.4-.5.7-.6.3-.1.6-.2.9-.2.4 0 .7.1 1 .2.3.1.5.3.6.6h.1c.2-.3.4-.5.7-.6.2 0 .5-.1.9-.1zm8.5 2.8c0 .9-.2 1.6-.7 2.1-.5.5-1.1.7-1.9.7-.5 0-1-.1-1.4-.3-.4-.2-.7-.5-.9-1-.2-.4-.3-.9-.3-1.5 0-.9.2-1.6.7-2.1.5-.5 1.1-.7 1.9-.7.5 0 1 .1 1.4.3.4.2.7.5.9 1 .2.4.3.9.3 1.5zm-3.7 0c0 .5.1.9.3 1.2.2.3.5.4.9.4s.7-.1.9-.4c.2-.3.3-.7.3-1.2s-.1-.9-.3-1.2c-.2-.3-.5-.4-.9-.4s-.7.1-.9.4c-.3.3-.3.7-.3 1.2zm12.1 2.8l-1.7-5.6v5.6h-1.4v-7.1h2.1l1.7 5.5 1.8-5.5h2.1v7.1h-1.4v-5.6l-1.8 5.6h-1.4zm8.7-5.6c.8 0 1.4.2 1.8.6.4.4.7 1 .7 1.8v.7h-3.5c0 .4.1.8.4 1 .2.2.6.4 1 .4.3 0 .7 0 1-.1l.9-.3v1.2l-.9.3c-.3.1-.6.1-1.1.1-.5 0-1-.1-1.5-.3-.4-.2-.8-.5-1-.9-.2-.4-.4-.9-.4-1.6 0-.6.1-1.2.3-1.6.2-.4.5-.7.9-1 .5-.2.9-.3 1.4-.3zm0 1.1c-.3 0-.5.1-.7.3-.2.2-.3.5-.3.9h2.1c0-.3-.1-.6-.3-.8-.1-.3-.4-.4-.8-.4zm6.1-1.1c.7 0 1.3.2 1.7.5.4.3.6.8.6 1.5v3.6h-1l-.3-.7c-.2.3-.5.5-.7.6-.3.1-.6.2-1.1.2-.5 0-.9-.1-1.2-.4-.3-.3-.5-.7-.5-1.3 0-.6.2-1 .6-1.3.4-.3 1-.4 1.8-.5h1v-.2c0-.3-.1-.5-.2-.6-.1-.1-.4-.2-.6-.2s-.5 0-.8.1c-.3.1-.5.2-.8.3l-.5-1c.3-.1.6-.3 1-.4.3-.2.6-.2 1-.2zm.8 3h-.6c-.5 0-.8.1-1 .3-.2.2-.3.4-.3.6 0 .2.1.4.2.5.1.1.3.1.5.1.3 0 .6-.1.8-.3.2-.2.3-.5.3-.8v-.4zm7 .9c0 .6-.2 1-.6 1.3-.4.3-1 .4-1.7.4-.4 0-.7 0-1-.1-.3-.1-.5-.1-.8-.2v-1.2c.3.1.6.2 1 .3.3.1.6.1.9.1.3 0 .5 0 .6-.1.1-.1.2-.2.2-.3 0-.1 0-.2-.1-.2 0-.1-.2-.2-.3-.2l-.8-.4c-.3-.1-.6-.3-.8-.4-.2-.1-.4-.3-.5-.5-.1-.2-.2-.5-.2-.8 0-.5.2-.9.6-1.1.4-.3.9-.4 1.6-.4.3 0 .7 0 1 .1l.9.3-.4 1.1c-.3-.1-.5-.2-.8-.3-.2-.1-.5-.1-.7-.1-.4 0-.7.1-.7.4 0 .1 0 .2.1.2.1.1.2.1.3.2.2.1.4.2.7.3.3.1.6.3.8.4.2.1.4.3.5.5.2.1.2.4.2.7zm6.4-3.8v5.5h-1.1l-.2-.7h-.1c-.2.3-.4.5-.7.6-.3.1-.6.2-1 .2-.6 0-1.1-.2-1.4-.5-.4-.3-.5-.8-.5-1.5v-3.6h1.5v3.2c0 .4.1.7.2.9.1.2.4.3.7.3.5 0 .8-.2.9-.5.2-.3.2-.8.2-1.3v-2.6h1.5zm4.8-.1h.5l-.1 1.4h-.4c-.3 0-.5 0-.7.1-.2.1-.4.2-.6.4-.1.2-.2.5-.2.8v2.8h-1.5v-5.5h1.1l.2.9h.1c.2-.3.4-.5.7-.7.2-.1.6-.2.9-.2zm4 0c.8 0 1.4.2 1.8.6s.7 1 .7 1.8v.7h-3.5c0 .4.1.8.4 1 .2.2.6.4 1 .4.3 0 .7 0 1-.1l.9-.3v1.2l-.9.3c-.3.1-.6.1-1.1.1-.5 0-1-.1-1.5-.3-.4-.2-.8-.5-1-.9-.2-.4-.4-.9-.4-1.6 0-.6.1-1.2.3-1.6.2-.4.5-.7.9-1 .4-.2.9-.3 1.4-.3zm0 1.1c-.3 0-.5.1-.7.3-.2.2-.3.5-.3.9h2.1c0-.3-.1-.6-.3-.8-.2-.3-.5-.4-.8-.4zm10.2-1.1c.6 0 1.1.2 1.4.5.3.3.5.8.5 1.5v3.6h-1.5v-3.2c0-.8-.3-1.2-.8-1.2-.4 0-.7.1-.8.4-.2.3-.2.7-.2 1.2v2.7h-1.5v-3.2c0-.8-.3-1.2-.8-1.2-.4 0-.7.2-.9.5-.2.3-.2.8-.2 1.3v2.6h-1.5v-5.5h1.1l.2.7h.1c.2-.3.4-.5.7-.6.3-.1.6-.2.9-.2.4 0 .7.1 1 .2.3.1.5.3.6.6h.1c.2-.3.4-.5.7-.6.3 0 .6-.1.9-.1zm5.9 0c.8 0 1.4.2 1.8.6s.7 1 .7 1.8v.7h-3.5c0 .4.1.8.4 1 .2.2.6.4 1 .4.3 0 .7 0 1-.1l.9-.3v1.2l-.9.3c-.3.1-.8.1-1.2.1-.5 0-1-.1-1.5-.3-.4-.2-.8-.5-1-.9-.2-.4-.4-.9-.4-1.6 0-.6.1-1.2.3-1.6.2-.4.5-.7.9-1 .5-.2 1-.3 1.5-.3zm0 1.1c-.3 0-.5.1-.7.3-.2.2-.3.5-.3.9h2.1c0-.3-.1-.6-.3-.8s-.4-.4-.8-.4zm7-1.1c.6 0 1.1.2 1.4.5.4.3.5.8.5 1.5v3.6h-1.5v-3.2c0-.4-.1-.7-.2-.9-.1-.2-.4-.3-.7-.3-.5 0-.8.2-.9.5-.2.3-.2.8-.2 1.3v2.6h-1.5v-5.5h1.1l.2.7h.1c.2-.3.4-.5.7-.6.3-.1.6-.2 1-.2zm5.9 4.5h.5c.2 0 .3-.1.5-.1v1.1c-.2.1-.4.1-.6.2-.2 0-.5.1-.8.1-.3 0-.6-.1-.9-.2-.3-.1-.5-.3-.6-.6-.2-.3-.2-.6-.2-1.1v-2.6h-.7V15l.8-.5.4-1.2h1v1.2h1.5v1.1h-1.5v2.6c0 .2.1.4.2.5.1 0 .2.1.4.1zm8.3-4.5c.7 0 1.3.2 1.7.5.4.3.6.8.6 1.5v3.6h-1l-.3-.7c-.2.3-.5.5-.7.6-.3.1-.6.2-1.1.2-.5 0-.9-.1-1.2-.4-.3-.3-.5-.7-.5-1.3 0-.6.2-1 .6-1.3.4-.3 1-.4 1.8-.5h1v-.2c0-.3-.1-.5-.2-.6-.2-.1-.4-.2-.6-.2s-.5 0-.8.1c-.3.1-.5.2-.8.3l-.5-1c.3-.1.6-.3 1-.4.2-.2.6-.2 1-.2zm.8 3h-.6c-.5 0-.8.1-1 .3-.2.2-.3.4-.3.6 0 .2.1.4.2.5.1.1.3.1.5.1.3 0 .6-.1.8-.3.2-.2.3-.5.3-.8v-.4zm7 .9c0 .6-.2 1-.6 1.3-.4.3-1 .4-1.7.4-.4 0-.7 0-1-.1-.3-.1-.5-.1-.8-.2v-1.2c.3.1.6.2 1 .3.3.1.6.1.9.1.3 0 .5 0 .6-.1.1-.1.2-.2.2-.3 0-.1 0-.2-.1-.2 0-.1-.2-.2-.3-.2l-.8-.4c-.3-.1-.6-.3-.8-.4-.2-.1-.4-.3-.5-.5-.1-.2-.2-.5-.2-.8 0-.5.2-.9.6-1.1.4-.3.9-.4 1.6-.4.3 0 .7 0 1 .1l.9.3-.4 1.1c-.3-.1-.5-.2-.8-.3-.2-.1-.5-.1-.7-.1-.4 0-.7.1-.7.4 0 .1 0 .2.1.2.1.1.2.1.3.2.2.1.4.2.7.3.3.1.6.3.8.4.2.1.4.3.5.5.2.1.2.4.2.7zm7.4-3.9c.7 0 1.3.2 1.7.5.4.3.6.8.6 1.5v3.6h-1l-.3-.7c-.2.3-.5.5-.7.6-.3.1-.6.2-1.1.2-.5 0-.9-.1-1.2-.4-.3-.3-.5-.7-.5-1.3 0-.6.2-1 .6-1.3.4-.3 1-.4 1.8-.5h1v-.2c0-.3-.1-.5-.2-.6-.2-.1-.4-.2-.6-.2s-.5 0-.8.1c-.3.1-.5.2-.8.3l-.5-1c.3-.1.6-.3 1-.4.3-.2.6-.2 1-.2zm.8 3h-.6c-.5 0-.8.1-1 .3-.2.2-.3.4-.3.6 0 .2.1.4.2.5.1.1.3.1.5.1.3 0 .6-.1.8-.3.2-.2.3-.5.3-.8v-.4zm11.3.6c0 .6-.2 1.1-.7 1.5-.5.4-1.1.6-1.9.6-.8 0-1.4-.1-2-.4v-1.4c.3.1.7.3 1.1.4.4.1.7.2 1.1.2.4 0 .6-.1.8-.2.2-.1.2-.3.2-.5s-.1-.3-.2-.5c-.1-.1-.3-.2-.5-.4-.2-.1-.4-.2-.7-.4-.2-.1-.3-.2-.5-.3-.2-.1-.4-.2-.6-.4-.2-.2-.3-.4-.4-.6-.1-.2-.2-.5-.2-.8 0-.6.2-1.1.6-1.5.4-.4 1-.5 1.8-.5.4 0 .7 0 1.1.1.3.1.7.2 1.1.4l-.5 1.2-.9-.3c-.3-.1-.5-.1-.8-.1-.3 0-.5.1-.7.2-.2.1-.2.3-.2.5 0 .3.1.5.3.6l1 .5c.4.2.7.4.9.5.3.2.5.4.6.7.2.2.2.5.2.9zm3.7-3.6c.8 0 1.4.2 1.8.6.4.4.7 1 .7 1.8v.7h-3.5c0 .4.1.8.4 1 .2.2.6.4 1 .4.3 0 .7 0 1-.1l.9-.3v1.2l-.9.3c-.3.1-.6.1-1.1.1-.5 0-1-.1-1.5-.3-.4-.2-.8-.5-1-.9-.2-.4-.4-.9-.4-1.6 0-.6.1-1.2.3-1.6.2-.4.5-.7.9-1 .4-.2.9-.3 1.4-.3zm0 1.1c-.3 0-.5.1-.7.3-.2.2-.3.5-.3.9h2.1c0-.3-.1-.6-.3-.8-.2-.3-.5-.4-.8-.4zm6.9-1.1h.5l-.1 1.4h-.4c-.3 0-.5 0-.7.1-.2.1-.4.2-.6.4-.1.2-.2.5-.2.8v2.8h-1.5v-5.5h1.1l.2.9h.1c.2-.3.4-.5.7-.7.2-.1.5-.2.9-.2zm3 5.6l-2.1-5.5h1.6l1 3.1c.1.2.1.4.1.6 0 .2.1.4.1.5 0-.4.1-.7.2-1.1l1-3.1h1.6l-2.1 5.5h-1.4zm5.3-7.6c.2 0 .4.1.6.2.2.1.2.3.2.6s-.1.5-.2.6c-.2.1-.4.2-.6.2-.2 0-.4-.1-.6-.2-.2-.1-.2-.3-.2-.6s.1-.5.2-.6c.2-.2.4-.2.6-.2zm.8 2.1v5.5h-1.5v-5.5h1.5zm3.9 5.6c-.8 0-1.4-.2-1.9-.7-.4-.4-.7-1.2-.7-2.1 0-.7.1-1.2.3-1.6.2-.4.5-.7.9-.9.4-.2.9-.3 1.4-.3.4 0 .7 0 1 .1.3.1.5.2.7.3l-.4 1.2c-.2-.1-.5-.2-.7-.2-.2-.1-.4-.1-.6-.1-.8 0-1.2.6-1.2 1.7 0 .5.1 1 .3 1.2.2.3.5.4.9.4.3 0 .6 0 .8-.1.2-.1.5-.2.7-.3v1.3c-.2.1-.5.3-.7.3s-.4-.2-.8-.2zm5.4-5.7c.8 0 1.3.2 1.8.6.4.4.7 1 .7 1.8v.7h-3.5c0 .4.1.8.4 1 .2.2.6.4 1 .4.3 0 .7 0 1-.1l.9-.3v1.2c-.3.1-.6.2-.8.3-.3.1-.7.1-1.1.1-.5 0-1-.1-1.5-.3-.4-.2-.8-.5-1-.9-.2-.4-.4-.9-.4-1.6 0-.6.1-1.2.3-1.6.2-.4.5-.7.9-1 .3-.2.8-.3 1.3-.3zm0 1.1c-.3 0-.5.1-.7.3-.2.2-.3.5-.3.9h2.1c0-.3-.1-.6-.3-.8-.2-.3-.4-.4-.8-.4zm-86.1 24.8c1.6-1.4 2.4-2.4 2.4-3.3 0-.6-.3-1-.9-1-.4 0-.8.3-1.1.6l-.4-.4c.4-.5.9-.8 1.5-.8.9 0 1.5.6 1.5 1.5 0 1-.8 2.1-2 3.2h2.2v.6h-3.2v-.4zm7.4-1h-.7v1.4h-.6v-1.4h-2.2v-.4l2.1-3.3h.7v3.2h.7v.5zm-1.3-.5v-2.5c-.1.3-.3.5-.4.8l-1.2 1.8h1.6zm4.5 1.1h-1.5v.6h-.5v-5.1h2v4.5zm-1.5-4.1v1.6h1v-1.6h-1zm1 3.6v-1.6h-1v1.6h1zm3.8-1.9v.8h.8v.5h-.8v1.9c0 .3-.1.4-.3.5-.2.1-.6.1-1.1.1 0-.1-.1-.4-.2-.5h.9c.1 0 .2 0 .2-.1v-1.9h-2.6v-.5h2.6v-.8h-2.7v-.5h1.8V36h-1.5v-.5h1.5v-.8h.5v.8h1.5v.5h-1.5v.9h1.8v.5h-.9zm-2.3 1.5c.4.3.7.8.9 1.2l-.4.3c-.2-.3-.5-.9-.9-1.2l.4-.3zm4.9-1.5v3.7h-.5V35h2.5v2.4h-2zm0-1.9v.5h1.5v-.6h-1.5zm1.5 1.5v-.6h-1.5v.6h1.5zm0 3.5v.4h-.5V38h2.6v2.5h-2.1zm0-2.1v.6h1.6v-.7h-1.6zm1.7 1.7v-.7h-1.6v.7h1.6zm2.1.4c0 .3-.1.5-.3.6-.2.1-.6.1-1.2.1 0-.1-.1-.4-.2-.5h1c.1 0 .2 0 .2-.2v-3H236v-2.4h2.6v5.4zm-2.1-5v.5h1.6v-.6h-1.6zm1.5 1.6v-.6h-1.6v.6h1.6zm8.2 3.4v.5h-6.3v-.5h.8v-1.7h4.8v1.7h.7zm-3.1-2.2h-3V35h2.9v.4h-1.2v.6h1v1.4h-1v.6h1.2v.3zm-2.5-2.9v.6h.8v-.5h-.8zm1.8.9h-1.9v.6h1.9v-.6zm-1.8 1.6h.8v-.6h-.8v.6zm.5 2.6h.9v-1.3h-.9v1.3zm1.4-1.3v1.3h1v-1.3h-1zm1.4-2.9c-.2.4-.4.7-.6.9-.1-.1-.3-.2-.4-.3.4-.5.8-1.3 1-2.1l.5.1-.3.9h2v.5h-2.2zm-.3 1.7v-.4h2.4v.4h-2.4zm.4 1.2v1.3h1v-1.3h-1zm5.7-.1c-.2-.2-.5-.6-.8-.9v3h-.5v-2.7c-.3.3-.7.6-1 .9 0-.1-.2-.4-.3-.5.8-.5 1.6-1.4 2.1-2.3h-1.8v-.5h1v-1.3h.5v1.3h.7l.3.2c-.2.5-.5 1-.8 1.5.3.3.9.8 1 1l-.4.3zm3.3 1.6c.2 0 .2-.1.2-.8.1.1.3.2.4.2 0 .9-.2 1.1-.6 1.1h-.7c-.5 0-.6-.1-.6-.6V39h-.6c-.1 1-.5 1.7-1.6 2.1-.1-.1-.2-.3-.3-.4 1-.3 1.3-.9 1.4-1.7h-.6v-3.9h2.9V39h-.8v1.4c0 .2 0 .2.2.2h.7zm-2.3-4.4h1.9v-.7h-1.9v.7zm0 1.1h1.9v-.7h-1.9v.7zm0 1.2h1.9v-.7h-1.9v.7zm-2.6 17c.1-.7-.1-1.6-.2-2.1-.1.1-.9 1.2-1.6 2.2l1.4 1.5c.3.4.6.4 1.2-.2.6-.5 1.1-1 1.5-1.6l.4.5c-.4.5-.9 1-1.5 1.6-1 .9-1.4.8-1.8.3l-1.4-1.6c-.4.6-.8 1.1-1 1.3l-.5-.4c.2-.2.6-.8 1.1-1.4l-.8-.9c-.1-.2-.3-.3-.5-.4l.5-.4c.1.2.3.4.4.5l.7.8c.7-1 1.5-2 1.6-2.2.1-.1.2-.2.2-.3h.5c0 .1 0 .2.1.3.2.6.3 1.7.3 2.5h-.6zm7.8-4.5c-.1.1-.3.2-.5.3-.3.2-.9.6-1.4 1 .4.6.8 1 .9 1.2.1.2.3.4.4.5l-.5.4c-.1-.2-.2-.4-.4-.6-.1-.1-.4-.6-.8-1.2-.7.5-1.3.9-1.6 1.1-.2.2-.4.3-.5.4l-.4-.5c.1-.1.4-.2.5-.3.3-.2.9-.6 1.6-1.1l-.8-1.2c-.6.4-1.1.7-1.3.9-.2.1-.3.2-.5.3l-.4-.5c.2-.1.3-.2.5-.3.2-.1.8-.5 1.3-.9-.2-.3-.4-.5-.4-.6-.1-.2-.2-.3-.3-.4l.5-.4c.1.1.2.3.3.4 0 .1.2.3.5.6.6-.4 1.1-.8 1.4-.9.2-.1.3-.2.4-.3l.4.5c-.1.1-.3.2-.4.3-.3.2-.8.5-1.4.9l.8 1.2c.6-.4 1.2-.8 1.4-1 .2-.2.4-.3.5-.4l.2.6zm5.8.8c.2 0 .4-.1.5-.1l.1.6c-.1 0-.4 0-.5.1l-3.8.5c-.2 0-.4.1-.6.1l-.1-.6c.2 0 .4 0 .6-.1l2.5-.4v-2.4l-2.2.4c-.2 0-.4.1-.6.1l-.1-.6h.6l2.1-.3c.1 0 .3-.1.3-.1l.5.1v2.7h.7zm2.8-4.5c0 .1-.1.3-.1.5l-.2 2.3v.5l-.6-.1c0-.1.1-.3.1-.5l.2-2.3v-.5l.6.1zm3.2.3c0 .2-.1.4-.1.6l-.1 1.1c-.2 1.7-.4 2.2-1 2.8-.5.5-1.2.7-1.8.9l-.4-.5c.7-.1 1.3-.3 1.8-.8.6-.5.7-1.1.8-2.4l.1-1.1v-.6h.7zm6.7 4.5c.1.1.4.1.5.2l-.2.5c-.1-.1-.3-.2-.5-.2l-1.8-.7c-.3.7-.6 1.2-1.1 1.6-.4.3-1.1.6-1.8.7l-.3-.5c.6 0 1.2-.2 1.6-.5.5-.3.8-.9 1-1.5l-1.9-.8c-.2-.1-.4-.2-.6-.2l.2-.5.6.3 4.3 1.6zm-3-2.6c-.2-.1-.4-.2-.6-.2l.2-.5.6.3 2.6 1.1c.2.1.4.2.6.2l-.2.5-.6-.3-2.6-1.1zm8.5 6.2c-.5.1-1.3.1-2 0l-1.5 2c-.1.2-.3.4-.3.5l-.5-.4c.1-.1.3-.3.4-.5l1.3-1.7c-.7-.1-1.6-.3-2.3-.6l.1-.6c.8.4 1.8.6 2.5.7.8.1 1.8.1 2.3 0v.6z" fill="#fff"/><path class="st4" d="M49.7 173.8c1.4.6 3.1 1.5 3.9 2.2l-1 1.5c-.8-.7-2.5-1.8-3.9-2.4l1-1.3zm2.8 6.5l1.4.9c-.9 2.5-2.1 5.4-3.1 7.6l-1.6-1c.9-1.8 2.3-4.9 3.3-7.5zm-1.8-12.8c1.3.6 3 1.6 3.8 2.4l-1.1 1.4c-.8-.8-2.4-1.9-3.8-2.6l1.1-1.2zm7.1 16.7c-.8 1.8-2.2 3.8-3.5 5-.3-.3-1-.7-1.4-1 1.3-1.1 2.5-2.8 3.2-4.4l1.7.4zm4.3-15.9v15h-6.9v-15h6.9zm-5.4 4.5h3.8v-2.9h-3.8v2.9zm0 4.4h3.8v-3h-3.8v3zm0 4.5h3.8v-3h-3.8v3zm4.1 2c1 1.1 2.2 2.7 2.7 3.7l-1.4.9c-.5-1-1.7-2.6-2.7-3.8l1.4-.8zm4.7-14v13.6h-1.6v-13.6h1.6zm4.2-2.5v19.7c0 1.1-.3 1.6-.9 1.9-.7.3-1.8.3-3.8.3-.1-.5-.3-1.2-.5-1.7h3c.4 0 .6-.1.6-.5v-19.7h1.6zm21.3 3.4c-.4.3-1 .6-1.3.9-1.2.9-4.4 3.7-6.2 5.2 1.1-.4 2.2-.5 3.2-.5 4 0 6.8 2.4 6.8 5.6 0 3.8-3.2 6.3-8.2 6.3-3.2 0-5.2-1.4-5.2-3.4 0-1.6 1.5-3.1 3.7-3.1 3 0 4.6 2 4.9 4.2 1.9-.7 3-2.1 3-4 0-2.3-2.4-4-5.4-4-3.9 0-6.1 1.7-9.1 4.7l-1.4-1.4c2-1.6 5-4.2 6.4-5.3 1.3-1.1 4.3-3.6 5.4-4.7-1.2 0-5.9.3-7.2.3-.6 0-1.1 0-1.6.1v-2c.5.1 1.2.1 1.7.1 1.2 0 6.9-.2 8.1-.3.7-.1 1-.1 1.3-.2l1.1 1.5zm-4.1 15.7c-.2-1.9-1.3-3.2-3.1-3.2-1.1 0-1.9.6-1.9 1.5 0 1.2 1.4 1.8 3.1 1.8.7.1 1.3 0 1.9-.1zm102.9-12.2c2-.6 6.7-2.4 10.2-2.4 3.9 0 7.1 2.3 7.1 6.3 0 5.7-5.7 8.5-13 8.9l-.8-2c6.2-.2 11.7-2 11.7-6.9 0-2.5-1.8-4.4-5-4.4-3.9 0-10 2.6-11.8 3.4l-.9-2.1c.7-.3 1.6-.6 2.5-.8zm33.9-1.2c-1.2.4-2.7.7-4.3.9-1.2 3.4-3.3 7.5-5.2 10.1l-1.9-1c2-2.3 4-6.1 5.1-8.9-.7 0-1.4.1-2.1.1-.9 0-1.9 0-2.8-.1l-.1-1.8c.9.1 1.9.2 2.9.2.8 0 1.7 0 2.6-.1.4-1.3.7-2.8.7-4.1l2.1.2c-.2.9-.6 2.3-.9 3.7 1.2-.2 2.5-.5 3.7-.9l.2 1.7zm2.8 2.7c-.1 1 0 1.7 0 2.6 0 .9.1 2.4.2 3.9 2 .7 3.7 1.9 4.9 3l-1 1.6c-1-.9-2.3-2-3.8-2.7v1c0 1.9-1.2 3.5-4.2 3.5-2.6 0-4.8-1.1-4.8-3.4 0-2.2 2.1-3.6 4.8-3.6.8 0 1.6.1 2.3.2-.1-1.9-.2-4.3-.2-5.9h1.8zm-1.6 7.7c-.7-.2-1.6-.3-2.4-.3-1.8 0-2.9.8-2.9 1.9 0 1.1.9 1.8 2.7 1.8 1.9 0 2.6-1.1 2.6-2.3v-1.1zm6.3-7c-1.3-1.1-3.8-2.5-5.4-3.3l.9-1.5c1.7.8 4.4 2.3 5.6 3.2l-1.1 1.6zm10.1-6.7c-.1.4-.3 1.1-.4 1.5-.8 3.4-1.5 8.4-.7 12.3.3-1 .8-2.4 1.2-3.6l1.1.6c-.6 1.7-1.3 4.1-1.5 5.3-.1.3-.1.8-.1 1.1 0 .2 0 .6.1.8l-1.7.2c-.5-1.5-1.2-4.6-1.2-7.5 0-3.9.6-7.3.9-9.3.1-.5.1-1.2.1-1.6l2.2.2zm11.7-.3c-.1.5-.1.9-.1 1.4v3.5c1.5-.1 3-.3 4.2-.6v2c-1.2.2-2.6.3-4.1.4v.7c0 5.5 0 9.4-5 12.3l-1.8-1.4c.7-.3 1.7-.9 2.3-1.5 2.5-2.2 2.7-4.9 2.7-9.5v-.6h-2.7c-1.1 0-2.8-.1-3.8-.1V174c1 .1 2.5.3 3.8.3h2.7c0-1.5-.1-3-.1-3.6 0-.5-.1-1-.2-1.4h2.1zm2.2 3c-.4-1.1-.9-2.4-1.3-3.4l1.2-.4c.5.9 1.1 2.4 1.4 3.3l-1.3.5zm2.2-4.5c.5.9 1.1 2.4 1.4 3.3l-1.2.4c-.4-1.1-.9-2.4-1.4-3.3l1.2-.4zm20.4 2.8c-.4.3-1 .6-1.3.9-1.2.9-4.4 3.7-6.2 5.2 1.1-.4 2.2-.5 3.2-.5 4 0 6.8 2.4 6.8 5.6 0 3.8-3.2 6.3-8.2 6.3-3.2 0-5.2-1.4-5.2-3.4 0-1.6 1.5-3.1 3.7-3.1 3 0 4.6 2 4.9 4.2 1.9-.7 3-2.1 3-4 0-2.3-2.4-4-5.4-4-3.9 0-6.1 1.7-9.1 4.7l-1.4-1.4c2-1.6 5-4.2 6.4-5.3 1.3-1.1 4.3-3.6 5.4-4.7-1.2 0-5.9.3-7.2.3-.6 0-1.1 0-1.6.1v-2c.5.1 1.2.1 1.7.1 1.2 0 6.9-.2 8.1-.3.7-.1 1-.1 1.3-.2l1.1 1.5zm-4.1 15.7c-.2-1.9-1.3-3.2-3.1-3.2-1.1 0-1.9.6-1.9 1.5 0 1.2 1.4 1.8 3.1 1.8.7.1 1.3 0 1.9-.1zm78.7-8.4c-1-.7-3-1.8-4.4-2.6l1-1.3c1.4.7 3.4 1.8 4.4 2.4l-1 1.5zm-3.8 9.7c1.3-1.8 3.1-5 4.5-7.7l1.3 1.2c-1.2 2.5-2.9 5.5-4.3 7.7l-1.5-1.2zm5-16.2c-1-.7-3-1.8-4.4-2.6l1-1.3c1.5.7 3.5 1.8 4.5 2.5l-1.1 1.4zm9.6 4.5v3.9h5v9.1h-1.7v-.9H358v1h-1.6v-9.3h5.2v-3.9h-6.9v-1.7h6.9v-3.9c-1.8.3-3.6.5-5.3.6-.1-.4-.3-1.1-.5-1.5 4.1-.4 9-1.2 11.6-2.1l1.4 1.4c-1.6.5-3.5 1-5.6 1.3v4.2h6.6v1.7h-6.6zm3.3 5.6H358v4.9h8.5v-4.9zm27.6 5.2c0 1.2-.3 1.7-1.1 2-.8.3-2.2.3-4.5.3-.1-.5-.4-1.2-.6-1.7 1.7.1 3.3 0 3.7 0 .5 0 .6-.2.6-.6v-4.9h-6.5v7.1h-1.8v-7.1h-6c-.4 2.7-1.2 5.4-3 7.4-.3-.4-1-1-1.4-1.2 2.6-3 2.9-7.2 2.9-10.5v-8.6h17.5v17.8zm-10-6.6v-4h-5.7v1.4c0 .8 0 1.7-.1 2.6h5.8zm-5.8-9.5v3.8h5.7v-3.8h-5.7zm14 0h-6.5v3.8h6.5v-3.8zm0 9.5v-4h-6.5v4h6.5zm20.5-7v3.9c.5.8.8 1.9.8 3 0 3.2-1.6 6.8-7.1 8.4l-1.7-1.6c3.1-.7 5.3-2 6.3-4.1-.6.4-1.2.6-2 .6-2 0-3.9-1.4-3.9-4 0-2.4 1.9-4.2 4.2-4.2.6 0 1.1.1 1.6.3V173c-3.6 0-7.6.2-10.6.4v-1.9c2.6 0 7.1-.2 10.6-.2v-1.6c0-.5-.1-1.2-.1-1.5h2.2l-.1 1.5v1.5h7.4v1.8c-1.3-.1-3.5-.1-7-.1h-.6zm-1.2 5.2c-.4-1-1.2-1.5-2.1-1.5-1.2 0-2.4 1-2.4 2.5s1.1 2.4 2.4 2.4c1.4 0 2.3-1.2 2.1-3.4zm28.2-7.7c-.4.3-1 .6-1.3.9-1.2.9-4.4 3.7-6.2 5.2 1.1-.4 2.2-.5 3.2-.5 4 0 6.8 2.4 6.8 5.6 0 3.8-3.2 6.3-8.2 6.3-3.2 0-5.2-1.4-5.2-3.4 0-1.6 1.5-3.1 3.7-3.1 3 0 4.6 2 4.9 4.2 1.9-.7 3-2.1 3-4 0-2.3-2.4-4-5.4-4-3.9 0-6.1 1.7-9.1 4.7l-1.4-1.4c2-1.6 5-4.2 6.4-5.3 1.3-1.1 4.3-3.6 5.4-4.7-1.2 0-5.9.3-7.2.3-.6 0-1.1 0-1.6.1v-2c.5.1 1.2.1 1.7.1 1.2 0 6.9-.2 8.1-.3.7-.1 1-.1 1.3-.2l1.1 1.5zm-4.2 15.7c-.2-1.9-1.3-3.2-3.1-3.2-1.1 0-1.9.6-1.9 1.5 0 1.2 1.4 1.8 3.1 1.8.7.1 1.4 0 1.9-.1z"/></svg>