<svg id="レイヤー_1" data-name="レイヤー 1" xmlns="http://www.w3.org/2000/svg" viewBox="0 0 714.99 309.66"><defs><style>.cls-3{fill:#fff}.cls-5{fill:#6d7776}</style></defs><path d="M370.93 81.91a29.75 29.75 0 10-29.75-29.75 29.79 29.79 0 0029.75 29.75zm32.67 14.41h-.05l-8.49-2.6a2.64 2.64 0 00-3.25 1.62L374 144.3a3.22 3.22 0 01-6.06 0l-17.85-49a2.62 2.62 0 00-3.25-1.62l-8.48 2.6a26.35 26.35 0 00-18.09 25v51.81a2.65 2.65 0 00.43 1.45L339.29 203v101.28a2.64 2.64 0 002.63 2.64h58a2.64 2.64 0 002.64-2.64V203l18.64-28.4a2.65 2.65 0 00.43-1.45V121.2a26.17 26.17 0 00-18-24.88z" fill="#162789" stroke="#162789" stroke-linecap="round" stroke-linejoin="round" stroke-width="5.48"/><path d="M377.76 92.57a3.65 3.65 0 00-2.71-1.13h-7.58a3.68 3.68 0 00-2.71 1.13 3.51 3.51 0 00-.46 4.14l4.05 6.11-1.89 16 3.73 9.94a1.14 1.14 0 002.14 0l3.74-9.94-1.9-16 4.05-6.11a3.49 3.49 0 00-.46-4.14z" fill="#162789"/><rect class="cls-3" x=".5" y="149.93" width="556.36" height="32.47" rx="2.83"/><rect x=".5" y="149.93" width="556.36" height="32.47" rx="2.83" fill="none" stroke="#6d7776" stroke-miterlimit="10"/><path class="cls-5" d="M31.45 157.72a10.31 10.31 0 00-.39 1.44c-.47 3-1 6.71-3 9.77a18.63 18.63 0 01-9.93 7.42L15.86 174c3.7-1 7.58-3.2 9.7-6.5a19.59 19.59 0 002.44-8.34H14.37V164a18.07 18.07 0 00.08 1.89h-3c.05-.71.1-1.31.1-1.89v-5.58c0-.63 0-1.31-.1-1.94.73.06 1.78.08 3 .08h13a9.09 9.09 0 002-.16zm15.98 15.38a18.59 18.59 0 00.19 3.09h-3.25a30.37 30.37 0 00.15-3.09v-9.33a49.48 49.48 0 01-9.52 3.85l-1.49-2.54a41 41 0 0011.81-4.77 28.56 28.56 0 006.84-5.87l2.23 2a43.13 43.13 0 01-7 5.63zm22.32-6.42a28 28 0 005.32-6.29c-.79.16-4.95 1-9.12 1.81 1.29 4.61 2.73 9.88 3.2 11.45.16.55.52 1.62.73 2.23l-3.06.73a19.8 19.8 0 00-.53-2.36c-.42-1.47-1.88-7-3.09-11.47-2.85.57-5.32 1.1-6.21 1.31l-.73-2.81c1-.1 1.81-.18 2.78-.34l3.51-.63c-.42-1.52-.76-2.72-.95-3.32a10.4 10.4 0 00-.78-2.13l3-.68c.1.58.26 1.31.47 2.15s.6 2.1 1 3.46c4.32-.81 9.43-1.81 10.56-2.07a7.49 7.49 0 001.34-.39l1.81 1.33a44.9 44.9 0 01-6.61 9.28zm13.67 7.62a2.78 2.78 0 00.29-1.46v-14.65a15.75 15.75 0 00-.23-2.65h3.25a16.15 16.15 0 00-.24 2.62v14.34c4.72-1.26 10.66-4.67 14-8.81L102 166c-3.49 4.27-8.91 7.44-15.28 9.4a4.79 4.79 0 00-1.31.55zm39.25-16.71a8.35 8.35 0 00-.76 1.36 35.78 35.78 0 01-4.3 7.47 68.67 68.67 0 017.49 7.67l-2.33 2a56.5 56.5 0 00-6.91-7.65 33.79 33.79 0 01-10.09 7.56l-2.12-2.2a29.59 29.59 0 0010.77-7.68 21.51 21.51 0 004.16-6.92H109c-1 0-2.44.13-2.86.16v-3a27.59 27.59 0 002.86.18h9.72a7.89 7.89 0 002.28-.26zm17.55 15.82c0 1 .08 2.28.13 3.09h-3a26 26 0 00.19-3.09v-5.19a42.14 42.14 0 01-8.51 3.46l-1.6-2.43a32 32 0 0010.66-4.43 19.82 19.82 0 004.93-4.4h-10.24c-.95 0-2.49.05-3.3.1v-2.72c.89.1 2.35.16 3.25.16h4.87v-1.55a15.19 15.19 0 00-.16-2.36h3a20.54 20.54 0 00-.16 2.36V158h3.83a6.9 6.9 0 001.86-.21l1.72 1.65c-.55.57-1.23 1.28-1.7 1.83a35 35 0 01-5.76 5.32zM144 166a61.81 61.81 0 016.32 3.77l-1.77 2.23a44.65 44.65 0 00-6.29-4.09zm13.64 1.23l-2.49.92a55.59 55.59 0 00-2.38-6l2.46-.89c.6 1.23 1.91 4.55 2.41 5.97zm13.25-5.63a13.84 13.84 0 00-.49 1.57 21.12 21.12 0 01-3.67 7.88 20.43 20.43 0 01-8.62 6.34l-2.18-2.22a17.86 17.86 0 008.6-5.53 18.09 18.09 0 003.48-9zm-7.46 4l-2.46.9a49.08 49.08 0 00-2.1-5.77l2.46-.81c.47 1.08 1.76 4.53 2.1 5.68zm25.85 3.2a70.78 70.78 0 00-9.9-4.09v8.1a30.87 30.87 0 00.21 3.35h-3.22a27.5 27.5 0 00.21-3.35v-15.14a18.69 18.69 0 00-.24-2.94h3.22c-.07.87-.18 2-.18 2.94v4.08a89.55 89.55 0 0111.08 4.2zm25-11.08a9.16 9.16 0 00-.4 1.44c-.47 3-1 6.71-3 9.77a18.71 18.71 0 01-9.93 7.42l-2.26-2.35c3.69-1 7.57-3.2 9.69-6.5a19.45 19.45 0 002.44-8.38h-13.63V164a18.07 18.07 0 00.08 1.89h-3c.05-.71.1-1.31.1-1.89v-5.58c0-.63-.05-1.31-.1-1.94.73.06 1.78.08 3 .08h13.05a9.05 9.05 0 002-.16zm3.48 5.82c.84.07 2.46.15 3.87.15h14.23c1.28 0 2.31-.1 2.94-.15v3.22c-.58 0-1.76-.11-2.91-.11h-14.26c-1.46 0-3 .06-3.87.11zm45.82-4.67a9.06 9.06 0 00-.74 1.6 25.71 25.71 0 01-4.61 8.91 23.76 23.76 0 01-10.48 7.25l-2.43-2.17a21.17 21.17 0 0010.5-6.55 19.66 19.66 0 004-7.73h-8.17a27.18 27.18 0 01-6.66 6.39l-2.3-1.7a22.24 22.24 0 008.23-8.67 12.06 12.06 0 001-2.36l3 1c-.52.78-1.07 1.8-1.36 2.33a7 7 0 01-.36.65h6.28a6 6 0 002-.26zm11.34-4.56H277l-7.28 25.63h-2.1zm27.64 4.56a9.06 9.06 0 00-.74 1.6 25.71 25.71 0 01-4.61 8.91 23.76 23.76 0 01-10.48 7.25l-2.43-2.17a21.17 21.17 0 0010.5-6.55 19.66 19.66 0 004-7.73h-8.17a27.18 27.18 0 01-6.66 6.39l-2.3-1.7a22.24 22.24 0 008.23-8.67 12.06 12.06 0 001-2.36l3 1c-.52.78-1.07 1.8-1.36 2.33a7 7 0 01-.36.65h6.28a6 6 0 002-.26zm22.5 3.8a7.6 7.6 0 00-.39.89 18.73 18.73 0 01-3.86 7.36 19.24 19.24 0 01-9.38 5.58l-2-2.35a17.74 17.74 0 009.17-4.72 12.39 12.39 0 002.91-5.24h-13.38c-.62 0-1.78 0-2.77.11v-2.73c1 .1 2 .18 2.77.18h13.42a5.19 5.19 0 001.67-.23zm-17.32-7.2a27 27 0 002.49.13h10.22c.84 0 1.91-.06 2.57-.13v2.69c-.66 0-1.71-.07-2.6-.07h-10.19c-.81 0-1.76 0-2.49.07zm41.13 3.87a9.56 9.56 0 00-.44 1.79 24.6 24.6 0 01-2.52 7.67c-2 3.64-5.79 6.34-10.51 7.62l-2.14-2.48a16.44 16.44 0 003.14-.87 13.44 13.44 0 006.6-4.92 18.31 18.31 0 002.41-7.23h-13.94v4.29a11.71 11.71 0 00.11 1.73h-2.86c.06-.55.11-1.31.11-1.89v-4.58a19.06 19.06 0 00-.11-2.12 24.8 24.8 0 002.55.13H337v-2.25a11.93 11.93 0 00-.19-2.18H340a20.06 20.06 0 00-.15 2.18v2.25h5.29a5.73 5.73 0 002-.26zm8.54 2.78a84.83 84.83 0 0111.08 4.19l-1.15 2.83a72.69 72.69 0 00-9.93-4.06v8.1c0 .81.08 2.38.19 3.35h-3.2a28 28 0 00.21-3.35V158a19.59 19.59 0 00-.23-2.93h3.22c-.08.86-.21 2-.21 2.93zm7.49-1.26a24.07 24.07 0 00-2.3-4l1.75-.76a33.25 33.25 0 012.39 4zm3.41-1.39a27.43 27.43 0 00-2.41-3.93l1.75-.81a31.73 31.73 0 012.44 3.88zm23.42.53a15.35 15.35 0 002.62-.16v2.78a25.15 25.15 0 00-2.6-.08h-2.49v.89c0 6.76-1.52 10.5-7.65 13.25l-2.22-2.09c4.9-1.81 7.2-4.06 7.2-11v-1h-6.92v3.93c0 1.07.08 2.17.11 2.54h-2.88c0-.37.13-1.47.13-2.54v-3.93h-2.57c-1.23 0-2.3 0-2.72.08v-2.81a21.35 21.35 0 002.72.19H377v-3c0-.91-.11-1.75-.13-2.09h2.93a14.23 14.23 0 00-.16 2.09v3h6.92v-3a18.52 18.52 0 00-.13-2.28h3a17.31 17.31 0 00-.16 2.28v3zm6.05 3.54c.83.07 2.46.15 3.87.15h14.23c1.28 0 2.31-.1 2.93-.15v3.22c-.57 0-1.75-.11-2.9-.11h-14.26c-1.46 0-3 .06-3.87.11zm30.22 7.78c0 1.25.55 1.57 1.78 1.83a22.9 22.9 0 003.28.18 43.08 43.08 0 009-.86v3a76.07 76.07 0 01-9.17.53 27.67 27.67 0 01-4.3-.27c-2.12-.39-3.32-1.44-3.32-3.64v-14.34a15.09 15.09 0 00-.19-2.36h3.07a16.4 16.4 0 00-.16 2.36v5.5a71.09 71.09 0 009.56-3.07 14.07 14.07 0 002.54-1.28l1.16 2.64c-.87.34-1.92.82-2.75 1.1A100 100 0 01428 166zm12.13-12.6a34.68 34.68 0 00-2.1-3.62l1.68-.71a37.14 37.14 0 012.12 3.59zm2.57-5.43a37 37 0 012.15 3.56l-1.71.74A23.7 23.7 0 00441 154zm22.56 4.3a9.18 9.18 0 00-.76 1.36 35.78 35.78 0 01-4.3 7.47 69.74 69.74 0 017.5 7.67l-2.34 2a56.5 56.5 0 00-6.91-7.65 33.79 33.79 0 01-10.09 7.56l-2.12-2.2a29.59 29.59 0 0010.76-7.67 21.51 21.51 0 004.16-6.92h-9.61c-1 0-2.44.13-2.86.16v-3a27.59 27.59 0 002.86.18h9.72a7.89 7.89 0 002.28-.26zm15.64 16.03a16 16 0 002.3-.36c3.33-.76 6.29-3.17 6.29-7.37a6.86 6.86 0 00-6.24-7.23 57.92 57.92 0 01-1.54 7.29c-1.57 5.29-3.72 8.25-6.32 8.25s-4.92-2.91-4.92-7.23c0-5.77 5.11-10.77 11.61-10.77 6.23 0 10.19 4.35 10.19 9.8s-3.49 9.19-9.83 10.09zm-1.84-8.22a35.65 35.65 0 001.42-6.68 8.68 8.68 0 00-7.39 8c0 3 1.34 4.35 2.38 4.35s2.39-1.67 3.59-5.67zm30.15 5.05c1.73 2.81 5 4.14 10.09 4.56a8.31 8.31 0 00-1.49 2.31c-5.08-.63-8.28-2.2-10.3-5.4-1.12 2.2-4 4.3-11 5.4a10.72 10.72 0 00-1.41-2c7.2-1.1 9.61-3 10.35-4.82h-9.7v-2.09h10v-1.73h2.49v1.73h10.4v2.09zm-13.8-6.34l4.63-.5V161h-3.79v-1.88H500V157h-4.16v-1.89H500v-1.91h2.28v1.91h3.93V157h-3.93v2.07h3.62V161h-3.62v2.34l4-.5.05 1.49c2.94-1.6 3.62-4.19 3.85-7.89h-3.4v-2.06h11.55v1c-.26 6.39-.52 8.8-1.2 9.64a2.2 2.2 0 01-1.68.86 22.49 22.49 0 01-2.85 0 5.33 5.33 0 00-.66-2.17c1 .1 2 .1 2.36.1a1 1 0 00.86-.31c.37-.5.63-2.33.84-7.08h-3.51c-.34 4.62-1.31 7.87-5.13 9.86a6.44 6.44 0 00-1.13-1.52c-3.83.55-7.78 1-10.64 1.41zm29.13 4.48a24.26 24.26 0 01-1.76 6.68 9.74 9.74 0 00-1.86-.91 19.7 19.7 0 001.55-6.14zm4.84-7a22 22 0 012.52 5.41l-1.86.89a14.19 14.19 0 00-.47-1.47l-1.94.13v10.8h-2.18v-10.7l-4.08.24-.21-2.15 1.83-.05c.5-.63 1-1.31 1.52-2.05a28.34 28.34 0 00-3.3-3.66l1.18-1.63.71.63a31.38 31.38 0 002.15-4.74l2.2.78c-1 1.79-2.05 3.86-3 5.27a14.57 14.57 0 011.28 1.52 49.11 49.11 0 002.65-4.56l2.07.89a81.14 81.14 0 01-5.21 7.44l3.48-.13a22.82 22.82 0 00-1.1-2.09zm.66 6.49a28.66 28.66 0 011.7 5l-1.94.68a28 28 0 00-1.59-5zm14.78-9.08c-.45 11.55-.79 15.64-1.89 17a2.8 2.8 0 01-2.31 1.21 25 25 0 01-4 0 5.47 5.47 0 00-.81-2.43c1.7.13 3.27.16 3.9.16a1.27 1.27 0 001.13-.45c.84-.84 1.25-4.72 1.6-14.33h-8a19.93 19.93 0 01-2.3 3.51 17.67 17.67 0 00-2.15-1.47 21.85 21.85 0 004.53-9l2.49.58a34.76 34.76 0 01-1.44 4h9.28zm-8.05 11.65a25.73 25.73 0 00-3.35-6l2-1a24.57 24.57 0 013.54 5.9z"/><rect class="cls-3" x="364.53" y="192.22" width="349.88" height="39.54" rx="3.24"/><rect x="364.53" y="192.22" width="349.88" height="39.54" rx="3.24" stroke-width="1.14" fill="none" stroke="#6d7776" stroke-miterlimit="10"/><path class="cls-5" d="M392.71 220.81a23.7 23.7 0 00.22 3.74H389c.09-.7.19-2.44.19-3.74v-11.27a60.49 60.49 0 01-11.47 4.66l-1.8-3.07a49.84 49.84 0 0014.28-5.77 34.39 34.39 0 008.26-7.09l2.69 2.44a52.5 52.5 0 01-8.45 6.81zm24.7-4.27a30.06 30.06 0 0011-11.94l1.93 3.45a32.59 32.59 0 01-11.11 11.47 34.86 34.86 0 01-12.13 4.71L405 221a32.81 32.81 0 0012.41-4.46zm-1.07-10.13l-2.5 2.56a73 73 0 00-7.92-6.71l2.31-2.47a64.38 64.38 0 018.11 6.62zm39.55 1.36a25.7 25.7 0 002.66-.16v3.26c-.73-.06-1.84-.09-2.66-.09h-8.14a19.64 19.64 0 01-2 8.45 15.44 15.44 0 01-6.3 5.89l-2.87-2.12a13.13 13.13 0 005.85-4.72 14.57 14.57 0 001.9-7.47h-9.15c-.95 0-2 0-2.88.09v-3.26a26.46 26.46 0 002.88.16zm-16.75-5c-1 0-2.22 0-3.1.09v-3.26a23.68 23.68 0 003.1.22h12.76a21.49 21.49 0 003.17-.22v3.26c-1-.06-2.19-.09-3.17-.09zm41.67.35a7.49 7.49 0 002.38-.32l2.6 1.58a10.69 10.69 0 00-.89 1.93 31.4 31.4 0 01-5.57 10.77 28.56 28.56 0 01-12.67 8.74l-2.94-2.63a25.33 25.33 0 0012.69-7.88 24 24 0 004.82-9.34h-9.91a33.05 33.05 0 01-8 7.72l-2.79-2.06a27 27 0 009.94-10.48 14.46 14.46 0 001.17-2.85l3.68 1.21c-.64 1-1.3 2.15-1.65 2.78-.16.29-.29.54-.48.83zm2.54-5.32a46 46 0 012.56 4.33l-2.09.89a36.09 36.09 0 00-2.5-4.37zm3.58-1.37a38.83 38.83 0 012.62 4.31l-2.05.92a31.87 31.87 0 00-2.6-4.37zm5.95 25.84a3.45 3.45 0 00.35-1.77v-17.7a18.68 18.68 0 00-.28-3.2h3.92a21.72 21.72 0 00-.28 3.17v17.32c5.7-1.52 12.89-5.64 16.88-10.64l1.8 2.78c-4.21 5.17-10.77 9-18.46 11.37a5.64 5.64 0 00-1.58.67zM519 209.26c1 .09 3 .19 4.69.19h17.19c1.55 0 2.79-.13 3.55-.19v3.89c-.7 0-2.12-.12-3.52-.12h-17.24c-1.78 0-3.64.06-4.69.12zm54.83-6.14a14.71 14.71 0 00-.89 2 33.79 33.79 0 01-4.5 9.09c1.18.76 2.25 1.45 3 2l-2.21 2.91c-.76-.63-1.81-1.39-3-2.21a30 30 0 01-12.06 8.2l-2.88-2.53a27 27 0 0012.19-7.51c-2.35-1.52-4.79-3-6.5-4l2.09-2.37c1.78.92 4.22 2.31 6.53 3.7a26.23 26.23 0 003.73-7.69h-10.04A35 35 0 01551 213l-2.73-2.06a28.47 28.47 0 0010.14-10.79 11.26 11.26 0 001.2-2.85l3.61 1.14c-.6.95-1.3 2.15-1.62 2.78l-.38.7h7.7a7.41 7.41 0 002.37-.35zm4.03 6.14c1 .09 3 .19 4.68.19h17.19c1.56 0 2.79-.13 3.55-.19v3.89c-.7 0-2.12-.12-3.51-.12h-17.23c-1.77 0-3.64.06-4.68.12zm42.97 12.19a18.15 18.15 0 002.78-.45c4-.91 7.6-3.83 7.6-8.89 0-4.56-2.72-8.14-7.53-8.74a73.7 73.7 0 01-1.87 8.8c-1.9 6.4-4.5 10-7.63 10s-5.95-3.51-5.95-8.73c0-7 6.17-13 14-13 7.54 0 12.32 5.26 12.32 11.84s-4.21 11.12-11.87 12.19zm-2.22-9.94a43.82 43.82 0 001.71-8.08c-5.64.92-8.93 5.83-8.93 9.69 0 3.61 1.62 5.26 2.88 5.26s2.88-2.03 4.34-6.87zm25.91 7.72c1.39 2.25 4 3.26 7.47 3.39 3.67.16 11.21.06 15.26-.22a15.65 15.65 0 00-.88 2.78c-3.74.16-10.61.23-14.35.1-4-.16-6.74-1.24-8.67-3.67-1.27 1.29-2.6 2.59-4.09 3.95l-1.49-2.78a47.42 47.42 0 004-3.3v-7.66h-3.61v-2.72h6.33zm-1.87-14.82a22.19 22.19 0 00-4.5-5.38l2.35-1.49a23.55 23.55 0 014.65 5.2zm24.1 12.51h-21v-2.25h5.42v-2.59h-4.47v-2.19h4.44v-2h2.78v2h4.47v-2h2.81v2h4.56v2.19h-4.56v2.59h5.55zm-14.13-17h-6.39v-2h8.89v5.67h-6v1.17c0 .64.16.73 1.08.73h3c.69 0 .82-.16.92-1.39a6 6 0 002.12.79c-.26 2.06-.95 2.63-2.73 2.63H650c-2.56 0-3.23-.57-3.23-2.73v-3.19h5.89zm2.22 18a24.58 24.58 0 01-6.3 4 15.18 15.18 0 00-2.15-1.8 20.75 20.75 0 005.85-3.08zm-.92-3.23h4.47v-2.59h-4.47zm8.93-14.78h-6.4v-2h9v5.67h-5.92v1.17c0 .64.16.73 1.14.73h3.2c.7 0 .86-.19.95-1.49a7.16 7.16 0 002.12.83c-.25 2.12-1 2.69-2.75 2.69h-3.86c-2.54 0-3.27-.57-3.27-2.76v-3.15h5.83zm.63 22.06a30.19 30.19 0 00-5.57-3.64l2.09-1.26a38.45 38.45 0 016.46 3.73zm22.21.3a33 33 0 004.46.29c1.36 0 6.68 0 8.49-.07a8.65 8.65 0 00-1.11 3H690c-6.2 0-10.76-1.05-13.64-6a16.24 16.24 0 01-4.47 6.59 15.83 15.83 0 00-2.44-2c3.49-2.59 5.1-7 5.77-12.57l3 .29a40.91 40.91 0 01-.76 4.15 9 9 0 005.16 5.57v-12.36h-7.32v-2.82h17.83v2.82h-7.47v4.66h9v2.75h-9zm-11.81-14.75H671v-7.29h11.58v-3.38h3.14v3.38h11.71v7.29h-3V203h-20.55z"/><rect class="cls-3" x="108.14" y="246.22" width="377.92" height="35.82" rx="3.02"/><rect x="108.14" y="246.22" width="377.92" height="35.82" rx="3.02" stroke-width="1.07" fill="none" stroke="#6d7776" stroke-miterlimit="10"/><path class="cls-5" d="M135 267a25.79 25.79 0 004.69-6.14c-.64.14-5.1 1-9.56 1.93v7.79c0 1.82.6 2.42 3.77 2.42a43.68 43.68 0 008.65-.85l-.11 3a64.29 64.29 0 01-8.62.57c-5.62 0-6.56-1.43-6.56-4.38v-8c-2.61.56-5 1-6.08 1.27l-.53-2.86c1.27-.17 3.78-.61 6.61-1.13v-4.38a18.51 18.51 0 00-.19-2.81h3.25a23.68 23.68 0 00-.19 2.81v3.83c4.38-.86 8.78-1.74 10-2a7.68 7.68 0 001.68-.55l2.06 1.59c-.22.33-.55.86-.77 1.27a39.44 39.44 0 01-5.67 8zm23.49 2a26.18 26.18 0 009.56-10.38l1.68 3a28.5 28.5 0 01-9.67 10 30.48 30.48 0 01-10.55 4.11l-1.85-2.84a28.62 28.62 0 0010.83-3.89zm-.94-8.81l-2.17 2.23a63.82 63.82 0 00-6.89-5.84l2-2.15a55.56 55.56 0 017.06 5.77zm34.66-1.28a15.43 15.43 0 002.75-.17v2.92c-.44-.06-1.43-.08-2.73-.08h-2.61v.93c0 7.11-1.6 11.05-8.05 13.94l-2.34-2.2c5.15-1.9 7.58-4.27 7.58-11.57v-1.1h-7.27v4.13c0 1.13.08 2.28.11 2.67h-3c0-.39.14-1.54.14-2.67v-4.13h-2.7c-1.3 0-2.43.05-2.87.08v-3a21.19 21.19 0 002.87.2h2.7v-3.17c0-1-.12-1.85-.14-2.21h3.08a16 16 0 00-.16 2.21v3.17h7.27v-3.2a20.11 20.11 0 00-.14-2.4h3.11a19.4 19.4 0 00-.16 2.4v3.2zm6.37 3.77c.88.08 2.58.16 4.07.16h15c1.35 0 2.42-.11 3.08-.16v3.39c-.6 0-1.84-.11-3.06-.11h-15c-1.54 0-3.17.05-4.07.11zm39.5-9.68h2.2l-7.65 26.94h-2.21zm27.71 5.66a18.88 18.88 0 002.7-.17v3c-.94-.09-2.07-.09-2.7-.09h-4.3c-.49 7.61-3.47 12.37-8.31 15.43l-3-2a8.36 8.36 0 002.39-1.37c2.81-2.12 5.46-5.62 5.9-12.07H252a22.71 22.71 0 01-4.52 5.84l-2.72-1.65a20.84 20.84 0 004.82-5.81 18.7 18.7 0 001.59-3.8 10.79 10.79 0 00.47-2.48l3.36.66c-.27.66-.58 1.49-.8 2.07s-.55 1.57-.9 2.45zm-.77-1.1a29.69 29.69 0 00-2.18-3.83l1.76-.75a38.72 38.72 0 012.24 3.78zm3.19-1.22a27.06 27.06 0 00-2.26-3.77l1.77-.74a32.34 32.34 0 012.28 3.74zm4.58 6.34c.88.08 2.59.16 4.08.16h14.95c1.35 0 2.43-.11 3.09-.16v3.39c-.61 0-1.85-.11-3.06-.11h-15c-1.54 0-3.17.05-4.08.11zm42.89 5.53a73.19 73.19 0 00-10.41-4.29v8.51a31.65 31.65 0 00.22 3.52h-3.39a28.3 28.3 0 00.22-3.52v-15.92a19.49 19.49 0 00-.25-3.09h3.39c-.08.91-.19 2.13-.19 3.09v4.3a94.19 94.19 0 0111.65 4.4zm26.64-9.94a10.45 10.45 0 00-.47 1.87 25.48 25.48 0 01-2.64 8.07c-2.12 3.83-6.09 6.67-11 8l-2.26-2.62a16.57 16.57 0 003.31-.91 14.13 14.13 0 006.94-5.17 19.14 19.14 0 002.53-7.61H324v4.52a13.09 13.09 0 00.11 1.82h-3c.06-.58.11-1.38.11-2v-4.82a21.39 21.39 0 00-.11-2.24 24.09 24.09 0 002.67.14h6V255a12.3 12.3 0 00-.2-2.28H333a20.23 20.23 0 00-.17 2.28v2.37h5.56a6.27 6.27 0 002.07-.27zm20.11 14.41a13.63 13.63 0 002-.17v2.87c-.58-.06-1.49-.09-2-.09H347.2c-.63 0-1.38 0-2.09.09v-2.87a19.58 19.58 0 002.09.17h6v-9.59h-4.71c-.52 0-1.46 0-2 .08v-2.75a18.91 18.91 0 002 .14h12.65a16.35 16.35 0 002-.14v2.75c-.64-.05-1.41-.08-2-.08h-5.07v9.59zm19.26.05a20.43 20.43 0 00.19 3.25h-3.41c.08-.6.16-2.12.16-3.25v-9.8a52.49 52.49 0 01-10 4l-1.57-2.67a43 43 0 0012.42-5 29.88 29.88 0 007.19-6.17l2.34 2.12a45.74 45.74 0 01-7.35 5.92zm21.38.55a15.83 15.83 0 002.42-.38c3.5-.8 6.61-3.34 6.61-7.74 0-4-2.37-7.08-6.55-7.6a62 62 0 01-1.63 7.65c-1.65 5.57-3.91 8.68-6.64 8.68s-5.17-3.06-5.17-7.6c0-6.06 5.37-11.32 12.2-11.32 6.55 0 10.71 4.57 10.71 10.3s-3.66 9.66-10.33 10.6zm-1.93-8.65a37.8 37.8 0 001.49-7 9.14 9.14 0 00-7.77 8.43c0 3.14 1.41 4.57 2.51 4.57s2.5-1.78 3.77-6zm22.54 6.72c1.21 2 3.47 2.84 6.5 2.95 3.19.14 9.75.06 13.27-.19a14 14 0 00-.77 2.42c-3.25.14-9.23.19-12.48.08-3.47-.13-5.86-1.07-7.54-3.19-1.1 1.13-2.26 2.26-3.56 3.44l-1.29-2.42a42.79 42.79 0 003.5-2.87v-6.66h-3.14v-2.37h5.51zm-1.63-12.88a19.64 19.64 0 00-3.91-4.69l2-1.29a20.72 20.72 0 014.05 4.52zm21 10.87h-18.33v-1.95h4.71v-2.26h-3.85v-1.9h3.85v-1.76h2.43v1.76h3.88v-1.76h2.45v1.76h4v1.9h-4v2.26H443zm-12.28-14.81h-5.57v-1.71h7.74v4.93h-5.18v1c0 .55.14.63.94.63h2.62c.6 0 .71-.14.8-1.21a5.3 5.3 0 001.84.69c-.22 1.79-.82 2.28-2.37 2.28h-3.14c-2.23 0-2.81-.49-2.81-2.36V256h5.13zm1.93 15.67a21.47 21.47 0 01-5.49 3.47 13.16 13.16 0 00-1.87-1.57 18.23 18.23 0 005.1-2.67zm-.8-2.81h3.88v-2.26h-3.88zm7.76-12.86h-5.56v-1.71h7.79v4.93h-5.19v1c0 .55.14.63 1 .63h2.78c.6 0 .74-.16.82-1.29a6.25 6.25 0 001.85.71c-.22 1.85-.85 2.34-2.4 2.34h-3.36c-2.2 0-2.83-.49-2.83-2.39V256h5.06zm.55 19.19a25.84 25.84 0 00-4.84-3.16l1.81-1.11a33.41 33.41 0 015.62 3.25zm15.64-7.6l-3.74.91v7.16c0 1.38-.31 2.07-1.16 2.48a11.75 11.75 0 01-4.21.44 8 8 0 00-.75-2.37c1.35.06 2.67.06 3.09 0s.55-.14.55-.58v-6.58c-1.32.33-2.56.6-3.66.85l-.61-2.48c1.21-.22 2.67-.52 4.27-.85v-5.48h-3.86v-2.37h3.86v-5.43h2.48v5.43h3.55v2.37h-3.55v4.93c1.15-.25 2.36-.52 3.52-.8zm8.95-1.4c1.05 4.6 3.06 8.48 6.53 10.21a9.8 9.8 0 00-1.79 2.26c-4-2.28-6.11-6.77-7.27-12.47h-2.86c-.2 4.16-1.08 9.14-4.25 12.42a9.73 9.73 0 00-2-1.74c3.39-3.52 3.69-8.7 3.69-12.72v-9.28h13v11.32zm-5.34-8.9v6.5h7.85v-6.5z"/><rect class="cls-3" x="96.28" y="83.16" width="252.39" height="31.86" rx="2.61"/><rect x="96.28" y="83.16" width="252.39" height="31.86" rx="2.61" stroke-width=".92" fill="none" stroke="#6d7776" stroke-miterlimit="10"/><path class="cls-5" d="M116.08 100.63a20.89 20.89 0 003.78-4.95l-7.71 1.55v6.29c0 1.46.48 2 3 2a34.86 34.86 0 007-.69l-.09 2.4a51.15 51.15 0 01-7 .47c-4.53 0-5.28-1.15-5.28-3.53V97.7c-2.12.44-4 .82-4.91 1l-.43-2.31c1-.13 3-.49 5.34-.91V92a15.26 15.26 0 00-.16-2.27h2.62a19 19 0 00-.15 2.27v3.08c3.53-.69 7.08-1.4 8-1.62a5.77 5.77 0 001.35-.44l1.67 1.29a11.42 11.42 0 00-.62 1 32 32 0 01-4.58 6.46zm27.86-.4c-.51 0-1.31.2-2.16.33l-5.17.83c.4 2 .71 3.66.84 4.26s.36 1.42.58 2.09l-2.56.44c-.11-.77-.17-1.48-.31-2.15s-.42-2.22-.8-4.29c-2.42.4-4.66.78-5.71 1s-1.57.29-2.06.42l-.51-2.38c.55 0 1.48-.13 2.11-.22 1.08-.15 3.35-.51 5.75-.89l-.78-4.09-4.66.78c-.76.14-1.34.27-1.91.4l-.47-2.44c.62 0 1.24-.09 1.93-.16s2.67-.35 4.69-.66c-.22-1.11-.38-1.91-.44-2.23a13.47 13.47 0 00-.45-1.6l2.49-.39c.07.42.13 1.11.24 1.59 0 .27.2 1.12.43 2.27 2-.33 3.91-.64 4.77-.82.69-.13 1.38-.29 1.83-.42l.42 2.33c-.4 0-1.16.15-1.78.24l-4.84.76.77 4.07c2.16-.36 4.14-.69 5.2-.89.85-.18 1.58-.34 2.09-.49zm16.86 4.67c.51 0 1.42-.05 1.93-.09v2.26h-15.89v-2.29a17.21 17.21 0 002 .12h7.69c.31-1.89.89-5.71.95-7h-6.6c-.66 0-1.37 0-2 .07V95.7c.55.06 1.4.11 1.95.11h6.31a4.5 4.5 0 001.33-.18l1.69.82c-.06.25-.13.58-.18.8-.17 1.42-.79 5.58-1.11 7.65zm9.04-14.71c0 .46-.09 1-.09 1.64v7.45c0 .57.05 1.35.09 1.79h-2.6c0-.37.11-1.15.11-1.79v-7.45c0-.4 0-1.18-.09-1.64zm10.27-.19c-.05.58-.09 1.24-.09 2v4c0 5.09-.8 7-2.45 8.84a12.2 12.2 0 01-5.31 3.24l-1.84-1.93a10.31 10.31 0 005.38-2.91c1.55-1.75 1.84-3.49 1.84-7.37v-3.82a18.75 18.75 0 00-.13-2zM200 96.08a18.25 18.25 0 001.9-.08v2.29c-.51 0-1.29-.06-1.87-.06h-5.71a13.76 13.76 0 01-1.37 5.93 10.84 10.84 0 01-4.42 4.13l-2.05-1.51a9.2 9.2 0 004.11-3.31 10.13 10.13 0 001.33-5.24h-6.42c-.66 0-1.4 0-2 .06V96a18.59 18.59 0 002 .12zm-11.75-3.54c-.73 0-1.55 0-2.18.07v-2.29a16.93 16.93 0 002.18.16h8.95a15.41 15.41 0 002.23-.16v2.29c-.71 0-1.54-.07-2.23-.07zM217.43 95a27.84 27.84 0 01-5 4v7.67a14 14 0 00.11 2.13h-2.58c.05-.38.11-1.42.11-2.13v-6.31a36.86 36.86 0 01-6.68 2.64l-1.18-2a29 29 0 007.79-3 22.27 22.27 0 005.71-4.58zm11.24 10.67a10.92 10.92 0 002-.31c2.83-.64 5.34-2.69 5.34-6.24a5.81 5.81 0 00-5.34-6.12 50.08 50.08 0 01-1.31 6.17c-1.33 4.49-3.16 7-5.36 7s-4.17-2.46-4.17-6.13c0-4.89 4.33-9.13 9.84-9.13 5.29 0 8.64 3.69 8.64 8.31s-2.95 7.8-8.33 8.55zm-1.56-7a30.16 30.16 0 001.2-5.67 7.38 7.38 0 00-6.26 6.8c0 2.53 1.13 3.69 2 3.69s2.04-1.39 3.06-4.79zm34 9.2h-8.78v.91h-2V98.67c-.29.27-.58.52-.86.74a10.5 10.5 0 00-1.12-1.27v8h-4.15v1.73h-1.69v-6.4a12 12 0 01-1 1.67 14.37 14.37 0 00-1.16-2c1.6-2.27 2.49-5.73 3-9.46H241v-1.87h7.82v.73h4.49a21.79 21.79 0 00.65-2.17l2 .37a18.08 18.08 0 01-.55 1.8H261v3.87h-1.86V92.3h-4.38a20.15 20.15 0 01-1.64 3.09h2.31a16.76 16.76 0 00.91-2.47l1.91.42c-.31.69-.65 1.4-1 2h3.22v1.73h-3.62V99h3.22v1.56h-3.22v2h3.22v1.55h-3.22v2h4.25zM246.62 98h-2.4v6.27h2.4zm1.75-.4a14.12 14.12 0 004.25-5.33h-2.05v2.11h-1.75v-2.7h-3.47a45.2 45.2 0 01-.91 4.55h3.93zm6.58-.51h-2.62V99H255zm0 3.47h-2.62v2H255zm-2.62 5.57H255v-2h-2.62zM270 89.08a42.46 42.46 0 01-2.18 4.51v15.15h-2V96.59a22.67 22.67 0 01-2.06 2.46 12.12 12.12 0 00-1.17-2.05 23.62 23.62 0 005.42-8.5zm8.35 11.86a16.5 16.5 0 005.49 5.33 9.08 9.08 0 00-1.45 1.65 19.24 19.24 0 01-5.15-5.53v6.42h-2.07v-6.31a18 18 0 01-5.42 5.37 8.85 8.85 0 00-1.42-1.64 16.26 16.26 0 005.75-5.29h-5v-1.87h6.13v-2.42h-4.57v-7.24H282v7.24h-4.84v2.42h6v1.87zm-5.82-6.13H280v-3.58h-7.49zM289.79 96a2.58 2.58 0 11-2.58 2.58 2.57 2.57 0 012.58-2.58zm26.7 10.34v1.82h-20.06v-1.82h2.4v-5.24h15.33v5.24zm-9.75-6.6h-9.65V89.19h9.47v1.6H303v1.4h3.13v4.4H303v1.53h3.78zM299 90.79v1.4h2.29v-1.4zm5.4 2.78H299v1.64h5.4zm-5.4 4.55h2.29v-1.53H299zm1.78 8.22h2.49v-3.6h-2.49zm4.4-3.6v3.6h2.51v-3.6zm4.2-9.35a14.1 14.1 0 01-1.65 2.75 12.29 12.29 0 00-1.55-1.14 15.25 15.25 0 003-6.57l1.79.35a24.13 24.13 0 01-.84 2.82h6.11v1.76zm-1.18 5.48v-1.75h7.49v1.75zm1.38 3.87v3.6h2.55v-3.6zm16.66-.33a29.23 29.23 0 00-2.33-2.71v9.08h-2v-8.08a19.45 19.45 0 01-2.85 2.37 9.33 9.33 0 00-1-1.91 17.71 17.71 0 006.27-6.82h-5.47v-1.86h3.05v-4.09h2v4.09h1.44l.36-.07 1.15.76a21.25 21.25 0 01-2.49 4.59c1 .85 2.69 2.47 3.16 2.94zm10.55 4.44c.43 0 .52-.31.58-2.55a5.64 5.64 0 001.67.75c-.18 2.85-.67 3.53-2.05 3.53h-1.82c-1.71 0-2.09-.55-2.09-2.35v-4.33h-1.51c-.37 3.15-1.42 5.53-4.95 6.88a6 6 0 00-1.18-1.6c3-1 3.82-2.84 4.16-5.28H328V89.5h9.46v12.4H335v4.33c0 .53.07.62.51.62zm-6.88-13.73h5.57v-2h-5.57zm0 3.51h5.57v-1.95h-5.57zm0 3.58h5.57v-2h-5.57z"/><rect class="cls-3" x="372.05" y="41.68" width="258.06" height="25.38" rx="2.14"/><rect x="372.05" y="41.68" width="258.06" height="25.38" rx="2.14" stroke-width=".76" fill="none" stroke="#6d7776" stroke-miterlimit="10"/><path class="cls-5" d="M396.79 48.06a9.28 9.28 0 00-.67.85 20.17 20.17 0 01-4.95 5.57l-1.67-1.35a12.68 12.68 0 004.12-4.13h-11.09c-.78 0-1.49.06-2.36.12v-2.29a18.33 18.33 0 002.36.18h11.29a10.48 10.48 0 001.69-.14zm-8.16 2.68c0 5.27-.3 9.15-5.61 11.87l-1.86-1.51a7.75 7.75 0 001.94-1c2.89-1.86 3.35-4.4 3.35-7.75a9.1 9.1 0 00-.12-1.62zm24.91-1.63a7 7 0 00-.57 1.23 19.79 19.79 0 01-3.55 6.86 18.43 18.43 0 01-8.08 5.6l-1.87-1.68a16.28 16.28 0 008.09-5 15 15 0 003.07-6h-6.3A21 21 0 01399.2 55l-1.77-1.31a17.14 17.14 0 006.34-6.68 8.83 8.83 0 00.74-1.82l2.35.77c-.41.61-.83 1.39-1.05 1.8-.09.16-.19.34-.29.5h4.85a4.76 4.76 0 001.51-.2zm12.33 6.78a19.06 19.06 0 003.43-4.5l-7 1.41v5.72c0 1.33.45 1.77 2.77 1.77a32.31 32.31 0 006.34-.62l-.08 2.18a47.47 47.47 0 01-6.32.42c-4.12 0-4.8-1.05-4.8-3.21v-5.83l-4.47.92-.38-2.09c.93-.13 2.77-.45 4.85-.83V48a12.56 12.56 0 00-.15-2.06h2.39a17.36 17.36 0 00-.15 2.06v2.8c3.21-.62 6.44-1.27 7.31-1.47a5.37 5.37 0 001.23-.4l1.52 1.17a10.83 10.83 0 00-.57.93 28.86 28.86 0 01-4.16 5.87zm23.19-7.77a8 8 0 00-.59 1.05 27 27 0 01-3.31 5.75 54.28 54.28 0 015.78 5.92l-1.8 1.57a42.8 42.8 0 00-5.33-5.89 25.76 25.76 0 01-7.81 5.79l-1.64-1.7a22.69 22.69 0 008.3-5.91 16.48 16.48 0 003.21-5.33h-7.37c-.79 0-1.88.1-2.2.12v-2.28a21.83 21.83 0 002.2.14h7.5a6.23 6.23 0 001.76-.2zM465.79 62v-1.09h-9.57c-.83 0-1.84 0-2.42.08v-2.27c.58 0 1.47.1 2.34.1h9.67v-9h-9.41c-.78 0-1.81 0-2.34.06v-2.23c.71.07 1.68.13 2.34.13h11.61v12.09c0 .7 0 1.69.08 2.14zm14.57-4.66a19.2 19.2 0 007-7.61l1.23 2.2a20.84 20.84 0 01-7.09 7.31 22.18 22.18 0 01-7.73 3l-1.35-2.08a20.75 20.75 0 007.94-2.82zm-.69-6.46l-1.59 1.64a45.44 45.44 0 00-5.08-4.28l1.48-1.57a40.25 40.25 0 015.19 4.21zm22.57 5.88a54.32 54.32 0 00-7.63-3.15v6.24a23.79 23.79 0 00.16 2.58h-2.48a21.14 21.14 0 00.16-2.58V48.18a14.73 14.73 0 00-.18-2.26h2.48c-.06.67-.14 1.55-.14 2.26v3.15a70.33 70.33 0 018.54 3.23zm19.36 2.56v2.61h-2.2V60.8H509v1.13h-2.18V47.65c.79.05 1.43.05 1.94.05h12.86v1.74zM509 49.71v9.09h10.48v-9.09zm16.91 2.99c.65.06 1.9.12 3 .12h11c1 0 1.78-.08 2.26-.12v2.48c-.44 0-1.35-.08-2.24-.08h-11c-1.13 0-2.32 0-3 .08zm18.19 8.38a9.55 9.55 0 003.47-4.91c.58-1.79.58-5.73.58-8.05a6.4 6.4 0 00-.16-1.64h2.34a15.49 15.49 0 00-.1 1.62 44.65 44.65 0 01-.62 8.62 11.34 11.34 0 01-3.6 5.65zm9.28.18a5.87 5.87 0 00.14-1.27V48a15 15 0 00-.12-1.62h2.34a12.33 12.33 0 00-.1 1.62v11.2a14.16 14.16 0 005.49-4.64l1.22 1.74a21.25 21.25 0 01-6.87 5.57 4.67 4.67 0 00-.77.5zm18.81-.79a11.51 11.51 0 001.78-.28c2.56-.58 4.84-2.44 4.84-5.67A5.28 5.28 0 00574 49a46.55 46.55 0 01-1.19 5.61c-1.21 4.08-2.87 6.36-4.87 6.36s-3.79-2.24-3.79-5.57c0-4.45 3.93-8.3 8.94-8.3 4.81 0 7.85 3.35 7.85 7.55s-2.68 7.09-7.57 7.77zm-1.41-6.34a27.87 27.87 0 001.09-5.13 6.69 6.69 0 00-5.69 6.17c0 2.31 1 3.36 1.83 3.36s1.84-1.31 2.77-4.4zm30.8-6.37h-3.92a9.18 9.18 0 011 1.51l-1.75.52a9.75 9.75 0 00-1.28-2h-1.43a10.28 10.28 0 01-1 1.11v1.47h7.8v3.83h-1.84v-2.39h-13.45v2.39H584v-3.86h7.49v-1.47h.1c-.25-.13-.47-.25-.65-.33a8.54 8.54 0 001-.78h-3.14a11.11 11.11 0 01.73 1.49l-1.68.5a11.64 11.64 0 00-1-2h-.62a12.6 12.6 0 01-1.68 2 12 12 0 00-1.53-1 11.22 11.22 0 002.98-4.1l1.75.46c-.16.36-.34.75-.54 1.11h4.9v1.27a8.73 8.73 0 001.89-2.84l1.82.44c-.17.38-.37.77-.57 1.13h6.38zm-12.86 10.49h10.66v5h-1.88v-.59h-8.78v.63h-1.78V52.86h11v4.22h-9.27zm0-4v1.43h7.39v-1.42zm0 5.41v1.59h8.78v-1.58zm21.28-.48c-2.2.77-4.54 1.56-6.36 2.14l-.44-1.92c.73-.2 1.62-.44 2.58-.74v-5.13h-2.18v-1.74h2.18v-4h-2.38V46h6.42v1.74h-2.24v4h1.92v1.74h-1.92v4.56c.69-.22 1.41-.44 2.1-.68zm11.93 1.76v1.71H609v-1.71h5.86v-2.4h-4.38v-1.7h4.38v-2.08h-4.2v-9.08H621v9.08h-4.22v2.08h4.48v1.7h-4.48v2.4zm-9.52-11.49h2.64v-2.18h-2.64zm0 3.72h2.64V51h-2.64zm6.82-5.9h-2.58v2.18h2.58zm0 3.68h-2.58v2.22h2.58z"/><rect class="cls-3" x="413.31" y="84.75" width="235.2" height="49.98" rx="4.24"/><rect x="413.31" y="84.75" width="235.2" height="49.98" rx="4.24" stroke-width="1.5" fill="none" stroke="#6d7776" stroke-miterlimit="10"/><path class="cls-5" d="M439.07 120.09H431v3.27h-3.35v-29h11.45zM431 97.62v7.83h4.67v-7.83zm4.67 19.24v-8.22H431v8.22zm21.93-9.93v3.89h4.16V114h-4.16v9.58c0 1.87-.43 2.85-1.72 3.39s-3.34.58-6.38.58a13.47 13.47 0 00-1.17-3.38c2.18.07 4.32.07 4.91.07s.81-.19.81-.74V114h-14.2v-3.19H454v-3.89h-14.27v-3.2H449v-4.27h-7.79V96.3H449v-4.44h3.62v4.44h8v3.15h-8v4.28h9.47v3.2zM444.8 115a28.51 28.51 0 014.86 6.46l-3.07 1.87a29.32 29.32 0 00-4.71-6.66zm25.89-8v20.64h-3.58V93.45h14.37V107zm0-10.82v2.69h7.36v-2.69zm7.36 8.14v-2.88h-7.36v2.88zm21.22 18.81c0 2.06-.42 3.23-1.83 3.85s-3.5.62-6.77.62a16.3 16.3 0 00-1.13-3.54H479v2h-3.3v-16.37h14.6v14.25c1.91.08 3.78 0 4.4 0s.89-.23.89-.89v-16h-11.03v-13.6h14.71zM479 112.42v3h7.91v-3zm7.91 8.91v-3.23H479v3.23zM488 96.18v2.69h7.59v-2.69zm7.59 8.22v-3H488v3zm36.94-2.77c-1 .58-2.06 1.17-3.31 1.79a122 122 0 00-11.29 6.11c-3.43 2.22-5.57 4.64-5.57 7.44 0 3 2.84 4.75 8.61 4.75a62.84 62.84 0 0012.46-1.32v4.36a71.83 71.83 0 01-12.27 1c-7.44 0-12.93-2.18-12.93-8.33 0-4.09 2.61-7.24 6.54-10.05-1.75-3.27-3.69-7.59-5.49-11.72l3.86-1.55a89.66 89.66 0 005 11.09c3.39-2 7.21-3.93 9.19-5.06a21.67 21.67 0 003.12-2zm31.39 23.52v-2.1H545.5c-1.6 0-3.54.08-4.67.15v-4.4c1.13.08 2.84.2 4.51.2H564v-17.37h-18.19c-1.52 0-3.5.08-4.52.12v-4.29c1.37.12 3.24.24 4.52.24h19.35c1.06 0 2.42 0 3.12-.08 0 .86-.08 2.26-.08 3.27V121c0 1.37.08 3.27.16 4.13zm39.72-26.79a13.49 13.49 0 00-1.13 2 52.73 52.73 0 01-6.39 11.1 103.48 103.48 0 0111.14 11.41l-3.47 3a83.35 83.35 0 00-10.28-11.37 49.68 49.68 0 01-15 11.17l-3.15-3.27a43.54 43.54 0 0016-11.41 31.89 31.89 0 006.19-10.28h-14.28c-1.52 0-3.62.2-4.24.24v-4.4c.78.11 3 .27 4.24.27h14.45a12 12 0 003.39-.39zM634.68 115a103.87 103.87 0 00-14.68-6v12a44.35 44.35 0 00.31 5h-4.79a41.77 41.77 0 00.31-5V98.48a28.78 28.78 0 00-.35-4.37h4.79c-.12 1.29-.27 3-.27 4.37v6.07a134.8 134.8 0 0116.47 6.23z"/><rect class="cls-3" x="195.48" y=".43" width="185.9" height="28.22" rx="2.43"/><rect x="195.48" y=".43" width="185.9" height="28.22" rx="2.43" stroke-width=".86" fill="none" stroke="#6d7776" stroke-miterlimit="10"/><path class="cls-5" d="M214.44 15.77a19.59 19.59 0 003.56-4.66l-7.26 1.46v5.92c0 1.38.46 1.84 2.86 1.84a33 33 0 006.57-.65l-.08 2.26a48.83 48.83 0 01-6.55.44c-4.27 0-5-1.08-5-3.32V13c-2 .42-3.76.77-4.62 1l-.4-2.17c1-.13 2.87-.46 5-.86V7.61a14.85 14.85 0 00-.14-2.13h2.46a18.89 18.89 0 00-.14 2.13v2.91c3.32-.65 6.67-1.32 7.57-1.53a6 6 0 001.28-.41l1.57 1.21c-.17.25-.42.65-.59 1a29.92 29.92 0 01-4.31 6.09zm26.23-.37c-.48 0-1.23.18-2 .31l-4.87.77c.38 1.89.67 3.46.79 4s.34 1.34.55 2l-2.41.41c-.1-.73-.17-1.4-.29-2s-.4-2.1-.75-4c-2.28.37-4.4.73-5.38.92a18.32 18.32 0 00-1.95.4l-.48-2.24c.53 0 1.4-.13 2-.21l5.42-.84-.77-3.92-4.4.73c-.71.13-1.25.26-1.8.38l-.44-2.3c.59 0 1.18-.08 1.82-.15s2.51-.33 4.42-.62l-.42-2.1a10.77 10.77 0 00-.42-1.5l2.35-.38c.06.4.12 1.05.23 1.51 0 .25.18 1 .39 2.13 1.91-.31 3.68-.61 4.5-.77.65-.13 1.3-.27 1.72-.4l.39 2.2c-.37 0-1.08.14-1.67.23l-4.56.71.73 3.83c2-.34 3.89-.65 4.9-.84.79-.17 1.48-.31 2-.46zm15.88 4.39c.48 0 1.34 0 1.82-.08v2.13h-14.94v-2.16a15.36 15.36 0 001.88.11h7.24c.3-1.78.84-5.38.9-6.55h-6.21c-.63 0-1.3 0-1.86.06v-2.17c.52.06 1.32.1 1.84.1h5.94a4.32 4.32 0 001.25-.16l1.59.77c-.06.23-.12.54-.16.75-.17 1.34-.76 5.25-1.05 7.2zm8.51-13.85c0 .44-.08 1-.08 1.55v7c0 .54 0 1.27.08 1.69h-2.45c0-.35.11-1.09.11-1.69v-7c0-.38 0-1.11-.09-1.55zm9.67-.17c-.05.55-.09 1.17-.09 1.93v3.72c0 4.79-.75 6.57-2.3 8.33a11.57 11.57 0 01-5 3.05L265.6 21a9.72 9.72 0 005.07-2.74c1.46-1.65 1.73-3.28 1.73-6.94V7.7a17 17 0 00-.12-1.93zm18.76 5.71c.44 0 1.23 0 1.76-.1v2.15c-.48 0-1.22-.06-1.76-.06h-5.38a13.05 13.05 0 01-1.29 5.59 10.26 10.26 0 01-4.17 3.94l-1.92-1.42a8.69 8.69 0 003.87-3.12 9.64 9.64 0 001.25-4.94h-6c-.63 0-1.32 0-1.91.06v-2.2c.59.06 1.26.1 1.91.1zm-11.07-3.32c-.69 0-1.46 0-2.05.06V6.07a16.78 16.78 0 002.05.14h8.43a14.78 14.78 0 002.09-.14v2.15c-.66 0-1.44-.06-2.09-.06zm27.45 2.34a26.75 26.75 0 01-4.73 3.79v7.21a13.92 13.92 0 00.1 2h-2.42c0-.35.1-1.34.1-2v-5.94a34.15 34.15 0 01-6.3 2.49l-1.1-1.92a27.27 27.27 0 007.32-2.85A20.84 20.84 0 00308.21 9zm10.58 10.02a12.09 12.09 0 001.84-.29c2.66-.61 5-2.53 5-5.88a5.47 5.47 0 00-5-5.77 47.52 47.52 0 01-1.23 5.81c-1.26 4.23-3 6.59-5 6.59s-3.94-2.32-3.94-5.77c0-4.6 4.08-8.6 9.27-8.6 5 0 8.14 3.47 8.14 7.82s-2.78 7.35-7.85 8.06zM319 14a28.93 28.93 0 001.13-5.33 6.93 6.93 0 00-5.9 6.4c0 2.38 1.06 3.47 1.9 3.47S318 17.15 319 14zm31.91-6.66h-4.06a10.29 10.29 0 011 1.57l-1.85.54a10.17 10.17 0 00-1.31-2.11h-1.49a10.18 10.18 0 01-1 1.15V10h8.05v4h-1.9v-2.45h-13.88V14h-1.83v-4h7.77V8.49h.1c-.25-.12-.48-.25-.67-.33a8.35 8.35 0 001-.82h-3.15a12.47 12.47 0 01.75 1.55l-1.74.52a12.07 12.07 0 00-1-2.07h-.65a12.23 12.23 0 01-1.74 2.11 12.21 12.21 0 00-1.59-1.06 11.52 11.52 0 003-4.27l1.82.48c-.17.38-.36.78-.57 1.15h5.09v1.32A9.38 9.38 0 00343 4.12l1.88.46a9.79 9.79 0 01-.58 1.17h6.61zm-13.33 10.88h11.05v5.21h-1.95v-.61h-9.1v.65h-1.84V12.63h11.44V17h-9.6zm0-4.14v1.48h7.66v-1.48zm0 5.6v1.66h9.1v-1.66zm22.07-.5c-2.28.8-4.71 1.61-6.59 2.22l-.46-2c.75-.21 1.67-.46 2.68-.77v-5.31H353v-1.79h2.26V7.36h-2.47v-1.8h6.65v1.8h-2.32v4.17h2v1.79h-2v4.73c.71-.23 1.46-.46 2.17-.71zM372 21v1.78h-13.35V21h6.06v-2.49h-4.54v-1.75h4.54V14.6h-4.35V5.19h10.71v9.41h-4.37v2.16h4.64v1.75h-4.64V21zm-9.86-11.9h2.74V6.84h-2.74zm0 3.85h2.74v-2.3h-2.74zm7.07-6.11h-2.68V9.1h2.68zm0 3.81h-2.68V13h2.68z"/></svg>