<svg xmlns="http://www.w3.org/2000/svg" viewBox="0 0 113.39 113.39"><g data-name="レイヤー 2"><path d="M53.36 84.48a9 9 0 01-7.25 10.34 9 9 0 01-10.35-7.24l-1.4-8L52 76.5zM52.05 46.2c-1.68-9.52-7.66-16.63-15.4-15.27S23.3 43.66 24.61 51.1 33 71.75 33 71.75l17.59-3.11s3.14-12.91 1.46-22.44zM60 72.13a9 9 0 007.24 10.35 9 9 0 0010.35-7.24l1.41-8-17.6-3.11zm1.34-38.27C63 24.34 69 17.23 76.73 18.59s13.36 12.73 12 20.17-8.31 20.64-8.31 20.64l-17.6-3.1s-3.16-12.91-1.48-22.44zM0 0v12.05L10.11 0H0zm2.64 42.67l10.12-12.06V13.73l-.51.61L0 28.93v16.88l2.64-3.14zm25.1-29.91L38.44 0H24.28L13.57 12.76h14.17zM7.2 71l5.56-6.63V47.49L0 62.69v16.89L7.2 71zm48.87-58.24L66.77 0H52.61L41.9 12.76h14.17zM12.76 98.14V81.25L0 96.46v16.88l11.76-14.01 1-1.19zM84.4 12.76L95.1 0H80.94L70.23 12.76H84.4zm-59.57 87.87l-10.7 12.76h14.16l10.7-12.76H24.83zm75.8-87.87v14.42l10.77-12.84 1.99-2.37V0h-4.12L98.56 12.76h2.07zm-47.47 87.87l-10.7 12.76h14.16l10.71-12.76H53.16zm48.64-57.96l-1.17 1.39v16.88l12.76-15.2V28.86L101.8 42.67zm-20.31 57.96l-10.7 12.76h14.16l10.71-12.76H81.49zm19.14-22.81V94.7l12.76-15.2V62.62L106.36 71l-5.73 6.82zm-1.51 35.57h14.27V96.38l-14.27 17.01z" fill="#162789" data-name="レイヤー 1"/></g></svg>