<svg xmlns="http://www.w3.org/2000/svg" viewBox="0 0 113.39 113.39"><defs><style>.cls-1{fill:#162789}</style></defs><g id="レイヤー_2" data-name="レイヤー 2"><g id="レイヤー_1-2" data-name="レイヤー 1"><path class="cls-1" d="M60.84 43.69l13.29 42.54L75 89h20.17l.83-2.89 6.27-22.58h7.14v45.86H4V63.53h7.13l6.28 22.58.81 2.89h20.15l.88-2.81 13.3-42.54h8.29m2.94-4H49.61L35.43 85H21.26l-7.09-25.47H0v53.86h113.39V59.53H99.21L92.13 85H78L63.78 39.69z"/><path class="cls-1" d="M59.53 8.5V0h-5.67v8.5H0v45.36h18.43l7.08 25.51h5.67L45.36 34H68l14.21 45.37h5.66L95 53.86h18.43V8.5zM42.41 30l-.87 2.8-13.13 42-6.13-22.01-.81-2.93H4V12.5h49.86V30H42.41zm67 19.84H91.92l-.81 2.93L85 74.84l-13.13-42L71 30H59.53V12.5h49.86z"/></g></g></svg>