<svg viewBox="0 0 63.14 113.39" xmlns="http://www.w3.org/2000/svg"><g fill="#162789"><path d="M55.15 0H8a8 8 0 00-8 8v97.4a8 8 0 008 8h47.15a8 8 0 008-8V8a8 8 0 00-8-8zM8 4h47.15a4 4 0 014 4v1.18H4V8a4 4 0 014-4zm51.15 9.18v85H4v-85zm-4 96.21H8a4 4 0 01-4-4v-3.23h55.14v3.23a4 4 0 01-3.99 4z"/><path d="M53.17 54.7H7.8V22.93h4V50.7h41.37z"/><path d="M19.91 46.8a3.39 3.39 0 01-2.61-1.35l-4.68-5.72 3.09-2.53L19.6 42l5.14-13.47a3 3 0 015.56-.68l7.31 10.47 3.91-4.83a4.55 4.55 0 015.87-1l6.84 4.3-2.13 3.37-6.84-4.3a.56.56 0 00-.63.1l-4.2 5.18a3.56 3.56 0 01-5.84-.21l-6.67-9.55-5 13.16a3.31 3.31 0 01-2.52 2.22 3.57 3.57 0 01-.49.04zm30.26 42.97V64.56h-8.93v25.21h-5.21V71.36h-8.92v18.41H21.9v-11.6h-8.93v11.6H7.76v4h47.62v-4z"/></g></svg>