<svg xmlns="http://www.w3.org/2000/svg" viewBox="0 0 113.39 113.39"><defs><style>.cls-1{fill:#162789}</style></defs><g id="レイヤー_2" data-name="レイヤー 2"><g id="レイヤー_1-2" data-name="レイヤー 1"><path class="cls-1" d="M104.17 88.27V57.59a2.84 2.84 0 00-2.83-2.85H87.87V35.07A2.84 2.84 0 0085 32.23H63.78l-8.86-30a3.14 3.14 0 00-3-2.21 3.05 3.05 0 00-.6.06L2.78 10.29A3.66 3.66 0 000 13.72v79s0 12.17 10.43 12.17H20.6l12.58-15.83V76.6l-4.25 3.08H14.17V26.06A3.69 3.69 0 0117 22.62l24.24-5.18a3.23 3.23 0 01.61-.06 3.15 3.15 0 013 2.19l6.62 21.91-11 46.78A12.82 12.82 0 0044 113.39h56.69a12.82 12.82 0 003.54-25.12zM28.93 83.7h.25v4l-10.5 13.17h-8.25a5.32 5.32 0 01-5.38-3.49 13.35 13.35 0 01-1-4.66V74.25h6.17v9.45h18.71zm58.94-24.94h12.3v29H44.64l12.12-51.51h27.11v22.51zM16.11 18.69a7.68 7.68 0 00-5.94 7.37v44.17H4v-56.1l11.27-2.37 2 6.69zm25.69-5.33a7 7 0 00-1.44.15L19.7 17.93l-2-6.69 33.6-7.07 8.28 28.06h-3.15A3.8 3.8 0 0053.34 34l-4.72-15.59a7.16 7.16 0 00-6.82-5.05zm58.83 96H43.94a8.8 8.8 0 010-17.59h56.69a8.8 8.8 0 010 17.59z"/><path class="cls-1" d="M72.28 96.3a4.27 4.27 0 104.26 4.27 4.26 4.26 0 00-4.26-4.27zm-12.75 0a4.27 4.27 0 104.25 4.27 4.26 4.26 0 00-4.25-4.27zm-12.76 0a4.27 4.27 0 104.23 4.27 4.26 4.26 0 00-4.23-4.27zm38.23 0a4.27 4.27 0 104.25 4.27A4.26 4.26 0 0085 96.3zm12.8 0a4.27 4.27 0 104.25 4.27 4.27 4.27 0 00-4.25-4.27zM75.24 42.89h-9.6a3.78 3.78 0 00-3.49 2.77l-6.22 26.46a2.15 2.15 0 002.18 2.77h17.13A2.85 2.85 0 0078.07 72V45.74a2.85 2.85 0 00-2.83-2.85zM75.57 72a.35.35 0 01-.33.34h-16.8l6.15-26.14a1.3 1.3 0 011-.84h9.6a.35.35 0 01.33.34zM9.92 14.43a2.14 2.14 0 102.13 2.13 2.13 2.13 0 00-2.13-2.13z"/></g></g></svg>