<svg xmlns="http://www.w3.org/2000/svg" viewBox="0 0 113.39 87.69"><defs><style>.cls-1{fill:#162789}</style></defs><g id="レイヤー_2" data-name="レイヤー 2"><g id="レイヤー_1-2" data-name="レイヤー 1"><path class="cls-1" d="M98.38 40.14V24.87c0-9.47-11-17.35-26.74-20.44C70.66 2.15 69.12 0 67.38 0c-1.45 0-2.76 1.5-3.72 3.33-2.26-.2-4.59-.3-7-.3a2 2 0 00-2 2V24l-8.35 7.49C20 33.9 0 45.45 0 59.34 0 75 25.38 87.69 56.69 87.69s56.7-12.69 56.7-28.35c0-7.41-5.7-14.15-15.01-19.2zm-4 7.85v5.23c0 9.67-17.26 17.84-37.69 17.84a71.67 71.67 0 01-17.32-2V58.41q1.05.24 2.1.45l.43.08c.61.12 1.23.24 1.85.34l.82.13 1.52.22.91.12 1.47.16c.31 0 .63.07 1 .09.49 0 1 .09 1.49.12l.92.07 1.64.08h5.77l1.5-.06h.46c.63 0 1.25-.07 1.87-.12h.39l1.5-.14h.53l1.63-.2h.19L69 59.4l.47-.08 1.36-.23.45-.09 1.72-.34.26-.06q.72-.15 1.41-.33l.47-.12 1.36-.35.27-.08 1.55-.46.39-.12 1.18-.4.41-.14c.49-.17 1-.35 1.46-.54h.1c.44-.17.88-.35 1.31-.54l.38-.16 1.09-.5.28-.13c.44-.21.87-.42 1.29-.64l.28-.15c.33-.17.66-.35 1-.54l.33-.19a29.963 29.963 0 002.23-1.41l.29-.21.81-.6.25-.19c.32-.26.64-.52.95-.79l.17-.15.73-.67c.09-.08.17-.17.25-.25.24-.24.48-.48.71-.73l.11-.12zm0-9.49c0 9.67-17.26 17.84-37.69 17.84h-3.13L52 56.19l-.91-.07-1.44-.12-.95-.1c-.45 0-.91-.09-1.36-.15l-1-.13-1.31-.19-1-.16-1.27-.23-.94-.19c-.41-.08-.83-.17-1.23-.27l-.92-.21-.39-.1v-9.5A76.61 76.61 0 0056.6 46.7c16.85 0 31.06-5 37.69-12.35zM58 26.36a2 2 0 00.66-1.49V7.06c1.19 0 2.36.09 3.52.17A7.84 7.84 0 0062 8.75c0 2.45 2.4 4.43 5.36 4.43s5.33-2 5.37-4.38c12.66 2.91 21.63 9.1 21.63 16.07 0 9.67-17.26 17.85-37.69 17.85a73.79 73.79 0 01-15.16-1.55zm37 49.45c-10.16 5.08-23.76 7.88-38.3 7.88s-28.13-2.8-38.3-7.88C9.25 71.24 4 65.23 4 59.34s5.25-11.89 14.39-16.46a76.13 76.13 0 0122.78-6.77L36 40.72a2 2 0 00-.66 1.48v29.87l1.47.41a74.93 74.93 0 0019.85 2.58c23.38 0 41.69-9.59 41.69-21.84v-8.48c7 4.28 11 9.48 11 14.6.04 5.89-5.21 11.9-14.35 16.47z"/><path class="cls-1" d="M61.93 40c3 0 5.36-2 5.36-4.44s-2.4-8.74-5.36-8.74-5.37 6.29-5.37 8.74S59 40 61.93 40zM84.2 28.18c3 0 5.37-2 5.37-4.43S87.16 15 84.2 15s-5.36 6.29-5.36 8.75 2.4 4.43 5.36 4.43z"/></g></g></svg>