<svg xmlns="http://www.w3.org/2000/svg" viewBox="0 0 73.7 113.39"><defs><style>.cls-1{fill:#162789}</style></defs><g id="レイヤー_2" data-name="レイヤー 2"><g id="レイヤー_1-2" data-name="レイヤー 1"><path class="cls-1" d="M65.2 4a4.51 4.51 0 014.5 4.5v96.38a4.51 4.51 0 01-4.5 4.51H8.5a4.51 4.51 0 01-4.5-4.51V8.5A4.51 4.51 0 018.5 4h56.7m0-4H8.5A8.53 8.53 0 000 8.5v96.38a8.53 8.53 0 008.5 8.51h56.7a8.53 8.53 0 008.5-8.51V8.5A8.53 8.53 0 0065.2 0z"/><path class="cls-1" d="M45.35 20.96h18.43v8H45.35zm0 15.59h18.43v8H45.35zm0 15.59h18.43v8H45.35z"/><path class="cls-1" d="M36.85 29v-8h8.5v-2.57a8.53 8.53 0 00-8.5-8.51 8.53 8.53 0 00-8.5 8.51V68.7a18.43 18.43 0 1017 0v-8.56h-8.5v-8h8.5v-7.59h-8.5v-8h8.5V29z"/></g></g></svg>