<svg xmlns="http://www.w3.org/2000/svg" viewBox="0 0 113.39 113.39"><g data-name="レイヤー 2"><path d="M105.31 96.11c-3.57-6.69-7.57-10.5-11.9-11.33l-15.64-3.43-6.25-7.88-1.38.53s-.56.21-1.53.49v-4.76c.48-.27 1-.56 1.41-.85a10.15 10.15 0 0014.16-14.53 7.66 7.66 0 000-15.16 33.6 33.6 0 00-.4-3.78 74 74 0 00-.13-11C82.65 11 71.57 0 56.69 0S31.42 11 29.76 24.41a69 69 0 00-.33 12.51c-.08.75-.15 1.51-.19 2.27a7.66 7.66 0 001.1 15.25 7.42 7.42 0 001.34-.13 30.37 30.37 0 0013.09 15.42v4.77c-1-.28-1.51-.49-1.52-.49l-1.38-.54-6.25 7.88L20 84.78c-4.32.83-8.33 4.64-11.89 11.33L0 113.39h4.68L11.62 98c2.88-5.39 6.11-8.68 9.14-9.26L37 85.14c1 .27 2.78.77 5.09 1.3L31 94.14v19.25h2.5V95.45l11.94-8.3a61 61 0 0011.24 1.26c7.65 0 17-2.51 19.69-3.27l16.26 3.56c3 .58 6.26 3.87 9.14 9.26l6.94 15.43h4.68zm-75-45.67a3.67 3.67 0 01-1.09-7.17v.36c0 .4.06.79.1 1.18l.06.59c0 .39.1.77.16 1.15 0 .19 0 .38.08.57.07.4.15.8.23 1.19 0 .17.06.34.1.5.1.48.22 1 .34 1.43v.2zM83 50.27c.13-.48.25-1 .35-1.46 0-.16.07-.33.1-.49.08-.4.16-.79.22-1.2l.09-.58c.06-.37.11-.75.16-1.13l.08-.61c0-.38.07-.77.1-1.16v-.37a3.67 3.67 0 01-1.1 7.17.85.85 0 000-.17zm-48.28.79c-.1-.3-.19-.61-.28-.91l-.09-.33c-.09-.29-.17-.59-.24-.89l-.09-.39c-.07-.28-.13-.57-.19-.86l-.09-.44c-.06-.28-.11-.55-.15-.83s0-.33-.08-.5-.08-.53-.11-.79l-.06-.56c0-.25 0-.51-.08-.76v-.57c0-.68-.07-1.37-.08-2.06V41a33.28 33.28 0 01.41-5c2.6-5.39 6.06-11.45 7.89-10.16C54.18 34.75 74 39.88 80.2 41.33v.42c0 .48 0 1-.06 1.45v.6c0 .2 0 .51-.07.76l-.06.56-.12.79c0 .17 0 .34-.07.5l-.15.84-.09.43c-.06.29-.12.58-.19.87l-.09.37-.24.91-.09.31c-.09.31-.19.62-.29.93-2.43 7.44-7.49 13.34-13.84 16.1l-1.07.43-1.1.37q-.56.17-1.11.3c-.36.09-.72.16-1.09.23h-.07c-.34.06-.69.11-1 .15h-.14q-.48.06-1 .09h-2.79c-.33 0-.67 0-1-.09h-.12c-.36 0-.71-.09-1.06-.15q-.55-.11-1.11-.24a21.44 21.44 0 01-2.24-.68l-1.07-.43c-6.62-2.75-11.69-8.65-14.12-16.09zm29.89 20.47v3.9c-.63.11-1.25.21-1.88.29h-.11c-.63.08-1.25.15-1.88.21h-.08a45 45 0 01-7.79 0h-.24L51 75.77l-.49-.07c-.5-.07-1-.15-1.49-.24h-.22v-3.9a24.14 24.14 0 005.08 1.17H54c.37 0 .75.08 1.13.1h3.17c.38 0 .75-.06 1.13-.1h.13a24.06 24.06 0 005.05-1.2zm-7.92 12.88c-5.65 0-12.57-1.55-16.39-2.53l2.91-3.67 1.56.44 1.2.26c.84.19 1.79.38 2.84.56h.18l1.06.16h.17l1.14.13h.42l.74.07.48.17h7.83l.75-.07H62l1.14-.13h.16l1.08-.16h.16c1.05-.18 2-.37 2.86-.56l1.18-.26c.61-.16 1.13-.31 1.56-.44l2.92 3.67c-3.79.81-10.7 2.36-16.37 2.36z" fill="#162789" data-name="レイヤー 1"/></g></svg>