<svg xmlns="http://www.w3.org/2000/svg" viewBox="0 0 113.47 113.39"><defs><style>.cls-1{fill:#162789}</style></defs><g id="レイヤー_2" data-name="レイヤー 2"><g id="レイヤー_1-2" data-name="レイヤー 1"><path class="cls-1" d="M112.49 80.84L67.92 3.65A7.31 7.31 0 0057.94 1L20.56 22.56a7.31 7.31 0 00-2.67 10l44.57 77.19a7.3 7.3 0 0010 2.68l37.37-21.58a7.31 7.31 0 002.66-10.01zM105.63 77l-43.1 24.89-38.71-67 43.1-24.97zM22.56 26L59.94 4.44A3.29 3.29 0 0161.59 4a3.32 3.32 0 012.87 1.65l.46.81-43.1 24.88-.47-.8A3.31 3.31 0 0122.56 26zm85.25 61.34l-37.37 21.6a3.22 3.22 0 01-1.65.45 3.33 3.33 0 01-2.87-1.66l-1.39-2.41 43.1-24.89 1.37 2.41a3.31 3.31 0 01-1.19 4.52z"/><path class="cls-1" transform="rotate(-29.99 50.657 52.8)" d="M48.4 50.54h4.52v4.52H48.4z"/><path class="cls-1" d="M58.28 54.84l-9.66 5.58L43 50.76l9.66-5.58zm-9.17 3.75l7.34-4.24L52.21 47l-7.35 4.24z"/><path class="cls-1" transform="rotate(-30 61.277 71.22)" d="M59.04 68.96h4.52v4.51h-4.52z"/><path class="cls-1" d="M68.91 73.26l-9.65 5.58-5.58-9.66 9.66-5.58zM59.74 77l7.35-4.24-4.24-7.34-7.35 4.25z"/><path class="cls-1" transform="matrix(.87 -.5 .5 .87 -11.83 40.18)" d="M66.82 39.91h4.52v4.52h-4.52z"/><path class="cls-1" d="M76.7 44.21L67 49.78l-5.57-9.66 9.65-5.57zM67.53 48l7.35-4.24-4.25-7.35-7.34 4.24z"/><path class="cls-1" transform="rotate(-30 53.66 63.298)" d="M51.41 61.05h4.52v4.52h-4.52z"/><path class="cls-1" transform="rotate(-30 60.942 59.11)" d="M56.76 56.85h8.34v4.52h-8.34z"/><path class="cls-1" transform="rotate(-29.99 65.113 56.713)" d="M62.85 54.44h4.52v4.52h-4.52z"/><path class="cls-1" transform="rotate(-30 74.85 59.156)" d="M71.73 55.1h6.25v8.12h-6.25z"/><path class="cls-1" transform="rotate(-30 69.327 64.016)" d="M67.07 59.6h4.52v8.83h-4.52z"/><path class="cls-1" transform="rotate(-30 81.872 58.997)" d="M79.6 53.77h4.52v10.44H79.6z"/><path class="cls-1" transform="rotate(-30 74.309 66.771)" d="M69.01 64.51h10.6v4.52h-10.6z"/><path class="cls-1" transform="rotate(-30 74.333 51.378)" d="M69.37 49.12h9.93v4.52h-9.93z"/><path class="cls-1" transform="rotate(-30 61.928 51.174)" d="M59.66 48.92h4.52v4.52h-4.52z"/><path class="cls-1" transform="rotate(-29.99 58.731 45.66)" d="M56.47 43.39h4.52v4.52h-4.52z"/><path class="cls-1" d="M47.06 83.07c.14 1.56.22 3.05.22 4.42a44.54 44.54 0 01-.46 6.34l-1.14.08V82.28a1.5 1.5 0 00-1.5-1.5h-9.41a1.5 1.5 0 00-1.5 1.5v12.2c-2.36.06-4.91.1-7.6.1-9.65 0-17.45-.48-21.22-.76A44.24 44.24 0 014 87.49C4 75.24 10.36 53.74 10.88 52a9.14 9.14 0 011.29-2.54c.19-.21.27-.24.44-.25h14.91l-2.31-4H12.52c-2.84.11-4.25 2.31-5.43 5.51C7.09 50.73 0 74 0 87.49s5.62 22 5.62 22c1.16 1.71 2.59 3.62 4.71 3.72H41c2.13-.1 3.55-2 4.72-3.72 0 0 4.85-7.42 5.53-19.29zm-10.79.71h6.41V94.1c-1.83.1-4 .2-6.41.29zm6.06 23.54a7 7 0 01-1.62 1.93H10.57A7 7 0 019 107.32a34.93 34.93 0 01-4-10.45c4.06.29 11.55.71 20.66.71s16.51-.42 20.59-.71a35.78 35.78 0 01-3.92 10.45z"/><path class="cls-1" d="M33.06 76.05a1.5 1.5 0 001.5 1.5h9.31l-1.73-3h-7.58a1.5 1.5 0 00-1.5 1.5z"/></g></g></svg>