<svg xmlns="http://www.w3.org/2000/svg" viewBox="0 0 113.39 116.11"><defs><style>.cls-1{fill:#162789}</style></defs><g id="レイヤー_2" data-name="レイヤー 2"><g id="レイヤー_1-2" data-name="レイヤー 1"><path class="cls-1" d="M34.74 80.42v17.51H18.17V80.42h16.57m4-4H14.17v25.51h24.57V76.42zm26.26 4v17.51H48.41V80.42H65m4-4H44.41v25.51H69V76.42zm26.21 4v17.51H78.64V80.42h16.57m4-4H74.64v25.51h24.57V76.42z"/><path class="cls-1" d="M75.59 56.58V33.9L37.8 56.58V33.9l-10.87 6.52V0h-17v50.63L0 56.58v59.53h113.39V33.9zM13.92 4h9v38.82l-9 5.41zm95.47 108.11H4V58.84L33.8 41v22.64L39.85 60l31.74-19v22.64L77.65 60l31.74-19z"/></g></g></svg>