<svg xmlns="http://www.w3.org/2000/svg" viewBox="0 0 113.39 113.39"><defs><style>.cls-1{fill:#162789}</style></defs><g id="レイヤー_2" data-name="レイヤー 2"><g id="レイヤー_1-2" data-name="レイヤー 1"><path class="cls-1" d="M56.69 4A52.7 52.7 0 114 56.69 52.76 52.76 0 0156.69 4m0-4a56.7 56.7 0 1056.7 56.69A56.69 56.69 0 0056.69 0z"/><path class="cls-1" d="M56.68 32.64a2 2 0 01-2-2v-1.42a2 2 0 014 0v1.42a2 2 0 01-2 2zm2 17.36V37.42a2 2 0 00-4 0V50a7 7 0 00-3.3 11.16l-4.67 8.09a2 2 0 00.74 2.75 2 2 0 001 .27 2 2 0 001.74-1l4.56-7.91A7 7 0 0058.68 50zm-2 9.62a3 3 0 113-3 3 3 0 01-2.99 3.03z"/><path class="cls-1" d="M56.69 9.92a46.77 46.77 0 1046.77 46.77A46.77 46.77 0 0056.69 9.92zm23.1 82.75l-4.24-7.34a2 2 0 00-3.46 2l4.24 7.34a42.3 42.3 0 01-17.62 4.74v-8.49a2 2 0 00-4 0v8.5a42.63 42.63 0 01-17.63-4.73l4.24-7.35a2 2 0 10-3.46-2l-4.24 7.34a43.09 43.09 0 01-12.9-12.89l7.33-4.24a2 2 0 10-2-3.46l-7.34 4.24A42.6 42.6 0 0114 58.71h8.49a2 2 0 000-4H14a42.48 42.48 0 014.7-17.63l7.3 4.24a2 2 0 001 .27 2 2 0 001-3.73l-7.33-4.24a43 43 0 0112.93-12.9l4.23 7.33a2 2 0 001.74 1 2 2 0 001-.26 2 2 0 00.74-2.74l-4.24-7.34A42.56 42.56 0 0154.68 14v8.49a2 2 0 004 0V14a42.4 42.4 0 0117.62 4.7L72.06 26a2 2 0 00.74 2.73 2 2 0 001 .27 2 2 0 001.74-1l4.23-7.33A42.86 42.86 0 0192.66 33.6l-7.33 4.23a2 2 0 102 3.47l7.34-4.24a42.41 42.41 0 014.74 17.62h-8.49a2 2 0 000 4h8.49a42.4 42.4 0 01-4.73 17.62l-7.34-4.24a2 2 0 00-2 3.47l7.34 4.23a43.12 43.12 0 01-12.89 12.91z"/></g></g></svg>