<svg xmlns="http://www.w3.org/2000/svg" viewBox="0 0 113.39 113.39"><defs><style>.cls-1{fill:#162789}</style></defs><g id="レイヤー_2" data-name="レイヤー 2"><g id="レイヤー_1-2" data-name="レイヤー 1"><path class="cls-1" d="M56.69 0C37.51 0 22 5.39 22 12.05c0 2.27 1.81 4.39 5 6.2v2.14c4.86 2.73 15.46 5.31 29.76 5.31s24.9-2.58 29.77-5.31v-2.14c3.14-1.81 5-3.93 5-6.2C91.42 5.39 75.87 0 56.69 0zm0 23.29a10.42 10.42 0 01-6.3-10.83l6.3-3 6.31 3a10.43 10.43 0 01-6.31 10.83z"/><path class="cls-1" d="M111.63 93.87v-.16c-1.48-5.58-6.82-10.71-12.23-11.77L71.45 77.1v-9.21a31.58 31.58 0 0011.21-16.3h.38a7.67 7.67 0 00.84-15.29c-.09-.7-.2-1.38-.32-2.06a11.43 11.43 0 002.9-7.33v-2.1c-7 3.22-18.44 4.87-29.77 4.87S34 28.05 26.93 24.83v2.1a11.38 11.38 0 002.9 7.33c-.13.68-.23 1.36-.33 2.06a7.67 7.67 0 00.84 15.29h.39a31.56 31.56 0 0011.21 16.3v9.19L14 82C8.58 83 3.24 88.13 1.8 93.71v.16L0 113.39h4l1.71-18.83c1.11-4 5.19-8 9-8.68l19.15-3.31 14.53 18.73 4-5.62v6.37l-2.55 11.34H63.5l-2.56-11.34v-6.37L65 101.3l14.57-18.73 19.12 3.31c3.8.71 7.88 4.67 9 8.68l1.73 18.83h4zM84.21 41.1v-.65a3.67 3.67 0 01-.56 7.1 35.9 35.9 0 00.56-6.45zM83 34.88a3.33 3.33 0 01.25-.28c-.08.09-.16.19-.25.28zm-56.33 9.06a3.68 3.68 0 012.53-3.49v.65a36.84 36.84 0 00.57 6.45 3.67 3.67 0 01-3.1-3.61zm3.45-9.35l.26.29zm4.41 15.76a32.09 32.09 0 01-1-4.58 35 35 0 01-.33-4.14v-.53a30.53 30.53 0 01.21-3.6c5.45 3.92 13.86 6.44 23.3 6.44S74.55 41.42 80 37.5a32.83 32.83 0 01.21 3.6 34.1 34.1 0 01-.34 4.67 32.85 32.85 0 01-1 4.59c-3.24 10.77-12 18.51-22.17 18.51s-18.94-7.74-22.17-18.52zm13.78 46.78l-11.7-15 5.78-1 12 7.67zM45.94 78.6v-8.26a24.14 24.14 0 0022.56-.55l-1 .55v8.26l-10.81 6.9zm19.13 18.53l-6-8.38 12-7.67 5.79 1z"/></g></g></svg>