<svg xmlns="http://www.w3.org/2000/svg" viewBox="0 0 112.13 113.55"><g data-name="レイヤー 2"><path d="M110.56 93.88v-.16c-1.42-5.59-6.73-10.76-12.1-11.78L75.7 78l-4.82-6.06h-.06v-4.61A29.61 29.61 0 0087.24 41.1v-29c0-6.66-14-12-31.18-12S24.88 5.39 24.88 12.05V41.1a29.62 29.62 0 0016.43 26.23v4.6h-.07L36.42 78l-22.75 4C8.33 83 3 88.13 1.61 93.72l-.05.16L0 113.22l4 .33 1.53-19c1.1-4 5.14-8 8.87-8.67l24.22-4.23 4-5a46.92 46.92 0 0012.23 1.91v34.83h2.5V78.56a46.76 46.76 0 0012.23-1.91l4 5 24.12 4.23c3.76.71 7.8 4.66 8.9 8.67l1.54 19 4-.33zM28.88 41.1v-29c0-.87 1.79-2.94 6.58-4.79C40.9 5.16 48.21 4 56.06 4s15.17 1.16 20.61 3.26c4.79 1.85 6.57 3.92 6.57 4.79v29.12a25.3 25.3 0 01-10.76 20.45 35.07 35.07 0 006.26-20.52 40.22 40.22 0 00-.24-4.29 18.45 18.45 0 004-2.51 1.26 1.26 0 00.27-1.55c-3.69-6.63-14.34-11.08-26.49-11.08s-22.8 4.45-26.49 11.08a1.26 1.26 0 00.27 1.55 18.09 18.09 0 003.56 2.29 39.18 39.18 0 00-.26 4.51 35 35 0 006.26 20.52A25.3 25.3 0 0128.88 41.1zm8.27 9.5l18.5 3 .4.07.41-.07 18.5-3C72.11 61 64.72 68.37 56.06 68.37S40 61 37.15 50.6zm-1.1-13a7.16 7.16 0 002.16.54 12 12 0 007-2.15c2.21-1.31 4.73-2.8 11.14-2.8s8.92 1.49 11.14 2.8a12 12 0 007 2.15 5.77 5.77 0 001.68-.37c.1 1.08.15 2.18.15 3.29a36.64 36.64 0 01-.73 6.94l-19.53 3.18L36.54 48a35.82 35.82 0 01-.65-6.87c0-1.2.05-2.35.16-3.49zm-3.48-4.57c3.71-5.29 13.22-8.9 23.74-8.9s20 3.61 23.74 8.9a19.14 19.14 0 01-5.65 2.61 9.68 9.68 0 01-5.68-1.8c-2.37-1.4-5.32-3.15-12.41-3.15s-10.05 1.75-12.42 3.15a9.64 9.64 0 01-5.67 1.8 18.72 18.72 0 01-5.65-2.57zm23.49 41.55a44 44 0 01-10.75-1.33v-5.94a18 18 0 0021.51 0v5.94a44.05 44.05 0 01-10.76 1.33z" fill="#162789" data-name="レイヤー 1"/></g></svg>