<svg xmlns="http://www.w3.org/2000/svg" viewBox="0 0 113.39 113.56"><defs><style>.cls-1{fill:#162789}</style></defs><g id="レイヤー_2" data-name="レイヤー 2"><g id="レイヤー_1-2" data-name="レイヤー 1"><path class="cls-1" d="M63.78 25.97h-4.43v-4.43h-5.31v4.43h-4.43v5.32h4.43v4.43h5.31v-4.43h4.43v-5.32z"/><path class="cls-1" d="M111.63 93.87v-.16c-1.48-5.58-6.82-10.71-12.23-11.77L71.45 77.1v-4.88a31.4 31.4 0 0010.9-15.34 5.32 5.32 0 00.69 0 7.68 7.68 0 007.67-7.67 7.59 7.59 0 00-1.55-4.6h4.38a2.85 2.85 0 002.84-2.84v-5.63a2.84 2.84 0 00-2.84-2.83h-2.07C88 19.14 78.17 8 65.76 4.35V2.83A2.84 2.84 0 0062.93 0H50.46a2.85 2.85 0 00-2.84 2.83v1.52C35.21 8 25.4 19.14 21.92 33.31h-2.08A2.83 2.83 0 0017 36.14v5.67a2.84 2.84 0 002.83 2.84h4.38a7.59 7.59 0 00-1.55 4.6 7.68 7.68 0 007.67 7.67 5.37 5.37 0 00.7 0 31.34 31.34 0 0010.9 15.34v4.84L14 82C8.58 83 3.24 88.13 1.8 93.71v.16L0 113.2l4 .36 1.73-19c1.07-3.89 4.94-7.72 8.62-8.6v27.43h7.54V84.63l10.64-1.84v30.6h14.24l-3.34-16.11 9.66-6-.65.53v10.2l-2.55 11.34H63.5l-2.56-11.34V91.85l-.65-.53 9.67 6-3.35 16.11h14.26V82.79l10.63 1.84v28.76h7.55V86c3.69.89 7.54 4.71 8.61 8.59l1.73 19 4-.36zm-28.2-41a37 37 0 00.77-7.13 3.67 3.67 0 01-.77 7.13zm-56.76-3.62a3.67 3.67 0 012.52-3.48A36.21 36.21 0 0030 52.9a3.68 3.68 0 01-3.33-3.65zM21 40.65v-3.34h4l.74-3.05c3.15-12.81 12-22.8 23-26.08l2.86-.85V4h10.16v3.33l2.86.85c11 3.28 19.82 13.27 23 26.08l.75 3.05h4v3.34H21zm52.32 4v8.41H62.74v-8.41zm-13.09 0v3.28h-7.08v-3.28h7.09zm-9.59 0v8.41H40.06v-8.41zm-17.47.78v-.78h4.37v10.91h15.61v-5.13h7.09v5.13h15.59V44.65h4.36v.78c0 15.31-10.55 27.77-23.52 27.77S33.18 60.74 33.18 45.43zM43 94.62l-.18-.32-2.67-12.83 2.24-.39 11.06 7.09zm2.95-16v-3.96a24 24 0 0021.51 0v3.94l-10.77 6.9zm24.46 16l-10.47-6.45 11-7.09 2.25.39-2.62 12.84z"/></g></g></svg>