<svg xmlns="http://www.w3.org/2000/svg" viewBox="0 0 113.39 113.39"><g data-name="レイヤー 2"><path d="M105.42 96.34c-1.5-5.5-6.73-10.55-12-11.55l-24.81-5.21v-9.85A30.28 30.28 0 0081.7 54.31a7.51 7.51 0 001.34.13 7.67 7.67 0 001.11-15.25 33.72 33.72 0 00-.34-3.37 67.28 67.28 0 00-.39-11.41C81.77 11 71.36 0 56.49 0s-26 11-26.93 24.41a68.92 68.92 0 000 11.85c-.13 1-.22 1.94-.27 2.93a7.66 7.66 0 00.09 15.18 10.15 10.15 0 0014.07 14.56c.44.28.87.55 1.32.8v9.85L20 84.78c-5.27 1-10.5 6.06-12 11.56l-8 17h4.15l7.63-15.85c1-4.06 5.13-8.1 9-8.84l4-.85v25.54h63.8V87.85l4.08.86c3.81.73 7.91 4.77 9 8.83l7.63 15.85h4.15zM83 50.27c.13-.48.25-1 .35-1.46 0-.16.07-.33.1-.49.08-.4.16-.79.22-1.2l.09-.58c.06-.37.11-.75.16-1.13l.08-.61c0-.38.07-.77.1-1.16v-.37a3.67 3.67 0 01-1.1 7.17.85.85 0 000-.17zM39 14.88a3.54 3.54 0 013.54-3.54 3.59 3.59 0 012.13.71 4.25 4.25 0 017.1-3.15 5 5 0 019.89 0 4.25 4.25 0 017.1 3.15 3.54 3.54 0 015.67 2.83v8.51s-9.92-5.67-17.72-5.67S39 23.39 39 23.39zm-8.66 35.56a3.67 3.67 0 01-1.09-7.17v.36c0 .4.06.79.1 1.18l.06.59c0 .39.1.77.16 1.15 0 .19 0 .38.08.57.07.4.15.8.23 1.19 0 .17.06.34.1.5.1.48.22 1 .34 1.43v.2zm4.41.62c-.1-.3-.19-.6-.28-.91l-.09-.33c-.09-.29-.17-.59-.24-.89l-.09-.39c-.07-.28-.13-.57-.19-.86l-.09-.44c-.06-.28-.11-.55-.15-.82s0-.34-.08-.51-.08-.53-.11-.79l-.06-.56c0-.25 0-.51-.08-.76v-.57c0-.64-.07-1.29-.07-1.94 6.43-1.52 26-6.63 38.51-15.46 1.91-1.34 5.56 5.26 8.19 10.78A32.31 32.31 0 0180.2 41v.71c0 .48 0 1-.06 1.46v.59c0 .2 0 .51-.07.76l-.06.56-.12.79c0 .17 0 .34-.07.5l-.15.84-.09.43c-.06.29-.12.58-.19.87l-.09.37-.24.91-.09.31c-.09.31-.19.62-.29.93-2.43 7.44-7.49 13.34-13.84 16.1l-1.07.43-1.1.37q-.56.17-1.11.3c-.36.09-.72.16-1.09.23h-.07c-.34.06-.69.11-1 .15h-.14q-.48.06-1 .09h-2.79c-.33 0-.67 0-1-.09h-.12l-1.06-.16q-.55-.11-1.11-.24a21.44 21.44 0 01-2.24-.68l-1.07-.43c-6.62-2.7-11.69-8.6-14.12-16.04zm29.86 20.47v7.22l-7.92 6.53-7.92-6.53v-7.22a24.14 24.14 0 005.08 1.17H54c.37 0 .75.08 1.13.1h3.17c.38 0 .75-.06 1.13-.1h.13a24.06 24.06 0 005.05-1.17zm14.76 29.1H34V85.92l13.7-2.87 9 7.42 9-7.42 13.68 2.87z" fill="#162789" data-name="レイヤー 1"/></g></svg>