<svg xmlns="http://www.w3.org/2000/svg" viewBox="0 0 113.39 113.56"><defs><style>.cls-1{fill:#162789}</style></defs><g id="レイヤー_2" data-name="レイヤー 2"><g id="レイヤー_1-2" data-name="レイヤー 1"><path class="cls-1" d="M63.78 25.97h-4.43v-4.43h-5.31v4.43h-4.43v5.32h4.43v4.43h5.31v-4.43h4.43v-5.32z"/><path class="cls-1" d="M111.64 94v-.32c-1.49-5.55-6.83-10.68-12.24-11.74L71.45 77.1v-4.88a31.6 31.6 0 0011.17-16.17h.42a7.67 7.67 0 006.69-11.42h3.81a2.85 2.85 0 002.84-2.84v-5.65a2.84 2.84 0 00-2.84-2.83h-2.07C88 19.14 78.17 8 65.76 4.35V2.83A2.84 2.84 0 0062.93 0H50.46a2.85 2.85 0 00-2.84 2.83v1.52C35.21 8 25.4 19.14 21.92 33.31h-2.08A2.83 2.83 0 0017 36.14v5.67a2.84 2.84 0 002.83 2.84h3.82a7.55 7.55 0 00-1 3.75 7.68 7.68 0 007.67 7.67h.43a31.54 31.54 0 0011.19 16.15v4.88L14 82C8.58 83 3.24 88.13 1.8 93.71a1.8 1.8 0 00-.06.32L0 113.2l4 .36 1.73-19c1.07-3.89 4.94-7.72 8.62-8.6v27.43h7.54V84.63l10.64-1.84v30.6h14.24L43.43 97.3l13.26-7.38L70 97.3l-3.34 16.09h14.22v-30.6l10.63 1.84v28.76h7.55V86c3.69.89 7.54 4.71 8.61 8.59l1.73 19 4-.36zm-28-42a37.63 37.63 0 00.56-4.91v-2.18a3.67 3.67 0 01-.6 7.09zm-56.97-3.6a3.69 3.69 0 012.52-3.49v2.18a37.32 37.32 0 00.59 4.91 3.67 3.67 0 01-3.11-3.6zM21 40.65v-3.34h4l.74-3.05c3.15-12.81 12-22.8 23-26.08l2.86-.85V4h10.16v3.33l2.86.85c11 3.28 19.82 13.27 23 26.08l.75 3.05h4v3.34H21zm13.25 13.08l-.07-.29c0-.12 0-.23-.08-.35a27.3 27.3 0 01-.35-1.62v-.16c0-.25-.09-.5-.13-.75s-.05-.3-.07-.45l-.09-.67c0-.35-.08-.71-.11-1.06v-.43c0-.29 0-.58-.05-.87v-1.96h47v1.96c0 .29 0 .58-.06.86v.44c0 .35-.07.7-.11 1s-.06.47-.1.7l-.06.41c0 .26-.09.53-.13.79v.07c-.11.58-.23 1.17-.38 1.74v.25l-.09.35a27.52 27.52 0 01-10.78 15.8 22.16 22.16 0 01-2 1.21 20.58 20.58 0 01-7.38 2.3h-5.04a21.07 21.07 0 01-9.11-3.48 27.49 27.49 0 01-10.81-15.79zM43 94.67l-.2-.37-2.65-12.83 2.33-.4a2.33 2.33 0 00.38.31L54 88.54zm13.69-9.17l-10.75-6.9v-3.93a.61.61 0 01.14.07l1.09.5.22.08 1 .4.27.1 1 .34.19.06a25 25 0 002.59.61h.15c.37.06.74.12 1.11.16h.32l1 .09h3.24l1-.09h.33c.37 0 .73-.1 1.1-.16h.16a25.62 25.62 0 002.59-.61l.19-.06 1-.34.28-.1 1-.4.21-.08 1.1-.5a.61.61 0 01.14-.07v3.93zm13.68 9.17l-11-6.13 11.17-7.16a2.85 2.85 0 00.38-.31l2.33.4-2.68 12.84z"/></g></g></svg>