<svg xmlns="http://www.w3.org/2000/svg" viewBox="0 0 113.39 72.4"><switch><g><path d="M60.88 4c13.38 0 24.74 9.55 27.02 22.72l.54 3.08 3.12.22c10 .71 17.83 9.13 17.83 19.16 0 10.6-8.62 19.22-19.22 19.22H23.22C12.62 68.4 4 59.78 4 49.18c0-7.1 3.89-13.59 10.15-16.95l2.22-1.19-.11-2.52c-.01-.25-.02-.45-.02-.62 0-7.47 6.08-13.55 13.55-13.55 1.77 0 3.5.34 5.13 1.01l2.75 1.13 1.87-2.31C44.8 7.71 52.57 4 60.88 4m0-4c-9.87 0-18.67 4.55-24.43 11.66-2.05-.84-4.29-1.31-6.65-1.31-9.69 0-17.55 7.86-17.55 17.55 0 .27.01.54.02.8C4.97 32.62 0 40.32 0 49.18 0 62.01 10.39 72.4 23.22 72.4h66.95c12.82 0 23.22-10.39 23.22-23.22 0-12.26-9.5-22.29-21.54-23.15C89.28 11.25 76.4 0 60.88 0z" fill="#1c287b"/></g></switch></svg>