<svg version="1.1" id="レイヤー_1" xmlns="http://www.w3.org/2000/svg" x="0" y="0" viewBox="0 0 96.79 90.25" xml:space="preserve"><style>.st0{fill:#10069f}</style><switch><g><path class="st0" d="M82.06 38.1a1.931 1.931 0 01-1.7-2.85c2.38-4.45.73-10.06-3.68-12.51a1.91 1.91 0 01-.92-1.16c-.14-.5-.08-1.02.17-1.47.34-.62.99-1 1.7-1 .32 0 .65.08.93.24 6.24 3.47 8.58 11.42 5.2 17.72l-.14.26c-.37.48-.94.77-1.56.77z"/><path class="st0" d="M91.7 46.74a1.931 1.931 0 01-1.7-2.85c6.4-11.96 1.96-27.07-9.89-33.66-.93-.52-1.27-1.7-.75-2.63.34-.61.99-.99 1.69-.99.33 0 .65.08.94.24 13.69 7.62 18.82 25.05 11.42 38.87-.34.63-.99 1.02-1.71 1.02zm-76.94-8.65c-.72 0-1.37-.39-1.71-1.02a12.989 12.989 0 01-1.02-9.92c.97-3.33 3.18-6.1 6.21-7.79.29-.16.61-.24.94-.24.7 0 1.35.38 1.69.99.52.93.18 2.11-.75 2.63-4.4 2.46-6.04 8.06-3.66 12.5.24.46.3.98.15 1.47s-.48.9-.94 1.14c-.29.16-.59.24-.91.24z"/><path class="st0" d="M5.09 46.74c-.71 0-1.37-.39-1.7-1.02-7.4-13.82-2.28-31.26 11.42-38.88.29-.16.61-.24.94-.24a1.93 1.93 0 011.86 2.46c-.14.5-.47.91-.92 1.16C4.83 16.82.39 31.92 6.8 43.89c.15.28.23.59.23.91 0 1.07-.87 1.93-1.94 1.94zm43.3 43.51c-4.72 0-8.56-3.84-8.56-8.56 0-1.07.87-1.93 1.93-1.93s1.93.87 1.93 1.93c0 2.59 2.1 4.69 4.69 4.69s4.69-2.11 4.69-4.69c0-1.07.87-1.93 1.93-1.93s1.93.87 1.93 1.93c.02 4.72-3.82 8.56-8.54 8.56z"/><path class="st0" d="M24.62 80.52c-3.56 0-6.8-1.96-8.45-5.11a9.374 9.374 0 011.74-10.78L19 63.51c2.56-2.53 4.02-6.06 4.01-9.68V38.76c0-.56.02-1.1.05-1.65.73-9.82 7.57-18.35 17-21.22l.4-.12V7.93c0-4.37 3.56-7.93 7.93-7.93 4.37 0 7.93 3.56 7.93 7.93v7.84l.4.12c9.46 2.85 16.31 11.38 17.06 21.23.03.53.05 1.08.05 1.64v14.47c-.02 3.27 1.14 6.45 3.27 8.95l2.28 2.66a9.302 9.302 0 012.24 6.06v.33c-.02 5.11-4.2 9.28-9.31 9.28l-47.69.01zM47.56 18.6c-10.95 0-20.06 8.25-20.73 18.77v16.47a17.58 17.58 0 01-5.11 12.43l-1.08 1.08a5.42 5.42 0 00-.99 6.35 5.65 5.65 0 004.98 2.98h47.56a5.472 5.472 0 005.44-5.44v-.37c0-1.3-.46-2.55-1.31-3.54l-2.28-2.66a17.556 17.556 0 01-4.23-11.43V37.4c-.69-10.56-9.79-18.8-20.73-18.8h-1.52zm1.62-3.87c.89 0 1.78.05 2.67.15l.63.07V7.93a4.08 4.08 0 00-4.07-4.07c-2.24 0-4.07 1.82-4.07 4.07v7.01l.63-.07c.89-.1 1.78-.14 2.67-.15h1.54z"/></g></switch></svg>