<svg xmlns="http://www.w3.org/2000/svg" viewBox="0 0 104.88 113.39"><defs><style>.cls-1{fill:#162789}</style></defs><g id="レイヤー_2" data-name="レイヤー 2"><g id="レイヤー_1-2" data-name="レイヤー 1"><path class="cls-1" d="M52.44 4.42L100.58 27a85.83 85.83 0 01-3 30.35 78 78 0 01-14.22 27.73C75.52 94.8 65.13 102.83 52.44 109c-12.69-6.17-23.08-14.2-30.91-23.92A77.68 77.68 0 017.29 57.39 85.94 85.94 0 014.3 27L52.44 4.42m0-4.42L.59 24.36s-9.93 60.44 51.85 89c61.79-28.59 51.85-89 51.85-89L52.44 0z"/><path class="cls-1" d="M66.63 21.26l-4.27 45.35H42.52l-4.27-45.35h28.38zM52.44 74.82l3.42-3.95.98 5.13 4.94-1.72-1.72 4.94 5.14.98-3.96 3.42 3.96 3.42-5.14.99 1.72 4.93-4.94-1.71-.98 5.13-3.42-3.95-3.42 3.95-.98-5.13-4.94 1.71 1.72-4.93-5.13-.99 3.95-3.42-3.95-3.42 5.13-.98-1.72-4.94L48.04 76l.98-5.13 3.42 3.95z"/></g></g></svg>