<svg version="1.1" id="レイヤー_1" xmlns="http://www.w3.org/2000/svg" x="0" y="0" viewBox="0 0 390.97 479.17" xml:space="preserve"><style>.st0{fill:#10069f}</style><switch><g><path class="st0" d="M63.44 446.17c-4.73 0-8.58-3.85-8.58-8.58v-395c0-4.73 3.85-8.58 8.58-8.58h264c4.73 0 8.58 3.85 8.58 8.58v395c0 4.73-3.85 8.58-8.58 8.58h-264zM318.85 428V51.17H72.02V428h246.83z"/><path class="st0" d="M63.44 444.75c-3.95 0-7.17-3.21-7.17-7.17v-395c0-3.95 3.21-7.17 7.17-7.17h264c3.95 0 7.17 3.21 7.17 7.17v395c0 3.95-3.21 7.17-7.17 7.17h-264zm7.16-15.33h249.67V49.75H70.6v379.67z"/><path class="st0" d="M8.58 479.17c-4.73 0-8.58-3.85-8.58-8.58S3.85 462 8.58 462h13.27V8.78C21.76 4.03 25.54.08 30.26 0h330.47c4.66.09 8.37 4.01 8.28 8.76V462h13.27c4.78 0 8.6 3.78 8.68 8.61 0 4.73-3.85 8.56-8.58 8.56H8.58zM351.85 462V17.17H39.02V462h312.83z"/><path class="st0" d="M8.58 477.75a7.17 7.17 0 110-14.34h14.69V8.78c-.07-4.01 3.08-7.29 7.02-7.37h330.45c3.83.07 6.94 3.35 6.87 7.31v454.69h14.69c4 0 7.19 3.17 7.27 7.22 0 3.9-3.21 7.11-7.17 7.11H8.58zm29.02-14.33h315.67V15.75H37.6v447.67z"/><path class="st0" d="M195.35 363.55c-1.76 0-3.42-.69-4.66-1.93l-20.7-20.7c-2.22-2.21-2.56-5.71-.82-8.32l7.91-11.87-7.91-11.86a6.557 6.557 0 01.06-7.4l7.85-11.38-7.97-12.36a6.59 6.59 0 01.06-7.23l7.91-11.87-7.91-11.86a6.618 6.618 0 01-1.11-3.66v-32.26c-16.14-9.69-25.74-26.64-25.74-45.51 0-29.32 23.85-53.17 53.17-53.17s53.17 23.85 53.17 53.17c0 19-9.71 36-26.01 45.66v125.25c0 1.76-.69 3.42-1.93 4.66l-20.7 20.7a6.51 6.51 0 01-4.67 1.94zm0-15.91l14.11-14.11V207.09c0-2.53 1.41-4.8 3.67-5.91 13.77-6.8 22.33-20.53 22.33-35.83 0-22.05-17.94-39.98-39.98-39.98s-39.98 17.94-39.98 39.98c0 15.19 8.47 28.88 22.11 35.72a6.556 6.556 0 013.64 5.89v34.15l9.24 13.86a6.573 6.573 0 010 7.31l-7.95 11.93 8.01 12.42a6.571 6.571 0 01-.12 7.32l-7.81 11.31 7.87 11.8a6.573 6.573 0 010 7.31l-7.35 11.03 12.21 12.24z"/><path class="st0" d="M195.49 113.6c28.54 0 51.75 23.22 51.75 51.75 0 18.72-9.89 35.61-26.01 44.84v126.07c0 1.37-.55 2.69-1.52 3.66l-20.7 20.7a5.178 5.178 0 01-7.32 0l-20.7-20.7a5.179 5.179 0 01-.65-6.53l8.43-12.65-8.43-12.65a5.156 5.156 0 01.05-5.81l8.39-12.15-8.48-13.16a5.183 5.183 0 01.05-5.68l8.43-12.65-8.43-12.65c-.57-.85-.87-1.85-.87-2.87v-33.07c-15.96-9.27-25.74-26.11-25.74-44.7 0-28.54 23.21-51.75 51.75-51.75zm15.39 220.52V207.09a5.18 5.18 0 012.88-4.64c14.26-7.05 23.12-21.26 23.12-37.1 0-22.83-18.57-41.4-41.4-41.4s-41.4 18.57-41.4 41.4c0 15.73 8.77 29.9 22.89 36.99 1.75.87 2.86 2.67 2.86 4.62v34.58l9.48 14.22c1.16 1.74 1.16 4 0 5.74l-8.47 12.71 8.51 13.21a5.205 5.205 0 01-.09 5.75l-8.35 12.1 8.4 12.6c1.16 1.74 1.16 4 0 5.74l-8 12 14.04 14.04 15.53-15.53z"/><path class="st0" d="M195.49 177.12c-12.2 0-22.12-9.92-22.12-22.12s9.92-22.12 22.12-22.12c12.2 0 22.12 9.92 22.12 22.12s-9.93 22.12-22.12 22.12zm0-31.06c-4.93 0-8.93 4.01-8.93 8.93s4.01 8.93 8.93 8.93 8.93-4.01 8.93-8.93-4.01-8.93-8.93-8.93z"/><path class="st0" d="M195.49 134.3c11.41 0 20.7 9.28 20.7 20.7s-9.29 20.7-20.7 20.7-20.7-9.28-20.7-20.7 9.28-20.7 20.7-20.7zm0 31.05c5.71 0 10.35-4.64 10.35-10.35s-4.64-10.35-10.35-10.35-10.35 4.64-10.35 10.35c0 5.7 4.64 10.35 10.35 10.35z"/></g></switch></svg>