<svg version="1.1" id="レイヤー_1" xmlns="http://www.w3.org/2000/svg" x="0" y="0" viewBox="0 0 44.31 63.18" xml:space="preserve"><style>.st0{fill:#10069f}</style><switch><g><path class="st0" d="M5.22 63.18C2.34 63.18 0 60.84 0 57.97V5.22C0 2.34 2.34 0 5.22 0H39.1c2.88 0 5.22 2.34 5.22 5.22v52.75c0 2.88-2.34 5.22-5.22 5.22H5.22zm0-60.75c-1.53 0-2.78 1.25-2.78 2.78v52.75a2.78 2.78 0 002.78 2.78H39.1a2.78 2.78 0 002.78-2.78V5.22c0-1.53-1.25-2.78-2.78-2.78H5.22z"/><path class="st0" d="M22.15 56.93c-5.05 0-9.15-4.11-9.15-9.16 0-2.95 1.45-5.74 3.88-7.46l.12-.08V10.78c0-2.84 2.31-5.15 5.15-5.15 2.84 0 5.16 2.31 5.16 5.15v29.45l.12.08a9.165 9.165 0 013.88 7.46c0 5.06-4.11 9.16-9.16 9.16zm0-48.87c-1.5 0-2.72 1.22-2.72 2.72V40.9l-.01.11-.03.19c-.07.24-.19.44-.37.6-.06.05-.13.1-.2.14a6.747 6.747 0 00-3.39 5.84c0 3.71 3.02 6.72 6.72 6.72s6.72-3.01 6.72-6.72c0-2.4-1.3-4.64-3.38-5.84a1.33 1.33 0 01-.19-.14c-.07-.06-.12-.12-.17-.17a1.112 1.112 0 01-.2-.4.633.633 0 01-.04-.21l-.01-.13V10.78a2.738 2.738 0 00-2.73-2.72zM8.09 13.93c-.67 0-1.22-.55-1.22-1.22s.55-1.22 1.22-1.22h5.5c.67 0 1.22.55 1.22 1.22s-.55 1.22-1.22 1.22h-5.5zm0 6c-.67 0-1.22-.55-1.22-1.22s.55-1.22 1.22-1.22h5.5c.67 0 1.22.55 1.22 1.22s-.55 1.22-1.22 1.22h-5.5zm0 6c-.67 0-1.22-.55-1.22-1.22s.55-1.22 1.22-1.22h5.5c.67 0 1.22.55 1.22 1.22s-.55 1.22-1.22 1.22h-5.5z"/><path class="st0" d="M8.09 31.93c-.67 0-1.22-.55-1.22-1.22s.55-1.22 1.22-1.22h5.5c.67 0 1.22.55 1.22 1.22s-.55 1.22-1.22 1.22h-5.5zm0 6c-.67 0-1.22-.55-1.22-1.22s.55-1.22 1.22-1.22h5.5c.67 0 1.22.55 1.22 1.22s-.55 1.22-1.22 1.22h-5.5zm22.63-24c-.67 0-1.22-.55-1.22-1.22s.55-1.22 1.22-1.22h5.5c.67 0 1.22.55 1.22 1.22s-.55 1.22-1.22 1.22h-5.5zm0 6c-.67 0-1.22-.55-1.22-1.22s.55-1.22 1.22-1.22h5.5c.67 0 1.22.55 1.22 1.22s-.55 1.22-1.22 1.22h-5.5zm0 6c-.67 0-1.22-.55-1.22-1.22s.55-1.22 1.22-1.22h5.5c.67 0 1.22.55 1.22 1.22s-.55 1.22-1.22 1.22h-5.5zm0 6c-.67 0-1.22-.55-1.22-1.22s.55-1.22 1.22-1.22h5.5c.67 0 1.22.55 1.22 1.22s-.55 1.22-1.22 1.22h-5.5zm0 6c-.67 0-1.22-.55-1.22-1.22s.55-1.22 1.22-1.22h5.5c.67 0 1.22.55 1.22 1.22s-.55 1.22-1.22 1.22h-5.5z"/></g></switch></svg>