<svg version="1.1" id="レイヤー_1" xmlns="http://www.w3.org/2000/svg" x="0" y="0" viewBox="0 0 61.51 62.11" xml:space="preserve"><style>.st0{fill:#10069f}</style><switch><g><path class="st0" d="M56.89 2.72c1.03 0 1.89.87 1.89 1.89v43.05c0 1.04-.85 1.89-1.89 1.89H35.72v9.83h-9.93v-9.83H4.61c-1.03 0-1.89-.87-1.89-1.89V4.61c0-1.03.87-1.89 1.89-1.89h52.28m0-2.72H4.61C2.08 0 0 2.08 0 4.61v43.05c0 2.54 2.08 4.61 4.61 4.61h18.45v9.83h15.38v-9.83h18.45c2.54 0 4.61-2.08 4.61-4.61V4.61C61.51 2.08 59.43 0 56.89 0z"/><path class="st0" d="M52.84 43.06H8.67c-1.81 0-3.29-1.48-3.29-3.29V8.67c0-1.81 1.48-3.29 3.29-3.29h44.17c1.81 0 3.29 1.48 3.29 3.29v31.1c0 1.81-1.48 3.29-3.29 3.29zM8.67 8.1c-.31 0-.57.26-.57.57v31.1c0 .31.26.57.57.57h44.17c.31 0 .57-.26.57-.57V8.67c0-.31-.26-.57-.57-.57H8.67zm8.58 51.29h27.01v2.72H17.25z"/><path class="st0" d="M9.23 35.9h43.05v2.6H9.23z"/><path class="st0" d="M13.94 24.9h8.07v12.3h-8.07zm12.78-6.15h8.07V37.2h-8.07zM39.5 12.6h8.07v24.6H39.5z"/></g></switch></svg>