<svg xmlns="http://www.w3.org/2000/svg" viewBox="0 0 113.39 113.38"><g data-name="レイヤー 2"><path d="M113.39 63.78h-10.72l-9.13-41.1V0h-73.7v22.68l-9.12 41.1H0v41.1h5.67v8.5h14.17v-8.5h73.7v8.5h14.18v-8.5h5.67zM74.62 33.66c-1.13-.74-1.87-3.55-2.22-7h17.93l1.12 5-36 5.35-35.89 5.37 3.49-15.7H41c-.34 3.43-1.08 6.24-2.22 7 3.22-2.14 32.58-2.14 35.84-.02zM23.84 4h65.7v18.68H72.18c-.07-5.55.74-11.29 2.44-12.4-3.26 2.12-32.6 2.12-35.86 0 1.71 1.11 2.52 6.85 2.44 12.4H23.84zm-4.48 39.3L35.3 56.06l56.34-23.49 6.93 31.21H14.81zM109 100.48H4.4v-32.3H109z" fill="#162789" data-name="レイヤー 1"/></g></svg>