<svg xmlns="http://www.w3.org/2000/svg" viewBox="0 0 67.14 68.03"><switch><g><path d="M64.74 22.81v17.01c0 1.21-.99 2.2-2.2 2.2h-5.6V22.81h-2.4v19.21h-5.6c-1.21 0-2.2-.99-2.2-2.2V22.81h-2.4v15.75c-.3-.37-.61-.74-.94-1.1l-4.3-17.82h8.53l-9.53-5.36C38.1 6.4 31.7 0 23.81 0 15.92 0 9.52 6.4 9.52 14.29L0 19.65h8.53l-4.3 17.82C1.57 40.35 0 43.85 0 47.62v20.41h47.62V47.62c0-1.22-.16-2.41-.48-3.56a4.6 4.6 0 001.78.36h2.3v7.31h1.8v16.31h5.4V51.73h1.8v-7.31h2.3a4.6 4.6 0 004.6-4.6V22.81h-2.38zm-52.77-7.09v-1.43c0-6.53 5.31-11.84 11.84-11.84s11.84 5.31 11.84 11.84v1.43l1.25.7 1.39.78H9.33l2.64-1.48zm20.26 5.37c0 5.63-3.78 10.21-8.42 10.21-4.64 0-8.42-4.58-8.42-10.21 0-.49.04-.97.09-1.44h16.65c.06.47.1.95.1 1.44zm-21.18-1.44h2.21c-.05.47-.08.96-.08 1.44 0 6.85 4.77 12.42 10.63 12.42 5.86 0 10.63-5.57 10.63-12.42 0-.49-.03-.97-.08-1.44h2.21l4.8 19.87-17.56 3.29-17.56-3.29 4.8-19.87z" fill="#10069f"/></g></switch></svg>