<svg viewBox="0 0 28.26 30.35" xmlns="http://www.w3.org/2000/svg"><switch><g fill="#10069f"><path d="M20.06 5.52c-4.5 0-3.71 1.36-5.93 1.36S12.71 5.52 8.2 5.52c-4.5 0-8.2 4.49-8.2 9.74 0 5.82 5.37 15.09 8.83 15.09s3.29-.67 5.31-.67 1.85.67 5.3.67c3.46 0 8.83-9.27 8.83-15.09-.01-5.25-3.71-9.74-8.21-9.74zm-.57 3.46c-.21-.63.13-1.31.77-1.52.68-.22 2.17-.16 2.96 1.7.26.61-.03 1.32-.64 1.58-.15.07-.31.1-.47.1-.47 0-.91-.28-1.11-.73-.07-.17-.14-.26-.18-.31a1.22 1.22 0 01-1.33-.82zm2.22 16c-.19 0-.38-.04-.56-.14-.59-.31-.82-1.04-.51-1.63 1.52-2.89 2.42-5.94 2.42-8.17 0-.67-.07-1.33-.2-1.98s.29-1.29.94-1.42 1.29.29 1.42.94c.17.81.25 1.64.25 2.47 0 2.63-.98 6.02-2.7 9.29-.21.41-.63.64-1.06.64zM7.25 1.3C6.37 1.05 5.3.22 6.11.02c.55-.14 2.31.4 3.44 1.12 1.82 1.16 4.24 3.93 4.3 4.35l-.02.01c-.7-.06-5.35.1-8.51-1.91-1.16-.73-2.24-1.88-1.25-2.43.88-.49 1.8-.38 3.17.15z"/></g></switch></svg>