<svg xmlns="http://www.w3.org/2000/svg" viewBox="0 0 113.39 113.39"><defs><style>.cls-1{fill:#162789}</style></defs><g id="レイヤー_2" data-name="レイヤー 2"><g id="レイヤー_1-2" data-name="レイヤー 1"><path class="cls-1" d="M85 61V22.68H58.69v-9c1.79.61 2.43 1.92 5.21 1.92 3.6 0 3.6-2.23 7.2-2.23 2.89 0 3.46 1.43 5.44 2V2c-2-.57-2.55-2-5.44-2-3.6 0-3.6 2.23-7.2 2.23-2.78 0-3.42-1.32-5.21-1.93V0h-4v22.68H28.35V61H0v52.44h113.39V61zm24.35 48.44H4V65h28.35V26.68H81V65h28.35z"/><path class="cls-1" d="M56.69 31.31a16.17 16.17 0 1016.18 16.17 16.18 16.18 0 00-16.18-16.17zm0 28.34a12.17 12.17 0 118.51-20.87l-8 6.61-6.54-3.92 4 6.66a2.12 2.12 0 004.14-.65 2.73 2.73 0 00-.06-.5l6.63-8a12.16 12.16 0 01-8.7 20.68zM34.74 75.54v4.76H18.17v-4.76h16.57m4-4H14.17V84.3h24.57V71.54zm26.26 4v4.76H48.41v-4.76H65m4-4H44.41V84.3H69V71.54zm26.21 4v4.76H78.64v-4.76h16.57m4-4H74.64V84.3h24.57V71.54zM34.74 94v4.75H18.17V94h16.57m4-4H14.17v12.75h24.57V90zM65 94v4.75H48.41V94H65m4-4H44.41v12.75H69V90zm26.21 4v4.75H78.64V94h16.57m4-4H74.64v12.75h24.57V90z"/></g></g></svg>