<svg xmlns="http://www.w3.org/2000/svg" viewBox="0 0 113.39 113.38"><defs><style>.cls-1{fill:#162789;}</style></defs><title>アセット 4</title><g id="レイヤー_2" data-name="レイヤー 2"><g id="レイヤー_1-2" data-name="レイヤー 1"><path class="cls-1" d="M113.39,63.78H102.67l-9.13-41.1h0V0H19.84V22.68l-9.12,41.1H0v41.1H5.67v8.5H19.84v-8.5h73.7v8.5h14.18v-8.5h5.67ZM74.62,33.66c-1.13-.74-1.87-3.55-2.22-7H90.33l1.12,5-36,5.35L19.56,42.38l3.49-15.7H41c-.34,3.43-1.08,6.24-2.22,7C42,31.54,71.36,31.54,74.62,33.66ZM23.84,4h65.7V22.68H72.18c-.07-5.55.74-11.29,2.44-12.4-3.26,2.12-32.6,2.12-35.86,0,1.71,1.11,2.52,6.85,2.44,12.4H23.84ZM19.36,43.3,35.3,56.06,91.64,32.57l6.93,31.21H14.81ZM109,100.48H4.4V68.18H109Z"/></g></g></svg>