<svg xmlns="http://www.w3.org/2000/svg" viewBox="0 0 113.39 113.39"><defs><style>.cls-1{fill:#162789;}</style></defs><title>アセット 3</title><g id="レイヤー_2" data-name="レイヤー 2"><g id="レイヤー_1-2" data-name="レイヤー 1"><path class="cls-1" d="M85,61V22.68H58.69v-9c1.79.61,2.43,1.92,5.21,1.92,3.6,0,3.6-2.23,7.2-2.23,2.89,0,3.46,1.43,5.44,2V2c-2-.57-2.55-2-5.44-2-3.6,0-3.6,2.23-7.2,2.23C61.12,2.23,60.48.91,58.69.3V0h-4V22.68H28.35V61H0v52.44H113.39V61Zm24.35,48.44H4V65H32.35V26.68H81V65h28.35Z"/><path class="cls-1" d="M56.69,31.31A16.17,16.17,0,1,0,72.87,47.48,16.18,16.18,0,0,0,56.69,31.31Zm0,28.34A12.17,12.17,0,1,1,65.2,38.78l-8,6.61-6.54-3.92,4,6.66a2.12,2.12,0,0,0,4.14-.65,2.73,2.73,0,0,0-.06-.5l6.63-8a12.16,12.16,0,0,1-8.7,20.68Z"/><path class="cls-1" d="M34.74,75.54V80.3H18.17V75.54H34.74m4-4H14.17V84.3H38.74V71.54Z"/><path class="cls-1" d="M65,75.54V80.3H48.41V75.54H65m4-4H44.41V84.3H69V71.54Z"/><path class="cls-1" d="M95.21,75.54V80.3H78.64V75.54H95.21m4-4H74.64V84.3H99.21V71.54Z"/><path class="cls-1" d="M34.74,94v4.75H18.17V94H34.74m4-4H14.17v12.75H38.74V90Z"/><path class="cls-1" d="M65,94v4.75H48.41V94H65m4-4H44.41v12.75H69V90Z"/><path class="cls-1" d="M95.21,94v4.75H78.64V94H95.21m4-4H74.64v12.75H99.21V90Z"/></g></g></svg>