<svg xmlns="http://www.w3.org/2000/svg" viewBox="0 0 113.39 82.2"><defs><style>.cls-1{fill:#162789;}</style></defs><title>アセット 1</title><g id="レイヤー_2" data-name="レイヤー 2"><g id="レイヤー_1-2" data-name="レイヤー 1"><path class="cls-1" d="M104.88,4a4.51,4.51,0,0,1,4.51,4.5V73.7a4.51,4.51,0,0,1-4.51,4.5H8.5A4.51,4.51,0,0,1,4,73.7V8.5A4.51,4.51,0,0,1,8.5,4h96.38m0-4H8.5A8.53,8.53,0,0,0,0,8.5V73.7a8.52,8.52,0,0,0,8.5,8.5h96.38a8.53,8.53,0,0,0,8.51-8.5V8.5A8.53,8.53,0,0,0,104.88,0Z"/><path class="cls-1" d="M102.3,19.59v43H11.09v-43H102.3m1.16-4H9.92a2.84,2.84,0,0,0-2.83,2.83V63.78a2.83,2.83,0,0,0,2.83,2.83h93.54a2.84,2.84,0,0,0,2.84-2.83V18.42a2.85,2.85,0,0,0-2.84-2.83Z"/><path class="cls-1" d="M92.38,28.09v6.18H42.27V28.09H92.38m1.16-4H41.1a2.84,2.84,0,0,0-2.83,2.84v8.5a2.84,2.84,0,0,0,2.83,2.84H93.54a2.85,2.85,0,0,0,2.84-2.84v-8.5a2.85,2.85,0,0,0-2.84-2.84Z"/><path class="cls-1" d="M49.61,52.44a5.67,5.67,0,1,1-5.67-5.67A5.67,5.67,0,0,1,49.61,52.44Z"/><path class="cls-1" d="M65.2,52.44a5.67,5.67,0,1,1-5.67-5.67A5.67,5.67,0,0,1,65.2,52.44Z"/><path class="cls-1" d="M80.79,52.44a5.67,5.67,0,1,1-5.67-5.67A5.67,5.67,0,0,1,80.79,52.44Z"/><path class="cls-1" d="M96.38,52.44a5.67,5.67,0,1,1-5.67-5.67A5.67,5.67,0,0,1,96.38,52.44Z"/><path class="cls-1" d="M27.64,23.74a5,5,0,0,0-5,5V47.86H20.59a5,5,0,0,0,0,10h7.05c4.32,0,5-3.51,5-7.83V28.74A5,5,0,0,0,27.64,23.74Zm2.5,29.38a2.5,2.5,0,0,1-5,0V28.74a2.5,2.5,0,1,1,5,0Z"/></g></g></svg>