<svg xmlns="http://www.w3.org/2000/svg" viewBox="0 0 113.39 113.39"><defs><style>.cls-1{fill:#162789;}</style></defs><title>アセット 2</title><g id="レイヤー_2" data-name="レイヤー 2"><g id="レイヤー_1-2" data-name="レイヤー 1"><path class="cls-1" d="M105.31,96.11c-3.57-6.69-7.57-10.5-11.9-11.33L77.77,81.35l-6.25-7.88L70.14,74s-.56.21-1.53.49V69.73c.48-.27,1-.56,1.41-.85A10.15,10.15,0,0,0,84.18,54.35a7.66,7.66,0,0,0,0-15.16,33.6,33.6,0,0,0-.4-3.78,74,74,0,0,0-.13-11C82.65,11,71.57,0,56.69,0S31.42,11,29.76,24.41a69,69,0,0,0-.33,12.51c-.08.75-.15,1.51-.19,2.27a7.66,7.66,0,0,0,1.1,15.25,7.42,7.42,0,0,0,1.34-.13A30.37,30.37,0,0,0,44.77,69.73V74.5c-1-.28-1.51-.49-1.52-.49l-1.38-.54-6.25,7.88L20,84.78c-4.32.83-8.33,4.64-11.89,11.33L0,113.39H4.68L11.62,98c2.88-5.39,6.11-8.68,9.14-9.26L37,85.14c1,.27,2.78.77,5.09,1.3L31,94.14v19.25h2.5V95.45l11.94-8.3a61,61,0,0,0,11.24,1.26c7.65,0,17-2.51,19.69-3.27L92.63,88.7c3,.58,6.26,3.87,9.14,9.26l6.94,15.43h4.68Zm-75-45.67a3.67,3.67,0,0,1-1.09-7.17c0,.12,0,.24,0,.36,0,.4.06.79.1,1.18l.06.59c0,.39.1.77.16,1.15,0,.19,0,.38.08.57.07.4.15.8.23,1.19,0,.17.06.34.1.5.1.48.22,1,.34,1.43,0,.07,0,.14,0,.2ZM83,50.27c.13-.48.25-1,.35-1.46,0-.16.07-.33.1-.49.08-.4.16-.79.22-1.2l.09-.58c.06-.37.11-.75.16-1.13L84,44.8c0-.38.07-.77.1-1.16l0-.37A3.67,3.67,0,0,1,83,50.44H83A.85.85,0,0,0,83,50.27Zm-48.28.79c-.1-.3-.19-.61-.28-.91l-.09-.33c-.09-.29-.17-.59-.24-.89l-.09-.39c-.07-.28-.13-.57-.19-.86l-.09-.44c-.06-.28-.11-.55-.15-.83s0-.33-.08-.5-.08-.53-.11-.79l-.06-.56c0-.25,0-.51-.08-.76l0-.57c0-.68-.07-1.37-.08-2.06V41a33.28,33.28,0,0,1,.41-5c2.6-5.39,6.06-11.45,7.89-10.16C54.18,34.75,74,39.88,80.2,41.33c0,.14,0,.28,0,.42,0,.48,0,1-.06,1.45,0,.2,0,.4,0,.6s0,.51-.07.76l-.06.56-.12.79c0,.17,0,.34-.07.5l-.15.84-.09.43c-.06.29-.12.58-.19.87l-.09.37-.24.91-.09.31c-.09.31-.19.62-.29.93-2.43,7.44-7.49,13.34-13.84,16.1h0l-1.07.43h0l-1.1.37h0q-.56.17-1.11.3h0c-.36.09-.72.16-1.09.23l-.07,0c-.34.06-.69.11-1,.15l-.14,0q-.48.06-1,.09l-.2,0c-.4,0-.8,0-1.2,0s-.8,0-1.19,0l-.2,0c-.33,0-.67,0-1-.09l-.12,0c-.36,0-.71-.09-1.06-.15h0q-.55-.11-1.11-.24h0a21.44,21.44,0,0,1-2.24-.68h0l-1.07-.43,0,0C42.25,64.4,37.18,58.5,34.75,51.06ZM64.61,71.53v3.9h0c-.63.11-1.25.21-1.88.29l-.11,0c-.63.08-1.25.15-1.88.21h-.08a45,45,0,0,1-7.79,0l-.24,0L51,75.77l-.49-.07c-.5-.07-1-.15-1.49-.24l-.22,0v-3.9a24.14,24.14,0,0,0,5.08,1.17H54c.37,0,.75.08,1.13.1l.3,0c.43,0,.86,0,1.28,0s.86,0,1.28,0l.31,0c.38,0,.75-.06,1.13-.1h.13A24.06,24.06,0,0,0,64.61,71.53ZM56.69,84.41c-5.65,0-12.57-1.55-16.39-2.53l2.91-3.67,1.56.44v0l1.2.26c.84.19,1.79.38,2.84.56l.18,0,1.06.16.17,0,1.14.13.42,0,.74.07L53,80l.71,0,.5,0,.8,0h.42l1.23,0,1.24,0h.42l.8,0,.5,0,.7,0,.51,0,.75-.07.42,0,1.14-.13.16,0,1.08-.16.16,0c1.05-.18,2-.37,2.86-.56l1.18-.26v0c.61-.16,1.13-.31,1.56-.44l2.92,3.67C69.27,82.86,62.36,84.41,56.69,84.41Z"/></g></g></svg>