<svg xmlns="http://www.w3.org/2000/svg" viewBox="0 0 113.39 113.39"><defs><style>.cls-1{fill:#162789;}</style></defs><title>アセット 3</title><g id="レイヤー_2" data-name="レイヤー 2"><g id="レイヤー_1-2" data-name="レイヤー 1"><path class="cls-1" d="M59.69,36.25v5h-6v-5H35.6V48.67H53.69v-5h6v5h18.1V36.25Zm-8.5,9.92H38.1V38.75H51.19v7.42Zm24.1,0H62.19V38.75h13.1Z"/><path class="cls-1" d="M111.59,93.71C110.15,88.13,104.81,83,99.43,82l-28-4.85V67.89a31.56,31.56,0,0,0,11.21-16.3l.38,0a7.67,7.67,0,0,0,.85-15.29c0-.18,0-.35-.08-.52a67,67,0,0,0-.39-11.39C81.77,11,71.36,0,56.49,0s-26,11-26.93,24.41c-.14,1.95-.65,9.21-.85,12a7.67,7.67,0,0,0,1.63,15.16l.39,0a31.56,31.56,0,0,0,11.21,16.3V77.1L14,82C8.58,83,3.23,88.13,1.8,93.71L0,113.39H4L5.71,94.56c1.11-4,5.19-8,9-8.68l19.1-3.31L45.1,98.15l7.34-5.66v9.56l-2.55,11.34H63.5l-2.56-11.34V92.49l7.35,5.66L79.62,82.57l19.1,3.31c3.77.71,7.85,4.67,9,8.68l1.73,18.83h4ZM84.2,40.45a3.67,3.67,0,0,1-.57,7.11,36.1,36.1,0,0,0,.57-6.46ZM26.67,43.94a3.69,3.69,0,0,1,2.52-3.49c0,.22,0,.43,0,.65a37,37,0,0,0,.57,6.46A3.68,3.68,0,0,1,26.67,43.94Zm7.58,5.43,0-.21-.12-.46c-.2-.84-.37-1.69-.5-2.54l-.06-.39c0-.23-.07-.47-.1-.7l-.09-.9c0-.18,0-.37,0-.55s0-.58-.05-.88c0-.13,0-.26,0-.4,0-.41,0-.83,0-1.24s0-.86,0-1.29,0-.85.08-1.3l0-.38c0-.53.11-1.05.18-1.57,8.67-2,26.91-6.85,38.2-14.79,1.79-1.25,5.13,5.79,7.72,12.21a33.09,33.09,0,0,1,.65,4.16l0,.37c0,.45.06.88.08,1.3s0,.86,0,1.29,0,.83,0,1.24c0,.14,0,.27,0,.4,0,.3,0,.59-.06.88s0,.36,0,.54-.06.61-.1.91l-.09.69-.06.41c-.14.84-.3,1.67-.5,2.5,0,.2-.09.4-.14.6l0,.08a27.43,27.43,0,0,1-11,16l-.47.31-.35.21c-.29.17-.59.35-.89.51l-.27.14c-.64.33-1.28.63-1.93.89l-.16.07c-.66.25-1.32.48-2,.67l-.25.06c-.31.09-.62.16-.93.23l-.46.09c-.16,0-.33.06-.5.09l-.59.09-.37,0q-.48.06-1,.09h-.29c-.35,0-.7,0-1.06,0s-.7,0-1,0h-.29q-.48,0-1-.09l-.38,0-.59-.09-.5-.09-.48-.1c-.3-.06-.61-.14-.91-.22l-.25-.06c-.67-.19-1.34-.42-2-.67l-.16-.07a20.77,20.77,0,0,1-1.92-.89l-.27-.14L46,65.83l-.33-.2-.48-.32A27.38,27.38,0,0,1,34.25,49.37Zm12,21.13.92.43a24.6,24.6,0,0,0,8.08,1.9c.46,0,.93,0,1.39,0s.93,0,1.39,0a24.54,24.54,0,0,0,8.08-1.9l.29-.14c.32-.14.63-.27,1-.43l0,0V78.6L56.69,85.5,45.94,78.6V70.34l.05,0Zm-.69,24.1-9.1-12.5,5.88-1,11.33,7.27Zm22.17,0-8.12-6.25L71,81.08l5.88,1Z"/></g></g></svg>