<svg xmlns="http://www.w3.org/2000/svg" viewBox="0 0 95.42 113.39"><defs><style>.cls-1{fill:#162789}</style></defs><g id="レイヤー_2" data-name="レイヤー 2"><g id="レイヤー_1-2" data-name="レイヤー 1"><circle class="cls-1" cx="47.71" cy="41.39" r="6"/><path class="cls-1" d="M47.71 113.39a2 2 0 01-2-2v-56.7a2 2 0 014 0v56.7a2 2 0 01-2 2zM63.3 69.46a2 2 0 01-1-3.72 28.47 28.47 0 000-48.93 2 2 0 012-3.44 32.48 32.48 0 010 55.81 2 2 0 01-1 .28zm-31.18 0a2 2 0 01-1-.28 32.49 32.49 0 010-55.81 2 2 0 112.05 3.44 28.48 28.48 0 000 48.93 2 2 0 01-1 3.72z"/><path class="cls-1" d="M71.1 82.55a2 2 0 01-1-3.72 43.7 43.7 0 000-75.11A2 2 0 0172.12.28a47.71 47.71 0 010 82 2 2 0 01-1.02.27zm-46.78 0a2 2 0 01-1-.28 47.71 47.71 0 010-82 2 2 0 012.05 3.44 43.7 43.7 0 000 75.11 2 2 0 01-1 3.72z"/></g></g></svg>