<svg xmlns="http://www.w3.org/2000/svg" viewBox="0 0 113.39 113.39"><g data-name="レイヤー 2"><path d="M111.59 93.71C110.15 88.13 104.81 83 99.43 82l-28-4.85v-9.26a31.56 31.56 0 0011.21-16.3h.38a7.67 7.67 0 00.85-15.29c0-.36-.1-.71-.16-1.07-.23-3.3-.64-9.12-.76-10.84C82 11 70.91 0 56 0S30.76 11 29.11 24.41a67.45 67.45 0 00-.36 12 7.67 7.67 0 001.59 15.17h.39a31.56 31.56 0 0011.21 16.3v9.22L14 82C8.58 83 3.23 88.13 1.8 93.71L0 113.39h4l1.71-18.83c1.11-4 5.19-8 9-8.68l27.72-4.8 14.11 9h-4.45l-13.82-4.56V104l13.82-4.61h9.21L75.12 104V85.52L61.3 90.13h-4.42l14.11-9 27.73 4.8c3.77.71 7.85 4.67 9 8.68l1.73 18.83h4zM86.71 43.94a3.67 3.67 0 01-3.08 3.62 36.1 36.1 0 00.57-6.46v-.64a3.66 3.66 0 012.51 3.48zm-60 0a3.68 3.68 0 012.43-3.45c0 .24.06.47.08.68a37.13 37.13 0 00.57 6.39 3.68 3.68 0 01-3.12-3.62zM67.45 78.6l-10.76 6.9-10.75-6.9v-8.26h.05l.31.13.92.43a24.6 24.6 0 008.08 1.9h2.78a24.54 24.54 0 008.08-1.9l.29-.14c.32-.14.63-.27 1-.43zm.72-13.28l-.47.31-.35.21c-.29.17-.59.35-.89.51l-.27.14c-.64.33-1.28.63-1.93.89l-.16.07c-.66.25-1.32.48-2 .67l-.25.06c-.31.09-.62.16-.93.23l-.46.09c-.16 0-.33.06-.5.09l-.59.09H59q-.48.06-1 .09h-2.64q-.48 0-1-.09h-.38l-.59-.09-.5-.09-.48-.1c-.3-.06-.61-.14-.91-.22l-.25-.06c-.67-.19-1.34-.42-2-.67l-.16-.07a20.77 20.77 0 01-1.92-.89l-.27-.14-.9-.52-.33-.2-.48-.32a27.38 27.38 0 01-11-15.94v-.21l-.12-.46c-.2-.84-.37-1.69-.5-2.54l-.06-.39c0-.23-.07-.47-.1-.7l-.09-.9v-.55c0-.18 0-.58-.05-.88v-2.93c0-.43 0-.85.08-1.3v-.38a30 30 0 016.51-16.34.91.91 0 011 0c11.69 8.22 30.84 13.15 39.08 15 .06.46.12.91.16 1.38v.37c0 .45.06.88.08 1.3s0 .86 0 1.29v1.64c0 .3 0 .59-.06.88s0 .36 0 .54-.06.61-.1.91l-.09.69-.06.41c-.14.84-.3 1.67-.5 2.5 0 .2-.09.4-.14.6v.08a27.43 27.43 0 01-11.06 15.94z" fill="#162789" data-name="レイヤー 1"/></g></svg>