<svg version="1.1" id="レイヤー_1" xmlns="http://www.w3.org/2000/svg" x="0" y="0" viewBox="0 0 113.39 113.39" xml:space="preserve"><style>.st0{fill:#10069f}</style><switch><g><path class="st0" d="M97.07 78.5H16.31c-3.06 0-5.56-2.49-5.56-5.56V15.42c0-3.06 2.49-5.56 5.56-5.56h80.76c3.06 0 5.56 2.49 5.56 5.56v57.52a5.56 5.56 0 01-5.56 5.56zM16.31 13.87c-.86 0-1.56.7-1.56 1.56v57.52c0 .86.7 1.56 1.56 1.56h80.76c.86 0 1.56-.7 1.56-1.56V15.42c0-.86-.7-1.56-1.56-1.56H16.31z"/><path class="st0" d="M104.88 0H8.5C3.83 0 0 3.79 0 8.42v78.6c0 4.63 3.83 8.42 8.5 8.42h34.02v13.94H31.8v4h49.79v-4H70.87V95.45h34.02c4.68 0 8.5-3.79 8.5-8.42V8.42c0-4.63-3.83-8.42-8.51-8.42zm4.51 87.02c0 2.44-2.02 4.42-4.5 4.42H66.87v17.94H46.52V91.45H8.5c-2.48 0-4.5-1.98-4.5-4.42V8.42C4 5.98 6.02 4 8.5 4h96.38c2.48 0 4.5 1.98 4.5 4.42v78.6z"/><path class="st0" d="M18.43 29h76.54v1H18.43zm72.07-2.72h-8.04c-1.3 0-2.35-1.05-2.35-2.35v-.8c0-1.3 1.05-2.35 2.35-2.35h8.04c1.3 0 2.35 1.05 2.35 2.35v.8c0 1.3-1.05 2.35-2.35 2.35zm-8.04-4.49c-.74 0-1.35.6-1.35 1.35v.8c0 .74.61 1.35 1.35 1.35h8.04c.75 0 1.35-.61 1.35-1.35v-.8c0-.74-.61-1.35-1.35-1.35h-8.04zm5.33 18.06h-3.1v-3.02h3.1v3.02zm-2.1-1h1.1v-1.02h-1.1v1.02zm2.1 13h-3.1v-3.02h3.1v3.02zm-2.1-1h1.1v-1.02h-1.1v1.02zm2.1 13.01h-3.1v-3.02h3.1v3.02zm-2.1-1h1.1v-1.02h-1.1v1.02zm-7.92-21.32H60.83c-1.2 0-2.18-.98-2.18-2.18v-1.14c0-1.2.98-2.18 2.18-2.18h16.94c1.2 0 2.18.98 2.18 2.18v1.14c0 1.21-.98 2.18-2.18 2.18zm-16.94-4.49c-.65 0-1.18.53-1.18 1.18v1.14c0 .65.53 1.18 1.18 1.18h16.94c.65 0 1.18-.53 1.18-1.18v-1.14c0-.65-.53-1.18-1.18-1.18H60.83z"/><path class="st0" d="M75.74 38.34h2.47l-1.27 1.38zm2.03 14.77H60.83c-1.2 0-2.18-.98-2.18-2.18v-1.14c0-1.2.98-2.18 2.18-2.18h16.94c1.2 0 2.18.98 2.18 2.18v1.14c0 1.2-.98 2.18-2.18 2.18zm-16.94-4.5c-.65 0-1.18.53-1.18 1.18v1.14c0 .65.53 1.18 1.18 1.18h16.94c.65 0 1.18-.53 1.18-1.18v-1.14c0-.65-.53-1.18-1.18-1.18H60.83z"/><path class="st0" d="M75.74 49.9h2.47l-1.27 1.38zm2.03 15.19H60.83c-1.2 0-2.18-.98-2.18-2.18v-1.14c0-1.2.98-2.18 2.18-2.18h16.94c1.2 0 2.18.98 2.18 2.18v1.14c0 1.21-.98 2.18-2.18 2.18zM60.83 60.6c-.65 0-1.18.53-1.18 1.18v1.14c0 .65.53 1.18 1.18 1.18h16.94c.65 0 1.18-.53 1.18-1.18v-1.14c0-.65-.53-1.18-1.18-1.18H60.83z"/><path class="st0" d="M75.74 61.89h2.47l-1.27 1.38zM48.56 50.05h-4.59c-.28 0-.5-.22-.5-.5s.22-.5.5-.5h4.59c.28 0 .5.22.5.5s-.23.5-.5.5zM24 22.08l.02-.07c0-.01.36-1.22-.62-1.76-.26-.15-.65-.19-.96-.21-.25.35-.41.77-.45 1.21-.01.13-.02.26-.01.39.74.06 1.93.41 1.95.42l.07.02z"/><path class="st0" d="M30.42 25.41v.55c-.04.02-.11.06-.16.06h-.48c-.08 0-.13-.01-.16-.04-.05-.05-.05-.17-.05-.35v-.14l-.07.06c-.46.39-.96.59-1.46.59-.24 0-.49-.05-.74-.13-.59-.21-.96-.72-1.01-1.37-.05-.71.31-1.37.91-1.67.54-.28 2.34-.29 2.36-.29h.04v-.04c0-.01-.01-1.25-1.09-1.48a1.66 1.66 0 00-.24-.02c-.26 0-.56.06-.78.11-.12.03-.23.05-.28.05-.12 0-.22-.13-.26-.23-.07-.17-.13-.32.12-.44.17-.08.77-.24 1.24-.24.07 0 .13 0 .19.01.73.09 1.25.38 1.61.9.21.3.33.79.33 1.34v1.18c-.02.7-.02 1.32-.02 1.59m1.49-1.45c.17-2.08-1.21-4-3.2-4.45-.5-.11-1-.13-1.48-.06-.59.09-1.18-.02-1.72-.27-.44-.21-.95-.28-1.48-.19-.35.07-.68.21-.96.41.2.03.38.08.52.14.67.3 1.06.71 1.26 1.32.11.34.08.83-.08 1.36l-.34 1.11c-.21.68-.39 1.28-.47 1.55-.02.06-.04.13-.06.19.5 1.42 1.72 2.51 3.29 2.74 2.33.35 4.51-1.39 4.72-3.85"/><path class="st0" d="M29.53 23.33h-.04c-.12.01-.72.06-1.03.09h-.04c-.38.04-.77.08-1.04.38-.23.26-.31.65-.2.97.15.42.54.67 1.04.67.37 0 .73-.14.96-.38.07-.07.12-.14.17-.22.25-.44.23-1.05.18-1.48v-.03zm-5.83-.71c-.16-.04-.72-.16-1.01-.21l-.05-.01c-.18-.04-.36-.07-.54-.07h-.04c-.21 0-.39.05-.54.14-.3.19-.5.55-.49.89.02.46.33.82.82.97.14.04.29.06.43.06.22 0 .44-.05.62-.15.08-.05.16-.1.23-.17.06-.06.11-.12.16-.19.26-.35.39-.83.45-1.19l.01-.07h-.05zm24.44 15.27c-.54-1.36-1.33-2.75-3.12-2.82H32.19c-1.77.06-2.56 1.46-3.11 2.85-.14.43-3.49 10.71-3.49 16.84 0 6.2 2.72 10.12 2.84 10.29.5.69 1.34 1.84 2.71 1.89h14.97c1.34-.06 2.18-1.21 2.69-1.9.12-.16 2.83-4.09 2.83-10.29 0-6.12-3.34-16.4-3.49-16.86zm-18.12.36c.62-1.56 1.22-2.15 2.19-2.19H45c.99.04 1.59.63 2.19 2.16.03.11 3.44 10.56 3.44 16.53 0 1.07-.09 2.06-.23 2.98a.413.413 0 00-.19-.02l-1.04.08v-5.41c0-.28-.22-.5-.5-.5h-4.59c-.28 0-.5.22-.5.5v5.68c-1.48.05-3.14.08-4.94.08-6.66 0-11.53-.43-11.58-.44a.413.413 0 00-.22.04c-.14-.92-.23-1.92-.23-3-.01-5.95 3.39-16.41 3.41-16.49zm18.14 19.61c-.93.06-2.15.12-3.59.18v-5.15h3.59v4.97zm-.17 6.6c-.53.73-1.12 1.44-1.91 1.48H31.17c-.8-.03-1.39-.75-1.92-1.48-.02-.03-1.51-2.19-2.25-5.75.49.04 5.24.44 11.62.44 6.27 0 10.97-.38 11.6-.43-.73 3.55-2.22 5.71-2.23 5.74z"/></g></switch></svg>