<svg xmlns="http://www.w3.org/2000/svg" viewBox="0 0 113.38 113.39"><defs><style>.cls-1{fill:#162789}</style></defs><g id="レイヤー_2" data-name="レイヤー 2"><g id="レイヤー_1-2" data-name="レイヤー 1"><path class="cls-1" d="M80 51.36a9.49 9.49 0 11-19 0c0-5.26 9.49-23.22 9.49-23.22S80 46.1 80 51.36zM2 45.3a2 2 0 01-2-2A43.36 43.36 0 0143.3 0a2 2 0 010 4A39.34 39.34 0 004 43.3a2 2 0 01-2 2z"/><path class="cls-1" d="M14.05 45.3a2 2 0 01-2-2A31.29 31.29 0 0143.3 12.05a2 2 0 010 4A27.28 27.28 0 0016.05 43.3a2 2 0 01-2 2z"/><path class="cls-1" d="M26.09 45.3a2 2 0 01-2-2A19.23 19.23 0 0143.3 24.1a2 2 0 010 4 15.23 15.23 0 00-15.21 15.2 2 2 0 01-2 2zm77.5 36.9h2.32v-17h-7.09V31.64L70.47 17.47 42.13 31.64v5.65a6.88 6.88 0 000 13.17V65.2H35v17h2.32l-9.81 31.19h4.2l1.29-3.91 37.47-10.29L108 109.48l1.23 3.91h4.18zM70.47 21.94l24.35 12.18V65.2H46.13V50.46a6.88 6.88 0 000-13.17v-3.17zM39 69.2h62.87v9H39zm-4.63 35.74l4.53-14.41 24 6.59zm5.72-18.23l1.42-4.51H99.4l1.41 4.51L70.47 95zM78 97.12l24-6.59 4.53 14.41z"/></g></g></svg>