<svg version="1.1" id="レイヤー_1" xmlns="http://www.w3.org/2000/svg" x="0" y="0" viewBox="0 0 63.14 113.39" xml:space="preserve"><style>.st0{fill:#10069f}</style><switch><g><path class="st0" d="M55.15 0H7.99C3.58 0 0 3.58 0 7.99v97.41c0 4.41 3.58 7.99 7.99 7.99h47.17c4.41 0 7.99-3.58 7.99-7.99V7.99c-.01-4.41-3.59-7.99-8-7.99zM7.99 4h47.17c2.2 0 3.99 1.79 3.99 3.99v1.2H4v-1.2C4 5.79 5.79 4 7.99 4zm51.15 9.18v84.99H4V13.18h55.14zm-3.99 96.21H7.99c-2.2 0-3.99-1.79-3.99-3.99v-3.23h55.14v3.23c0 2.2-1.79 3.99-3.99 3.99z"/><path class="st0" d="M17.48 42.6h4.94v4.93h-4.94z"/><path class="st0" d="M26.04 51.16H13.85V38.98h12.19v12.18zm-10.73-1.45h9.27v-9.27h-9.27v9.27zm2.17 16.14h4.94v4.93h-4.94z"/><path class="st0" d="M26.04 74.41H13.85V62.22h12.19v12.19zm-10.73-1.46h9.27v-9.27h-9.27v9.27zM40.73 42.6h4.93v4.93h-4.93z"/><path class="st0" d="M49.29 51.16H37.1V38.98h12.19v12.18zm-10.73-1.45h9.27v-9.27h-9.27v9.27zm-23.98 4.48h4.94v4.93h-4.94zm7.08 0h9.12v4.93h-9.12z"/><path class="st0" d="M29.02 54.19h4.94v4.93h-4.94zm6.93 5.68h6.83v8.87h-6.83zm-6.93 1.18h4.94v9.66h-4.94zm14.6 1.22h4.94v11.41h-4.94z"/><path class="st0" d="M28.91 68.75H40.5v4.93H28.91zm8.8-14.56h10.85v4.93H37.71zm-8.69-6.97h4.94v4.93h-4.94zm0-6.98h4.94v4.94h-4.94z"/></g></switch></svg>