<svg xmlns="http://www.w3.org/2000/svg" viewBox="0 0 113.39 113.39"><defs><style>.cls-1{fill:#162789;}</style></defs><title>アセット 5</title><g id="レイヤー_2" data-name="レイヤー 2"><g id="レイヤー_1-2" data-name="レイヤー 1"><path class="cls-1" d="M111.59,93.71C110.15,88.13,104.81,83,99.43,82l-28-4.85V67.89a31.56,31.56,0,0,0,11.21-16.3l.38,0a7.67,7.67,0,0,0,.85-15.29c0-.36-.1-.71-.16-1.07-.23-3.3-.64-9.12-.76-10.84C82,11,70.91,0,56,0S30.76,11,29.11,24.41a67.45,67.45,0,0,0-.36,12,7.67,7.67,0,0,0,1.59,15.17l.39,0a31.56,31.56,0,0,0,11.21,16.3V77.1L14,82C8.58,83,3.23,88.13,1.8,93.71L0,113.39H4L5.71,94.56c1.11-4,5.19-8,9-8.68l27.72-4.8,14.11,9H52.09L38.27,85.52V104l13.82-4.61H61.3L75.12,104V85.52L61.3,90.13H56.88l14.11-9,27.73,4.8c3.77.71,7.85,4.67,9,8.68l1.73,18.83h4ZM86.71,43.94a3.67,3.67,0,0,1-3.08,3.62,36.1,36.1,0,0,0,.57-6.46v-.64A3.66,3.66,0,0,1,86.71,43.94Zm-60,0a3.68,3.68,0,0,1,2.43-3.45c0,.24.06.47.08.68a37.13,37.13,0,0,0,.57,6.39A3.68,3.68,0,0,1,26.67,43.94ZM67.45,78.6,56.69,85.5,45.94,78.6V70.34l.05,0,.31.13.92.43a24.6,24.6,0,0,0,8.08,1.9c.46,0,.93,0,1.39,0s.93,0,1.39,0a24.54,24.54,0,0,0,8.08-1.9l.29-.14c.32-.14.63-.27,1-.43l0,0Zm.72-13.28-.47.31-.35.21c-.29.17-.59.35-.89.51l-.27.14c-.64.33-1.28.63-1.93.89l-.16.07c-.66.25-1.32.48-2,.67l-.25.06c-.31.09-.62.16-.93.23l-.46.09c-.16,0-.33.06-.5.09l-.59.09-.37,0q-.48.06-1,.09h-.29c-.35,0-.7,0-1.06,0s-.7,0-1,0h-.29q-.48,0-1-.09l-.38,0-.59-.09-.5-.09-.48-.1c-.3-.06-.61-.14-.91-.22l-.25-.06c-.67-.19-1.34-.42-2-.67l-.16-.07a20.77,20.77,0,0,1-1.92-.89l-.27-.14L46,65.83l-.33-.2-.48-.32a27.38,27.38,0,0,1-11-15.94l0-.21-.12-.46c-.2-.84-.37-1.69-.5-2.54l-.06-.39c0-.23-.07-.47-.1-.7l-.09-.9c0-.18,0-.37,0-.55s0-.58-.05-.88c0-.13,0-.26,0-.4,0-.41,0-.83,0-1.24s0-.86,0-1.29,0-.85.08-1.3l0-.38a30,30,0,0,1,6.51-16.34.91.91,0,0,1,1,0c11.69,8.22,30.84,13.15,39.08,15,.06.46.12.91.16,1.38l0,.37c0,.45.06.88.08,1.3s0,.86,0,1.29,0,.83,0,1.24c0,.14,0,.27,0,.4,0,.3,0,.59-.06.88s0,.36,0,.54-.06.61-.1.91l-.09.69-.06.41c-.14.84-.3,1.67-.5,2.5,0,.2-.09.4-.14.6l0,.08A27.43,27.43,0,0,1,68.17,65.32Z"/></g></g></svg>