<svg xmlns="http://www.w3.org/2000/svg" viewBox="0 0 113.39 113.39"><defs><style>.cls-1{fill:#162789;}</style></defs><title>ショベルカー</title><g id="レイヤー_2" data-name="レイヤー 2"><g id="レイヤー_1-2" data-name="レイヤー 1"><path class="cls-1" d="M104.17,88.27V57.59a2.84,2.84,0,0,0-2.83-2.85H87.87V35.07A2.84,2.84,0,0,0,85,32.23H63.78l-8.86-30a3.14,3.14,0,0,0-3-2.21,3.05,3.05,0,0,0-.6.06L2.78,10.29A3.66,3.66,0,0,0,0,13.72v79s0,12.17,10.43,12.17H20.6L33.18,89.06V76.6l-4.25,3.08H14.17V26.06A3.69,3.69,0,0,1,17,22.62l24.24-5.18a3.23,3.23,0,0,1,.61-.06,3.15,3.15,0,0,1,3,2.19l6.62,21.91-11,46.78a12.82,12.82,0,0,0,3.53,25.13h56.69a12.82,12.82,0,0,0,3.54-25.12ZM28.93,83.7h.25v4l-10.5,13.17H10.43a5.32,5.32,0,0,1-5.38-3.49,13.35,13.35,0,0,1-1-4.66V74.25h6.17V83.7H28.93ZM87.87,58.76h12.3v29H44.64L56.76,36.25H83.87V58.76ZM16.11,18.69a7.68,7.68,0,0,0-5.94,7.37V70.23H4V14.13l11.27-2.37,2,6.69ZM41.8,13.36a7,7,0,0,0-1.44.15L19.7,17.93l-2-6.69,33.6-7.07,8.28,28.06H56.43A3.8,3.8,0,0,0,53.34,34L48.62,18.41A7.16,7.16,0,0,0,41.8,13.36Zm58.83,96H43.94a8.8,8.8,0,0,1,0-17.59h56.69a8.8,8.8,0,0,1,0,17.59Z"/><path class="cls-1" d="M72.28,96.3a4.27,4.27,0,1,0,4.26,4.27A4.26,4.26,0,0,0,72.28,96.3Z"/><path class="cls-1" d="M59.53,96.3a4.27,4.27,0,1,0,4.25,4.27A4.26,4.26,0,0,0,59.53,96.3Z"/><path class="cls-1" d="M46.77,96.3A4.27,4.27,0,1,0,51,100.57,4.26,4.26,0,0,0,46.77,96.3Z"/><path class="cls-1" d="M85,96.3a4.27,4.27,0,1,0,4.25,4.27A4.26,4.26,0,0,0,85,96.3Z"/><path class="cls-1" d="M97.8,96.3a4.27,4.27,0,1,0,4.25,4.27A4.27,4.27,0,0,0,97.8,96.3Z"/><path class="cls-1" d="M75.24,42.89h-9.6a3.78,3.78,0,0,0-3.49,2.77L55.93,72.12a2.15,2.15,0,0,0,2.18,2.77H75.24A2.85,2.85,0,0,0,78.07,72V45.74A2.85,2.85,0,0,0,75.24,42.89ZM75.57,72a.35.35,0,0,1-.33.34H58.44l6.15-26.14a1.3,1.3,0,0,1,1-.84h9.6a.35.35,0,0,1,.33.34Z"/><path class="cls-1" d="M9.92,14.43a2.14,2.14,0,1,0,2.13,2.13A2.13,2.13,0,0,0,9.92,14.43Z"/></g></g></svg>