<svg xmlns="http://www.w3.org/2000/svg" viewBox="0 0 113.39 113.56"><defs><style>.cls-1{fill:#162789;}</style></defs><title>アセット 2</title><g id="レイヤー_2" data-name="レイヤー 2"><g id="レイヤー_1-2" data-name="レイヤー 1"><polygon class="cls-1" points="63.78 25.97 59.35 25.97 59.35 21.54 54.04 21.54 54.04 25.97 49.61 25.97 49.61 31.29 54.04 31.29 54.04 35.72 59.35 35.72 59.35 31.29 63.78 31.29 63.78 25.97"/><path class="cls-1" d="M111.64,94c0-.11,0-.21,0-.32C110.15,88.13,104.81,83,99.4,81.94L71.45,77.1V72.22A31.6,31.6,0,0,0,82.62,56.05l.42,0a7.67,7.67,0,0,0,6.69-11.42h3.81a2.85,2.85,0,0,0,2.84-2.84V36.14a2.84,2.84,0,0,0-2.84-2.83H91.47C88,19.14,78.17,8,65.76,4.35V2.83A2.84,2.84,0,0,0,62.93,0H50.46a2.85,2.85,0,0,0-2.84,2.83V4.35C35.21,8,25.4,19.14,21.92,33.31H19.84A2.83,2.83,0,0,0,17,36.14v5.67a2.84,2.84,0,0,0,2.83,2.84h3.82a7.55,7.55,0,0,0-1,3.75,7.68,7.68,0,0,0,7.67,7.67l.43,0A31.54,31.54,0,0,0,41.94,72.22V77.1L14,82C8.58,83,3.24,88.13,1.8,93.71a1.8,1.8,0,0,0-.06.32L0,113.2l4,.36,1.73-19c1.07-3.89,4.94-7.72,8.62-8.6v27.43h7.54V84.63l10.64-1.84v30.6H46.77L43.43,97.3l13.26-7.38L70,97.3l-3.34,16.09H80.88V82.79l10.63,1.84v28.76h7.55V86c3.69.89,7.54,4.71,8.61,8.59l1.73,19,4-.36Zm-28-42h0a37.63,37.63,0,0,0,.56-4.91v0c0-.55,0-1.11,0-1.66,0-.17,0-.34,0-.52A3.67,3.67,0,0,1,83.6,52ZM26.67,48.4a3.69,3.69,0,0,1,2.52-3.49c0,.18,0,.35,0,.52,0,.55,0,1.11,0,1.66v0A37.32,37.32,0,0,0,29.78,52h0A3.67,3.67,0,0,1,26.67,48.4ZM21,40.65V37.31h4l.74-3.05c3.15-12.81,12-22.8,23-26.08l2.86-.85V4H61.76V7.33l2.86.85c11,3.28,19.82,13.27,23,26.08l.75,3.05h4v3.34H21ZM34.25,53.73l-.07-.29c0-.12,0-.23-.08-.35-.13-.53-.25-1.07-.35-1.62l0-.16c0-.25-.09-.5-.13-.75s-.05-.3-.07-.45l-.09-.67c0-.35-.08-.71-.11-1.06,0-.15,0-.29,0-.43,0-.29,0-.58-.05-.87,0-.13,0-.27,0-.4,0-.42,0-.83,0-1.25v-.31h47c0,.1,0,.21,0,.31,0,.42,0,.83,0,1.25,0,.13,0,.27,0,.4,0,.29,0,.58-.06.86l0,.44c0,.35-.07.7-.11,1s-.06.47-.1.7l-.06.41c0,.26-.09.53-.13.79l0,.07c-.11.58-.23,1.17-.38,1.74,0,.09,0,.17,0,.25l-.09.35a27.52,27.52,0,0,1-10.78,15.8h0a22.16,22.16,0,0,1-2,1.21h0A20.58,20.58,0,0,1,59.21,73l-.36,0-.43,0-.51,0h-.34c-.29,0-.58,0-.88,0s-.58,0-.87,0h-.34l-.51,0-.44,0-.36,0a21.07,21.07,0,0,1-9.11-3.48l0,0A27.49,27.49,0,0,1,34.25,53.73ZM43,94.67l-.2-.37L40.15,81.47l2.33-.4a2.33,2.33,0,0,0,.38.31L54,88.54ZM56.69,85.5,45.94,78.6V74.67a.61.61,0,0,1,.14.07l1.09.5.22.08,1,.4.27.1,1,.34.19.06a25,25,0,0,0,2.59.61l.15,0c.37.06.74.12,1.11.16l.32,0,1,.09.34,0c.42,0,.85,0,1.28,0s.86,0,1.29,0l.33,0,1-.09.33,0c.37,0,.73-.1,1.1-.16l.16,0a25.62,25.62,0,0,0,2.59-.61l.19-.06,1-.34.28-.1,1-.4.21-.08,1.1-.5a.61.61,0,0,1,.14-.07V78.6Zm13.68,9.17-11-6.13,11.17-7.16a2.85,2.85,0,0,0,.38-.31l2.33.4L70.57,94.31Z"/></g></g></svg>