<svg xmlns="http://www.w3.org/2000/svg" viewBox="0 0 113.39 113.39"><defs><style>.cls-1{fill:#162789;}</style></defs><title>ベアリング</title><g id="レイヤー_2" data-name="レイヤー 2"><g id="レイヤー_1-2" data-name="レイヤー 1"><polygon class="cls-1" points="31.84 107.76 29.49 106.89 31.82 100.6 24.31 97.92 27.08 90.44 20.77 88.18 21.61 85.83 30.31 88.94 27.54 96.42 35.05 99.1 31.84 107.76"/><polygon class="cls-1" points="39.67 103.71 37.32 102.84 39.65 96.55 32.15 93.86 34.92 86.39 28.6 84.13 29.44 81.77 38.14 84.89 35.37 92.36 42.88 95.05 39.67 103.71"/><polygon class="cls-1" points="13.7 113.39 2.7 113.39 9.19 104.56 0 104.56 20.01 82.2 12.62 98.43 18.93 98.43 13.7 113.39"/><polygon class="cls-1" points="27.15 27.84 18.45 24.73 21.22 17.25 13.71 14.57 16.92 5.91 19.27 6.78 16.93 13.07 24.44 15.75 21.67 23.23 27.99 25.49 27.15 27.84"/><polygon class="cls-1" points="19.32 31.61 10.62 28.5 13.39 21.02 5.88 18.34 9.09 9.68 11.43 10.55 9.1 16.84 16.61 19.52 13.84 27 20.16 29.26 19.32 31.61"/><polygon class="cls-1" points="36.19 0 47.19 0 40.7 8.83 49.89 8.83 29.89 31.18 37.27 14.96 30.96 14.96 36.19 0"/><path class="cls-1" d="M96.38,92.13h17V21.26H90.71V11.34A11.37,11.37,0,0,0,79.37,0H76.54A11.37,11.37,0,0,0,65.2,11.34v9.92H51a8.54,8.54,0,0,0-8.52,8.52V34H25.71a7.31,7.31,0,0,0-7.28,7.28v5.47H0v4H18.43V62.62H0v4H18.43v5.47a7.31,7.31,0,0,0,7.28,7.29H42.52v4.24A8.55,8.55,0,0,0,51,92.13H65.2v8.5H42.52v12.76h70.87V100.63H90.71v-8.5Zm0-36.69H46.52V46.6H96.38Zm0,2.5v8.84H46.52V57.94Zm0-13.84H46.52V35.27H96.38ZM46.52,69.28H96.38v8.84H46.52Zm53.86-44h9V88.13h-9ZM69.2,11.34A7.34,7.34,0,0,1,76.54,4h2.83a7.34,7.34,0,0,1,7.34,7.34v9.92H69.2ZM51,25.26H96.38v7.51H46.52v-3A4.53,4.53,0,0,1,51,25.26ZM22.43,72.08V41.3A3.28,3.28,0,0,1,25.71,38H30V75.37H25.71A3.28,3.28,0,0,1,22.43,72.08Zm10,3.29V38H42.52V75.37Zm14.13,8.24v-3H96.38v7.51H51A4.53,4.53,0,0,1,46.52,83.61Zm44.19,21h18.68v4.76H46.52v-4.76H69.2V92.13H86.71v12.5Z"/><path class="cls-1" d="M78,7.09a5.67,5.67,0,1,0,5.67,5.67A5.67,5.67,0,0,0,78,7.09Zm0,8.84a3.17,3.17,0,1,1,3.17-3.17A3.18,3.18,0,0,1,78,15.93Z"/></g></g></svg>