<svg xmlns="http://www.w3.org/2000/svg" viewBox="0 0 113.47 113.39"><defs><style>.cls-1{fill:#162789;}</style></defs><title>icon-mobile03</title><g id="レイヤー_2" data-name="レイヤー 2"><g id="レイヤー_1-2" data-name="レイヤー 1"><path class="cls-1" d="M112.49,80.84,67.92,3.65A7.31,7.31,0,0,0,57.94,1L20.56,22.56a7.31,7.31,0,0,0-2.67,10l44.57,77.19a7.3,7.3,0,0,0,10,2.68l37.37-21.58A7.31,7.31,0,0,0,112.49,80.84ZM105.63,77l-43.1,24.89-38.71-67L66.92,9.92ZM22.56,26,59.94,4.44A3.29,3.29,0,0,1,61.59,4a3.32,3.32,0,0,1,2.87,1.65l.46.81L21.82,31.34l-.47-.8A3.31,3.31,0,0,1,22.56,26Zm85.25,61.34L70.44,108.94a3.22,3.22,0,0,1-1.65.45,3.33,3.33,0,0,1-2.87-1.66l-1.39-2.41,43.1-24.89L109,82.84A3.31,3.31,0,0,1,107.81,87.36Z"/><rect class="cls-1" x="48.4" y="50.54" width="4.52" height="4.52" transform="translate(-19.61 32.39) rotate(-29.99)"/><path class="cls-1" d="M58.28,54.84l-9.66,5.58L43,50.76l9.66-5.58Zm-9.17,3.75,7.34-4.24L52.21,47l-7.35,4.24Z"/><rect class="cls-1" x="59.04" y="68.96" width="4.52" height="4.51" transform="translate(-27.4 40.18) rotate(-30)"/><path class="cls-1" d="M68.91,73.26l-9.65,5.58-5.58-9.66,9.66-5.58ZM59.74,77l7.35-4.24-4.24-7.34L55.5,69.67Z"/><rect class="cls-1" x="66.82" y="39.91" width="4.52" height="4.52" transform="matrix(0.87, -0.5, 0.5, 0.87, -11.83, 40.18)"/><path class="cls-1" d="M76.7,44.21,67,49.78l-5.57-9.66,9.65-5.57ZM67.53,48l7.35-4.24-4.25-7.35-7.34,4.24Z"/><rect class="cls-1" x="51.41" y="61.05" width="4.52" height="4.52" transform="translate(-24.46 35.31) rotate(-30)"/><rect class="cls-1" x="56.76" y="56.85" width="8.34" height="4.52" transform="translate(-21.39 38.39) rotate(-30)"/><rect class="cls-1" x="62.85" y="54.44" width="4.52" height="4.52" transform="translate(-19.63 40.14) rotate(-29.99)"/><rect class="cls-1" x="71.73" y="55.1" width="6.25" height="8.12" transform="translate(-19.55 45.35) rotate(-30)"/><rect class="cls-1" x="67.07" y="59.6" width="4.52" height="8.83" transform="translate(-22.72 43.24) rotate(-30)"/><rect class="cls-1" x="79.6" y="53.77" width="4.52" height="10.44" transform="translate(-18.53 48.84) rotate(-30)"/><rect class="cls-1" x="69.01" y="64.51" width="10.6" height="4.52" transform="translate(-23.43 46.1) rotate(-30)"/><rect class="cls-1" x="69.37" y="49.12" width="9.93" height="4.52" transform="translate(-15.73 44.05) rotate(-30)"/><rect class="cls-1" x="59.66" y="48.92" width="4.52" height="4.52" transform="translate(-17.29 37.82) rotate(-30)"/><rect class="cls-1" x="56.47" y="43.39" width="4.52" height="4.52" transform="translate(-14.96 35.47) rotate(-29.99)"/><path class="cls-1" d="M47.06,83.07c.14,1.56.22,3.05.22,4.42a44.54,44.54,0,0,1-.46,6.34l-1.14.08V82.28a1.5,1.5,0,0,0-1.5-1.5H34.77a1.5,1.5,0,0,0-1.5,1.5v12.2c-2.36.06-4.91.1-7.6.1-9.65,0-17.45-.48-21.22-.76A44.24,44.24,0,0,1,4,87.49C4,75.24,10.36,53.74,10.88,52a9.14,9.14,0,0,1,1.29-2.54c.19-.21.27-.24.44-.25H27.52l-2.31-4H12.52c-2.84.11-4.25,2.31-5.43,5.51C7.09,50.73,0,74,0,87.49s5.62,22,5.62,22c1.16,1.71,2.59,3.62,4.71,3.72H41c2.13-.1,3.55-2,4.72-3.72,0,0,4.85-7.42,5.53-19.29Zm-10.79.71h6.41V94.1c-1.83.1-4,.2-6.41.29Zm6.06,23.54a7,7,0,0,1-1.62,1.93H10.57A7,7,0,0,1,9,107.32,34.93,34.93,0,0,1,5,96.87c4.06.29,11.55.71,20.66.71s16.51-.42,20.59-.71A35.78,35.78,0,0,1,42.33,107.32Z"/><path class="cls-1" d="M33.06,76.05a1.5,1.5,0,0,0,1.5,1.5h9.31l-1.73-3H34.56A1.5,1.5,0,0,0,33.06,76.05Z"/></g></g></svg>