<svg xmlns="http://www.w3.org/2000/svg" viewBox="0 0 113.39 113.56"><defs><style>.cls-1{fill:#162789;}</style></defs><title>アセット 1</title><g id="レイヤー_2" data-name="レイヤー 2"><g id="レイヤー_1-2" data-name="レイヤー 1"><polygon class="cls-1" points="63.78 25.97 59.35 25.97 59.35 21.54 54.04 21.54 54.04 25.97 49.61 25.97 49.61 31.29 54.04 31.29 54.04 35.72 59.35 35.72 59.35 31.29 63.78 31.29 63.78 25.97"/><path class="cls-1" d="M111.63,93.87l0-.16C110.15,88.13,104.81,83,99.4,81.94L71.45,77.1V72.22a31.4,31.4,0,0,0,10.9-15.34,5.32,5.32,0,0,0,.69,0,7.68,7.68,0,0,0,7.67-7.67,7.59,7.59,0,0,0-1.55-4.6h4.38a2.85,2.85,0,0,0,2.84-2.84V36.14a2.84,2.84,0,0,0-2.84-2.83H91.47C88,19.14,78.17,8,65.76,4.35V2.83A2.84,2.84,0,0,0,62.93,0H50.46a2.85,2.85,0,0,0-2.84,2.83V4.35C35.21,8,25.4,19.14,21.92,33.31H19.84A2.83,2.83,0,0,0,17,36.14v5.67a2.84,2.84,0,0,0,2.83,2.84h4.38a7.59,7.59,0,0,0-1.55,4.6,7.68,7.68,0,0,0,7.67,7.67,5.37,5.37,0,0,0,.7,0,31.34,31.34,0,0,0,10.9,15.34V77.1L14,82C8.58,83,3.24,88.13,1.8,93.71l0,.16L0,113.2l4,.36,1.73-19c1.07-3.89,4.94-7.72,8.62-8.6v27.43h7.54V84.63l10.64-1.84v30.6H46.77L43.43,97.28l9.66-6-.65.53v10.2l-2.55,11.34H63.5l-2.56-11.34V91.85l-.65-.53,9.67,6-3.35,16.11H80.87V82.79l10.63,1.84v28.76h7.55V86c3.69.89,7.54,4.71,8.61,8.59l1.73,19,4-.36Zm-28.2-41a37,37,0,0,0,.77-7.13,3.67,3.67,0,0,1-.77,7.13ZM26.67,49.25a3.67,3.67,0,0,1,2.52-3.48A36.21,36.21,0,0,0,30,52.9,3.68,3.68,0,0,1,26.67,49.25ZM21,40.65V37.31h4l.74-3.05c3.15-12.81,12-22.8,23-26.08l2.86-.85V4H61.76V7.33l2.86.85c11,3.28,19.82,13.27,23,26.08l.75,3.05h4v3.34H21Zm52.32,4v8.41H62.74V44.65Zm-13.09,0v3.28H53.15V44.65h7.09Zm-9.59,0v8.41H40.06V44.65Zm-17.47.78c0-.26,0-.52,0-.78h4.37V55.56H53.15V50.43h7.09v5.13H75.83V44.65h4.36c0,.26,0,.52,0,.78,0,15.31-10.55,27.77-23.52,27.77S33.18,60.74,33.18,45.43ZM43,94.62l-.18-.32L40.15,81.47l2.24-.39,11.06,7.09Zm2.95-16V74.66a24,24,0,0,0,21.51,0V78.6L56.69,85.5Zm24.46,16L59.94,88.17l11-7.09,2.25.39L70.57,94.31Z"/></g></g></svg>