<svg xmlns="http://www.w3.org/2000/svg" viewBox="0 0 70.87 113.39"><defs><style>.cls-1{fill:#162789;}</style></defs><title>アセット 1</title><g id="レイヤー_2" data-name="レイヤー 2"><g id="レイヤー_1-2" data-name="レイヤー 1"><path class="cls-1" d="M62.36,4a4.51,4.51,0,0,1,4.51,4.5v96.38a4.51,4.51,0,0,1-4.51,4.51H8.5A4.51,4.51,0,0,1,4,104.88V8.5A4.51,4.51,0,0,1,8.5,4H62.36m0-4H8.5A8.53,8.53,0,0,0,0,8.5v96.38a8.53,8.53,0,0,0,8.5,8.51H62.36a8.54,8.54,0,0,0,8.51-8.51V8.5A8.53,8.53,0,0,0,62.36,0Z"/><path class="cls-1" d="M55.53,15.34v33.1H15.34V15.34H55.53m1.06-4H14.27a2.94,2.94,0,0,0-2.93,2.94V49.51a2.94,2.94,0,0,0,2.93,2.93H56.59a2.94,2.94,0,0,0,2.94-2.93V14.28a2.94,2.94,0,0,0-2.94-2.94Z"/><path class="cls-1" d="M22.1,68.16a.85.85,0,0,1-.84,1.29H11.34a.85.85,0,0,1-.84-1.29l5.22-11.59c.32-.71.84-.71,1.16,0Z"/><path class="cls-1" d="M22.1,76.41a.85.85,0,0,0-.84-1.29H11.34a.85.85,0,0,0-.84,1.29L15.72,88c.32.71.84.71,1.16,0Z"/><path class="cls-1" d="M34,61.32a5.3,5.3,0,1,1-5.3,5.3,5.3,5.3,0,0,1,5.3-5.3m0-2.5a7.8,7.8,0,1,0,7.79,7.8A7.8,7.8,0,0,0,34,58.82Z"/><path class="cls-1" d="M61,66.62a7.8,7.8,0,1,1-7.8-7.8A7.8,7.8,0,0,1,61,66.62Z"/><path class="cls-1" d="M41.79,101.74a12.55,12.55,0,0,0,5.15,1.66V78a12.55,12.55,0,0,0-5.15,1.66Z"/><path class="cls-1" d="M54.59,79.68A12.6,12.6,0,0,0,49.44,78V103.4a12.6,12.6,0,0,0,5.15-1.66Z"/><path class="cls-1" d="M39.29,81.58a12.73,12.73,0,0,0,0,18.26Z"/><path class="cls-1" d="M57.09,81.58V99.84a12.73,12.73,0,0,0,0-18.26Z"/><path class="cls-1" d="M21.51,31.05c0-6.75,3.78-10.67,9.27-10.67S40,24.33,40,31.05s-3.78,10.83-9.26,10.83S21.51,37.77,21.51,31.05Zm14.31,0c0-4.45-2-7.11-5-7.11s-5,2.66-5,7.11,2,7.25,5,7.25S35.82,35.47,35.82,31.05Z"/><path class="cls-1" d="M42.19,39.46c2.78-2.54,4.66-4.56,4.66-6.18a1.4,1.4,0,0,0-1.46-1.58,2.67,2.67,0,0,0-1.88,1.08l-1.46-1.44a4.68,4.68,0,0,1,3.71-1.72,3.4,3.4,0,0,1,3.66,3.51c0,1.92-1.65,4-3.37,5.76a14.86,14.86,0,0,1,1.82-.15h2.06V41H42.19Z"/></g></g></svg>