<svg xmlns="http://www.w3.org/2000/svg" viewBox="0 0 113.39 116.11"><defs><style>.cls-1{fill:#162789;}</style></defs><title>アセット 1</title><g id="レイヤー_2" data-name="レイヤー 2"><g id="レイヤー_1-2" data-name="レイヤー 1"><path class="cls-1" d="M34.74,80.42V97.93H18.17V80.42H34.74m4-4H14.17v25.51H38.74V76.42Z"/><path class="cls-1" d="M65,80.42V97.93H48.41V80.42H65m4-4H44.41v25.51H69V76.42Z"/><path class="cls-1" d="M95.21,80.42V97.93H78.64V80.42H95.21m4-4H74.64v25.51H99.21V76.42Z"/><path class="cls-1" d="M75.59,56.58V33.9L37.8,56.58V33.9L26.93,40.42V0h-17V50.63L0,56.58v59.53H113.39V33.9ZM13.92,4h9V42.82l-9,5.41Zm95.47,108.11H4V58.84L33.8,41V63.64L39.85,60,71.59,41V63.64L77.65,60l31.74-19Z"/></g></g></svg>