<svg xmlns="http://www.w3.org/2000/svg" viewBox="0 0 104.88 113.39"><defs><style>.cls-1{fill:#162789;}</style></defs><title>アセット 1</title><g id="レイヤー_2" data-name="レイヤー 2"><g id="レイヤー_1-2" data-name="レイヤー 1"><path class="cls-1" d="M52.44,4.42,100.58,27a85.83,85.83,0,0,1-3,30.35A78,78,0,0,1,83.36,85.08C75.52,94.8,65.13,102.83,52.44,109,39.75,102.83,29.36,94.8,21.53,85.08A77.68,77.68,0,0,1,7.29,57.39,85.94,85.94,0,0,1,4.3,27L52.44,4.42m0-4.42L.59,24.36s-9.93,60.44,51.85,89c61.79-28.59,51.85-89,51.85-89L52.44,0Z"/><polygon class="cls-1" points="66.63 21.26 62.36 66.61 42.52 66.61 38.25 21.26 66.63 21.26"/><polygon class="cls-1" points="52.44 74.82 55.86 70.87 56.84 76 61.78 74.28 60.06 79.22 65.2 80.2 61.24 83.62 65.2 87.04 60.06 88.03 61.78 92.96 56.84 91.25 55.86 96.38 52.44 92.43 49.02 96.38 48.04 91.25 43.1 92.96 44.82 88.03 39.69 87.04 43.64 83.62 39.69 80.2 44.82 79.22 43.1 74.28 48.04 76 49.02 70.87 52.44 74.82"/></g></g></svg>