<svg xmlns="http://www.w3.org/2000/svg" viewBox="0 0 113.39 113.39"><defs><style>.cls-1{fill:#162789;}</style></defs><title>アセット 1</title><g id="レイヤー_2" data-name="レイヤー 2"><g id="レイヤー_1-2" data-name="レイヤー 1"><path class="cls-1" d="M56.69,4A52.7,52.7,0,1,1,4,56.69,52.76,52.76,0,0,1,56.69,4m0-4a56.7,56.7,0,1,0,56.7,56.69A56.69,56.69,0,0,0,56.69,0Z"/><path class="cls-1" d="M56.68,32.64a2,2,0,0,1-2-2V29.22a2,2,0,0,1,4,0v1.42A2,2,0,0,1,56.68,32.64Z"/><path class="cls-1" d="M58.68,50V37.42a2,2,0,0,0-4,0V50a7,7,0,0,0-3.3,11.16l-4.67,8.09A2,2,0,0,0,47.45,72a2,2,0,0,0,1,.27,2,2,0,0,0,1.74-1l4.56-7.91A7,7,0,0,0,58.68,50Zm-2,9.62a3,3,0,1,1,3-3A3,3,0,0,1,56.69,59.65Z"/><path class="cls-1" d="M56.69,9.92a46.77,46.77,0,1,0,46.77,46.77A46.77,46.77,0,0,0,56.69,9.92Zm23.1,82.75-4.24-7.34a2,2,0,0,0-3.46,2l4.24,7.34a42.3,42.3,0,0,1-17.62,4.74V90.92a2,2,0,0,0-4,0v8.5a42.63,42.63,0,0,1-17.63-4.73l4.24-7.35a2,2,0,1,0-3.46-2l-4.24,7.34a43.09,43.09,0,0,1-12.9-12.89l7.33-4.24a2,2,0,1,0-2-3.46l-7.34,4.24A42.6,42.6,0,0,1,14,58.71h8.49a2,2,0,0,0,0-4H14A42.48,42.48,0,0,1,18.7,37.08L26,41.32a2,2,0,0,0,1,.27,2,2,0,0,0,1-3.73l-7.33-4.24A43,43,0,0,1,33.6,20.72l4.23,7.33a2,2,0,0,0,1.74,1,2,2,0,0,0,1-.26,2,2,0,0,0,.74-2.74l-4.24-7.34A42.56,42.56,0,0,1,54.68,14v8.49a2,2,0,0,0,4,0V14A42.4,42.4,0,0,1,76.3,18.7L72.06,26a2,2,0,0,0,.74,2.73,2,2,0,0,0,1,.27,2,2,0,0,0,1.74-1l4.23-7.33A42.86,42.86,0,0,1,92.66,33.6l-7.33,4.23a2,2,0,1,0,2,3.47l7.34-4.24a42.41,42.41,0,0,1,4.74,17.62H90.92a2,2,0,0,0,0,4h8.49A42.4,42.4,0,0,1,94.68,76.3l-7.34-4.24a2,2,0,0,0-2,3.47l7.34,4.23A43.12,43.12,0,0,1,79.79,92.67Z"/></g></g></svg>