<svg xmlns="http://www.w3.org/2000/svg" viewBox="0 0 104.05 113.39"><defs><style>.cls-1{fill:#162789;}</style></defs><title>薬液タンク</title><g id="レイヤー_2" data-name="レイヤー 2"><g id="レイヤー_1-2" data-name="レイヤー 1"><path class="cls-1" d="M89.29,75.38H87.87V22.68h4.26V8.5H65.2V4h4.25V0H43.94V4h4.25V8.5H21.26V22.68h4.25v4.61H17v5.5H0v6H17v5.5h8.5V75.38H24.1A14.77,14.77,0,0,0,9.34,90.13v23.26h12.5V90.13a2.28,2.28,0,0,1,2.26-2.25h1.41v6.64c0,4.14,3.83,7.53,8.51,7.53H79.37c4.68,0,8.5-3.39,8.5-7.53V87.88h1.42a2.29,2.29,0,0,1,2.26,2.25v23.26h12.5V90.13A14.77,14.77,0,0,0,89.29,75.38ZM52.19,4h9V8.5h-9ZM25.26,12.5H88.13v6.18H25.26ZM21,40.29v-9h4.5v9ZM24.1,83.88a6.26,6.26,0,0,0-6.26,6.25v19.26h-4.5V90.13A10.77,10.77,0,0,1,24.1,79.38h1.41v4.5ZM79.37,98.05H34c-2.45,0-4.51-1.62-4.51-3.53V22.68H83.87V94.52C83.87,96.43,81.81,98.05,79.37,98.05Zm20.68,11.34h-4.5V90.13a6.26,6.26,0,0,0-6.26-6.25H87.87v-4.5h1.42a10.77,10.77,0,0,1,10.76,10.75Z"/><path class="cls-1" d="M56.69,70.87a8.51,8.51,0,1,0,8.51,8.5A8.52,8.52,0,0,0,56.69,70.87Zm0,13a4.51,4.51,0,1,1,4.51-4.51A4.52,4.52,0,0,1,56.69,83.88Z"/></g></g></svg>