<svg xmlns="http://www.w3.org/2000/svg" viewBox="0 0 113.39 113.39"><defs><style>.cls-1{fill:#162789;}</style></defs><title>アセット 1</title><g id="レイヤー_2" data-name="レイヤー 2"><g id="レイヤー_1-2" data-name="レイヤー 1"><polygon class="cls-1" points="67.68 79.95 77.76 77.73 77.76 71.64 67.68 73.86 67.68 79.95"/><path class="cls-1" d="M2,45.3a2,2,0,0,1-2-2A43.36,43.36,0,0,1,43.3,0a2,2,0,0,1,0,4A39.34,39.34,0,0,0,4,43.3,2,2,0,0,1,2,45.3Z"/><path class="cls-1" d="M14.05,45.3a2,2,0,0,1-2-2A31.29,31.29,0,0,1,43.3,12.05a2,2,0,0,1,0,4A27.28,27.28,0,0,0,16.05,43.3,2,2,0,0,1,14.05,45.3Z"/><path class="cls-1" d="M26.09,45.3a2,2,0,0,1-2-2A19.23,19.23,0,0,1,43.3,24.09a2,2,0,0,1,0,4A15.24,15.24,0,0,0,28.09,43.3,2,2,0,0,1,26.09,45.3Z"/><path class="cls-1" d="M113.39,38.27a8.54,8.54,0,0,0-8.51-8.51H51a8.53,8.53,0,0,0-8.48,8.07,6.87,6.87,0,0,0,0,13.21v42.5a8.53,8.53,0,0,0,8.5,8.51h7.66v4.47a6.49,6.49,0,0,0,6.56,6.87,8.15,8.15,0,0,0,1.74-.2l38.1-8.39a11.09,11.09,0,0,0,8.31-10.33V38.77c0-.17,0-.33,0-.5ZM58.68,50.82V98.05H51a4.51,4.51,0,0,1-4.5-4.51V51a6.88,6.88,0,0,0,0-13.11A4.51,4.51,0,0,1,51,33.76H97.51L67,40.49A11.08,11.08,0,0,0,58.68,50.82Zm50.71,43.65a7.09,7.09,0,0,1-5.17,6.43l-38.1,8.39a4.57,4.57,0,0,1-.88.1c-1.58,0-2.56-1.1-2.56-2.87V50.82a7.08,7.08,0,0,1,5.16-6.43L105.94,36a4.57,4.57,0,0,1,.88-.1c1.58,0,2.57,1.1,2.57,2.87Z"/></g></g></svg>