<svg xmlns="http://www.w3.org/2000/svg" viewBox="0 0 600.4 173"><defs><style>.cls-1{fill:#10069f}</style></defs><g id="レイヤー_2" data-name="レイヤー 2"><g id="レイヤー_1-2" data-name="レイヤー 1"><circle class="cls-1" cx="86.5" cy="86.5" r="86.5"/><circle class="cls-1" cx="300.2" cy="86.5" r="86.5"/><circle class="cls-1" cx="513.9" cy="86.5" r="86.5"/><path class="cls-1" d="M145.9 23.6C163.3 40.2 170.5 48 192.7 48c28.4 0 41.1-19.2 50.1-26.2v129.4c-22.8-22.9-39.5-26-49.7-26s-26 2.9-47.2 24.2zm308.6 0C437 40.2 429.8 48 407.6 48c-28.4 0-41-19.2-50-26.2v129.4c22.8-22.9 39.5-26 49.7-26s25.9 2.9 47.2 24.2z"/><path d="M12.9 75.6h2.7l3.3 9.3c.4 1.2.8 2.4 1.3 3.7h.1l1.2-3.7 3.3-9.3h2.7V93h-2.1v-9.6c0-1.5.2-3.6.3-5.2h-.1l-1.4 4-3.3 9.1h-1.5l-3.3-9.1-1.4-4c0 1.6.2 3.7.2 5.2V93h-2zm18.2 11c0-4.2 2.8-6.8 5.8-6.8s5.1 2.4 5.1 6.1a4.5 4.5 0 01-.1 1.2h-8.7c.2 2.7 1.9 4.5 4.3 4.5a5.5 5.5 0 003.2-1l.8 1.4a7.8 7.8 0 01-4.3 1.3c-3.4 0-6.1-2.5-6.1-6.7zm9-1.1c0-2.6-1.2-4-3.2-4s-3.4 1.5-3.7 4zm3.9 4.2c0-2.8 2.5-4.2 8-4.8 0-1.7-.6-3.3-2.7-3.3a7.4 7.4 0 00-3.9 1.4l-.8-1.5a9.4 9.4 0 015.1-1.7c3.1 0 4.4 2.1 4.4 5.3V93h-1.7l-.2-1.5h-.1a6.9 6.9 0 01-4.3 1.8 3.5 3.5 0 01-3.8-3.6zm8 .2v-3.6c-4.4.5-5.9 1.6-5.9 3.2s1 2.1 2.3 2.1a5.5 5.5 0 003.6-1.7zm4.8 1.7l1.1-1.5a5.9 5.9 0 003.8 1.6c1.7 0 2.5-.9 2.5-2.1s-1.5-1.9-2.9-2.4-3.9-1.6-3.9-3.8 1.7-3.6 4.5-3.6a7.1 7.1 0 014 1.4l-1 1.4a5.2 5.2 0 00-3-1.1c-1.6 0-2.4.9-2.4 1.9s1.4 1.6 2.9 2.2 3.9 1.5 3.9 3.9-1.6 3.8-4.7 3.8a7.8 7.8 0 01-4.8-1.7zm12.4-3.3v-8.2h2.2V88c0 2.4.7 3.5 2.4 3.5s2.3-.7 3.5-2.2v-9.2h2.2V93h-1.8l-.2-2h-.1a5.5 5.5 0 01-4.3 2.3c-2.7 0-3.9-1.7-3.9-5zm14.6-8.2h1.8l.2 2.4h.1c.9-1.7 2.2-2.7 3.6-2.7a2.9 2.9 0 011.4.3l-.4 1.9a2.5 2.5 0 00-1.3-.2c-1 0-2.4.7-3.2 2.9V93h-2.2zm8 6.5c0-4.2 2.8-6.8 5.8-6.8s5.2 2.4 5.2 6.1c0 .4-.1.9-.1 1.2H94c.1 2.7 1.8 4.5 4.3 4.5a6 6 0 003.2-1l.8 1.4a8.4 8.4 0 01-4.3 1.3c-3.4 0-6.2-2.5-6.2-6.7zm9.1-1.1c0-2.6-1.2-4-3.2-4s-3.5 1.5-3.8 4zm5.1-5.4h1.7l.2 1.9h.1a5.8 5.8 0 014-2.2 3.4 3.4 0 013.6 2.5c1.3-1.5 2.7-2.5 4.2-2.5s4 1.7 4 5.1V93h-2.2v-7.9c0-2.4-.8-3.4-2.4-3.4s-2 .6-3.3 2V93h-2.1v-7.9c0-2.4-.8-3.4-2.4-3.4s-2.1.6-3.3 2V93H106zm21 6.5c0-4.2 2.8-6.8 5.8-6.8s5.2 2.4 5.2 6.1c0 .4-.1.9-.1 1.2h-8.7c.1 2.7 1.8 4.5 4.2 4.5a6.1 6.1 0 003.3-1l.8 1.4a8.4 8.4 0 01-4.3 1.3c-3.4 0-6.2-2.5-6.2-6.7zm9.1-1.1c0-2.6-1.2-4-3.2-4s-3.5 1.5-3.8 4zm5.1-5.4h1.7l.2 1.9h.1a6.2 6.2 0 014.3-2.2c2.7 0 4 1.7 4 5.1V93h-2.2v-7.9c0-2.4-.7-3.4-2.4-3.4s-2.3.7-3.6 2V93h-2.1zm14.9 8.9v-7.1h-2v-1.7h2.1l.2-3.6h1.8v3.6h3.5V82h-3.5v7.2c0 1.6.5 2.5 2 2.5l1.5-.3.4 1.6a9.3 9.3 0 01-2.3.4c-2.8-.1-3.7-1.8-3.7-4.4zm81.4-4.7c0-5.6 3.3-9 7.7-9a6.5 6.5 0 014.8 2.1l-1.2 1.5a4.7 4.7 0 00-3.5-1.7c-3.4 0-5.5 2.7-5.5 7.1s2 7.1 5.4 7.1a5.3 5.3 0 004-1.9l1.2 1.3a6.6 6.6 0 01-5.3 2.5c-4.3 0-7.6-3.3-7.6-9zm15 2.3c0-4.3 2.8-6.8 6-6.8s6 2.5 6 6.8-2.8 6.7-6 6.7-6-2.4-6-6.7zm9.8 0c0-3-1.6-5-3.8-5s-3.7 2-3.7 5 1.5 4.9 3.7 4.9 3.8-1.9 3.8-4.9zm5.6-6.5h1.8l.2 1.9c1.3-1.2 2.6-2.2 4.4-2.2s3.9 1.7 3.9 5.1V93H276v-7.9c0-2.4-.7-3.4-2.4-3.4s-2.2.7-3.5 2V93h-2.2zm14.5 0h1.8l.2 1.9h.1a6 6 0 014.3-2.2c2.7 0 3.9 1.7 3.9 5.1V93h-2.1v-7.9c0-2.4-.8-3.4-2.5-3.4s-2.2.7-3.5 2V93h-2.2zm13.6 6.5c0-4.2 2.8-6.8 5.8-6.8s5.1 2.4 5.1 6.1a4.5 4.5 0 01-.1 1.2h-8.7c.2 2.7 1.9 4.5 4.3 4.5a6.1 6.1 0 003.3-1l.7 1.4a7.7 7.7 0 01-4.2 1.3c-3.5 0-6.2-2.5-6.2-6.7zm9-1.1c0-2.6-1.1-4-3.2-4s-3.4 1.5-3.7 4zm4.2 1.1c0-4.3 2.9-6.8 6.2-6.8a5.7 5.7 0 013.8 1.5l-1.1 1.5a3.9 3.9 0 00-2.6-1.2c-2.4 0-4.1 2-4.1 5s1.6 4.9 4 4.9a5 5 0 003.1-1.2l.9 1.4a6.5 6.5 0 01-4.2 1.6c-3.4 0-6-2.4-6-6.7zm13.2 2.4v-7.1h-2v-1.7h2l.3-3.6h1.8v3.6h3.5V82h-3.5v7.2c0 1.6.5 2.5 2 2.5l1.5-.3.4 1.6a9.3 9.3 0 01-2.4.4c-2.7-.1-3.6-1.8-3.6-4.4zm8.1-13a1.5 1.5 0 011.5-1.4 1.4 1.4 0 011.5 1.4 1.4 1.4 0 01-1.5 1.5 1.5 1.5 0 01-1.5-1.5zm.4 4.1h2.2V93h-2.2zm5.6 6.5c0-4.3 2.8-6.8 6-6.8s6 2.5 6 6.8-2.8 6.7-6 6.7-6-2.4-6-6.7zm9.8 0c0-3-1.6-5-3.8-5s-3.7 2-3.7 5 1.5 4.9 3.7 4.9 3.8-1.9 3.8-4.9zm5.6-6.5h1.8l.2 1.9c1.3-1.2 2.6-2.2 4.4-2.2s3.9 1.7 3.9 5.1V93h-2.1v-7.9c0-2.4-.8-3.4-2.5-3.4s-2.2.7-3.5 2V93h-2.2zm109 7.6h-6.4l-1.6 5.3h-2.3l5.9-17.4h2.5l5.9 17.4h-2.3zm-.5-1.8l-.9-2.6-1.7-5.9h-.1l-1.7 5.9-.9 2.6zm6.8-5.8h1.8l.2 1.5a6.6 6.6 0 014.1-1.8c3.4 0 5.2 2.6 5.2 6.6s-2.7 6.9-5.6 6.9a5.6 5.6 0 01-3.6-1.5v6.7h-2.1zm9 6.3c0-2.9-.9-4.8-3.4-4.8a5.4 5.4 0 00-3.5 1.8v6.8a5.1 5.1 0 003.2 1.3c2.1 0 3.7-1.9 3.7-5.1zm5.7-6.3h1.8l.2 1.5h.1a6.4 6.4 0 014.1-1.8c3.3 0 5.1 2.6 5.1 6.6s-2.6 6.9-5.6 6.9a5.6 5.6 0 01-3.6-1.5v6.7h-2.2zm9.1 6.3c0-2.9-1-4.8-3.4-4.8a5.2 5.2 0 00-3.5 1.8v6.8a4.9 4.9 0 003.2 1.3c2.1 0 3.7-1.9 3.7-5.1zm5.7 4.1V74.1h2.1v16.5c0 .7.3.9.7.9h.4l.3 1.7H499c-1.7.1-2.3-.9-2.3-2.7zM503 76a1.5 1.5 0 011.5-1.4A1.4 1.4 0 01506 76a1.4 1.4 0 01-1.5 1.5A1.5 1.5 0 01503 76zm.4 4.1h2.2V93h-2.2zm5.6 6.5c0-4.3 2.9-6.8 6.2-6.8a5.5 5.5 0 013.8 1.5l-1.1 1.5a3.7 3.7 0 00-2.6-1.2c-2.3 0-4 2-4 5s1.6 4.9 4 4.9a4.5 4.5 0 003-1.2l.9 1.4a6.2 6.2 0 01-4.1 1.6c-3.4 0-6.1-2.4-6.1-6.7zm12 3.1c0-2.8 2.5-4.2 8-4.8 0-1.7-.6-3.3-2.7-3.3a7.1 7.1 0 00-3.9 1.4l-.8-1.5a9.4 9.4 0 015.1-1.7c3.1 0 4.4 2.1 4.4 5.3V93h-1.8v-1.5h-.1a7.2 7.2 0 01-4.3 1.8 3.5 3.5 0 01-3.9-3.6zm8 .2v-3.6c-4.4.5-5.9 1.6-5.9 3.2s1 2.1 2.3 2.1a5.5 5.5 0 003.6-1.7zm6.3-.9v-7.1h-2v-1.7h2.1l.2-3.6h1.8v3.6h3.5V82h-3.5v7.2c0 1.6.5 2.5 2 2.5l1.5-.3.4 1.6a9.3 9.3 0 01-2.3.4c-2.8-.1-3.7-1.8-3.7-4.4zm8.1-13a1.5 1.5 0 011.5-1.4 1.4 1.4 0 011.5 1.4 1.4 1.4 0 01-1.5 1.5 1.5 1.5 0 01-1.5-1.5zm.5 4.1h2.1V93h-2.1zm5.5 6.5c0-4.3 2.8-6.8 6-6.8s6 2.5 6 6.8-2.8 6.7-6 6.7-6-2.4-6-6.7zm9.8 0c0-3-1.5-5-3.8-5s-3.7 2-3.7 5 1.5 4.9 3.7 4.9 3.8-1.9 3.8-4.9zm5.6-6.5h1.8l.2 1.9h.1a6 6 0 014.3-2.2c2.7 0 3.9 1.7 3.9 5.1V93H573v-7.9c0-2.4-.8-3.4-2.5-3.4s-2.2.7-3.5 2V93h-2.2z" fill="#fff"/></g></g></svg>