<svg xmlns="http://www.w3.org/2000/svg" viewBox="0 0 113.39 113.39"><defs><style>.cls-1{fill:#162789;}</style></defs><title>icon-calendar</title><g id="レイヤー_2" data-name="レイヤー 2"><g id="レイヤー_1-2" data-name="レイヤー 1"><path class="cls-1" d="M19.48,37.84a5.14,5.14,0,1,1-5.13-5.24A5.19,5.19,0,0,1,19.48,37.84Z"/><path class="cls-1" d="M33.59,37.84a5.13,5.13,0,1,1-5.13-5.24A5.19,5.19,0,0,1,33.59,37.84Z"/><path class="cls-1" d="M47.71,37.84a5.14,5.14,0,1,1-5.13-5.24A5.19,5.19,0,0,1,47.71,37.84Z"/><path class="cls-1" d="M61.83,37.84a5.14,5.14,0,1,1-5.14-5.24A5.19,5.19,0,0,1,61.83,37.84Z"/><path class="cls-1" d="M75.94,37.84a5.13,5.13,0,1,1-5.13-5.24A5.19,5.19,0,0,1,75.94,37.84Z"/><path class="cls-1" d="M90.06,37.84a5.14,5.14,0,1,1-5.14-5.24A5.19,5.19,0,0,1,90.06,37.84Z"/><path class="cls-1" d="M104.17,37.84A5.13,5.13,0,1,1,99,32.6,5.19,5.19,0,0,1,104.17,37.84Z"/><path class="cls-1" d="M19.48,54.85a5.14,5.14,0,1,1-5.13-5.24A5.18,5.18,0,0,1,19.48,54.85Z"/><path class="cls-1" d="M33.59,54.85a5.13,5.13,0,1,1-5.13-5.24A5.18,5.18,0,0,1,33.59,54.85Z"/><path class="cls-1" d="M47.71,54.85a5.14,5.14,0,1,1-5.13-5.24A5.18,5.18,0,0,1,47.71,54.85Z"/><path class="cls-1" d="M61.83,54.85a5.14,5.14,0,1,1-5.14-5.24A5.19,5.19,0,0,1,61.83,54.85Z"/><path class="cls-1" d="M75.94,54.85a5.13,5.13,0,1,1-5.13-5.24A5.18,5.18,0,0,1,75.94,54.85Z"/><path class="cls-1" d="M90.06,54.85a5.14,5.14,0,1,1-5.14-5.24A5.19,5.19,0,0,1,90.06,54.85Z"/><path class="cls-1" d="M104.17,54.85A5.13,5.13,0,1,1,99,49.61,5.18,5.18,0,0,1,104.17,54.85Z"/><path class="cls-1" d="M19.48,71.86a5.14,5.14,0,1,1-5.13-5.24A5.18,5.18,0,0,1,19.48,71.86Z"/><path class="cls-1" d="M33.59,71.86a5.13,5.13,0,1,1-5.13-5.24A5.18,5.18,0,0,1,33.59,71.86Z"/><path class="cls-1" d="M47.71,71.86a5.14,5.14,0,1,1-5.13-5.24A5.18,5.18,0,0,1,47.71,71.86Z"/><path class="cls-1" d="M61.83,71.86a5.14,5.14,0,1,1-5.14-5.24A5.19,5.19,0,0,1,61.83,71.86Z"/><path class="cls-1" d="M75.94,71.86a5.13,5.13,0,1,1-5.13-5.24A5.18,5.18,0,0,1,75.94,71.86Z"/><path class="cls-1" d="M90.06,71.86a5.14,5.14,0,1,1-5.14-5.24A5.19,5.19,0,0,1,90.06,71.86Z"/><path class="cls-1" d="M104.17,71.86A5.13,5.13,0,1,1,99,66.62,5.18,5.18,0,0,1,104.17,71.86Z"/><path class="cls-1" d="M19.48,88.87a5.14,5.14,0,1,1-5.13-5.25A5.19,5.19,0,0,1,19.48,88.87Z"/><path class="cls-1" d="M33.59,88.87a5.13,5.13,0,1,1-5.13-5.25A5.18,5.18,0,0,1,33.59,88.87Z"/><path class="cls-1" d="M47.71,88.87a5.14,5.14,0,1,1-5.13-5.25A5.19,5.19,0,0,1,47.71,88.87Z"/><path class="cls-1" d="M0,0V113.39H113.39V0ZM85.47,109.39c7.87-4.08,18.84-11.26,23.92-21.42v21.42ZM86,84.74a38.24,38.24,0,0,0,7.38.74,33.17,33.17,0,0,0,15.7-3.84c-3.21,13.45-18.48,22.54-27.21,26.74C84.41,102.5,87.36,93.39,86,84.74Zm23.41-6.18a30.4,30.4,0,0,1-16,4.42,37.08,37.08,0,0,1-10.81-1.67c3.51,10-1,22-3.91,28.08H4V19H109.39ZM4,15V4H109.39V15Z"/></g></g></svg>