<svg xmlns="http://www.w3.org/2000/svg" viewBox="0 0 113.39 113.39"><defs><style>.cls-1{fill:#162789;}</style></defs><title>icon-graph</title><g id="レイヤー_2" data-name="レイヤー 2"><g id="レイヤー_1-2" data-name="レイヤー 1"><path class="cls-1" d="M90.55,17.27,80.58,0l-10,17.27h7.93c-.62,9.61-4.29,17.49-11,23.44C47.46,58.59,6.64,54.06,6.23,54a2,2,0,0,0-.46,4,121.92,121.92,0,0,0,12.78.62c14.34,0,37.38-2.21,51.65-14.91C77.78,37,81.91,28.08,82.54,17.27Z"/><polygon class="cls-1" points="103.08 109.39 103.08 28.35 92.77 28.35 92.77 109.39 82.47 109.39 82.47 42.52 72.16 42.52 72.16 109.39 61.85 109.39 61.85 56.69 51.54 56.69 51.54 109.39 41.23 109.39 41.23 70.87 30.93 70.87 30.93 109.39 20.62 109.39 20.62 85.04 10.31 85.04 10.31 109.39 0 109.39 0 113.39 10.31 113.39 20.62 113.39 30.93 113.39 41.23 113.39 51.54 113.39 61.85 113.39 72.16 113.39 82.47 113.39 92.77 113.39 103.08 113.39 113.39 113.39 113.39 109.39 103.08 109.39"/></g></g></svg>