<svg xmlns="http://www.w3.org/2000/svg" viewBox="0 0 113.39 113.39"><defs><style>.cls-1{fill:#162789;}</style></defs><title>アセット 1</title><g id="レイヤー_2" data-name="レイヤー 2"><g id="レイヤー_1-2" data-name="レイヤー 1"><path class="cls-1" d="M54.82,4.37A23.87,23.87,0,0,1,78.4,24.19L79,27.56l3.4.24a16.54,16.54,0,0,1-1.19,33H20.91a16.54,16.54,0,0,1-7.8-31.13l2.42-1.3-.12-2.75c0-.17,0-.34,0-.52A11.44,11.44,0,0,1,31.16,14.54l3,1.23,2-2.52A23.85,23.85,0,0,1,54.82,4.37m0-4.37a28.25,28.25,0,0,0-22,10.5A15.82,15.82,0,0,0,11,25.13c0,.24,0,.48,0,.72A20.91,20.91,0,0,0,20.91,65.2H81.2a20.91,20.91,0,0,0,1.5-41.76A28.3,28.3,0,0,0,54.82,0Z"/><path class="cls-1" d="M111.39,113.39a2,2,0,0,1-1.8-1.13L90.83,73.69a2,2,0,0,1,3.6-1.75l18.75,38.57a2,2,0,0,1-.92,2.67A2,2,0,0,1,111.39,113.39Z"/><path class="cls-1" d="M80.1,113.39a2,2,0,0,1-1.8-1.13L59.54,73.69a2,2,0,0,1,3.6-1.75l18.75,38.57a2,2,0,0,1-.92,2.67A2,2,0,0,1,80.1,113.39Z"/><path class="cls-1" d="M48.81,113.39a2,2,0,0,1-1.8-1.13L28.25,73.69a2,2,0,0,1,3.6-1.75l18.76,38.57a2,2,0,0,1-.93,2.67A2,2,0,0,1,48.81,113.39Z"/><path class="cls-1" d="M95.74,113.39a2,2,0,0,1-1.8-1.13L80.16,83.91a2,2,0,1,1,3.59-1.75l13.79,28.35a2,2,0,0,1-1.8,2.88Z"/><path class="cls-1" d="M64.45,113.39a2,2,0,0,1-1.8-1.13L48.87,83.91a2,2,0,1,1,3.59-1.74l13.79,28.34a2,2,0,0,1-.92,2.68A2.13,2.13,0,0,1,64.45,113.39Z"/><path class="cls-1" d="M33.17,113.39a2,2,0,0,1-1.8-1.13L17.58,83.91a2,2,0,0,1,3.6-1.75L35,110.51a2,2,0,0,1-.92,2.67A2,2,0,0,1,33.17,113.39Z"/></g></g></svg>