<svg xmlns="http://www.w3.org/2000/svg" viewBox="0 0 113.39 113.39"><defs><style>.cls-1{fill:#162789;}</style></defs><title>icon-switch</title><g id="レイヤー_2" data-name="レイヤー 2"><g id="outline"><path class="cls-1" d="M113.39,17V8.5h-4.26V4.25A4.26,4.26,0,0,0,104.88,0H56.69a4.26,4.26,0,0,0-4.25,4.25V8.5H48.19V17h4.25V63.78H48.19v8.5h4.25v4.26a4.26,4.26,0,0,0,4.25,4.25h1.42v3.84a4.22,4.22,0,0,0,1.42,3.15v6.77h.83v4.08a10.76,10.76,0,1,1-21.51,0V14.76a14.76,14.76,0,1,0-29.51,0V32.6H8.5v6.76a4.27,4.27,0,0,0-1.41,3.16V53.86H2.83L0,56.69v53.86l2.83,2.84h17l2.84-2.84V56.69l-2.84-2.83H15.59V42.52a4.24,4.24,0,0,0-1.42-3.16V32.6h-.83V14.76a10.76,10.76,0,1,1,21.51,0V98.63a14.76,14.76,0,1,0,29.51,0V94.55h.84V87.78a4.25,4.25,0,0,0,1.41-3.15V80.79h38.27a4.26,4.26,0,0,0,4.25-4.25V72.28h4.26v-8.5h-4.26V17ZM18.68,108.89l-.49.5H4.49l-.49-.5v-7.68H18.68Zm0-50.54V97.21H4V58.35l.49-.49h13.7Zm86.45,18.19a.26.26,0,0,1-.25.25H56.69a.26.26,0,0,1-.25-.25V4.25A.26.26,0,0,1,56.69,4h48.19a.26.26,0,0,1,.25.25Z"/></g></g></svg>