<svg xmlns="http://www.w3.org/2000/svg" viewBox="0 0 96.38 113.39"><defs><style>.cls-1{fill:#162789;}</style></defs><title>アセット 4</title><g id="レイヤー_2" data-name="レイヤー 2"><g id="レイヤー_1-2" data-name="レイヤー 1"><polygon class="cls-1" points="82.68 0 93.67 0 87.19 8.83 96.38 8.83 76.37 31.18 83.76 14.96 77.45 14.96 82.68 0"/><polygon class="cls-1" points="13.7 0 2.7 0 9.19 8.83 0 8.83 20.01 31.18 12.62 14.96 18.93 14.96 13.7 0"/><path class="cls-1" d="M57.23,106.39c-4.53,0-5.24-2.29-5.35-3-.1-1.47-.19-3.9-.19-5.34V92.71h5.53l3.39-17H65.2a5.14,5.14,0,0,0,5.08-4.64l2.16-23.71H73.7a4.84,4.84,0,0,0,4.84-4.83V36.85A4.84,4.84,0,0,0,73.7,32H66.62V2.84A2.85,2.85,0,0,0,63.78,0H58.11a2.84,2.84,0,0,0-2.83,2.84V32H41.1V2.84A2.84,2.84,0,0,0,38.27,0H32.6a2.85,2.85,0,0,0-2.84,2.84V32H22.68a4.84,4.84,0,0,0-4.84,4.83v5.67a4.84,4.84,0,0,0,4.84,4.83h1.26L26.1,71.06a5.14,5.14,0,0,0,5.08,4.64h4.59l3.39,17h5.53V98c0,1.63.1,4.29.22,5.92.24,3.27,3.13,9.45,12.32,9.45H95v-7ZM61,2.84a2.83,2.83,0,1,1-2.84,2.83A2.83,2.83,0,0,1,61,2.84Zm-25.52,0A2.83,2.83,0,1,1,32.6,5.67,2.83,2.83,0,0,1,35.43,2.84Zm7,85.87-3.38-17H31.18a1.17,1.17,0,0,1-1.1-1L27.6,43.35H22.68a.85.85,0,0,1-.84-.83V36.85a.85.85,0,0,1,.84-.83h51a.85.85,0,0,1,.84.83v5.67a.85.85,0,0,1-.84.83H68.78L66.3,70.7a1.17,1.17,0,0,1-1.1,1H57.32l-3.38,17Z"/></g></g></svg>