<svg xmlns="http://www.w3.org/2000/svg" viewBox="0 0 113.39 113.39"><defs><style>.cls-1{fill:#162789;}</style></defs><title>icon-sensor02</title><g id="レイヤー_2" data-name="レイヤー 2"><g id="レイヤー_1-2" data-name="レイヤー 1"><polygon class="cls-1" points="4 30.35 0 30.35 0 0 30.35 0 30.35 4 4 4 4 30.35"/><polygon class="cls-1" points="113.39 30.35 109.39 30.35 109.39 4 83.04 4 83.04 0 113.39 0 113.39 30.35"/><polygon class="cls-1" points="30.35 113.39 0 113.39 0 83.04 4 83.04 4 109.39 30.35 109.39 30.35 113.39"/><polygon class="cls-1" points="113.39 113.39 83.04 113.39 83.04 109.39 109.39 109.39 109.39 83.04 113.39 83.04 113.39 113.39"/><path class="cls-1" d="M113.39,54.69H95.49a38.9,38.9,0,0,0-36.8-36.8V0h-4V17.89a38.91,38.91,0,0,0-36.8,36.8H0v4H17.89a38.9,38.9,0,0,0,36.8,36.8v17.9h4V95.49a38.9,38.9,0,0,0,36.8-36.8h17.9ZM58.69,91.48v-15c-.65.06-1.32.1-2,.1s-1.34,0-2-.1v15A34.9,34.9,0,0,1,21.9,58.69H37a18.73,18.73,0,0,1-.1-2,19,19,0,0,1,.1-2H21.9A34.92,34.92,0,0,1,54.69,21.9V37a19,19,0,0,1,2-.1,18.73,18.73,0,0,1,2,.1V21.9A34.9,34.9,0,0,1,91.48,54.69h-15a19,19,0,0,1,.11,2,18.71,18.71,0,0,1-.11,2h15A34.89,34.89,0,0,1,58.69,91.48Z"/><path class="cls-1" d="M54.69,37A19.85,19.85,0,0,0,37,54.69H54.69Z"/><polygon class="cls-1" points="56.69 36.85 56.68 36.85 56.7 36.85 56.69 36.85"/><path class="cls-1" d="M76.54,56.69v0Z"/><path class="cls-1" d="M76.43,54.69A19.84,19.84,0,0,0,58.69,37V54.69Z"/><path class="cls-1" d="M37,58.69A19.86,19.86,0,0,0,54.69,76.44V58.69Z"/><path class="cls-1" d="M58.69,76.44A19.85,19.85,0,0,0,76.43,58.69H58.69Z"/><path class="cls-1" d="M54.69,76.54h2c-.67,0-1.34,0-2-.1Z"/><path class="cls-1" d="M54.69,36.85V37c.66-.06,1.32-.1,2-.1Z"/><path class="cls-1" d="M58.69,76.54v-.1c-.65.06-1.32.1-2,.1Z"/><path class="cls-1" d="M37,54.69h-.1v4H37a18.73,18.73,0,0,1-.1-2A19,19,0,0,1,37,54.69Z"/><path class="cls-1" d="M58.69,36.85h-2c.67,0,1.34,0,2,.1Z"/><path class="cls-1" d="M76.53,56.71a18.49,18.49,0,0,1-.1,2h.1Z"/><path class="cls-1" d="M76.53,54.69h-.1a18.49,18.49,0,0,1,.1,2Z"/></g></g></svg>