<svg xmlns="http://www.w3.org/2000/svg" viewBox="0 0 113.39 113.39"><defs><style>.cls-1{fill:#162789;}</style></defs><title>icon-clock</title><g id="レイヤー_2" data-name="レイヤー 2"><g id="レイヤー_1-2" data-name="レイヤー 1"><path class="cls-1" d="M56.69,0q-.88,0-1.77,0l-.51,0L53.07.12l-.47,0c-.59,0-1.18.09-1.76.15h-.11l-1.64.2-.44.06L47.24.79,46.9.85c-.59.1-1.18.21-1.76.33l-.08,0c-.55.11-1.1.24-1.64.37l-.33.08c-.52.12-1,.26-1.56.4l-.13,0c-.59.16-1.19.34-1.77.53h0c-.56.18-1.12.36-1.68.56l-.19.07c-1.72.61-3.41,1.3-5,2.06l-.07,0a53.92,53.92,0,0,0-4.87,2.59h0A56.7,56.7,0,1,0,105.8,85.05h0c.29-.51.57-1,.85-1.53l.09-.17c.24-.44.46-.88.69-1.33l.15-.3c.23-.47.45-.93.67-1.4a.61.61,0,0,1,0-.12c.24-.53.48-1.06.7-1.6l.06-.16q.3-.71.57-1.41c0-.11.09-.23.13-.35.17-.45.34-.91.5-1.37,0-.07,0-.15.08-.23q.28-.82.54-1.65a1.54,1.54,0,0,1,.05-.17l.42-1.45c0-.14.07-.27.11-.41.12-.44.23-.88.34-1.33,0-.11,0-.23.08-.35.13-.55.26-1.11.37-1.68l0-.16c.1-.5.19-1,.28-1.5,0-.16,0-.32.08-.48.07-.42.13-.85.19-1.28,0-.15,0-.3.07-.45.07-.57.14-1.14.2-1.71a.57.57,0,0,1,0-.13c0-.52.09-1,.13-1.58l0-.52c0-.42,0-.85.07-1.27,0-.17,0-.34,0-.52,0-.57,0-1.15,0-1.74A56.7,56.7,0,0,0,56.69,0Zm2,109.34V99.21a2,2,0,1,0-4,0v10.13A52.76,52.76,0,0,1,4,58.69H14.17a2,2,0,1,0,0-4H4A52.74,52.74,0,0,1,29.8,11.39l26.89,45.3L102.31,83A52.71,52.71,0,0,1,58.69,109.34Zm22.38-48A26.94,26.94,0,0,1,73.72,8.5,23.55,23.55,0,0,0,107,41.77,27,27,0,0,1,81.07,61.35Z"/></g></g></svg>