<svg xmlns="http://www.w3.org/2000/svg" viewBox="0 0 113.55 113.39"><defs><style>.cls-1{fill:#162789;}</style></defs><title>アセット 1</title><g id="レイヤー_2" data-name="レイヤー 2"><g id="レイヤー_1-2" data-name="レイヤー 1"><path class="cls-1" d="M106.75,76A14.88,14.88,0,0,0,93.44,54.38a15.18,15.18,0,0,0-3.18.34A24,24,0,0,0,51.6,44.58,28.35,28.35,0,1,0,0,28.35a28.19,28.19,0,0,0,10.86,22.3,2,2,0,0,0,2.47-3.14,24.35,24.35,0,1,1,30.05,0,2,2,0,1,0,2.47,3.14c.65-.51,1.26-1,1.86-1.6a23.8,23.8,0,0,0-4.08,13.37,24.06,24.06,0,0,0,1.29,7.76,21.34,21.34,0,0,0-4.87,1.14L30.28,25.49a2,2,0,0,0-3.91,0L10.51,99.86a2,2,0,0,0,3.91.83L16.91,89h9a21.66,21.66,0,0,0,21.5,24.37H91.87A21.67,21.67,0,0,0,106.75,76ZM38.88,85H31.06a17.75,17.75,0,0,1,6.17-7.76ZM28.32,35.5l7.69,36H20.64ZM17.76,85l2-9.49H33A21.68,21.68,0,0,0,26.8,85Zm74.11,24.37H47.42A17.7,17.7,0,0,1,29.75,91.71,18.31,18.31,0,0,1,30,89h9.79l2.49,11.67a2,2,0,0,0,3.91-.83L40.9,75.28a17.53,17.53,0,0,1,4.48-1.13l4.94-.56-1.61-4.71a19.77,19.77,0,0,1-1.08-6.46A20,20,0,0,1,86.48,56l1.14,3.39,3.49-.76a10.91,10.91,0,0,1,13.23,10.64,10.72,10.72,0,0,1-1.16,4.88l-1.34,2.66,2.16,2a17.5,17.5,0,0,1,5.55,12.85A17.7,17.7,0,0,1,91.87,109.39Z"/><path class="cls-1" d="M39.25,38.27A2,2,0,0,1,37.72,35,12.22,12.22,0,1,0,19,35a2,2,0,1,1-3.06,2.57,16.22,16.22,0,1,1,24.87,0A2,2,0,0,1,39.25,38.27Z"/></g></g></svg>