<svg xmlns="http://www.w3.org/2000/svg" viewBox="0 0 113.39 113.38"><defs><style>.cls-1{fill:#162789;}</style></defs><title>アセット 3</title><g id="レイヤー_2" data-name="レイヤー 2"><g id="レイヤー_1-2" data-name="レイヤー 1"><path class="cls-1" d="M29.49,4A25.48,25.48,0,0,1,53.13,39,4,4,0,0,0,54,43.29l29.29,29.3a4,4,0,0,0,2.83,1.17,4.22,4.22,0,0,0,.93-.11A18.12,18.12,0,1,1,73.65,87.07a4,4,0,0,0-1.06-3.76L43.29,54a4,4,0,0,0-2.83-1.17,4,4,0,0,0-1.48.28A25.49,25.49,0,0,1,4.65,23.71L18.73,37.79A4,4,0,0,0,21.55,39h.24l12.66-.74a4,4,0,0,0,3.76-3.76L39,21.79a4,4,0,0,0-1.16-3.06L23.72,4.66A25.47,25.47,0,0,1,29.49,4M91.27,99.48a8.21,8.21,0,1,0-5.8-2.4,8.15,8.15,0,0,0,5.8,2.4M29.49,0a29.42,29.42,0,0,0-13,3L35,21.56l-.75,12.65L21.55,35,3,16.44A29.5,29.5,0,0,0,40.47,56.85L69.76,86.14A22.09,22.09,0,1,0,86.14,69.76L56.85,40.46A29.48,29.48,0,0,0,29.49,0ZM91.27,95.48a4.21,4.21,0,1,1,3-1.23,4.22,4.22,0,0,1-3,1.23Z"/></g></g></svg>