<svg xmlns="http://www.w3.org/2000/svg" viewBox="0 0 113.11 113.82"><defs><style>.cls-1{fill:#162789;}</style></defs><title>icon-monitor01</title><g id="レイヤー_2" data-name="レイヤー 2"><g id="レイヤー_1-2" data-name="レイヤー 1"><path class="cls-1" d="M100.37,7.9H35.46a4.84,4.84,0,0,0-4.84,4.84V33.25A20.94,20.94,0,0,1,33.9,33h.72V12.74a.85.85,0,0,1,.84-.84h64.91a.85.85,0,0,1,.84.84v45.7a.85.85,0,0,1-.84.84H54.59a21,21,0,0,1-1.39,4h47.17a4.84,4.84,0,0,0,4.84-4.84V12.74A4.84,4.84,0,0,0,100.37,7.9Z"/><path class="cls-1" d="M106.33,0H29.5a6.8,6.8,0,0,0-6.78,6.78V36.16a21.34,21.34,0,0,1,4-1.92V6.78A2.82,2.82,0,0,1,29.5,4h76.83a2.79,2.79,0,0,1,2.78,2.78V70.05a2.78,2.78,0,0,1-2.78,2.77H75.21V87.27H60.62V72.82H44.36A21.17,21.17,0,0,1,33.9,75.58c-3.87,0-7.17,1.24-4.4,1.24H56.62v9.49a36.47,36.47,0,0,1,3.59,5H87.76v-4H79.21V76.82h27.12a6.8,6.8,0,0,0,6.78-6.77V6.78A6.8,6.8,0,0,0,106.33,0Z"/><path class="cls-1" d="M44.06,75.24a23.29,23.29,0,1,0-20.32,0C10,80.13,0,94.68,0,111.82a2,2,0,0,0,4,0c0-18.35,12.59-33.39,28.37-34.3.51,0,1,.06,1.53.06s1,0,1.53-.06c15.78.92,28.37,16,28.37,34.3a2,2,0,0,0,4,0C67.8,94.68,57.8,80.13,44.06,75.24ZM14.61,54.29A19.29,19.29,0,1,1,35.33,73.52c-.47,0-.95,0-1.43,0s-1,0-1.44,0A19.32,19.32,0,0,1,14.61,54.29Z"/></g></g></svg>