<svg xmlns="http://www.w3.org/2000/svg" viewBox="0 0 113.39 113.39"><defs><style>.cls-1{fill:#162789;}</style></defs><title>icon-monitor02</title><g id="レイヤー_2" data-name="レイヤー 2"><g id="レイヤー_1-2" data-name="レイヤー 1"><path class="cls-1" d="M104.88,0H8.5A8.49,8.49,0,0,0,0,8.42V87a8.5,8.5,0,0,0,8.5,8.43h34v13.94H31.8v4H81.59v-4H70.87V99.5a88.11,88.11,0,0,0,9.49,1.68l2.24,1.88-1.26,1.49a2,2,0,0,0,.24,2.74l6.72,5.64a2,2,0,0,0,2.75-.24l14.5-17.28A8.48,8.48,0,0,0,113.39,87V8.42A8.49,8.49,0,0,0,104.88,0Zm-38,109.39H46.52V91.45H8.5A4.47,4.47,0,0,1,4,87V8.42A4.46,4.46,0,0,1,8.5,4h96.38a4.47,4.47,0,0,1,4.51,4.42V84.83l-5.26-4.41a2,2,0,0,0-2.74.24l-1.26,1.5-2.24-1.88s.17-.5.38-1.37a5.55,5.55,0,0,0,4.36-5.41V16a5.56,5.56,0,0,0-5.56-5.56H16.31A5.56,5.56,0,0,0,10.76,16V73.5a5.56,5.56,0,0,0,5.55,5.55H56a7,7,0,0,0,.49,1.12,4.61,4.61,0,0,0-3.2,1.52,3.9,3.9,0,0,0-.65,1.1c-2.47,6.11,6.21,11.82,6.21,11.82a24,24,0,0,0,8,3.81Zm20.9-71.91a2.68,2.68,0,0,0-2.4-1,2.65,2.65,0,0,0-2,1.68l-4.09,9.45L72.16,28.47c-.56-1.51-1.45-1.67-1.94-1.63s-1.34.34-1.66,1.91L64.84,47.81l-5.58-4.68L56.7,41a6.89,6.89,0,0,0-1.49-.82l0,0,.21.08.06,0,.25.11h0V22h-2.5V39.7a5.13,5.13,0,0,0-4.49,2,6.76,6.76,0,0,0-.78,1.13,14.9,14.9,0,1,0-.12,4.8,6.65,6.65,0,0,0,1.28,1.81l4.11,3.44V68.57h6.07a5.47,5.47,0,0,0,.94,2.52,7.29,7.29,0,0,0-3.44,2,2.61,2.61,0,0,0-.34.46,6.12,6.12,0,0,0-.66,1.47H16.31a1.56,1.56,0,0,1-1.55-1.55V16a1.56,1.56,0,0,1,1.55-1.56H97.07A1.56,1.56,0,0,1,98.63,16V64.91c-1-6.3-2.47-13.71-2.47-13.71s-.93-4.77-5.19-3.86a3.92,3.92,0,0,0-2.2,1.36,8.84,8.84,0,0,0-1.65,4.43L84.89,64.64,67,49.64l3.56-18.26,6.68,17.93C77.81,50.8,78.79,51,79.19,51a2.15,2.15,0,0,0,2-1.57l4.46-10.29a.53.53,0,0,1,.08-.15l.12.12,6.31,7.44,1.91-1.62ZM32.93,46.24,42,53.69a12.37,12.37,0,0,1-20.78-5.92Zm-12-1v-.36A12.4,12.4,0,0,1,32.06,32.61V43.83Zm12.38-.36Zm1.25-.59V32.61a12.38,12.38,0,0,1,9.07,19.15ZM59.71,66.07H55.82V55L65,62.69a5.74,5.74,0,0,0-4.34,1.8,3.54,3.54,0,0,0-.41.58A6.56,6.56,0,0,0,59.71,66.07Zm22.41,33a2.71,2.71,0,0,0-1.46-.63c-4.14-.45-15.79-2.4-20-5.94l-.25-.19c-.07,0-6.73-4.65-5.17-8.49a1,1,0,0,1,.21-.37,1.84,1.84,0,0,1,1.16-.53,2.68,2.68,0,0,0,2.12-1,2.42,2.42,0,0,0,.29-.42,2.71,2.71,0,0,0-.12-2.81,3.84,3.84,0,0,1,0-3.72l.1-.14a4.63,4.63,0,0,1,2-1.12,2.87,2.87,0,0,0,1.55-.92,2.7,2.7,0,0,0,0-3.42,2.7,2.7,0,0,1,0-2.94,2,2,0,0,1,.17-.23,3,3,0,0,1,2.09-.81,2.67,2.67,0,0,0,2.27-1,3,3,0,0,0,.45-.73,2.8,2.8,0,0,0-.82-3.17L51.06,47.45a4,4,0,0,1-.77-1.24,2.46,2.46,0,0,1,.65-2.69,2.36,2.36,0,0,1,2.44-1,4.49,4.49,0,0,1,1.63.68l2.48,2.08L83.13,66.75a2.74,2.74,0,0,0,2.68.49A2.79,2.79,0,0,0,87,66.41a2.7,2.7,0,0,0,.59-1.24l2.23-11.52c0-.11,0-.21,0-.32a6.2,6.2,0,0,1,1-2.86,1.16,1.16,0,0,1,.66-.44,1.09,1.09,0,0,1,1.32.42,3.77,3.77,0,0,1,.6,1.3c.06.29,1.94,9.68,2.83,16.08a29.55,29.55,0,0,1-1,11.59,2.75,2.75,0,0,0,.85,3l2.24,1.88L84.36,101Zm7.34,11.24L84,105.7,103,83l5.49,4.61Z"/></g></g></svg>