<svg xmlns="http://www.w3.org/2000/svg" viewBox="0 0 600.4 173"><defs><style>.cls-1{fill:#10069f;}.cls-2{fill:#fff;}</style></defs><title>about-img01</title><g id="レイヤー_2" data-name="レイヤー 2"><g id="レイヤー_1-2" data-name="レイヤー 1"><circle class="cls-1" cx="86.5" cy="86.5" r="86.5"/><circle class="cls-1" cx="300.2" cy="86.5" r="86.5"/><circle class="cls-1" cx="513.9" cy="86.5" r="86.5"/><path class="cls-1" d="M145.9,23.6C163.3,40.2,170.5,48,192.7,48c28.4,0,41.1-19.2,50.1-26.2V151.2c-22.8-22.9-39.5-26-49.7-26s-26,2.9-47.2,24.2Z"/><path class="cls-1" d="M454.5,23.6C437,40.2,429.8,48,407.6,48c-28.4,0-41-19.2-50-26.2V151.2c22.8-22.9,39.5-26,49.7-26s25.9,2.9,47.2,24.2Z"/><path class="cls-2" d="M12.9,75.6h2.7l3.3,9.3c.4,1.2.8,2.4,1.3,3.7h.1l1.2-3.7,3.3-9.3h2.7V93H25.4V83.4c0-1.5.2-3.6.3-5.2h-.1l-1.4,4-3.3,9.1H19.4l-3.3-9.1-1.4-4h0c0,1.6.2,3.7.2,5.2V93h-2Z"/><path class="cls-2" d="M31.1,86.6c0-4.2,2.8-6.8,5.8-6.8S42,82.2,42,85.9a4.5,4.5,0,0,1-.1,1.2H33.2c.2,2.7,1.9,4.5,4.3,4.5a5.5,5.5,0,0,0,3.2-1l.8,1.4a7.8,7.8,0,0,1-4.3,1.3C33.8,93.3,31.1,90.8,31.1,86.6Zm9-1.1c0-2.6-1.2-4-3.2-4s-3.4,1.5-3.7,4Z"/><path class="cls-2" d="M44,89.7c0-2.8,2.5-4.2,8-4.8,0-1.7-.6-3.3-2.7-3.3A7.4,7.4,0,0,0,45.4,83l-.8-1.5a9.4,9.4,0,0,1,5.1-1.7c3.1,0,4.4,2.1,4.4,5.3V93H52.4l-.2-1.5h-.1a6.9,6.9,0,0,1-4.3,1.8A3.5,3.5,0,0,1,44,89.7Zm8,.2V86.3c-4.4.5-5.9,1.6-5.9,3.2s1,2.1,2.3,2.1A5.5,5.5,0,0,0,52,89.9Z"/><path class="cls-2" d="M56.8,91.6l1.1-1.5a5.9,5.9,0,0,0,3.8,1.6c1.7,0,2.5-.9,2.5-2.1s-1.5-1.9-2.9-2.4-3.9-1.6-3.9-3.8,1.7-3.6,4.5-3.6a7.1,7.1,0,0,1,4,1.4l-1,1.4a5.2,5.2,0,0,0-3-1.1c-1.6,0-2.4.9-2.4,1.9s1.4,1.6,2.9,2.2,3.9,1.5,3.9,3.9-1.6,3.8-4.7,3.8A7.8,7.8,0,0,1,56.8,91.6Z"/><path class="cls-2" d="M69.2,88.3V80.1h2.2V88c0,2.4.7,3.5,2.4,3.5s2.3-.7,3.5-2.2V80.1h2.2V93H77.7l-.2-2h-.1a5.5,5.5,0,0,1-4.3,2.3C70.4,93.3,69.2,91.6,69.2,88.3Z"/><path class="cls-2" d="M83.8,80.1h1.8l.2,2.4h.1c.9-1.7,2.2-2.7,3.6-2.7a2.9,2.9,0,0,1,1.4.3L90.5,82a2.5,2.5,0,0,0-1.3-.2c-1,0-2.4.7-3.2,2.9V93H83.8Z"/><path class="cls-2" d="M91.8,86.6c0-4.2,2.8-6.8,5.8-6.8s5.2,2.4,5.2,6.1c0,.4-.1.9-.1,1.2H94c.1,2.7,1.8,4.5,4.3,4.5a6,6,0,0,0,3.2-1l.8,1.4A8.4,8.4,0,0,1,98,93.3C94.6,93.3,91.8,90.8,91.8,86.6Zm9.1-1.1c0-2.6-1.2-4-3.2-4s-3.5,1.5-3.8,4Z"/><path class="cls-2" d="M106,80.1h1.7l.2,1.9h.1a5.8,5.8,0,0,1,4-2.2,3.4,3.4,0,0,1,3.6,2.5c1.3-1.5,2.7-2.5,4.2-2.5s4,1.7,4,5.1V93h-2.2V85.1c0-2.4-.8-3.4-2.4-3.4s-2,.6-3.3,2V93h-2.1V85.1c0-2.4-.8-3.4-2.4-3.4s-2.1.6-3.3,2V93H106Z"/><path class="cls-2" d="M127,86.6c0-4.2,2.8-6.8,5.8-6.8s5.2,2.4,5.2,6.1c0,.4-.1.9-.1,1.2h-8.7c.1,2.7,1.8,4.5,4.2,4.5a6.1,6.1,0,0,0,3.3-1l.8,1.4a8.4,8.4,0,0,1-4.3,1.3C129.8,93.3,127,90.8,127,86.6Zm9.1-1.1c0-2.6-1.2-4-3.2-4s-3.5,1.5-3.8,4Z"/><path class="cls-2" d="M141.2,80.1h1.7l.2,1.9h.1a6.2,6.2,0,0,1,4.3-2.2c2.7,0,4,1.7,4,5.1V93h-2.2V85.1c0-2.4-.7-3.4-2.4-3.4s-2.3.7-3.6,2V93h-2.1Z"/><path class="cls-2" d="M156.1,89V81.9h-2V80.2h2.1l.2-3.6h1.8v3.6h3.5v1.8h-3.5v7.2c0,1.6.5,2.5,2,2.5l1.5-.3.4,1.6a9.3,9.3,0,0,1-2.3.4C157,93.3,156.1,91.6,156.1,89Z"/><path class="cls-2" d="M237.5,84.3c0-5.6,3.3-9,7.7-9a6.5,6.5,0,0,1,4.8,2.1l-1.2,1.5a4.7,4.7,0,0,0-3.5-1.7c-3.4,0-5.5,2.7-5.5,7.1s2,7.1,5.4,7.1a5.3,5.3,0,0,0,4-1.9l1.2,1.3a6.6,6.6,0,0,1-5.3,2.5C240.8,93.3,237.5,90,237.5,84.3Z"/><path class="cls-2" d="M252.5,86.6c0-4.3,2.8-6.8,6-6.8s6,2.5,6,6.8-2.8,6.7-6,6.7S252.5,90.9,252.5,86.6Zm9.8,0c0-3-1.6-5-3.8-5s-3.7,2-3.7,5,1.5,4.9,3.7,4.9S262.3,89.6,262.3,86.6Z"/><path class="cls-2" d="M267.9,80.1h1.8l.2,1.9h0c1.3-1.2,2.6-2.2,4.4-2.2s3.9,1.7,3.9,5.1V93H276V85.1c0-2.4-.7-3.4-2.4-3.4s-2.2.7-3.5,2V93h-2.2Z"/><path class="cls-2" d="M282.4,80.1h1.8l.2,1.9h.1a6,6,0,0,1,4.3-2.2c2.7,0,3.9,1.7,3.9,5.1V93h-2.1V85.1c0-2.4-.8-3.4-2.5-3.4s-2.2.7-3.5,2V93h-2.2Z"/><path class="cls-2" d="M296,86.6c0-4.2,2.8-6.8,5.8-6.8s5.1,2.4,5.1,6.1a4.5,4.5,0,0,1-.1,1.2h-8.7c.2,2.7,1.9,4.5,4.3,4.5a6.1,6.1,0,0,0,3.3-1l.7,1.4a7.7,7.7,0,0,1-4.2,1.3C298.7,93.3,296,90.8,296,86.6Zm9-1.1c0-2.6-1.1-4-3.2-4s-3.4,1.5-3.7,4Z"/><path class="cls-2" d="M309.2,86.6c0-4.3,2.9-6.8,6.2-6.8a5.7,5.7,0,0,1,3.8,1.5l-1.1,1.5a3.9,3.9,0,0,0-2.6-1.2c-2.4,0-4.1,2-4.1,5s1.6,4.9,4,4.9a5,5,0,0,0,3.1-1.2l.9,1.4a6.5,6.5,0,0,1-4.2,1.6C311.8,93.3,309.2,90.9,309.2,86.6Z"/><path class="cls-2" d="M322.4,89V81.9h-2V80.2h2l.3-3.6h1.8v3.6H328v1.8h-3.5v7.2c0,1.6.5,2.5,2,2.5l1.5-.3.4,1.6a9.3,9.3,0,0,1-2.4.4C323.3,93.3,322.4,91.6,322.4,89Z"/><path class="cls-2" d="M330.5,76a1.5,1.5,0,0,1,1.5-1.4,1.4,1.4,0,0,1,1.5,1.4,1.4,1.4,0,0,1-1.5,1.5A1.5,1.5,0,0,1,330.5,76Zm.4,4.1h2.2V93h-2.2Z"/><path class="cls-2" d="M336.5,86.6c0-4.3,2.8-6.8,6-6.8s6,2.5,6,6.8-2.8,6.7-6,6.7S336.5,90.9,336.5,86.6Zm9.8,0c0-3-1.6-5-3.8-5s-3.7,2-3.7,5,1.5,4.9,3.7,4.9S346.3,89.6,346.3,86.6Z"/><path class="cls-2" d="M351.9,80.1h1.8l.2,1.9h0c1.3-1.2,2.6-2.2,4.4-2.2s3.9,1.7,3.9,5.1V93h-2.1V85.1c0-2.4-.8-3.4-2.5-3.4s-2.2.7-3.5,2V93h-2.2Z"/><path class="cls-2" d="M460.9,87.7h-6.4L452.9,93h-2.3l5.9-17.4H459L464.9,93h-2.3Zm-.5-1.8-.9-2.6-1.7-5.9h-.1L456,83.3l-.9,2.6Z"/><path class="cls-2" d="M467.2,80.1H469l.2,1.5h0a6.6,6.6,0,0,1,4.1-1.8c3.4,0,5.2,2.6,5.2,6.6s-2.7,6.9-5.6,6.9a5.6,5.6,0,0,1-3.6-1.5v6.7h-2.1Zm9,6.3c0-2.9-.9-4.8-3.4-4.8a5.4,5.4,0,0,0-3.5,1.8v6.8a5.1,5.1,0,0,0,3.2,1.3C474.6,91.5,476.2,89.6,476.2,86.4Z"/><path class="cls-2" d="M481.9,80.1h1.8l.2,1.5h.1a6.4,6.4,0,0,1,4.1-1.8c3.3,0,5.1,2.6,5.1,6.6s-2.6,6.9-5.6,6.9a5.6,5.6,0,0,1-3.6-1.5v6.7h-2.2Zm9.1,6.3c0-2.9-1-4.8-3.4-4.8a5.2,5.2,0,0,0-3.5,1.8v6.8a4.9,4.9,0,0,0,3.2,1.3C489.4,91.5,491,89.6,491,86.4Z"/><path class="cls-2" d="M496.7,90.5V74.1h2.1V90.6c0,.7.3.9.7.9h.4l.3,1.7H499C497.3,93.3,496.7,92.3,496.7,90.5Z"/><path class="cls-2" d="M503,76a1.5,1.5,0,0,1,1.5-1.4A1.4,1.4,0,0,1,506,76a1.4,1.4,0,0,1-1.5,1.5A1.5,1.5,0,0,1,503,76Zm.4,4.1h2.2V93h-2.2Z"/><path class="cls-2" d="M509,86.6c0-4.3,2.9-6.8,6.2-6.8a5.5,5.5,0,0,1,3.8,1.5l-1.1,1.5a3.7,3.7,0,0,0-2.6-1.2c-2.3,0-4,2-4,5s1.6,4.9,4,4.9a4.5,4.5,0,0,0,3-1.2l.9,1.4a6.2,6.2,0,0,1-4.1,1.6C511.7,93.3,509,90.9,509,86.6Z"/><path class="cls-2" d="M521,89.7c0-2.8,2.5-4.2,8-4.8,0-1.7-.6-3.3-2.7-3.3a7.1,7.1,0,0,0-3.9,1.4l-.8-1.5a9.4,9.4,0,0,1,5.1-1.7c3.1,0,4.4,2.1,4.4,5.3V93h-1.8V91.5h-.1a7.2,7.2,0,0,1-4.3,1.8A3.5,3.5,0,0,1,521,89.7Zm8,.2V86.3c-4.4.5-5.9,1.6-5.9,3.2s1,2.1,2.3,2.1A5.5,5.5,0,0,0,529,89.9Z"/><path class="cls-2" d="M535.3,89V81.9h-2V80.2h2.1l.2-3.6h1.8v3.6h3.5v1.8h-3.5v7.2c0,1.6.5,2.5,2,2.5l1.5-.3.4,1.6a9.3,9.3,0,0,1-2.3.4C536.2,93.3,535.3,91.6,535.3,89Z"/><path class="cls-2" d="M543.4,76a1.5,1.5,0,0,1,1.5-1.4,1.4,1.4,0,0,1,1.5,1.4,1.4,1.4,0,0,1-1.5,1.5A1.5,1.5,0,0,1,543.4,76Zm.5,4.1H546V93h-2.1Z"/><path class="cls-2" d="M549.4,86.6c0-4.3,2.8-6.8,6-6.8s6,2.5,6,6.8-2.8,6.7-6,6.7S549.4,90.9,549.4,86.6Zm9.8,0c0-3-1.5-5-3.8-5s-3.7,2-3.7,5,1.5,4.9,3.7,4.9S559.2,89.6,559.2,86.6Z"/><path class="cls-2" d="M564.8,80.1h1.8l.2,1.9h.1a6,6,0,0,1,4.3-2.2c2.7,0,3.9,1.7,3.9,5.1V93H573V85.1c0-2.4-.8-3.4-2.5-3.4s-2.2.7-3.5,2V93h-2.2Z"/></g></g></svg>