<svg version="1.1" id="レイヤー_1" xmlns="http://www.w3.org/2000/svg" x="0" y="0" width="230.574" height="50" xml:space="preserve"><style>.st0{fill:#10069f}</style><path class="st0" d="M36.062 28.334c-1.865.191-3.793.388-5.08 1.857-1.112 1.269-1.495 3.166-.954 4.72.714 2.051 2.612 3.301 5.067 3.301 1.789 0 3.555-.654 4.703-1.816a5.38 5.38 0 00.849-1.122c1.204-2.184 1.111-5.185.844-7.383l-5.429.443z"/><path class="st0" d="M37.54 9.231a19.786 19.786 0 00-7.236-.272c-2.52.373-5.049.03-7.406-.893a18.57 18.57 0 01-.975-.419c-1.57-.719-3.385-1.236-5.914-1.072-2.339.152-4.434 1.093-5.908 2.115.846.156 1.658.373 2.304.663 3.201 1.433 5.234 3.438 6.231 6.535.533 1.656.422 4.083-.395 6.757l-4.21 13.769c2.419 6.927 8.412 12.272 16.045 13.379 11.449 1.66 22.084-6.869 23.088-18.847.85-10.167-5.891-19.539-15.624-21.715zm8.28 31.428s-.575.346-.981.361h-1.99c-1.465 0-1.235-.476-1.235-2.606-3.108 2.869-7.14 4.036-11.078 2.535-6.668-2.542-6.363-11.709-.509-14.858 2.615-1.407 11.724-1.395 11.724-1.395s-.058-6.711-5.654-7.493c-2.084-.291-4.859.575-5.771.718-.72.113-1.163-.363-1.423-.961-.345-.795-.848-1.664.532-2.317 1.077-.51 4.697-1.42 6.934-1.141 3.481.435 6.011 1.758 7.87 4.428.994 1.428 1.583 3.781 1.583 6.578-.002 5.309-.002 16.151-.002 16.151z"/><path class="st0" d="M14.36 21.701c-.057-.017-5.675-1.734-9.333-2.098l-.164-.016-.012-.164c-.192-3.385.776-5.757 2.033-7.706l.064-.096.115.009c1.3.105 2.955.3 4.22.889 5.216 2.427 3.341 8.985 3.322 9.051l-.056.189-.189-.058zm-8.138 11.4a7.514 7.514 0 01-2.201-.331C1.592 32.027.09 30.227.002 27.953c-.065-1.713.893-3.484 2.385-4.409.756-.468 1.625-.696 2.654-.696.257 0 .524.014.813.041.698.067 1.398.205 2.074.339l5.509 1.204-.033.185c-.351 1.979-.879 3.639-1.568 4.933-.422.792-.911 1.461-1.454 1.987a5.569 5.569 0 01-1.183.856c-.856.464-1.886.708-2.977.708zm86.027-11.105c-.253-3.677-2.924-6.072-4.096-6.856-1.419-.95-3.384-1.688-6.079-1.688-2.409 0-4.333.636-5.823 1.596-.56.361-1.362 1.076-1.961 1.662-.599-.586-1.401-1.301-1.961-1.662-1.489-.96-3.414-1.596-5.823-1.596-2.694 0-4.66.739-6.079 1.688-1.172.784-3.843 3.179-4.096 6.856l-.045 17.262c-.056 1.828 1.155 1.828 1.483 1.828l2.154-.001c.432 0 .976-.362.976-.362V24.646c0-3.421.744-6.991 5.607-7.011 3.679 0 5.803 2.255 5.672 7.011v14.582c0 1.337 1.105 1.671 2.11 1.671s2.113-.312 2.113-1.671V24.646c-.132-4.756 1.993-7.011 5.672-7.011 4.863.02 5.607 3.59 5.607 7.011v16.077s.545.362.976.362l2.154.001c.327 0 1.539 0 1.483-1.828l-.044-17.262zm91.797 0c-.253-3.677-2.924-6.072-4.096-6.856-1.419-.95-3.384-1.688-6.079-1.688-2.409 0-4.333.636-5.823 1.596-.56.361-1.362 1.076-1.961 1.662-.599-.586-1.401-1.301-1.961-1.662-1.489-.96-3.414-1.596-5.823-1.596-2.694 0-4.66.739-6.079 1.688-1.172.784-3.844 3.179-4.096 6.856l-.045 17.262c-.056 1.828 1.155 1.828 1.483 1.828l2.154-.001c.432 0 .976-.362.976-.362V24.646c0-3.421.744-6.991 5.607-7.011 3.679 0 5.803 2.255 5.672 7.011v14.582c0 1.337 1.105 1.671 2.11 1.671s2.113-.312 2.113-1.671V24.646c-.132-4.756 1.993-7.011 5.672-7.011 4.863.02 5.607 3.59 5.607 7.011v16.077s.545.362.976.362l2.154.001c.327 0 1.539 0 1.483-1.828l-.044-17.262zm-62.554-3.734c-1.005-1.648-2.428-3.014-4.177-3.848-1.583-.754-3.38-1.031-5.122-1.056-1.742.025-3.447.301-5.03 1.056-1.749.833-3.173 2.199-4.177 3.848-.909 1.492-1.529 3.693-1.527 5.192v16.087c0 .97.622 1.565 1.436 1.565h2.275c.423 0 1.006-.363 1.006-.363s.004-11.347.004-16.291c0-2.788 1.006-4.398 1.76-5.252 1.189-1.346 3.1-1.64 4.249-1.632 1.15.007 3.188.331 4.348 1.632.758.85 1.76 2.463 1.76 5.252 0 4.944.025 16.29.025 16.29s.573.363 1.004.363h2.256c.814 0 1.436-.595 1.436-1.565V23.454c.001-2.04-.617-3.699-1.526-5.192zM135.461 6.79c-1.447-.02-2.682-.939-3.144-2.34-.429-1.3-.118-2.532.834-3.451.978-.943 2.117-1.214 3.358-.832 1.582.488 2.598 1.921 2.379 3.561-.234 1.763-1.715 3.086-3.427 3.062m2.331 32.669v-25.35c-1.368.227-2.268.196-2.268.196s-.9.03-2.268-.196v25.35c0 .792-.055 1.354.727 1.801.276.158.909.291 1.541.291.632 0 1.264-.133 1.541-.291.781-.447.727-1.009.727-1.801zm71.357-25.631c-.679-.247-2.615-.698-4.547-.727-1.933.028-3.869.477-4.548.727-3.291 1.213-7.33 4.617-7.33 13.804s4.008 12.586 7.33 13.743c.683.237 2.615.702 4.548.731 1.933-.028 3.865-.493 4.548-.731 3.322-1.157 7.33-4.555 7.33-13.743s-4.049-12.613-7.331-13.804zm2.557 15.935c-.325 4.598-1.754 7.033-4.799 7.806a9.284 9.284 0 01-2.305.266c-.847 0-1.623-.09-2.305-.266-3.044-.773-4.473-3.208-4.799-7.806-.077-1.09-.077-3.171 0-4.262.325-4.598 1.754-6.927 4.799-7.701a9.284 9.284 0 012.305-.266c.847 0 1.623.09 2.305.266 3.044.773 4.473 3.103 4.799 7.701.078 1.091.078 3.172 0 4.262zm10.09 10.976h-.757v-5.344h-1.876v-.665h4.503v.665h-1.869v5.344zm5.428 0l-1.977-5.269h-.034c.016.174.031.408.042.703.011.294.016.602.016.922v3.644h-.699v-6.01h1.12l1.852 4.924h.033l1.886-4.924h1.111v6.01h-.749v-3.695c0-.291.007-.581.021-.867.014-.287.027-.519.038-.699h-.033l-2.003 5.26h-.624z"/></svg>