<svg version="1.1" id="レイヤー_1" xmlns="http://www.w3.org/2000/svg" x="0" y="0" width="19.999" height="19.999" xml:space="preserve"><style>.st0{fill:#fff}</style><path class="st0" d="M18.896 0H1.103C.494 0 0 .494 0 1.104v17.792c0 .61.494 1.104 1.104 1.103h9.579v-7.734H8.086V9.238h2.598V7.01c0-2.584 1.577-3.99 3.882-3.99 1.104 0 2.052.082 2.329.119v2.7h-1.589c-1.254 0-1.497.596-1.497 1.47v1.928h2.998l-.391 3.027h-2.607v7.734h5.087c.61 0 1.104-.494 1.104-1.103V1.103A1.105 1.105 0 0018.896 0zM45 1.802c2.67 0 2.986.01 4.041.058.975.044 1.504.207 1.857.344.467.181.8.398 1.15.748.35.35.567.683.748 1.15.137.352.3.882.344 1.857.048 1.054.058 1.371.058 4.041s-.01 2.986-.058 4.041c-.044.975-.207 1.504-.344 1.857-.181.467-.398.8-.748 1.15-.35.35-.683.567-1.15.748-.352.137-.882.3-1.857.344-1.054.048-1.371.058-4.041.058-2.67 0-2.986-.01-4.041-.058-.975-.044-1.504-.207-1.857-.344a3.092 3.092 0 01-1.15-.748 3.092 3.092 0 01-.748-1.15c-.137-.352-.3-.882-.344-1.857-.048-1.054-.058-1.371-.058-4.041s.01-2.986.058-4.041c.044-.975.207-1.504.344-1.857.181-.467.398-.8.748-1.15.35-.35.683-.567 1.15-.748.352-.137.882-.3 1.857-.344 1.054-.048 1.371-.058 4.041-.058M45 0c-2.716 0-3.056.012-4.123.06-1.064.049-1.791.218-2.427.465a4.902 4.902 0 00-1.771 1.153 4.897 4.897 0 00-1.153 1.771c-.247.636-.416 1.363-.465 2.427C35.012 6.943 35 7.284 35 10c0 2.716.012 3.056.06 4.123.049 1.064.218 1.791.465 2.427a4.902 4.902 0 001.153 1.771 4.897 4.897 0 001.771 1.153c.636.247 1.363.416 2.427.465 1.067.049 1.407.06 4.123.06s3.056-.011 4.123-.06c1.064-.049 1.791-.218 2.427-.465a4.902 4.902 0 001.771-1.153 4.897 4.897 0 001.153-1.771c.247-.636.416-1.363.465-2.427.049-1.067.06-1.407.06-4.123s-.012-3.056-.06-4.123c-.049-1.064-.218-1.791-.465-2.427a4.902 4.902 0 00-1.153-1.771A4.897 4.897 0 0051.549.526C50.913.279 50.186.11 49.122.061 48.056.012 47.715 0 45 0z"/><path class="st0" d="M45 4.865a5.135 5.135 0 100 10.27 5.135 5.135 0 000-10.27zm0 8.468a3.333 3.333 0 110-6.665 3.333 3.333 0 010 6.665z"/><circle class="st0" cx="50.338" cy="4.662" r="1.2"/><path class="st0" d="M88.52 0H71.475C70.661 0 70 .646 70 1.442v17.115c0 .796.661 1.443 1.475 1.443H88.52c.815 0 1.479-.647 1.479-1.443V1.442C89.999.646 89.335 0 88.52 0zM75.933 17.042h-2.969V7.498h2.969v9.544zM74.449 6.194a1.72 1.72 0 11-.003-3.439 1.72 1.72 0 01.003 3.439zm12.594 10.848h-2.966v-4.641c0-1.107-.019-2.531-1.541-2.531-1.544 0-1.779 1.206-1.779 2.451v4.721h-2.963V7.498h2.843v1.305h.041c.396-.75 1.363-1.542 2.807-1.542 3.003 0 3.558 1.976 3.558 4.547v5.234zM122.5 0h-15a2.5 2.5 0 00-2.5 2.5v15a2.5 2.5 0 002.5 2.5h15a2.5 2.5 0 002.5-2.5v-15a2.5 2.5 0 00-2.5-2.5zm-2.53 7.451c.005.11.007.22.007.332 0 3.389-2.58 7.297-7.297 7.297a7.264 7.264 0 01-3.931-1.152 5.144 5.144 0 003.797-1.062 2.568 2.568 0 01-2.396-1.781 2.55 2.55 0 001.158-.044 2.565 2.565 0 01-2.057-2.514l.001-.033c.346.192.741.308 1.161.321a2.563 2.563 0 01-.794-3.424 7.28 7.28 0 005.286 2.679 2.565 2.565 0 014.37-2.339 5.149 5.149 0 001.628-.622 2.575 2.575 0 01-1.128 1.419 5.126 5.126 0 001.473-.404 5.201 5.201 0 01-1.278 1.327z"/></svg>