<svg version="1.1" id="レイヤー_1" xmlns="http://www.w3.org/2000/svg" x="0" y="0" width="184.459" height="40" xml:space="preserve"><style>.st0{fill:#fff}</style><path class="st0" d="M28.849 22.667c-1.492.153-3.034.311-4.064 1.485-.889 1.015-1.196 2.533-.763 3.776.571 1.64 2.09 2.64 4.053 2.64 1.431 0 2.844-.523 3.762-1.453.254-.257.507-.585.679-.897.964-1.747.889-4.148.675-5.906l-4.342.355z"/><path class="st0" d="M30.032 7.385a15.848 15.848 0 00-5.789-.218c-2.016.299-4.04.024-5.925-.714a15.249 15.249 0 01-.78-.335c-1.256-.576-2.708-.989-4.731-.857-1.872.121-3.548.874-4.727 1.692.677.125 1.326.299 1.844.53 2.561 1.147 4.187 2.751 4.985 5.228.426 1.325.338 3.266-.316 5.406l-3.368 11.015c1.935 5.542 6.73 9.818 12.836 10.703 9.159 1.328 17.667-5.495 18.47-15.078.681-8.134-4.713-15.631-12.499-17.372zm6.624 25.142s-.46.277-.785.289H34.28c-1.172 0-.988-.381-.988-2.084-2.486 2.296-5.712 3.229-8.862 2.028-5.334-2.034-5.09-9.367-.408-11.886 2.092-1.125 9.379-1.116 9.379-1.116s-.046-5.369-4.523-5.994c-1.667-.233-3.888.46-4.617.575-.576.09-.93-.29-1.138-.769-.276-.636-.678-1.331.425-1.853.862-.408 3.757-1.136 5.547-.912 2.785.348 4.809 1.406 6.296 3.542.795 1.142 1.266 3.025 1.266 5.262l-.001 12.918z"/><path class="st0" d="M11.488 17.361c-.045-.014-4.54-1.387-7.466-1.679l-.131-.013-.009-.131c-.154-2.708.62-4.605 1.626-6.165l.051-.077.091.007c1.04.084 2.364.24 3.376.712 4.173 1.942 2.673 7.188 2.657 7.241l-.045.151-.15-.046zm-6.51 9.12a6.01 6.01 0 01-1.761-.265C1.274 25.622.072 24.181.002 22.362c-.052-1.37.714-2.788 1.908-3.527.605-.375 1.3-.557 2.123-.557.206 0 .419.011.651.033.559.054 1.118.164 1.659.271l4.407.964-.026.148c-.281 1.583-.703 2.911-1.254 3.946-.338.634-.729 1.169-1.163 1.59a4.454 4.454 0 01-.947.685c-.686.37-1.51.566-2.382.566zm68.821-8.884c-.202-2.942-2.34-4.857-3.277-5.485-1.135-.76-2.708-1.35-4.863-1.35-1.927 0-3.467.509-4.658 1.277-.448.289-1.089.861-1.569 1.33-.479-.469-1.121-1.041-1.569-1.33-1.191-.768-2.731-1.277-4.658-1.277-2.156 0-3.728.591-4.863 1.35-.937.627-3.075 2.543-3.277 5.485l-.035 13.809c-.045 1.463.924 1.463 1.186 1.463l1.723-.001c.345 0 .781-.29.781-.29V19.717c0-2.737.595-5.593 4.486-5.609 2.943 0 4.643 1.804 4.537 5.609v11.666c0 1.07.884 1.337 1.688 1.337.804 0 1.691-.25 1.691-1.337V19.717c-.105-3.805 1.594-5.609 4.537-5.609 3.89.016 4.486 2.872 4.486 5.609v12.862s.436.29.781.29l1.723.001c.262 0 1.231 0 1.186-1.463l-.036-13.81zm73.438 0c-.202-2.942-2.34-4.857-3.277-5.485-1.135-.76-2.708-1.35-4.863-1.35-1.927 0-3.467.509-4.658 1.277-.448.289-1.089.861-1.569 1.33-.479-.469-1.121-1.041-1.569-1.33-1.191-.768-2.731-1.277-4.658-1.277-2.156 0-3.728.591-4.863 1.35-.937.627-3.075 2.543-3.277 5.485l-.036 13.809c-.045 1.463.924 1.463 1.186 1.463l1.723-.001c.345 0 .781-.29.781-.29V19.717c0-2.737.595-5.593 4.486-5.609 2.943 0 4.643 1.804 4.537 5.609v11.666c0 1.07.884 1.337 1.688 1.337.804 0 1.691-.25 1.691-1.337V19.717c-.105-3.805 1.594-5.609 4.537-5.609 3.89.016 4.486 2.872 4.486 5.609v12.862s.436.29.781.29l1.723.001c.262 0 1.231 0 1.186-1.463l-.035-13.81zM97.194 14.61c-.804-1.319-1.942-2.411-3.342-3.078-1.267-.603-2.704-.825-4.097-.845-1.394.02-2.758.241-4.024.845-1.4.667-2.538 1.759-3.342 3.078-.727 1.194-1.223 2.954-1.221 4.153v12.869c0 .776.498 1.252 1.149 1.252h1.82c.338 0 .805-.29.805-.29l.003-13.033c0-2.231.805-3.519 1.408-4.201.952-1.077 2.48-1.312 3.399-1.306.92.006 2.55.264 3.479 1.306.606.68 1.408 1.971 1.408 4.201 0 3.955.02 13.032.02 13.032s.458.291.803.291h1.805c.651 0 1.149-.476 1.149-1.252V18.763c-.001-1.632-.495-2.959-1.222-4.153zm11.175-9.178c-1.158-.016-2.146-.752-2.515-1.872-.343-1.04-.094-2.025.667-2.76.782-.755 1.693-.971 2.686-.665 1.266.39 2.078 1.536 1.903 2.849-.187 1.409-1.372 2.467-2.741 2.448m1.864 26.136v-20.28c-1.095.181-1.814.157-1.814.157s-.72.024-1.814-.157v20.28c0 .633-.044 1.083.582 1.441.221.126.727.232 1.233.232.506 0 1.012-.106 1.233-.232.624-.358.58-.808.58-1.441zm57.087-20.505c-.544-.197-2.092-.559-3.638-.581-1.546.023-3.096.381-3.638.581-2.633.97-5.864 3.693-5.864 11.043s3.206 10.069 5.864 10.994c.546.19 2.092.562 3.638.585 1.546-.023 3.092-.395 3.638-.585 2.657-.926 5.864-3.644 5.864-10.994s-3.239-10.091-5.864-11.043zm2.045 12.748c-.26 3.678-1.404 5.626-3.839 6.245a7.419 7.419 0 01-1.844.213 7.413 7.413 0 01-1.844-.213c-2.436-.619-3.579-2.567-3.839-6.245a31.263 31.263 0 010-3.409c.26-3.678 1.404-5.542 3.839-6.16a7.413 7.413 0 011.844-.213c.678 0 1.298.072 1.844.213 2.436.619 3.579 2.482 3.839 6.16.062.871.062 2.536 0 3.409zm8.072 8.78h-.606v-4.276h-1.501v-.532h3.603v.532h-1.495v4.276zm4.342 0l-1.582-4.215h-.027c.013.139.024.326.034.562.008.235.013.481.013.737v2.915h-.559v-4.808h.896l1.481 3.939h.026l1.509-3.939h.889v4.808h-.599v-2.956c0-.233.006-.465.017-.693.011-.229.022-.415.03-.559h-.026l-1.603 4.208h-.499z"/></svg>