<svg version="1.1" id="レイヤー_1" xmlns="http://www.w3.org/2000/svg" x="0" y="0" width="132.327" height="15.637" xml:space="preserve"><style>.st0{fill:#fff}</style><path class="st0" d="M56.271 14.685c-.781 0-1.597-.02-2.236-.255-.702-.258-1.35-1.083-1.542-1.962-.132-.604-.124-1.248-.116-1.871.002-.145.004-.289.004-.431V8.421h-3.217a.43.43 0 01-.313-.127c-.194-.193-.223-.554-.222-.752v-.045c-.004-.178.01-.62.231-.844a.413.413 0 01.304-.128h3.217V3.718h-2.349a.43.43 0 01-.313-.127c-.195-.193-.223-.555-.222-.753v-.092c-.005-.208.017-.59.218-.794a.43.43 0 01.316-.13h9.335c.125 0 .231.044.316.13.201.204.223.586.218.796v.088c0 .2-.028.563-.223.756a.429.429 0 01-.312.126h-5.032v2.807h6.295c.244 0 .535.176.535 1.017 0 .551-.2.88-.535.88h-6.295l.004 2.912c0 .16.026.33.076.492.08.261.297.507.566.643.202.102 1.019.162 2.183.162 1.064 0 2.821-.127 2.821-.127s.277.309.277.443c-.003.027-.057.471-.086.622-.114.597-.382.927-.775.954-.28.019-.54.04-.792.061-.644.052-1.252.102-1.998.102l-.338-.001zm-23.296-.82a.445.445 0 01-.333-.142c-.215-.225-.242-.652-.24-.886v-.095c-.004-.235.023-.665.238-.892a.446.446 0 01.334-.143H44.4c.131 0 .243.048.333.142.215.225.241.652.24.886v.097c-.001.233-.023.663-.238.89a.446.446 0 01-.334.143H32.975zm1.395-9.142a.44.44 0 01-.331-.142c-.214-.225-.241-.65-.237-.883v-.094c-.003-.232.023-.657.237-.882a.443.443 0 01.332-.142h8.636c.13 0 .242.048.332.142.214.224.24.65.237.883v.094c.003.232-.023.657-.237.882a.443.443 0 01-.332.142H34.37zm-7.308 10.206c-.129 0-.324-.058-.324-.058s-.76-1.779-.881-2.041c-4.809.803-9.449 1.294-9.977 1.358a.713.713 0 01-.079.005c-.4 0-.746-.37-.805-.86l-.1-.826c-.03-.245.165-.466.165-.466s1.366-.07 1.731-.108a95.323 95.323 0 003.122-9.25c.094-.334.365-.671.758-.671.063 0 .128.009.192.027l.798.179c.244.071.333.363.333.363s-1.652 5.972-2.92 9.138c1.328-.102 4.176-.326 5.955-.589-.586-1.15-1.801-3.195-1.801-3.195s.04-.314.221-.449l.625-.449.034-.024c.108-.078.221-.159.359-.159.254 0 .488.141.643.387.922 1.463 2.404 4.155 3.126 5.887.1.241.121.511.059.759a.964.964 0 01-.403.591l-.613.387a.39.39 0 01-.218.064zm-25.687-.174c-.176 0-.356-.097-.494-.267-.101-.123-.32-1.146-.323-1.165.008-.275.149-.511.149-.511l.027-.003c.51-.051.956-.219 1.494-.563.628-.402 1.029-.814 1.381-1.42.421-.725.617-1.502.657-2.596.028-.797.026-1.62.024-2.416l-.002-.552.018-.019c.01-.01.309-.251.547-.251h.594c.448 0 .813.439.813.978v.487c0 .607-.033 1.148-.067 1.614.076-.016.156-.04.204-.056 1.409-.462 3.109-2.707 3.494-4.266l-9.682.027S0 3.499 0 3.255v-.418c0-.539.365-.978.813-.978h10.051c.524.019 1.173.587 1.173.587l-.006.036c-.202 1.286-1.016 3.347-1.778 4.499-.823 1.247-1.845 2.166-2.956 2.658-.309.137-1.17.455-1.365.526-.008.05-.02.134-.028.168-.208.914-.607 1.587-.934 2.07-.894 1.321-2.009 2.066-3.508 2.344a.512.512 0 01-.087.008zm67.083.713c-.442 0-.706-.206-.706-.551l.007-6.198c-.233.676-.509 1.415-.841 2.094l-.05.106c-.158.278-.412.441-.681.441a.726.726 0 01-.633-.364 1.459 1.459 0 01-.047-.087c-.093-.187-.134-.413-.134-.413s.588-1.003.731-1.268c.156-.29.297-.608.421-.889.138-.311.269-.618.381-.926a21.33 21.33 0 00.698-2.278h-1.608c-.255-.022-.409-.264-.43-.664v-.18c-.004-.18.015-.511.188-.688a.368.368 0 01.272-.113h1.724V.722c0-.345.264-.55.707-.55h.142c.442 0 .706.206.706.55V3.49h1.135c.107 0 .199.038.272.113.173.177.188.508.188.689 0 .041 0 .134-.002.177-.02.398-.171.645-.415.666h-1.178v1.143c.387.417.721.844 1.051 1.281.004-.175.036-.468.193-.628a.34.34 0 01.251-.107h3.167V4.53H72.57c-.142.485-.53 1.518-.617 1.638-.184.252-.407.386-.646.386a.597.597 0 01-.314-.077 1.986 1.986 0 01-.307-.28c-.156-.128-.206-.454-.206-.454s.356-.738.474-1.046a13.11 13.11 0 00.651-2.338c.071-.385.194-1.352.194-1.352s.191-.177.383-.177c.019 0 .193.025.293.042.43.073.636.715.608.966-.014.122-.126.839-.178 1.11h1.061V.712c0-.338.259-.54.693-.54h.141c.434 0 .693.202.693.54v2.234h2.527c.104 0 .192.037.263.109.166.17.184.487.18.66v.192c-.026.397-.187.623-.443.623h-2.527v2.294h3.27c.103 0 .191.037.262.109.165.169.183.487.179.661v.184c-.023.387-.175.615-.418.63a869.927 869.927 0 01-2.667 0c.835 1.519 3.199 3.918 3.199 3.918s.061.317-.051.519a7.442 7.442 0 01-.239.397.83.83 0 01-.658.353.745.745 0 01-.536-.24c-.863-.863-1.834-2.429-2.34-3.379v4.951c0 .338-.259.54-.694.54h-.118c-.457 0-.716-.202-.716-.54v-4.81c-.718 1.474-1.595 2.712-2.61 3.681l-.034.031a.744.744 0 01-.475.187c-.235 0-.498-.165-.669-.422l-.211-.312c-.124-.183-.067-.472-.067-.472s.806-.58.973-.742c.969-.944 1.845-2.206 2.538-3.655l-2.574-.005a1.129 1.129 0 01-.163.814l-.272.372c-.114.155-.391.167-.391.167s-.486-.841-.707-1.186l.002 6.342c0 .345-.264.551-.707.551h-.141zm42.321-10.583a16.875 16.875 0 01-2.634-2.606.282.282 0 00-.218-.112.296.296 0 00-.245.146c-.585.9-1.328 1.765-2.21 2.571l5.307.001zm-8.732 2.245c-.233 0-.452-.12-.609-.332l-.002.001-.034-.051-.271-.421a.575.575 0 01-.056-.44l.009-.029.26-.122c.322-.152.642-.319.949-.496 2.079-1.193 3.785-2.917 4.777-4.867.126-.248.266-.353.814-.353.48 0 .571.103.69.285l.033.05c.985 1.441 2.902 3.481 5.061 4.489.103.048.236.115.379.187.251.127.536.27.731.347l.032.013.008.034c.003.011.07.285-.025.462l-.258.477c-.162.255-.4.4-.654.4a.688.688 0 01-.271-.059l-.102-.054a21.18 21.18 0 01-1.807-1.093c.005.117.006.257.003.289-.034.405-.271.637-.65.637l-6.022.003c-.371-.003-.601-.24-.635-.64a2.524 2.524 0 01-.003-.067 15.24 15.24 0 01-2.01 1.262.718.718 0 01-.337.088zm10.819 8.298c-.155-.215-.728-.999-.893-1.216-2.555.402-6.57.751-9.066.876l-.032.001c-.316 0-.603-.241-.731-.614l-.182-.611a.524.524 0 01.078-.432l.02-.027.033-.001c.305-.009.658-.02.976-.032l.394-.013a27.678 27.678 0 001.841-3.421h-3.325c-.443 0-.63-.36-.657-.698l-.003-.133c-.009-.253.059-.469.192-.606a.624.624 0 01.468-.178h11.971c.196 0 .353.06.468.178.133.137.201.353.192.607l-.003.176c-.033.417-.273.654-.657.654h-6.75a29.36 29.36 0 01-1.828 3.336l.893-.042.282-.015c1.235-.067 2.763-.15 4.368-.332-.379-.466-1.571-1.743-1.584-1.757l-.017-.018-.001-.025c-.001-.014-.017-.35.184-.494l.367-.262a.722.722 0 01.459-.17c.157 0 .312.056.447.162l.131.128c.986.985 2.212 2.398 2.851 3.287.136.19.165.429.165.597 0 .3-.112.582-.306.774l-.248.203c-.175.143-.432.146-.442.146h-.035l-.02-.028zm9.011.04c-.439-.005-.701-.305-.701-.803l.005-5.58-.191.2c-.369.389-.716.759-1.067 1.045a.736.736 0 01-.474.184.698.698 0 01-.62-.383 4.687 4.687 0 01-.182-.431c-.086-.24-.029-.571-.026-.585l.005-.028.023-.016c.165-.118.35-.239.521-.35.166-.108.319-.208.427-.288 1.386-1.028 2.675-2.72 3.389-3.905h-3.834l-.02-.02c-.008-.008-.196-.203-.196-.457v-.183c0-.552.369-1.001.823-1.001h1.418l-.001-1.901c0-.738.531-.796.693-.796h.122c.184 0 .713.059.713.795l.003 1.901h1.328c.283 0 .768.739.863.887l.018.028-.011.031c-.107.303-.348.834-.475 1.072-.452.842-.964 1.543-1.505 2.282.658.481 1.537 1.247 1.904 1.63.132.138.239.461.239.722 0 .192-.046.379-.134.541l-.003-.002c-.021.044-.079.138-.22.371a.457.457 0 01-.378.218h-.031l-.052-.06c-.226-.263-.647-.753-.781-.897-.102-.109-.199-.22-.298-.332-.144-.163-.291-.331-.453-.494l.001 5.8c0 .188-.051.803-.708.803h-.134z"/><path class="st0" d="M124.581 14.877c-.392-.004-.632-.253-.661-.683a2.517 2.517 0 01-.002-.174c-.009-.259.061-.481.198-.623a.632.632 0 01.474-.181h2.91V6.402h-2.237c-.394 0-.638-.245-.669-.671l-.002-.175c-.009-.258.06-.478.196-.618a.63.63 0 01.476-.182h2.237l.001-3.648c0-.75.545-.809.712-.809h.194c.188 0 .73.06.73.808v3.648h2.279a.63.63 0 01.474.181c.135.14.204.36.195.62v.168c-.03.432-.274.677-.669.677h-2.279v6.814h2.517c.198 0 .357.061.474.181.137.142.207.364.198.628.001.037.001.129-.002.17-.029.433-.272.682-.669.682h-7.075zm-40.528-.087c-.307 0-.592-.207-.744-.541-.019-.042-.055-.179-.118-.417-.027-.103-.055-.211-.082-.308-.067-.244.123-.517.131-.528l.016-.023 3.231-.598V8.496h-2.115c-.264 0-.429-.243-.455-.666-.003-.052-.003-.155-.003-.207 0-.186.015-.529.191-.709a.36.36 0 01.267-.111h6.008a.36.36 0 01.267.111c.176.179.195.523.191.712l-.003.2c-.025.427-.191.67-.455.67h-2.23v3.587c.626-.103 2.687-.496 2.687-.496l.027.021a.886.886 0 01.279.393l.003.508c0 .644-.343.865-.631.938-1.585.396-6.389 1.343-6.462 1.343z"/><path class="st0" d="M96.09 15.637c-.671 0-1.753-1.047-2.618-2.554-1.118-1.949-1.719-4.349-2.094-8.258h-7.044c-.265-.008-.427-.256-.449-.681v-.236c-.004-.186.015-.527.19-.706a.363.363 0 01.27-.112h6.907c-.038-.65-.104-2.354-.108-2.496-.009-.354.261-.574.722-.59L92.058 0c.245 0 .449.069.574.195.092.092.138.21.137.35-.003.531.084 2.006.117 2.545h1.823c-.338-.594-.646-1.101-1.117-1.65a.41.41 0 01-.096-.285.88.88 0 01.26-.594l.119-.113c.129-.107.25-.159.366-.159.106 0 .205.044.293.13.337.332 1.217 1.584 1.437 2.143.077.196-.123.399-.298.528h1.132c.106 0 .197.038.271.113.176.18.195.52.191.707v.23c0 .416-.181.685-.461.685h-3.797c.27 2.866.685 4.741 1.387 6.258.617 1.325 1.267 2.232 1.465 2.359.017-.078.046-.238.094-.504l.022-.125c.051-.28.094-.62.128-1.011.015-.17.036-.469.047-.669l.002-.039.034-.018c.006-.003.064-.033.148-.033.083 0 .163.028.237.082l.644.484c.227.198.355.5.355.831 0 .065-.007.129-.016.191-.297 2.102-.709 3.006-1.466 3.006z"/></svg>