<svg version="1.1" id="レイヤー_1" xmlns="http://www.w3.org/2000/svg" xmlns:xlink="http://www.w3.org/1999/xlink" x="0" y="0" viewBox="0 0 466.1 216.9" xml:space="preserve"><style>.st0{fill:#fff}.st1{fill:#162789}.st2,.st3{stroke:#162789;stroke-miterlimit:10}.st2{fill:#fff;stroke-width:1.0844;stroke-linecap:round}.st3{fill:none;stroke-width:.9958}.st6{fill:#495354}.st7{fill:none;stroke:#50bcb6;stroke-width:.9618;stroke-miterlimit:10}.st8{fill:#50bcb6}.st9{fill:none;stroke:#162789;stroke-width:1.1047;stroke-linecap:round;stroke-linejoin:round;stroke-miterlimit:10}.st10{fill:#f2f1f8}.st11,.st12{fill:none;stroke:#162789;stroke-width:1.1813;stroke-miterlimit:10}.st12{stroke-linecap:round}</style><path class="st0" d="M169.3 102.2c-.2 0-.4-.2-.4-.4V92c0-.2.2-.4.4-.4h36.9c.2 0 .4.2.4.4v9.8c0 .2-.2.4-.4.4h-36.9z"/><path class="st1" d="M205.7 92.5v8.8h-35.9v-8.8h35.9m.5-1.8h-36.9c-.7 0-1.2.6-1.2 1.2v9.8c0 .7.6 1.2 1.2 1.2h36.9c.7 0 1.2-.6 1.2-1.2V92c0-.7-.5-1.3-1.2-1.3z"/><path class="st2" d="M173 94.7h12.3m4.9 0h12.3"/><path class="st0" d="M166.9 108.3c-.2 0-.4-.2-.4-.4v-9.8c0-.2.2-.4.4-.4h41.8c.2 0 .4.2.4.4v9.8c0 .2-.2.4-.4.4h-41.8z"/><path class="st1" d="M208.2 98.6v8.8h-40.8v-8.8h40.8m.5-1.7h-41.8c-.7 0-1.2.6-1.2 1.2v9.8c0 .7.6 1.2 1.2 1.2h41.8c.7 0 1.2-.6 1.2-1.2v-9.8c0-.7-.5-1.2-1.2-1.2z"/><path class="st0" d="M164.4 126.7c-.2 0-.4-.2-.4-.4v-22.1c0-.2.2-.4.4-.4h46.7c.2 0 .4.2.4.4v22.1c0 .2-.2.4-.4.4h-46.7z"/><path class="st1" d="M210.6 104.8v21.1h-45.7v-21.1h45.7m.5-1.8h-46.7c-.7 0-1.2.6-1.2 1.2v22.1c0 .7.6 1.2 1.2 1.2h46.7c.7 0 1.2-.6 1.2-1.2v-22.1c.1-.6-.5-1.2-1.2-1.2z"/><path class="st0" d="M170.6 118.5c-1.1 0-1.9-.9-1.9-1.9v-6.1c0-1.1.9-1.9 1.9-1.9h16c1.1 0 1.9.9 1.9 1.9v6.1c0 1.1-.9 1.9-1.9 1.9h-16z"/><path class="st1" d="M186.5 109c.8 0 1.4.6 1.4 1.4v6.1c0 .8-.6 1.4-1.4 1.4h-16c-.8 0-1.4-.6-1.4-1.4v-6.1c0-.8.6-1.4 1.4-1.4h16m0-1.1h-16c-1.4 0-2.5 1.1-2.5 2.5v6.1c0 1.4 1.1 2.5 2.5 2.5h16c1.4 0 2.5-1.1 2.5-2.5v-6.1c0-1.4-1.1-2.5-2.5-2.5zm17.6 10.2c.5.5 1.3.5 1.7 0l2-2c.5-.5.5-1.3 0-1.7l-2-2c-.5-.5-1.3-.5-1.7 0l-2 2c-.5.5-.5 1.3 0 1.7l2 2zm-1.2-6.8c.5-.5.5-1.3 0-1.7l-2-2c-.5-.5-1.3-.5-1.7 0l-2 2c-.5.5-.5 1.3 0 1.7l2 2c.5.5 1.3.5 1.7 0l2-2zm-6.9 1.2c-.5-.5-1.3-.5-1.7 0l-2 2c-.5.5-.5 1.3 0 1.7l2 2c.5.5 1.3.5 1.7 0l2-2c.5-.5.5-1.3 0-1.7l-2-2zm1.2 6.9c-.5.5-.5 1.3 0 1.7l2 2c.5.5 1.3.5 1.7 0l2-2c.5-.5.5-1.3 0-1.7l-2-2c-.5-.5-1.3-.5-1.7 0l-2 2z"/><path class="st2" d="M170.6 100.8h14.7m4.9 0H205"/><path class="st3" d="M461.2 122.6h-39c-2 0-3.6 1.6-3.6 3.6V149c0 2 1.6 3.6 3.6 3.6h18.1v2.7h-4.8v2.7h12.2v-2.7h-4.8v-2.7H461c2 0 3.6-1.6 3.6-3.6v-22.8c.2-2-1.4-3.6-3.4-3.6z"/><path class="st3" d="M421.4 126.2h40.7v22.4h-40.7z"/><defs><path id="SVGID_1_" d="M421.9 126.8h39.7v21.9h-39.7z"/></defs><clipPath id="SVGID_2_"><use xlink:href="#SVGID_1_" overflow="visible"/></clipPath><g id="CO2_x5F_range_x5F_conversion.psd_2_" clip-path="url(#SVGID_2_)"><defs><path id="SVGID_3_" d="M421.9 126.7h39.7v21.5h-39.7z"/></defs><clipPath id="SVGID_4_"><use xlink:href="#SVGID_3_" overflow="visible"/></clipPath><g clip-path="url(#SVGID_4_)"><image width="1879" height="1017" id="レイヤー_0" xlink:href="B2B393645C989A6E.png" transform="translate(421.892 126.706) scale(.02112)" overflow="visible"/></g></g><path d="M218.2 108.5h43.1m135.3 0l12.5-16.9m-98 13c3.6 0 3.6 7.6 7.3 7.6 3.6 0 3.6-7.6 7.3-7.6 3.6 0 3.6 7.6 7.3 7.6m63.6 10.7l12.5 16.9" stroke="#50bcb6" stroke-width="1.909" stroke-linecap="round" stroke-linejoin="round" fill="none" stroke-miterlimit="10"/><path class="st6" d="M318.1 96.7h.5v3.3h1.6v.4h-2.1v-3.7zm3.3.4h-1.1v-.4h2.7v.4h-1.1v3.3h-.5v-3.3zm2.3-.4h2.1v.4h-1.7v1.2h1.4v.4h-1.4v1.3h1.7v.4h-2.2v-3.7z"/><path class="st1" d="M297.2 121.1h-10.4c-2.1 0-3.9-1.7-3.9-3.9 0-2.1 1.7-3.9 3.9-3.9h10.4c2.1 0 3.9 1.7 3.9 3.9s-1.7 3.9-3.9 3.9zm-10.4-6.2c-1.3 0-2.4 1.1-2.4 2.4 0 1.3 1.1 2.4 2.4 2.4h10.4c1.3 0 2.4-1.1 2.4-2.4 0-1.3-1.1-2.4-2.4-2.4h-10.4z"/><path class="st1" d="M298.2 117.3c0 .8-.7 1.5-1.5 1.5s-1.5-.7-1.5-1.5.7-1.5 1.5-1.5 1.5.6 1.5 1.5z"/><path class="st1" d="M304.2 122.8v-8.6c0-2-1.5-3.6-3.4-3.8V96.9c0-.4-.3-.7-.7-.7h-4.2c-.4 0-.7.3-.7.7v13.3h-18.3V96.9c0-.4-.3-.7-.7-.7H272c-.4 0-.7.3-.7.7v13.4c-1.9.2-3.4 1.9-3.4 3.8v8.6h-2.7v1.5h41.7v-1.5h-2.7zm-7.5-25.1h2.7v12.6h-2.7V97.7zm-24 0h2.7v12.6h-2.7V97.7zm-3.4 25.1v-8.6c0-1.3 1.1-2.4 2.4-2.4h28.7c1.3 0 2.4 1.1 2.4 2.4v8.6h-33.5zm113-12.1c.4-.8.7-1.8.7-2.8 0-3.4-2.8-6.2-6.2-6.2-.5 0-.9.1-1.3.1-1.3-3.9-5-6.7-9.4-6.7-2.6 0-4.9 1-6.6 2.5 1.4-2 2.1-4.3 2.1-6.7 0-6.5-5.3-11.8-11.8-11.8-6.5 0-11.8 5.3-11.8 11.8 0 3.6 1.6 7 4.5 9.3.4.3.9.2 1.2-.1.3-.4.2-.9-.1-1.2-2.5-1.9-3.9-4.8-3.9-8 0-5.6 4.5-10.1 10.1-10.1s10.1 4.5 10.1 10.1c0 3.1-1.4 6-3.9 8-.4.3-.4.8-.1 1.2.2.2.4.3.7.3.2 0 .4-.1.5-.2.3-.2.5-.4.8-.7-1.1 1.6-1.7 3.5-1.7 5.6 0 1.1.2 2.2.5 3.2-.7.1-1.4.2-2 .5l-4.1-19c-.1-.4-.4-.7-.8-.7s-.7.3-.8.7l-6.6 30.9c-.1.4.2.9.6 1 .4.1.9-.2 1-.6l1-4.8h3.7c0 .4-.1.7-.1 1.1 0 5 4 9 9 9h18.5c5 0 9-4 9-9 .1-2.7-1-5-2.8-6.7zm-28.1 3.8H351c.5-1.3 1.4-2.4 2.6-3.2l.6 3.2zm-4.4-20.6l3.2 15h-6.4l3.2-15zm-4.4 20.6l.8-3.9h5.5c-1.2 1-2.1 2.4-2.6 3.9h-3.7zm30.8 10.1h-18.5c-4 0-7.3-3.3-7.3-7.3 0-.4 0-.8.1-1.1h4.1l1 4.8c.1.4.4.7.8.7h.2c.4-.1.7-.5.6-1l-2.2-10.2c.6-.2 1.2-.4 1.9-.5l2.1-.2-.7-2c-.3-.9-.4-1.8-.4-2.7 0-4.6 3.7-8.3 8.3-8.3 3.6 0 6.7 2.3 7.8 5.6l.5 1.4 1.5-.3c.3-.1.6-.1 1-.1 2.5 0 4.5 2 4.5 4.5 0 .7-.2 1.4-.5 2l-.6 1.1.9.8c1.5 1.4 2.3 3.3 2.3 5.3-.1 4.2-3.4 7.5-7.4 7.5z"/><path class="st1" d="M354.3 95.1c-.2 0-.4-.1-.5-.2-.4-.3-.4-.8-.1-1.2.8-.9 1.2-2.1 1.2-3.3 0-2.8-2.3-5.1-5.1-5.1s-5.1 2.3-5.1 5.1c0 1.2.4 2.3 1.2 3.3.3.4.2.9-.1 1.2-.4.3-.9.2-1.2-.1-1-1.2-1.6-2.7-1.6-4.3a6.7 6.7 0 0113.4 0c0 1.6-.6 3.1-1.6 4.3 0 .2-.3.3-.5.3zm108.9-2.8c-.5-1.9-2.3-3.7-4.1-4l-6.3-1.1L449 96l-6.3-2.6-6.3 2.6-3.8-8.8-6.3 1.1c-1.8.3-3.6 2.1-4.1 4l-1.5 7.5h44.1l-1.6-7.5z"/><path class="st1" d="M442.1 92.5l-4.2-6.1v-3.7c.5.3 1 .5 1.5.7h.1c.1 0 .2.1.3.1.1 0 .1 0 .2.1.1 0 .2.1.3.1.1 0 .2 0 .3.1.1 0 .2 0 .3.1.1 0 .2 0 .3.1h3c.1 0 .2 0 .3-.1.1 0 .2 0 .3-.1.1 0 .2 0 .3-.1.1 0 .2-.1.3-.1.1 0 .1 0 .2-.1.1 0 .2-.1.3-.1h.1c.5-.2 1-.4 1.5-.7v3.7l-4.2 6.1 5.2 2.2 3.4-7.7-2.9-.5v-4.9c1.7-1.5 3.1-3.5 3.8-5.9h.2c1.6 0 3-1.3 3-3 0-1.2-.7-2.2-1.8-2.7v-6.8c0-1.5-1.1-3.2-2.4-3.9l-6.6-3.3c-1.3-.6-3.3-.6-4.6 0l-6.6 3.3c-1.4.7-2.4 2.4-2.4 3.9V70c-1.1.4-1.9 1.5-1.9 2.8 0 1.6 1.3 3 3 3h.2c.7 2.4 2.1 4.4 3.8 5.9v4.9l-2.9.5 3.4 7.7 4.9-2.3zm11-18.3c.1-.6.2-1.3.2-1.9v-.8c.6.2 1 .7 1 1.4 0 .6-.5 1.2-1.2 1.3zM431 72.8c0-.6.4-1.2 1-1.4v.8c0 .6.1 1.3.2 1.9-.7 0-1.2-.6-1.2-1.3zm1.9-4.2v-5.3c0-.9.7-2.1 1.5-2.5l6.6-3.3c.9-.4 2.4-.4 3.3 0l6.6 3.3c.8.4 1.5 1.6 1.5 2.5v5.3c-1.9-2.1-5.6-3.4-9.8-3.4-4.1-.1-7.8 1.3-9.7 3.4zm18.6 1.2c-.7.4-1.5.8-1.8.8-.9 0-1.4-.3-2-.7-1-.6-2.1-1.3-5-1.3s-4 .7-5 1.3c-.6.4-1.1.7-2 .7-.3 0-1.1-.4-1.8-.8 1.5-1.8 5-3.1 8.8-3.1s7.3 1.2 8.8 3.1zm-17.6 5.1v-.2c-.1-.2-.1-.4-.1-.6v-2.8c.8.4 1.7.8 2.2.8 1.4 0 2.1-.4 2.9-.9.9-.5 1.8-1 4.2-1 2.4 0 3.3.5 4.2 1 .7.4 1.5.9 2.9.9.4 0 1.2-.3 2-.7v2.3c0 .1 0 .2-.1.3 0 .2-.1.5-.1.7v.2c-.7 2.7-2.3 4.9-4.3 6.2h-.1c-.1.1-.2.1-.3.2h-.1c-.2.1-.5.3-.8.4h-.1c-.1 0-.2.1-.3.1h-.1c-.1 0-.3.1-.4.1h-.1c-.1 0-.2.1-.3.1h-.1c-.1 0-.2 0-.3.1h-.1c-.1 0-.3 0-.4.1h-1.8c-.1 0-.3 0-.4-.1h-.1c-.1 0-.2 0-.3-.1h-.1c-.1 0-.2-.1-.3-.1h-.1c-.1 0-.3-.1-.4-.1h-.1c-.1 0-.2-.1-.3-.1h-.1c-.3-.1-.5-.2-.8-.4h-.1c-.1-.1-.2-.1-.3-.2h-.1c-2.7-1.3-4.3-3.5-5-6.2zm-32.9-6h-18.8c-.9 0-1.7.7-1.7 1.7v11.6c0 .9.7 1.7 1.7 1.7H401c.9 0 1.7-.7 1.7-1.7V70.5c-.1-.9-.8-1.6-1.7-1.6zm.8 1.6v11.9l-6.1-6.1 6.1-6.1v.3zm-.8-.8h.3l-8.8 8.8c-.5.5-1.3.5-1.8 0l-8.8-8.8H401zm-19.7 12.4V70.2l6.1 6.1-6.1 6.1v-.3zm.9.9c-.1 0-.2 0-.3-.1l6.1-6.1 2.2 2.2c.4.4.9.6 1.4.6.5 0 1-.2 1.4-.6l2.2-2.2 6.1 6.1c-.1 0-.2.1-.3.1h-18.8z"/><path class="st6" d="M52.5 27.2c-.2-.2-.6-.4-.9-.5l.2-.3c.3.1.7.3.9.5l-.2.3zm.4.7c-.2.5-.6 1.2-.9 1.6l-.3-.2c.2-.4.6-1 .9-1.6l.3.2zm-.1-2c-.2-.2-.6-.4-.9-.6l.2-.3c.3.1.7.4.9.5l-.2.4zm.6 1.5h.3v.5c0 .6-.1 1.2-.8 1.7-.1-.1-.2-.2-.3-.2.6-.4.7-1 .7-1.4v-.6zm-.3-.6h.6c.1-.2.3-.5.4-.8h-1v-.3h1.3V25h.4v.6h1.5v.4h-1.7c-.1.3-.3.6-.4.8.4 0 .9 0 1.4-.1l-.4-.4.3-.2c.4.3.8.7.9 1l-.3.2c-.1-.1-.1-.2-.2-.3-.9 0-1.9.1-2.5.1l-.3-.3zm1.2.6h.3v2h-.3v-2zm1.5 1.8h.1s0-.1.1-.1v-.5c.1 0 .2.1.3.1 0 .2 0 .5-.1.6 0 .1-.1.2-.1.2-.1 0-.2.1-.2.1h-.2c-.1 0-.2 0-.3-.1-.1-.1-.1-.1-.1-.4v-1.6h.3v1.7h.2zm5.6 0v.3h-4.5v-.3H59v-.3h-1.7v-.3H59v-.3h-1.5v-1.2h3.4v1.2h-1.6v.3H61v.3h-1.7v.3h2.1zm0-2.3h-4.5v-.3h4.5v.3zm-.7-.5h-3.2v-1.2h3.2v1.2zm-2.9 1.2H59v-.3h-1.2v.3zm1.1.5v-.3h-1.2v.3h1.2zm1.5-2.7h-2.5v.3h2.5v-.3zm0 .5h-2.5v.3h2.5v-.3zm.1 1.4h-1.2v.3h1.2v-.3zm0 .6h-1.2v.3h1.2v-.3zm4.2-.1c.4-.3.7-.9.9-1.2-.1 0-1 .2-1.9.4v1.5c0 .3.1.5.7.5s1.1-.1 1.6-.1v.4c-.4.1-.9.1-1.6.1-.9 0-1.1-.2-1.1-.7v-1.5c-.5.1-1 .2-1.2.2L62 27c.2 0 .7-.1 1.2-.2v-1.4h.5v1.3c.9-.2 1.7-.3 1.9-.4.1 0 .2-.1.3-.1l.3.2s-.1.1-.1.2c-.2.4-.6 1-1 1.5l-.4-.3zm4.5.4c.8-.5 1.4-1.2 1.7-1.8l.2.4c-.3.6-.9 1.3-1.7 1.8-.5.3-1.1.6-2 .8l-.3-.4c1-.2 1.7-.5 2.1-.8zm-.3-1.6l-.3.3c-.3-.3-.9-.8-1.2-1l.3-.3c.3.2.9.7 1.2 1zm6.9-.2h.5v.4h-1.1v.2c0 1.3-.3 2-1.4 2.5l-.3-.3c.9-.4 1.4-.8 1.4-2.2v-.2h-1.4v1.3H73v-1.3h-1v-.4h1v-1h.4v1h1.4v-1h.5v1h.5zm-25.1 6.4c0-.8.3-1.4.8-1.9l.2.1c-.5.5-.7 1.1-.7 1.8s.3 1.3.7 1.8l-.2.1c-.5-.5-.8-1.1-.8-1.9zm2.8 0c.3-.1.6-.1.9-.1.6 0 1 .3 1 .8s-.3.8-.8.9c-.2 0-.4 0-.5.1l-.1-.3h.5c.3-.1.7-.3.7-.6s-.3-.5-.7-.5c-.3 0-.6.1-.9.2v.9c0 .4-.1.5-.4.5-.3 0-.8-.3-.8-.7 0-.3.4-.7.9-.9v-.7h-.8v-.3h.8v-.8h.3v.7c.3 0 .6-.1.8-.2v.3c-.2.1-.5.1-.8.1v.6zm-.3 1.1v-.7c-.3.2-.6.4-.6.6 0 .2.3.3.4.3.2 0 .2-.1.2-.2zm1.6-2.3c.3.1.7.4.9.6l-.2.3c-.2-.2-.6-.5-.9-.6l.2-.3zm4.3.5c-.2.3-.5.6-.8.8.4.2 1 .3 1.6.4-.1.1-.1.2-.2.3-.2 0-.4-.1-.5-.1v1.2h-.3v-.1h-1.6v.1H57v-1.1c-.2.1-.4.1-.6.2 0-.1-.1-.2-.1-.3.5-.1 1.1-.3 1.6-.5-.2-.1-.4-.3-.5-.5-.2.1-.4.3-.6.4 0-.1-.1-.2-.2-.2.5-.2.9-.6 1.1-.9l.3.1c-.1.1-.1.2-.2.2h1.3zm-2.5 0h-.3v-.7h1.5V31h.3v.4h1.5v.7h-.3v-.5h-2.8v.5zm2.3 1.3c-.3-.1-.7-.2-.9-.4-.3.1-.5.3-.8.4h1.7zm-.1.9v-.6h-1.6v.6h1.6zm-1.4-2.1c.2.2.4.3.6.5.2-.1.4-.3.6-.5h-1.2zm4.1 1.1c-.1-.1-.2-.4-.3-.6v1.9h-.3v-1.9c-.1.4-.3.9-.5 1.1 0-.1-.1-.2-.2-.3.2-.3.5-1 .6-1.5h-.5v-.3h.6V31h.3v.9h.5v.3h-.5v.3c.1.1.4.6.5.7l-.2.1zm1 .6c-.3.2-.7.4-.9.5l-.1-.2c.3-.1.6-.3 1-.5v.2zm.7-.3c.2.3.5.5.8.7-.1.1-.1.2-.2.2-.4-.2-.7-.5-.9-.9v.8c0 .2 0 .2-.1.3-.1 0-.3.1-.5.1 0-.1 0-.2-.1-.3h.4c.1 0 .1 0 .1-.1v-1.5h-1v-.3h1v-.3h-.8V32h.8v-.3h-.9v-.2h.5c0-.1-.1-.3-.2-.4l.2-.1c.1.1.2.3.2.5h-.1.7c.1-.1.2-.4.2-.5l.3.1c-.1.1-.2.3-.2.4h.5v.2h-1v.3h.9v.2h-.9v.3h1v.3h-1v.2c.1.2.1.3.3.6.1-.2.3-.4.4-.6l.2.2-.5.5-.1-.1zm-1.3-.6c.2.2.3.4.4.5l-.2.2c-.1-.1-.2-.4-.4-.5l.2-.2zm2.9-1.3c.3 0 1-.1 1.7-.2.4 0 .8-.1 1.1-.1v.3c-.2 0-.6 0-.8.1-.5.2-.8.8-.8 1.3 0 .8.7 1 1.4 1l-.1.3c-.7 0-1.6-.4-1.6-1.3 0-.6.4-1.1.7-1.3-.3 0-1.4.1-1.9.2v-.4c.1.1.3.1.3.1zm2.6 1.1l-.2.1-.3-.6.2-.1.3.6zm.5-.1l-.2.1-.3-.6.2-.1c0 .1.2.4.3.6zm3.7 1.5c0 .2-.1.3-.2.3s-.4.1-.7 0c0-.1-.1-.2-.1-.3h.6c.1 0 .1 0 .1-.1v-.8h-1.1v1.2H70v-1.2h-1c-.1.4-.2.9-.5 1.2 0-.1-.2-.2-.2-.2.4-.5.5-1.2.5-1.8v-1.4h2.9v3.1zM70 33.1v-.7h-1v.6h1zm-1-1.5v.6h1v-.6h-1zm2.3 0h-1.1v.6h1.1v-.6zm0 1.5v-.7h-1.1v.7h1.1zm1 1.3c.3-.2.5-.4.6-.7l.3.1c-.1.3-.3.6-.6.8l-.3-.2zm3.5-2.2h-3.4V32h.9c0-.1-.1-.3-.2-.4h.1-.7v-.2H74V31h.3v.3h1.4v.2H75h.2c-.1.1-.2.3-.2.4h1v.3zm-.4 1.3h-1.5c.2.1.5.3.6.4l-.2.2c-.1-.1-.4-.3-.7-.4l.2-.1h-1v-1.1h2.5v1zm-.3-.9h-2v.2h2v-.2zm0 .4h-2v.2h2V33zm-.6 1.4c.2 0 .2 0 .2-.4.1 0 .2.1.3.1 0 .4-.1.5-.4.5h-.8c-.4 0-.5-.1-.5-.4v-.5h.3v.5c0 .1 0 .1.2.1h.7zm-1-2.9c.1.1.1.3.2.4h-.1 1.1-.1c.1-.1.1-.3.2-.4h-1.3zm1.7 2.2c.3.2.6.5.7.7l-.2.1c-.1-.2-.4-.5-.7-.7l.2-.1zm2.1-.9c0 .8-.3 1.4-.8 1.9l-.2-.1c.5-.5.7-1.1.7-1.8s-.3-1.3-.7-1.8l.2-.1c.5.5.8 1.1.8 1.9zM1.9 44.5c0 .8-.1 2-.6 2.8 0-.1-.2-.2-.3-.3.5-.8.5-1.8.5-2.6V43h4v.4H1.9v1.1zm3.7 2.2v.4H1.8v-.4h1.7v-1.6H2.1v-.4h1.3v-1.1h.4v1.1h1.4v.4H3.8v1.6h1.8zm4.9-2.9v.2c-.1 2.1-.2 2.8-.4 3-.1.1-.2.2-.4.2h-.8c0-.1-.1-.3-.1-.4h.8c.1 0 .2 0 .2-.1.2-.2.3-.9.4-2.6H8.4c-.1 1-.4 2.2-1.9 3.1 0 0-.1-.2-.2-.2 1.4-.8 1.7-1.9 1.8-2.8H6.4v-.4H8v-1.1h.4v1.1h2.1zm3.5 1.6c.4-.3.7-.9.9-1.2-.1 0-1 .2-1.9.4v1.5c0 .3.1.5.7.5s1.1-.1 1.6-.1v.4c-.4.1-.9.1-1.6.1-.9 0-1.1-.2-1.1-.7v-1.5c-.5.1-1 .2-1.2.2l-.1-.4c.2 0 .7-.1 1.2-.2V43h.5v1.3c.9-.2 1.7-.3 1.9-.4.1 0 .2-.1.3-.1l.3.2s-.1.1-.1.2c-.2.4-.6 1-1 1.5l-.4-.3zm4.5.4c.8-.5 1.4-1.2 1.7-1.8l.2.4c-.3.6-.9 1.3-1.7 1.8-.5.3-1.1.6-2 .8l-.3-.4c.9-.2 1.6-.5 2.1-.8zm-.3-1.6l-.3.3c-.3-.3-.9-.8-1.2-1l.3-.3c.3.2.9.8 1.2 1zM25 44h.5v.4h-1.1v.2c0 1.3-.3 2-1.4 2.5l-.3-.3c.9-.4 1.4-.8 1.4-2.2v-.2h-1.4v1.3h-.4v-1.3h-1V44h1v-1h.4v1h1.4v-1h.5v1h.4zM0 50.5c0-.8.3-1.4.8-1.9l.2.1c-.5.5-.7 1.1-.7 1.8s.3 1.3.7 1.8l-.2.1c-.5-.5-.8-1.1-.8-1.9zm2.8 0c.3-.1.6-.1.9-.1.6 0 1 .3 1 .8s-.3.8-.8.9c-.2 0-.4 0-.5.1l-.1-.3h.5c.3-.1.7-.3.7-.6s-.3-.5-.7-.5c-.3 0-.6.1-.9.2v.9c0 .4-.1.5-.4.5-.3 0-.8-.3-.8-.7 0-.3.4-.7.9-.9v-.7h-.8v-.3h.8V49h.3v.7c.3 0 .6-.1.8-.2v.3c-.2.1-.5.1-.8.1v.6zm-.3 1.1v-.7c-.3.1-.5.4-.5.5 0 .2.3.3.4.3.1.1.1 0 .1-.1zm1.6-2.4c.3.1.7.4.9.6l-.2.3c-.2-.2-.6-.5-.9-.6l.2-.3zm4.3.6c-.2.3-.5.6-.8.8.4.2 1 .3 1.6.4-.1 0-.2.1-.3.2-.2 0-.4-.1-.5-.1v1.2h-.3v-.1H6.5v.1h-.3v-1.1c-.2.1-.4.1-.6.2 0-.1-.1-.2-.1-.3.5-.1 1.1-.3 1.5-.6-.2-.1-.4-.3-.5-.5-.2.1-.4.3-.6.4 0-.1-.1-.2-.2-.2.5-.2.9-.6 1.1-.9l.3.1c-.1.1-.1.2-.2.2h1.3l.2.2zm-2.5 0h-.3V49h1.5v-.4h.3v.4H9v.7h-.3v-.5H5.9v.6zm2.3 1.3c-.3-.1-.7-.2-.9-.4-.3.2-.5.3-.8.4h1.7zm-.1.8v-.6H6.5v.6h1.6zm-1.4-2c.2.2.4.3.6.5.2-.1.4-.3.6-.5H6.7zm4.1 1.1c-.1-.1-.2-.4-.3-.6v1.9h-.3v-1.9c-.1.4-.3.9-.5 1.1 0-.1-.1-.2-.2-.3.2-.3.5-1 .6-1.5h-.5v-.3h.6v-.9h.3v.9h.5v.3h-.5v.3c.1.1.4.6.5.7l-.2.3zm1 .5c-.3.2-.7.4-.9.5l-.1-.2c.3-.1.6-.3 1-.5v.2zm.7-.3c.2.3.5.5.8.7-.1.1-.1.2-.2.2-.4-.2-.7-.5-.9-.9v.8c0 .2 0 .2-.1.3-.1 0-.3.1-.5.1 0-.1 0-.2-.1-.3h.4c.1 0 .1 0 .1-.1v-1.5h-1v-.3h1v-.3h-.8v-.2h.8v-.3h-1v-.2h.5c0-.1-.1-.3-.2-.4l.2-.1c.1.1.2.3.2.5h-.1.7c.1-.1.2-.4.2-.5l.3.1c-.1.1-.2.3-.2.4h.5v.2h-1v.3h.9v.2h-.9v.3h1v.3h-1v.2c.2.1.3.3.4.5.1-.2.3-.4.4-.6l.2.2-.5.5-.1-.1zm-1.2-.6c.2.2.3.4.4.5l-.2.2c-.1-.1-.2-.4-.4-.5l.2-.2zm2.9-1.3c.3 0 1-.1 1.7-.2.4 0 .8-.1 1.1-.1v.3c-.2 0-.6 0-.8.1-.6.2-.9.8-.9 1.3 0 .8.7 1 1.4 1l-.1.3c-.7 0-1.6-.4-1.6-1.3 0-.6.4-1.1.7-1.3-.3 0-1.4.1-1.9.2v-.4c.2.2.3.2.4.1zm2.5 1.2l-.2.1-.3-.6.2-.1c.1.2.3.4.3.6zm.5-.2l-.2.1-.3-.6.2-.1c0 .2.2.4.3.6zm3.7 1.6c0 .2-.1.3-.2.3s-.4.1-.7 0c0-.1-.1-.2-.1-.3h.6c.1 0 .1 0 .1-.1V51h-1.1v1.2h-.3V51h-1c-.1.4-.2.9-.5 1.2 0-.1-.2-.2-.2-.2.4-.5.5-1.2.5-1.8v-1.4h2.9v3.1zm-1.6-1.1v-.7h-1v.6h1zm-1-1.6v.6h1v-.6h-1zm2.3 0h-1.1v.6h1.1v-.6zm0 1.6v-.7h-1.1v.7h1.1zm1 1.3c.3-.2.5-.4.6-.7l.3.1c-.1.3-.3.6-.6.8l-.3-.2zm3.6-2.3h-3.4v-.2h.9c0-.1-.1-.3-.2-.4h.1-.7V49h1.4v-.3h.3v.3H25v.2h-.7.2c-.1.1-.2.3-.2.4h1v.2zm-.5 1.4h-1.5c.2.1.5.3.6.4l-.2.2c-.1-.1-.4-.3-.7-.4l.2-.1h-1V50h2.5v1.2zm-.3-.9h-2v.2h2v-.2zm0 .4h-2v.2h2v-.2zm-.5 1.3c.2 0 .2 0 .2-.4.1 0 .2.1.3.1 0 .4-.1.5-.4.5h-.8c-.4 0-.5-.1-.5-.4v-.5h.3v.5c0 .1 0 .1.2.1h.7zm-1.1-2.8c.1.1.1.3.2.4h-.1H24h-.1c.1-.1.1-.3.2-.4h-1.3zm1.8 2.1c.3.2.6.5.7.7l-.3.2c-.1-.2-.4-.5-.7-.7l.3-.2zm2.1-.8c0 .8-.3 1.4-.8 1.9l-.2-.1c.5-.5.7-1.1.7-1.8s-.3-1.3-.7-1.8l.2-.1c.4.5.8 1.1.8 1.9zm6 99.6c-.2-.2-.6-.4-.9-.5l.2-.3c.3.1.7.3.9.5l-.2.3zm.4.7c-.2.5-.6 1.1-.9 1.6l-.3-.2c.3-.4.6-1 .9-1.6l.3.2zm-.1-2c-.2-.2-.6-.4-.9-.5l.2-.3c.3.1.7.3.9.5l-.2.3zm3.4 3.2v.3h-3.5v-.3h.4v-1.5H36v1.5h.4zm-.5-2h-2.4v-1.9h2.4v1.9zm-2.3 2h.5v-1.2h-.5v1.2zm1.9-3.6h-1.7v.5h1.7v-.5zm0 .8h-1.7v.5h1.7v-.5zm-1.1 1.6v1.2h.5v-1.2h-.5zm.8 0v1.2h.5v-1.2h-.5zm2.6-2.1v1.1c0 .8-.1 1.9-.5 2.7-.1-.1-.2-.2-.3-.2.4-.7.4-1.7.4-2.4v-1.4h1.8v-.5h.4v.5h1.9v.3h-3.7zm3.4 2.1c-.2.4-.6.8-1 1 .4.2.9.3 1.5.3-.1.1-.2.2-.2.3-.6-.1-1.2-.2-1.6-.4-.5.2-1.1.4-1.8.4 0-.1-.1-.2-.2-.3.5-.1 1.1-.2 1.5-.3-.3-.2-.6-.4-.8-.7l.2-.1H38v-.3h2.9l.3.1zm-2.4-.4v-.8H38v-.3h.8v-.4h.4v.4h1.2v-.4h.4v.4h.8v.3h-.8v.8h-2zm.2.6c.2.3.5.5.8.6.3-.2.6-.4.8-.6H39zm.1-1.4v.5h1.2v-.5h-1.2zm5.8 1.1c.4-.3.7-.9.9-1.2-.1 0-1 .2-1.9.4v1.5c0 .3.1.5.7.5s1.1-.1 1.6-.1v.4c-.4.1-.9.1-1.6.1-.9 0-1.1-.2-1.1-.7v-1.5c-.5.1-1 .2-1.2.2l-.1-.4c.2 0 .7-.1 1.2-.2v-1.4h.5v1.3c.9-.2 1.7-.3 1.9-.4.1 0 .2-.1.3-.1l.3.2s-.1.1-.1.2c-.2.4-.6 1-1 1.5l-.4-.3zm4.5.3c.8-.5 1.4-1.2 1.7-1.8l.2.4c-.3.6-.9 1.3-1.7 1.8-.5.3-1.1.6-2 .8l-.3-.4c.9-.2 1.6-.5 2.1-.8zm-.3-1.5l-.3.3c-.3-.3-.9-.8-1.2-1l.3-.3c.3.2.9.7 1.2 1zm6.8-.3h.5v.4h-1.1v.2c0 1.3-.3 2-1.4 2.5l-.3-.3c.9-.4 1.4-.8 1.4-2.2v-.2h-1.4v1.3h-.4v-1.3h-1v-.4h1v-1h.4v1H55v-1h.5v1h.4zm-25.1 6.5c0-.8.3-1.4.8-1.9l.2.1c-.5.5-.7 1.1-.7 1.8s.3 1.3.7 1.8l-.2.1c-.4-.5-.8-1.1-.8-1.9zm2.9 0c.3-.1.6-.1.9-.1.6 0 1 .3 1 .8s-.3.8-.8.9c-.2 0-.4 0-.5.1l-.1-.3h.5c.3-.1.7-.3.7-.6s-.3-.5-.7-.5c-.3 0-.6.1-.9.2v.9c0 .4-.1.5-.4.5-.3 0-.8-.3-.8-.7 0-.3.4-.7.9-.9v-.7h-.8v-.3h.8v-.8h.3v.7c.3 0 .6-.1.8-.2v.3c-.2.1-.5.1-.8.1v.6zm-.3 1.1v-.7c-.3.2-.6.4-.6.6s.3.3.4.3c.1 0 .2-.1.2-.2zm1.5-2.3c.3.1.7.4.9.6l-.2.3c-.2-.2-.6-.5-.9-.6l.2-.3zm4.3.5c-.2.3-.5.6-.8.8.4.2 1 .3 1.6.4-.1.1-.1.2-.2.3-.2 0-.4-.1-.5-.1v1.2H39v-.1h-1.6v.1h-.3v-1.1c-.2.1-.4.1-.6.2 0-.1-.1-.2-.1-.3.5-.1 1.1-.3 1.6-.5-.2-.1-.4-.3-.5-.5-.2.1-.4.3-.6.4 0-.1-.1-.2-.2-.2.5-.2.9-.6 1.1-.9l.3.1c-.1.1-.1.2-.2.2h1.3zm-2.4 0h-.3v-.7H38v-.4h.3v.4h1.5v.7h-.3v-.5h-2.8v.5zm2.3 1.3c-.3-.1-.7-.2-.9-.4-.3.1-.5.3-.8.4h1.7zm-.1.8v-.6h-1.6v.6H39zm-1.5-2c.2.2.4.3.6.5.2-.1.4-.3.6-.5h-1.2zm4.1 1.1c-.1-.1-.2-.4-.3-.6v1.9H41v-1.9c-.1.4-.3.9-.5 1.1 0-.1-.1-.2-.2-.3.2-.3.5-1 .6-1.5h-.5v-.3h.6v-.9h.3v.9h.5v.3h-.5v.3c.1.1.4.6.5.7l-.2.3zm1.1.6c-.3.2-.7.4-.9.5l-.1-.2c.3-.1.6-.3 1-.5v.2zm.6-.4c.2.3.5.5.8.7-.1.1-.1.2-.2.2-.4-.2-.7-.5-.9-.9v.8c0 .2 0 .2-.1.3-.1 0-.3.1-.5.1 0-.1 0-.2-.1-.3h.4c.1 0 .1 0 .1-.1v-1.5h-1v-.3h1v-.3H42v-.2h.8v-.3h-.9v-.2h.5c0-.1-.1-.3-.2-.4l.2-.1c.1.1.2.3.2.5h-.1.7c.1-.1.2-.4.2-.5l.3.1c-.1.1-.2.3-.2.4h.5v.2h-1v.3h.9v.2H43v.3h1v.3h-1v.2c.1.1.2.3.3.5.1-.2.3-.4.4-.6l.3.2-.5.5-.2-.1zm-1.2-.6c.2.2.3.4.4.5l-.2.2c-.1-.1-.2-.4-.4-.5l.2-.2zm2.9-1.2c.3 0 1-.1 1.7-.2.4 0 .8-.1 1.1-.1v.3c-.2 0-.6 0-.8.1-.6.2-.9.8-.9 1.3 0 .8.7 1 1.4 1l-.1.3c-.7 0-1.6-.4-1.6-1.3 0-.6.4-1.1.7-1.3-.3 0-1.4.1-1.9.2v-.4c.2.1.3.1.4.1zm2.6 1.1l-.2.1-.3-.6.2-.1.3.6zm.4-.2l-.2.1-.3-.6.2-.1.3.6zm3.8 1.6c0 .2-.1.3-.2.3s-.4.1-.7 0c0-.1-.1-.2-.1-.3h.6c.1 0 .1 0 .1-.1v-.8h-1.1v1.2h-.3v-1.2h-1c-.1.4-.2.9-.5 1.2 0-.1-.2-.2-.2-.2.4-.5.5-1.2.5-1.8V154h2.9v3.1zm-1.7-1.1v-.7h-1v.6h1zm-.9-1.6v.6h1v-.6h-1zm2.3 0h-1.1v.6h1.1v-.6zm0 1.6v-.7h-1.1v.7h1.1zm1 1.3c.3-.2.5-.4.6-.7l.3.1c-.1.3-.3.6-.6.8l-.3-.2zM56 155h-3.4v-.2h.9c0-.1-.1-.3-.2-.4h.1-.7v-.2h1.4v-.3h.3v.3h1.4v.2h-.7.2c-.1.1-.2.3-.2.4h1v.2zm-.4 1.4h-1.5c.2.1.5.3.6.4l-.2.2c-.1-.1-.4-.3-.7-.4l.2-.1h-1v-1.1h2.5v1zm-.3-.9h-2v.2h2v-.2zm0 .4h-2v.2h2v-.2zm-.6 1.3c.2 0 .2 0 .2-.4.1 0 .2.1.3.1 0 .4-.1.5-.4.5H54c-.4 0-.5-.1-.5-.4v-.5h.3v.5c0 .1 0 .1.2.1h.7zm-1-2.8c.1.1.1.3.2.4h-.1 1.1-.1c.1-.1.1-.3.2-.4h-1.3zm1.7 2.1c.3.2.6.5.7.7l-.2.1c-.1-.2-.4-.5-.7-.7l.2-.1zm2.1-.8c0 .8-.3 1.4-.8 1.9l-.2-.1c.5-.5.7-1.1.7-1.8s-.3-1.3-.7-1.8l.2-.1c.5.5.8 1.1.8 1.9zm44.2 3.2c-.6 0-1.1.2-1.4.3-.2 0-.3.1-.4.1l-.1-.5c.1 0 .3 0 .5-.1.4-.1.9-.2 1.5-.2.7 0 1.2.4 1.2 1.1 0 1.1-1 1.7-2.2 1.9l-.2-.4c1.2-.2 2.1-.6 2.1-1.5-.2-.4-.5-.7-1-.7zm.9-1.3l-.1.4c-.6 0-1.6-.1-2.1-.2l.1-.4c.5.1 1.6.2 2.1.2zm4 .4h1.5v.4h-1.6v.8c.1.2.2.4.2.6 0 .7-.3 1.4-1.5 1.8l-.3-.3c.6-.2 1.1-.4 1.3-.9-.1.1-.3.1-.4.1-.4 0-.8-.3-.8-.8s.4-.9.9-.9c.1 0 .2 0 .3.1v-.5c-.8 0-1.6 0-2.2.1v-.4h2.2v-.6h.5v.3c-.2 0-.2.1-.1.2zm-.4 1.5c-.1-.2-.2-.3-.4-.3-.3 0-.5.2-.5.5s.2.5.5.5.5-.3.4-.7zm1.1-1.5c-.1-.2-.2-.4-.4-.6l.3-.1c.1.2.3.4.4.6l-.3.1zm.6-.1c-.1-.2-.2-.4-.4-.6l.3-.1c.1.2.3.4.4.6l-.3.1zm4.5 3.3c-.3-.3-.7-.6-1.2-.7v.3c0 .3-.2.7-.9.7s-1.1-.3-1.1-.7c0-.5.4-.8 1.2-.8h.4v-.7h-.3c-.3 0-.9 0-1.2-.1v-.4c.3.1.9.1 1.2.1h.3v.1-.6h-.2c-.3 0-.9 0-1.2-.1v-.4c.3.1.8.1 1.2.1h.3v-.6h.4v.6c.4 0 .8-.1 1.3-.1v.4c-.4 0-.8.1-1.3.1v.8c.5 0 .9-.1 1.4-.1v.4c-.5.1-.9.1-1.4.1v.8c.7.2 1.2.5 1.4.8h-.3zm-1.6-.8h-.5c-.5 0-.7.2-.7.4s.2.4.7.4c.3 0 .5-.1.5-.4v-.4zm6.5-1.4c-.2.1-.5.1-.8.2.1.3.3.7.4.9l-.2.2c-.3 0-.7-.1-1-.1v-.3c.2 0 .5.1.6.1-.1-.2-.2-.5-.3-.7-.6.1-1.5.1-2.2 0v-.4c.8.1 1.5.1 2.1 0l-.2-.4c0-.1-.1-.2-.1-.3h-1.7v-.4c.6.1 1.1.1 1.6 0 0-.1 0-.1-.1-.1l-.2-.4.5-.1c0 .2.1.4.2.6.3-.1.7-.1 1-.2l.1.4c-.3.1-.6.2-.9.2l.1.2c0 .1.1.3.2.4.4-.1.7-.2.9-.2v.4zm-2.9 1c-.1.2-.1.4-.1.5 0 .4.3.6 1 .6.4 0 .9 0 1.2-.1v.4c-.3.1-.8.1-1.2.1-.9 0-1.4-.3-1.4-.9 0-.2.1-.4.1-.6h.4zm5.1-.5c-.2.4-.7 1.1-1 1.4l-.3-.2c.3-.3.8-.9 1-1.3l.3.1zm1-.8v2.4c0 .3-.1.4-.4.4h-.7v-.4c.2 0 .5.1.6.1.1 0 .2-.1.2-.2v-2.3h-1.8v-.4h1.8v-.9h.5v.9h1.7v.4h-1.9zm1.1.6c.3.3.7.9.9 1.3l-.4.2c-.2-.4-.6-1-.8-1.3l.3-.2zm-.2-1.7c0-.3.2-.6.5-.6s.6.2.6.6c0 .3-.2.5-.6.5-.2 0-.5-.2-.5-.5zm.2 0c0 .2.1.3.3.3.2 0 .3-.1.3-.3 0-.2-.1-.3-.3-.3-.1 0-.3.1-.3.3zm3.8 2.7c.8-.5 1.4-1.2 1.7-1.8l.2.4c-.3.6-.9 1.3-1.7 1.8-.5.3-1.1.6-2 .8l-.3-.4c1-.2 1.6-.6 2.1-.8zm-.3-1.6l-.3.3c-.3-.3-.9-.8-1.2-1l.3-.3c.3.2.9.7 1.2 1zm6.1-.8h.2v-.2c0-.3.2-.6.6-.6.3 0 .6.3.6.6s-.3.6-.6.6h-.2v.1c-.1.5-.4 1.3-.7 1.8-.5.6-1.1 1.1-2 1.3l-.3-.4c1-.2 1.5-.7 2-1.2.4-.5.6-1.2.7-1.6h-3.1v-.4h2.8zm1-.2c0-.2-.1-.3-.3-.3-.2 0-.3.2-.3.3 0 .2.1.3.3.3.2 0 .3-.1.3-.3zm-22.8 7.7c0-1 .4-1.8 1-2.4l.3.2c-.6.6-.9 1.3-.9 2.2 0 .9.4 1.6.9 2.2l-.3.2c-.6-.6-1-1.4-1-2.4zm4.1-.1l1.7-1.7.1.1-1.7 1.7 1.7 1.7-.1.1-1.7-1.7-1.7 1.7-.1-.1 1.7-1.7-1.7-1.7.1-.1 1.7 1.7zm-1.1.1c0 .2-.2.4-.4.4s-.4-.2-.4-.4.2-.4.4-.4.4.2.4.4zm1.1-1.1c-.2 0-.4-.2-.4-.4s.2-.4.4-.4.4.2.4.4-.2.4-.4.4zm0 2.1c.2 0 .4.2.4.4s-.2.4-.4.4-.4-.2-.4-.4.2-.4.4-.4zm1-1c0-.2.2-.4.4-.4s.4.2.4.4-.2.4-.4.4-.4-.2-.4-.4zm2.2 1.6c1.2-.9 2-1.7 2-2.3 0-.4-.3-.7-.8-.7-.4 0-.7.2-1 .5l-.3-.3c.3-.4.8-.7 1.3-.7.7 0 1.2.4 1.2 1.1 0 .7-.8 1.5-1.7 2.3h1.9v.4h-2.6v-.3zm5.3-1.6c0 1-.4 1.8-1 2.4l-.3-.2c.6-.6.9-1.3.9-2.2 0-.9-.4-1.6-.9-2.2l.3-.2c.6.6 1 1.4 1 2.4zm42.4-29.4c-.2.4-.7 1.1-1 1.4l-.3-.2c.3-.3.8-.9 1-1.3l.3.1zm1.1-.8v2.4c0 .3-.1.4-.4.4h-.7v-.4c.2 0 .5.1.6.1.1 0 .2-.1.2-.2v-2.3h-1.8v-.4h1.8v-.9h.5v.9h1.7v.4h-1.9zm1 .6c.3.3.7.9.9 1.3l-.4.2c-.2-.4-.6-1-.8-1.3l.3-.2zm-.2-1.7c0-.3.2-.6.5-.6s.6.2.6.6c0 .3-.2.5-.6.5-.2 0-.5-.2-.5-.5zm.3 0c0 .2.1.3.3.3.2 0 .3-.1.3-.3 0-.2-.1-.3-.3-.3-.2 0-.3.1-.3.3zm3.7 2.7c.8-.5 1.4-1.2 1.7-1.8l.2.4c-.3.6-.9 1.3-1.7 1.8-.5.3-1.1.6-2 .8l-.3-.4c1-.2 1.7-.6 2.1-.8zm-.3-1.6l-.3.3c-.3-.3-.9-.8-1.2-1l.3-.3c.3.2 1 .7 1.2 1zm6.1-.8h.2v-.2c0-.3.2-.6.6-.6.3 0 .6.3.6.6s-.3.6-.6.6h-.2v.1c-.1.5-.4 1.3-.7 1.8-.5.6-1.1 1.1-2 1.3l-.3-.4c1-.2 1.5-.7 2-1.2.4-.5.6-1.2.7-1.6h-3.1v-.4h2.8zm1-.2c0-.2-.1-.3-.3-.3-.2 0-.3.2-.3.3 0 .2.1.3.3.3.2 0 .3-.1.3-.3zm4.1.2h.2v-.2c0-.3.2-.6.6-.6.3 0 .6.3.6.6s-.3.6-.6.6h-.2v.1c-.1.5-.4 1.3-.7 1.8-.5.6-1.1 1.1-2 1.3l-.3-.4c1-.2 1.5-.7 2-1.2.4-.5.6-1.2.7-1.6h-3.1v-.4h2.8zm1-.2c0-.2-.1-.3-.3-.3-.2 0-.3.2-.3.3 0 .2.1.3.3.3.2 0 .3-.1.3-.3zm4.7 3v.6h-.4v-.3h-2.7v.3h-.4v-3.5h3.5v2.9zm-3.2-2.4v2.4h2.7v-2.4h-2.7zm7.9.6h.4v.4h-1.8c0 .5-.1 1-.3 1.4-.2.3-.6.7-1 .9l-.4-.3c.4-.2.8-.5.9-.8.2-.4.3-.8.3-1.2h-1.9v-.4h3.8zm-2.6-.9h-.5v-.4h3v.4H189zm7.8.2c0 .1-.1.2-.1.3-.1.5-.4 1.2-.9 1.7-.5.6-1.1 1-2 1.4l-.4-.3c.9-.3 1.5-.7 2-1.3.4-.5.7-1.1.8-1.6h-1.7c-.3.4-.7.9-1.3 1.2l-.3-.3c.9-.5 1.4-1.2 1.6-1.7.1-.1.1-.3.2-.4l.5.2c-.1.1-.2.3-.2.4 0 .1-.1.1-.1.2h1.7l.2.2zm4.7-.1c0 .1-.1.2-.1.3-.1.4-.4 1-.7 1.5.2.1.4.2.5.3l-.3.4c-.1-.1-.3-.2-.5-.3-.5.5-1.1 1-2 1.3l-.4-.3c.9-.3 1.5-.7 2-1.2-.4-.3-.8-.5-1.1-.7l.3-.3c.3.2.7.4 1.1.6.3-.4.6-.9.6-1.3h-1.7c-.3.4-.8.9-1.3 1.3l-.3-.3c.9-.5 1.4-1.3 1.6-1.7 0-.1.1-.3.2-.4l.5.1c-.1.1-.2.3-.2.4 0 .1-.1.1-.1.2h1.7l.2.1zm1.1-.5h.9c1.1 0 1.7.7 1.7 1.8 0 1.2-.6 1.8-1.7 1.8h-.9v-3.6zm.8 3.3c.9 0 1.3-.5 1.3-1.5 0-.9-.4-1.4-1.3-1.4h-.4v2.9h.4zm4.7.4l-.9-1.6h-.7v1.6h-.5v-3.7h1.2c.7 0 1.3.3 1.3 1 0 .6-.3.9-.8 1l.9 1.6h-.5zm-1.5-1.9h.6c.6 0 .9-.2.9-.7 0-.5-.3-.7-.9-.7h-.6v1.4zm2.8-1.8h.5l1.3 2.3.4.8c0-.4-.1-.8-.1-1.2v-1.9h.4v3.7h-.5l-1.3-2.3-.4-.8c0 .4.1.8.1 1.1v1.9h-.4v-3.6zm-28 7.8c0-1 .4-1.8 1-2.4l.3.2c-.6.6-.9 1.3-.9 2.2 0 .9.4 1.6.9 2.2l-.3.2c-.7-.6-1-1.4-1-2.4zm4-.1l1.7-1.7.1.1-1.7 1.7 1.7 1.7-.1.1-1.7-1.7-1.7 1.7-.1-.1 1.7-1.7-1.7-1.7.1-.1 1.7 1.7zm-1.1.1c0 .2-.2.4-.4.4s-.4-.2-.4-.4.2-.4.4-.4c.3 0 .4.2.4.4zm1.1-1.1c-.2 0-.4-.2-.4-.4s.2-.4.4-.4.4.2.4.4c0 .3-.2.4-.4.4zm0 2.1c.2 0 .4.2.4.4s-.2.4-.4.4-.4-.2-.4-.4.2-.4.4-.4zm1-1c0-.2.2-.4.4-.4s.4.2.4.4-.2.4-.4.4-.4-.2-.4-.4zm2.2 1.6c1.2-.9 2-1.7 2-2.3 0-.4-.3-.7-.8-.7-.4 0-.7.2-1 .5l-.3-.3c.3-.4.8-.7 1.3-.7.7 0 1.2.4 1.2 1.1 0 .7-.8 1.5-1.7 2.3h1.9v.4h-2.6v-.3zm5.3-1.6c0 1-.4 1.8-1 2.4l-.3-.2c.6-.6.9-1.3.9-2.2 0-.9-.4-1.6-.9-2.2l.3-.2c.7.6 1 1.4 1 2.4zm81.8-11.6h.5v.4h-1.3c-.1 1.4-.6 2.3-1.5 2.8l-.4-.3c.1-.1.3-.1.4-.2.5-.4 1-1 1.1-2.3h-1.3c-.2.4-.5.8-.8 1.1l-.4-.2c.4-.3.7-.8.9-1.1.1-.2.2-.5.3-.7 0-.1.1-.3.1-.4l.5.1c0 .1-.1.2-.1.4-.1.1-.1.3-.2.5h2.2zm-.1-.2c-.1-.2-.3-.5-.4-.7l.3-.1c.1.2.3.5.4.7l-.3.1zm.4-1c.1.2.3.5.4.7l-.3.1c-.1-.2-.3-.5-.4-.7l.3-.1zm1 1.9h3.9v.5H277v-.5zm8.1.9c-.5-.3-1.4-.6-2-.8v2.3h-.5v-4h.5v1.3c.7.2 1.6.6 2.1.8l-.1.4zm5.1-1.7c0 .1-.1.2-.1.3-.1.4-.2 1-.5 1.5-.4.7-1.1 1.2-2 1.4l-.3-.4c.2 0 .4-.1.5-.1.5-.2 1.1-.5 1.4-1 .3-.4.4-1 .5-1.5h-2.8v1.2h-.4V130h1.6v-.9h.5v.9h1.4l.2.2zm4.1 2.7h.3v.4h-3.5v-.4h1.6V131h-1.2v-.4h3v.4h-1.4v1.8h1.2zm5.1-3.3c-.3.4-.8.8-1.3 1.1v2.6h-.5v-2.4c-.5.3-1.2.6-1.9.8l-.2-.4c.8-.2 1.7-.6 2.2-.9.5-.3 1-.8 1.3-1.1l.4.3zm37.7 6.3c-.2.1-.4.1-.6.2v1.5c0 .2 0 .3-.2.4-.1.1-.3.1-.6.1 0-.1-.1-.2-.1-.3h.5c.1 0 .1 0 .1-.1v-1.4c-.2.1-.4.1-.6.2l-.1-.4c.2-.1.4-.1.7-.2v-1h-.6v-.3h.6v-1h.3v1h.5v.1c.3-.3.5-.7.7-1.1l.3.1c-.1.2-.1.3-.2.5h.7c.1-.2.2-.4.2-.5l.4.1c-.1.2-.2.3-.2.4h1.1v.3h-1.1v.3h1v.2h-1v.3h1v.2h-1v.3h1.1v.3h-2.6v-1.4l-.3.3s-.1-.1-.1-.2h-.5v.9c.2 0 .3-.1.5-.2l.1.4zm3 .9c-.1.7-.1.9-.3 1.1-.1.1-.2.1-.3.1h-.6c0-.1 0-.2-.1-.3h.8c.1-.1.1-.3.2-.7h-.6c0 .1 0 .2-.1.2h-.3c0-.2.1-.4.2-.6h-.6c-.1.8-.4 1.2-1.1 1.5 0-.1-.2-.2-.2-.3.6-.2.9-.6.9-1.2h-.7v-.3h2.1c0 .1-.1.3-.1.4h.9l-.1.1zm-1.5-2.5h-.8v.3h.8v-.3zm0 .5h-.8v.3h.8v-.3zm0 .6h-.8v.3h.8v-.3zm6.6-1.4v.3h-.8v.8h-2.8v-.8h-.8v-.3h.8v-.5h.4v.5h.9v-.5h.4v.5h.9v-.5h.4v.5h.6zm-4.3 1.4h4.2v1h-.4v-.7h-1.6v.5h1.4v1c0 .2 0 .3-.2.3-.1.1-.4.1-.7.1 0-.1-.1-.2-.1-.3h.6c.1 0 .1 0 .1-.1v-.7h-1.1v1.5h-.4v-1.5h-1v1.1h-.4v-1.4h1.3v-.5H341v.7h-.3v-1zm1-.6h.9v-.5h-.9v.5zm2.2-.5h-.9v.5h.9v-.5zm3.8.2h-1.6v.7h-.3v-1h1.9v-.3h-1.6v-.3h3.6v.3h-1.7v.3h1.9v1h-.3v-.7h-1.6v1.1h-.4v-1.1zm1.8 3.2c.3 0 .3-.1.3-.6.1.1.2.1.3.1-.1.6-.2.8-.6.8h-1.2c-.6 0-.7-.1-.7-.5v-.2h-1.1v.3h-.4v-1.7h3.4v1.5h-1.6v.2c0 .2.1.2.4.2h1.2zm-3.2-2.4h1.2v.2h-1.2v-.2zm1.1-.3h-1.1v-.2h1.1v.2zm-.8 1.1v.3h1.1v-.3h-1.1zm1.1.9v-.3h-1.1v.3h1.1zm1.5-.9h-1.2v.3h1.2v-.3zm0 .9v-.3h-1.2v.3h1.2zm.2-2.2v.2h-1.1v-.2h1.1zm-1.1.5h1.2v.2h-1.2v-.2zm2.4-1h1.9v.3h-1.9v-.3zm1.7 3.5h-1.2v.2h-.3v-1.7h1.5v1.5zm0-2.5h-1.5v-.3h1.5v.3zm-1.4.4h1.5v.3h-1.5v-.3zm1.4-1.8h-1.4v-.3h1.4v.3zm-1.1 2.7v.8h.8v-.8h-.8zm2.9-1.4v.8h.9v1.9h-.4v-.2h-1.5v.3h-.4v-1.9h.9v-.8h-1.2v-.4h1.2v-.8c-.3 0-.6.1-.9.1 0-.1-.1-.2-.1-.3.8-.1 1.6-.2 2.1-.4l.3.3c-.3.1-.6.2-1 .2v.9h1.2v.4h-1.1zm.5 1.2h-1.5v1h1.5v-1zm5.6-2.7v4.4h-.4v-.3h-3.4v.3h-.4v-4.4h4.2zm-.4 3.7V134h-3.4v3.4h3.4zm-.7-2.6v1.8h-1.9v-1.8h1.9zm-.4.3h-1.2v1.1h1.2v-1.1zm2.9 1.2c-.1.5-.2 1-.3 1.3-.1 0-.2-.1-.3-.1.2-.3.2-.8.3-1.2h.3zm.5-.4v2.1h-.3v-2.1l-.8.1v-.3h.3c.1-.1.2-.3.3-.4-.1-.2-.4-.5-.6-.7l.2-.2c.1 0 .1.1.1.1.2-.3.3-.7.4-.9l.3.1c-.2.3-.4.8-.6 1l.3.3c.2-.3.4-.6.5-.9l.3.1c-.3.5-.7 1-1 1.4h.7c-.1-.1-.1-.3-.2-.4l.3-.1c.2.3.4.8.5 1l-.3.1c0-.1-.1-.2-.1-.3h-.3zm.5.4l.3.9-.3.1c0-.2-.1-.6-.3-.9l.3-.1zm1.3-.1c-.2.8-.6 1.3-1.1 1.6 0-.1-.2-.2-.2-.3.4-.2.7-.6.9-1.1h-.7v-.3h.9l.2.1zm1.7-.1c-.2.2-.5.5-.8.6.2.3.5.6.9.7-.1.1-.2.2-.2.3-.5-.3-.9-.7-1.1-1.2v1c0 .2 0 .3-.2.3-.1 0-.3.1-.6.1 0-.1-.1-.2-.1-.3h.5c.1 0 .1 0 .1-.1v-1.9h-1V134h.8c.1-.2.2-.4.2-.5l.4.1c-.1.2-.2.3-.2.4h1.2v1.8h-1v.1c.1.2.2.5.3.7.2-.2.5-.4.6-.6l.2.1zm-2.3-1.4h1.7v-.4h-1.7v.4zm0 .7h1.7v-.4h-1.7v.4zm3.8-.2c.3 0 .5.2.5.5s-.2.5-.5.5-.5-.2-.5-.5c-.1-.3.2-.5.5-.5zm5.6-.7c0 .1-.1.2-.1.3-.1.5-.4 1.2-.9 1.7-.5.6-1.1 1-2 1.4l-.4-.3c.9-.3 1.5-.7 2-1.3.4-.5.7-1.1.8-1.6h-1.7c-.3.4-.7.9-1.3 1.2l-.3-.3c.9-.5 1.4-1.2 1.6-1.7.1-.1.1-.3.2-.4l.5.2c-.1.1-.2.3-.2.4 0 .1-.1.1-.1.2h1.7l.2.2zm4.7.7l-.1.1c-.1.5-.4 1-.7 1.4-.5.6-1.2.9-1.8 1l-.3-.4c.7-.1 1.3-.5 1.8-.9.3-.3.5-.7.6-1.1H374v-.4h3.4l.3.3zm-3.2-1.3h3v.4h-3v-.4zm8.1.7c0 .1-.1.2-.1.3-.1.4-.2 1-.5 1.5-.4.7-1.1 1.2-2 1.4l-.3-.4c.2 0 .4-.1.5-.1.5-.2 1.1-.5 1.4-1 .3-.4.4-1 .5-1.5h-2.8v1.2h-.4v-1.6h1.6v-.8h.5v.9h1.4l.2.1zm1.9.6c.7.2 1.6.6 2.1.8l-.2.4c-.5-.3-1.4-.6-2-.8v2.2h-.5v-4h.5v1.4zm1.6-.3c-.1-.3-.3-.5-.4-.8l.3-.1c.1.2.3.5.5.8l-.4.1zm.6-.2c-.1-.3-.3-.5-.5-.8l.3-.1c.1.2.4.5.5.7l-.3.2zm-6-69.9c.2.4.7.5 1.3.6h2.3c0 .1-.1.3-.1.4H382c-.7 0-1.1-.2-1.4-.6-.3.2-.5.4-.8.6l-.2-.4c.2-.1.5-.4.8-.6v-1.3h-.7v-.4h1.1v1.7zm-.2-2.4c-.2-.2-.5-.6-.8-.8l.3-.2c.3.2.7.6.8.8l-.3.2zm1.1 2.6h-.4v-2.6h1.4c-.3-.1-.7-.3-1-.4l.2-.2c.2.1.5.2.7.3.2-.1.5-.2.7-.4h-2.1v-.3h2.5l.2.2c-.3.3-.6.5-1 .7.1.1.3.1.4.2h.6v2.2c0 .2 0 .3-.2.3-.1 0-.3.1-.7.1 0-.1-.1-.2-.1-.3h.5c.1 0 .1 0 .1-.1v-.5h-.9v.8h-.3v-.8h-.8v.8zm0-2.2v.4h.8v-.4h-.8zm.8 1.1v-.5h-.8v.5h.8zm1.2-1.1h-.9v.4h.9v-.4zm0 1.1v-.5h-.9v.5h.9zm2.7-.8v.2h.9v.4h-1c0 .1 0 .2-.1.3.2.2.8.9 1 1.1l-.2.3c-.2-.2-.6-.7-.8-1-.2.5-.5 1.1-1 1.5 0-.1-.2-.2-.3-.3.8-.5 1-1.3 1.1-1.9h-1v-.4h1v-1h-.4c-.1.3-.2.6-.4.8-.1-.1-.2-.2-.3-.2.3-.4.5-1 .6-1.6l.4.1c0 .2-.1.4-.2.6h1.4v.3h-.8v.8zm2.9-1.5v3.9h-.4v-.3h-1.1v.4h-.4v-4h1.9zm-.4 3.3V62h-1.1v2.9h1.1zm4.9-3.1c-.1.1-.1.3-.2.4-.2.4-.4 1-.8 1.5.4.4.9.8 1.2 1.1l-.3.3-1.2-1.2c-.5.6-1.1 1.2-2 1.6l-.4-.3c.9-.4 1.5-1 2-1.6-.4-.3-.9-.7-1.4-1l.3-.3c.4.3 1 .7 1.4 1 .3-.5.5-.9.7-1.4 0-.1.1-.3.1-.4l.6.3zm1 1.4h3.9v.5h-3.9v-.5zm4.5 2.1c.4-.3.7-.7.9-1.2.1-.5.1-1.5.1-2v-.4h.5v.4c0 .6 0 1.6-.2 2.1s-.5 1-.9 1.4l-.4-.3zm2.2 0v-3.7h.5v3.3c.5-.2 1.1-.7 1.5-1.2l.2.3c-.4.6-1.1 1.1-1.7 1.4-.1 0-.1.1-.2.1l-.3-.2zm24.7 42.9v.3h-4.4v-.3h1.2v-.6h-.9v-.3h.9v-.5h-.7V105h3.5v1.8h-.7v.5h.9v.3h-.9v.6h1.1zm-2.6.6c-.4.3-1.1.5-1.6.6-.1-.1-.2-.2-.2-.3.5-.1 1.2-.4 1.5-.6l.3.3zm-1-3h1.2v-.4h-1.2v.4zm0 .7h1.2v-.4h-1.2v.4zm.7.8h1.3v-.5h-1.3v.5zm0 .9h1.3v-.6h-1.3v.6zm2.1-2.9H424v.4h1.2v-.4zm0 .8H424v.4h1.2v-.4zm-.8 2.5c.6.2 1.2.4 1.6.6l-.3.3c-.4-.2-.9-.4-1.5-.6l.2-.3zm6.4-1.9h-.4v-.7h-3.4v.7h-.4v-1.1h.8c-.1-.2-.2-.4-.4-.6l.3-.1c.2.2.3.4.4.6l-.3.1h1v-.8h.4v.8h1.9v1.1zm-.3 2.1c0 .2 0 .3-.2.4-.2.1-.4.1-.8.1 0-.1-.1-.2-.1-.3h.6c.1 0 .1 0 .1-.1v-.7H429v1.3h-.4v-1.3h-1.2v1.1h-.4v-1.4h1.6v-.4h-1.2v-1.1h2.6v1.1h-1.1v.4h1.5v.9zm-2.7-1.7h1.9v-.5h-1.9v.5zm2.6-2.1c-.2.2-.4.5-.5.6l-.3-.1c.1-.2.3-.4.4-.6l.4.1zm2.2 3.4c.2.4.7.5 1.3.6h2.3c0 .1-.1.3-.1.4H434c-.7 0-1.1-.2-1.4-.6-.3.2-.5.4-.8.6l-.2-.4c.2-.1.5-.4.8-.6v-1.3h-.7v-.4h1.1v1.7zm-.1-2.4c-.2-.2-.5-.6-.8-.8l.3-.2c.3.2.7.6.8.8l-.3.2zm1 2.7h-.4v-2.6h1.4c-.3-.1-.7-.3-1-.4l.2-.2c.2.1.5.2.7.3.2-.1.5-.2.7-.4h-2.1v-.3h2.5l.2.2c-.3.2-.6.5-1 .7.1.1.3.1.4.2h.6v2.2c0 .2 0 .3-.2.3-.1 0-.3.1-.7.1 0-.1-.1-.2-.1-.3h.5c.1 0 .1 0 .1-.1v-.5h-.9v.8h-.3v-.8h-.8v.8zm0-2.3v.4h.8v-.4h-.8zm.8 1.2v-.5h-.8v.5h.8zm1.3-1.2h-.9v.4h.9v-.4zm0 1.2v-.5h-.9v.5h.9zm2.6-.9v.2h.9v.4h-1c0 .1 0 .2-.1.3.2.2.8.9 1 1.1l-.1.3c-.2-.2-.6-.7-.8-1-.2.5-.5 1.1-1 1.5 0-.1-.2-.2-.3-.3.8-.5 1-1.3 1.1-1.9h-1v-.4h1v-1h-.4c-.1.3-.3.6-.4.8-.1-.1-.2-.2-.3-.2.3-.4.5-1 .6-1.6l.4.1c0 .2-.1.4-.2.6h1.4v.3h-.8v.8zm2.9-1.4v3.9h-.4v-.3h-1.1v.4h-.4v-4h1.9zm-.4 3.2v-2.9h-1.1v2.9h1.1zm2.1-1.9c.3 0 .5.2.5.5s-.2.5-.5.5-.5-.2-.5-.5.2-.5.5-.5zm5.7 1.3c-.2.4-.5.7-.8.9.4.2.8.3 1.2.3-.1.1-.2.2-.2.3-.5-.1-1-.2-1.4-.5-.5.2-1 .4-1.6.5 0-.1-.1-.2-.2-.3.5-.1 1-.2 1.4-.4-.2-.2-.4-.3-.5-.5-.2.2-.4.3-.6.4-.1-.1-.2-.2-.3-.2.4-.2.8-.6 1.1-1h-.5V106l-.3.3c-.1-.1-.2-.2-.3-.2-.1.2-.2.3-.3.5v2.8h-.3V107c-.2.2-.4.4-.6.5 0-.1-.2-.2-.2-.3.5-.3.9-.9 1.2-1.4l.3.1c0 .1-.1.1-.1.2.3-.3.6-.8.8-1.3l.4.1c0 .1-.1.3-.2.4h2.2v.3h-2.3c-.1.1-.1.2-.2.3h2.2v1.4h-1.4c-.1.1-.1.2-.2.3h1.4l.3.3zm-2.9-2.9c-.3.4-.8.9-1.2 1.2 0-.1-.1-.2-.2-.3.4-.3.8-.7 1.1-1l.3.1zm1 1.6h1.6v-.3h-1.6v.3zm0 .6h1.6v-.3h-1.6v.3zm.1.9c.1.2.4.4.6.5.3-.2.5-.3.6-.5h-1.2zm3.7-3.2h.3v2c0 1-.1 1.9-.8 2.6-.1-.1-.2-.2-.3-.2.7-.6.8-1.4.8-2.3v-2.1zm-.4 2.9h-.3v-2.4h.3v2.4zm3.9-1v.8h-.3v-.5h-1v.5h1v1.2c0 .2 0 .3-.1.3-.1.1-.3.1-.5.1 0-.1 0-.2-.1-.3h.4s.1 0 .1-.1v-.9h-.7v1.6h-.4v-1.6h-.6v1.3h-.3v-1.5h-.5v-.8h3zm-.4-.3h-2.4v-.3h2v-.3h-1.8v-.3h1.8v-.3h-1.9v-.3h2.3v1.5zm-1.3.6h-1v.5h1v-.5zm3.5 1.3c.2.4.7.5 1.3.6h2.3c0 .1-.1.3-.1.4h-2.2c-.7 0-1.1-.2-1.4-.6-.3.2-.5.4-.8.6l-.2-.4c.2-.1.5-.4.8-.6v-1.3h-.7v-.4h1.1v1.7zm-.2-2.4c-.2-.2-.5-.6-.8-.8l.3-.2c.3.2.7.6.8.8l-.3.2zm1.1 2.7h-.4v-2.6h1.4c-.3-.1-.7-.3-1-.4l.2-.2c.2.1.5.2.7.3.2-.1.5-.2.7-.4h-2.1v-.3h2.5l.2.2c-.3.2-.6.5-1 .7.1.1.3.1.4.2h.6v2.2c0 .2 0 .3-.2.3-.1 0-.3.1-.7.1 0-.1-.1-.2-.1-.3h.5c.1 0 .1 0 .1-.1v-.5h-.9v.8h-.3v-.8h-.8v.8zm0-2.3v.4h.8v-.4h-.8zm.8 1.2v-.5h-.8v.5h.8zm1.2-1.2h-.9v.4h.9v-.4zm0 1.2v-.5h-.9v.5h.9zm2.7-.9v.2h.9v.4h-1c0 .1 0 .2-.1.3.2.2.8.9 1 1.1l-.2.3c-.2-.2-.6-.7-.8-1-.2.5-.5 1.1-1 1.5 0-.1-.2-.2-.3-.3.8-.5 1-1.3 1.1-1.9h-1v-.4h1v-1h-.4c-.1.3-.2.6-.4.8-.1-.1-.2-.2-.3-.2.3-.4.5-1 .6-1.6l.4.1c0 .2-.1.4-.2.6h1.4v.3h-.8v.8zm2.9-1.4v3.9h-.4v-.3h-1.1v.4h-.4v-4h1.9zm-.4 3.2v-2.9h-1.1v2.9h1.1zM234.1 97.4l-.9-1.6h-.7v1.6h-.5v-3.7h1.2c.7 0 1.3.3 1.3 1 0 .6-.3.9-.8 1l.9 1.6h-.5zm-1.5-2h.6c.6 0 .9-.2.9-.7 0-.5-.3-.7-.9-.7h-.6v1.4zm2.6 1.5l.3-.3c.3.3.6.5 1 .5.5 0 .8-.2.8-.6 0-.4-.3-.5-.6-.7l-.5-.2c-.3-.1-.7-.4-.7-.9 0-.6.5-1 1.2-1 .4 0 .8.2 1.1.5l-.2.3c-.2-.2-.5-.3-.8-.3-.4 0-.7.2-.7.5 0 .4.3.5.6.6l.5.2c.4.2.8.4.8 1s-.5 1-1.2 1c-.9-.1-1.3-.3-1.6-.6zm3.2-1.1h1.3v.3h-1.3v-.3zm4.4.5h-.5v1h-.4v-1h-1.6V96l1.5-2.4h.5V96h.5v.3zm-.9-.3v-1.8c-.1.2-.2.4-.3.5l-.8 1.3h1.1zm1.5.4c0-.5.3-.8.7-1-.3-.2-.5-.5-.5-.8 0-.6.4-.9 1-.9s1 .4 1 1c0 .4-.3.7-.5.9.3.2.6.5.6 1s-.5 1-1.2 1c-.6-.2-1.1-.6-1.1-1.2zm1.9.1c0-.5-.5-.7-1-.9-.3.2-.5.5-.5.8 0 .4.3.7.8.7.4 0 .7-.3.7-.6zm-.1-1.9c0-.4-.2-.7-.6-.7-.3 0-.6.2-.6.6 0 .4.4.6.8.8.3-.2.4-.4.4-.7zm1.1 2.3l.2-.3c.2.2.5.4.9.4s.8-.3.8-.9c0-.5-.3-.8-.8-.8-.2 0-.4.1-.6.2l-.2-.2.1-1.7h1.8v.4h-1.4l-.1 1.1c.2-.1.3-.1.5-.1.6 0 1.1.4 1.1 1.2 0 .8-.6 1.3-1.2 1.3-.5-.1-.8-.3-1.1-.6zm-11.4 4.2c0-1 .4-1.8 1-2.4l.3.2c-.6.6-.9 1.3-.9 2.2 0 .9.4 1.6.9 2.2l-.3.2c-.6-.6-1-1.4-1-2.4zm4.1-.1l1.7-1.7.1.1-1.7 1.7 1.7 1.7-.1.1-1.7-1.7-1.7 1.7-.1-.1 1.7-1.7-1.7-1.7.1-.1 1.7 1.7zm-1.1.1c0 .2-.2.4-.4.4s-.4-.2-.4-.4.2-.4.4-.4c.2.1.4.2.4.4zm1.1-1c-.2 0-.4-.2-.4-.4s.2-.4.4-.4.4.2.4.4-.2.4-.4.4zm0 2.1c.2 0 .4.2.4.4s-.2.4-.4.4-.4-.2-.4-.4.2-.4.4-.4zm1-1.1c0-.2.2-.4.4-.4s.4.2.4.4-.2.4-.4.4-.4-.2-.4-.4zm1.8 1.6h.8V100h-.6v-.3c.3-.1.6-.1.8-.3h.4v3.3h.7v.4h-2v-.4zm3.9-1.6c0 1-.4 1.8-1 2.4l-.3-.2c.6-.6.9-1.3.9-2.2 0-.9-.4-1.6-.9-2.2l.3-.2c.6.7 1 1.5 1 2.4zM46.6 199l1.7-1.7.1.1-1.7 1.7 1.7 1.7-.1.1-1.7-1.7L45 201l-.1-.1 1.7-1.7-1.7-1.7.1-.1 1.6 1.6zm-1 .2c0 .2-.2.4-.4.4s-.4-.2-.4-.4.2-.4.4-.4.4.2.4.4zm1-1.1c-.2 0-.4-.2-.4-.4s.2-.4.4-.4.4.2.4.4-.1.4-.4.4zm0 2.1c.2 0 .4.2.4.4s-.2.4-.4.4-.4-.2-.4-.4c.1-.2.2-.4.4-.4zm1.1-1c0-.2.2-.4.4-.4s.4.2.4.4-.2.4-.4.4-.4-.2-.4-.4zm1.7 1.6h.8v-3h-.6v-.2c.3-.1.5-.1.7-.2h.2v3.4h.8v.3h-1.9v-.3zm4.9-1.7l-.2.2c-.2-.2-.8-.5-1.1-.7l.1-.2c.4.2 1 .5 1.2.7zm.7 1.2c.8-.5 1.5-1.1 1.9-1.8l.2.3c-.4.7-1.1 1.3-1.9 1.8-.5.3-1.2.5-1.6.6l-.1-.3c.4-.1 1-.3 1.5-.6zm.1-2.3l-.2.2c-.2-.2-.8-.6-1-.7l.1-.2c.3.2.9.6 1.1.7zm3.5-.6v2.3h-.3v-2.3h.3zm2.3-.1v1.1c0 1.3-.1 1.6-.5 2.1-.3.4-.8.6-1.2.7l-.2-.2c.4-.1.9-.3 1.2-.7.4-.4.4-.9.4-1.9v-1.1h.3zm5.3.4l-.1.1c-.2.3-.7 1-1.3 1.4l-.2-.2c.5-.3 1-.9 1.2-1.2h-3.5v-.3H66l.2.2zm-2 .7c0 1.4-.2 2.3-1.4 2.9l-.2-.2c.1 0 .3-.1.4-.2.9-.5 1-1.3 1-2.2v-.3h.2zm2.3 2.6c.4-.3.7-.7.9-1.2.1-.5.1-1.5.1-2v-.3h.3v.3c0 .5 0 1.6-.2 2.1s-.5 1-.9 1.3l-.2-.2zm2.3 0v-3.5h.3v3.3c.5-.2 1.2-.7 1.6-1.3l.2.2c-.4.6-1.1 1.1-1.7 1.4-.1 0-.1.1-.1.1l-.3-.2zm3.5-.5c.3.4.8.6 1.4.6h2.2c0 .1-.1.2-.1.2h-2.1c-.7 0-1.2-.2-1.5-.6-.3.2-.6.5-.8.7l-.1-.2c.2-.2.6-.4.8-.6v-1.4h-.8v-.2h1v1.5zm-.1-2.5c-.1-.3-.5-.6-.8-.8l.2-.1c.3.2.7.6.8.8l-.2.1zm1.3-.5c.2.1.5.2.7.3.3-.1.6-.3.9-.5h-2.3v-.2h2.5l.2.1c-.3.3-.7.5-1.1.7.2.1.3.2.5.2h.6v2.3c0 .2 0 .2-.1.3h-.7c0-.1 0-.1-.1-.2h.6c.1 0 .1 0 .1-.1v-.6h-1v.9h-.2v-.9h-1v.9h-.2v-2.6h1.6c-.3-.2-.8-.4-1.1-.5l.1-.1zm-.4.9v.5h1v-.5h-1zm1 1.3v-.6h-1v.6h1zm1.2-1.3h-1v.5h1v-.5zm0 1.3v-.6h-1v.6h1zm2.4-2.7c-.1.4-.3.7-.5 1.1v3.4H77v-3c-.2.3-.4.5-.6.8 0 0-.1-.2-.2-.2.5-.5 1-1.3 1.3-2l.2-.1zm3.1.9v.2h-3.3v-.2h3.3zm-2.8 2h2.5v1.5h-.2v-.2h-2v.3H78v-1.6zm2.4-1.2H78v-.2h2.5v.2zm-2.4.5h2.4v.2H78v-.2zm2.3-1.8H78v-.2h2.3v.2zm-2.1 2.7v.9h2v-.9h-2zm5.2.8c.1 0 .3 0 .4-.1.6-.1 1.3-.6 1.3-1.5 0-.8-.5-1.5-1.5-1.5l-.3 1.5c-.3 1-.7 1.5-1.1 1.5-.4 0-.8-.5-.8-1.3 0-1 .9-2 2.1-2 1.1 0 1.8.8 1.8 1.8s-.7 1.7-1.8 1.8l-.1-.2zm-.1-3.1c-1 .1-1.7 1-1.7 1.7s.3 1 .6 1c.2 0 .6-.3.8-1.3.2-.4.3-.9.3-1.4zm4.6 2.9c-.1-.2-.5-.6-.8-.9-.1.6-.3 1.2-.9 1.6 0-.1-.1-.1-.2-.2.7-.5.9-1.3.9-2.1H86v-.2h1v-.9h-.8v-.2h.8v-.8h.2v.8h.8v.2h-.7v.9h.9v.2h-.9v.4c.2.2.8.8.9 1l-.3.2zm2.4.5c.1 0 .1-.1.2-.7 0 0 .1.1.2.1 0 .7-.1.8-.4.8h-.5c-.3 0-.4-.1-.4-.4v-1.2H89c-.1.8-.4 1.3-1.2 1.6 0 0-.1-.1-.1-.2.8-.2 1-.7 1.1-1.4h-.5v-2.7h2.1v2.7h-.6v1.2c0 .1 0 .1.1.1h.4zm-1.8-3.2h1.6v-.6h-1.6v.6zm0 .8h1.6v-.6h-1.6v.6zm0 .8h1.6v-.6h-1.6v.6zm4.3-.1c-.1-.1-.3-.5-.5-.7v2.6H92v-2.6c-.2.6-.5 1.3-.8 1.7 0-.1-.1-.2-.1-.2.3-.4.7-1.3.9-2h-.8v-.3h.8v-1.1h.2v1.1h.8v.2h-.7v.3c.1.2.6.7.7.8l-.2.2zm2.5-2c-.2.5-.5.9-.8 1.3.4.3.8.6 1.3.7-.1 0-.1.1-.2.2-.5-.2-1-.5-1.3-.8-.3.3-.6.5-1 .7h2v1.8h-.2v-.2h-1.6v.2h-.2v-1.8c-.2.1-.3.1-.5.2 0-.1-.1-.2-.1-.2.5-.2 1.1-.5 1.5-.9-.3-.3-.5-.6-.6-.8-.2.2-.4.5-.6.6l-.2-.2c.5-.4.9-.9 1.1-1.5l.2.1c-.1.2-.1.3-.2.5h1.2l.2.1zm-1.8 2.4v1.1h1.6v-1.1h-1.6zm.3-2.2s0 .1-.1.1c.1.3.4.6.6.9.3-.3.5-.6.7-1h-1.2zm2.8.2c.3 0 1.3-.1 2.2-.2.6 0 1-.1 1.3-.1v.3c-.3 0-.7 0-1 .1-.8.3-1.2 1.1-1.2 1.7 0 1.1 1 1.4 1.8 1.4l-.1.3c-.8 0-1.9-.5-1.9-1.6 0-.8.5-1.5 1-1.8-.4 0-2 .2-2.5.3v-.3c.2-.1.3-.1.4-.1zm3.2 1.3l-.2.1c-.1-.2-.3-.5-.4-.7l.2-.1c.1.2.3.5.4.7zm.5-.2l-.2.1c-.1-.2-.3-.5-.4-.7l.2-.1c.1.2.3.5.4.7zm5-1.6v.2H101v-.2h2v-.5h.2v.5h2.1zm-.2 3.7c0 .2 0 .2-.2.3h-.9c0-.1 0-.2-.1-.2h.8c.1 0 .1 0 .1-.1v-1.6h-3.4v1.9h-.2v-2.1h3.9v1.8zm-.7-3.1v1h-2.7v-1h2.7zm-.2.2H102v.6h2.2v-.6zm-1.8 2.8v.3h-.2V200h1.9v1h-1.7zm0-.9v.6h1.5v-.6h-1.5zm4.4.4c.3.4.7.6 1.4.6h2.2c0 .1-.1.2-.1.2h-2.1c-.7 0-1.1-.2-1.5-.6-.3.2-.5.5-.8.7l-.1-.2c.2-.2.5-.4.8-.6v-1.4h-.8v-.2h1v1.5zm0-2.5c-.2-.2-.6-.6-.9-.8l.2-.1c.3.2.7.5.9.8l-.2.1zm1.8 1.5c-.3.5-.8 1-1.3 1.2 0-.1-.1-.1-.2-.2.5-.2 1-.7 1.3-1.1h-1v-1.2h1.2v-.5h-1.4v-.2h1.4v-.6h.2v.6h1.5v.2h-1.5v.5h1.2v1.2h-1c.3.5.9.9 1.3 1.1-.1 0-.1.1-.2.2-.4-.2-1-.7-1.3-1.2v1.4h-.2v-1.4zm-1-.3h.9v-.8h-.9v.8zm1.2-.8v.8h1v-.8h-1zm3.1 2.9c-.3-.4-.8-.8-1.1-1.1l.2-.2c.4.3.8.7 1.1 1.1l-.2.2zm5.4-1.5c-.4.3-.8.5-1.2.7.4.4.9.6 1.6.7 0 .1-.1.1-.1.2-1.2-.3-2-.9-2.4-1.9h-.8v1.5l1.5-.3v.2c-.8.2-1.7.3-2.3.4l-.1-.2c.2 0 .4-.1.7-.1v-1.5h-.9v-.2h.9v-2.2h3.1v.2h-2.8v.5h2.7v.2h-2.7v.5h2.7v.2h-2.7v.5h3.3v.2h-2.2c.1.3.3.6.6.8.4-.2.9-.5 1.2-.7l-.1.3zm2.1.9c.3-.1.6-.1.9-.2v.2c-.7.2-1.5.4-2 .5l-.1-.2c.1 0 .2 0 .3-.1v-1.7h.2v1.7c.1 0 .3-.1.5-.1v-2.1h-.7v-1.5h1.6v1.5h-.7v.8h.8v.2h-.8v1zm-.7-2.3h1.2v-1h-1.2v1zm4 2.8h-2v.2h-.2v-4.3h2.2v.2h-2v1h1.8v1.7h-1.8v1h2v.2zm-2-2.7v1.2h1.5v-1.2h-1.5zm5-.9h-2.4v-.2h1.1v-.4h.2v.4h1.1v.2zm-.2 3.6c0 .1 0 .2-.1.2h-.6c0-.1 0-.1-.1-.2h.5c.1 0 .1 0 .1-.1v-1.4h-.9c-.1.3-.1.5-.2.8h.6c-.1-.1-.1-.3-.2-.4l.2-.1c.2.3.3.6.4.9l-.2.1c0-.1 0-.2-.1-.3-.4 0-.8.1-1.2.1v-.2h.3c.1-.2.1-.5.2-.8h-.6v1.7h-.2v-1.9h.9c0-.1 0-.3.1-.4h-.8v-1.4h.2v1.2h1.5v-1.2h.2v1.4h-.8c0 .1 0 .2-.1.4h1.1v1.6zm-.6-2.4c-.1-.1-.3-.2-.4-.4-.2.2-.3.4-.5.5 0 0-.1-.1-.2-.1.2-.1.4-.3.5-.5-.2-.1-.3-.2-.5-.3l.1-.1c.1.1.3.2.5.3.1-.1.2-.3.3-.5l.2.1c-.1.2-.2.3-.3.5.2.1.3.3.4.4l-.1.1zm2.9 2.4h-1.7v.3h-.2v-3c-.1.2-.2.3-.3.5 0 0-.1-.1-.2-.1.4-.5.6-1.2.8-1.9h.2l-.3.9h.6c.1-.3.2-.7.3-.9l.2.1-.3.9h.7v.2h-.6v.8h.7v.2h-.7v.8h.7v.2h-.7v.8h.8v.2zm-1-3.1h-.7v.8h.7v-.8zm0 1h-.7v.8h.7v-.8zm-.7 1.9h.7v-.8h-.7v.8zm4.3-.1c.1 0 .3 0 .4-.1.6-.1 1.3-.6 1.3-1.5 0-.8-.5-1.5-1.5-1.5l-.3 1.5c-.3 1-.7 1.5-1.1 1.5-.4 0-.8-.5-.8-1.3 0-1 .9-2 2.1-2 1.1 0 1.8.8 1.8 1.8s-.7 1.7-1.8 1.8l-.1-.2zm0-3.1c-1 .1-1.7 1-1.7 1.7s.3 1 .6 1c.2 0 .6-.3.8-1.3.2-.4.3-.9.3-1.4zm6.6 1h.4v.3h-1.8c0 .6-.1 1-.3 1.4-.2.3-.6.7-1 .9l-.2-.2c.4-.2.8-.5 1-.8.2-.4.3-.8.3-1.3h-2v-.3h3.6zm-2.7-1h-.4v-.3h2.6v.3h-2.2zm2.7 0c-.1-.2-.3-.5-.4-.7l.2-.1c.1.2.3.5.4.7l-.2.1zm.3-.9c.1.2.3.5.4.7l-.2.1c-.1-.2-.3-.5-.4-.7l.2-.1zm.9 2.1h3.9v.3h-3.9v-.3zm8.6-1.1c0 .1-.1.2-.1.2-.1.5-.4 1.1-.8 1.6.2.1.4.2.5.3l-.2.2c-.1-.1-.3-.2-.5-.3-.4.5-1.1 1-2 1.4l-.2-.2c.9-.2 1.6-.8 2-1.3-.4-.3-.9-.6-1.2-.7l.2-.2c.3.2.8.4 1.2.7.3-.5.6-1 .7-1.5h-1.9c-.3.4-.7.9-1.3 1.3l-.2-.2c.9-.5 1.4-1.3 1.6-1.8 0-.1.1-.2.1-.3l.3.1c-.1.1-.1.2-.2.3 0 .1-.1.2-.2.3h1.9l.3.1zm2.2-.9c-.1.4-.3.7-.5 1.1v3.4h-.2v-3c-.2.3-.4.5-.6.8l-.1-.2c.5-.5 1-1.3 1.3-2l.1-.1zm2.9 4.5c0-.1-.1-.3-.2-.5-1.1.1-2.2.2-2.9.2v-.2h.6c.2-.5.5-1.3.6-1.9h-1.1v-.2h3.3v.2h-1.9c-.2.6-.4 1.3-.6 1.9.6 0 1.3-.1 2-.1l-.6-.9.2-.1c.4.5.8 1.1 1 1.6h-.4zm-.1-3.9h-2.6v-.2h2.6v.2zm1.9 2.9c.3.4.7.6 1.4.6h2.2c0 .1-.1.2-.1.2h-2.1c-.7 0-1.1-.2-1.5-.6-.3.2-.5.5-.8.7l-.1-.2c.2-.2.5-.4.8-.6v-1.4h-.8v-.2h1v1.5zm0-2.5c-.2-.2-.6-.6-.9-.8l.2-.1c.4.2.7.5.9.8l-.2.1zm2.1 1.2c.2.7.6 1.2 1.4 1.4-.1 0-.1.1-.2.2-.7-.3-1.2-.8-1.4-1.5-.1.5-.4 1.1-1.4 1.5l-.2-.2c.9-.4 1.2-.9 1.3-1.4H154v-.2h1.4v-.8h-1.2v-.2h2.8v.2h-1.3v.8h1.5v.2h-1.4zm-.9-1.3c-.1-.2-.3-.6-.5-.8l.2-.1c.2.3.4.6.5.8l-.2.1zm1.8-.9c-.2.3-.4.6-.5.9l-.2-.1c.2-.2.4-.6.5-.9l.2.1zm2.8.2v.2c0 .1-.1.5-.1.8h.6c.4 0 .8.1.8.8 0 .6-.1 1.4-.3 1.8-.2.3-.4.4-.7.4-.2 0-.4 0-.6-.1v-.3c.2.1.5.1.6.1.2 0 .4 0 .5-.3.2-.4.2-1 .2-1.6 0-.5-.2-.6-.5-.6h-.6c-.2.7-.5 1.8-1.1 2.7l-.3-.1c.5-.7.9-1.9 1.1-2.5-.3 0-.6.1-.7.1h-.4v-.3h.4c.2 0 .5 0 .8-.1.1-.3.1-.7.1-1.1l.2.1zm1.7.6c.3.4.8 1.3.9 1.7l-.2.1c-.2-.5-.6-1.3-.9-1.7l.2-.1zm.4.1c-.1-.2-.3-.5-.4-.7l.2-.1c.1.2.3.5.4.7l-.2.1zm.5-.2c-.1-.2-.3-.5-.4-.7l.2-.1c.1.2.3.5.4.7l-.2.1zm1.2.2c.3 0 1.3-.1 2.2-.2.6 0 1-.1 1.3-.1v.3c-.3 0-.7 0-1 .1-.8.3-1.2 1.1-1.2 1.7 0 1.1 1 1.4 1.8 1.4l-.1.3c-.8 0-1.9-.5-1.9-1.6 0-.8.5-1.5 1-1.8-.4 0-2 .2-2.5.3v-.3c.1-.1.3-.1.4-.1zm3.2 1.3l-.2.1c-.1-.2-.3-.5-.4-.7l.2-.1c.1.2.3.5.4.7zm.5-.2l-.2.1c-.1-.2-.3-.5-.4-.7l.2-.1c.1.2.3.5.4.7zm4.4-.3c-.2.1-.5.2-.9.2.2.3.3.7.5 1l-.1.2c-.2 0-.6-.1-.9-.1v-.2c.3 0 .5.1.7.1-.1-.2-.2-.5-.4-.8-.7.1-1.5.1-2.2.1v-.2c.8.1 1.5.1 2.1 0-.1-.2-.2-.4-.2-.5 0-.1-.1-.2-.1-.2-.5 0-1.1.1-1.8 0v-.2c.6.1 1.2.1 1.7 0 0-.1-.1-.2-.1-.2-.1-.1-.1-.2-.2-.3l.3-.1c.1.2.1.4.2.6.4 0 .7-.1 1-.2v.2c-.3.1-.6.2-1 .2l.1.2c.1.1.1.3.3.6.4-.1.7-.2.9-.2l.1-.2zm-2.9 1.1c-.1.2-.1.4-.1.5 0 .4.3.7 1.1.7.4 0 .8 0 1.2-.1v.3c-.3.1-.8.1-1.1.1-.9 0-1.4-.3-1.4-.9 0-.2.1-.4.1-.6h.2zm6.9-2.2c-.1.1-.2.1-.2.2-.2.2-1 .9-1.4 1.2.3-.1.5-.1.8-.1.8 0 1.4.5 1.4 1.1 0 .8-.7 1.3-1.7 1.3-.7 0-1-.3-1-.7 0-.3.3-.6.7-.6.6 0 .9.4 1 .9.5-.2.7-.5.7-.9 0-.5-.5-.9-1.2-.9-.9 0-1.3.3-2 1l-.2-.2c.4-.4 1.1-.9 1.4-1.2.3-.2 1-.8 1.2-1-.3 0-1.4.1-1.7.1h-.3v-.3h.3c.2 0 1.5 0 1.7-.1h.2l.3.2zm-.7 3.4c-.1-.4-.3-.7-.8-.7-.3 0-.4.1-.4.3 0 .3.3.4.7.4h.5zm-128.1 5l1.7-1.7.1.1-1.7 1.7 1.7 1.7-.1.1-1.7-1.7L45 208l-.1-.1 1.7-1.7-1.7-1.7.1-.1 1.6 1.6zm-1 .2c0 .2-.2.4-.4.4s-.4-.2-.4-.4.2-.4.4-.4.4.2.4.4zm1-1.1c-.2 0-.4-.2-.4-.4s.2-.4.4-.4.4.2.4.4-.1.4-.4.4zm0 2.1c.2 0 .4.2.4.4s-.2.4-.4.4-.4-.2-.4-.4c.1-.2.2-.4.4-.4zm1.1-1c0-.2.2-.4.4-.4s.4.2.4.4-.2.4-.4.4-.4-.2-.4-.4zm1.6 1.7c1.2-1.1 1.7-1.8 1.7-2.5 0-.5-.2-.8-.7-.8-.3 0-.6.2-.8.5l-.2-.2c.3-.3.6-.5 1-.5.6 0 1 .4 1 1 0 .8-.6 1.5-1.6 2.4h1.7v.3h-2.2v-.2zm4.9-1.7c-.2.4-.7 1.1-1 1.4l-.2-.2c.3-.3.8-.9 1-1.3l.2.1zm1-.8v2.5c0 .2-.1.4-.4.4h-.7v-.3c.2 0 .5.1.6.1.1 0 .2-.1.2-.2v-2.4H53v-.3h2v-.9h.3v.9h1.8v.3h-1.9zm1 .7c.3.3.7.9.9 1.3l-.2.1c-.2-.4-.6-1-.9-1.3l.2-.1zm0-1.7c0-.3.2-.5.5-.5s.5.2.5.5-.2.5-.5.5c-.3.1-.5-.2-.5-.5zm.1 0c0 .2.2.3.4.3s.4-.2.4-.3c0-.2-.2-.3-.4-.3s-.4.1-.4.3zm3.9 2.7c.7-.5 1.3-1.2 1.6-1.8l.2.3c-.3.6-.9 1.3-1.6 1.7-.5.3-1.1.6-2 .8l-.2-.3c.9-.1 1.5-.4 2-.7zm-.5-1.6l-.2.2c-.2-.2-.9-.8-1.2-1l.2-.2c.3.2.9.8 1.2 1zm6.1-.8c.1-.1.1-.1.1-.2 0-.3.2-.5.5-.5s.5.2.5.5-.2.5-.5.5c-.1 0-.2 0-.3-.1-.1.5-.4 1.4-.7 1.9-.5.6-1 1-1.9 1.3l-.2-.2c1-.2 1.5-.7 1.9-1.2.4-.5.6-1.2.7-1.8h-3.1v-.3h3zm.9-.2c0-.2-.2-.4-.4-.4s-.4.2-.4.4.2.4.4.4c.3 0 .4-.2.4-.4zm4 .2c.1 0 .1 0 0 0 .1-.1.1-.1.1-.2 0-.3.2-.5.5-.5s.5.2.5.5-.2.5-.5.5c-.1 0-.2 0-.3-.1-.1.5-.4 1.4-.7 1.9-.5.6-1 1-1.9 1.3l-.2-.2c1-.2 1.5-.7 1.9-1.2.4-.5.6-1.2.7-1.8h-3.1v-.3h3zm1-.2c0-.2-.2-.4-.4-.4s-.4.2-.4.4.2.4.4.4.4-.2.4-.4zm4.4 3v.6h-.3v-.3h-2.9v.3h-.3v-3.3H76v2.7zm-3.2-2.5v2.6h2.9V205h-2.9zm7.9.7h.4v.3h-1.8c0 .6-.1 1-.3 1.4-.2.3-.6.7-1 .9l-.2-.2c.4-.2.8-.5 1-.8.2-.4.3-.8.3-1.3h-2v-.3h3.6zm-2.7-1h-.4v-.3h2.8v.3h-2.4zm7.6.2c0 .1-.1.2-.1.2-.1.5-.5 1.2-.9 1.8-.4.5-1 1-2 1.3l-.2-.2c.9-.2 1.5-.7 2-1.3.4-.5.7-1.2.9-1.7h-1.9c-.3.4-.7.9-1.3 1.2l-.2-.2c.9-.5 1.4-1.3 1.6-1.7 0-.1.1-.2.1-.3l.3.1c-.1.1-.1.2-.2.3 0 .1-.1.2-.2.3h1.9l.2.2zm4.5 0c0 .1-.1.2-.1.2-.1.5-.4 1.1-.8 1.6.2.1.4.2.5.3l-.2.2c-.1-.1-.3-.2-.5-.3-.4.5-1.1 1-2 1.4l-.1-.3c.9-.2 1.6-.8 2-1.3-.4-.3-.9-.6-1.2-.7l.2-.2c.3.2.8.4 1.2.7.3-.5.6-1 .7-1.5H88c-.3.4-.7.9-1.3 1.3l-.2-.2c.9-.5 1.4-1.3 1.6-1.8 0-.1.1-.2.1-.3l.3.1c-.1.1-.1.2-.2.3 0 .1-.1.2-.2.3H90l.2.2zm1-.5h.9c1.1 0 1.7.7 1.7 1.8s-.6 1.8-1.7 1.8h-.9v-3.6zm.9 3.4c1 0 1.4-.6 1.4-1.6 0-.9-.4-1.6-1.4-1.6h-.5v3.1h.5zm4.5.3l-1-1.6h-.7v1.6h-.3v-3.6h1.1c.7 0 1.2.3 1.2 1 0 .6-.4.9-.9 1l1 1.7h-.4zm-1.7-1.9h.7c.6 0 1-.3 1-.8s-.4-.7-1-.7h-.7v1.5zm2.8-1.8h.3l1.5 2.5.4.7v-3.3h.3v3.6h-.3l-1.5-2.5-.4-.7v3.3h-.3v-3.6zm4.1-.1c0 .1 0 .2-.1.3-.1.5-.3 1.5-.3 2 0 .3 0 .6.1.9.1-.3.2-.6.3-.8l.2.1c-.1.3-.3.8-.4 1v.3h-.2c-.1-.4-.2-.9-.2-1.6 0-.7.2-1.7.2-2.1v-.3l.4.2zm3.3 3.5c-.3-.2-.5-.5-.8-.6v.2c0 .3-.1.8-.8.8-.7 0-1-.3-1-.7 0-.4.3-.7 1-.7.2 0 .4 0 .5.1 0-.4-.1-1-.1-1.4h-1.3v-.2h1.3v-1h.3v.9c.3 0 .6-.1.9-.1v.3c-.3 0-.6.1-.9.1 0 .5 0 1.1.1 1.5.4.2.7.4 1 .7l-.2.1zm-1.1-.7c-.2-.1-.4-.1-.6-.1-.4 0-.7.2-.7.5s.3.4.7.4c.5 0 .6-.2.6-.6v-.2zm3.4-.6c-.1-.2-.3-.6-.5-.9v2.8h-.2v-2.7c-.2.6-.5 1.3-.7 1.7 0-.1-.1-.2-.2-.2.3-.4.7-1.3.8-2h-.7v-.2h.8v-1h.2v1h.7v.2h-.7v.2c.1.2.5.8.6 1l-.1.1zm1.9-.1c.3.6.7 1.3 1.2 1.6-.1 0-.1.1-.2.2-.4-.4-.9-1.1-1.2-1.7v2h-.2v-2c-.3.7-.8 1.4-1.3 1.7 0-.1-.1-.1-.2-.2.5-.3 1-1 1.3-1.7h-1.1v-.2h1.3v-1h-.7c-.1.3-.2.6-.4.8 0 0-.1-.1-.2-.1.3-.4.4-1 .5-1.7h.2c0 .2-.1.5-.1.7h.7v-1h.2v1h1v.2h-1v1h1.2v.2h-1zm4.5-1.3c.1 1.8.6 3.1 1.2 3.1.2 0 .2-.3.2-1 .1 0 .1.1.2.1-.1.8-.1 1.1-.5 1.1-.8 0-1.2-1.4-1.4-3.3H111v-.2h2.6v-1h.2v1h1.5v.2h-1.5zm-1.5 2.7l1.2-.3v.2c-.9.2-1.8.4-2.4.6l-.1-.2c.3-.1.7-.2 1.1-.2v-1.6h-1v-.3h2.2v.2h-1v1.6zm2.7-3c-.2-.2-.5-.5-.8-.7l.2-.1c.3.2.6.5.8.6l-.2.2zm3.2-.9c.5.7 1.4 1.4 2.2 1.8-.1 0-.1.1-.2.2-.8-.4-1.7-1.1-2.2-1.8-.4.6-1.2 1.3-2.1 1.8 0-.1-.1-.1-.1-.2.9-.4 1.7-1.2 2.1-1.8h.3zm-2.1 2.6h4.1v.2h-2.4c-.2.4-.4.9-.7 1.3.7 0 1.5-.1 2.3-.1-.2-.3-.5-.6-.8-.8l.2-.1c.5.4 1 1 1.2 1.3l-.2.1c-.1-.1-.2-.2-.3-.4-1.3 0-2.6.1-3.5.1v-.2h.7c.2-.4.5-.9.7-1.3H116v-.1zm3.2-1v.2h-2.4v-.2h2.4zm3.5 1.5l-.7-.7v2.2h-.2v-2.1c-.3.3-.6.5-.9.7 0-.1-.1-.2-.1-.2.6-.4 1.3-1.1 1.7-1.8H121v-.2h.8v-.9h.2v.9h.6l.1.1c-.2.4-.4.8-.7 1.1.2.2.7.6.8.7v.2zm2.7 1.1v.2h-2.8v-.2h1.3v-2.2h-1.1v-.2h1.1V204h.2v1.7h1.1v.2h-1.1v2.2h1.3zm4.2-3.6c-.3.3-.8.8-1.4 1.1v2.7h-.3v-2.5c-.5.3-1.3.6-2 .8l-.1-.3c.8-.2 1.7-.6 2.2-.9.5-.3 1-.8 1.3-1.1l.3.2zm4.7.3v.2c-.1.6-.2 1.3-.5 1.9-.4.6-1.1 1.1-1.9 1.4l-.2-.2c.8-.2 1.5-.7 1.9-1.3.3-.5.4-1.2.5-1.8h-3v1.4h-.3v-1.7h3.4l.1.1zm4.8 1.6c-.1 0-.2 0-.4.1-.3 0-.8.1-1.3.2.1.5.2 1 .2 1.1 0 .1.1.3.1.4l-.3.1c0-.2 0-.3-.1-.5 0-.1-.1-.5-.2-1.1-.6.1-1.2.2-1.4.2-.2 0-.3.1-.4.1l-.1-.3h.4c.3 0 .9-.1 1.5-.2l-.2-1.1c-.5.1-1 .2-1.2.2-.2 0-.3.1-.4.1l-.1-.3h.4c.2 0 .7-.1 1.2-.2-.1-.3-.1-.5-.1-.6 0-.1-.1-.2-.1-.3l.3-.1c0 .1 0 .2.1.3 0 0 0 .3.1.6.5-.1 1-.2 1.3-.2.1 0 .2-.1.3-.1l.1.3h-.3l-1.3.2c.1.3.1.7.2 1.1.5-.1 1.1-.2 1.3-.2.2 0 .3-.1.4-.1v.3zm2.9 1.5c.1 0 .3 0 .4-.1.6-.1 1.3-.6 1.3-1.5 0-.8-.5-1.5-1.5-1.5l-.3 1.5c-.3 1-.7 1.5-1.1 1.5-.4 0-.8-.5-.8-1.3 0-1 .9-2 2.1-2 1.1 0 1.8.8 1.8 1.8s-.7 1.7-1.8 1.8l-.1-.2zm0-3.1c-1 .1-1.7 1-1.7 1.7s.3 1 .6 1c.2 0 .6-.3.8-1.3.1-.4.2-.9.3-1.4zm6.9 2.3c-.3.2-.7.4-1 .6.4.3.8.5 1.4.6l-.2.2c-1-.2-1.8-.7-2.1-1.6-.2.2-.5.3-.8.5v.7c.4-.1.8-.1 1.2-.2v.2c-.7.1-1.4.2-2 .3l-.1-.2c.2 0 .3 0 .5-.1v-.6c-.4.2-.7.3-1.1.4 0-.1-.1-.1-.1-.2.7-.1 1.5-.4 2-.8h-1.9v-.2h2.1v-.3h.2v.3h2.1v.2h-2c.1.3.3.5.5.7.3-.2.8-.4 1-.6l.3.1zm-3-2h-1.2v-.2h1.2v-.4h-.7c-.1.1-.1.2-.2.3 0 0-.1-.1-.2-.1.2-.2.3-.5.4-.8l.2.1c0 .1-.1.2-.1.3h.6v-.4h.2v.4h.9v.2h-.9v.4h1.1v.2h-1.1v.3h1v.6c0 .1 0 .2-.1.2h-.5c0-.1 0-.1-.1-.2h.4s.1 0 .1-.1v-.4h-.7v.9h-.3v-.9h-.7v.7h-.2v-.9h.9v-.2zm1.9.7h-.2v-1.7h.2v1.7zm1.1.3c0 .2 0 .2-.2.3h-.7c0-.1 0-.2-.1-.2h.6c.1 0 .1 0 .1-.1V204h.2v2.1zm1 .2h1.7v2.1h-.2v-.2h-1.2v.3h-.3v-2.2zm.2.2v1.4h1.2v-1.4h-1.2zm3.2-.8h-2.6v-1.6h2.6v1.6zm-.3-1.3H151v1.1h2.1v-1.1zm1 1.9v2.1h-.2v-.2h-1.3v.3h-.2v-2.1h1.7zm-.2 1.6v-1.4h-1.3v1.4h1.3zm-98.4 4.7c-.6 0-1.1.2-1.4.3-.2 0-.3.1-.4.1l-.1-.3c.1 0 .3 0 .4-.1.3-.1.9-.2 1.5-.2.7 0 1.2.4 1.2 1 0 1.1-.9 1.7-2.2 1.9l-.2-.2c1.2-.2 2.1-.7 2.1-1.6 0-.6-.3-.9-.9-.9zm.8-1.1v.3c-.5 0-1.5-.1-2-.2v-.3c.5.1 1.6.2 2 .2zm3.9.4h1.4v.2H60v.9c.1.2.2.4.2.6 0 .7-.3 1.4-1.4 1.7l-.2-.2c.8-.2 1.2-.5 1.3-1.1-.1.2-.3.2-.5.2-.4 0-.8-.3-.8-.8s.4-.8.8-.8c.2 0 .3 0 .4.1v-.6c-.8 0-1.6 0-2.3.1v-.3c.5 0 1.5-.1 2.3-.1v-.6h.3v.6h.1zm-.2 1.4c-.1-.3-.3-.5-.5-.5-.3 0-.6.2-.6.6 0 .4.3.6.6.6s.5-.2.5-.7zm1-1.4c-.1-.2-.3-.5-.4-.6l.2-.1c.1.2.3.4.4.6l-.2.1zm.6-.2c-.1-.2-.3-.5-.4-.6l.2-.1c.1.2.3.4.4.6l-.2.1zM66 215c-.3-.3-.8-.6-1.3-.8v.4c0 .3-.2.7-.8.7-.7 0-1-.2-1-.7 0-.4.4-.7 1.1-.7h.5v-.8h-.3c-.4 0-.9 0-1.3-.1v-.3c.4.1.9.1 1.3.1h.3v-.9h-.3c-.4 0-.9 0-1.2-.1v-.3c.3.1.9.1 1.2.1h.3v-.7h.3v.6c.4 0 .9-.1 1.3-.1v.2c-.4 0-.9.1-1.3.1v.9c.5 0 .9-.1 1.4-.1v.3c-.5.1-.9.1-1.4.1v.9c.7.2 1.2.6 1.5.8l-.3.4zm-1.6-.9c-.2 0-.3-.1-.5-.1-.6 0-.8.2-.8.5s.2.5.8.5c.3 0 .6-.1.6-.5-.1-.1-.1-.2-.1-.4zm6.2-1.4c-.2.1-.5.2-.9.2.2.3.3.7.5 1l-.1.2c-.2 0-.6-.1-.9-.1v-.2c.3 0 .5.1.7.1-.1-.2-.2-.5-.4-.8-.7.1-1.5.1-2.2.1v-.2c.8.1 1.5.1 2.1 0-.1-.2-.2-.4-.2-.5 0-.1-.1-.2-.1-.2-.5 0-1.1.1-1.8 0v-.2c.6.1 1.2.1 1.7 0 0-.1-.1-.2-.1-.2-.1-.1-.1-.2-.2-.3l.3-.1c.1.2.1.4.2.6.4 0 .7-.1 1-.2v.2c-.3.1-.6.2-1 .2l.1.2c0 .1.1.3.2.6.4-.1.7-.2.9-.2l.2-.2zm-2.9 1.1c-.1.2-.1.4-.1.5 0 .4.3.7 1.1.7.4 0 .8 0 1.2-.1v.3c-.3.1-.8.1-1.1.1-.9 0-1.4-.3-1.4-.9 0-.2.1-.4.1-.6h.2zm5-.6c-.2.4-.7 1.1-1 1.4l-.2-.2c.3-.3.8-.9 1-1.3l.2.1zm1-.8v2.5c0 .2-.1.4-.4.4h-.7v-.3c.2 0 .5.1.6.1.1 0 .2-.1.2-.2v-2.4h-1.8v-.3h1.9v-.9h.3v.9h1.8v.3h-1.9zm1 .7c.3.3.7.9.9 1.3l-.2.1c-.2-.4-.6-1-.9-1.3l.2-.1zm0-1.7c0-.3.2-.5.5-.5s.5.2.5.5-.2.5-.5.5c-.3.1-.5-.2-.5-.5zm.1 0c0 .2.2.3.4.3s.4-.2.4-.3c0-.2-.2-.3-.4-.3s-.4.1-.4.3zm3.9 2.7c.7-.5 1.3-1.2 1.6-1.8l.2.3c-.3.6-.9 1.3-1.6 1.7-.5.3-1.1.6-2 .8l-.2-.3c.8-.1 1.5-.4 2-.7zm-.5-1.6l-.2.2c-.3-.2-.9-.8-1.2-1l.2-.2c.3.2.9.8 1.2 1zm6.1-.8c.1-.1.1-.1.1-.2 0-.3.2-.5.5-.5s.5.2.5.5-.2.5-.5.5c-.1 0-.2 0-.3-.1-.1.5-.4 1.4-.7 1.9-.5.6-1 1-1.9 1.3l-.2-.2c1-.2 1.5-.7 1.9-1.2.4-.5.6-1.2.7-1.8h-3.1v-.3h3zm.9-.2c0-.2-.2-.4-.4-.4s-.4.2-.4.4.2.4.4.4.4-.2.4-.4zm1.4-.2c0 .1 0 .2-.1.3-.1.5-.3 1.5-.3 2 0 .3 0 .6.1.9.1-.3.2-.6.3-.8l.2.1c-.1.3-.3.8-.4 1v.3h-.2c-.1-.4-.2-.9-.2-1.6 0-.7.2-1.7.2-2.1v-.3l.4.2zm3.3 3.5c-.3-.2-.5-.5-.8-.6v.2c0 .3-.1.8-.8.8-.7 0-1-.3-1-.7 0-.4.3-.7 1-.7.2 0 .4 0 .5.1 0-.4-.1-1-.1-1.4h-1.3v-.2h1.3v-1h.3v.9c.3 0 .6-.1.9-.1v.3c-.3 0-.6.1-.9.1 0 .5 0 1.1.1 1.5.4.2.7.4 1 .7l-.2.1zm-1.1-.7c-.2-.1-.4-.1-.6-.1-.4 0-.7.2-.7.5s.3.4.7.4c.5 0 .6-.2.6-.6v-.2zm3.3-.6c-.1-.2-.3-.6-.5-.9v2.8h-.2v-2.7c-.2.6-.5 1.3-.7 1.7 0-.1-.1-.2-.2-.2.3-.4.7-1.3.8-2h-.7v-.2h.8v-1h.2v1h.7v.2h-.7v.2c.1.2.5.8.6 1l-.1.1zm1.9-.1c.3.6.7 1.3 1.2 1.6-.1 0-.1.1-.2.2-.4-.4-.9-1.1-1.2-1.7v2h-.2v-2c-.3.7-.8 1.4-1.3 1.7 0-.1-.1-.1-.2-.2.5-.3 1-1 1.3-1.7h-1.1v-.2h1.3v-1h-.7c-.1.3-.2.6-.4.8 0 0-.1-.1-.2-.1.3-.4.4-1 .5-1.7h.2c0 .2-.1.5-.1.7h.7v-1h.2v1h1v.2h-1v1H95v.2h-1zm4.6-1.3c.1 1.8.6 3.1 1.2 3.1.2 0 .2-.3.2-1 .1 0 .1.1.2.1 0 .8-.2 1.1-.5 1.1-.8 0-1.2-1.4-1.4-3.3h-2.6v-.2h2.6v-1h.3v1h1.5v.2h-1.5zm-1.5 2.7l1.2-.3v.2c-.9.2-1.8.4-2.4.6l-.1-.2c.3-.1.7-.2 1.1-.2v-1.6h-1v-.3h2.2v.2h-1v1.6zm2.6-3c-.2-.2-.5-.5-.8-.7l.2-.1c.3.2.6.5.8.6l-.2.2zm3.3-.9c.5.7 1.4 1.4 2.2 1.8-.1 0-.1.1-.2.2-.8-.4-1.7-1.1-2.2-1.8-.4.6-1.2 1.3-2.1 1.8 0-.1-.1-.1-.1-.2.9-.4 1.7-1.2 2.1-1.8h.3zm-2.1 2.6h4.1v.2h-2.4c-.2.4-.4.9-.7 1.3.7 0 1.5-.1 2.3-.1-.2-.3-.5-.6-.8-.8l.2-.1c.5.4 1 1 1.2 1.3l-.2.1c-.1-.1-.2-.2-.3-.4-1.3 0-2.6.1-3.5.1v-.2h.7c.2-.4.5-.9.7-1.3h-1.4v-.1zm3.2-1v.2h-2.4v-.2h2.4zm3.4 1.5l-.7-.7v2.2h-.2v-2.1c-.3.3-.6.5-.9.7 0-.1-.1-.2-.1-.2.6-.4 1.3-1.1 1.7-1.8h-1.5v-.2h.8v-.9h.2v.9h.6l.1.1c-.2.4-.4.8-.7 1.1.2.2.7.6.8.7l-.1.2zm2.8 1.1v.2h-2.8v-.2h1.3v-2.2h-1.1v-.2h1.1V211h.2v1.7h1.1v.2H109v2.2h1.3zm4.2-3.6c-.3.3-.8.8-1.4 1.1v2.7h-.3v-2.5c-.5.3-1.3.6-2 .8l-.1-.3c.8-.2 1.7-.6 2.2-.9.5-.3 1-.8 1.3-1.1l.3.2zm4.6.3v.2c-.1.6-.2 1.3-.5 1.9-.4.6-1.1 1.1-1.9 1.4l-.2-.2c.8-.2 1.5-.7 1.9-1.3.3-.5.4-1.2.5-1.8h-3v1.4h-.3v-1.7h3.4l.1.1zm4.9 1.6c-.1 0-.2 0-.4.1-.3 0-.8.1-1.3.2.1.5.2 1 .2 1.1 0 .1.1.3.1.4l-.3.1c0-.2 0-.3-.1-.5 0-.1-.1-.5-.2-1.1-.6.1-1.2.2-1.4.2-.2 0-.3.1-.4.1l-.1-.3h.4c.3 0 .9-.1 1.5-.2l-.2-1.1c-.5.1-1 .2-1.2.2-.2 0-.3.1-.4.1l-.1-.3h.4c.2 0 .7-.1 1.2-.2-.1-.3-.1-.5-.1-.6 0-.1-.1-.2-.1-.3l.3-.1c0 .1 0 .2.1.3 0 0 0 .3.1.6.5-.1 1-.2 1.3-.2.1 0 .2-.1.3-.1l.1.3h-.3l-1.3.2c.1.3.1.7.2 1.1.5-.1 1.1-.2 1.3-.2.2 0 .3-.1.4-.1v.3zm4.1-.4c.3.4.5.7.5 1.1 0 .7-.7 1.1-1.6 1.1-.6 0-1.1-.3-1.1-1.1v-.6c-.4 0-.8-.1-1.1-.2v-.3c.3.1.7.2 1.1.2 0-.3.1-.7.1-1-.4 0-.8-.1-1.1-.2v-.2c.3.1.8.2 1.1.2 0-.2 0-.4.1-.6v-.3h.3v.3c0 .2 0 .4-.1.6.4 0 .7 0 1-.1v.2h-1.1c0 .3-.1.7-.1 1h.1c.4 0 .7 0 1.1-.1v.3h-1.2v.6c0 .5.3.9.9.9.8 0 1.3-.3 1.3-.9 0-.3-.2-.7-.6-1l.4.1zm2.3-1.8v.4c0 .6-.1 1.8-.1 2.6 0 .6.4.8.9.8 1 0 1.5-.5 1.8-1l.2.2c-.4.5-1 1.1-2 1.1-.7 0-1.1-.3-1.1-1.1s.1-2 .1-2.6v-.4h.2zm6.1.2c-.1.1-.2.2-.3.2-.4.3-1.1.9-1.5 1.2-.3.3-.3.4 0 .6.5.4 1.4 1.2 1.9 1.6l-.2.2-.3-.3c-.3-.3-1.1-1-1.6-1.4-.5-.4-.4-.6 0-.9.4-.3 1.2-.9 1.5-1.3.1-.1.2-.2.2-.3l.3.4zm2.1-.1c0 .1 0 .2-.1.3-.1.5-.3 1.5-.3 2 0 .3 0 .6.1.9.1-.3.2-.6.3-.8l.2.1c-.1.3-.3.8-.4 1v.3h-.2c-.1-.4-.2-.9-.2-1.6 0-.7.2-1.7.2-2.1v-.3l.4.2zm3.3 3.5c-.3-.2-.5-.5-.8-.6v.2c0 .3-.1.8-.8.8-.7 0-1-.3-1-.7 0-.4.3-.7 1-.7.2 0 .4 0 .5.1 0-.4-.1-1-.1-1.4h-1.3v-.2h1.3v-1h.3v.9c.3 0 .6-.1.9-.1v.3c-.3 0-.6.1-.9.1 0 .5 0 1.1.1 1.5.4.2.7.4 1 .7l-.2.1zm-1.1-.7c-.2-.1-.4-.1-.6-.1-.4 0-.7.2-.7.5s.3.4.7.4c.5 0 .6-.2.6-.6v-.2zm3-3.1c-.2.4-.3.7-.5 1.1v3.4h-.2v-3c-.2.3-.4.5-.6.8l-.1-.2c.5-.5 1-1.3 1.3-2.1h.1zm2.5 4.2c.3 0 .4-.2.4-.8.1 0 .2.1.2.1-.1.7-.1.9-.6.9h-1.4c-.5 0-.7-.1-.7-.6V213l-.6.2-.1-.2.6-.3v-1.4h.2v1.3l.9-.3v-1.4h.2v1.3l.9-.4.2.1v.1c0 .9 0 1.7-.1 1.9 0 .2-.2.3-.3.3h-.5c0-.1 0-.2-.1-.2h.4c.1 0 .2 0 .2-.2s.1-.8.1-1.7l-1 .4v1.9h-.2v-1.8l-.9.3v1.9c0 .3.1.4.4.4h1.8zm3-1.2l-.7-.7v2.2h-.2v-2.1c-.3.3-.6.5-.9.7 0-.1-.1-.2-.1-.2.6-.4 1.3-1.1 1.7-1.8h-1.5v-.2h.8v-.9h.2v.9h.6l.1.1c-.2.4-.4.8-.7 1.1.2.2.7.6.8.7l-.1.2zm2.7 1.1v.2h-2.8v-.2h1.3v-2.2h-1.1v-.2h1.1V211h.2v1.7h1.1v.2h-1.1v2.2h1.3zm2.6-.2c.1 0 .3 0 .4-.1.6-.1 1.3-.6 1.3-1.5 0-.8-.5-1.5-1.5-1.5l-.3 1.5c-.3 1-.7 1.5-1.1 1.5-.4 0-.8-.5-.8-1.3 0-1 .9-2 2.1-2 1.1 0 1.8.8 1.8 1.8s-.7 1.7-1.8 1.8l-.1-.2zm0-3.1c-1 .1-1.7 1-1.7 1.7s.3 1 .6 1c.2 0 .6-.3.8-1.3.2-.4.2-.9.3-1.4zm6.9 2.3c-.3.2-.7.4-1 .6.4.3.8.5 1.4.6l-.2.2c-1-.2-1.8-.7-2.1-1.6-.2.2-.5.3-.8.5v.7c.4-.1.8-.1 1.2-.2v.2c-.7.1-1.4.2-2 .3l-.1-.2c.2 0 .3 0 .5-.1v-.6c-.4.2-.7.3-1.1.4 0-.1-.1-.1-.2-.2.7-.1 1.5-.4 2-.8h-1.9v-.2h2.1v-.3h.2v.3h2.1v.2h-2c.1.3.3.5.5.7.3-.2.8-.4 1-.6l.4.1zm-3-2h-1.2v-.2h1.2v-.4h-.7c-.1.1-.1.2-.2.3 0 0-.1-.1-.2-.1.2-.2.3-.5.4-.8l.2.1c0 .1-.1.2-.1.3h.6v-.4h.2v.4h.9v.2h-.9v.4h1.1v.2h-1.1v.3h1v.6c0 .1 0 .2-.1.2h-.5c0-.1 0-.1-.1-.2h.4s.1 0 .1-.1v-.4h-.7v.9h-.2v-.9h-.7v.7h-.2v-.9h.9v-.2zm1.9.7h-.2v-1.7h.2v1.7zm1.2.3c0 .2 0 .2-.2.3h-.7c0-.1 0-.2-.1-.2h.6c.1 0 .1 0 .1-.1V211h.2v2.1zm1 .2h1.7v2.1h-.3v-.2h-1.2v.3h-.2v-2.2zm.2.2v1.4h1.2v-1.4h-1.2zm3.1-.8h-2.6v-1.6h2.6v1.6zm-.2-1.3h-2.1v1.1h2.1v-1.1zm1 1.9v2.1h-.2v-.2h-1.3v.3h-.2v-2.1h1.7zm-.3 1.6v-1.4h-1.3v1.4h1.3zm-29.9-138h-1.6v.7h-.3v-1h1.9v-.3h-1.6V76h3.6v.3h-1.7v.3h1.9v1h-.3v-.7h-1.6V78h-.4v-1.1zm1.8 3.1c.3 0 .3-.1.3-.6.1.1.2.1.3.1-.1.6-.2.8-.6.8h-1.2c-.6 0-.7-.1-.7-.5v-.2h-1.1v.3h-.3v-1.7h3.4v1.5h-1.6v.2c0 .2.1.2.4.2h1.1zm-3.3-2.4h1.2v.2H135v-.2zm1.2-.2h-1.1v-.2h1.1v.2zm-.9 1.1v.3h1.1v-.3h-1.1zm1.1.9v-.3h-1.1v.3h1.1zm1.6-.9h-1.2v.3h1.2v-.3zm0 .9v-.3h-1.2v.3h1.2zm.2-2.3v.2h-1.1v-.2h1.1zm-1.1.5h1.2v.2h-1.2v-.2zm3.3.4c-.2-.2-.6-.4-.9-.5l.2-.3c.3.1.7.3.9.5l-.2.3zm.4.7c-.2.5-.6 1.2-.9 1.6l-.3-.2c.2-.4.6-1 .9-1.6l.3.2zm-.2-2c-.2-.2-.6-.4-.9-.6l.2-.3c.3.1.7.4.9.5l-.2.4zm.7 1.4h.3v.5c0 .6-.1 1.2-.8 1.7-.1-.1-.2-.2-.3-.2.6-.4.7-1 .7-1.4v-.6zm-.4-.5h.6c.1-.2.3-.5.4-.8h-1v-.3h1.3v-.6h.4v.6h1.5v.3h-1.7c-.1.3-.3.6-.4.8.4 0 .9 0 1.4-.1l-.4-.4.3-.2c.4.3.8.7.9 1l-.3.2c-.1-.1-.1-.2-.2-.3-.9 0-1.9.1-2.5.1l-.3-.3zm1.3.6h.3v2h-.3v-2zm1.5 1.8h.1s0-.1.1-.1v-.5c.1 0 .2.1.3.1 0 .2 0 .5-.1.6 0 .1-.1.2-.1.2s-.1.1-.2.1h-.2c-.1 0-.2 0-.3-.1-.1-.1-.1-.1-.1-.4v-1.6h.3v1.8h.2zm3.7-1.5c.4-.3.7-.9.9-1.2-.1 0-1 .2-1.9.4v1.5c0 .3.1.5.7.5s1.1-.1 1.6-.1v.4c-.4.1-.9.1-1.6.1-.9 0-1.1-.2-1.1-.7v-1.5c-.5.1-1 .2-1.2.2l-.1-.4c.2 0 .7-.1 1.2-.2v-1.4h.5v1.3c.9-.2 1.7-.3 1.9-.4.1 0 .2-.1.3-.1l.3.2s-.1.1-.1.2c-.2.4-.6 1-1 1.5l-.4-.3zm4.5.4c.8-.5 1.4-1.2 1.7-1.8l.2.4c-.3.6-.9 1.3-1.7 1.8-.5.3-1.1.6-2 .8l-.3-.4c1-.2 1.6-.5 2.1-.8zm-.3-1.6l-.3.3c-.3-.3-.9-.8-1.2-1l.3-.3c.3.2.9.8 1.2 1zm6.8-.2h.5v.4h-1.1v.2c0 1.3-.3 2-1.4 2.5l-.3-.3c.9-.4 1.4-.8 1.4-2.2v-.2H156v1.3h-.4v-1.3h-1v-.4h1v-1h.4v1h1.4v-1h.5v1h.5zm-25.2 6.5c0-.8.3-1.4.8-1.9l.2.1c-.5.5-.7 1.1-.7 1.8s.3 1.3.7 1.8l-.2.1c-.5-.5-.8-1.1-.8-1.9zm1.6-1.4h.7c.9 0 1.4.5 1.4 1.5 0 .9-.5 1.5-1.4 1.5h-.8v-3zm.7 2.6c.7 0 1-.4 1-1.2 0-.7-.3-1.2-1-1.2h-.3v2.3h.3zm3.7.3l-.7-1.2h-.5v1.2h-.4v-2.9h.9c.6 0 1 .2 1 .8 0 .5-.3.7-.7.8l.8 1.3h-.4zm-1.2-1.5h.5c.5 0 .7-.2.7-.6 0-.4-.3-.5-.7-.5h-.5v1.1zm2.3-1.4h.4l1.1 1.8.3.6v-2.4h.4v2.9h-.5l-1.1-1.9-.3-.6V85h-.4v-2.8zm3.9 1.9c-.1-.1-.2-.4-.3-.6v1.9h-.3v-1.9c-.1.4-.3.9-.5 1.1 0-.1-.1-.2-.2-.3.2-.3.5-1 .6-1.5h-.5v-.3h.6v-.9h.3v.9h.4v.3h-.4v.3c.1.1.4.6.5.7l-.2.3zm.8.5c-.2.2-.4.5-.7.6 0-.1-.1-.1-.2-.2.2-.2.5-.4.6-.6l.3.2zm.6-.2v.7c0 .1 0 .2-.1.3h-.5c0-.1-.1-.2-.1-.2h.4s.1 0 .1-.1v-.7h-1v-.2h2.3v.2h-1.1zm-.5-2.2h-.7V82h2.3v.2h-.7v.3h.6v1h-2.1v-1h.6v-.3zm-.5 1.7v-.2h1.9v.2h-1.9zm.2-.7h.4v-.5h-.4v.5zm.5-.5v.5h.4v-.5h-.4zm.4-.5h-.4v.3h.4v-.3zm.6.5h-.4v.5h.4v-.5zm-.2 1.8l.6.6-.2.2c-.1-.2-.4-.4-.6-.6l.2-.2zm1.7-1.6c-.1-.1-.4-.2-.6-.3l.1-.2c.2.1.5.2.6.3l-.1.2zm3 1.7h-1.7v.8h-.3v-.8h-1.6v-.3h1.6V84h.3v.3h1.7v.3zm-3.5-.7l.8-.8.2.2c-.2.3-.5.6-.7.8l-.3-.2zm.8-1.6c-.1-.1-.4-.2-.6-.3l.1-.2c.2.1.5.2.6.3l-.1.2zm.4.4l-.3.3c0-.1-.2-.2-.2-.2.3-.2.6-.6.8-1l.3.1c-.1.1-.1.3-.2.4h.6c.1-.1.2-.3.2-.4l.3.1c-.1.1-.2.3-.2.4h.9v.2h-.9v.3h.8v.1h-.8v.3h.8v.2h-.8v.3h1v.2h-2.2v-1.3zm.9-.3h-.6v.3h.6v-.3zm0 .6h-.6v.3h.6V83zm0 .5h-.6v.3h.6v-.3zm3.1-1.6c-.1.3-.3.6-.4.9v2.7h-.3v-2.2c-.1.2-.3.3-.4.5 0-.1-.1-.2-.2-.3.4-.4.8-1 1-1.6h.3zm2.3 1h-.5V85c0 .2-.1.3-.2.4-.2 0-.4.1-.9 0 0-.1-.1-.2-.1-.3h.8c.1 0 .1 0 .1-.1v-2.1h-1.6v-.3h1.6v-.8h.3v.8h.5v.3zm-1.5 1.6c-.1-.2-.4-.7-.6-1l.3-.1c.2.3.5.7.6 1l-.3.1zm2.6-1.7v.3c0 .7-.1 1.6-.5 2.3-.1 0-.2-.1-.3-.1.4-.6.4-1.5.4-2.1V82h3v.8h-2.6zm0-.6v.4h2.4v-.4h-2.4zm2.7 2.9c0 .1 0 .2-.1.2h-.5c0-.1 0-.1-.1-.2h.4c.1 0 .1 0 .1-.1v-.6h-.9v.3h.4c0-.1-.1-.1-.1-.2l.2-.1c.1.2.3.4.4.5l-.2.1c0-.1-.1-.1-.1-.2-.5 0-1.1.1-1.4.1v-.2h.7v-.3h-.9v.9h-.5v-1.1h1.1V84h-1v-.7h1v-.2h-1c0-.1 0-.1-.1-.2.7 0 1.6-.1 2.1-.2l.2.2c-.3.1-.6.1-.9.1v.2h1v.7h-1v.2h1.2v1zm-1.4-1.2v-.3h-.7v.3h.7zm.2-.3v.3h.7v-.3h-.7zm2.8 0c0 .8-.3 1.4-.8 1.9l-.2-.1c.5-.5.7-1.1.7-1.8s-.3-1.3-.7-1.8l.2-.1c.5.5.8 1.1.8 1.9z"/><path class="st7" d="M106 29h94.6v50.5"/><path class="st8" d="M195.8 78.1l4.8 8.3 4.8-8.3z"/><path class="st7" d="M56 46.9h132v32.6"/><path class="st8" d="M183.2 78.1l4.8 8.3 4.7-8.3z"/><path class="st7" d="M175.3 79.5V63.6h-45v20"/><path class="st8" d="M180.1 78.1l-4.7 8.3-4.8-8.3z"/><path class="st7" d="M71.3 167.3v15h72.5v-70.7h7.9"/><path class="st8" d="M150.3 116.4l8.3-4.8-8.3-4.8z"/><path class="st9" d="M265.2 19.5v37l-50.6 40.1m194.7-77.1v37l16.3 13.4M265.2 197.4v-37l-25.5-45.8m169.6 82.8v-37l6.7-6.6"/><path class="st10" d="M321.7 32.8c0 3-2.5 5.5-5.5 5.5H215c-3 0-5.5-2.5-5.5-5.5V6.1c0-3 2.5-5.5 5.5-5.5h101.2c3 0 5.5 2.5 5.5 5.5v26.7z"/><path class="st9" d="M321.7 32.8c0 3-2.5 5.5-5.5 5.5H215c-3 0-5.5-2.5-5.5-5.5V6.1c0-3 2.5-5.5 5.5-5.5h101.2c3 0 5.5 2.5 5.5 5.5v26.7z"/><path class="st10" d="M465.5 32.8c0 3-2.5 5.5-5.5 5.5H358.8c-3 0-5.5-2.5-5.5-5.5V6.1c0-3 2.5-5.5 5.5-5.5H460c3 0 5.5 2.5 5.5 5.5v26.7z"/><path class="st9" d="M465.5 32.8c0 3-2.5 5.5-5.5 5.5H358.8c-3 0-5.5-2.5-5.5-5.5V6.1c0-3 2.5-5.5 5.5-5.5H460c3 0 5.5 2.5 5.5 5.5v26.7z"/><path class="st10" d="M321.7 184.1c0-3-2.5-5.5-5.5-5.5H215c-3 0-5.5 2.5-5.5 5.5v26.8c0 3 2.5 5.5 5.5 5.5h101.2c3 0 5.5-2.5 5.5-5.5v-26.8z"/><path class="st9" d="M321.7 184.1c0-3-2.5-5.5-5.5-5.5H215c-3 0-5.5 2.5-5.5 5.5v26.8c0 3 2.5 5.5 5.5 5.5h101.2c3 0 5.5-2.5 5.5-5.5v-26.8z"/><path class="st10" d="M465.5 184.1c0-3-2.5-5.5-5.5-5.5H358.8c-3 0-5.5 2.5-5.5 5.5v26.8c0 3 2.5 5.5 5.5 5.5H460c3 0 5.5-2.5 5.5-5.5v-26.8z"/><path class="st9" d="M465.5 184.1c0-3-2.5-5.5-5.5-5.5H358.8c-3 0-5.5 2.5-5.5 5.5v26.8c0 3 2.5 5.5 5.5 5.5H460c3 0 5.5-2.5 5.5-5.5v-26.8z"/><path class="st1" d="M230.3 13.8c-.3.6-.9 1.5-1.3 1.9l-.3-.2c.5-.4 1.1-1.3 1.4-1.8l.2.1zm1.4-1.1v3.5c0 .3-.1.5-.5.5h-.9v-.4c.3.1.6.1.8.1.2 0 .3-.1.3-.3v-3.4h-2.5v-.4h2.6v-1.2h.4v1.2h2.5v.4h-2.7zm1.5 1c.4.4.9 1.3 1.2 1.8l-.3.2c-.3-.5-.8-1.4-1.2-1.9l.3-.1zm-.1-2.4c0-.4.3-.8.7-.8.4 0 .7.3.7.8 0 .4-.3.7-.7.7-.4 0-.7-.3-.7-.7zm.2 0c0 .3.2.5.5.5s.5-.2.5-.5-.2-.5-.5-.5-.5.2-.5.5zm5.5 3.7c1-.7 1.8-1.7 2.2-2.5l.2.4c-.4.8-1.2 1.8-2.2 2.4-.7.4-1.6.9-2.9 1.2l-.2-.4c1.3-.2 2.2-.6 2.9-1.1zm-.7-2.2l-.3.3c-.4-.3-1.2-1.1-1.7-1.4l.2-.3c.6.4 1.5 1.1 1.8 1.4zm8.6-1.1h.1v-.3c0-.4.3-.8.8-.8.4 0 .8.3.8.8 0 .4-.3.8-.8.8-.1 0-.3 0-.4-.1-.1.8-.5 1.9-1 2.6-.6.8-1.4 1.4-2.7 1.8l-.3-.3c1.3-.4 2.1-.9 2.7-1.7.5-.7.9-1.7 1-2.5h-4.5v-.4h4.3zm1.3-.2c0-.3-.2-.5-.5-.5s-.5.2-.5.5.2.5.5.5.5-.3.5-.5zm5.8.2h.1v-.3c0-.4.3-.8.8-.8.4 0 .8.3.8.8 0 .4-.3.8-.8.8-.1 0-.3 0-.4-.1-.1.8-.5 1.9-1 2.6-.6.8-1.4 1.4-2.7 1.8l-.3-.3c1.3-.4 2.1-.9 2.7-1.7.5-.7.9-1.7 1-2.5h-4.4v-.4h4.2zm1.3-.2c0-.3-.2-.5-.5-.5s-.5.2-.5.5.2.5.5.5.5-.3.5-.5zm6.3 4.2v.8h-.4v-.4h-4.1v.4h-.4v-4.8h4.9v4zm-4.5-3.6v3.6h4.1v-3.6h-4.1zm11.2 1h.5v.4h-2.5c0 .8-.1 1.5-.4 2-.3.5-.8.9-1.4 1.2l-.3-.3c.6-.2 1.1-.7 1.4-1.1.3-.5.4-1.2.4-1.9H263V13h5.1zm-3.7-1.4h-.6v-.4h4.1v.4h-3.5zm10.7.3c0 .1-.1.2-.1.3-.2.8-.6 1.7-1.3 2.5s-1.5 1.4-2.8 1.9l-.3-.3c1.2-.3 2.1-1 2.8-1.8.6-.7 1-1.6 1.2-2.4H272c-.4.6-1 1.2-1.8 1.7l-.3-.2c1.2-.7 1.9-1.8 2.2-2.4 0-.1.1-.3.2-.5l.4.1c-.1.1-.2.3-.2.4-.1.1-.2.3-.3.4h2.2c.2 0 .3 0 .4-.1l.3.4zm6.4-.1c0 .1-.1.2-.1.3-.2.7-.6 1.5-1.1 2.2.3.2.5.3.7.5l-.2.3c-.2-.1-.4-.3-.7-.5-.6.8-1.5 1.5-2.8 1.9l-.3-.3c1.2-.4 2.2-1.1 2.9-1.9-.6-.4-1.3-.8-1.7-1l.2-.3c.4.2 1.1.6 1.7 1 .5-.7.8-1.5 1-2.1h-2.6c-.4.6-1 1.3-1.9 1.9l-.3-.2c1.2-.7 2-1.8 2.3-2.5.1-.1.1-.3.2-.5l.4.1c-.1.1-.2.3-.2.4-.1.1-.1.3-.2.4h2.2c.2 0 .3 0 .4-.1l.1.4zm1.6-.6h1.2c1.6 0 2.3 1 2.3 2.5 0 1.6-.8 2.6-2.3 2.6h-1.2v-5.1zm1.1 4.8c1.3 0 1.9-.9 1.9-2.2 0-1.3-.6-2.2-1.9-2.2h-.7v4.4h.7zm6.5.3l-1.4-2.3h-1v2.3h-.4v-5.1h1.5c1 0 1.7.4 1.7 1.4 0 .8-.5 1.3-1.3 1.4l1.4 2.3h-.5zm-2.4-2.6h1c.9 0 1.4-.4 1.4-1.1 0-.7-.5-1-1.4-1h-1v2.1zm4-2.5h.4l2.1 3.5.6 1c0-.5-.1-1-.1-1.5v-3h.4v5.1h-.4l-2.1-3.5-.6-1c0 .5.1 1 .1 1.5v3.1h-.4v-5.2zm5.4.6c.4 0 1.8-.2 3.1-.3.8-.1 1.4-.1 1.8-.1v.4c-.4 0-1 0-1.4.1-1.1.4-1.7 1.5-1.7 2.3 0 1.5 1.4 1.9 2.5 2l-.1.4c-1.2 0-2.7-.7-2.7-2.2 0-1.1.7-2.1 1.4-2.5-.6.1-2.8.3-3.5.4V12c.2-.1.4-.1.6-.1zm4.4 1.9l-.3.1c-.1-.3-.4-.7-.6-1l.3-.1c.2.2.5.7.6 1zm.8-.3l-.3.1c-.2-.3-.4-.7-.6-1l.2-.1c.3.2.6.7.7 1zm-65 12v.3h-6.2v-.3h1.7v-1h-1.3v-.3h1.3v-.8h-1V21h4.8v2.4h-1.1v.8h1.3v.3h-1.3v1h1.8zm-3.7.7c-.6.4-1.5.7-2.2.9-.1-.1-.2-.2-.2-.3.7-.2 1.6-.5 2.1-.8l.3.2zm-1.5-4.1h1.9v-.8h-1.9v.8zm0 1h1.9v-.8h-1.9v.8zm1 1.1h2.1v-.8h-2.1v.8zm0 1.3h2.1v-1h-2.1v1zm3.2-4.2h-2v.8h2v-.8zm0 1.1h-2v.8h2v-.8zm-1.2 3.6c.8.3 1.7.6 2.2.8l-.3.3c-.5-.3-1.3-.6-2.1-.9l.2-.2zm8.8-4.1v1.4h-.3v-1.1h-5.1v1.1h-.3v-1.4h2.7v-1.2h.3v1.2h2.7zm-.4 4.5c0 .2 0 .3-.2.4-.2.1-.5.1-1.1.1 0-.1-.1-.2-.1-.3h1c.1 0 .1 0 .1-.1v-1.2h-1.9v1.9h-.3v-1.9h-2v1.6h-.3V25h2.3v-.7h-1.7v-1.4h3.7v1.4H242v.7h2.2v1.4zm-4.1-4.6c-.1-.2-.4-.6-.6-.9l.3-.1c.2.3.5.6.6.9l-.3.1zm.2 2.1h3v-.8h-3v.8zm3.7-3c-.2.3-.5.7-.7.9l-.3-.1c.2-.2.5-.7.6-.9l.4.1zm3.8 4.8h-1.6v.5h-.3v-5h1.9v4.5zm-1.6-4.2v1.7h1.2v-1.7h-1.2zm1.3 3.9v-1.8h-1.2v1.8h1.2zm3.5-2.1v.9h.9v.3h-.9v2.1c0 .2-.1.3-.2.4h-1.1c0-.1-.1-.2-.1-.3h1c.1 0 .2 0 .2-.1v-2.1h-2.8v-.3h2.8v-.9h-2.8V23h1.9v-1.1h-1.5v-.3h1.5v-.9h.3v.9h1.6v.3H250V23h1.9v.3h-1zm-2.3 1.6c.4.4.8.9 1 1.2l-.3.2c-.2-.4-.6-.9-.9-1.3l.2-.1zm5.3-3.5c0 .1-.1.2-.1.4-.2.8-.4 1.9-.4 2.7 0 .5 0 .8.1 1.3.1-.4.3-.9.4-1.2l.2.2c-.2.4-.4 1.2-.5 1.5v.5h-.3c-.1-.5-.2-1.3-.2-2.2 0-1 .2-2.2.3-2.8v-.4h.5zm1.6 3.3c-.1.3-.1.5-.1.7 0 .3.2.7 1.3.7.6 0 1.2-.1 1.7-.2v.4c-.4.1-1 .1-1.7.1-1.2 0-1.6-.4-1.6-1 0-.2 0-.5.1-.8l.3.1zm2.7-2.8v.4c-.7.1-2.1.1-2.8 0v-.4c.7.2 2.1.2 2.8 0zm3.1 2.1c-.3.6-.9 1.5-1.3 1.9l-.3-.2c.5-.4 1.1-1.3 1.4-1.8l.2.1zm1.4-1.2v3.5c0 .3-.1.5-.5.5h-.9v-.4c.3.1.6.1.8.1.2 0 .3-.1.3-.3v-3.4h-2.5v-.4h2.6v-1.2h.4v1.2h2.5v.4h-2.7zm1.5 1c.4.4.9 1.3 1.2 1.8l-.3.2c-.3-.5-.8-1.4-1.2-1.9l.3-.1zm-.2-2.4c0-.4.3-.8.7-.8.4 0 .7.3.7.8 0 .4-.3.7-.7.7-.3.1-.7-.2-.7-.7zm.3 0c0 .3.2.5.5.5s.5-.2.5-.5-.2-.5-.5-.5c-.3.1-.5.3-.5.5zm5.5 3.8c1-.7 1.8-1.7 2.2-2.5l.2.4c-.4.8-1.2 1.8-2.2 2.4-.7.4-1.6.9-2.8 1.2l-.2-.4c1.2-.2 2.1-.7 2.8-1.1zm-.7-2.2l-.3.3c-.4-.3-1.2-1.1-1.7-1.4l.2-.3c.5.3 1.4 1 1.8 1.4zm8.6-1.1h.1v-.3c0-.4.3-.8.8-.8.4 0 .8.3.8.8 0 .4-.3.8-.8.8-.1 0-.3 0-.4-.1-.1.8-.5 1.9-1 2.6-.6.8-1.4 1.4-2.7 1.8l-.3-.3c1.3-.4 2.1-.9 2.7-1.7.5-.7.9-1.7 1-2.5h-4.5v-.4h4.3zm1.3-.3c0-.3-.2-.5-.5-.5s-.5.2-.5.5.2.5.5.5.5-.2.5-.5zm4.1 4.1v-1.2c-.7.4-1.3.8-1.3 1.3 0 .6.7.7 1.4.7.5 0 1.2-.1 1.8-.2v.4c-.6.1-1.3.1-1.9.1-.9 0-1.7-.2-1.7-1s.8-1.3 1.6-1.7c0-.4-.3-.5-.7-.5-.5 0-.9.2-1.3.5-.2.2-.4.4-.6.7l-.3-.2c1-1 1.4-1.8 1.6-2.3h-1.5v-.4c.4 0 .8.1 1.1.1h.5c.1-.3.2-.6.2-.9h.4c0 .2-.1.5-.2.9.7 0 1.5-.1 2.2-.2v.4c-.7.1-1.6.2-2.3.2-.2.4-.4.9-.8 1.3.3-.2.7-.3 1.1-.3.5 0 .8.3.9.7.5-.3 1.1-.5 1.5-.7.2-.1.3-.1.4-.2l.2.4c-.1 0-.3.1-.5.2-.4.2-1 .4-1.6.7v1.4h-.2zm5.7-4.8c-.2.5-.5 1.1-.8 1.5v4.7h-.3v-4.2c-.3.4-.6.8-.9 1.1 0-.1-.1-.2-.2-.3.7-.7 1.4-1.8 1.8-2.9l.4.1zm4.4 3.2v1.1h-.3v-.8h-4v.8h-.3v-1.1h4.6zm-2.5-2.6v-.7h.3v.7h2.1v.3h-4.5v-.3h2.1zm-1.4 2.1v-1.4h3.3v1.4h-3.3zm0 1.3h3.3v.3h-1.5v1.4c0 .2 0 .3-.2.4-.2.1-.5.1-1 .1 0-.1-.1-.2-.1-.3h.9c.1 0 .1 0 .1-.1v-1.4h-1.5v-.4zm.3-1.6h2.7v-.8h-2.7v.8zm10.3 3.1v.3h-6.2v-.3h1v-4.1h.3v4.1h1.8v-5.7h.3v2.4h2.4v.3h-2.4v2.9h2.8zm62.6-11v.3h-6.2v-.3h1.7v-1h-1.3v-.3h1.3v-.8h-1v-2.4h4.8v2.4h-1.1v.8h1.3v.3h-1.3v1h1.8zm-3.7.7c-.6.4-1.5.7-2.2.9-.1-.1-.2-.2-.2-.3.7-.2 1.6-.5 2.1-.8l.3.2zm-1.5-4.1h1.9v-.8h-1.9v.8zm0 1h1.9v-.8h-1.9v.8zm1 1.1h2.1v-.8h-2.1v.8zm0 1.3h2.1v-1h-2.1v1zm3.1-4.2h-2v.8h2v-.8zm0 1h-2v.8h2v-.8zm-1.2 3.7c.8.3 1.7.6 2.2.8l-.3.3c-.5-.3-1.3-.6-2.1-.9l.2-.2zm8.6-4.1v1.4h-.3v-1.1h-5.1v1.1h-.3v-1.4h2.7v-1.2h.3v1.2h2.7zm-.4 4.4c0 .2 0 .3-.2.4-.2.1-.5.1-1.1.1 0-.1-.1-.2-.1-.3h1c.1 0 .1 0 .1-.1v-1.2h-1.9V17h-.3v-1.9h-2v1.6h-.3v-1.9h2.3v-.7h-1.7v-1.4h3.7v1.4h-1.6v.7h2.2v1.4zm-4.1-4.5c-.1-.2-.4-.6-.6-.9l.3-.1c.2.3.5.6.6.9l-.3.1zm.2 2.1h3V13h-3v.8zm3.7-3c-.2.3-.5.7-.7.9l-.3-.1c.2-.2.5-.7.6-.9l.4.1zm3.5 4.8h-1.6v.5h-.3v-5h1.9v4.5zm-1.6-4.2v1.7h1.2v-1.7h-1.2zm1.3 3.8v-1.8h-1.2v1.8h1.2zm3.6-2v.9h.9v.3h-.9v2.1c0 .2-.1.3-.2.4h-1.1c0-.1-.1-.2-.1-.3h1c.1 0 .2 0 .2-.1v-2.1H372v-.3h2.8v-.9H372v-.3h1.9v-1.1h-1.5v-.3h1.5v-.9h.3v.9h1.6v.3H374v1.1h1.9v.3h-.9zm-2.4 1.5c.4.4.8.9 1 1.2l-.3.2c-.2-.4-.6-.9-.9-1.3l.2-.1zm6.9 1.5c.2 0 .4 0 .6-.1.9-.2 1.9-.9 1.9-2.2 0-1.1-.8-2.1-2.1-2.1-.1.7-.2 1.4-.4 2.1-.4 1.4-1 2.1-1.5 2.1s-1.1-.6-1.1-1.8c0-1.5 1.3-2.7 3-2.7 1.6 0 2.6 1.1 2.6 2.5 0 1.5-1 2.4-2.6 2.6l-.4-.4zm0-4.3c-1.4.1-2.4 1.3-2.4 2.4 0 1 .5 1.4.8 1.4.3 0 .8-.5 1.2-1.8.2-.7.3-1.4.4-2zm9.1-.2s-.1.1-.1.2c-.3.4-.9 1.3-1.8 1.9l-.3-.3c.7-.4 1.4-1.2 1.7-1.7h-5v-.4c.2 0 .5.1.8.1h4.6l.1.2zm-2.8.9c0 2-.2 3.2-2 4l-.3-.3c.2 0 .4-.2.6-.3 1.2-.7 1.4-1.8 1.4-3v-.4h.3zm8.7.5s-.1.1-.1.2c-.2.7-.5 1.4-1 2-.8.8-1.6 1.2-2.5 1.4l-.3-.3c1-.2 1.9-.6 2.5-1.3.5-.5.8-1.2.9-1.8h-4.6v-.4h4.7l.4.2zm-4.5-1.8h4v.4h-4v-.4zm5.6 2.2h5.5v.5h-5.5v-.5zm10.8 1c-.8-.4-2.1-.9-2.9-1.2v3.2h-.4V11h.4v2c.9.3 2.2.8 3 1.2l-.1.3zm2.5 1.2c.4.6 1.1.8 1.9.8h3.1c0 .1-.1.2-.1.3h-3c-1 0-1.6-.3-2.1-.9-.4.3-.8.6-1.2 1l-.2-.3c.3-.2.8-.6 1.2-.9v-2h-1.1v-.3h1.4v2.3zm-.1-3.5c-.2-.4-.7-.8-1.2-1.2l.2-.2c.5.3 1 .8 1.2 1.2l-.2.2zm1.8-.7c.3.1.7.3 1 .4.4-.2.9-.4 1.2-.7h-3.2v-.3h3.7l.2.2c-.4.4-1 .7-1.6 1 .2.1.5.2.6.3h.9v3.2c0 .2 0 .3-.2.4-.2.1-.4.1-.9.1 0-.1-.1-.2-.1-.3h.8c.1 0 .1 0 .1-.1v-.8h-1.5V16h-.3v-1.2H410V16h-.3v-3.6h2.3c-.5-.2-1.1-.5-1.6-.7l.2-.2zm-.6 1.1v.8h1.4v-.8H410zm1.4 1.9v-.8H410v.8h1.4zm1.8-1.9h-1.5v.8h1.5v-.8zm0 1.9v-.8h-1.5v.8h1.5zm3.2-1.3v.3h1.4v.3h-1.4c0 .2 0 .4-.1.6.3.3 1.2 1.3 1.4 1.6l-.2.3c-.2-.3-.9-1.1-1.3-1.5-.2.8-.6 1.6-1.5 2.2 0-.1-.2-.2-.2-.3 1.2-.8 1.5-1.9 1.6-2.9h-1.5v-.3h1.5v-1.6h-.7c-.2.5-.4.9-.6 1.2-.1-.1-.2-.1-.3-.2.4-.6.7-1.4.9-2.3l.3.1c-.1.3-.2.6-.2.9h2.1v.3h-1.2v1.3zm4.1-2v5.5h-.3v-.5h-1.8v.6h-.4v-5.5h2.5zm-.4 4.7v-4.3h-1.8v4.3h1.8zm2-4c.4 0 1.8-.2 3.1-.3.8-.1 1.4-.1 1.8-.1v.4c-.4 0-1 0-1.4.1-1.1.4-1.7 1.5-1.7 2.3 0 1.5 1.4 1.9 2.5 2l-.1.4c-1.2 0-2.7-.7-2.7-2.2 0-1.1.7-2.1 1.4-2.5-.6.1-2.8.3-3.5.4V12c.2-.1.4-.1.6-.1zm4.4 1.9l-.3.1c-.1-.3-.4-.7-.6-1l.3-.1c.2.2.5.7.6 1zm.8-.3l-.3.1c-.2-.3-.4-.7-.6-1l.2-.1c.3.2.6.7.7 1zm2.2 2.1c.4.6 1 .8 1.9.8h3c0 .1-.1.2-.1.3h-2.9c-1 0-1.6-.3-2.1-.9-.4.3-.7.6-1.1 1l-.2-.3c.3-.2.8-.6 1.1-.9v-2H428v-.3h1.4v2.3zm0-3.5c-.2-.3-.8-.8-1.2-1.1l.2-.2c.5.3 1 .8 1.3 1.1l-.3.2zm1.8 1.4H430v-.3h1.3v-1.7h.3v1.7h1.3v.3h-1.3V16h-.3v-2.5zm2.2-2.5c0 2.6 0 4.7.5 4.7.1 0 .2-.4.2-1l.2.2c0 .9-.1 1.1-.4 1.1-.7 0-.8-1.8-.8-4.7H430V11h3.5zm3 4.6c.4.6 1 .8 1.9.8h3c0 .1-.1.2-.1.3h-2.9c-1 0-1.6-.3-2.1-.9-.4.3-.7.6-1.1 1l-.2-.3c.3-.2.8-.6 1.1-.9v-2H435v-.3h1.4v2.3zm0-3.5c-.2-.3-.8-.8-1.2-1.1l.2-.2c.5.3 1 .8 1.3 1.1l-.3.2zm2.4 2.1c-.4.7-1.2 1.4-1.8 1.7 0-.1-.1-.2-.2-.3.7-.3 1.4-.9 1.8-1.6h-1.4v-1.6h1.6v-.7h-2v-.3h2v-.8h.3v.8h2.1v.3h-2.1v.7h1.7V14h-1.5c.4.6 1.2 1.3 1.9 1.6-.1.1-.2.2-.2.3-.6-.3-1.4-1-1.8-1.7v2h-.3v-2zm-1.3-.4h1.3v-1.1h-1.3v1.1zm1.7-1.1v1.1h1.4v-1.1h-1.4zm6.1-.5c-.4.1-.8.2-1.3.3-.3 1-1 2.2-1.5 2.9l-.4-.2c.6-.7 1.2-1.8 1.5-2.7h-1.6v-.4h1.7c.1-.4.2-.8.2-1.2h.4c-.1.3-.2.7-.3 1.1.4 0 .8-.1 1.2-.3l.1.5zm.7.9v.7c0 .3 0 .8.1 1.3.6.2 1.1.6 1.4.9l-.2.3c-.3-.3-.7-.6-1.2-.8v.4c0 .5-.4.9-1.2.9-.7 0-1.3-.3-1.3-.9 0-.6.6-1 1.3-1 .3 0 .5 0 .8.1 0-.6-.1-1.3-.1-1.9h.4zm-.3 2.2c-.2-.1-.5-.1-.8-.1-.6 0-1 .3-1 .6 0 .4.3.6.9.6.6 0 .8-.3.8-.7.2-.1.2-.3.1-.4zm.5-3.3c.5.2 1.3.7 1.6.9l-.2.3c-.4-.3-1.1-.7-1.5-.9l.1-.3zm4.8.4c-.1.9-.3 1.6-.6 2.3.3.5.6.9.8 1.2l-.3.2c-.2-.3-.4-.7-.7-1.1-.4.8-.9 1.4-1.7 1.9 0-.1-.2-.2-.3-.3.8-.5 1.3-1.1 1.7-2-.4-.5-.9-1.1-1.3-1.5l.2-.2c.4.4.8.9 1.2 1.4.2-.6.4-1.3.5-2l.5.1zm.6-.3h-3.2v-.3h1.4v-1.2h.3v1.2h1.5v.3zm3.1.6h-.9v3.7c0 .3-.1.4-.3.4-.2.1-.5.1-1.1.1 0-.1-.1-.2-.1-.3h1c.1 0 .2 0 .2-.2v-3.8h-2v-.3h2v-1.8h.3v1.8h.9v.4zm-2.3 2.6c-.1-.4-.4-1.1-.8-1.6l.3-.1c.3.5.7 1.2.8 1.6l-.3.1zm3.5-3.4v1.5c0 1-.1 2.5-.7 3.6-.1-.1-.2-.1-.3-.2.6-1 .6-2.4.6-3.4v-1.8h2.6v-1h.3v1h2.8v.3H456zm.1 4.2c.4-.5.6-1.4.7-2.1l.3.1c-.1.7-.3 1.7-.7 2.2l-.3-.2zm3.5.4c.3 0 .4-.2.4-1.3.1.1.2.1.3.2 0 1.1-.1 1.4-.7 1.4h-1.2c-.5 0-.7-.1-.7-.6v-2.9h.3v2.9c0 .2.1.3.4.3h1.2zm-.1-3c-.3-.3-1-.8-1.6-1.1l.2-.2c.6.3 1.2.7 1.6 1l-.2.3zm1 .3c.5.7 1 1.7 1.1 2.3l-.3.1c-.1-.6-.6-1.6-1.1-2.3l.3-.1zM374.3 24c-.3.6-.9 1.5-1.3 1.9l-.3-.2c.5-.4 1.1-1.3 1.4-1.8l.2.1zm1.4-1.2v3.5c0 .3-.1.5-.5.5h-.9v-.4c.3.1.6.1.8.1.2 0 .3-.1.3-.3v-3.4h-2.5v-.4h2.6v-1.2h.4v1.2h2.5v.4h-2.7zm1.5 1c.4.4.9 1.3 1.2 1.8l-.3.2c-.3-.5-.8-1.4-1.2-1.9l.3-.1zm-.1-2.4c0-.4.3-.8.7-.8.4 0 .7.3.7.8 0 .4-.3.7-.7.7-.4.1-.7-.2-.7-.7zm.2 0c0 .3.2.5.5.5s.5-.2.5-.5-.2-.5-.5-.5c-.3.1-.5.3-.5.5zm5.2 3.8c1-.7 1.8-1.7 2.2-2.5l.2.4c-.4.8-1.2 1.8-2.2 2.4-.7.4-1.6.9-2.8 1.2l-.2-.4c1.2-.2 2.1-.7 2.8-1.1zm-.7-2.2l-.3.3c-.4-.3-1.2-1.1-1.7-1.4l.2-.3c.6.3 1.5 1 1.8 1.4zm8.3-1.1h.1v-.3c0-.4.3-.8.8-.8.4 0 .8.3.8.8 0 .4-.3.8-.8.8-.1 0-.3 0-.4-.1-.1.8-.5 1.9-1 2.6-.6.8-1.4 1.4-2.7 1.8l-.3-.3c1.3-.4 2.1-.9 2.7-1.7.5-.7.9-1.7 1-2.5h-4.4v-.4h4.2zm1.4-.3c0-.3-.2-.5-.5-.5s-.5.2-.5.5.2.5.5.5.5-.2.5-.5zm7 3.7h-.9v1.3c0 .3-.1.4-.3.4-.2.1-.6.1-1.2.1 0-.1-.1-.2-.1-.3h1.1c.1 0 .2 0 .2-.2v-1.3h-4v1.8h-.3v-1.8h-.8V25h.8v-2.7h2.1v-.8h-2.8v-.3h5.9v.3h-2.8v.8h2.2V25h.9v.3zm-5.2-2.6v1h1.8v-1h-1.8zm0 2.3h1.8v-1h-1.8v1zm2.2-2.3v1h1.9v-1h-1.9zm1.8 2.3v-1h-1.9v1h1.9zm4-.3c-.1-.2-.5-.6-.7-.9v3.3h-.3v-3.4c-.3.8-.6 1.6-1 2 0-.1-.1-.2-.2-.3.4-.5.9-1.5 1.1-2.4h-1v-.3h1.1v-1.2c-.3.1-.7.1-1 .2 0-.1-.1-.2-.1-.3.7-.1 1.6-.3 2-.5l.3.2c-.2.1-.6.2-.9.3v1.3h.9v.3h-.9v.4c.2.2.8.8.9 1l-.2.3zm4.2-1.1c-.3.3-.7.6-1 .9.3.8.7 1.4 1.1 1.8l-.3.3c-.7-.8-1.3-2.2-1.7-3.6h-.2c-.2.2-.4.3-.6.5 1.2 1.1 1.3 3 .8 3.5-.2.2-.3.2-.6.2h-.5c0-.1 0-.2-.1-.3h.5c.1 0 .3 0 .4-.1.2-.2.3-.9.2-1.6-.6.6-1.6 1.3-2.4 1.6 0-.1-.1-.2-.2-.3.9-.3 2-1 2.5-1.6l-.3-.6c-.5.4-1.2.9-1.8 1.2 0-.1-.1-.2-.2-.3.6-.2 1.4-.7 1.9-1.1-.1-.2-.3-.3-.4-.5-.4.2-.7.4-1.1.6 0-.1-.1-.2-.2-.3.6-.2 1.2-.6 1.7-1h-1.3v-.3h3.3v.3h-1c.1.4.2.9.4 1.3.3-.2.7-.6.9-.8l.2.2zm-3.6-1h-.3v-1.1h1.7v-.8h.3v.8h1.8v1.1h-.3v-.8h-3.3v.8zm5.9-1.7c-.1.5-.3.9-.5 1.3v4.9h-.3v-4.3c-.2.4-.5.8-.8 1.2 0-.1-.1-.2-.2-.3.6-.7 1.1-1.8 1.5-2.9l.3.1zm4.7 1.7c-.1 3.1-.1 4-.3 4.3-.1.1-.2.2-.4.2h-.7c0-.1 0-.2-.1-.3h.7c.1 0 .2 0 .2-.1.1-.2.2-1.2.3-4h-.8v.2c0 1.4-.1 3-1.1 4.2-.1-.1-.2-.1-.3-.2.1-.1.2-.3.3-.4-.9.1-1.8.2-2.5.3l-.1-.3c.4 0 .8-.1 1.3-.1v-.7h-1.1v-.3h1.1v-.5h-1.1v-2h1.1v-.5h-1.2V22h1.2v-.5c-.4 0-.8.1-1.2.1 0-.1-.1-.2-.1-.3.9-.1 1.9-.2 2.5-.4l.2.3c-.3.1-.7.1-1.1.2v.6h1.2v.3h-1.2v.5h1.2v2h-1.2v.5h1.2v.3h-1.2v.7c.4 0 .8-.1 1.2-.1.6-1.1.6-2.3.6-3.3v-.2h-.6v-.3h.6v-1.6h.3v1.6h1.1v.2zm-4.3 1.1h.8v-.6h-.8v.6zm0 .9h.8V24h-.8v.6zm2-1.5h-.9v.6h.9v-.6zm0 .9h-.9v.6h.9V24zm4.4 1.8c.4.6 1.1.8 1.9.8h3.1c0 .1-.1.2-.1.3h-3c-1 0-1.6-.3-2.1-.9-.4.3-.8.6-1.2 1l-.2-.3c.3-.2.8-.6 1.2-.9v-2h-1.1v-.3h1.4v2.3zm-.1-3.5c-.2-.4-.7-.8-1.2-1.2l.2-.2c.5.3 1 .8 1.2 1.2l-.2.2zm1.8-.7c.3.1.7.3 1 .4.4-.2.9-.4 1.2-.7h-3.2V21h3.7l.2.2c-.4.4-1 .7-1.6 1 .2.1.5.2.6.3h.9v3.2c0 .2 0 .3-.2.4-.2.1-.4.1-.9.1 0-.1-.1-.2-.1-.3h.8c.1 0 .1 0 .1-.1V25h-1.5v1.2h-.3V25h-1.4v1.2h-.3v-3.6h2.3c-.5-.2-1.1-.5-1.6-.7l.3-.3zm-.6 1.2v.8h1.4v-.8h-1.4zm1.4 1.8v-.8h-1.4v.8h1.4zm1.8-1.8h-1.5v.8h1.5v-.8zm0 1.8v-.8h-1.5v.8h1.5zm3.2-1.3v.3h1.4v.3h-1.4c0 .2 0 .4-.1.6.3.3 1.2 1.3 1.4 1.6l-.2.3c-.2-.3-.9-1.1-1.3-1.5-.2.8-.6 1.6-1.5 2.2 0-.1-.2-.2-.2-.3 1.2-.8 1.5-1.9 1.6-2.9h-1.5v-.3h1.5V22h-.7c-.2.5-.4.9-.6 1.2-.1-.1-.2-.1-.3-.2.4-.6.7-1.4.9-2.3l.3.1c-.1.3-.2.6-.2.9h2.1v.3h-1.2v1.3zm4.1-2v5.5h-.3v-.5h-1.8v.6h-.3v-5.5h2.4zm-.4 4.7v-4.3H424V26h1.8zm6.2-4.5c-.1.1-.1.3-.2.4-.2.7-.6 1.5-1.1 2.2.6.5 1.3 1.1 1.8 1.6l-.3.3c-.5-.6-1.1-1.1-1.7-1.7-.7.8-1.6 1.7-2.8 2.3l-.3-.3c1.3-.6 2.2-1.4 2.9-2.3-.5-.4-1.4-1.1-2-1.5l.2-.3c.6.4 1.5 1 2 1.5.5-.7.8-1.4 1.1-2.1 0-.1.1-.3.1-.4l.3.3zm1.2 2.2h5.5v.4h-5.5v-.4zm5.9 2.7c.6-.4 1-1 1.2-1.7.2-.7.2-2.1.2-2.9v-.4h.4v.4c0 .7 0 2.3-.2 3-.2.7-.7 1.4-1.2 1.9l-.4-.3zm3.2 0v-5.1h.4v4.8c.7-.3 1.7-1 2.2-1.9l.2.3c-.6.9-1.6 1.6-2.4 2-.1 0-.1.1-.2.1l-.2-.2zM221 190h1.2c1.6 0 2.3 1 2.3 2.5 0 1.6-.8 2.6-2.3 2.6H221V190zm1.2 4.8c1.3 0 1.9-.9 1.9-2.2 0-1.3-.6-2.2-1.9-2.2h-.7v4.4h.7zm6.5.3l-1.4-2.3h-1v2.3h-.4V190h1.5c1 0 1.7.4 1.7 1.4 0 .8-.5 1.3-1.3 1.4l1.4 2.3h-.5zm-2.4-2.6h1c.9 0 1.4-.4 1.4-1.1 0-.7-.5-1-1.4-1h-1v2.1zm4-2.5h.4l2.1 3.5.6 1c0-.5-.1-1-.1-1.5v-3h.4v5.1h-.4l-2.1-3.5-.6-1c0 .5.1 1 .1 1.5v3.1h-.4V190zm9.3.9c-.1.1-.3.2-.4.2-.5.3-1.5.8-2.2 1.2-.7.4-1.1.9-1.1 1.5s.6 1 1.8 1c.8 0 1.7-.1 2.2-.2v.4c-.5.1-1.3.2-2.2.2-1.2 0-2.1-.4-2.1-1.3 0-.7.4-1.3 1.2-1.8-.3-.6-.7-1.4-1-2.2l.4-.2c.3.8.7 1.6 1 2.1.7-.4 1.6-.8 2-1.1.2-.1.3-.2.4-.3v.5zm6.3.3h.6v.4h-1.9c-.1 2.1-.9 3.2-2.1 4l-.4-.3c.2-.1.4-.2.5-.3.7-.5 1.5-1.4 1.6-3.4h-2c-.3.5-.8 1.2-1.2 1.5l-.4-.2c.5-.4 1-1.1 1.3-1.6.2-.4.3-.7.4-1 0-.1.1-.3.1-.5l.4.1c0 .1-.1.3-.1.4-.1.2-.2.5-.3.8h3.5zm-.1-.4c-.1-.3-.4-.7-.6-1l.3-.1c.2.3.4.7.6 1l-.3.1zm.4-1.4c.2.3.5.7.6 1l-.3.1c-.2-.3-.4-.7-.6-1l.3-.1zm1.4 2.8h5.5v.4h-5.5v-.4zm11 1c-.8-.4-2.1-.9-2.9-1.2v3.2h-.4v-5.5h.4v1.9c.9.3 2.2.8 3 1.2l-.1.4zm7-2.3c0 .1-.1.2-.1.3-.1.5-.3 1.5-.7 2.2-.5.9-1.4 1.6-2.7 1.9l-.3-.3c.2 0 .4-.1.6-.1.8-.2 1.6-.8 2.1-1.5.4-.6.6-1.6.7-2.2H261v1.8h-.4v-2.1h2.2v-1.3h.4v1.1h2.2l.2.2zm5.8 3.8h.4v.4H267v-.4h2.2V192h-1.8v-.4h4.1v.4h-2v2.8h1.9zm6.8-4.7c-.4.5-1.2 1.1-1.9 1.5v3.7h-.4v-3.5c-.8.4-1.8.9-2.8 1.2l-.2-.4c1.1-.3 2.3-.8 3.1-1.3.7-.4 1.5-1.1 1.8-1.5l.4.3zm3.6 4.9c.2 0 .4 0 .6-.1.9-.2 1.9-.9 1.9-2.2 0-1.1-.8-2.1-2.1-2.1-.1.7-.2 1.4-.4 2.1-.4 1.4-1 2.1-1.5 2.1s-1.1-.6-1.1-1.8c0-1.5 1.3-2.7 3-2.7 1.6 0 2.6 1.1 2.6 2.5 0 1.5-1 2.4-2.6 2.6l-.4-.4zm-.1-4.3c-1.4.1-2.4 1.3-2.4 2.4 0 1 .5 1.4.8 1.4.3 0 .8-.5 1.2-1.8.2-.7.4-1.4.4-2zm7.8 2.6c.6-.5 1.1-1.4 1.3-1.8 0 0-1.6.3-3 .6v2.2c0 .5.2.7 1.1.7.9 0 1.5-.1 2.2-.2v.4c-.7.1-1.3.1-2.2.1-1.1 0-1.4-.3-1.4-.9V192c-.8.2-1.4.3-1.7.4l-.1-.4c.3 0 1-.2 1.8-.3v-1.9h.4v1.8c1.3-.2 2.7-.5 3-.6.1 0 .2-.1.3-.1l.3.2c0 .1-.1.2-.1.2-.3.6-.8 1.4-1.4 2l-.5-.1zm4.5-.1l-.3.1c-.1-.4-.5-1.4-.6-1.6l.3-.1c.1.3.5 1.2.6 1.6zm3.5-1.6c0 .1-.1.2-.1.2-.2.8-.5 1.6-1 2.2-.6.8-1.5 1.3-2.3 1.6l-.3-.3c.8-.3 1.7-.8 2.3-1.5.5-.6.9-1.5 1-2.4l.4.2zm-1.9 1.2l-.3.1-.5-1.5.3-.1c0 .2.4 1.2.5 1.5zm7.7.5c-.8-.4-2.1-.9-2.9-1.2v3.2h-.4v-5.5h.4v1.9c.9.3 2.2.8 3 1.2l-.1.4zm4.6 1V193c-.7.4-1.3.8-1.3 1.3 0 .6.7.7 1.4.7.5 0 1.2-.1 1.8-.2v.4c-.6.1-1.3.1-1.9.1-.9 0-1.7-.2-1.7-1s.8-1.3 1.6-1.7c0-.4-.3-.5-.7-.5-.5 0-.9.2-1.3.5-.2.2-.4.4-.6.7l-.3-.2c1-1 1.4-1.8 1.6-2.3H305v-.4c.4 0 .8.1 1.1.1h.5c.1-.3.2-.6.2-.9h.4c0 .2-.1.5-.2.9.7 0 1.5-.1 2.2-.2v.4c-.7.1-1.6.2-2.3.2-.2.4-.4.9-.8 1.3.3-.2.7-.3 1.1-.3.5 0 .8.3.9.7.5-.3 1.1-.5 1.5-.7.2-.1.3-.1.4-.2l.2.4c-.1 0-.3.1-.5.2-.4.2-1 .4-1.6.7v1.4h-.2zm-80.7 6.7h-2.6v-.3h2.6v.3zm-2.3.6h2v.3h-2v-.3zm0 1h2v.3h-2v-.3zm2 2.9h-1.7v.3h-.3v-2.3h2v2zm0-5.4h-2v-.3h2v.3zm-1.7 3.7v1.4h1.4v-1.4h-1.4zm2.9-3.2c0 .6-.2 1.3-.9 1.8 0-.1-.2-.2-.2-.2.7-.4.8-1 .8-1.5v-.8h2.1v1.8c0 .1 0 .2.2.2h.5c.1 0 .2-.1.2-.8.1.1.2.1.3.1 0 .8-.1 1-.4 1h-.7c-.4 0-.4-.1-.4-.5V200h-1.5v.5zm2.4 2c-.2.9-.7 1.6-1.3 2.1.5.4 1.1.7 1.7.9-.1.1-.2.2-.2.3-.7-.2-1.3-.5-1.8-.9-.5.4-1.2.8-1.8.9 0-.1-.1-.2-.2-.3.6-.2 1.3-.4 1.8-.9-.5-.5-.8-1-1.1-1.7l.3-.1c.2.6.6 1.2 1 1.6.5-.4.8-1 1.1-1.6h-2.8v-.3h3.3zm4.2-.2c0-.1.1-.3.1-.5H232v-.3h2.9c0-.2 0-.3.1-.4h-2.6v-1.3h5.4v1.3h-2.4c0 .1 0 .3-.1.4h2.8v.3h-2.8c0 .2-.1.4-.1.5h2.3v2.4h-3.8v-2.4h1zm3.5 3.2h-5.4v.3h-.3v-3.4h.3v2.8h5.4v.3zM234 200h-1.3v.8h1.3v-.8zm3 2.5h-3.1v.5h3.1v-.5zm0 .8h-3.1v.5h3.1v-.5zm0 .7h-3.1v.5h3.1v-.5zm-2.7-3.2h1.4v-.8h-1.4v.8zm1.7 0h1.4v-.8H236v.8zm6.9-.1h2v.4h-2.2v1.2c.1.2.2.5.2.9 0 1-.4 1.9-2 2.4l-.3-.3c1.1-.3 1.7-.8 1.9-1.5-.2.2-.4.3-.7.3-.6 0-1.1-.4-1.1-1.1 0-.6.5-1.2 1.1-1.2.2 0 .4 0 .6.1v-.9c-1.1 0-2.3.1-3.2.1v-.4c.7 0 2.1-.1 3.2-.1v-.9h.4v.9h.1zm-.4 2.1c-.1-.5-.4-.7-.7-.7-.4 0-.8.3-.8.8s.4.8.8.8.7-.3.7-.9zm7.6-2.4c-.1.1-.2.2-.3.2-.3.2-1.4 1.2-2 1.7.4-.1.8-.2 1.1-.2 1.1 0 1.9.7 1.9 1.6 0 1.1-1 1.8-2.3 1.8-.9 0-1.4-.4-1.4-.9 0-.4.4-.8 1-.8.9 0 1.3.6 1.4 1.3.6-.2 1-.7 1-1.3 0-.7-.7-1.3-1.6-1.3-1.2 0-1.8.4-2.8 1.4l-.3-.3c.6-.5 1.5-1.3 1.9-1.6.4-.3 1.3-1.1 1.7-1.5-.4 0-2 .1-2.4.1h-.4v-.4h.4c.4 0 2.1-.1 2.4-.1h.3l.4.3zm-1 4.7c-.1-.6-.4-1-1.1-1-.4 0-.6.2-.6.5 0 .4.5.6 1 .6.3 0 .5-.1.7-.1zm6.3-3.9c-.5.1-1 .2-1.5.2-.1.3-.1.6-.2.9-.3 1-.7 2.4-1.1 3.2l-.4-.1c.4-.7.9-2.1 1.1-3.1.1-.3.1-.5.2-.8H252v-.4h1.6c.1-.3.1-.6.1-.7v-.5h.4c0 .1-.1.4-.1.5 0 .2-.1.4-.1.7.5-.1 1-.1 1.4-.3v.4zm-.4 2.5c-.1.2-.1.5-.1.7 0 .3.1.7 1.3.7.4 0 .9 0 1.3-.1v.4c-.4.1-.8.1-1.3.1-1.1 0-1.6-.3-1.6-1 0-.2 0-.4.1-.8h.3zm0-1.6c.3 0 .8-.1 1.2-.1.4 0 .8 0 1.2.1v.4c-.4 0-.8-.1-1.2-.1-.4 0-.8 0-1.2.1v-.4zm2-.9c-.1-.3-.4-.7-.6-1l.3-.1c.2.2.4.7.6 1l-.3.1zm.4-1.3c.2.3.5.7.6 1l-.3.1c-.2-.3-.4-.7-.6-1l.3-.1zm2.6.1c0 .1-.1.3-.1.4-.3 1.2-.5 2.7-.2 4 .1-.3.2-.8.4-1.2l.2.1c-.1.4-.4 1.1-.4 1.4v.5h-.3c-.1-.4-.3-1.3-.3-2.2 0-1.1.2-2.2.3-2.8v-.4l.4.2zm4.7 1.6c-.3.1-.7.1-1.2.1v.2c0 1.6.1 2.8-1.5 3.6l-.3-.3c.2-.1.4-.2.6-.4.9-.7.9-1.6.9-3v-.2h-2.1v-.4c.3 0 .8.1 1.2.1h.9v-1.2c0-.2 0-.3-.1-.4h.4v1.5c.4 0 .8-.1 1.2-.2v.6zm1.8-.9c.4 0 1.8-.2 3.1-.3.8-.1 1.4-.1 1.8-.1v.4c-.4 0-1 0-1.4.1-1.1.4-1.7 1.5-1.7 2.3 0 1.5 1.4 1.9 2.5 2l-.1.4c-1.2 0-2.7-.7-2.7-2.2 0-1.1.7-2.1 1.4-2.5-.6.1-2.8.3-3.5.4v-.4c.2 0 .4-.1.6-.1zm4.5 1.9l-.3.1c-.1-.3-.4-.7-.6-1l.3-.1c.1.3.4.7.6 1zm.7-.3l-.3.1c-.2-.3-.4-.7-.6-1l.2-.1c.3.3.6.7.7 1zm1.8-2c-.2.3-.4.6-.6.8-.1 0-.2-.1-.3-.2.4-.4.8-.9 1-1.5l.3.1c-.1.2-.2.3-.2.5h2v.3h-1.4c.1.2.2.5.3.7l-.3.1c0-.2-.2-.5-.3-.7h-.5zm-.2 2.6v2.8h-.3v-4.6h2.4v1.8h-2.1zm0-1.5v.5h1.7v-.5h-1.7zm1.8 1.3v-.5h-1.7v.5h1.7zm2 2.5h-2.3v.3h-.3v-2.2h2.6v1.9zm-2.3-1.6v.5h1.9v-.5h-1.9zm1.9 1.4v-.6h-1.9v.6h1.9zm2.1-5v.3h-1.7c.2.2.3.5.4.6l-.3.1c-.1-.2-.3-.5-.5-.8h-.6c-.2.3-.5.5-.7.7-.1 0-.2-.1-.3-.2.5-.3.9-.9 1.1-1.4l.3.1c-.1.2-.2.4-.3.5h2.6zm-.2 5.3c0 .2-.1.3-.2.4h-1c0-.1-.1-.2-.1-.3h.9c.1 0 .1 0 .1-.1v-2.4h-2.1v-1.8h2.5v4.2zm-2.2-3.9v.5h1.8v-.5h-1.8zm1.8 1.3v-.5h-1.8v.5h1.8zm7.7 1.8h-3v1.3h-.3v-1.3h-2.9v-.3h2.9v-.8h-2.2v-2.7h3.7c.3-.3.6-.9.8-1.2l.3.1c-.2.4-.5.8-.8 1.1h.9v2.7H283v.8h3v.3zm-4.8-3.8c-.1-.3-.4-.7-.7-1l.3-.1c.3.3.6.7.7 1l-.3.1zm-.4 1.2h1.9v-.9h-1.9v.9zm1.9 1.2v-.9h-1.9v.9h1.9zm.1-2.4c-.1-.3-.3-.8-.5-1.1l.3-.1c.2.3.5.8.6 1.1l-.4.1zm2.3.3h-2v.9h2v-.9zm0 1.2h-2v.9h2v-.9zm3-2.1c0 .1-.1.2-.1.4-.2.8-.4 1.9-.4 2.7 0 .5 0 .8.1 1.3.1-.4.3-.9.4-1.2l.2.2c-.2.4-.4 1.2-.5 1.5v.5h-.3c-.1-.5-.2-1.3-.2-2.2 0-1 .2-2.2.3-2.8v-.4h.5zm1.6 3.3c-.1.3-.1.5-.1.7 0 .3.2.7 1.3.7.6 0 1.2-.1 1.7-.2v.4c-.4.1-1 .1-1.7.1-1.2 0-1.6-.4-1.6-1 0-.2 0-.5.1-.8l.3.1zm2.7-2.8v.4c-.7.1-2.1.1-2.8 0v-.4c.7.2 2.1.1 2.8 0zm1.9 1.4v3.8h-.3v-6h2.5v2.3h-2.2zm0-2v.7h1.8v-.7h-1.8zm1.8 1.7v-.7h-1.8v.7h1.8zm1.5 2.3v1.6h-.3V204H296c0 .5-.2 1.2-1 1.7l-.2-.2c.7-.4.9-1.1.9-1.5h-1v-.3h1v-.9h-.8v-.3h3.5v.3h-.9v.9h1.1v.3h-1.1zm-.3-.3v-.9H296v.9h1.2zm2.3 1.6c0 .3-.1.4-.2.4-.2.1-.5.1-1.1.1 0-.1-.1-.3-.1-.4h.9c.1 0 .2 0 .2-.1V202H297v-2.3h2.5v5.6zm-2.2-5.3v.7h1.9v-.7h-1.9zm1.9 1.7v-.7h-1.9v.7h1.9zm4-.8c-.1 1.3-.3 2.3-.7 3 .4.3.7.5.8.8l-.2.3c-.2-.2-.5-.5-.8-.7-.4.7-.8 1.2-1.4 1.5 0-.1-.1-.2-.2-.3.5-.3 1-.8 1.4-1.4l-.9-.6-.1.3-.3-.1c.2-.6.4-1.5.6-2.4h-.7v-.3h.8c.1-.5.2-1.1.3-1.5h.3c-.1.4-.2.9-.3 1.5h1.2l.2-.1zm-1.5.3c-.2.7-.3 1.4-.5 2 .3.2.7.4 1 .6.3-.7.5-1.5.6-2.6h-1.1zm4.2-.7c.5.6 1 1.4 1.2 1.9l-.3.2c-.1-.2-.1-.3-.2-.5-1.2.1-2.4.2-3.3.2v-.3h.5c.3-.7.7-1.7.9-2.5l.4.1c-.3.7-.6 1.7-.9 2.4.7 0 1.5-.1 2.3-.1-.2-.4-.5-.8-.8-1.1l.2-.3zm-2.2 2.5h2.9v2.8h-.3v-.3H304v.3h-.3V203zm.4.3v1.8h2.3v-1.8h-2.3zm76-10c-.1-.2-.5-.6-.7-.9v3.3h-.3v-3.4c-.3.8-.6 1.6-1 2 0-.1-.1-.2-.2-.3.4-.5.9-1.5 1.1-2.4h-1v-.3h1.1v-1.2c-.3.1-.7.1-1 .2 0-.1-.1-.2-.1-.3.7-.1 1.6-.3 2-.5l.3.2c-.2.1-.6.2-.9.3v1.3h.9v.3h-.9v.4c.2.2.8.8.9 1l-.2.3zm4.1-1.2c-.3.3-.7.6-1 .9.3.8.7 1.4 1.1 1.8l-.3.3c-.7-.8-1.3-2.2-1.7-3.6h-.2c-.2.2-.4.3-.6.5 1.2 1.1 1.3 3 .8 3.5-.2.2-.3.2-.6.2h-.5c0-.1 0-.2-.1-.3h.5c.1 0 .3 0 .4-.1.2-.2.3-.9.2-1.6-.6.6-1.6 1.3-2.4 1.6 0-.1-.1-.2-.2-.3.9-.3 2-1 2.5-1.6l-.3-.6c-.5.4-1.2.9-1.8 1.2 0-.1-.1-.2-.2-.3.6-.2 1.4-.7 1.9-1.1-.1-.2-.3-.3-.4-.5-.4.2-.7.4-1.1.6 0-.1-.1-.2-.2-.3.6-.2 1.2-.6 1.7-1h-1.3v-.3h3.3v.3h-1.2c.1.4.2.9.4 1.3.3-.2.7-.6.9-.8l.4.2zm-3.5-1h-.3V190h1.7v-.8h.3v.8h1.8v1.1h-.3v-.8h-3.3v.8zm6.2-1.7c-.1.5-.3.9-.5 1.3v4.9h-.3v-4.3c-.2.4-.5.8-.8 1.2 0-.1-.1-.2-.2-.3.6-.7 1.1-1.8 1.5-2.9l.3.1zm4.7 1.7c-.1 3.1-.1 4-.3 4.3-.1.1-.2.2-.4.2h-.7c0-.1 0-.2-.1-.3h.7c.1 0 .2 0 .2-.1.1-.2.2-1.2.3-4h-.8v.2c0 1.4-.1 3-1.1 4.2-.1-.1-.2-.1-.3-.2.1-.1.2-.3.3-.4-.9.1-1.8.2-2.5.3l-.1-.3c.4 0 .8-.1 1.3-.1v-.7H387v-.2h1.1v-.5H387v-2h1.1v-.5h-1.2v-.3h1.2v-.5c-.4 0-.8.1-1.2.1 0-.1-.1-.2-.1-.3.9-.1 1.9-.2 2.5-.4l.2.3c-.3.1-.7.1-1.1.2v.6h1.2v.3h-1.2v.5h1.2v2h-1.2v.5h1.2v.3h-1.2v.7c.4 0 .8-.1 1.2-.1.6-1.1.6-2.3.6-3.3v-.2h-.6v-.3h.6v-1.6h.3v1.6h1.1zm-4.4 1.2h.8v-.6h-.8v.6zm0 .9h.8v-.6h-.8v.6zm2-1.5h-.9v.6h.9v-.6zm0 .8h-.9v.6h.9v-.6zm8.7 1.9v.8h-.4v-.4h-4.1v.4h-.4v-4.8h4.9v4zm-4.5-3.6v3.6h4.1v-3.6h-4.1zm10.4 0c.2 0 .3 0 .4-.1l.3.2c0 .1-.1.2-.1.3-.2.8-.6 1.7-1.3 2.5-.6.8-1.5 1.4-2.8 1.9l-.3-.3c1.2-.3 2.1-1 2.8-1.8.6-.7 1-1.6 1.2-2.4h-2.6c-.4.6-1 1.2-1.8 1.7l-.3-.2c1.2-.7 1.9-1.8 2.2-2.4 0-.1.1-.3.2-.4l.4.1c-.1.1-.2.3-.2.5-.1.1-.2.3-.2.4h2.1zm.3-1.2c.2.3.4.7.6 1l-.3.1c-.1-.3-.4-.7-.6-1l.3-.1zm.7-.3c.2.3.5.7.6 1l-.3.1c-.2-.3-.4-.7-.6-1l.3-.1zm3.9 5.6c.2 0 .4 0 .6-.1.9-.2 1.9-.9 1.9-2.2 0-1.1-.8-2.1-2.1-2.1-.1.7-.2 1.4-.4 2.1-.4 1.4-1 2.1-1.5 2.1s-1.1-.6-1.1-1.8c0-1.5 1.3-2.7 3-2.7 1.6 0 2.6 1.1 2.6 2.5 0 1.5-1 2.4-2.6 2.6l-.4-.4zm0-4.3c-1.4.1-2.4 1.3-2.4 2.4 0 1 .5 1.4.8 1.4.3 0 .8-.5 1.2-1.8.2-.7.3-1.4.4-2zm9.8-.5h-.9v4.9c0 .3-.1.4-.3.5-.2.1-.7.1-1.4.1 0-.1-.1-.3-.1-.4h1.3c.1 0 .2-.1.2-.2v-4.9h-5v-.3h6.2v.3zm-5.1 3.8v.6h-.3v-3.1h2.8v2.6h-2.5zm0-2.3v1.9h2.1v-1.9h-2.1zm8.4 1.9l-1-1v3.1h-.3v-2.9c-.4.4-.8.7-1.1 1 0-.1-.1-.2-.2-.3.8-.5 1.8-1.5 2.2-2.5h-2v-.3h1.1v-1.3h.3v1.3h.8l.2.1c-.2.5-.5 1-.9 1.5.3.3.9.8 1.1 1l-.2.3zm3.4 1.8c.2 0 .2-.1.2-.9.1.1.2.1.3.1 0 .8-.1 1-.5 1h-.7c-.4 0-.5-.1-.5-.5v-1.6h-.7c-.1 1-.5 1.7-1.6 2.1 0-.1-.1-.2-.2-.3 1-.3 1.3-1 1.5-1.9h-.6v-3.9h2.9v3.9h-.9v1.6c0 .1 0 .2.2.2h.6zm-2.6-4.4h2.2v-.9h-2.2v.9zm0 1.1h2.2v-.9h-2.2v.9zm0 1.2h2.2v-.9h-2.2v.9zm6.1-3.7c-.2.5-.5 1-.8 1.5v4.6h-.3v-4.2c-.3.4-.7.8-1.1 1.2 0-.1-.2-.2-.2-.3.8-.7 1.6-1.8 2.1-2.9l.3.1zm3.2 5.7c.4 0 .5-.3.5-1.3.1.1.2.1.3.2-.1 1.1-.2 1.5-.9 1.5h-1.6c-.7 0-.9-.2-.9-.8v-5.3h.3v2.7c.8-.5 1.8-1.1 2.3-1.6l.2.3c-.6.6-1.6 1.1-2.5 1.6v2.2c0 .4.1.5.5.5h1.8zm2.3-4.6c.4 0 1.8-.2 3.1-.3.8-.1 1.4-.1 1.8-.1v.4c-.4 0-1 0-1.4.1-1.1.4-1.7 1.5-1.7 2.3 0 1.5 1.4 1.9 2.5 2l-.1.4c-1.2 0-2.7-.7-2.7-2.2 0-1.1.7-2.1 1.4-2.5-.6.1-2.8.3-3.5.4v-.4c.3-.1.5-.1.6-.1zm4.5 1.9l-.3.1c-.1-.3-.4-.7-.6-1l.3-.1c.2.2.5.7.6 1zm.8-.3l-.3.1c-.2-.3-.4-.7-.6-1l.2-.1c.2.2.5.7.7 1zm-56.6 11.2v1.9c0 .2 0 .3-.2.4-.2.1-.5.1-1.1.1 0-.1-.1-.2-.1-.3h1c.1 0 .1 0 .1-.1v-1.9h-1.8V201h1.5c.1-.2.2-.5.2-.8H380v1.7c0 1.1-.1 2.8-.8 3.9-.1 0-.2-.1-.3-.2.6-1.1.7-2.6.7-3.7v-2h5.6v.3h-2.4c-.1.3-.2.6-.3.8h2v2.5h-1.6zm-1.2.6c-.4.6-1 1.2-1.5 1.5-.1-.1-.2-.2-.3-.2.5-.4 1.1-.9 1.4-1.4l.4.1zm-.6-1.9h3.2v-.8h-3.2v.8zm0 1h3.2v-.8h-3.2v.8zm2.8.7c.6.4 1.2 1 1.5 1.4l-.3.2c-.3-.4-.9-1-1.5-1.5l.3-.1zm8.4-4v6h-.3v-.3h-5.1v.3h-.3v-6h5.7zm-.4 5.3v-5h-5.1v5h5.1zm-2.3-3.1c.3 1.2.9 2 1.9 2.4-.1.1-.2.2-.2.3-1-.4-1.6-1.2-1.9-2.4-.2 1.1-.7 1.9-1.9 2.4 0-.1-.1-.2-.2-.3 1.2-.5 1.7-1.3 1.9-2.4h-1.8v-.3h1.9c0-.4.1-.8.1-1.2h.3c0 .4 0 .8-.1 1.2h2v.3h-2zm6.1-2.3c-.5 1.2-1.3 2.2-2.2 2.8l-.3-.3c.9-.6 1.7-1.6 2.1-2.7l.4.2zm3 2.4v.2c-.1 2.2-.2 3-.5 3.2-.1.1-.3.2-.5.2h-1.1c0-.1 0-.2-.1-.3h1.1c.1 0 .2 0 .3-.1.2-.2.3-.9.4-2.9h-2.1c-.2 1.4-.7 2.7-2.4 3.4 0-.1-.1-.2-.2-.3 1.7-.6 2.1-1.8 2.3-3.1h-1.6v-.3h4.4zm-1-2.5c.5 1 1.4 2.1 2.1 2.6l-.3.3c-.8-.6-1.7-1.7-2.2-2.7l.4-.2zm5 3.9c-.1-.2-.5-.7-.8-1.1v3.3h-.3V202c-.3.9-.7 1.9-1.1 2.4 0-.1-.1-.2-.2-.3.5-.6 1-1.8 1.3-2.8h-1.1v-.3h1.2v-1.5h.3v1.5h1v.3h-1v.8c.2.3.9 1 1 1.2l-.3.2zm4-1.3h-1.1v3.6h-.3v-3.6h-1.5c0 1.1-.2 2.5-.9 3.6-.1-.1-.2-.2-.3-.2.8-1.1.9-2.5.9-3.6v-2l.3.1c.8-.2 1.8-.4 2.3-.6l.3.3c-.7.3-1.7.5-2.6.7v1.4h2.9v.3zm3.7 2.2v-1.2c-.7.4-1.3.8-1.3 1.3 0 .6.7.7 1.4.7.5 0 1.2-.1 1.8-.2v.4c-.6.1-1.3.1-1.9.1-.9 0-1.7-.2-1.7-1s.8-1.3 1.6-1.7c0-.4-.3-.5-.7-.5-.5 0-.9.2-1.3.5-.2.2-.4.4-.6.7l-.3-.2c1-1 1.4-1.8 1.6-2.3h-1.5v-.4c.4 0 .8.1 1.1.1h.5c.1-.3.2-.6.2-.9h.4c0 .2-.1.5-.2.9.7 0 1.5-.1 2.2-.2v.4c-.7.1-1.6.2-2.3.2-.2.4-.4.9-.8 1.3.3-.2.7-.3 1.1-.3.5 0 .8.3.9.7.5-.3 1.1-.5 1.5-.7.2-.1.3-.1.4-.2l.2.4c-.1 0-.3.1-.5.2-.4.2-1 .4-1.6.7v1.4h-.2zm9.1-3.9s-.1.1-.1.2c-.3.4-.9 1.3-1.8 1.9l-.3-.3c.7-.4 1.4-1.2 1.7-1.7h-5v-.4c.2 0 .5.1.8.1h4.6l.1.2zm-2.8.9c0 2-.2 3.2-2 4l-.3-.3c.2 0 .4-.2.6-.3 1.2-.7 1.4-1.8 1.4-3v-.4h.3zm5.4 1.1l-.2.3c-.3-.2-1.1-.7-1.5-.9l.2-.3c.4.1 1.3.7 1.5.9zm1 1.7c1.1-.7 2-1.6 2.6-2.5l.2.4c-.6.9-1.5 1.8-2.7 2.5-.7.4-1.6.7-2.3.9l-.2-.4c.8-.2 1.7-.5 2.4-.9zm.1-3.2l-.2.3c-.3-.2-1.1-.8-1.5-1l.2-.3c.4.2 1.2.8 1.5 1zm8.1-.4l-.1.2c-.2.6-.7 1.5-1.2 2.1.8.7 1.6 1.6 2.1 2.1l-.3.3c-.5-.6-1.3-1.5-2-2.1-.8.8-1.7 1.6-2.8 2.1l-.3-.3c1.1-.4 2.1-1.3 2.9-2.1.5-.5 1-1.5 1.2-2.1h-3.5v-.4h3.8l.2.2zm6.4 2.7c-.8-.4-2.1-.9-2.9-1.2v3.2h-.4v-5.5h.4v1.9c.9.3 2.2.8 3 1.2l-.1.4z"/><path class="st11" d="M107.7 3c-9.6 0-17.2 4.5-21.3 12.6-2.9 5.6-3.1 11.1-3.1 11.7v34.4H57.4c-4.8 0-6.5-2.1-7.5-3.9-1.3-2.3-1.5-4.9-1.6-5.4V37.9H32.9v14.8c0 .6.2 6.1 3.1 11.7C40.1 72.5 47.7 77 57.4 77h25.9v11.9h15.4V27.6c0-.4.3-3 1.5-5.4 1-1.8 2.8-3.9 7.5-3.9h35.2V3h-35.2zm.9 106.5h21m-21 6.7h22.7m-22.7 6.7h22.9m-22.9 6.7l21-.1"/><path class="st1" d="M97.3 90.6v14.2h6.6v-2.5h12.2c8.6 0 15.6 7 15.6 15.6v3.3c0 4.1-1.6 8-4.6 11s-6.9 4.6-11 4.6h-12.2v-2.5H80.4v-8.4h-9.3v-12.7h9.3v-8.4h4.2V90.6h12.7m-29.2 22.6v12.7h-34v-12.7h34m30.4-23.8H83.4v14.2h-4.2v8.4h-9.3v15.1h9.3v8.4h23.4v2.5H116c9.2 0 16.7-7.5 16.7-16.7V118c0-9.2-7.5-16.7-16.7-16.7h-13.4v2.5h-4.2l.1-14.4zM69.3 112H32.9v15.1h36.4V112z"/><path class="st0" d="M103.3 96.7h6.3l.1 49.4 9.2-.1v6.4h-15.6z"/><path class="st1" d="M109 97.3v49.4h9.2v5.2h-14.4V97.3h5.2m1.2-1.2h-7.5V153h16.7v-7.5h-9.2V96.1zm-24.6 39.4v11.3h9.2v5.1H80.4v-16.4h5.2m1.2-1.2h-7.5v18.6H96v-7.4h-9.2v-11.2z"/><path class="st0" d="M66.5 108.4h6.4v22.3h-6.4z"/><path class="st1" d="M72.2 109v21.1H67V109h5.2m1.2-1.2h-7.5v23.4h7.5v-23.4z"/><path class="st0" d="M79.8 86.6h22.3V93H79.8z"/><path class="st1" d="M101.5 87.2v5.2H80.4v-5.2h21.1m1.2-1.2H79.3v7.5h23.4V86z"/><path class="st0" d="M71.8 163.6c-6.6 0-12-5.4-12-12 0-3.2 1.2-6.2 3.5-8.5s5.3-3.5 8.5-3.5c6.6 0 12 5.4 12 12-.1 6.6-5.4 11.9-12 12z"/><path class="st1" d="M71.8 140.2c6.3 0 11.4 5.1 11.4 11.4 0 6.3-5.1 11.4-11.4 11.4-6.3 0-11.4-5.1-11.4-11.4 0-3 1.2-5.9 3.3-8 2.2-2.2 5-3.4 8.1-3.4m0-1.2c-6.9 0-12.6 5.6-12.6 12.6 0 6.9 5.6 12.6 12.6 12.6 6.9 0 12.6-5.6 12.6-12.6-.1-7-5.7-12.6-12.6-12.6z"/><path class="st12" d="M63.6 131.2c-6.7 0-12.2 5.5-12.2 12.2m12.2-8.6c-4.8 0-8.6 3.9-8.6 8.6m8.6-5c-2.8 0-5.1 2.3-5.1 5.1"/><path class="st1" d="M63.4 145.2c1.1 0 2-.9 2-2s-.9-2-2-2-2 .9-2 2c-.1 1.1.9 2 2 2zm10.1-1h3.8v1.6h-3.8zm0 3.2h3.8v1.6h-3.8zm0 3.2h3.8v1.6h-3.8z"/><path class="st1" d="M71.8 145.9v-1.6h1.8v-.5c0-1-.8-1.8-1.8-1.8s-1.8.8-1.8 1.8v10.4c-1.2.6-2 1.9-2 3.4 0 2.1 1.7 3.8 3.8 3.8 2.1 0 3.8-1.7 3.8-3.8 0-1.5-.8-2.7-2-3.4v-1.8h-1.8v-1.6h1.8v-1.6h-1.8v-1.6h1.8V146l-1.8-.1z"/><path class="st0" d="M40.4 58.9c-6.6 0-12-5.4-12-12s5.4-12 12-12 12 5.4 12 12-5.4 12-12 12z"/><path class="st1" d="M40.4 35.5c6.3 0 11.4 5.1 11.4 11.4 0 6.3-5.1 11.4-11.4 11.4-6.3 0-11.4-5.1-11.4-11.4 0-6.3 5.1-11.4 11.4-11.4m0-1.2c-6.9 0-12.6 5.6-12.6 12.6s5.6 12.6 12.6 12.6c6.9 0 12.6-5.6 12.6-12.6s-5.6-12.6-12.6-12.6z"/><path d="M44.6 55.7c0-2.3-1.9-4.2-4.2-4.2-2.3 0-4.2 1.9-4.2 4.2" fill="none" stroke="#162789" stroke-width=".738" stroke-linecap="square" stroke-miterlimit="10"/><path class="st12" d="M32.3 26.6c-6.7 0-12.2 5.5-12.2 12.2m12.2-8.7c-4.8 0-8.6 3.9-8.6 8.6m8.6-5c-2.8 0-5.1 2.3-5.1 5.1"/><path class="st1" d="M32 40.5c1.1 0 2-.9 2-2s-.9-2-2-2-2 .9-2 2 .9 2 2 2zm10.3 6.4c0 1-.8 1.9-1.9 1.9-1 0-1.9-.8-1.9-1.9 0-1 .8-1.9 1.9-1.9 1.1 0 1.9.9 1.9 1.9z"/><path class="st1" d="M41.8 45.6l-2.7 2.6-4-6.6zm-2.1 10.1c0 .4.3.8.8.8.4 0 .8-.3.8-.8 0-.4-.3-.8-.8-.8s-.8.4-.8.8z"/><path class="st1" d="M39.9 55.1l1.1 1.1 1.6-2.7z"/><path d="M48.9 55.3l-2.6-2.5M32 38.5l2.5 2.5M32 46.9h-3.5m23.8 0h-3.5m-14.3 5.9L32 55.3m16.9-16.8L46.3 41m-5.9-6v3.5" stroke-width=".738" stroke-linecap="round" fill="none" stroke="#162789" stroke-miterlimit="10"/><path class="st0" d="M90.9 41.1c-6.6 0-12-5.4-12-12s5.4-12 12-12 12 5.4 12 12-5.4 12-12 12z"/><path class="st1" d="M90.9 17.7c6.3 0 11.4 5.1 11.4 11.4 0 6.3-5.1 11.4-11.4 11.4-6.3 0-11.4-5.1-11.4-11.4 0-6.3 5.1-11.4 11.4-11.4m0-1.2c-6.9 0-12.6 5.6-12.6 12.6 0 6.9 5.6 12.6 12.6 12.6 6.9 0 12.6-5.6 12.6-12.6 0-6.9-5.7-12.6-12.6-12.6z"/><path class="st12" d="M82.8 8.8c-6.7 0-12.2 5.5-12.2 12.2m12.2-8.7c-4.8 0-8.6 3.9-8.6 8.6m8.6-5c-2.8 0-5.1 2.3-5.1 5.1"/><path class="st1" d="M82.5 22.7c1.1 0 2-.9 2-2s-.9-2-2-2-2 .9-2 2 .9 2 2 2zm11.8 4.9c0 1.9-1.5 3.4-3.4 3.4s-3.4-1.5-3.4-3.4 3.4-8.3 3.4-8.3 3.4 6.4 3.4 8.3z"/><path class="st11" d="M79.8 32.4c2.2 0 2.2 2.2 4.5 2.2 2.2 0 2.2-2.2 4.5-2.2 2.2 0 2.2 2.2 4.5 2.2 2.2 0 2.2-2.2 4.5-2.2"/><path class="st1" d="M100.9 32.7L97.2 36v-6.7z"/><path class="st0" d="M130.3 110.8c-6.6 0-12-5.4-12-12s5.4-12 12-12 12 5.4 12 12c0 3.2-1.2 6.2-3.5 8.5s-5.3 3.5-8.5 3.5z"/><path class="st1" d="M130.3 87.5c6.3 0 11.4 5.1 11.4 11.4 0 6.3-5.1 11.4-11.4 11.4-6.3 0-11.4-5.1-11.4-11.4 0-6.3 5.1-11.4 11.4-11.4m0-1.2c-6.9 0-12.6 5.6-12.6 12.6 0 6.9 5.6 12.6 12.6 12.6 6.9 0 12.6-5.6 12.6-12.6s-5.6-12.6-12.6-12.6z"/><path class="st12" d="M122.2 78.5c-6.7 0-12.2 5.5-12.2 12.2m12.2-8.6c-4.8 0-8.6 3.9-8.6 8.6m8.6-5.1c-2.8 0-5.1 2.3-5.1 5.1"/><path class="st1" d="M121.9 92.5c1.1 0 2-.9 2-2s-.9-2-2-2-2 .9-2 2 .9 2 2 2zm9.9 3.1h-3.1l-.8 2.6h-1.4l3-9h1.6l3 9h-1.5l-.8-2.6zm-.3-1.1l-.4-1.2-.9-3c-.3 1-.5 2-.8 3l-.4 1.2h2.5zm-2.3 5h4.1l-2.4 2.6h3.4l-7.5 6.6 2.8-4.8h-2.4z"/><path class="st11" d="M38 119.5h6.7"/><path class="st1" d="M43.9 122.4l5.1-2.9-5.1-2.9z"/><path class="st11" d="M128.7 10.7h6.8"/><path class="st1" d="M134.6 13.6l5.1-2.9-5.1-3z"/></svg>