<svg id="レイヤー_1" data-name="レイヤー 1" xmlns="http://www.w3.org/2000/svg" viewBox="0 0 605.35 475.36"><defs><style>.cls-1{fill:#162789}.cls-2{fill:none;stroke:#162789;stroke-width:3px;stroke-linecap:round;stroke-linejoin:round}</style></defs><path class="cls-1" d="M365.52 224.52v8.18a6.79 6.79 0 01-2.42.85h-7.12a3.39 3.39 0 01-2.4-.62c-.75-.75-.75-2.5-.74-5.14v-2.12l-1.06.9c-6.88 5.83-14.15 8.78-21.62 8.78a32.87 32.87 0 01-11-2c-8.69-3.07-14.27-10.65-14.93-20.28a25.63 25.63 0 0113.45-24.78c7.92-4.08 34.58-4.23 34.85-4.23h.64v-.64c0-.18-.22-18.5-16.09-21.88a16.81 16.81 0 00-3.58-.34 56.75 56.75 0 00-11.5 1.67 30.83 30.83 0 01-4.16.75c-1.83 0-3.22-1.87-3.87-3.48-1-2.46-1.94-4.78 1.8-6.55a55.87 55.87 0 0118.31-3.59 21.33 21.33 0 012.77.16c10.85 1.35 18.43 5.59 23.85 13.36 3.06 4.38 4.82 11.63 4.82 19.87v41.15m-25.37-87.3a60.09 60.09 0 00-21.93-.83 44.39 44.39 0 01-25.41-4 36 36 0 00-36.15 3.31 33.12 33.12 0 017.72 2.1c10 4.46 15.76 10.47 18.66 19.47 1.62 5 1.18 12.35-1.22 20.16l-5 16.46c-3.07 10.05-5.8 18.94-7 22.88-.29.95-.58 1.88-.86 2.77 7.32 21 25.47 37.25 48.62 40.61 34.71 5 67-20.82 70-57.13 2.59-30.82-17.85-59.23-47.36-65.83m-69.68 38l.31-1c.06-.18 5.31-18.08-9.16-26.11-3.9-2.16-9.64-2.74-14.11-3.11a37.71 37.71 0 00-6.71 17.94 40.52 40.52 0 00-.13 5.81c11 .86 28.59 6.13 28.78 6.19zm81.89 18.58l-.61.05c-1.74.14-10.61.86-15.22 1.33l-.67.06c-5.6.57-11.38 1.16-15.32 5.6a14.83 14.83 0 00-2.93 14.33c2.2 6.22 8 9.93 15.46 9.93a20.44 20.44 0 0014.22-5.57 14.55 14.55 0 002.46-3.26c3.64-6.51 3.47-15.48 2.68-21.86zm-86.27-10.62c-2.41-.53-10.62-2.32-14.95-3.17l-.66-.14a48.82 48.82 0 00-8-1.1h-.65a14.86 14.86 0 00-8 2.08 15.27 15.27 0 00-7.2 13.23c.28 6.77 4.83 12.15 12.17 14.38a21.69 21.69 0 006.41 1 19.52 19.52 0 009.15-2.17 15.46 15.46 0 003.4-2.46 20.91 20.91 0 002.36-2.77c3.85-5.22 5.79-12.21 6.74-17.59l.18-1z"/><rect class="cls-2" x="42.24" y="221.48" width="13.09" height="13.97" rx="1.42"/><rect class="cls-2" x="78.32" y="221.48" width="13.09" height="13.97" rx="1.42"/><rect class="cls-2" x="114.4" y="221.48" width="13.09" height="13.97" rx="1.42"/><path class="cls-2" d="M127.87 196.76a.82.82 0 01-1.28-.8v-19.4a1.42 1.42 0 00-1.41-1.42h-8.46a1.42 1.42 0 00-1.41 1.42v24.83a2.48 2.48 0 01-1.28 2l-9.84 4.73a.82.82 0 01-1.28-.8v-14.49a.82.82 0 00-1.28-.8L68.1 208.15a.82.82 0 01-1.28-.8v-14.52a.82.82 0 00-1.27-.8L32 208.15a2.48 2.48 0 00-1.28 2v51.46a1.43 1.43 0 001.42 1.42h105.43a1.43 1.43 0 001.42-1.42v-68.78a.82.82 0 00-1.28-.8z"/><path class="cls-2" d="M127.87 196.76a.82.82 0 01-1.28-.8v-19.4a1.42 1.42 0 00-1.41-1.42h-8.46a1.42 1.42 0 00-1.41 1.42v24.83a2.48 2.48 0 01-1.28 2l-9.84 4.73a.82.82 0 01-1.28-.8v-14.49a.82.82 0 00-1.28-.8L68.1 208.15a.82.82 0 01-1.28-.8v-14.52a.82.82 0 00-1.27-.8L32 208.15a2.48 2.48 0 00-1.28 2v51.46a1.43 1.43 0 001.42 1.42h105.43a1.43 1.43 0 001.42-1.42v-68.78a.82.82 0 00-1.28-.8z"/><path class="cls-1" d="M0 278.24h1.86l1.89 5.21c.24.69.45 1.39.69 2.09h.07c.24-.7.44-1.4.67-2.09l1.87-5.21h1.87v10.31H7.41v-5.1c0-.92.13-2.26.21-3.19h-.06l-.82 2.38L5 287.55H4l-1.81-4.91-.81-2.38h-.12c.07.93.2 2.27.2 3.19v5.1H0zm11.73 8.26c0-1.65 1.4-2.5 4.61-2.85 0-.9-.34-1.68-1.47-1.68a4.26 4.26 0 00-2.23.78l-.6-1.09a5.87 5.87 0 013.11-1c1.92 0 2.8 1.22 2.8 3.26v4.64h-1.32l-.13-.88h-.05a3.82 3.82 0 01-2.45 1.05 2.13 2.13 0 01-2.27-2.23zm4.61.06v-1.89c-2.28.28-3.05.85-3.05 1.72s.52 1.07 1.2 1.07a2.75 2.75 0 001.85-.9zm4.59-5.72h1.32l.12 1.07h.05a3.63 3.63 0 012.58-1.26c1.64 0 2.37 1.09 2.37 3.05v4.85h-1.65v-4.65c0-1.33-.39-1.86-1.3-1.86a2.59 2.59 0 00-1.89 1v5.46h-1.6zm9.34 4.85v-4.85h1.61v4.66c0 1.33.38 1.84 1.29 1.84.71 0 1.2-.33 1.85-1.14v-5.36h1.61v7.71h-1.32l-.13-1.16a3.22 3.22 0 01-2.52 1.34c-1.66 0-2.39-1.08-2.39-3.04zm13.22-7.02a2.21 2.21 0 00-.84-.19c-.69 0-1 .45-1 1.38v1h1.56v1.29h-1.59v6.42H40v-6.42h-1v-1.2l1-.09v-1c0-1.58.72-2.68 2.44-2.68a3.57 3.57 0 011.36.27zm1.03 7.83c0-1.65 1.4-2.5 4.61-2.85 0-.9-.34-1.68-1.47-1.68a4.26 4.26 0 00-2.23.78l-.6-1.09a5.87 5.87 0 013.11-1c1.92 0 2.8 1.22 2.8 3.26v4.64h-1.32l-.14-.88a3.84 3.84 0 01-2.45 1.06 2.13 2.13 0 01-2.31-2.24zm4.61.06v-1.89c-2.28.28-3.05.85-3.05 1.72s.51 1.07 1.2 1.07a2.75 2.75 0 001.85-.9zm4.04-1.85a3.78 3.78 0 013.83-4.06 3.32 3.32 0 012.26.88l-.8 1.05a2 2 0 00-1.39-.6c-1.29 0-2.21 1.09-2.21 2.73s.88 2.7 2.17 2.7a2.6 2.6 0 001.68-.7l.66 1.07a3.75 3.75 0 01-2.49 1c-2.11-.05-3.71-1.52-3.71-4.07zm8.58 1.29v-3.9h-1.12v-1.2l1.2-.09.18-2.12h1.36v2.12h2v1.29h-2v3.9c0 .93.32 1.4 1.12 1.4a2.23 2.23 0 00.82-.18l.3 1.19a5 5 0 01-1.52.28c-1.73.04-2.34-1.04-2.34-2.69zm5.9-.31v-4.85h1.61v4.66c0 1.33.38 1.84 1.29 1.84.71 0 1.2-.33 1.85-1.14v-5.36H74v7.71h-1.31l-.13-1.16a3.22 3.22 0 01-2.56 1.34c-1.64 0-2.35-1.08-2.35-3.04zm9.48-4.85h1.31l.13 1.39a2.68 2.68 0 012.19-1.58 1.78 1.78 0 01.86.17l-.29 1.4a2.15 2.15 0 00-.77-.13c-.63 0-1.39.44-1.88 1.65v4.81h-1.55zm6.2-2.39a.94.94 0 011-.95 1 1 0 110 1.9 1 1 0 01-1-.95zm.22 2.39h1.6v7.71h-1.6zm4.72 0h1.32l.12 1.07a3.67 3.67 0 012.55-1.26c1.64 0 2.37 1.09 2.37 3.05v4.85h-1.57v-4.65c0-1.33-.39-1.86-1.3-1.86a2.59 2.59 0 00-1.89 1v5.46h-1.6zm8.88 9.16a2 2 0 011.12-1.68v-.07a1.41 1.41 0 01-.7-1.28 1.91 1.91 0 01.85-1.43 2.65 2.65 0 01-1-2.05 2.78 2.78 0 013-2.77 3.31 3.31 0 011.12.19h2.73v1.21h-1.47a2.11 2.11 0 01.5 1.41 2.63 2.63 0 01-2.88 2.65 2.54 2.54 0 01-1.08-.24 1 1 0 00-.42.82c0 .46.31.75 1.29.75h1.41c1.82 0 2.77.56 2.77 1.88 0 1.48-1.57 2.69-4 2.69-1.9-.08-3.24-.76-3.24-2.08zm5.67-.41c0-.64-.51-.84-1.44-.84h-1.17a4.85 4.85 0 01-1-.11 1.38 1.38 0 00-.66 1.12c0 .76.78 1.2 2.06 1.2s2.21-.67 2.21-1.39zm-1-6.15a1.47 1.47 0 10-2.91 0 1.47 1.47 0 102.91 0zm8.67-5.2h1.62v10.31h-1.62zm4.88 2.6h1.32l.13 1.07a3.65 3.65 0 012.55-1.26c1.64 0 2.36 1.09 2.36 3.05v4.85h-1.61v-4.65c0-1.33-.39-1.86-1.3-1.86a2.63 2.63 0 00-1.89 1v5.46h-1.6zm8.92 3.87c0-2.51 1.58-4.06 3.31-4.06a3 3 0 012.07.87l-.07-1.28v-2.86h1.61v11.17h-1.32l-.14-.87a3.21 3.21 0 01-2.24 1.05c-1.97 0-3.22-1.47-3.22-4.02zm5.31 1.75v-3.77a2.44 2.44 0 00-1.69-.7c-1.08 0-2 1-2 2.69s.68 2.72 1.89 2.72a2.25 2.25 0 001.8-.94zm4.63-.77v-4.85h1.61v4.66c0 1.33.38 1.84 1.29 1.84.72 0 1.21-.33 1.85-1.14v-5.36h1.61v7.71h-1.32l-.12-1.16a3.24 3.24 0 01-2.53 1.34c-1.62 0-2.39-1.08-2.39-3.04zm8.67 1.98l.75-1a3.4 3.4 0 002.19.88c.92 0 1.36-.45 1.36-1s-.87-1-1.71-1.33c-1-.4-2.2-.94-2.2-2.25s1-2.25 2.73-2.25a4.06 4.06 0 012.51.91l-.76 1a2.89 2.89 0 00-1.72-.67c-.84 0-1.23.42-1.23.95s.79.91 1.63 1.22c1.08.41 2.27.89 2.27 2.34 0 1.29-1 2.34-2.92 2.34a4.76 4.76 0 01-2.9-1.14zm8.17-1.67v-3.9H150v-1.2l1.19-.09.19-2.12h1.35v2.12h2v1.29h-2v3.9c0 .93.33 1.4 1.12 1.4a2.24 2.24 0 00.83-.18l.3 1.19a5 5 0 01-1.52.28c-1.78.04-2.39-1.04-2.39-2.69zm6-5.16h1.31l.13 1.39a2.68 2.68 0 012.19-1.58 1.78 1.78 0 01.86.17l-.29 1.4a2.15 2.15 0 00-.77-.13c-.63 0-1.39.44-1.88 1.65v4.81h-1.59zm10.12 8.16c-.6 1.65-1.42 2.76-3 2.76a3 3 0 01-1-.15l.31-1.26a2.14 2.14 0 00.56.11c.84 0 1.33-.62 1.61-1.44l.16-.54-3.06-7.65h1.66l1.42 4c.23.69.47 1.46.7 2.17h.07l.61-2.17 1.23-4H170zm-9.99-173.91h-3.59l-.88 3h-1.66l3.42-10.31h1.88l3.42 10.22h-1.73zm-.4-1.27l-.4-1.39c-.35-1.12-.66-2.27-1-3.43h-.06a41.25 41.25 0 01-1 3.43l-.42 1.39zm4.34 5.64a2.06 2.06 0 011.12-1.68v-.07a1.42 1.42 0 01-.7-1.27 1.92 1.92 0 01.86-1.43V115a2.61 2.61 0 01-1-2 2.78 2.78 0 013-2.78 3.21 3.21 0 011.12.2h2.73v1.21h-1.47a2 2 0 01.51 1.41 2.64 2.64 0 01-2.89 2.65 2.77 2.77 0 01-1.08-.24 1 1 0 00-.42.81c0 .46.31.76 1.29.76h1.41c1.83 0 2.78.56 2.78 1.88 0 1.48-1.57 2.69-4 2.69-1.91-.09-3.26-.78-3.26-2.13zm5.67-.4c0-.65-.5-.84-1.44-.84h-1.16a4.88 4.88 0 01-1-.11 1.37 1.37 0 00-.66 1.12c0 .75.79 1.2 2.06 1.2s2.2-.66 2.2-1.37zm-1-6.15a1.47 1.47 0 10-2.92 0 1.47 1.47 0 102.92 0zm4.68-2.58h1.32l.13 1.39a2.65 2.65 0 012.18-1.59 2 2 0 01.87.17l-.29 1.4a2.39 2.39 0 00-.77-.12c-.63 0-1.39.43-1.88 1.65V118h-1.6zm6.2-2.39a1 1 0 111 1 1 1 0 01-1-1zm.23 2.39h1.59V118h-1.59zm4.17 3.87a3.79 3.79 0 013.81-4.07 3.3 3.3 0 012.25.89l-.79 1a2 2 0 00-1.39-.6c-1.29 0-2.21 1.09-2.21 2.73s.88 2.7 2.17 2.7a2.65 2.65 0 001.68-.7l.66 1.06a3.72 3.72 0 01-2.5 1c-2.08.01-3.68-1.46-3.68-4.01zm8.39.98v-4.85h1.61V115c0 1.33.37 1.85 1.29 1.85.71 0 1.2-.34 1.84-1.15v-5.35h1.62V118h-1.32l-.13-1.17a3.22 3.22 0 01-2.52 1.35c-1.68.04-2.39-1.04-2.39-3zm9.52 1.05v-9.36h1.6v9.44c0 .44.2.59.39.59a1.07 1.07 0 00.27 0l.21 1.22a2.61 2.61 0 01-.87.13c-1.21-.03-1.6-.78-1.6-2.02zm5.08-.72v-3.89H203v-1.2l1.19-.09.18-2.13h1.36v2.13h2v1.29h-2v3.91c0 .92.32 1.4 1.12 1.4a2.51 2.51 0 00.83-.18l.29 1.19a4.89 4.89 0 01-1.51.28c-1.78 0-2.38-1.08-2.38-2.71zm5.92-.33v-4.85h1.61V115c0 1.33.38 1.85 1.29 1.85.71 0 1.21-.34 1.85-1.15v-5.35h1.61V118H215l-.12-1.17a3.22 3.22 0 01-2.53 1.35c-1.66.04-2.35-1.04-2.35-3zm9.45-4.85h1.32l.12 1.39a2.67 2.67 0 012.19-1.59 2 2 0 01.87.17l-.3 1.4a2.35 2.35 0 00-.77-.12c-.63 0-1.38.43-1.87 1.65V118h-1.6zm5.72 3.87c0-2.51 1.71-4.07 3.52-4.07 2.05 0 3.14 1.48 3.14 3.66a4.27 4.27 0 01-.07.81h-5a2.33 2.33 0 002.38 2.36 3.21 3.21 0 001.83-.58l.56 1a4.62 4.62 0 01-2.6.82 3.71 3.71 0 01-3.76-4zm5.27-.7c0-1.33-.6-2.1-1.72-2.1a2.09 2.09 0 00-2 2.1z"/><path class="cls-2" d="M120.7 91.85h18l44.43-41.63h-8.19L120.7 91.85zm36.89 0h18l24.34-41.63h-8.2l-34.14 41.63z"/><circle cx="163.44" cy="27" r="8.3" stroke-linecap="round" stroke-linejoin="round" stroke="#162789" stroke-width="3" fill="#162789"/><path class="cls-2" d="M167.9 22.55l9.47-9.48m-18.39 9.48l-9.47-9.48M157.13 27H147m16.44 6.31v10.14m6.3-16.45h10.14m-16.44-6.3V10.56m-4.46 20.9l-9.47 9.48m18.39-9.48l9.47 9.48M238 78.74V65s-1-25.88 27.48-25.88c0 0-2.64 25.36-27.46 25.88"/><path class="cls-2" d="M238 82.06V65s1-25.88-27.47-25.88c0 0 2.64 25.36 27.47 25.88"/><path class="cls-1" d="M416.71 107.73h6.11v1.35h-4.49v3.16h3.81v1.35h-3.81V118h-1.62zm8.29.21a1 1 0 011-1 1 1 0 110 1.91 1 1 0 01-1-.91zm.22 2.39h1.6V118h-1.6zm3.88 6.82l.75-1a3.46 3.46 0 002.15.85c.92 0 1.36-.45 1.36-1s-.87-1-1.71-1.33c-1-.39-2.2-.94-2.2-2.24s1-2.26 2.73-2.26a4.06 4.06 0 012.51.92l-.76 1a2.89 2.89 0 00-1.72-.67c-.84 0-1.23.42-1.23.95s.8.91 1.64 1.22c1.07.4 2.26.88 2.26 2.34 0 1.29-1 2.34-2.92 2.34a4.7 4.7 0 01-2.86-1.12zm8.23-10.28h1.6v3l-.06 1.52a3.59 3.59 0 012.49-1.22c1.64 0 2.37 1.1 2.37 3.06V118h-1.61v-4.66c0-1.33-.39-1.86-1.3-1.86a2.63 2.63 0 00-1.89 1V118h-1.6zm8.85 7.33c0-2.51 1.7-4.07 3.51-4.07 2.05 0 3.14 1.48 3.14 3.66a4.27 4.27 0 01-.07.81h-5a2.33 2.33 0 002.38 2.36 3.24 3.24 0 001.84-.58l.56 1a4.68 4.68 0 01-2.61.82 3.7 3.7 0 01-3.75-4zm5.26-.7c0-1.33-.6-2.1-1.72-2.1a2.08 2.08 0 00-2 2.1zm3.89-3.17h1.32l.13 1.39a2.65 2.65 0 012.18-1.59 2 2 0 01.87.17l-.29 1.4a2.39 2.39 0 00-.77-.12c-.63 0-1.39.43-1.88 1.65V118h-1.6zm10.13 8.17c-.61 1.65-1.42 2.76-3 2.76a2.69 2.69 0 01-1-.16l.31-1.26a2.14 2.14 0 00.56.11c.84 0 1.33-.61 1.61-1.44l.15-.53-3.09-7.65h1.65l1.43 4c.23.68.46 1.45.7 2.17h.07l.6-2.17 1.24-4h1.57z"/><path class="cls-2" d="M382.22 60.35c4.11 5.94 12.23 8.91 20.36 8.91a27.43 27.43 0 0020.36-8.91 27.72 27.72 0 00-40.72 0z"/><path class="cls-2" d="M422.94 60.35l9.75 6.5V53.84l-9.75 6.51m-15.63 25.17c4.12 5.94 12.23 8.91 20.36 8.91A27.41 27.41 0 00448 85.52a27.72 27.72 0 00-40.72 0zm40.72 0l9.75 6.51V79.02l-9.75 6.5m-.59-26.02c4.12 5.94 12.23 8.91 20.36 8.91a27.45 27.45 0 0020.37-8.91 27.73 27.73 0 00-40.73 0zm40.73 0l9.75 6.5V52.99l-9.75 6.51m-59.89-24.9l-11.62-11.97h52.11l-5.98 11.97m-24.83-22.54h21.42v10.56h-21.42zm7.93-10.56h6.25v10.56h-6.25z"/><path class="cls-2" d="M513 38.12a14.36 14.36 0 00-17.8 0 14.36 14.36 0 01-17.8 0 14.36 14.36 0 00-17.8 0 14.36 14.36 0 01-17.8 0 14.36 14.36 0 00-17.8 0 14.36 14.36 0 01-17.8 0 14.36 14.36 0 00-17.8 0 14.36 14.36 0 01-17.8 0"/><path class="cls-1" d="M511.38 278.24H513v4.2h4.41v-4.2H519v10.31h-1.62v-4.69H513v4.69h-1.63zm10.83 7.45v-4.85h1.61v4.66c0 1.33.37 1.84 1.29 1.84.71 0 1.2-.33 1.84-1.14v-5.36h1.62v7.71h-1.32l-.13-1.16a3.24 3.24 0 01-2.52 1.34c-1.68 0-2.39-1.08-2.39-3.04zm9.47-4.85H533l.13 1.07a3.65 3.65 0 012.55-1.26c1.64 0 2.36 1.09 2.36 3.05v4.85h-1.61v-4.65c0-1.33-.39-1.86-1.3-1.86a2.63 2.63 0 00-1.89 1v5.46h-1.6zm9.69 5.16v-3.9h-1.12v-1.2l1.19-.09.18-2.12H543v2.12h2v1.29h-2v3.9c0 .93.32 1.4 1.12 1.4a2.24 2.24 0 00.83-.18l.29 1.19a4.89 4.89 0 01-1.51.28c-1.73.04-2.36-1.04-2.36-2.69zm5.77-7.55a.94.94 0 011-.95 1 1 0 110 1.9 1 1 0 01-1-.95zm.22 2.39H549v7.71h-1.6zm4.72 0h1.32l.12 1.07h.05a3.63 3.63 0 012.55-1.26c1.63 0 2.36 1.09 2.36 3.05v4.85h-1.61v-4.65c0-1.33-.39-1.86-1.3-1.86a2.59 2.59 0 00-1.89 1v5.46h-1.6zM561 290a2 2 0 011.12-1.68v-.07a1.43 1.43 0 01-.7-1.28 1.91 1.91 0 01.85-1.43 2.65 2.65 0 01-1-2.05 2.78 2.78 0 013-2.77 3.31 3.31 0 011.12.19h2.73v1.21h-1.47a2.11 2.11 0 01.5 1.41 2.63 2.63 0 01-2.88 2.65 2.57 2.57 0 01-1.08-.24 1 1 0 00-.42.82c0 .46.31.75 1.29.75h1.41c1.82 0 2.78.56 2.78 1.88 0 1.48-1.57 2.69-4 2.69-1.95-.08-3.25-.76-3.25-2.08zm5.67-.41c0-.64-.5-.84-1.44-.84H564a4.85 4.85 0 01-1-.11 1.4 1.4 0 00-.66 1.12c0 .76.78 1.2 2.06 1.2s2.23-.67 2.23-1.39zm-1-6.15a1.47 1.47 0 10-2.91 0 1.47 1.47 0 102.91 0z"/><path class="cls-2" d="M587.3 209.38l-7.75-1.89.71-4.89-8.46-1.5.71-4.89-13.38.38v-4.52l-13 .76.35-4.14-15.14 1.5.71-6.39c-32 4.89-33.45 26.7-33.45 26.7L482 218l5.28 9.4H506l8.7 24.07h5.56l-2.72-19.56h52.74l9.12 19.56h6.41l-3.79-21.06z"/><path class="cls-2" d="M558.63 231.94l1.54 10.1-6.59 9.46h7.31l9.16-9.47.27-10.09h-11.69zm-52.59-4.51l-7.16 24.07h7.31l5.05-9.4-5.2-14.67zm-1.84-10.16s-2.11 11.66-13.38 16.93m94.01-13.2s5.28 13.54 19 11.28m-73.58-31.18l5.64 4.14-5.99 5.26m9.16 4.14l5.63 4.14-5.98 5.26m-17.26-9.4l5.64 4.14-5.99 5.26"/><circle class="cls-2" cx="513.45" cy="205.21" r="1.16"/><path class="cls-2" d="M547.86 202.98l5.64 4.14-5.99 5.26m7.04 3.39l5.63 4.14-5.98 5.26m11.97-15.42l5.63 4.14-5.98 5.26"/><path class="cls-1" d="M140.79 463.28h-3v-1.36h7.69v1.36h-3v9h-1.63zm6.29 1.25h1.32l.12 1.38a2.68 2.68 0 012.19-1.58 2 2 0 01.87.17l-.3 1.4a2.34 2.34 0 00-.77-.13c-.63 0-1.38.44-1.87 1.66v4.8h-1.6zm5.59 5.66c0-1.66 1.4-2.51 4.6-2.86 0-.9-.33-1.68-1.47-1.68a4.19 4.19 0 00-2.22.78l-.61-1.09a5.87 5.87 0 013.11-1c1.92 0 2.8 1.22 2.8 3.26v4.64h-1.31l-.14-.88a3.85 3.85 0 01-2.46 1.06 2.12 2.12 0 01-2.3-2.23zm4.6.05v-1.89c-2.28.28-3.05.86-3.05 1.72s.52 1.07 1.2 1.07a2.68 2.68 0 001.85-.9zm4.59-5.71h1.32l.12 1.06a3.65 3.65 0 012.55-1.26c1.64 0 2.36 1.09 2.36 3.05v4.85h-1.61v-4.65c0-1.33-.39-1.86-1.3-1.86a2.63 2.63 0 00-1.89 1v5.46h-1.6zm8.63 6.82l.75-1a3.4 3.4 0 002.19.88c.92 0 1.36-.44 1.36-1s-.87-1-1.71-1.33c-1-.39-2.2-.94-2.2-2.24s1-2.26 2.73-2.26a4.06 4.06 0 012.51.91l-.76 1a2.84 2.84 0 00-1.72-.68c-.84 0-1.23.42-1.23 1s.79.91 1.63 1.22c1.08.4 2.27.88 2.27 2.33 0 1.29-1 2.34-2.92 2.34a4.76 4.76 0 01-2.9-1.17zm8.23-6.82H180l.12.84a4 4 0 012.37-1c2 0 3.05 1.56 3.05 3.92 0 2.65-1.58 4.16-3.32 4.16a3.14 3.14 0 01-2-.87v3.82h-1.6zm5.24 3.75c0-1.61-.52-2.6-1.81-2.6a2.67 2.67 0 00-1.83.93v3.77a2.59 2.59 0 001.68.7c1.12 0 2-.99 2-2.8zm3.73.11a3.65 3.65 0 113.63 4 3.73 3.73 0 01-3.63-4zm5.61 0c0-1.64-.76-2.73-2-2.73s-2 1.09-2 2.73.76 2.71 2 2.71 2-1.1 2-2.71zm4.24-3.86h1.31l.13 1.38a2.68 2.68 0 012.19-1.58 1.93 1.93 0 01.86.17l-.29 1.4a2.39 2.39 0 00-.77-.13c-.63 0-1.39.44-1.88 1.66v4.8h-1.59zm6.67 5.18v-3.89h-1.12v-1.21l1.19-.08.18-2.13h1.36v2.13h2v1.29h-2v3.9c0 .93.33 1.4 1.12 1.4a2.24 2.24 0 00.83-.18l.29 1.19a4.89 4.89 0 01-1.51.28c-1.74 0-2.34-1.08-2.34-2.7zm5.21.48c0-1.66 1.4-2.51 4.61-2.86 0-.9-.34-1.68-1.47-1.68a4.26 4.26 0 00-2.23.78l-.6-1.09a5.87 5.87 0 013.11-1c1.92 0 2.8 1.22 2.8 3.26v4.64h-1.32l-.14-.88a3.84 3.84 0 01-2.45 1.06 2.13 2.13 0 01-2.31-2.23zm4.61.05v-1.89c-2.28.28-3.06.86-3.06 1.72s.52 1.07 1.21 1.07a2.7 2.7 0 001.82-.9zm4.6-.53v-3.89h-1.12v-1.21l1.19-.08.18-2.13h1.36v2.13h2v1.29h-2v3.9c0 .93.33 1.4 1.12 1.4a2.24 2.24 0 00.83-.18l.29 1.19a4.89 4.89 0 01-1.51.28c-1.74 0-2.34-1.08-2.34-2.7zm5.77-7.58a.94.94 0 011-.95 1 1 0 110 1.9 1 1 0 01-1-.95zm.22 2.4h1.6v7.7h-1.6zm4.17 3.86a3.65 3.65 0 113.63 4 3.73 3.73 0 01-3.63-4zm5.61 0c0-1.64-.76-2.73-2-2.73s-2 1.09-2 2.73.76 2.71 2 2.71 2-1.1 2-2.71zm4.24-3.86H240l.13 1.06a3.67 3.67 0 012.55-1.26c1.64 0 2.37 1.09 2.37 3.05v4.85h-1.61v-4.65c0-1.33-.39-1.86-1.3-1.86a2.63 2.63 0 00-1.9 1v5.46h-1.59z"/><path class="cls-2" d="M134.91 418.56h-10.85v-19.35l5.73-15.77h25.44v35.12h-7.88"/><path class="cls-2" d="M133.51 399.46l3.37-9.26h8.9v9.26h-12.27z"/><circle class="cls-2" cx="141.25" cy="422.13" r="6.45"/><path class="cls-2" d="M179.91 436.32h-10.85v-19.34l5.73-15.77h25.44v35.11h-7.88"/><path class="cls-2" d="M178.51 417.22l3.37-9.25h8.9v9.25h-12.27z"/><circle class="cls-2" cx="186.26" cy="439.9" r="6.45"/><path class="cls-2" d="M247.65 436.32h6.44v-8.88h-53.86v8.88h35.44"/><path class="cls-2" d="M200.23 390.82h53.86v36.63h-53.86z"/><circle class="cls-2" cx="241.88" cy="439.9" r="6.45"/><path class="cls-1" d="M415.33 461.92h1.86l1.89 5.21c.24.69.45 1.39.69 2.09h.07c.24-.7.43-1.4.67-2.09l1.87-5.21h1.87v10.31h-1.51v-5.1c0-.92.13-2.25.21-3.19h-.06l-.82 2.38-1.8 4.92h-1l-1.81-4.92-.81-2.38h-.06c.07.94.2 2.27.2 3.19v5.1h-1.46zm11.67 6.47c0-2.5 1.71-4.06 3.52-4.06 2 0 3.14 1.47 3.14 3.66a4.35 4.35 0 01-.07.81h-5a2.32 2.32 0 002.38 2.35 3.3 3.3 0 001.83-.57l.56 1a4.61 4.61 0 01-2.6.81 3.7 3.7 0 01-3.76-4zm5.27-.7c0-1.33-.6-2.1-1.72-2.1a2.09 2.09 0 00-2 2.1zm3.33.7c0-2.5 1.58-4.06 3.31-4.06a3 3 0 012.07.87l-.07-1.28v-2.85h1.61v11.16h-1.31l-.15-.87a3.21 3.21 0 01-2.24 1.05c-1.97 0-3.22-1.47-3.22-4.02zm5.31 1.75v-3.76a2.4 2.4 0 00-1.69-.7c-1.08 0-2 1-2 2.68s.69 2.72 1.89 2.72a2.25 2.25 0 001.8-.94zm4.51-8.01a1 1 0 012.05 0 1 1 0 01-2.05 0zm.22 2.4h1.6v7.7h-1.6zm4.17 3.86a3.79 3.79 0 013.81-4.06 3.32 3.32 0 012.26.88l-.8 1.05a2.06 2.06 0 00-1.39-.6c-1.29 0-2.21 1.09-2.21 2.73s.88 2.71 2.17 2.71a2.65 2.65 0 001.68-.7l.66 1.06a3.75 3.75 0 01-2.49 1c-2.09-.05-3.69-1.52-3.69-4.07zm7.88 1.8c0-1.66 1.4-2.51 4.61-2.86 0-.9-.33-1.68-1.47-1.68a4.26 4.26 0 00-2.23.78l-.6-1.09a5.87 5.87 0 013.11-1c1.92 0 2.8 1.22 2.8 3.26v4.64h-1.31l-.14-.88a3.87 3.87 0 01-2.46 1.06 2.13 2.13 0 01-2.31-2.23zm4.61.05v-1.89c-2.28.28-3.05.86-3.05 1.72s.52 1.07 1.2 1.07a2.68 2.68 0 001.85-.9zm4.59.18v-9.35h1.6v9.44c0 .43.19.59.39.59a1.07 1.07 0 00.27 0l.21 1.22a2.65 2.65 0 01-.87.12c-1.16-.03-1.6-.77-1.6-2.02z"/><path class="cls-2" d="M459.78 366h1.8v30.14l-21 37c-2.68 4.73-.83 8.6 4.12 8.6h49.2c5 0 6.81-3.87 4.12-8.6l-21-37V366h1.8m-27.7 49.45c11.62-4.75 20.07 8.16 35.39-1.87m-66.25 1.51a11.09 11.09 0 114.49 21.72l-24.31 5a11.09 11.09 0 01-4.44-21.7z"/><path class="cls-2" d="M406.28 418c3.48-.72 7.31 3.56 8.55 9.56s-.58 11.44-4.06 12.16m-10.54-45.45a9.37 9.37 0 110 18.73h-21a9.37 9.37 0 010-18.74z"/><path class="cls-2" d="M388.17 394.27c3 0 5.44 4.19 5.44 9.37s-2.43 9.36-5.43 9.36"/><ellipse class="cls-2" cx="428.56" cy="391.12" rx="12.72" ry="7.89"/><path class="cls-2" d="M415.85 391.12c0 4.36 5.69 7.89 12.71 7.89s12.72-3.53 12.72-7.89v7.48c0 4.36-5.7 7.89-12.72 7.89s-12.71-3.53-12.71-7.89z"/><path d="M415.34 341.19a39.54 39.54 0 0026.41-9.79 31 31 0 000-47.29 39.5 39.5 0 00-26.41-9.8 42.22 42.22 0 00-26.41 9.8c-6.34 5.38-12.27 8.28-20.13 8.28s-13.79-2.9-20.13-8.28a40.49 40.49 0 00-52.82 0c-6.34 5.38-12.27 8.28-20.13 8.28s-13.79-2.9-20.13-8.28a42.2 42.2 0 00-26.41-9.8 39.46 39.46 0 00-26.4 9.8 31 31 0 000 47.29 39.5 39.5 0 0026.4 9.79 42.25 42.25 0 0026.41-9.79c6.34-5.38 12.27-8.29 20.13-8.29s13.79 2.91 20.13 8.29a40.52 40.52 0 0052.82 0c6.34-5.38 12.27-8.29 20.13-8.29s13.79 2.91 20.13 8.29a42.27 42.27 0 0026.41 9.79z" stroke-miterlimit="10" stroke="#162789" stroke-width="3" fill="none"/><path class="cls-1" d="M202.38 302.41h1.73l1.75 4.83c.22.64.42 1.29.64 1.94h.07c.22-.65.4-1.3.62-1.94l1.73-4.83h1.74V312h-1.4v-4.74c0-.85.11-2.09.19-3l-.77 2.21-1.68 4.58h-1l-1.67-4.56-.76-2.21c.06.87.18 2.11.18 3V312h-1.35zm10.8 6a3.48 3.48 0 013.27-3.77c1.89 0 2.91 1.37 2.91 3.4a3.75 3.75 0 01-.07.75h-4.64a2.16 2.16 0 002.21 2.18 3 3 0 001.7-.53l.52.95a4.33 4.33 0 01-2.41.75 3.43 3.43 0 01-3.49-3.73zm4.89-.65c0-1.23-.56-1.95-1.6-1.95a1.93 1.93 0 00-1.83 1.95zm3 2.32c0-1.54 1.3-2.33 4.28-2.65 0-.84-.31-1.56-1.37-1.56a3.91 3.91 0 00-2.06.72l-.56-1a5.45 5.45 0 012.88-.94c1.79 0 2.6 1.13 2.6 3V312h-1.22l-.13-.82a3.52 3.52 0 01-2.27 1 2 2 0 01-2.15-2.1zm4.28.05v-1.76c-2.12.26-2.83.8-2.83 1.6s.48 1 1.11 1a2.54 2.54 0 001.72-.84zm3.51 1.03l.7-1a3.16 3.16 0 002 .82c.86 0 1.26-.41 1.26-1s-.81-.93-1.59-1.23c-.94-.37-2-.87-2-2.08s1-2.1 2.54-2.1a3.76 3.76 0 012.33.85l-.71.92a2.68 2.68 0 00-1.6-.62c-.78 0-1.14.39-1.14.88s.74.85 1.52 1.13c1 .38 2.11.82 2.11 2.17 0 1.2-1 2.17-2.72 2.17a4.4 4.4 0 01-2.7-.91zm7.55-1.84v-4.49h1.5v4.31c0 1.24.35 1.72 1.19 1.72.67 0 1.12-.31 1.72-1.07v-5h1.49V312h-1.22l-.09-1.1a3 3 0 01-2.34 1.24c-1.58 0-2.25-1-2.25-2.82zm8.8-4.49h1.23l.11 1.28a2.48 2.48 0 012-1.47 1.8 1.8 0 01.8.16l-.27 1.3a2 2 0 00-.71-.12c-.59 0-1.29.41-1.74 1.54V312h-1.49zm5.32 3.58a3.48 3.48 0 013.26-3.77c1.9 0 2.92 1.37 2.92 3.4a3.75 3.75 0 01-.07.75H252a2.16 2.16 0 002.21 2.18 3 3 0 001.7-.53l.52.95a4.33 4.33 0 01-2.41.75 3.43 3.43 0 01-3.49-3.73zm4.89-.65c0-1.23-.56-1.95-1.6-1.95a1.93 1.93 0 00-1.83 1.95zm39.8-.54c0-3.12 1.89-5 4.31-5a3.7 3.7 0 012.72 1.2l-.82 1a2.52 2.52 0 00-1.87-.86c-1.65 0-2.8 1.38-2.8 3.63s1.07 3.66 2.76 3.66a2.8 2.8 0 002.12-1l.81.95a3.8 3.8 0 01-3 1.37c-2.39-.03-4.23-1.82-4.23-4.95zm8.93 1.19a3.38 3.38 0 113.36 3.73 3.46 3.46 0 01-3.36-3.73zm5.2 0c0-1.52-.7-2.53-1.84-2.53s-1.82 1-1.82 2.53.71 2.51 1.82 2.51 1.84-1 1.84-2.51zm3.94-3.58h1.22l.12 1a3.47 3.47 0 012.37-1.17c1.52 0 2.2 1 2.2 2.84v4.5h-1.5v-4.32c0-1.24-.36-1.73-1.21-1.73a2.44 2.44 0 00-1.75 1V312h-1.48zm8.76 0h1.22l.12 1a3.43 3.43 0 012.36-1.17c1.52 0 2.2 1 2.2 2.84v4.5h-1.45v-4.32c0-1.24-.37-1.73-1.21-1.73a2.44 2.44 0 00-1.76 1V312h-1.48zm8.25 3.58a3.48 3.48 0 013.27-3.77c1.89 0 2.91 1.37 2.91 3.4a3.75 3.75 0 01-.07.75h-4.64A2.16 2.16 0 00334 311a3 3 0 001.71-.53l.52.95a4.39 4.39 0 01-2.42.75 3.43 3.43 0 01-3.51-3.76zm4.89-.65c0-1.23-.56-1.95-1.6-1.95a1.94 1.94 0 00-1.83 1.95zm3.11.65a3.51 3.51 0 013.53-3.77 3.09 3.09 0 012.1.82l-.74 1a1.89 1.89 0 00-1.29-.56c-1.2 0-2 1-2 2.53s.82 2.51 2 2.51a2.42 2.42 0 001.56-.65l.61 1a3.44 3.44 0 01-2.31.88c-1.98-.03-3.46-1.39-3.46-3.76zm7.97 1.23V306h-1v-1.1l1.1-.07.17-2h1.26v2h1.86V306h-1.86v3.63c0 .86.3 1.3 1 1.3a2.17 2.17 0 00.77-.17l.27 1.1a4.53 4.53 0 01-1.4.26c-1.61.02-2.17-.98-2.17-2.48zm46.02-1.77v-5.46h1.51V308c0 2.16.86 2.86 2.05 2.86s2.1-.7 2.1-2.86v-5.56h1.45v5.46c0 3.12-1.43 4.27-3.55 4.27s-3.56-1.17-3.56-4.3zm10.34 1.77V306h-1v-1.1l1.1-.07.17-2h1.26v2H406V306h-1.86v3.63c0 .86.3 1.3 1 1.3a2.17 2.17 0 00.77-.17l.27 1.1a4.53 4.53 0 01-1.4.26c-1.59.02-2.15-.98-2.15-2.48zm5.37-7.04a1 1 0 011.91 0 1 1 0 01-1.91 0zm.21 2.23h1.48V312h-1.48zm4.36 5.47v-8.69h1.48v8.77c0 .4.19.54.37.54h.24l.2 1.13a2.56 2.56 0 01-.81.11c-1.05-.02-1.48-.7-1.48-1.86zm4.32-7.7a.88.88 0 01.95-.88.89.89 0 011 .88.9.9 0 01-1 .89.89.89 0 01-.95-.89zm.2 2.23h1.49V312h-1.49zm3.74 6.34l3.52-5.15h-3.13v-1.19h5v.79l-3.52 5.16h3.64V312h-5.52zm7.02-2.76a3.47 3.47 0 013.26-3.77c1.9 0 2.91 1.37 2.91 3.4a3.84 3.84 0 01-.06.75h-4.64a2.15 2.15 0 002.21 2.18 3 3 0 001.7-.53l.52.95a4.34 4.34 0 01-2.42.75 3.43 3.43 0 01-3.48-3.73zm4.88-.65c0-1.23-.55-1.95-1.59-1.95a2 2 0 00-1.84 1.95z"/><path class="cls-2" d="M169.06 416.98l2.65-7.3h-16.48v8.88h13.83v-1.58zm-13.83-43.93v36.63h16.48l3.08-8.47h25.44v-10.39h8.86v-17.77h-53.86zM238 65a28.9 28.9 0 01-10.87-2.21l4.22 29.06h18l-10.23-26.91c-.37.06-.72.06-1.12.06zm-.19-3.5a26.39 26.39 0 01.21 2.77c0-.46 0-1.11.11-1.91zm-23.73-11.28h-5.55l-14.05 41.63h18L216.34 54a31.11 31.11 0 01-2.26-3.78z"/></svg>