<svg id="レイヤー_1" data-name="レイヤー 1" xmlns="http://www.w3.org/2000/svg" viewBox="0 0 668.22 529.08"><defs><style>.cls-1{fill:#f7f9f9}.cls-2{fill:#172788}.cls-4{fill:#162789}</style></defs><path class="cls-1" d="M486.51 460.93v-79.54h-18.97v89.26h62.53v-9.72h-43.56z"/><path class="cls-2" d="M530.07 473.59h-62.53a2.94 2.94 0 01-2.94-2.94v-89.26a2.94 2.94 0 012.94-2.93h19a2.93 2.93 0 012.93 2.93V458h40.63a2.94 2.94 0 012.94 2.94v9.72a2.94 2.94 0 01-2.97 2.93zm-59.6-5.87h56.67v-3.86h-40.63a2.93 2.93 0 01-2.93-2.93v-76.61h-13.11z"/><path class="cls-1" d="M505.21 374.59h61.3v73.99h-61.3z"/><path class="cls-2" d="M566.51 451.52h-61.3a2.93 2.93 0 01-2.93-2.93v-74a2.93 2.93 0 012.93-2.93h61.3a2.93 2.93 0 012.93 2.93v74a2.93 2.93 0 01-2.93 2.93zm-58.36-5.87h55.43v-68.13h-55.43z"/><path class="cls-1" d="M486.51 381.39l18.7-6.8v73.99l-18.7-6.79v-60.4z"/><path class="cls-2" d="M505.21 451.52a2.94 2.94 0 01-1-.18l-18.7-6.8a2.92 2.92 0 01-1.93-2.75v-60.4a2.94 2.94 0 011.93-2.76l18.7-6.8a2.94 2.94 0 013.94 2.76v74a2.93 2.93 0 01-2.94 2.93zm-15.77-11.79l12.84 4.67v-65.62l-12.84 4.66z"/><path class="cls-1" d="M448.91 359.16v22.23h18.63v67.19h-47.28v-89.42h28.65z"/><path class="cls-2" d="M467.54 451.52h-47.28a2.93 2.93 0 01-2.93-2.93v-89.43a2.93 2.93 0 012.93-2.93h28.65a2.93 2.93 0 012.93 2.93v19.3h15.7a2.93 2.93 0 012.93 2.93v67.2a2.93 2.93 0 01-2.93 2.93zm-44.34-5.87h41.4v-61.33h-15.69a2.93 2.93 0 01-2.93-2.93V362.1H423.2z"/><path class="cls-2" d="M448.91 406.55a2.93 2.93 0 01-2.93-2.93v-22.23a2.93 2.93 0 115.86 0v22.23a2.93 2.93 0 01-2.93 2.93z"/><path class="cls-1" d="M415.73 347.83h37.71v11.33h-37.71z"/><path class="cls-2" d="M453.44 362.1h-37.71a2.94 2.94 0 01-2.93-2.94v-11.33a2.93 2.93 0 012.93-2.93h37.71a2.94 2.94 0 012.94 2.93v11.33a2.94 2.94 0 01-2.94 2.94zm-34.77-5.87h31.84v-5.47h-31.84z"/><path class="cls-1" d="M566.51 374.59l9 3.48c4.56 1.75 8.28 6.5 8.28 10.57v45.9c0 4.06-3.72 8.82-8.28 10.57l-9 3.48z"/><path class="cls-2" d="M566.51 451.52a2.94 2.94 0 01-2.93-2.93v-74a2.92 2.92 0 011.27-2.42 3 3 0 012.71-.32l9 3.48c5.69 2.19 10.15 8 10.15 13.31v45.9c0 5.27-4.46 11.12-10.15 13.31l-9 3.47a3 3 0 01-1.05.2zm2.93-72.66v65.45l5-1.94c3.41-1.31 6.4-5 6.4-7.83v-45.9c0-2.86-3-6.53-6.4-7.84z"/><path d="M554.95 436.12h-49.74m49.74-12.27h-49.74m49.74-12.26h-49.74m49.74-12.27h-49.74m0-12.26h49.74" stroke="#172788" stroke-linecap="round" stroke-linejoin="round" stroke-width="5.87" fill="#f7f9f9"/><path class="cls-1" d="M402.57 397.27h17.7v28.64h-17.7z"/><path class="cls-2" d="M420.26 428.84h-17.69a2.94 2.94 0 01-2.94-2.93v-28.64a2.94 2.94 0 012.94-2.94h17.69a2.94 2.94 0 012.94 2.94v28.64a2.94 2.94 0 01-2.94 2.93zM405.5 423h11.83v-22.8H405.5z"/><path class="cls-1" d="M391.24 392.73h11.33v37.71h-11.33z"/><path class="cls-2" d="M402.57 433.38h-11.33a2.94 2.94 0 01-2.94-2.94v-37.71a2.94 2.94 0 012.94-2.93h11.33a2.93 2.93 0 012.93 2.93v37.71a2.94 2.94 0 01-2.93 2.94zm-8.4-5.87h5.46v-31.84h-5.46z"/><rect class="cls-1" x="395.38" y="440.2" width="51.42" height="51.42" rx="6.79"/><path class="cls-2" d="M440 493.22h-37.83a8.4 8.4 0 01-8.39-8.38V447a8.4 8.4 0 018.39-8.38H440a8.39 8.39 0 018.4 8.38v37.85a8.39 8.39 0 01-8.4 8.37zm-37.83-51.42A5.2 5.2 0 00397 447v37.85a5.2 5.2 0 005.19 5.19H440a5.2 5.2 0 005.2-5.19V447a5.2 5.2 0 00-5.2-5.19z"/><path class="cls-2" d="M424.87 470.39v-21.33a3.78 3.78 0 00-7.56 0v21.33a8.67 8.67 0 107.56 0z"/><path class="cls-2" d="M421.09 488a9.86 9.86 0 01-5-18.37v-20.57a5 5 0 0110 0v20.61a9.86 9.86 0 01-5 18.37zm0-41.57a2.6 2.6 0 00-2.59 2.59v21.33a1.2 1.2 0 01-.67 1.07 7.47 7.47 0 106.52 0 1.2 1.2 0 01-.67-1.07v-21.29a2.59 2.59 0 00-2.59-2.59z"/><circle class="cls-1" cx="421.09" cy="478.17" r="3.2"/><path class="cls-1" d="M421.09 482.57a4.4 4.4 0 114.39-4.4 4.4 4.4 0 01-4.39 4.4zm0-6.39a2 2 0 102 2 2 2 0 00-2-2z"/><path class="cls-1" d="M421.09 475.07a1.2 1.2 0 01-1.2-1.2v-24.81a1.2 1.2 0 012.4 0v24.81a1.2 1.2 0 01-1.2 1.2z"/><path class="cls-2" d="M432.88 452.39h-8a1 1 0 010-2h8a1 1 0 010 2zm-2.95 3.95h-5.05a1 1 0 010-2h5.05a1 1 0 010 2zm0 7.9h-5.05a1 1 0 110-2h5.05a1 1 0 110 2zm2.95-3.95h-8a1 1 0 010-2h8a1 1 0 010 2z"/><rect class="cls-1" x="296.49" y="211.45" width="51.42" height="51.42" rx="6.79"/><path class="cls-2" d="M341.12 264.47h-37.84a8.4 8.4 0 01-8.39-8.39v-37.84a8.41 8.41 0 018.39-8.39h37.84a8.4 8.4 0 018.39 8.39v37.84a8.39 8.39 0 01-8.39 8.39zm-37.84-51.42a5.2 5.2 0 00-5.19 5.19v37.84a5.2 5.2 0 005.19 5.2h37.84a5.19 5.19 0 005.19-5.2v-37.84a5.19 5.19 0 00-5.19-5.19z"/><path class="cls-2" transform="rotate(-90 322.2 246.14)" d="M305.47 241.8h33.46v8.68h-33.46z"/><path class="cls-2" d="M326.54 264.07h-8.68a1.2 1.2 0 01-1.2-1.2v-33.46a1.2 1.2 0 011.2-1.2h8.68a1.2 1.2 0 011.2 1.2v33.46a1.2 1.2 0 01-1.2 1.2zm-7.48-2.39h6.28v-31.07h-6.28z"/><circle class="cls-2" cx="322.2" cy="237.02" r="18.55"/><path class="cls-2" d="M322.2 256.77A19.75 19.75 0 11342 237a19.77 19.77 0 01-19.8 19.77zm0-37.1A17.36 17.36 0 10339.55 237a17.37 17.37 0 00-17.35-17.33z"/><circle class="cls-1" cx="322.2" cy="237.02" r="14.68"/><path class="cls-1" d="M322.2 252.91A15.89 15.89 0 11338.08 237a15.9 15.9 0 01-15.88 15.91zm0-29.37A13.49 13.49 0 10335.69 237a13.5 13.5 0 00-13.49-13.46z"/><path class="cls-2" d="M321.69 235.09l3.94-6.95-1.75 7.79-1.68 1.09-.51-1.93z"/><path class="cls-2" d="M322.2 237.42a.32.32 0 01-.14 0 .44.44 0 01-.25-.27l-.5-1.94a.39.39 0 010-.3l3.93-6.94a.4.4 0 01.49-.18.4.4 0 01.25.46l-1.71 7.75a.43.43 0 01-.17.24l-1.68 1.1a.43.43 0 01-.22.08zm-.08-2.28l.33 1.25 1.07-.71 1.13-5z"/><path class="cls-2" d="M330.88 246.71a1 1 0 01-.7-.3 1 1 0 010-1.41 11.28 11.28 0 10-16 0 1 1 0 01-1.41 1.41 13.28 13.28 0 1118.78 0 1 1 0 01-.67.3z"/><path class="cls-2" d="M322.2 228.86a1 1 0 01-1-1v-3.12a1 1 0 012 0v3.12a1 1 0 01-1 1zm-6.48 2.68a1 1 0 01-.71-.29l-2.2-2.2a1 1 0 111.41-1.42l2.21 2.21a1 1 0 010 1.41 1 1 0 01-.71.29zM313 238h-3.12a1 1 0 110-2H313a1 1 0 110 2zm.52 8.71a1 1 0 01-.71-1.71l2.2-2.2a1 1 0 011.42 0 1 1 0 010 1.41l-2.21 2.2a1 1 0 01-.7.3zm15.16-15.17a1 1 0 01-.71-.29 1 1 0 010-1.41l2.21-2.21a1 1 0 011.41 1.42l-2.2 2.2a1 1 0 01-.71.29zm5.8 6.46h-3.12a1 1 0 010-2h3.12a1 1 0 110 2zm-3.6 8.71a1 1 0 01-.7-.3l-2.21-2.2a1 1 0 010-1.41 1 1 0 011.42 0l2.2 2.2a1 1 0 010 1.41 1 1 0 01-.71.3z"/><circle class="cls-1" cx="322.2" cy="237.02" r="2.21"/><path class="cls-2" d="M322.2 240.43a3.41 3.41 0 113.41-3.41 3.41 3.41 0 01-3.41 3.41zm0-4.42a1 1 0 000 2 1 1 0 100-2z"/><path class="cls-1" d="M0 397.27h391.24v28.64H0"/><path class="cls-2" d="M391.24 428.84H0V423h388.3v-22.8H0v-5.87h391.24a2.94 2.94 0 012.93 2.94v28.64a2.93 2.93 0 01-2.93 2.93zm57.67-78.08h-28.65a2.93 2.93 0 01-2.93-2.93V334.6h5.87v10.3H446V61.82a15.93 15.93 0 0115.89-15.92h206.33v5.87H461.89a10.06 10.06 0 00-10.05 10v286a2.93 2.93 0 01-2.93 2.99z"/><path class="cls-2" d="M423.2 306h-5.87V51.39a34.17 34.17 0 0134.13-34.13h216.76v5.86H451.46a28.3 28.3 0 00-28.26 28.27z"/><path class="cls-4" d="M198.59 122.78H95.3a2.37 2.37 0 01-2.37-2.37V69a2.37 2.37 0 012.37-2.4h103.29A2.37 2.37 0 01201 69v51.43a2.37 2.37 0 01-2.41 2.35zM97.68 118h98.53V71.35H97.68z"/><path class="cls-4" d="M195.75 71.35H98.14A2.37 2.37 0 0195.77 69V54.4a2.37 2.37 0 012.37-2.4h97.61a2.37 2.37 0 012.37 2.37V69a2.37 2.37 0 01-2.37 2.35zm-95.23-4.75h92.85v-9.82h-92.85z"/><path class="cls-4" d="M192.9 56.78H101a2.38 2.38 0 01-2.37-2.38V39.83a2.37 2.37 0 012.37-2.37h91.9a2.37 2.37 0 012.38 2.37V54.4a2.38 2.38 0 01-2.38 2.38zM103.36 52h87.17v-9.79h-87.17z"/><path class="cls-4" d="M141.26 49.49h-30.33a2.38 2.38 0 110-4.75h30.33a2.38 2.38 0 110 4.75zm41.74 0h-30.37a2.38 2.38 0 110-4.75H183a2.38 2.38 0 010 4.75zm-41.74 14.57h-30.33a2.37 2.37 0 110-4.74h30.33a2.37 2.37 0 110 4.74zm41.74 0h-30.37a2.37 2.37 0 110-4.74H183a2.37 2.37 0 110 4.74zm-35.86 42.08h-41a2.37 2.37 0 01-2.37-2.37V81.25a2.38 2.38 0 012.37-2.38h41a2.39 2.39 0 012.38 2.38v22.52a2.38 2.38 0 01-2.38 2.37zm-38.62-4.74h36.25V83.62h-36.25z"/><path class="cls-4" transform="rotate(-135 162.968 92.51)" d="M159.48 89.03h6.96v6.96h-6.96z"/><path class="cls-4" d="M163 99.81a2.34 2.34 0 01-1.68-.7l-4.93-4.92a2.39 2.39 0 010-3.36l4.93-4.93a2.39 2.39 0 013.36 0l4.92 4.93a2.37 2.37 0 010 3.36l-4.92 4.92a2.37 2.37 0 01-1.68.7zm-1.57-7.3l1.57 1.57 1.56-1.57-1.56-1.57z"/><path class="cls-4" transform="rotate(-135 182.727 92.509)" d="M179.24 89.03h6.96v6.96h-6.96z"/><path class="cls-4" d="M182.73 99.81a2.34 2.34 0 01-1.68-.7l-4.93-4.92a2.37 2.37 0 010-3.36l4.93-4.93a2.38 2.38 0 013.35 0l4.93 4.93a2.37 2.37 0 010 3.36l-4.93 4.92a2.33 2.33 0 01-1.67.7zm-1.57-7.3l1.57 1.57 1.56-1.57-1.56-1.57z"/><path class="cls-4" transform="rotate(-135 172.848 102.389)" d="M169.36 98.91h6.96v6.96h-6.96z"/><path class="cls-4" d="M172.85 109.69a2.38 2.38 0 01-1.68-.7l-4.93-4.92a2.39 2.39 0 010-3.36l4.93-4.93a2.38 2.38 0 013.35 0l4.93 4.93a2.37 2.37 0 010 3.36l-4.93 4.93a2.37 2.37 0 01-1.67.69zm-1.57-7.3l1.57 1.57 1.56-1.57-1.56-1.57z"/><path class="cls-4" transform="rotate(-135 172.847 82.63)" d="M169.36 79.15h6.96v6.96h-6.96z"/><path class="cls-4" d="M172.85 89.93a2.34 2.34 0 01-1.68-.7l-4.93-4.92a2.39 2.39 0 010-3.36l4.93-4.95a2.36 2.36 0 013.35 0l4.93 5a2.37 2.37 0 010 3.36l-4.93 4.92a2.33 2.33 0 01-1.67.65zm-1.57-7.3l1.57 1.57 1.56-1.57-1.56-1.57zM88.68 8.28a25.31 25.31 0 01-3.22 4.64l-1.45-1a17.69 17.69 0 003.18-4.37zm3.68-2.5v8c0 .9-.47 1.42-1.56 1.42-.81 0-1.8 0-2.56-.11l-.15-1.67a11.07 11.07 0 001.92.19c.43 0 .62-.17.64-.62V5.78h-6V4.07a14 14 0 001.49.1h4.51V2.6a7.11 7.11 0 00-.14-1.31h2a9.2 9.2 0 00-.13 1.33v1.55h4.22a12.57 12.57 0 001.49-.1v1.74h-1.48zm3.43 1.76a38.31 38.31 0 012.89 4.4l-1.55.88a28.8 28.8 0 00-2.79-4.49zm-.71-5.66A1.89 1.89 0 1197 3.76a1.88 1.88 0 01-1.92-1.88zm.89 0a1 1 0 001 1 1 1 0 001-1 1 1 0 00-1-1 1 1 0 00-.97 1zM108 10.75a16 16 0 005.83-6.33l1 1.83a17.29 17.29 0 01-5.9 6.08 18.5 18.5 0 01-6.43 2.5l-1.1-1.73a17.54 17.54 0 006.6-2.35zm-.58-5.37l-1.32 1.36a38.38 38.38 0 00-4.2-3.56l1.22-1.32a33.08 33.08 0 014.31 3.52zm18.95-2.69a4.47 4.47 0 00.71 0 2.3 2.3 0 010-.45A1.94 1.94 0 11129 4.13a1.49 1.49 0 01-.43 0l-.09.32a16.83 16.83 0 01-2.52 6.17 13.1 13.1 0 01-6.67 4.55l-1.44-1.58a11.13 11.13 0 006.56-4 11.8 11.8 0 002.11-5.16h-8.25c-.73 0-1.4 0-1.82.06V2.57a14.63 14.63 0 001.82.12zM130 2.2a1.05 1.05 0 00-2.1 0 1.05 1.05 0 002.1 0zm12.68.49a4.41 4.41 0 00.7 0 2.3 2.3 0 010-.45 1.94 1.94 0 111.93 1.93 1.49 1.49 0 01-.43 0l-.09.32a16.83 16.83 0 01-2.52 6.17 13.1 13.1 0 01-6.67 4.55l-1.44-1.58a11.19 11.19 0 006.57-4 11.9 11.9 0 002.1-5.16h-8.25c-.73 0-1.4 0-1.82.06V2.57a14.63 14.63 0 001.82.12zm3.64-.49a1.05 1.05 0 00-2.1 0 1.05 1.05 0 002.1 0zm16.02 10.2v2.17h-1.83v-.94h-8.7v.94h-1.82V2.69h12.28v1.44zm-10.49-8V12h8.72V4.4zm26.74 1.7c.35 0 1 0 1.41-.09v1.74c-.39 0-1-.06-1.41-.06h-4.32a10.33 10.33 0 01-1 4.49 8.06 8.06 0 01-3.34 3.12l-1.55-1.14a7 7 0 003.11-2.5 7.83 7.83 0 001-4h-4.89c-.5 0-1.06 0-1.53.06V6a14.82 14.82 0 001.53.09zm-8.89-2.67h-1.64V1.75a14.25 14.25 0 001.64.11h6.77a12 12 0 001.68-.11v1.73h-1.68zm26.01.47a6.85 6.85 0 00-.47 1 16.43 16.43 0 01-3 5.71 15.31 15.31 0 01-6.72 4.66L184 13.89a13.5 13.5 0 006.74-4.2 12.55 12.55 0 002.55-4.95h-5.24a17.6 17.6 0 01-4.26 4.1l-1.48-1.09a14.28 14.28 0 005.27-5.57 7.08 7.08 0 00.62-1.51l2 .64c-.33.5-.69 1.16-.87 1.5-.07.13-.15.28-.24.42h4a3.88 3.88 0 001.26-.17zm14.98-.27a8.35 8.35 0 00-.47 1 17.77 17.77 0 01-2.39 4.82c.63.41 1.2.77 1.62 1.08l-1.18 1.54c-.4-.33-1-.74-1.6-1.17a15.91 15.91 0 01-6.4 4.35l-1.53-1.35a14.32 14.32 0 006.47-4c-1.24-.8-2.53-1.59-3.44-2.1l1.11-1.26c.94.49 2.23 1.23 3.46 2a14.08 14.08 0 002-4.08H203a18.51 18.51 0 01-4.42 4.36l-1.45-1.09A15.08 15.08 0 00202.49 2a5.82 5.82 0 00.64-1.51l1.91.61c-.32.5-.68 1.14-.85 1.47L204 3h4.08a3.86 3.86 0 001.26-.18zm-80.24 14.26h3.21c3.8 0 6 2.1 6 6.13s-2.17 6.23-5.87 6.23h-3.31zm3.08 10.77c2.65 0 4.08-1.57 4.08-4.64s-1.43-4.55-4.08-4.55h-1.13v9.19zm16.26 1.59l-2.8-5h-2v5h-2V17.89h4.05c2.55 0 4.47.91 4.47 3.58A3.45 3.45 0 01149 25l3 5.24zM145 23.7h1.86c1.8 0 2.78-.74 2.78-2.23s-1-2-2.78-2H145zm9.89-5.81h2l4.1 7.26 1.29 2.62h.09c-.11-1.28-.26-2.78-.26-4.12v-5.76H164v12.36h-2L157.86 23l-1.29-2.59h-.08c.1 1.28.25 2.71.25 4.05v5.83h-1.85z"/><path class="cls-2" d="M420.26 337.53a2.93 2.93 0 01-2.93-2.93 10.06 10.06 0 00-10.05-10.05H338.6a34.17 34.17 0 01-34.13-34.13v-26.28a2.93 2.93 0 115.86 0v26.28a28.3 28.3 0 0028.27 28.26h68.68a15.94 15.94 0 0115.92 15.92 2.94 2.94 0 01-2.94 2.93z"/><path class="cls-2" d="M420.26 308.89a2.94 2.94 0 01-2.93-2.94 10.06 10.06 0 00-10.05-10.05H349a15.93 15.93 0 01-15.89-15.9v-15.86a2.94 2.94 0 015.87 0V280a10.05 10.05 0 0010 10h58.25a15.94 15.94 0 0115.97 16 2.94 2.94 0 01-2.94 2.89z"/><rect class="cls-1" x="408.97" y="148.27" width="51.42" height="51.42" rx="6.43"/><path class="cls-1" d="M460.39 179.8v13.11a6.81 6.81 0 01-6.79 6.78h-37.84a6.8 6.8 0 01-6.79-6.78V174"/><path class="cls-2" d="M453.6 201.21h-37.84a8.31 8.31 0 01-8.3-8.3V174a1.51 1.51 0 113 0v18.93a5.28 5.28 0 005.28 5.27h37.86a5.28 5.28 0 005.28-5.27V179.8a1.51 1.51 0 013 0v13.11a8.31 8.31 0 01-8.28 8.3z"/><path class="cls-1" d="M409 168.17v-13.11a6.81 6.81 0 016.79-6.79h37.81a6.82 6.82 0 016.79 6.79V174"/><path class="cls-2" d="M460.39 175.5a1.51 1.51 0 01-1.51-1.52v-18.92a5.28 5.28 0 00-5.28-5.27h-37.84a5.28 5.28 0 00-5.28 5.27v13.11a1.51 1.51 0 11-3 0v-13.11a8.31 8.31 0 018.3-8.3h37.82a8.31 8.31 0 018.3 8.3V174a1.52 1.52 0 01-1.51 1.5z"/><path class="cls-2" d="M436.07 194.54H436a1.52 1.52 0 01-1.44-1.36l-3-30.44-4.79 19.26a1.51 1.51 0 01-1.46 1.14 1.5 1.5 0 01-1.46-1.12l-3.3-12.41-1.06 4.67a1.52 1.52 0 01-1.49 1.22h-9a1.52 1.52 0 010-3h7.82L419 163a1.51 1.51 0 011.45-1.17 1.49 1.49 0 011.45 1.17l3.35 12.66 5.53-22.1a1.51 1.51 0 013 .22l2.81 28.77 3.64-18.85a1.51 1.51 0 011.49-1.23 1.52 1.52 0 011.47 1.27l2.7 16.81 3.79-7.22a1.51 1.51 0 011.34-.81h9.38a1.52 1.52 0 010 3h-8.47l-5.48 10.42a1.51 1.51 0 01-2.83-.46l-2.06-12.84-4 20.7a1.5 1.5 0 01-1.49 1.2zM46.45 411.59l-12.73-8.66v5.45H0v6.42h33.72v5.45l12.73-8.66zM668.22 34.51l-12.72-8.65v5.44h-33.72v6.42h33.72v5.45l12.72-8.66zM402.27 175h-4.67a1.4 1.4 0 010-2.8h4.67a1.4 1.4 0 110 2.8zM392 175h-4.67a1.4 1.4 0 110-2.8H392a1.4 1.4 0 010 2.8zm-10.27 0h-4.67a1.4 1.4 0 110-2.8h4.67a1.4 1.4 0 010 2.8zm-10.27 0h-4.67a1.4 1.4 0 010-2.8h4.67a1.4 1.4 0 110 2.8zm-10.27 0h-4.67a1.4 1.4 0 110-2.8h4.67a1.4 1.4 0 010 2.8zm-10.27 0h-4.67a1.4 1.4 0 110-2.8h4.67a1.4 1.4 0 010 2.8zm-10.27 0H336a1.4 1.4 0 010-2.8h4.67a1.4 1.4 0 110 2.8zm-10.27 0h-4.67a1.4 1.4 0 110-2.8h4.67a1.4 1.4 0 010 2.8zm-10.27 0h-4.67a1.4 1.4 0 110-2.8h4.67a1.4 1.4 0 010 2.8zm-10.27 0h-4.67a1.4 1.4 0 010-2.8h4.67a1.4 1.4 0 110 2.8zm-10.27 0h-4.67a1.4 1.4 0 110-2.8h4.67a1.4 1.4 0 110 2.8zm-10.27 0h-4.67a1.4 1.4 0 110-2.8h4.67a1.4 1.4 0 010 2.8zm-10.3 0h-4.67a1.4 1.4 0 010-2.8H279a1.4 1.4 0 110 2.8zm-10.27 0h-4.67a1.4 1.4 0 110-2.8h4.67a1.4 1.4 0 110 2.8zm-10.27 0h-4.67a1.4 1.4 0 010-2.8h4.67a1.4 1.4 0 010 2.8zm-10.27 0h-4.67a1.4 1.4 0 010-2.8h4.67a1.4 1.4 0 110 2.8zM238 175h-4.67a1.4 1.4 0 110-2.8H238a1.4 1.4 0 010 2.8zm-10.27 0H223a1.4 1.4 0 110-2.8h4.67a1.4 1.4 0 010 2.8zm-10.27 0h-4.67a1.4 1.4 0 010-2.8h4.67a1.4 1.4 0 110 2.8zm-10.27 0h-4.67a1.4 1.4 0 110-2.8h4.67a1.4 1.4 0 010 2.8zm-10.27 0h-4.72a1.4 1.4 0 110-2.8h4.67a1.4 1.4 0 010 2.8zm-10.27 0h-4.67a1.4 1.4 0 010-2.8h4.67a1.4 1.4 0 110 2.8zm-9.94-1.54a1.42 1.42 0 01-.83-.27 9.36 9.36 0 01-3.26-4.32 1.4 1.4 0 112.63-1 6.6 6.6 0 002.29 3 1.4 1.4 0 01.29 2 1.38 1.38 0 01-1.17.56zm-3.26-9.22a1.4 1.4 0 01-1.4-1.4v-4.67a1.4 1.4 0 012.8 0v4.67a1.39 1.39 0 01-1.45 1.37zm0-10.27a1.4 1.4 0 01-1.4-1.4v-4.67a1.4 1.4 0 012.8 0v4.67a1.39 1.39 0 01-1.45 1.37zm0-10.27a1.4 1.4 0 01-1.4-1.4v-4.7a1.4 1.4 0 012.8 0v4.67a1.39 1.39 0 01-1.45 1.4z"/><path class="cls-2" d="M164.75 139.32l8.65-12.72 8.66 12.72h-17.31zM291.2 238.5h-4.67a1.4 1.4 0 110-2.8h4.67a1.4 1.4 0 110 2.8zm-10.27 0h-4.67a1.4 1.4 0 110-2.8h4.67a1.4 1.4 0 010 2.8zm-10.27 0H266a1.4 1.4 0 010-2.8h4.67a1.4 1.4 0 010 2.8zm-10.27 0h-4.67a1.4 1.4 0 010-2.8h4.67a1.4 1.4 0 110 2.8zm-10.27 0h-4.67a1.4 1.4 0 110-2.8h4.67a1.4 1.4 0 010 2.8zm-10.27 0h-4.67a1.4 1.4 0 010-2.8h4.67a1.4 1.4 0 010 2.8zm-10.27 0h-4.67a1.4 1.4 0 010-2.8h4.67a1.4 1.4 0 010 2.8zm-10.27 0h-4.67a1.4 1.4 0 110-2.8h4.67a1.4 1.4 0 010 2.8zm-10.27 0h-4.67a1.4 1.4 0 010-2.8H209a1.4 1.4 0 010 2.8zm-10.28 0h-4.66a1.4 1.4 0 010-2.8h4.66a1.4 1.4 0 110 2.8zm-10.27 0h-4.66a1.4 1.4 0 010-2.8h4.66a1.4 1.4 0 110 2.8zm-10.27 0h-4.66a1.4 1.4 0 010-2.8h4.66a1.4 1.4 0 110 2.8zm-10.27 0h-4.66a1.4 1.4 0 010-2.8H168a1.4 1.4 0 010 2.8zm-10.27 0h-2.8a9.33 9.33 0 01-2.17-.26 1.4 1.4 0 11.65-2.72 6.51 6.51 0 001.52.18h2.8a1.4 1.4 0 010 2.8zm-9.21-3.27a1.42 1.42 0 01-1.13-.57 9.37 9.37 0 01-1.79-5.11 1.4 1.4 0 112.8-.12 6.48 6.48 0 001.25 3.57 1.4 1.4 0 01-1.13 2.23zm-1.53-9.94a1.4 1.4 0 01-1.4-1.4v-4.67a1.4 1.4 0 112.8 0v4.67a1.4 1.4 0 01-1.4 1.4zm0-10.27a1.4 1.4 0 01-1.4-1.4V209a1.4 1.4 0 012.8 0v4.67a1.4 1.4 0 01-1.4 1.33zm0-10.27a1.4 1.4 0 01-1.4-1.4v-4.67a1.4 1.4 0 012.8 0v4.67a1.4 1.4 0 01-1.4 1.4zm0-10.27a1.4 1.4 0 01-1.4-1.4v-4.67a1.4 1.4 0 112.8 0v4.67a1.4 1.4 0 01-1.4 1.4zm0-10.27a1.4 1.4 0 01-1.4-1.4v-4.67a1.4 1.4 0 012.8 0v4.67a1.4 1.4 0 01-1.4 1.4zm0-10.27a1.4 1.4 0 01-1.4-1.4v-4.67a1.4 1.4 0 012.8 0v4.67a1.4 1.4 0 01-1.4 1.4zm0-10.27a1.4 1.4 0 01-1.4-1.4v-4.67a1.4 1.4 0 112.8 0v4.67a1.4 1.4 0 01-1.4 1.4zm0-10.27a1.4 1.4 0 01-1.4-1.4v-4.67a1.4 1.4 0 112.8 0V152a1.4 1.4 0 01-1.4 1.4zm0-10.27a1.4 1.4 0 01-1.4-1.4v-4.67a1.4 1.4 0 012.8 0v4.67a1.4 1.4 0 01-1.4 1.4z"/><path class="cls-2" d="M138.29 139.32l8.65-12.72 8.66 12.72h-17.31zm251.8 328.49h-4.67a1.4 1.4 0 010-2.8h4.67a1.4 1.4 0 010 2.8zm-10.27 0h-4.67a1.4 1.4 0 010-2.8h4.67a1.4 1.4 0 010 2.8zm-10.27 0h-4.67a1.4 1.4 0 010-2.8h4.67a1.4 1.4 0 010 2.8zm-10.27 0h-4.67a1.4 1.4 0 010-2.8h4.67a1.4 1.4 0 010 2.8zm-10.27 0h-4.67a1.4 1.4 0 010-2.8H349a1.4 1.4 0 010 2.8zm-10.27 0h-4.67a1.4 1.4 0 110-2.8h4.67a1.4 1.4 0 010 2.8zm-10.27 0h-4.67a1.4 1.4 0 010-2.8h4.67a1.4 1.4 0 010 2.8zm-10.27 0h-4.67a1.4 1.4 0 110-2.8h4.67a1.4 1.4 0 110 2.8zm-10.27 0h-4.67a1.4 1.4 0 110-2.8h4.67a1.4 1.4 0 010 2.8zm-10.27 0H293a1.4 1.4 0 010-2.8h4.67a1.4 1.4 0 010 2.8zm-10.27 0h-4.67a1.4 1.4 0 010-2.8h4.67a1.4 1.4 0 110 2.8zm-10.27 0h-4.67a1.4 1.4 0 110-2.8h4.67a1.4 1.4 0 010 2.8zm-10.28 0h-4.66a1.4 1.4 0 010-2.8h4.66a1.4 1.4 0 110 2.8zm-10.27 0h-4.66a1.4 1.4 0 010-2.8h4.66a1.4 1.4 0 110 2.8zm-10.27 0h-4.66a1.4 1.4 0 110-2.8h4.66a1.4 1.4 0 110 2.8zm-10.27 0h-4.66a1.4 1.4 0 110-2.8H236a1.4 1.4 0 010 2.8zm-10.27 0h-4.66a1.4 1.4 0 010-2.8h4.66a1.4 1.4 0 010 2.8zm-10.27 0h-4.66a1.4 1.4 0 110-2.8h4.66a1.4 1.4 0 010 2.8zm-10.27 0h-4.67a1.4 1.4 0 010-2.8h4.67a1.4 1.4 0 110 2.8zm-10.27 0h-4.66a1.4 1.4 0 110-2.8H195a1.4 1.4 0 010 2.8zm-10.27 0H180a1.4 1.4 0 010-2.8h4.67a1.4 1.4 0 010 2.8zm-10.27 0h-4.67a1.4 1.4 0 010-2.8h4.67a1.4 1.4 0 110 2.8zm-10.27 0h-4.67a1.4 1.4 0 110-2.8h4.67a1.4 1.4 0 010 2.8zm-10.27 0h-4.67a1.4 1.4 0 010-2.8h4.67a1.4 1.4 0 010 2.8zm-10.27 0h-4.67a1.4 1.4 0 010-2.8h4.67a1.4 1.4 0 110 2.8zm-10.27 0h-4.67a1.4 1.4 0 010-2.8h4.67a1.4 1.4 0 010 2.8zm-9.87-1.75a1.45 1.45 0 01-.87-.31 9.4 9.4 0 01-3.07-4.46 1.41 1.41 0 01.91-1.76 1.39 1.39 0 011.76.91 6.53 6.53 0 002.15 3.12 1.4 1.4 0 01-.88 2.5zm-3-9.36a1.4 1.4 0 01-1.4-1.4v-4.67a1.4 1.4 0 012.8 0v4.67a1.4 1.4 0 01-1.37 1.4zm0-10.27a1.4 1.4 0 01-1.4-1.4v-4.67a1.4 1.4 0 112.8 0V445a1.4 1.4 0 01-1.37 1.43zm0-10.27a1.4 1.4 0 01-1.4-1.4v-4.67a1.4 1.4 0 012.8 0v4.67a1.4 1.4 0 01-1.37 1.4zm0-10.27a1.4 1.4 0 01-1.4-1.4v-4.67a1.4 1.4 0 012.8 0v4.67a1.4 1.4 0 01-1.37 1.4zm0-10.27a1.4 1.4 0 01-1.4-1.4v-4.67a1.4 1.4 0 112.8 0v4.67a1.4 1.4 0 01-1.37 1.4zm0-10.27a1.4 1.4 0 01-1.4-1.4v-4.67a1.4 1.4 0 012.8 0V404a1.4 1.4 0 01-1.37 1.35zm0-10.27a1.4 1.4 0 01-1.4-1.4V389a1.4 1.4 0 012.8 0v4.67a1.4 1.4 0 01-1.37 1.41zm0-10.27a1.4 1.4 0 01-1.4-1.4v-4.67a1.4 1.4 0 112.8 0v4.67a1.4 1.4 0 01-1.37 1.4zm0-10.27a1.4 1.4 0 01-1.4-1.4v-4.67a1.4 1.4 0 112.8 0v4.67a1.4 1.4 0 01-1.37 1.4zm0-10.27a1.4 1.4 0 01-1.4-1.4v-4.67a1.4 1.4 0 012.8 0v4.67a1.4 1.4 0 01-1.37 1.4zm0-10.27a1.4 1.4 0 01-1.4-1.4v-4.67a1.4 1.4 0 112.8 0v4.67a1.4 1.4 0 01-1.37 1.4zm0-10.27a1.4 1.4 0 01-1.4-1.4v-4.67a1.4 1.4 0 112.8 0v4.67a1.4 1.4 0 01-1.37 1.4zm0-10.27a1.4 1.4 0 01-1.4-1.4v-4.67a1.4 1.4 0 012.8 0v4.67a1.4 1.4 0 01-1.37 1.4zm0-10.27a1.4 1.4 0 01-1.4-1.4v-4.67a1.4 1.4 0 012.8 0v4.67a1.4 1.4 0 01-1.37 1.4zm0-10.27a1.4 1.4 0 01-1.4-1.4v-4.67a1.4 1.4 0 112.8 0v4.67a1.4 1.4 0 01-1.37 1.4zm0-10.27a1.4 1.4 0 01-1.4-1.4v-4.67a1.4 1.4 0 012.8 0v4.67a1.4 1.4 0 01-1.37 1.4zm0-10.27a1.4 1.4 0 01-1.4-1.4v-4.67a1.4 1.4 0 012.8 0V291a1.4 1.4 0 01-1.37 1.38zm0-10.27a1.4 1.4 0 01-1.4-1.4V276a1.4 1.4 0 112.8 0v4.67a1.4 1.4 0 01-1.37 1.44zm0-10.27a1.4 1.4 0 01-1.4-1.4v-4.67a1.4 1.4 0 012.8 0v4.67a1.4 1.4 0 01-1.37 1.4zm0-10.27a1.4 1.4 0 01-1.4-1.4v-4.67a1.4 1.4 0 012.8 0v4.67a1.4 1.4 0 01-1.37 1.4zm0-10.27a1.4 1.4 0 01-1.4-1.41v-4.66a1.4 1.4 0 012.8 0v4.66a1.41 1.41 0 01-1.37 1.41zm0-10.27a1.4 1.4 0 01-1.4-1.4V235a1.4 1.4 0 112.8 0v4.67a1.4 1.4 0 01-1.37 1.33zm0-10.27a1.4 1.4 0 01-1.4-1.41v-4.66a1.4 1.4 0 112.8 0v4.66a1.41 1.41 0 01-1.37 1.41zm0-10.28a1.39 1.39 0 01-1.4-1.4v-4.66a1.4 1.4 0 012.8 0v4.66a1.4 1.4 0 01-1.37 1.4zm0-10.27a1.39 1.39 0 01-1.4-1.4v-4.66a1.4 1.4 0 112.8 0v4.66a1.4 1.4 0 01-1.37 1.4zm0-10.27a1.39 1.39 0 01-1.4-1.4v-4.66a1.4 1.4 0 112.8 0v4.66a1.4 1.4 0 01-1.37 1.4zm0-10.27a1.39 1.39 0 01-1.4-1.4v-4.66a1.4 1.4 0 112.8 0v4.66a1.4 1.4 0 01-1.37 1.4zm0-10.27a1.39 1.39 0 01-1.4-1.4v-4.67a1.4 1.4 0 012.8 0V178a1.4 1.4 0 01-1.37 1.4zm0-10.27a1.39 1.39 0 01-1.4-1.4v-4.67a1.4 1.4 0 012.8 0v4.67a1.4 1.4 0 01-1.37 1.4zm0-10.27a1.39 1.39 0 01-1.4-1.4v-4.67a1.4 1.4 0 012.8 0v4.67a1.4 1.4 0 01-1.37 1.4zm0-10.27a1.39 1.39 0 01-1.4-1.4v-4.67a1.4 1.4 0 112.8 0v4.67a1.4 1.4 0 01-1.37 1.4zm0-10.27a1.39 1.39 0 01-1.4-1.4v-1.71a1.4 1.4 0 112.8 0v1.71a1.4 1.4 0 01-1.37 1.4z"/><path class="cls-2" d="M111.83 139.32l8.66-12.72 8.65 12.72h-17.31zM535.5 311.34a1.4 1.4 0 01-1.4-1.4v-4.67a1.41 1.41 0 012.81 0v4.67a1.41 1.41 0 01-1.41 1.4zm0-10.27a1.4 1.4 0 01-1.4-1.4V295a1.41 1.41 0 012.81 0v4.67a1.41 1.41 0 01-1.41 1.4zm0-10.27a1.4 1.4 0 01-1.4-1.4v-4.67a1.41 1.41 0 012.81 0v4.67a1.41 1.41 0 01-1.41 1.4zm0-10.27a1.4 1.4 0 01-1.4-1.4v-4.67a1.41 1.41 0 012.81 0v4.67a1.41 1.41 0 01-1.41 1.4zm0-10.27a1.4 1.4 0 01-1.4-1.4v-4.67a1.41 1.41 0 012.81 0v4.67a1.41 1.41 0 01-1.41 1.4zm0-10.27a1.4 1.4 0 01-1.4-1.4v-4.67a1.41 1.41 0 012.81 0v4.67a1.41 1.41 0 01-1.41 1.41zm0-10.27a1.4 1.4 0 01-1.4-1.4v-4.67a1.41 1.41 0 012.81 0v4.67a1.41 1.41 0 01-1.41 1.4zm0-10.27a1.4 1.4 0 01-1.4-1.4v-4.67a1.41 1.41 0 012.81 0v4.67a1.41 1.41 0 01-1.41 1.4zm0-10.27a1.41 1.41 0 01-1.4-1.41v-4.66a1.41 1.41 0 012.81 0v4.66a1.41 1.41 0 01-1.41 1.41zm0-10.28a1.4 1.4 0 01-1.4-1.4v-4.66a1.41 1.41 0 012.81 0v4.66a1.4 1.4 0 01-1.41 1.4zm0-10.26a1.41 1.41 0 01-1.4-1.41v-4.66a1.41 1.41 0 012.81 0v4.66a1.41 1.41 0 01-1.41 1.41zm0-10.28a1.4 1.4 0 01-1.4-1.4v-4.66a1.41 1.41 0 012.81 0v4.7a1.4 1.4 0 01-1.41 1.36zm0-10.27a1.4 1.4 0 01-1.4-1.4V182a1.41 1.41 0 112.81 0v4.66a1.4 1.4 0 01-1.41 1.43zm0-10.27a1.4 1.4 0 01-1.4-1.4v-4.66a1.41 1.41 0 112.81 0v4.66a1.4 1.4 0 01-1.41 1.4zm0-10.27a1.4 1.4 0 01-1.4-1.4v-4.67a1.41 1.41 0 012.81 0v4.67a1.4 1.4 0 01-1.41 1.4zm0-10.27a1.4 1.4 0 01-1.4-1.4v-4.67a1.41 1.41 0 012.81 0v4.67a1.4 1.4 0 01-1.41 1.4zm0-10.27a1.4 1.4 0 01-1.4-1.4v-4.67a1.41 1.41 0 012.81 0v4.67a1.4 1.4 0 01-1.41 1.39zm0-10.27a1.4 1.4 0 01-1.4-1.4v-4.67a1.41 1.41 0 012.81 0v4.67a1.4 1.4 0 01-1.41 1.4zm0-10.27a1.4 1.4 0 01-1.4-1.4v-4.67a1.41 1.41 0 012.81 0v4.67a1.4 1.4 0 01-1.41 1.4zm0-10.27a1.4 1.4 0 01-1.4-1.4v-4.67a1.41 1.41 0 012.81 0v4.67a1.4 1.4 0 01-1.41 1.4zm0-10.27a1.4 1.4 0 01-1.4-1.4v-4.56a1.4 1.4 0 012.79-.21v4.77a1.4 1.4 0 01-1.39 1.4zm-2.29-9.66a1.37 1.37 0 01-1-.41 6.53 6.53 0 00-3.33-1.86 1.4 1.4 0 01.57-2.74 9.29 9.29 0 014.75 2.59 1.39 1.39 0 01-1 2.38zm-9.63-2.36h-4.67a1.4 1.4 0 110-2.8h4.67a1.4 1.4 0 010 2.8zm-10.27 0h-4.67a1.4 1.4 0 110-2.8h4.67a1.4 1.4 0 010 2.8zm-10.27 0h-4.67a1.4 1.4 0 110-2.8H503a1.4 1.4 0 010 2.8zm-10.27 0h-4.67a1.4 1.4 0 010-2.8h4.67a1.4 1.4 0 010 2.8zm-10.27 0h-4.67a1.4 1.4 0 110-2.8h4.67a1.4 1.4 0 010 2.8zm-10.27 0h-4.67a1.4 1.4 0 110-2.8h4.67a1.4 1.4 0 010 2.8zm-10.27 0h-4.67a1.4 1.4 0 010-2.8H462a1.4 1.4 0 010 2.8zm-10.27 0H447a1.4 1.4 0 110-2.8h4.67a1.4 1.4 0 010 2.8zm-10.27 0h-4.67a1.4 1.4 0 110-2.8h4.67a1.4 1.4 0 010 2.8zm-10.28 0h-4.66a1.4 1.4 0 010-2.8h4.66a1.4 1.4 0 010 2.8zm-10.26 0h-4.67a1.4 1.4 0 110-2.8h4.67a1.4 1.4 0 010 2.8zm-10.28 0h-4.66a1.4 1.4 0 110-2.8h4.66a1.4 1.4 0 010 2.8zm-10.27 0h-4.66a1.4 1.4 0 110-2.8h4.66a1.4 1.4 0 010 2.8zm-10.27 0h-4.66a1.4 1.4 0 110-2.8h4.66a1.4 1.4 0 010 2.8zm-10.27 0h-4.66a1.4 1.4 0 110-2.8h4.66a1.4 1.4 0 010 2.8zm-10.27 0h-4.66a1.4 1.4 0 110-2.8h4.66a1.4 1.4 0 010 2.8zm-10.27 0h-4.67a1.4 1.4 0 110-2.8h4.67a1.4 1.4 0 010 2.8zm-10.27 0h-4.67a1.4 1.4 0 110-2.8H349a1.4 1.4 0 010 2.8zm-10.27 0H334a1.4 1.4 0 110-2.8h4.67a1.4 1.4 0 110 2.8zm-10.27 0h-4.67a1.4 1.4 0 110-2.8h4.67a1.4 1.4 0 010 2.8zm-10.27 0h-4.67a1.4 1.4 0 110-2.8h4.67a1.4 1.4 0 010 2.8zm-10.27 0h-4.67a1.4 1.4 0 110-2.8h4.67a1.4 1.4 0 110 2.8zm-10.27 0H293a1.4 1.4 0 110-2.8h4.67a1.4 1.4 0 010 2.8zm-10.27 0h-4.67a1.4 1.4 0 110-2.8h4.67a1.4 1.4 0 010 2.8zm-10.27 0h-4.67a1.4 1.4 0 110-2.8h4.67a1.4 1.4 0 110 2.8zm-10.27 0h-4.67a1.4 1.4 0 110-2.8h4.67a1.4 1.4 0 110 2.8zm-10.27 0h-4.67a1.4 1.4 0 010-2.8h4.67a1.4 1.4 0 010 2.8zm-10.27 0h-4.67a1.4 1.4 0 010-2.8h4.67a1.4 1.4 0 110 2.8zm-10.27 0h-4.67a1.4 1.4 0 010-2.8H236a1.4 1.4 0 110 2.8zm-10.27 0h-4.67a1.4 1.4 0 010-2.8h4.67a1.4 1.4 0 010 2.8zm-10.27 0h-.69a1.4 1.4 0 010-2.8h.69a1.4 1.4 0 010 2.8z"/><path class="cls-2" d="M218.9 83.85l-12.72 8.66 12.72 8.66V83.85z"/><rect class="cls-1" x="509.79" y="315.23" width="51.42" height="51.42" rx="6.79"/><path class="cls-2" d="M554.43 368.25h-37.85a8.39 8.39 0 01-8.38-8.39V322a8.4 8.4 0 018.38-8.39h37.85a8.4 8.4 0 018.38 8.39v37.84a8.39 8.39 0 01-8.38 8.41zm-37.85-51.42a5.2 5.2 0 00-5.19 5.19v37.84a5.2 5.2 0 005.19 5.19h37.85a5.2 5.2 0 005.19-5.19V322a5.2 5.2 0 00-5.19-5.19z"/><rect class="cls-2" x="515.69" y="321.13" width="39.63" height="25.87" rx="2.26"/><path class="cls-1" d="M535.64 344.04l7.57-10.39L538 345.4l-2.5 1.6.14-2.96z"/><path class="cls-1" d="M535.5 347.6a.6.6 0 01-.59-.63l.14-3a.57.57 0 01.11-.33l7.57-10.38a.6.6 0 011 .59l-5.22 11.75a.51.51 0 01-.22.26l-2.49 1.6a.64.64 0 01-.3.14zm.73-3.36l-.07 1.63 1.36-.88 2.86-6.44z"/><path class="cls-1" d="M531.9 347a3.61 3.61 0 117.21 0z"/><path class="cls-1" d="M539.11 348.19h-7.21a1.19 1.19 0 01-1.2-1.19 4.81 4.81 0 119.61 0 1.19 1.19 0 01-1.2 1.19zm-5.69-2.39h4.17a2.4 2.4 0 00-4.17 0zM550 332.53a20.46 20.46 0 00-28.93 0l-1.41-1.41a22.44 22.44 0 0131.75 0z"/><path class="cls-1" d="M535.5 329.53a1 1 0 01-1-1v-3a1 1 0 112 0v3a1 1 0 01-1 1zm-13.05 5.4a1 1 0 01-.71-.29l-2.11-2.11a1 1 0 011.41-1.41l2.11 2.11a1 1 0 010 1.41 1 1 0 01-.7.29zm3.82-2.93a1 1 0 01-.86-.5l-1.5-2.59a1 1 0 111.73-1l1.49 2.58a1 1 0 01-.36 1.37 1 1 0 01-.5.14zm4.45-1.84a1 1 0 01-1-.74l-.77-2.89a1 1 0 01.7-1.22 1 1 0 011.23.7l.77 2.89a1 1 0 01-.71 1.22 1.09 1.09 0 01-.22.04zm9.57 0a1.09 1.09 0 01-.26 0 1 1 0 01-.71-1.22l.77-2.89a1 1 0 011.23-.7 1 1 0 01.7 1.22l-.77 2.89a1 1 0 01-.96.7zm4.45 1.84a1 1 0 01-.5-.13 1 1 0 01-.36-1.37l1.49-2.58a1 1 0 011.36-.37 1 1 0 01.37 1.36l-1.5 2.59a1 1 0 01-.86.5zm3.82 2.93a1 1 0 01-.7-.29 1 1 0 010-1.41l2.11-2.11a1 1 0 011.41 1.41l-2.11 2.11a1 1 0 01-.71.29z"/><circle class="cls-1" cx="535.51" cy="356.14" r="4.55"/><path class="cls-2" d="M535.5 361.89a5.75 5.75 0 115.75-5.75 5.76 5.76 0 01-5.75 5.75zm0-9.11a3.36 3.36 0 103.36 3.36 3.37 3.37 0 00-3.36-3.36z"/><path d="M521.65 509.16a92.83 92.83 0 1192.83-92.83 92.94 92.94 0 01-92.83 92.83zm0-167a74.16 74.16 0 1074.15 74.16 74.25 74.25 0 00-74.15-74.15z" fill="#54c2f0" opacity=".5"/><path class="cls-4" d="M575.55 324.28h-5v2.22h-1.35v-3.29h6.35v-.86h-5.33v-1.19h12.23v1.19h-5.39v.86h6.47v3.29h-1.45v-2.22h-5V328h-1.51zm6.14 10.32c.84 0 1-.29 1.11-1.85a3.34 3.34 0 001.33.5c-.2 2-.65 2.56-2.35 2.56h-3.68c-2.07 0-2.64-.39-2.64-1.9v-.32h-3.29v.81h-1.5v-5.94h11.39v5.13H577v.32c0 .59.2.69 1.24.69zM571 326.72h3.77v.9H571zm3.75-1.68v.9h-3.41V325zm-2.62 4.52v1h3.29v-1zm3.29 2.92v-1h-3.29v1zm5.08-2.92H577v1h3.58zm0 2.92v-1H577v1zm.73-7.44v.9h-3.44V325zm-3.44 1.68h3.86v.9h-3.86zm11.49 1.28a13.25 13.25 0 00-3-1.78l.85-1.17a14 14 0 013.09 1.63zm1.61 2.27a66.38 66.38 0 01-2.81 5.38l-1.34-1a51.64 51.64 0 003-5.38zm-.76-6.7a12.87 12.87 0 00-3-1.87l.86-1.12a12.21 12.21 0 013 1.73zm2.29 4.82h1.41v1.7c0 1.86-.25 4.1-2.5 5.74a5 5 0 00-1.1-1 5.34 5.34 0 002.19-4.78zm2.85-5.85v-2.04h1.6v2.08h4.69V324H596c-.4.76-.86 1.6-1.28 2.3 1.25 0 2.61-.08 3.95-.13-.37-.42-.77-.82-1.14-1.18l1.19-.63a15.75 15.75 0 013 3.47l-1.31.74a8.67 8.67 0 00-.71-1.11c-3 .15-6.15.32-8.38.42l-.17-1.47 1.93-.06a18.09 18.09 0 001.12-2.35H591v-1.43zm0 6h1.38v6.63h-1.38zm5 5.84a.49.49 0 00.31-.07.82.82 0 00.16-.43c0-.27 0-.86.06-1.63a4.37 4.37 0 001.05.57 9 9 0 01-.17 1.93 1.06 1.06 0 01-.5.69 1.63 1.63 0 01-.84.2h-.84a1.43 1.43 0 01-1-.35c-.27-.25-.35-.54-.35-1.61v-5.28h1.43v5.38c0 .3 0 .45.08.53a.28.28 0 00.23.07zm12.52-4.62a15.56 15.56 0 002.85-3.75c-.38.09-3.11.62-5.83 1.18v4.75c0 1.11.37 1.48 2.3 1.48a26.34 26.34 0 005.28-.52l-.07 1.81a37.56 37.56 0 01-5.26.36c-3.42 0-4-.88-4-2.67v-4.86l-3.72.77-.32-1.74c.78-.1 2.3-.37 4-.69v-2.67a12.11 12.11 0 00-.12-1.72h2a14.06 14.06 0 00-.12 1.72v2.33c2.67-.52 5.36-1.06 6.08-1.23a4.81 4.81 0 001-.33l1.26 1a8 8 0 00-.47.78 24.75 24.75 0 01-3.46 4.89zm15.14 1.24a16.13 16.13 0 005.83-6.34l1 1.84a17.42 17.42 0 01-5.89 6.08 18.56 18.56 0 01-6.44 2.5l-1.12-1.73a17.48 17.48 0 006.62-2.35zm-.57-5.38L626 327a38.55 38.55 0 00-4.2-3.56l1.23-1.31a34.57 34.57 0 014.33 3.46zm21.98-.82a9.33 9.33 0 001.68-.1v1.78c-.27 0-.88-.05-1.67-.05h-1.59v.57c0 4.34-1 6.74-4.91 8.5l-1.43-1.34c3.15-1.16 4.62-2.6 4.62-7.06v-.67h-4.43V329c0 .69 0 1.4.07 1.63h-1.85c0-.23.08-.94.08-1.63v-2.52h-1.64c-.79 0-1.48 0-1.75.05v-1.8a12.39 12.39 0 001.75.12h1.64v-1.93c0-.59-.06-1.13-.08-1.34h1.88a9.46 9.46 0 00-.1 1.34v1.93H646v-1.95a12.7 12.7 0 00-.08-1.46h1.9a11.63 11.63 0 00-.1 1.46v1.95zm-79.18 20.5a8.14 8.14 0 012.42-5.83l.92.44a7.62 7.62 0 000 10.79l-.92.44a8.14 8.14 0 01-2.42-5.84zm5.69-4.3h2.33c2.76 0 4.34 1.52 4.34 4.45s-1.58 4.53-4.26 4.53h-2.41zm2.23 7.82c1.93 0 3-1.13 3-3.37s-1-3.3-3-3.3h-.81v6.67zm11.82 1.12l-2-3.62h-1.45v3.62H585v-9h2.94c1.85 0 3.24.66 3.24 2.6a2.49 2.49 0 01-1.88 2.57l2.2 3.81zm-3.49-4.76h1.36c1.3 0 2-.53 2-1.62s-.71-1.47-2-1.47h-1.36zm7.19-4.18h1.46l3 5.27.94 1.91c-.08-.93-.19-2-.19-3V341h1.34v9h-1.45l-3-5.29-.94-1.88h-.06c.08.92.19 2 .19 2.94V350h-1.29zm13.74 6c-.16-.39-.51-1.06-.83-1.64v5.5h-1v-5.17a11.36 11.36 0 01-1.31 2.93 5.65 5.65 0 00-.54-1 13.13 13.13 0 001.75-4.36h-1.49v-1.05h1.59v-2.51h1v2.58h1.29v1.05h-1.29v.72c.34.45 1.24 1.83 1.44 2.16zm2.68 1.55a7.53 7.53 0 01-1.94 2 3.88 3.88 0 00-.71-.69 6.56 6.56 0 001.77-1.75zm1.86-.67v1.93c0 .47-.07.75-.43.9a4 4 0 01-1.55.16 3.47 3.47 0 00-.32-.92h1.07c.14 0 .17 0 .17-.16v-1.91h-3V347h7.09v.93zm-1.88-6.74h-2.11v-.93h7v.93h-2.19v.72h1.87v3h-6.32v-3H610zm-1.41 5.15v-.85h5.69v.85zm.62-2.29h.89v-1.28h-.89zm2.62-2.86h-.94v.72h.94zm-.94 1.58V344h.94v-1.28zm2.44 5.42A11.86 11.86 0 01615 350l-.84.59a13.44 13.44 0 00-1.62-1.88zm.28-5.42h-1V344h1zm4.84.73a10.21 10.21 0 00-1.93-.95l.57-.77a9.85 9.85 0 011.95.84zm9.18 5.2h-5v2.26h-1.13v-2.26h-4.81v-1h4.81v-.93h1.16v.93h5zm-10.78-2.48a25.17 25.17 0 002.42-2.48l.61.77c-.69.86-1.49 1.77-2.24 2.58zm2.47-4.64a8.94 8.94 0 00-1.91-1l.59-.78a10.24 10.24 0 011.93.91zm1.23 1.36c-.22.23-.45.45-.67.64a11.69 11.69 0 00-.89-.8 8.44 8.44 0 002.46-3.09l1.09.34c-.16.34-.36.69-.56 1h1.46a11.87 11.87 0 00.59-1.3l1.23.22c-.22.37-.45.75-.67 1.08h2.51v.89h-2.63v.74h2.24v.83h-2.24v.72h2.27v.84h-2.27v.77h2.94v.89h-6.86zm2.83-1h-1.73v.74h1.73zm0 1.57h-1.73v.72h1.73zm0 1.55h-1.73v.77h1.73zm10.07-4.88a17.81 17.81 0 01-1.23 2.57v8.18h-1.15v-6.41a9.69 9.69 0 01-1.07 1.26 7.43 7.43 0 00-.68-1.16 13.25 13.25 0 003-4.8zm7.06 3.37h-1.45v6c0 .79-.21 1.11-.72 1.28a9.48 9.48 0 01-2.7.19 4.49 4.49 0 00-.44-1.13c1 .05 2 0 2.29 0s.39-.1.39-.36v-6h-4.77v-1.14h4.77v-2.52h1.18v2.52h1.45zm-5 4.56a30.36 30.36 0 00-1.68-3l1-.46c.59.91 1.38 2.15 1.75 2.88zm8.97-5.17v.86c0 2.08-.18 5.11-1.42 7.1a3.33 3.33 0 00-1-.58c1.17-1.88 1.28-4.59 1.28-6.52v-3.54h9.14v2.68zm0-1.78v.89h6.91v-.89zm8.23 8.86c0 .45-.09.66-.41.79a4.29 4.29 0 01-1.52.14 4.74 4.74 0 00-.3-.79h.14c0-.14-.11-.26-.18-.42-1.49.1-3 .17-4.12.22l-.07-.82 1.92-.06v-.85h-2.31v2.72h-1v-3.49h3.34v-.59h-2.86v-2.1h2.86v-.55c-1 .05-2 .09-2.86.09a2.83 2.83 0 00-.22-.72 41 41 0 006.3-.48l.64.67a22.86 22.86 0 01-2.83.37v.62h3v2.1h-3v.59h3.51zm-4.54-3.81v-.73h-1.85v.73zm1-.73v.73h1.89v-.73zm1.79 4.7h.5c.13 0 .17 0 .17-.16v-1.77h-2.43v.8h.87c-.09-.16-.18-.32-.27-.46l.67-.18a9.48 9.48 0 01.89 1.66zm7.42-4.83a8.14 8.14 0 01-2.41 5.84l-.93-.44a7.59 7.59 0 000-10.79l.93-.44a8.13 8.13 0 012.41 5.83zM209.67 203.7c0 2.79-.24 6.91-1.85 9.61a6.36 6.36 0 00-1.39-.82c1.54-2.54 1.66-6.18 1.66-8.77v-4.81h13.44v1.5h-11.86zm12.18 7.59v1.48H209.3v-1.48h5.34v-5h-4.22v-1.47h4.22v-3.57h1.58v3.57h4.52v1.47h-4.52v5zm16.89-9.82v.77c-.37 6.8-.69 9.29-1.42 10.15a2.09 2.09 0 01-1.55.77 19.59 19.59 0 01-2.67 0 3.8 3.8 0 00-.56-1.61c1.11.1 2.14.1 2.56.1a.94.94 0 00.77-.25c.57-.54.92-2.84 1.21-8.34h-5.26a12.15 12.15 0 01-6.16 10.35 6.86 6.86 0 00-1.21-1.26 10.76 10.76 0 005.71-9.09h-5.21v-1.59h5.29v-3.53h1.65v3.53zm11.95 5.69a15.53 15.53 0 002.85-3.74l-5.83 1.17v4.76c0 1.11.37 1.47 2.31 1.47a26.31 26.31 0 005.27-.52l-.07 1.82a39.25 39.25 0 01-5.25.35c-3.43 0-4-.87-4-2.67v-4.86l-3.72.78-.31-1.75c.77-.1 2.3-.37 4-.69v-2.67a11.87 11.87 0 00-.12-1.71h2a16 16 0 00-.12 1.71V203c2.68-.53 5.36-1.06 6.09-1.23a4.17 4.17 0 001-.34l1.26 1c-.13.2-.33.52-.47.77a24.46 24.46 0 01-3.46 4.89zm15.14 1.21a15.9 15.9 0 005.83-6.33l1 1.83a17.29 17.29 0 01-5.9 6.08 18.56 18.56 0 01-6.44 2.5l-1.12-1.73a17.48 17.48 0 006.63-2.35zm-.57-5.37l-1.33 1.36a37.66 37.66 0 00-4.2-3.57l1.23-1.31a33.76 33.76 0 014.3 3.52zm21.98-.79a10.31 10.31 0 001.68-.1v1.78a15.63 15.63 0 00-1.66 0h-1.6v.57c0 4.33-1 6.73-4.91 8.5l-1.42-1.35c3.14-1.16 4.62-2.6 4.62-7.05v-.67h-4.44v2.52c0 .68.05 1.39.07 1.63h-1.85c0-.24.09-1 .09-1.63v-2.52h-3.4v-1.8a14.37 14.37 0 001.75.12h1.65v-1.94a13.1 13.1 0 00-.09-1.34h1.88a9.6 9.6 0 00-.1 1.34v1.94H284v-2a10.13 10.13 0 00-.09-1.46h1.9a11.63 11.63 0 00-.1 1.46v2zm-81.46 20.5a8.16 8.16 0 012.42-5.84l.92.44a7.62 7.62 0 000 10.79l-.92.44a8.12 8.12 0 01-2.42-5.83zm9.22-.17a9.17 9.17 0 012.51-.38c1.8 0 3.15 1 3.15 2.51s-.83 2.45-2.61 2.87a8.12 8.12 0 01-1.53.17l-.44-1.22a8.7 8.7 0 001.46-.08c1-.19 1.9-.72 1.9-1.75s-.84-1.44-1.94-1.44a8.36 8.36 0 00-2.48.4v2.49c0 1.29-.47 1.65-1.18 1.65-1 0-2.66-.95-2.66-2.12s1.23-2.09 2.66-2.71v-2.09a7.72 7.72 0 01-.79 0c-.54 0-1.11 0-1.59-.06v-1.18a11.39 11.39 0 001.6.1h.83v-1.21a7.06 7.06 0 00-.07-.95h1.32c0 .23-.06.63-.07.92s0 .69 0 1.12a14.53 14.53 0 002.38-.47v1.2a23.7 23.7 0 01-2.43.4v1.39zm-1 3.38v-1.86c-.88.43-1.49 1-1.49 1.53s.71.89 1.13.89c.16 0 .36-.16.36-.56zm4.86-7a22.79 22.79 0 012.85 1.73l-.59 1a17.56 17.56 0 00-2.8-1.78zm13.19 1.65a8.09 8.09 0 01-2.25 2.31 16.76 16.76 0 004.55 1.11 5.39 5.39 0 00-.73 1.1c-.5-.07-1-.17-1.47-.28v3.46H231v-.36h-4.53v.39h-1.11v-3.38c-.57.17-1.16.3-1.73.43a4.34 4.34 0 00-.56-1 17.22 17.22 0 004.57-1.41 9 9 0 01-1.4-1.2 9.78 9.78 0 01-1.72 1 3.2 3.2 0 00-.76-.84 7.57 7.57 0 003.46-2.63l1.19.24c-.14.21-.3.42-.47.63h3.38zm-7.37 0h-1.11v-2.44h4.53v-1h1.16v1h4.59v2.44h-1.16v-1.42h-8zm6.53 4a13 13 0 01-2.51-1 15.82 15.82 0 01-2.26 1zM231 227v-1.5h-4.53v1.5zm-4-5.88a6.62 6.62 0 001.67 1.27 7.44 7.44 0 001.65-1.33h-3.25zm12.55 3.24c-.16-.38-.51-1-.83-1.61v5.55h-1.05v-5.16a11.52 11.52 0 01-1.31 2.93 5.37 5.37 0 00-.53-1 13 13 0 001.74-4.36h-1.49v-1h1.59v-2.57h1.05v2.57H240v1h-1.31v.67c.33.44 1.23 1.81 1.43 2.13zm3.25 1.71c-.92.53-1.92 1.09-2.72 1.53l-.52-.95c.76-.34 1.86-.93 2.94-1.51zm2.33-.92a5.09 5.09 0 002.16 1.71 4.54 4.54 0 00-.71.91 6 6 0 01-2.46-2.52v1.87c0 .54-.11.84-.47 1a4.27 4.27 0 01-1.66.18 3.94 3.94 0 00-.3-1h1.13c.13 0 .2-.05.2-.19v-4.39h-3v-.95h3V221h-2.4v-.86H243v-.69h-2.74v-.91h1.41a9.67 9.67 0 00-.55-1.12l.89-.31a6.72 6.72 0 01.71 1.38l-.14.05h1.8a10 10 0 00.63-1.48l1.14.31c-.25.41-.49.83-.71 1.17h1.43v.91h-2.77v.69h2.49v.86h-2.49v.76h2.95v.95h-2.95v.52a9 9 0 00.62 1.33 11.08 11.08 0 001.35-1.51l.87.62a15.11 15.11 0 01-1.65 1.59zm-4-2a9.26 9.26 0 011.23 1.53l-.83.57a9.78 9.78 0 00-1.18-1.58zm8.78-4.03c.87-.09 3-.29 5.26-.48 1.28-.11 2.5-.18 3.32-.2v1.23a11.57 11.57 0 00-2.36.17 4 4 0 00-2.66 3.63c0 2.2 2.05 2.93 4 3l-.44 1.3c-2.37-.13-4.84-1.39-4.84-4.06a4.78 4.78 0 012-3.91c-1 .11-4 .4-5.37.69l-.12-1.33c.55.01.96-.02 1.21-.04zm7.88 3.56l-.79.32a11.2 11.2 0 00-1-1.71l.73-.32a19.11 19.11 0 011.06 1.71zm1.39-.56l-.74.37a12.26 12.26 0 00-1-1.69l.73-.33a18.64 18.64 0 011.01 1.65zm11.82 4.76c0 .66-.16 1-.6 1.18a6.85 6.85 0 01-2.28.19 5.13 5.13 0 00-.38-1.1h1.82c.23 0 .3-.08.3-.31v-2.18h-3v3.49h-1.14v-3.49H263a7 7 0 01-1.53 3.69 4 4 0 00-.89-.74c1.33-1.48 1.45-3.64 1.45-5.36v-4.34h9zm-5.23-3.27v-1.8h-2.65v1.8zm-2.66-4.61v1.72h2.65V219zm6.74 0h-3v1.72h3zm0 4.59v-1.8h-3v1.8zm3.61 3.85a4.06 4.06 0 001.67-2.08l.94.35a4.62 4.62 0 01-1.72 2.35zm10.84-6.67h-10.43v-.92h2.76a6.72 6.72 0 00-.41-1l.28-.06h-2.07v-.9h4v-.73h1.14v.73h4.05v.9h-1.93l.31.06q-.33.62-.6 1h2.86zm-1.3 4.09h-4.25a9.25 9.25 0 011.61.95l-.7.72a8.72 8.72 0 00-2-1.21l.47-.46h-3v-3.57H283zm-1.13-2.73h-5.62v.55h5.62zm0 1.32h-5.62v.55h5.62zm-1.6 3.81c.48 0 .57-.13.62-1.12a3.13 3.13 0 001 .36c-.13 1.36-.44 1.69-1.49 1.69h-2.15c-1.35 0-1.69-.27-1.69-1.26v-1.45h1.1v1.44c0 .29.11.34.7.34zm-3-8.52a4.7 4.7 0 01.41 1l-.24.06h3-.19a10.33 10.33 0 00.49-1.06zm5.25 6.5a10.37 10.37 0 012.1 2.17l-.94.56a9.34 9.34 0 00-2-2.21zm7.15-2.53a8.12 8.12 0 01-2.42 5.83l-.92-.44a7.62 7.62 0 000-10.79l.92-.44a8.16 8.16 0 012.42 5.84zm33.04-82.1a13 13 0 00-3-1.78l.86-1.17a14.18 14.18 0 013.09 1.63zm1.62 2.27c-.83 1.77-1.87 3.78-2.81 5.38l-1.34-1a49.93 49.93 0 002.95-5.38zm-.76-6.7a13.09 13.09 0 00-3-1.87l.85-1.12a12.47 12.47 0 013 1.73zm2.28 4.82h1.42v1.7c0 1.86-.26 4.1-2.51 5.74a5 5 0 00-1.09-1 5.33 5.33 0 002.18-4.78zm2.86-5.85v-2.08h1.6v2.08H335v1.43h-5.57c-.41.76-.86 1.6-1.28 2.3 1.24 0 2.6-.08 3.95-.13-.37-.42-.78-.82-1.15-1.18l1.2-.63a15.42 15.42 0 013 3.47l-1.31.74a8.49 8.49 0 00-.7-1.11c-3 .15-6.15.32-8.39.42l-.17-1.48h1.94a18 18 0 001.1-2.35h-3.17v-1.43zm0 6h1.38v6.63h-1.38zm5 5.84a.53.53 0 00.3-.07c.07 0 .12-.18.17-.43s0-.86.05-1.63a4.83 4.83 0 001.06.57 10.58 10.58 0 01-.17 1.93 1.06 1.06 0 01-.5.69 1.66 1.66 0 01-.84.2h-.84a1.4 1.4 0 01-1-.35c-.27-.25-.36-.54-.36-1.61V141H333v5.38a1 1 0 00.08.53.36.36 0 00.24.07zm18.96-.09v1.19h-15.13v-1.19h6.77v-.81H339V145h5.35v-.75h-4.93v-4.2h11.53v4.2h-5.09v.75h5.42v1.06h-5.42v.81zm-.06-7.46h-15v-1.14h15zm-2.15-1.78h-10.77v-4.07h10.77zm-9.6 4.08h3.45V141h-3.45zm3.45 1.65v-.79h-3.45v.79zm4.56-8.94h-7.67v.76h7.67zm0 1.58h-7.67v.77h7.67zm.51 4.94h-3.56v.77h3.56zm0 1.63h-3.56v.79h3.56zm14.49-.27a15.56 15.56 0 002.85-3.75c-.38.09-3.1.62-5.83 1.18v4.75c0 1.11.37 1.48 2.31 1.48a26.31 26.31 0 005.27-.52l-.07 1.81a37.56 37.56 0 01-5.26.36c-3.42 0-4-.88-4-2.67v-4.86l-3.72.77-.32-1.74c.78-.1 2.31-.37 4-.69v-2.67a12.11 12.11 0 00-.12-1.72h2a14.06 14.06 0 00-.12 1.72v2.33c2.67-.52 5.36-1.06 6.09-1.23a4.7 4.7 0 001-.33l1.26 1c-.13.21-.34.52-.47.78a24.75 24.75 0 01-3.46 4.89zm15.13 1.21a16.13 16.13 0 005.83-6.34l1 1.84a17.42 17.42 0 01-5.89 6.08 18.56 18.56 0 01-6.44 2.5l-1.12-1.73a17.48 17.48 0 006.62-2.35zm-.57-5.38l-1.33 1.36a37.62 37.62 0 00-4.2-3.56l1.23-1.31a34.57 34.57 0 014.31 3.51zm21.99-.79a9.26 9.26 0 001.68-.1v1.78c-.27 0-.87-.05-1.66-.05h-1.6v.57c0 4.34-1 6.74-4.91 8.5l-1.42-1.34c3.14-1.16 4.62-2.6 4.62-7.06V139h-4.44v2.52c0 .69.05 1.4.07 1.63h-1.85c0-.23.08-.94.08-1.63V139h-1.64c-.79 0-1.48 0-1.75.05v-1.8a12.52 12.52 0 001.75.12H391v-1.93c0-.59-.06-1.13-.08-1.34h1.88a9.46 9.46 0 00-.1 1.34v1.93h4.44v-2A10.24 10.24 0 00397 134h1.9a11.63 11.63 0 00-.1 1.46v2zM319 157.87a8.1 8.1 0 012.42-5.83l.92.44a7.62 7.62 0 000 10.79l-.92.44a8.1 8.1 0 01-2.42-5.84zm9.18-.17a9.53 9.53 0 012.51-.37c1.8 0 3.15 1 3.15 2.51s-.83 2.44-2.61 2.87a8.12 8.12 0 01-1.53.17l-.44-1.22a7.8 7.8 0 001.46-.09c1-.18 1.9-.72 1.9-1.74s-.84-1.44-1.94-1.44a8 8 0 00-2.48.4c0 1 .05 2 .05 2.49 0 1.28-.48 1.65-1.18 1.65-1.05 0-2.67-1-2.67-2.13 0-1 1.24-2.08 2.67-2.71v-2.08h-.8c-.53 0-1.11 0-1.58-.06v-1.17a11.31 11.31 0 001.6.1h.83v-1.2a7.22 7.22 0 00-.07-1h1.32c0 .24-.06.64-.08.93s0 .68 0 1.11a15.72 15.72 0 002.38-.46v1.19a24.53 24.53 0 01-2.43.41v1.39zm-1.05 3.38v-1.85c-.88.43-1.49 1-1.49 1.53s.71.89 1.12.89c.24 0 .37-.16.37-.57zm4.86-7a22.78 22.78 0 012.85 1.74l-.6 1a18.19 18.19 0 00-2.79-1.78zm13.24 1.66a8 8 0 01-2.26 2.31 17.61 17.61 0 004.56 1.11 5.81 5.81 0 00-.74 1.09c-.5-.07-1-.17-1.46-.28v3.47h-1.16v-.37h-4.53v.4h-1.11v-3.39c-.57.17-1.16.31-1.73.43a4.27 4.27 0 00-.56-1 17.24 17.24 0 004.57-1.42 8.39 8.39 0 01-1.4-1.19 9.52 9.52 0 01-1.72 1 3.2 3.2 0 00-.76-.84 7.56 7.56 0 003.46-2.62l1.19.24a6.74 6.74 0 01-.47.62h3.38zm-7.37 0h-1.11v-2.44h4.53v-1h1.16v1H347v2.44h-1.16v-1.41h-8zm6.53 4a14.12 14.12 0 01-2.51-1 15.82 15.82 0 01-2.26 1zm-.22 2.39v-1.45h-4.53v1.45zm-3.95-5.87a6.87 6.87 0 001.67 1.27 7.68 7.68 0 001.65-1.33h-3.25zm12.51 3.26c-.16-.38-.51-1-.83-1.61v5.56h-1v-5.17a11.36 11.36 0 01-1.31 2.93 6.12 6.12 0 00-.53-1 13 13 0 001.74-4.35h-1.49v-1.05h1.59v-2.58h1v2.58h1.31v1.05h-1.31v.67c.33.44 1.23 1.81 1.43 2.12zm3.25 1.71c-.92.54-1.92 1.1-2.73 1.54l-.51-1c.76-.34 1.86-.93 2.94-1.52zm2.33-.91a5.07 5.07 0 002.16 1.7 4.6 4.6 0 00-.71.92 6.15 6.15 0 01-2.47-2.53v1.87c0 .55-.11.84-.46 1a4.27 4.27 0 01-1.66.18 4.6 4.6 0 00-.3-1H356c.13 0 .2 0 .2-.2v-4.36h-3v-1h3v-.76h-2.4v-.87h2.4v-.68h-2.74v-.92h1.41a10.54 10.54 0 00-.55-1.12l.89-.3a6.48 6.48 0 01.71 1.38h-.14 1.8a9.85 9.85 0 00.63-1.47l1.14.3c-.25.42-.49.83-.71 1.17h1.43v.92h-2.78v.68h2.5v.87h-2.5v.9h3v1h-3v.51a8.13 8.13 0 00.63 1.33 11.65 11.65 0 001.35-1.5l.87.61a14.37 14.37 0 01-1.65 1.6zm-4-2a8.86 8.86 0 011.23 1.53l-.83.57a9.82 9.82 0 00-1.18-1.59zm8.77-4.03c.88-.09 3-.3 5.26-.48 1.29-.11 2.51-.18 3.33-.21v1.23a11.57 11.57 0 00-2.36.18 4 4 0 00-2.66 3.62c0 2.21 2 2.93 4 3l-.44 1.29c-2.37-.12-4.84-1.39-4.84-4a4.8 4.8 0 012-3.92c-1.05.11-4 .4-5.37.7l-.12-1.33zm7.89 3.56l-.76.34a12.25 12.25 0 00-1-1.71l.73-.31a17.75 17.75 0 011.06 1.68zm1.39-.56l-.74.36a12.15 12.15 0 00-1-1.68l.73-.33a18.64 18.64 0 011.01 1.65zm11.81 4.76c0 .66-.16 1-.6 1.17a6.81 6.81 0 01-2.29.2 4.46 4.46 0 00-.37-1.1h1.82c.24 0 .3-.07.3-.3v-2.19h-2.95v3.49h-1.14v-3.49h-2.81a7 7 0 01-1.52 3.7 3.73 3.73 0 00-.89-.74c1.33-1.48 1.45-3.64 1.45-5.36v-4.33h9zm-5.23-3.27V157h-2.65v.49c0 .41 0 .87-.05 1.32zm-2.65-4.59v1.72h2.65v-1.72zm6.74 0h-2.95v1.72H383zm0 4.59V157h-2.95v1.81zm3.6 3.83a4.09 4.09 0 001.68-2.09l.94.36a4.59 4.59 0 01-1.72 2.34zm10.84-6.68h-10.42V155h2.76a5.61 5.61 0 00-.42-1.05l.28-.06h-2.06V153h4v-.73h1.14v.73h4v.91h-1.93l.31.06c-.22.4-.42.76-.6 1.05h2.85zM396.2 160H392a9 9 0 011.61 1l-.7.72a8.38 8.38 0 00-2-1.21l.47-.47h-3v-3.56h7.83zm-1.12-2.72h-5.63v.55h5.63zm0 1.32h-5.63v.56h5.63zm-1.6 3.81c.48 0 .56-.14.61-1.13a3.31 3.31 0 001 .37c-.14 1.36-.44 1.69-1.49 1.69h-2.15c-1.35 0-1.69-.27-1.69-1.26v-1.45h1.09v1.44c0 .29.11.34.71.34zm-3-8.52a4.7 4.7 0 01.41 1.05l-.24.06h3l-.19-.05a9.25 9.25 0 00.48-1.06zm5.24 6.49a10.11 10.11 0 012.1 2.17l-.94.57a9.07 9.07 0 00-2-2.21zm7.13-2.51a8.14 8.14 0 01-2.42 5.84l-.93-.44a7.59 7.59 0 000-10.79l.93-.44a8.14 8.14 0 012.42 5.83zm-17.78 348.21a15.46 15.46 0 00-3.09-1.8l.81-1.12a14.92 14.92 0 013.12 1.65zm1.36 2.14c-.8 1.74-1.83 3.74-2.73 5.32l-1.35-.94a51.09 51.09 0 002.91-5.33zm-.42-6.66a14.59 14.59 0 00-3-1.79l.84-1.11a14 14 0 013.07 1.66zM397.45 512v1.36h-11.69V512h1.36v-5.12h9.28V512zm-1.62-6.36h-8.17v-6.49h8.17zm-7.31 6.36h1.32v-3.79h-1.32zm5.78-11.56h-5.16v1.33h5.16zm0 2.56h-5.16v1.34h5.16zm-3.3 5.22V512h1.34v-3.79zm2.53 0V512h1.35v-3.79zm8.95-3.47c0 2.64-.23 6.54-1.69 9.09a7.11 7.11 0 00-1.28-.85c1.36-2.39 1.48-5.8 1.48-8.24V500H407v-1.58h1.63V500h6.11v1.39h-12.3zm11.18 3.65a8.18 8.18 0 01-3.13 3.26 22 22 0 004.55.89 5.43 5.43 0 00-.9 1.34 18.91 18.91 0 01-5.33-1.39 22.63 22.63 0 01-5.71 1.38 4.61 4.61 0 00-.66-1.31 23.57 23.57 0 004.81-.93 8.89 8.89 0 01-2.32-2.16l.76-.29h-2.57v-1.26h9.25l.29-.05zm-8.2-1.34v-2.69H403v-1.28h2.49v-1.28h1.47v1.28h3.63v-1.28h1.53v1.28h2.57v1.28h-2.57v2.69zm1 2.13a7.2 7.2 0 002.44 1.81 7.66 7.66 0 002.49-1.81zm.47-4.82v1.48h3.63v-1.48zm19.21 3.32A15.6 15.6 0 00429 504l-5.83 1.17v4.76c0 1.11.37 1.48 2.3 1.48a27.09 27.09 0 005.28-.52l-.07 1.81a39.41 39.41 0 01-5.26.35c-3.43 0-4-.87-4-2.67v-4.85l-3.71.77-.32-1.75c.77-.1 2.3-.37 4-.69v-2.67a11.89 11.89 0 00-.11-1.71h2a13.76 13.76 0 00-.12 1.71v2.34c2.67-.52 5.36-1.06 6.08-1.23a5 5 0 001-.33l1.26 1a7.84 7.84 0 00-.47.77 24.18 24.18 0 01-3.46 4.89zm15.15 1.21a16 16 0 005.83-6.33l1 1.83a17.29 17.29 0 01-5.9 6.08 18.5 18.5 0 01-6.43 2.51l-1.13-1.73a17.36 17.36 0 006.63-2.36zm-.58-5.37l-1.32 1.36a38.38 38.38 0 00-4.2-3.56l1.22-1.31a33 33 0 014.3 3.51zm21.99-.79a10.16 10.16 0 001.67-.1v1.78a15.51 15.51 0 00-1.66-.05h-1.59v.57c0 4.33-1 6.74-4.91 8.5l-1.43-1.34c3.14-1.16 4.62-2.61 4.62-7.06v-.67H455v2.52c0 .69 0 1.39.06 1.63h-1.84c0-.24.08-.94.08-1.63v-2.52h-1.65c-.79 0-1.47 0-1.74.05v-1.8a14 14 0 001.74.12h1.65v-1.93c0-.59-.07-1.13-.08-1.35h1.88a8.39 8.39 0 00-.1 1.35v1.93h4.43v-1.95a12.54 12.54 0 00-.08-1.46h1.9a10 10 0 00-.1 1.46v1.95zm-81.46 20.5a8.11 8.11 0 012.41-5.83l.93.44a7.59 7.59 0 000 10.79l-.93.44a8.15 8.15 0 01-2.41-5.84zm9.21-.17a9.24 9.24 0 012.52-.38c1.79 0 3.15 1 3.15 2.52s-.83 2.44-2.62 2.86a8 8 0 01-1.52.18l-.44-1.23a8.58 8.58 0 001.45-.08c1-.18 1.91-.72 1.91-1.75s-.85-1.44-1.94-1.44a8 8 0 00-2.48.41v2.49c0 1.28-.48 1.64-1.19 1.64-1 0-2.66-.95-2.66-2.12 0-1 1.24-2.09 2.66-2.71v-2.09a7.72 7.72 0 01-.79 0c-.54 0-1.11 0-1.59-.06v-1.17a12.74 12.74 0 001.6.09h.83v-1.21a9.2 9.2 0 00-.07-.95h1.31c0 .23-.06.63-.07.93s0 .68-.05 1.11a14.32 14.32 0 002.38-.47v1.2a22 22 0 01-2.43.4v1.39zm-1.05 3.38v-1.85c-.88.42-1.49 1-1.49 1.52s.71.89 1.12.89c.23-.01.37-.16.37-.56zm4.86-7a23 23 0 012.86 1.73l-.6 1a17.92 17.92 0 00-2.79-1.78zm13.25 1.65a7.76 7.76 0 01-2.26 2.31 16.76 16.76 0 004.55 1.11 5.84 5.84 0 00-.73 1.1c-.5-.07-1-.17-1.46-.28v3.47h-1.16v-.37h-4.53v.39h-1.11v-3.38c-.58.17-1.16.31-1.74.43a3.78 3.78 0 00-.56-1 17.57 17.57 0 004.58-1.42 7.65 7.65 0 01-1.4-1.2 9.89 9.89 0 01-1.73 1 3.17 3.17 0 00-.75-.84 7.59 7.59 0 003.45-2.63l1.2.25-.48.62h3.18l.2-.05zm-7.37 0H399v-2.44h4.53v-1.05h1.16v1.05h4.59v2.44h-1.16v-1.42h-8zm6.53 4a14.23 14.23 0 01-2.52-1 15.82 15.82 0 01-2.26 1zm-.22 2.39V526h-4.53v1.45zm-4-5.87a7.13 7.13 0 001.67 1.27 8.06 8.06 0 001.65-1.33h-3.24zm12.55 3.27c-.16-.38-.52-1-.83-1.61v5.55h-1.05v-5.16a11.52 11.52 0 01-1.31 2.93 5.39 5.39 0 00-.54-1 13 13 0 001.75-4.36h-1.49v-1h1.59v-2.57h1.05v2.57h1.3v1h-1.3v.68c.32.43 1.23 1.8 1.42 2.12zm3.24 1.71c-.91.53-1.91 1.1-2.72 1.54l-.51-1c.75-.34 1.85-.92 2.94-1.51zm2.33-.92a5.11 5.11 0 002.17 1.71 4.26 4.26 0 00-.71.92 6.09 6.09 0 01-2.47-2.53v1.87c0 .55-.11.84-.46 1a4.29 4.29 0 01-1.66.19 4 4 0 00-.31-1h1.14c.14 0 .19-.05.19-.19v-4.38h-3v-1h3v-.75h-2.39v-.87h2.39V520h-2.73v-.92h1.4a7.73 7.73 0 00-.55-1.12l.89-.31a5.86 5.86 0 01.71 1.38l-.13.05h1.79a10.67 10.67 0 00.64-1.48l1.13.31c-.24.41-.49.83-.71 1.17h1.43v.92h-2.77v.68h2.49v.87h-2.49v.75h3v1h-3v.51a9 9 0 00.62 1.33 11 11 0 001.36-1.5l.87.61a17.39 17.39 0 01-1.65 1.6zm-4-2a8.92 8.92 0 011.24 1.52l-.83.58a9.93 9.93 0 00-1.19-1.59zm8.79-4.03c.88-.08 3-.29 5.26-.47 1.28-.11 2.5-.19 3.32-.21v1.23a11.42 11.42 0 00-2.35.17 4 4 0 00-2.66 3.63c0 2.21 2.05 2.93 4 3l-.44 1.3c-2.37-.12-4.85-1.39-4.85-4.05a4.78 4.78 0 012-3.92c-1.05.11-4 .4-5.37.69l-.12-1.33c.55.01.97-.01 1.21-.04zm7.89 3.57l-.76.34a10.89 10.89 0 00-1-1.71l.74-.32a17.94 17.94 0 011.02 1.69zm1.39-.57l-.75.37a10.72 10.72 0 00-1-1.68l.73-.33a19.31 19.31 0 011.02 1.64zm11.8 4.77c0 .65-.16 1-.6 1.17a6.85 6.85 0 01-2.28.19 4.79 4.79 0 00-.38-1.1H445c.23 0 .31-.07.31-.31v-2.18h-3v3.49h-1.13v-3.49h-2.81a6.91 6.91 0 01-1.53 3.7 3.81 3.81 0 00-.89-.75c1.33-1.48 1.46-3.64 1.46-5.36v-4.34h9zm-5.22-3.28v-1.8h-2.65v.49c0 .41 0 .86-.05 1.31zm-2.65-4.59v1.72h2.65v-1.72zm6.74 0h-3v1.72h3zm0 4.59v-1.8h-3v1.8zm3.6 3.86a4 4 0 001.67-2.09l.94.35a4.56 4.56 0 01-1.72 2.35zm10.84-6.68h-10.42v-.92h2.75a5.19 5.19 0 00-.41-1l.28-.06h-2.06v-.9h4v-.73h1.13v.73h4.06v.9h-1.93l.3.06c-.22.41-.41.76-.59 1h2.85zm-1.27 4.09h-4.25a8.89 8.89 0 011.61 1l-.69.72a9 9 0 00-2-1.21l.46-.46h-3v-3.57h7.83zm-1.12-2.72h-5.63v.55h5.63zm0 1.32h-5.63v.56h5.63zm-1.6 3.8c.48 0 .56-.13.61-1.12a3.11 3.11 0 001 .37c-.14 1.35-.44 1.68-1.49 1.68h-2.15c-1.36 0-1.7-.27-1.7-1.26V526h1.1v1.44c0 .3.11.34.71.34zm-3-8.52a4.33 4.33 0 01.42 1.05l-.25.06h3-.2a9.46 9.46 0 00.49-1.07zm5.25 6.5a9.89 9.89 0 012.1 2.17l-.94.56a9.26 9.26 0 00-2-2.21zm7.11-2.55a8.15 8.15 0 01-2.41 5.84l-.93-.44a7.59 7.59 0 000-10.79l.93-.44a8.11 8.11 0 012.41 5.83z"/></svg>