<svg id="レイヤー_1" data-name="レイヤー 1" xmlns="http://www.w3.org/2000/svg" viewBox="0 0 677.24 301.52"><defs><style>.cls-1{fill:#162789}.cls-2{fill:#f7f9f9}.cls-3,.cls-5{fill:none;stroke:#f7f9f9;stroke-linecap:round;stroke-linejoin:round}.cls-3{stroke-width:3.6px}.cls-5{stroke-width:2.06px}</style></defs><path class="cls-1" d="M338.62 220c31.73 0 55.66 13.1 81.26 37.36s65 44.16 106.6 44.16a150.76 150.76 0 100-301.52c-41.63 0-81 19.89-106.6 44.16s-49.53 37.36-81.26 37.36-55.62-13.1-81.26-37.36S192.39 0 150.76 0a150.76 150.76 0 000 301.52c41.63 0 81-19.89 106.6-44.16S306.89 220 338.62 220z"/><path class="cls-2" d="M87.44 224a2.39 2.39 0 01-.9-.17L41 205.6a2.43 2.43 0 01-1.51-2.24v-60.13a2.41 2.41 0 012.41-2.42 17.47 17.47 0 0117.45 17.45 2.42 2.42 0 11-4.83 0 12.64 12.64 0 00-10.2-12.38v55.84l42.42 17L113 188.35a2.42 2.42 0 013.66 3.16l-27.39 31.68a2.42 2.42 0 01-1.83.81z"/><path class="cls-2" d="M89.66 236.37a2.41 2.41 0 01-2.22-3.37l3.21-7.5-53.88-21.6L23 234.93a2.42 2.42 0 01-4.42-2l14.68-33.17a2.41 2.41 0 013.11-1.26l58.34 23.38a2.41 2.41 0 011.33 3.19l-4.19 9.78a2.41 2.41 0 01-2.19 1.52z"/><rect class="cls-2" x="54.56" y="88.68" width="65.37" height="107.14" rx="6.09"/><path class="cls-1" d="M95.3 97.55H79.2a2.15 2.15 0 010-4.3h16.1a2.15 2.15 0 010 4.3z"/><rect class="cls-1" x="63.19" y="101.92" width="48.11" height="69.74" rx="3.04"/><circle class="cls-1" cx="87.25" cy="182.77" r="5.69"/><ellipse class="cls-1" cx="119.41" cy="145.62" rx="8.4" ry="6.11"/><path class="cls-2" d="M119.41 154.14c-6.06 0-10.81-3.74-10.81-8.52s4.75-8.53 10.81-8.53 10.82 3.75 10.82 8.53-4.75 8.52-10.82 8.52zm0-12.21c-3.52 0-6 1.94-6 3.69s2.46 3.69 6 3.69 6-1.95 6-3.69-2.47-3.69-6-3.69z"/><ellipse class="cls-1" cx="119.41" cy="157.83" rx="8.4" ry="6.11"/><path class="cls-2" d="M119.41 166.35c-6.06 0-10.81-3.74-10.81-8.52s4.75-8.52 10.81-8.52 10.82 3.74 10.82 8.52-4.75 8.52-10.82 8.52zm0-12.21c-3.52 0-6 1.94-6 3.69s2.46 3.69 6 3.69 6-2 6-3.69-2.47-3.69-6-3.69z"/><ellipse class="cls-1" cx="119.41" cy="170.04" rx="8.4" ry="6.11"/><path class="cls-2" d="M119.41 178.57c-6.06 0-10.81-3.75-10.81-8.53s4.75-8.52 10.81-8.52 10.82 3.74 10.82 8.52-4.75 8.53-10.82 8.53zm0-12.22c-3.52 0-6 2-6 3.69s2.46 3.69 6 3.69 6-1.94 6-3.69-2.47-3.69-6-3.69z"/><ellipse class="cls-1" cx="119.41" cy="182.26" rx="8.4" ry="6.11"/><path class="cls-2" d="M119.41 190.78c-6.06 0-10.81-3.75-10.81-8.52s4.75-8.53 10.81-8.53 10.82 3.75 10.82 8.53-4.75 8.52-10.82 8.52zm0-12.21c-3.52 0-6 1.94-6 3.69s2.46 3.68 6 3.68 6-1.94 6-3.68-2.47-3.69-6-3.69z"/><path class="cls-1" d="M89.01 111.56h45.71v30.6H89.01z"/><path class="cls-2" d="M134.72 144.58H89a2.42 2.42 0 01-2.42-2.42v-30.59a2.42 2.42 0 012.42-2.42h45.71a2.42 2.42 0 012.42 2.42v30.59a2.42 2.42 0 01-2.41 2.42zm-43.29-4.83h40.87V114H91.43z"/><path class="cls-1" d="M89.01 111.56l22.86 21.42 22.85-21.42H89.01z"/><path class="cls-2" d="M111.87 135.4a2.45 2.45 0 01-1.66-.65l-22.85-21.42a2.41 2.41 0 011.64-4.18h45.71a2.41 2.41 0 011.65 4.18l-22.85 21.42a2.44 2.44 0 01-1.64.65zM95.12 114l16.75 15.69L128.61 114z"/><path class="cls-2" d="M164.84 119.91h-30.12a2.42 2.42 0 110-4.84h30.12a2.42 2.42 0 010 4.84zm-6.24 8.42h-23.88a2.42 2.42 0 110-4.84h23.88a2.42 2.42 0 110 4.84zm-9.35 8.42h-14.53a2.42 2.42 0 010-4.84h14.53a2.42 2.42 0 010 4.84zm311.85 63.36h21.5v25.06h-21.5z"/><path class="cls-2" d="M482.6 228.26h-21.5a3.09 3.09 0 01-3.09-3.09v-25.06a3.09 3.09 0 013.09-3.11h21.5a3.09 3.09 0 013.09 3.09v25.06a3.09 3.09 0 01-3.09 3.11zm-18.41-6.17h15.33V203.2h-15.33z"/><path class="cls-2" d="M560.49 203.2H383.21a8.93 8.93 0 01-8.92-8.92V99.66a8.93 8.93 0 018.92-8.92h177.28a8.93 8.93 0 018.92 8.92v94.62a8.93 8.93 0 01-8.92 8.92zM383.21 96.91a2.76 2.76 0 00-2.75 2.75v94.62a2.75 2.75 0 002.75 2.74h177.28a2.75 2.75 0 002.75-2.74V99.66a2.75 2.75 0 00-2.75-2.75zM516.8 229.29h-89.89a4.12 4.12 0 110-8.23h89.89a4.12 4.12 0 010 8.23z"/><circle class="cls-3" cx="428.28" cy="169.63" r="18.83"/><path class="cls-3" d="M428.28 150.8v18.83m-12.18 14.36l12.18-14.36m-17.79-6.19l17.79 6.19m-8.75-16.68l8.75 16.68m54.34-62.01v32.11h62.52"/><path d="M490.65 122.59h5.87v17.14h-5.87zm13.4-11.88h5.87v29.02h-5.87zm13.4 12.19h5.87v16.83h-5.87zm13.4 7.72h5.87v9.11h-5.87z" stroke-width="2.06" stroke="#f7f9f9" stroke-linecap="round" stroke-linejoin="round" fill="#f7f9f9"/><path class="cls-5" d="M478.57 109.19h4.05m-4.05 6.56h4.05m-4.05 6.56h4.05m-4.05 6.56h4.05m-4.05 6.56h4.05"/><path class="cls-3" d="M482.62 153.93v32.11h62.52"/><path class="cls-5" d="M478.57 155.51h4.05m-4.05 6.56h4.05m-4.05 6.56h4.05m-4.05 6.56h4.05m-4.05 6.55h4.05"/><path class="cls-3" d="M482.62 177.89l9.88-5.56 2.78 5.87 9.11-11.11 5.4 8.33 7.56-17.29 4.64 9.26 17.13-10.34m-110.7-17.32v-31.7l-21.24 8.5v23.2m50.81 0h-59.15m29.58 0v-23.2l21.23-8.5v31.7"/><path d="M412.98 121.75h3.15v4.36h-3.15zm5.74 0h3.15v4.36h-3.15zm16.11 0h3.15v4.36h-3.15zm5.73 0h3.15v4.36h-3.15z" stroke-width="1.06" stroke="#f7f9f9" stroke-linecap="round" stroke-linejoin="round" fill="#f7f9f9"/><path class="cls-2" d="M617.9 173.75h-20.11a1.88 1.88 0 01-1.88-1.88c0-7.75 5.36-14.05 11.94-14.05s11.93 6.3 11.93 14.05a1.88 1.88 0 01-1.88 1.88zM599.81 170h16.08c-.71-4.78-4-8.41-8-8.41s-7.38 3.62-8.08 8.41z"/><path class="cls-2" d="M607.85 186.28c-5.67 0-10.11-6.33-10.11-14.41V170H618v1.88c0 8.12-4.48 14.4-10.15 14.4zm-6.25-12.53c.55 4.92 3.19 8.77 6.25 8.77s5.7-3.85 6.25-8.77z"/><path class="cls-2" d="M617.9 173.75h-26.09a1.88 1.88 0 110-3.76h26.09a1.88 1.88 0 010 3.76zm3.96 59.25a1.85 1.85 0 01-1-.31 2 2 0 01-.54-.54 6.82 6.82 0 01-3.32.85h-15.34a1.88 1.88 0 010-3.76H617a3.25 3.25 0 003.18-3.05l.75-18.28c.12-2.9 1.5-3.75 2.32-4s2.43-.3 4.13 2.05l3.32 4.6a9.48 9.48 0 01.23 10.13l-7.5 11.45a1.88 1.88 0 01-1.57.86zm2.81-24.36l-.67 15.75 3.77-5.75a5.75 5.75 0 00-.14-5.87zM593.84 233a1.9 1.9 0 01-1.58-.85l-7.5-11.45a9.48 9.48 0 01.24-10.13l3.32-4.6c1.7-2.35 3.32-2.29 4.13-2.05s2.19 1.09 2.31 4l1 23.13a1.88 1.88 0 01-1.87 2zM591 208.64l-3 4.13a5.75 5.75 0 00-.13 5.87l3.77 5.75z"/><path class="cls-2" d="M630.44 233a1.85 1.85 0 01-1-.31 1.89 1.89 0 01-.55-2.6l8-12.3a5.93 5.93 0 00-.09-6l-12.3-17.71a8.54 8.54 0 00-6.08-3.18h-21.13a8.56 8.56 0 00-6.09 3.18l-12.3 17.71a5.93 5.93 0 00-.08 6l8 12.3a1.87 1.87 0 11-3.14 2l-8-12.3a9.66 9.66 0 01.15-10.15L588.12 192a12.3 12.3 0 019.17-4.79h21.12a12.32 12.32 0 019.17 4.79l12.3 17.72a9.69 9.69 0 01.15 10.15l-8 12.3a1.86 1.86 0 01-1.59.83zM640.6 82.79h-20.11a1.88 1.88 0 01-1.88-1.88c0-7.76 5.36-14.06 11.94-14.06s11.93 6.3 11.93 14.06a1.88 1.88 0 01-1.88 1.88zM622.51 79h16.08c-.71-4.79-4-8.42-8-8.42s-7.38 3.66-8.08 8.42z"/><path class="cls-2" d="M630.55 95.31c-5.67 0-10.11-6.32-10.11-14.4V79h20.22v1.88c0 8.12-4.44 14.43-10.11 14.43zm-6.25-12.52c.55 4.91 3.19 8.76 6.25 8.76s5.7-3.85 6.25-8.76z"/><path class="cls-2" d="M640.6 82.79h-26.09a1.88 1.88 0 110-3.76h26.09a1.88 1.88 0 010 3.76zm3.96 59.21a1.85 1.85 0 01-1-.31 2 2 0 01-.54-.54 6.85 6.85 0 01-3.29.85h-15.37a1.88 1.88 0 010-3.76h15.34a3.25 3.25 0 003.18-3.05l.75-18.28c.12-2.9 1.5-3.74 2.32-4s2.42-.3 4.13 2.06l3.32 4.59a9.48 9.48 0 01.23 10.13l-7.5 11.45a1.88 1.88 0 01-1.57.86zm2.8-24.36l-.64 15.75 3.77-5.75a5.75 5.75 0 00-.14-5.87zM616.54 142a1.89 1.89 0 01-1.58-.85l-7.5-11.45a9.48 9.48 0 01.24-10.13L611 115c1.7-2.35 3.32-2.29 4.13-2s2.19 1.09 2.31 4l.95 23.13a1.88 1.88 0 01-1.87 2zm-2.81-24.36l-3 4.13a5.75 5.75 0 00-.13 5.87l3.77 5.75z"/><path class="cls-2" d="M608 142a1.88 1.88 0 01-1.58-.86l-8-12.3a9.69 9.69 0 01.14-10.15L610.82 101a12.31 12.31 0 019.16-4.8h21.13a12.34 12.34 0 019.17 4.8l12.3 17.71a9.69 9.69 0 01.15 10.15l-8 12.3a1.88 1.88 0 01-3.15-2l8-12.3a6 6 0 00-.09-6l-12.3-17.71a8.54 8.54 0 00-6.08-3.18H620a8.56 8.56 0 00-6.08 3.18l-12.3 17.71a5.93 5.93 0 00-.08 6l8 12.3A1.88 1.88 0 01608 142zM227 75.22h-15.53a1.88 1.88 0 01-1.88-1.88c0-6.21 4.32-11.27 9.63-11.27s9.64 5.06 9.64 11.27a1.88 1.88 0 01-1.86 1.88zm-13.44-3.76h11.37c-.65-3.23-3-5.63-5.69-5.63s-5.05 2.4-5.7 5.63z"/><path class="cls-2" d="M219.22 84.88c-4.61 0-8.22-5.07-8.22-11.54v-1.88h16.45v1.88c0 6.47-3.61 11.54-8.23 11.54zm-4.32-9.66c.53 3.56 2.51 5.9 4.32 5.9s3.8-2.34 4.33-5.9z"/><path class="cls-2" d="M230.61 75.22h-19.14a1.88 1.88 0 110-3.76h19.14a1.88 1.88 0 010 3.76zm-9.52 45.19h-8.76a1.88 1.88 0 010-3.76h8.76a3 3 0 003-3V93a3 3 0 00-3-3h-3.73a16.2 16.2 0 00-7.73 2.46l-12 8.51a1.74 1.74 0 00-.71 1.15 1.71 1.71 0 00.31 1.31l6.55 9a4.3 4.3 0 002.65 1.95 4.42 4.42 0 00-.6-3.27l-1.07-2a6.88 6.88 0 012.73-9.17l7.18-4a1.88 1.88 0 011.82 3.29l-7.18 4a3.12 3.12 0 00-1.22 4.13l1.07 2c1.75 3.33 1.45 6.86-.71 8.23s-5.48.12-7.71-2.93l-6.54-9a5.5 5.5 0 011.26-7.74l12-8.52a19.7 19.7 0 019.9-3.15h3.73a6.74 6.74 0 016.73 6.75v20.7a6.74 6.74 0 01-6.73 6.71z"/><path class="cls-2" d="M192.48 171.69a4.48 4.48 0 01-2.1-.5c-2.6-1.36-3.36-5.07-1.72-8.44l19.85-40.68a10.39 10.39 0 018.67-5.42h3.91a4.35 4.35 0 014 7l-26.66 44.25a7.3 7.3 0 01-5.95 3.79zm24.7-51.28a6.64 6.64 0 00-5.29 3.31L192 164.4c-.79 1.64-.48 3.16.08 3.45s2.09-.29 3-1.88l26.66-44.25c.35-.58.36-1 .31-1s-.38-.27-1-.27zm-7 2.49zm25.54-14.54a5.28 5.28 0 01-3-.92l-1.88-1.29a1.87 1.87 0 112.11-3.1l1.89 1.28a1.52 1.52 0 002.13-.44l6.09-9.5a4.43 4.43 0 00.86-3.17 4.33 4.33 0 00-2.8 1.78l-1.5 1.73a7 7 0 01-9.56.85l-6.59-5.3a1.88 1.88 0 112.36-2.93l6.58 5.31a3.24 3.24 0 004.37-.39l1.5-1.74c2.46-2.84 5.87-3.83 7.93-2.31s2.09 5.06 0 8.24l-6.08 9.5a5.24 5.24 0 01-3.39 2.33 5.63 5.63 0 01-1.02.07z"/><path class="cls-2" d="M224.07 168.52a4.28 4.28 0 01-2-.49c-2.51-1.3-3.53-5-2.33-8.45l4.57-13a7.53 7.53 0 00-.91-6.3l-2.81-3.52a1.88 1.88 0 012.94-2.35l2.81 3.52a11.36 11.36 0 011.52 9.9l-4.57 13c-.64 1.83-.11 3.54.52 3.87a.89.89 0 00.66 0 3.63 3.63 0 001.93-1.94l7.8-16a9.43 9.43 0 000-7.08l-9.93-20.34a1.9 1.9 0 01.87-2.52 1.88 1.88 0 012.51.87l9.92 20.34a13.18 13.18 0 010 10.38l-7.79 16a7.34 7.34 0 01-4.14 3.86 4.94 4.94 0 01-1.57.25z"/><rect class="cls-2" x="245.93" y="69.95" width="11.53" height="18.9" rx="1.02"/><path class="cls-1" d="M255 82.85v-9.29a.48.48 0 00-.48-.47h-5.65a.48.48 0 00-.48.47v9.29"/><circle class="cls-1" cx="251.69" cy="85.66" r="1.01"/><path class="cls-2" d="M178.89 164.47h-15.5a1.88 1.88 0 01-1.88-1.88c0-6.22 4.32-11.27 9.63-11.27s9.63 5.05 9.63 11.27a1.88 1.88 0 01-1.88 1.88zm-13.44-3.76h11.37c-.65-3.24-2.95-5.63-5.68-5.63s-5.03 2.39-5.69 5.63z"/><path class="cls-2" d="M171.14 174.13c-4.61 0-8.23-5.07-8.23-11.54v-1.88h16.45v1.88c0 6.47-3.61 11.54-8.22 11.54zm-4.33-9.66c.53 3.55 2.52 5.9 4.33 5.9s3.8-2.35 4.33-5.9z"/><path class="cls-2" d="M182.85 164.47h-19.46a1.88 1.88 0 010-3.76h19.46a1.88 1.88 0 010 3.76zM173 209.66h-8.76a1.88 1.88 0 010-3.76H173a3 3 0 003-3v-20.67a3 3 0 00-3-3h-3.72a16.2 16.2 0 00-7.73 2.46l-12 8.52a1.74 1.74 0 00-.72 1.14 1.77 1.77 0 00.32 1.32l6.54 9a4.44 4.44 0 002.65 1.95 4.39 4.39 0 00-.59-3.27l-1.07-2a6.87 6.87 0 012.72-9.17l7.18-4a1.88 1.88 0 011.82 3.29l-7.17 4a3.14 3.14 0 00-1.23 4.13l1.07 2c1.76 3.32 1.45 6.86-.71 8.23s-5.48.11-7.7-2.93l-6.55-9a5.51 5.51 0 011.26-7.74l12-8.51a19.77 19.77 0 019.91-3.16H173a6.74 6.74 0 016.74 6.74v20.69a6.74 6.74 0 01-6.74 6.74z"/><path class="cls-2" d="M144.39 260.93a4.47 4.47 0 01-2.09-.5c-2.61-1.36-3.36-5.06-1.72-8.43l19.84-40.68a10.42 10.42 0 018.68-5.42h3.9a4.35 4.35 0 014 7l-26.65 44.24a7.29 7.29 0 01-5.96 3.79zm24.71-51.27a6.64 6.64 0 00-5.3 3.31L144 253.65c-.8 1.63-.48 3.16.07 3.45s2.1-.3 3.05-1.89L173.74 211c.35-.58.37-1 .32-1.05s-.38-.26-1.06-.26zm-7 2.48zm25.53-14.54a5.2 5.2 0 01-3-.92l-1.88-1.28a1.88 1.88 0 012.12-3.11l1.88 1.28a1.52 1.52 0 002.14-.43l6.08-9.5a4.4 4.4 0 00.86-3.18 4.45 4.45 0 00-2.83 1.74l-1.5 1.73a7 7 0 01-9.56.86l-6.59-5.31a1.88 1.88 0 012.36-2.92l6.59 5.3a3.21 3.21 0 004.36-.39l1.5-1.73c2.47-2.84 5.87-3.84 7.93-2.32s2.09 5.07.06 8.25l-6.08 9.5a5.27 5.27 0 01-3.4 2.32 4.8 4.8 0 01-1.04.11z"/><path class="cls-2" d="M176 257.76a4.39 4.39 0 01-2-.48c-2.5-1.31-3.52-5-2.32-8.45l4.56-13a7.59 7.59 0 00-.9-6.31l-2.85-3.52a1.87 1.87 0 112.93-2.34l2.82 3.52a11.34 11.34 0 011.51 9.89l-4.56 13c-.64 1.83-.12 3.55.51 3.87a.89.89 0 00.66 0 3.71 3.71 0 001.94-1.94l7.79-16a9.43 9.43 0 000-7.08l-9.92-20.34a1.87 1.87 0 01.86-2.51 1.89 1.89 0 012.52.86l9.92 20.34a13.18 13.18 0 010 10.38l-7.79 16a7.4 7.4 0 01-4.14 3.86 5 5 0 01-1.54.25zm100.65-137.35h-15.51a1.88 1.88 0 01-1.88-1.88c0-6.21 4.32-11.26 9.64-11.26s9.63 5 9.63 11.26a1.88 1.88 0 01-1.88 1.88zm-13.44-3.76h11.37c-.65-3.23-2.95-5.62-5.68-5.62s-5.04 2.39-5.69 5.62z"/><path class="cls-2" d="M268.9 130.07c-4.62 0-8.23-5.07-8.23-11.54v-1.88h16.45v1.88c0 6.47-3.61 11.54-8.22 11.54zm-4.33-9.66c.53 3.56 2.51 5.9 4.33 5.9s3.79-2.34 4.32-5.9z"/><path class="cls-2" d="M280.28 120.41h-19.14a1.88 1.88 0 010-3.76h19.14a1.88 1.88 0 010 3.76zm-9.52 45.2H262a1.88 1.88 0 110-3.76h8.76a3 3 0 003-3v-20.7a3 3 0 00-3-3H267a16.24 16.24 0 00-7.73 2.46l-12 8.52a1.72 1.72 0 00-.71 1.14 1.7 1.7 0 00.31 1.31l6.55 9a4.39 4.39 0 002.65 2 4.44 4.44 0 00-.6-3.28l-1.07-2a6.89 6.89 0 012.73-9.18l7.18-4a1.88 1.88 0 011.82 3.29l-7.18 4a3.12 3.12 0 00-1.22 4.13l1.07 2c1.75 3.32 1.45 6.86-.71 8.22s-5.48.12-7.71-2.93l-6.54-9a5.51 5.51 0 011.26-7.74l12-8.52a19.73 19.73 0 019.9-3.15h3.73a6.74 6.74 0 016.73 6.73v20.7a6.75 6.75 0 01-6.7 6.76z"/><path class="cls-2" d="M242.15 216.88a4.51 4.51 0 01-2.1-.5c-2.6-1.36-3.36-5.06-1.71-8.43l19.84-40.68a10.39 10.39 0 018.67-5.42h3.91a4.34 4.34 0 014 7l-26.7 44.25a7.26 7.26 0 01-5.91 3.78zm17.72-48.79l1.69.82-19.85 40.68c-.79 1.64-.48 3.16.08 3.45s2.09-.29 3.05-1.88l26.66-44.25c.35-.58.36-1 .31-1s-.31-.26-1.05-.26h-3.91a6.63 6.63 0 00-5.29 3.3zm25.52-14.54a5.28 5.28 0 01-3-.92l-1.88-1.29a1.87 1.87 0 112.11-3.1l1.89 1.28a1.48 1.48 0 001.16.23 1.53 1.53 0 001-.67l6.08-9.49a4.46 4.46 0 00.86-3.18 4.45 4.45 0 00-2.84 1.74l-1.5 1.73a7 7 0 01-9.56.86l-6.59-5.31a1.88 1.88 0 112.36-2.93l6.58 5.31a3.24 3.24 0 004.37-.39l1.5-1.73c2.46-2.84 5.87-3.84 7.93-2.32s2.09 5.07.05 8.24l-6.08 9.5a5.27 5.27 0 01-3.39 2.33 5.55 5.55 0 01-1.05.11z"/><path class="cls-2" d="M273.74 213.71a4.28 4.28 0 01-2-.49c-2.51-1.3-3.53-5-2.33-8.44l4.57-13a7.59 7.59 0 00-.9-6.31l-2.82-3.52a1.88 1.88 0 012.94-2.35l2.81 3.52a11.37 11.37 0 011.52 9.9l-4.57 13c-.64 1.83-.11 3.54.52 3.87a.84.84 0 00.66 0 3.63 3.63 0 001.93-1.93l7.8-16a9.43 9.43 0 000-7.08l-9.93-20.34a1.88 1.88 0 013.38-1.65l9.93 20.34a13.26 13.26 0 010 10.38l-7.8 16a7.3 7.3 0 01-4.14 3.86 4.71 4.71 0 01-1.57.24z"/></svg>