<svg version="1.1" id="レイヤー_1" xmlns="http://www.w3.org/2000/svg" x="0" y="0" width="450.659" height="104.089" xml:space="preserve"><style>.st0{fill:#fff}</style><path class="st0" d="M75.071 58.985c-3.882.398-7.896.808-10.575 3.865-2.314 2.641-3.112 6.59-1.986 9.826 1.486 4.269 5.438 6.871 10.548 6.871 3.725 0 7.4-1.361 9.79-3.781.662-.67 1.32-1.523 1.768-2.335 2.507-4.546 2.313-10.795 1.757-15.369l-11.302.923z"/><path class="st0" d="M78.148 19.217a41.17 41.17 0 00-15.063-.566c-5.246.777-10.512.063-15.418-1.859a39.257 39.257 0 01-2.031-.872c-3.267-1.498-7.046-2.573-12.312-2.231-4.87.317-9.231 2.275-12.299 4.404 1.761.325 3.451.777 4.797 1.38 6.665 2.984 10.896 7.158 12.972 13.605 1.109 3.447.879 8.5-.823 14.067l-8.765 28.663c5.036 14.421 17.512 25.548 33.402 27.851 23.834 3.455 45.974-14.299 48.063-39.236 1.774-21.166-12.26-40.676-32.523-45.206zm17.239 65.425s-1.198.721-2.042.752h-4.143c-3.049 0-2.571-.99-2.571-5.424-6.47 5.973-14.863 8.402-23.062 5.277-13.881-5.292-13.246-24.374-1.061-30.93 5.444-2.929 24.406-2.904 24.406-2.904s-.12-13.97-11.77-15.598c-4.337-.606-10.116 1.198-12.015 1.496-1.499.235-2.421-.756-2.962-2.001-.719-1.655-1.765-3.464 1.107-4.823 2.242-1.061 9.778-2.956 14.434-2.374 7.246.905 12.514 3.659 16.383 9.218 2.069 2.972 3.295 7.872 3.295 13.693l.001 33.618z"/><path class="st0" d="M29.894 45.176c-.118-.036-11.814-3.609-19.428-4.368l-.341-.034-.025-.342c-.4-7.047 1.614-11.984 4.231-16.043l.133-.199.238.019c2.707.218 6.151.625 8.786 1.851 10.858 5.053 6.956 18.705 6.915 18.843l-.117.394-.392-.121zm-16.94 23.733c-1.545 0-3.086-.232-4.581-.689C3.316 66.674.189 62.925.007 58.192c-.136-3.565 1.859-7.254 4.964-9.178 1.575-.975 3.382-1.449 5.525-1.449.536 0 1.09.028 1.693.086 1.454.14 2.909.427 4.318.705l11.468 2.507-.068.385c-.731 4.12-1.829 7.575-3.264 10.269-.879 1.65-1.897 3.042-3.026 4.136a11.566 11.566 0 01-2.464 1.782c-1.785.964-3.929 1.474-6.199 1.474zM192.04 45.791c-.526-7.655-6.088-12.64-8.527-14.272-2.954-1.977-7.046-3.514-12.655-3.514-5.015 0-9.021 1.324-12.121 3.323-1.166.752-2.835 2.24-4.082 3.46-1.247-1.221-2.916-2.709-4.082-3.46-3.1-1.999-7.106-3.323-12.121-3.323-5.609 0-9.701 1.538-12.655 3.514-2.439 1.632-8.001 6.617-8.527 14.272l-.093 35.935c-.117 3.806 2.405 3.806 3.087 3.806l4.483-.002c.899 0 2.032-.755 2.032-.755V51.307c0-7.122 1.548-14.554 11.673-14.595 7.659 0 12.081 4.695 11.807 14.595v30.357c0 2.784 2.301 3.479 4.393 3.479 2.092 0 4.4-.65 4.4-3.479V51.307c-.274-9.9 4.148-14.595 11.807-14.595 10.123.041 11.673 7.473 11.673 14.595v33.469s1.134.755 2.032.755l4.483.002c.681 0 3.204 0 3.087-3.806l-.094-35.936zm191.099 0c-.526-7.655-6.088-12.64-8.527-14.272-2.954-1.977-7.046-3.514-12.655-3.514-5.015 0-9.021 1.324-12.121 3.323-1.166.752-2.835 2.24-4.082 3.46-1.247-1.221-2.916-2.709-4.082-3.46-3.1-1.999-7.106-3.323-12.121-3.323-5.609 0-9.701 1.538-12.655 3.514-2.439 1.632-8.001 6.617-8.527 14.272l-.093 35.935c-.117 3.806 2.405 3.806 3.087 3.806l4.483-.002c.899 0 2.032-.755 2.032-.755V51.307c0-7.122 1.548-14.554 11.673-14.595 7.659 0 12.081 4.695 11.807 14.595v30.357c0 2.784 2.301 3.479 4.393 3.479s4.4-.65 4.4-3.479V51.307c-.274-9.9 4.148-14.595 11.807-14.595 10.123.041 11.673 7.473 11.673 14.595v33.469s1.134.755 2.032.755l4.483.002c.681 0 3.204 0 3.087-3.806l-.094-35.936zm-130.221-7.774c-2.091-3.431-5.054-6.275-8.695-8.01-3.296-1.57-7.036-2.147-10.662-2.198-3.627.051-7.176.628-10.472 2.198-3.642 1.735-6.604 4.578-8.696 8.01-1.893 3.107-3.182 7.687-3.178 10.807v33.489c0 2.019 1.295 3.258 2.99 3.258h4.736c.88 0 2.095-.755 2.095-.755s.007-23.621.007-33.914c0-5.804 2.095-9.156 3.665-10.933 2.476-2.802 6.454-3.414 8.845-3.398 2.395.015 6.636.688 9.052 3.398 1.577 1.769 3.664 5.128 3.664 10.933 0 10.292.051 33.913.051 33.913s1.192.756 2.091.756h4.696c1.695 0 2.99-1.239 2.99-3.258V48.825c-.001-4.246-1.287-7.701-3.179-10.808zm29.079-23.883c-3.013-.042-5.584-1.956-6.545-4.871-.893-2.707-.246-5.27 1.736-7.183 2.035-1.964 4.406-2.528 6.991-1.731 3.294 1.015 5.408 3.998 4.953 7.413-.488 3.668-3.572 6.423-7.135 6.372m4.852 68.011V29.373c-2.848.472-4.722.409-4.722.409s-1.874.063-4.722-.409v52.773c0 1.648-.114 2.818 1.514 3.749.575.329 1.892.605 3.208.605s2.632-.276 3.208-.605c1.628-.932 1.514-2.102 1.514-3.75zm148.55-53.358c-1.414-.513-5.443-1.454-9.467-1.513-4.023.059-8.055.992-9.467 1.513-6.852 2.524-15.259 9.611-15.259 28.737s8.344 26.2 15.259 28.609c1.421.494 5.445 1.462 9.468 1.521 4.023-.059 8.047-1.027 9.468-1.521 6.915-2.409 15.259-9.483 15.259-28.609s-8.43-26.258-15.261-28.737zm5.323 33.173c-.677 9.571-3.652 14.64-9.99 16.25-1.421.367-3.035.553-4.799.554-1.764 0-3.378-.187-4.799-.554-6.338-1.61-9.313-6.679-9.99-16.25-.161-2.27-.161-6.602 0-8.872.677-9.571 3.652-14.421 9.99-16.031 1.421-.367 3.035-.553 4.799-.554 1.764 0 3.378.187 4.799.554 6.338 1.61 9.313 6.459 9.99 16.031.16 2.27.16 6.602 0 8.872z"/></svg>