<svg data-name="レイヤー 1" xmlns="http://www.w3.org/2000/svg" viewBox="0 0 1200 300"><defs><clipPath id="a"><path fill="none" d="M0 0h1200v300H0z"/></clipPath></defs><g clip-path="url(#a)"><path d="M1344.87 445.89C1255.33 327.07 1132 234.15 985 184.91a749.41 749.41 0 00-272.24-38.49c-110.13 4.94-217.09-25.37-311.48-82.31-77.22-46.59-169.53-70.6-269.14-62.59C-71 17.83-244.41 173.68-285.9 378c-29.19 143.66 6.73 280.19 84.15 382.94a462.08 462.08 0 0042.53 48.9 460.38 460.38 0 0142.4 48.8c51.43 68.26 84.46 150.14 101.39 235.73a785.33 785.33 0 00142.81 320c100.56 133.47 244.37 234.19 417.27 277.81 426 107.44 861-174.18 945.69-624 42.46-225.52-16.26-450.89-145.47-622.34" fill="#fff"/></g></svg>