<svg xmlns="http://www.w3.org/2000/svg" xmlns:xlink="http://www.w3.org/1999/xlink" viewBox="0 0 389.24 50.92"><defs><style>.cls-1{fill:none;}.cls-2{clip-path:url(#clip-path);}.cls-3{fill:#10069f;}</style><clipPath id="clip-path" transform="translate(0 0)"><rect class="cls-1" width="389.24" height="50.92"/></clipPath></defs><title>アセット 1</title><g id="レイヤー_2" data-name="レイヤー 2"><g id="レイヤー_1-2" data-name="レイヤー 1"><g class="cls-2"><path class="cls-3" d="M375.48,21a.84.84,0,0,1-.58-.2,1,1,0,0,1-.33-.53h0l-.26.63h-.83L375,13.41h1l-.44,2.11a2.26,2.26,0,0,1-.08.3c0,.12-.06.24-.1.36h0a1.37,1.37,0,0,1,1.16-.73.89.89,0,0,1,.76.4,1.89,1.89,0,0,1,.28,1.12,7.16,7.16,0,0,1-.08,1,7.94,7.94,0,0,1-.26,1.07,5.47,5.47,0,0,1-.43,1,2.58,2.58,0,0,1-.61.72,1.29,1.29,0,0,1-.8.27m-.13-.88a.54.54,0,0,0,.41-.21,1.93,1.93,0,0,0,.35-.55,4.94,4.94,0,0,0,.26-.74c.07-.27.13-.54.17-.8a4.72,4.72,0,0,0,.06-.7c0-.51-.15-.76-.43-.76a.61.61,0,0,0-.45.22,2,2,0,0,0-.37.56,5.65,5.65,0,0,0-.26.76,6,6,0,0,0-.15.81,4.6,4.6,0,0,0-.06.69c0,.48.16.72.47.72" transform="translate(0 0)"/><path class="cls-3" d="M379.62,21a1.42,1.42,0,0,1-1.1-.44,1.78,1.78,0,0,1-.41-1.24,6.17,6.17,0,0,1,.17-1.44,4.51,4.51,0,0,1,.48-1.23,2.69,2.69,0,0,1,.77-.86,1.77,1.77,0,0,1,1-.32,1.27,1.27,0,0,1,.88.31,1.15,1.15,0,0,1,.34.89,1.65,1.65,0,0,1-.68,1.41,3,3,0,0,1-1.83.5h-.08a3.36,3.36,0,0,0-.06.63,1.15,1.15,0,0,0,.18.72.68.68,0,0,0,.56.22,1.9,1.9,0,0,0,.54-.07,3.4,3.4,0,0,0,.58-.26v.82a2.38,2.38,0,0,1-.66.28,3.22,3.22,0,0,1-.71.08m-.29-3.18h0a1.69,1.69,0,0,0,1.14-.3,1,1,0,0,0,.33-.78c0-.29-.14-.44-.42-.44a.81.81,0,0,0-.62.41,3.4,3.4,0,0,0-.46,1.11" transform="translate(0 0)"/><path class="cls-3" d="M383.21,21.06a.79.79,0,0,1-.69-.28,1.22,1.22,0,0,1-.2-.73,3.38,3.38,0,0,1,.1-.76l.59-2.8h-.47l.1-.55.63-.29.47-1.19h.73l-.26,1.16H385l-.18.87H384l-.62,2.91a2,2,0,0,1,0,.24.88.88,0,0,0,0,.2c0,.21.1.31.3.31l.22,0a1.14,1.14,0,0,0,.26-.09v.83a1.49,1.49,0,0,1-.45.15,4.53,4.53,0,0,1-.46,0" transform="translate(0 0)"/><path class="cls-3" d="M386.11,21a.9.9,0,0,1-.79-.4,2,2,0,0,1-.27-1.13,5.72,5.72,0,0,1,.08-1,6.86,6.86,0,0,1,.24-1.07,5.58,5.58,0,0,1,.43-1,2.48,2.48,0,0,1,.6-.71,1.25,1.25,0,0,1,.79-.28.92.92,0,0,1,.56.19,1.07,1.07,0,0,1,.34.58h0l.23-.67h.89l-1.14,5.34h-.82l0-.72h0a3.13,3.13,0,0,1-.53.59.92.92,0,0,1-.64.23m.41-.88a.61.61,0,0,0,.49-.25,2.17,2.17,0,0,0,.35-.64,7.66,7.66,0,0,0,.25-.77c.07-.31.12-.57.16-.79a4.54,4.54,0,0,0,.05-.6c0-.47-.16-.7-.47-.7a.57.57,0,0,0-.42.21,1.93,1.93,0,0,0-.35.55,4.81,4.81,0,0,0-.26.73,5.66,5.66,0,0,0-.16.8,4.62,4.62,0,0,0-.06.7c0,.51.14.76.42.76" transform="translate(0 0)"/><path class="cls-3" d="M46.64,38.73c0,1.18,0,2.37,0,2.75a2.31,2.31,0,0,1-.81.29h-2.4a1.13,1.13,0,0,1-.8-.21c-.25-.26-.25-.84-.25-1.73v-.71l-.35.3a11.19,11.19,0,0,1-7.27,2.95,10.92,10.92,0,0,1-3.69-.67,7.49,7.49,0,0,1-5-6.81,8.61,8.61,0,0,1,4.51-8.32c2.67-1.37,11.62-1.42,11.71-1.42h.22v-.21c0-.06-.08-6.21-5.41-7.35a6.13,6.13,0,0,0-1.2-.11A19.5,19.5,0,0,0,32,18a9.55,9.55,0,0,1-1.4.25h0c-.61,0-1.08-.63-1.3-1.17-.33-.82-.65-1.6.61-2.2a18.82,18.82,0,0,1,6.14-1.21,8.7,8.7,0,0,1,.93.05c3.65.46,6.19,1.88,8,4.49a12.15,12.15,0,0,1,1.62,6.68v5.87c0,3.49,0,6.57,0,7.95M38.12,9.4a20,20,0,0,0-7.37-.27,14.87,14.87,0,0,1-8.53-1.34,12.08,12.08,0,0,0-7.36-.93,12.26,12.26,0,0,0-4.79,2,11.74,11.74,0,0,1,2.6.71c3.36,1.5,5.29,3.52,6.27,6.54a12.07,12.07,0,0,1-.41,6.77l-1.7,5.53c-1,3.38-1.94,6.36-2.36,7.69-.09.31-.19.63-.28.93A20.45,20.45,0,0,0,30.52,50.71C42.18,52.4,53,43.71,54,31.52A20.86,20.86,0,0,0,38.12,9.4" transform="translate(0 0)"/><path class="cls-3" d="M14.72,22.16l.1-.35c0-.06,1.78-6.07-3.08-8.77A12.64,12.64,0,0,0,7,12a12.64,12.64,0,0,0-2.25,6A12.77,12.77,0,0,0,4.7,20a60.94,60.94,0,0,1,9.67,2.07Z" transform="translate(0 0)"/><path class="cls-3" d="M42.22,28.4l-.2,0c-.58,0-3.57.28-5.11.44l-.23,0c-1.88.19-3.82.39-5.15,1.88a5,5,0,0,0-1,4.82,5.17,5.17,0,0,0,5.19,3.33A6.87,6.87,0,0,0,40.52,37,5.07,5.07,0,0,0,41.35,36c1.22-2.19,1.16-5.21.9-7.35Z" transform="translate(0 0)"/><path class="cls-3" d="M186.89,20.06a10.23,10.23,0,0,0-3.7-4.68A10.37,10.37,0,0,0,177,13.67a10.72,10.72,0,0,0-5.93,1.62,14.5,14.5,0,0,0-2,1.68,15.11,15.11,0,0,0-2-1.68,10.74,10.74,0,0,0-5.93-1.62,10.41,10.41,0,0,0-6.2,1.71,10.28,10.28,0,0,0-3.69,4.68,8.07,8.07,0,0,0-.51,2.68c-.12,2.11-.07,9.17,0,13.85,0,1.56,0,2.84,0,3.57a1.42,1.42,0,0,0,1.51,1.58h2.2a2.24,2.24,0,0,0,1-.37V25c0-2,.16-4.28,1.75-5.77a5.88,5.88,0,0,1,4-1.36,6.33,6.33,0,0,1,3.93,1.36c1.77,1.49,1.78,3.77,1.74,5.77,0,0,0,14.78,0,14.81a2,2,0,0,0,2.26,1.7,2,2,0,0,0,2.26-1.7V25c0-2,0-4.28,1.73-5.77A6.33,6.33,0,0,1,177,17.91a5.85,5.85,0,0,1,4,1.36c1.6,1.49,1.77,3.77,1.75,5.77V41.37a2.31,2.31,0,0,0,1,.37h2.19a1.42,1.42,0,0,0,1.51-1.58c0-.73,0-2,0-3.57,0-4.68.09-11.74,0-13.85a8.33,8.33,0,0,0-.51-2.68" transform="translate(0 0)"/><path class="cls-3" d="M93.34,20.06a10.23,10.23,0,0,0-3.7-4.68,10.37,10.37,0,0,0-6.19-1.71,10.75,10.75,0,0,0-5.94,1.62,15.07,15.07,0,0,0-2,1.68,15.11,15.11,0,0,0-2-1.68,10.75,10.75,0,0,0-5.94-1.62,10,10,0,0,0-9.89,6.39,8.32,8.32,0,0,0-.5,2.68c-.12,2.11-.07,9.17,0,13.85,0,1.56,0,2.84,0,3.57a1.42,1.42,0,0,0,1.51,1.58h2.2a2.24,2.24,0,0,0,1-.37V25c0-2,.16-4.28,1.75-5.77a5.87,5.87,0,0,1,4-1.36,6.33,6.33,0,0,1,3.94,1.36C73.29,20.76,73.3,23,73.26,25c0,0,0,14.78,0,14.81a2.35,2.35,0,0,0,4.52,0V25c0-2,0-4.28,1.73-5.77a6.33,6.33,0,0,1,3.94-1.36,5.85,5.85,0,0,1,4,1.36C89,20.76,89.18,23,89.16,25V41.37a2.31,2.31,0,0,0,1,.37h2.19a1.42,1.42,0,0,0,1.51-1.58c0-.73,0-2,0-3.57,0-4.68.09-11.74,0-13.85a8.06,8.06,0,0,0-.5-2.68" transform="translate(0 0)"/><path class="cls-3" d="M215.56,30.23c-.33,4.67-1.79,7.15-4.89,7.93a10.36,10.36,0,0,1-4.7,0c-3.1-.78-4.56-3.26-4.89-7.93a18.79,18.79,0,0,1,0-4.24c.33-4.67,1.79-7.1,4.89-7.89a9.86,9.86,0,0,1,2.35-.27,10,10,0,0,1,2.35.27c3.1.79,4.56,3.22,4.89,7.89a20,20,0,0,1,0,4.24m4.86-3c0-2.49-.69-10.81-7.47-13.16a13.64,13.64,0,0,0-4.49-.74h-.28a13.7,13.7,0,0,0-4.5.74c-6.77,2.35-7.42,10.67-7.46,13.16,0,.31,0,1.38,0,1.69,0,2.8.68,10.77,7.46,13.13a14,14,0,0,0,4.5.85h.28a13.64,13.64,0,0,0,4.49-.74c6.78-2.35,7.42-10.44,7.47-13.24V27.21" transform="translate(0 0)"/><path class="cls-3" d="M138.92.17A3.29,3.29,0,0,0,135.5,1a3.25,3.25,0,0,0-.85,3.51,3.41,3.41,0,0,0,3.21,2.38,3.54,3.54,0,0,0,3.49-3.11A3.32,3.32,0,0,0,138.92.17" transform="translate(0 0)"/><path class="cls-3" d="M137.92,14.53a12.49,12.49,0,0,1-2.31-.2c0,2.45,0,24.07,0,26.45,0,1.11,1.18,1.44,2.29,1.42s2.29-.31,2.29-1.42c0-2.38,0-24,0-26.45a12.56,12.56,0,0,1-2.31.2" transform="translate(0 0)"/><path class="cls-3" d="M119.36,14.64a12.77,12.77,0,0,0-5.22-1.07A12.34,12.34,0,0,0,109,14.64a10.12,10.12,0,0,0-4.26,3.91,11.44,11.44,0,0,0-1.56,5.27V40.17a1.46,1.46,0,0,0,1.47,1.59H107a2.5,2.5,0,0,0,1-.37s0-11.53,0-16.55a7.73,7.73,0,0,1,1.79-5.34,5.85,5.85,0,0,1,4.33-1.65,6.24,6.24,0,0,1,4.43,1.65,7.73,7.73,0,0,1,1.79,5.34c0,5,0,16.55,0,16.55a2.43,2.43,0,0,0,1,.37h2.3a1.46,1.46,0,0,0,1.47-1.59V23.82a9.79,9.79,0,0,0-1.56-5.27,10.12,10.12,0,0,0-4.26-3.91" transform="translate(0 0)"/><path class="cls-3" d="M13.24,24.83c-.81-.18-3.57-.78-5-1.07l-.22,0a16.15,16.15,0,0,0-2.68-.37H5.1a5,5,0,0,0-2.68.7A5.13,5.13,0,0,0,0,28.48a5.31,5.31,0,0,0,4.09,4.83,7.14,7.14,0,0,0,2.15.32,6.54,6.54,0,0,0,3.08-.73,5.16,5.16,0,0,0,1.14-.82,8,8,0,0,0,.8-.93,14.55,14.55,0,0,0,2.26-5.91l.06-.34Z" transform="translate(0 0)"/><polygon class="cls-3" points="223.9 41.72 223.53 41.72 223.53 39.11 222.61 39.11 222.61 38.79 224.81 38.79 224.81 39.11 223.9 39.11 223.9 41.72"/><path class="cls-3" d="M226.54,41.72l-1-2.57h0a3,3,0,0,1,0,.34c0,.15,0,.3,0,.45v1.78h-.34V38.79h.55l.9,2.4h0l.92-2.4h.55v2.93h-.37v-1.8c0-.14,0-.28,0-.42s0-.26,0-.35h0l-1,2.57Z" transform="translate(0 0)"/><path class="cls-3" d="M254.48,34.48a6.73,6.73,0,0,1-2.77,5.79c-1.85,1.35-4.47,2-7.89,2a22,22,0,0,1-5.09-.52,17.94,17.94,0,0,1-3.7-1.24V37.69a19.1,19.1,0,0,0,4.14,1.52,18.91,18.91,0,0,0,4.75.6q4,0,5.85-1.38a4.43,4.43,0,0,0,1.81-3.74,3.92,3.92,0,0,0-1.89-3.5A27.55,27.55,0,0,0,244,28.68c-1.69-.58-3.18-1.17-4.48-1.75a7.72,7.72,0,0,1-3-2.31,6.14,6.14,0,0,1-1.09-3.85,5.94,5.94,0,0,1,2.69-5.17,12.42,12.42,0,0,1,7.19-1.86,20.55,20.55,0,0,1,4.63.49,25.72,25.72,0,0,1,3.91,1.21l-1,2.43a19.47,19.47,0,0,0-3.62-1.18,17.88,17.88,0,0,0-4-.47,9.47,9.47,0,0,0-5.07,1.14,3.67,3.67,0,0,0-1.81,3.31,3.7,3.7,0,0,0,.88,2.61,7.17,7.17,0,0,0,2.53,1.66c1.1.46,2.45,1,4,1.52a43.75,43.75,0,0,1,4.42,1.76,8.61,8.61,0,0,1,3.15,2.38,6,6,0,0,1,1.17,3.88" transform="translate(0 0)"/><path class="cls-3" d="M272.89,13.74a10.2,10.2,0,0,1,5.9,1.63,9.85,9.85,0,0,1,3.56,4.47,16.66,16.66,0,0,1,1.19,6.52v2.07H263.89q0,5.43,2.53,8.35t7.3,2.92a22,22,0,0,0,4.5-.41,21.41,21.41,0,0,0,4.19-1.45v2.69a19.33,19.33,0,0,1-4.09,1.34,23.26,23.26,0,0,1-4.71.42q-6.15,0-9.46-3.78c-2.21-2.51-3.31-5.95-3.31-10.29a18.6,18.6,0,0,1,1.42-7.47,11.81,11.81,0,0,1,4.11-5.15,11.18,11.18,0,0,1,6.52-1.86m-.05,2.48a8,8,0,0,0-6.13,2.53,11.81,11.81,0,0,0-2.77,7.19h16.5a12.19,12.19,0,0,0-1.84-7,6.48,6.48,0,0,0-5.76-2.69" transform="translate(0 0)"/><path class="cls-3" d="M304.34,13.74q4.7,0,7.19,2.43t2.48,7.6v18h-2.95V24q0-3.93-1.78-5.79A6.91,6.91,0,0,0,304,16.32q-9.11,0-9.11,10.45v15H292V14.25h2.38l.41,4.76H295a9.11,9.11,0,0,1,3.44-3.77,10.71,10.71,0,0,1,5.87-1.5" transform="translate(0 0)"/><path class="cls-3" d="M341.16,34.48a6.71,6.71,0,0,1-2.77,5.79q-2.76,2-7.88,2a22.18,22.18,0,0,1-5.1-.52,17.83,17.83,0,0,1-3.69-1.24V37.69a19.2,19.2,0,0,0,4.13,1.52,19,19,0,0,0,4.76.6q4,0,5.85-1.38a4.45,4.45,0,0,0,1.81-3.74,3.92,3.92,0,0,0-1.89-3.5,27.68,27.68,0,0,0-5.67-2.51c-1.69-.58-3.18-1.17-4.47-1.75a7.83,7.83,0,0,1-3-2.31,6.2,6.2,0,0,1-1.08-3.85,5.92,5.92,0,0,1,2.69-5.17A12.42,12.42,0,0,1,332,13.74a20.62,20.62,0,0,1,4.63.49,25.23,25.23,0,0,1,3.9,1.21l-1,2.43a19.71,19.71,0,0,0-3.62-1.18,18,18,0,0,0-4-.47,9.52,9.52,0,0,0-5.07,1.14A3.69,3.69,0,0,0,325,20.67a3.75,3.75,0,0,0,.88,2.61,7.22,7.22,0,0,0,2.54,1.66c1.1.46,2.44,1,4,1.52a42.83,42.83,0,0,1,4.42,1.76A8.64,8.64,0,0,1,340,30.6a6,6,0,0,1,1.16,3.88" transform="translate(0 0)"/><path class="cls-3" d="M359.17,13.74a10.14,10.14,0,0,1,5.89,1.63,9.81,9.81,0,0,1,3.57,4.47,16.85,16.85,0,0,1,1.19,6.52v2.07H350.17q0,5.43,2.53,8.35T360,39.7a21.86,21.86,0,0,0,4.5-.41,21,21,0,0,0,4.19-1.45v2.69a19.26,19.26,0,0,1-4.08,1.34,23.4,23.4,0,0,1-4.71.42q-6.15,0-9.47-3.78c-2.2-2.51-3.31-5.95-3.31-10.29a18.6,18.6,0,0,1,1.43-7.47,11.67,11.67,0,0,1,4.11-5.15,11.16,11.16,0,0,1,6.52-1.86m-.06,2.48A8,8,0,0,0,353,18.75a11.81,11.81,0,0,0-2.76,7.19h16.5a12.27,12.27,0,0,0-1.84-7,6.5,6.5,0,0,0-5.77-2.69" transform="translate(0 0)"/></g></g></g></svg>