<?xml version="1.0" encoding="utf-8"?>
<!-- Generator: Adobe Illustrator 22.1.0, SVG Export Plug-In . SVG Version: 6.00 Build 0)  -->
<svg version="1.1" id="レイヤー_1" xmlns="http://www.w3.org/2000/svg" xmlns:xlink="http://www.w3.org/1999/xlink" x="0px"
	 y="0px" width="184.459px" height="40px" viewBox="0 0 184.459 40" style="enable-background:new 0 0 184.459 40;"
	 xml:space="preserve">
<style type="text/css">
	.st0{fill:#FFFFFF;}
</style>
<g>
	<g>
		<g>
			<g>
				<g>
					<path class="st0" d="M28.849,22.667c-1.492,0.153-3.034,0.311-4.064,1.485c-0.889,1.015-1.196,2.533-0.763,3.776
						c0.571,1.64,2.09,2.64,4.053,2.64c1.431,0,2.844-0.523,3.762-1.453c0.254-0.257,0.507-0.585,0.679-0.897
						c0.964-1.747,0.889-4.148,0.675-5.906C32.665,22.356,28.849,22.667,28.849,22.667z"/>
					<path class="st0" d="M30.032,7.385c-1.969-0.44-3.921-0.494-5.789-0.218c-2.016,0.299-4.04,0.024-5.925-0.714
						c-0.263-0.103-0.522-0.217-0.78-0.335c-1.256-0.576-2.708-0.989-4.731-0.857C10.935,5.382,9.259,6.135,8.08,6.953
						c0.677,0.125,1.326,0.299,1.844,0.53c2.561,1.147,4.187,2.751,4.985,5.228c0.426,1.325,0.338,3.266-0.316,5.406
						c-0.667,2.182-3.368,11.015-3.368,11.015c1.935,5.542,6.73,9.818,12.836,10.703c9.159,1.328,17.667-5.495,18.47-15.078
						C43.212,16.623,37.818,9.126,30.032,7.385z M36.656,32.527c0,0-0.46,0.277-0.785,0.289H34.28c-1.172,0-0.988-0.381-0.988-2.084
						c-2.486,2.296-5.712,3.229-8.862,2.028c-5.334-2.034-5.09-9.367-0.408-11.886c2.092-1.125,9.379-1.116,9.379-1.116
						s-0.046-5.369-4.523-5.994c-1.667-0.233-3.888,0.46-4.617,0.575c-0.576,0.09-0.93-0.29-1.138-0.769
						c-0.276-0.636-0.678-1.331,0.425-1.853c0.862-0.408,3.757-1.136,5.547-0.912c2.785,0.348,4.809,1.406,6.296,3.542
						c0.795,1.142,1.266,3.025,1.266,5.262C36.656,23.854,36.656,32.527,36.656,32.527z"/>
				</g>
			</g>
			<path class="st0" d="M11.488,17.361c-0.045-0.014-4.54-1.387-7.466-1.679l-0.131-0.013l-0.009-0.131
				c-0.154-2.708,0.62-4.605,1.626-6.165l0.051-0.077L5.65,9.303c1.04,0.084,2.364,0.24,3.376,0.712
				c4.173,1.942,2.673,7.188,2.657,7.241l-0.045,0.151L11.488,17.361z"/>
			<path class="st0" d="M4.978,26.481c-0.594,0-1.186-0.089-1.761-0.265c-1.943-0.594-3.145-2.035-3.215-3.854
				c-0.052-1.37,0.714-2.788,1.908-3.527c0.605-0.375,1.3-0.557,2.123-0.557c0.206,0,0.419,0.011,0.651,0.033
				c0.559,0.054,1.118,0.164,1.659,0.271l4.407,0.964l-0.026,0.148c-0.281,1.583-0.703,2.911-1.254,3.946
				c-0.338,0.634-0.729,1.169-1.163,1.59c-0.257,0.249-0.602,0.499-0.947,0.685C6.674,26.285,5.85,26.481,4.978,26.481
				C4.978,26.481,4.978,26.481,4.978,26.481z"/>
		</g>
		<g>
			<path class="st0" d="M73.799,17.597c-0.202-2.942-2.34-4.857-3.277-5.485c-1.135-0.76-2.708-1.35-4.863-1.35
				c-1.927,0-3.467,0.509-4.658,1.277c-0.448,0.289-1.089,0.861-1.569,1.33c-0.479-0.469-1.121-1.041-1.569-1.33
				c-1.191-0.768-2.731-1.277-4.658-1.277c-2.156,0-3.728,0.591-4.863,1.35c-0.937,0.627-3.075,2.543-3.277,5.485L45.03,31.406
				c-0.045,1.463,0.924,1.463,1.186,1.463l1.723-0.001c0.345,0,0.781-0.29,0.781-0.29V19.717c0-2.737,0.595-5.593,4.486-5.609
				c2.943,0,4.643,1.804,4.537,5.609v11.666c0,1.07,0.884,1.337,1.688,1.337c0.804,0,1.691-0.25,1.691-1.337V19.717
				c-0.105-3.805,1.594-5.609,4.537-5.609c3.89,0.016,4.486,2.872,4.486,5.609v12.862c0,0,0.436,0.29,0.781,0.29l1.723,0.001
				c0.262,0,1.231,0,1.186-1.463L73.799,17.597z"/>
			<path class="st0" d="M147.237,17.597c-0.202-2.942-2.34-4.857-3.277-5.485c-1.135-0.76-2.708-1.35-4.863-1.35
				c-1.927,0-3.467,0.509-4.658,1.277c-0.448,0.289-1.089,0.861-1.569,1.33c-0.479-0.469-1.121-1.041-1.569-1.33
				c-1.191-0.768-2.731-1.277-4.658-1.277c-2.156,0-3.728,0.591-4.863,1.35c-0.937,0.627-3.075,2.543-3.277,5.485l-0.036,13.809
				c-0.045,1.463,0.924,1.463,1.186,1.463l1.723-0.001c0.345,0,0.781-0.29,0.781-0.29V19.717c0-2.737,0.595-5.593,4.486-5.609
				c2.943,0,4.643,1.804,4.537,5.609v11.666c0,1.07,0.884,1.337,1.688,1.337c0.804,0,1.691-0.25,1.691-1.337V19.717
				c-0.105-3.805,1.594-5.609,4.537-5.609c3.89,0.016,4.486,2.872,4.486,5.609v12.862c0,0,0.436,0.29,0.781,0.29l1.723,0.001
				c0.262,0,1.231,0,1.186-1.463L147.237,17.597z"/>
			<path class="st0" d="M97.194,14.61c-0.804-1.319-1.942-2.411-3.342-3.078c-1.267-0.603-2.704-0.825-4.097-0.845
				c-1.394,0.02-2.758,0.241-4.024,0.845c-1.4,0.667-2.538,1.759-3.342,3.078c-0.727,1.194-1.223,2.954-1.221,4.153v12.869
				c0,0.776,0.498,1.252,1.149,1.252h1.82c0.338,0,0.805-0.29,0.805-0.29s0.003-9.077,0.003-13.033c0-2.231,0.805-3.519,1.408-4.201
				c0.952-1.077,2.48-1.312,3.399-1.306c0.92,0.006,2.55,0.264,3.479,1.306c0.606,0.68,1.408,1.971,1.408,4.201
				c0,3.955,0.02,13.032,0.02,13.032s0.458,0.291,0.803,0.291h1.805c0.651,0,1.149-0.476,1.149-1.252V18.763
				C98.415,17.131,97.921,15.804,97.194,14.61z"/>
			<path class="st0" d="M108.369,5.432c-1.158-0.016-2.146-0.752-2.515-1.872c-0.343-1.04-0.094-2.025,0.667-2.76
				c0.782-0.755,1.693-0.971,2.686-0.665c1.266,0.39,2.078,1.536,1.903,2.849C110.923,4.393,109.738,5.451,108.369,5.432"/>
			<path class="st0" d="M110.233,31.568v-20.28c-1.095,0.181-1.814,0.157-1.814,0.157s-0.72,0.024-1.814-0.157v20.28
				c0,0.633-0.044,1.083,0.582,1.441c0.221,0.126,0.727,0.232,1.233,0.232c0.506,0,1.012-0.106,1.233-0.232
				C110.277,32.651,110.233,32.201,110.233,31.568z"/>
			<g>
				<g>
					<path class="st0" d="M167.32,11.063c-0.544-0.197-2.092-0.559-3.638-0.581c-1.546,0.023-3.096,0.381-3.638,0.581
						c-2.633,0.97-5.864,3.693-5.864,11.043s3.206,10.069,5.864,10.994c0.546,0.19,2.092,0.562,3.638,0.585
						c1.546-0.023,3.092-0.395,3.638-0.585c2.657-0.926,5.864-3.644,5.864-10.994S169.945,12.015,167.32,11.063z M169.365,23.811
						c-0.26,3.678-1.404,5.626-3.839,6.245c-0.546,0.141-1.167,0.213-1.844,0.213c-0.678,0-1.298-0.072-1.844-0.213
						c-2.436-0.619-3.579-2.567-3.839-6.245c-0.062-0.872-0.062-2.537,0-3.409c0.26-3.678,1.404-5.542,3.839-6.16
						c0.546-0.141,1.166-0.213,1.844-0.213c0.678,0,1.298,0.072,1.844,0.213c2.436,0.619,3.579,2.482,3.839,6.16
						C169.427,21.273,169.427,22.938,169.365,23.811z"/>
				</g>
			</g>
		</g>
	</g>
	<g>
		<path class="st0" d="M177.437,32.591h-0.606v-4.276h-1.501v-0.532h3.603v0.532h-1.495V32.591z"/>
		<path class="st0" d="M181.779,32.591l-1.582-4.215h-0.027c0.013,0.139,0.024,0.326,0.034,0.562
			c0.008,0.235,0.013,0.481,0.013,0.737v2.915h-0.559v-4.808h0.896l1.481,3.939h0.026l1.509-3.939h0.889v4.808h-0.599v-2.956
			c0-0.233,0.006-0.465,0.017-0.693c0.011-0.229,0.022-0.415,0.03-0.559h-0.026l-1.603,4.208H181.779z"/>
	</g>
</g>
</svg>
