<?xml version="1.0" encoding="utf-8"?>
<!-- Generator: Adobe Illustrator 22.1.0, SVG Export Plug-In . SVG Version: 6.00 Build 0)  -->
<svg version="1.1" id="レイヤー_1" xmlns="http://www.w3.org/2000/svg" xmlns:xlink="http://www.w3.org/1999/xlink" x="0px"
	 y="0px" width="132.327px" height="15.637px" viewBox="0 0 132.327 15.637" style="enable-background:new 0 0 132.327 15.637;"
	 xml:space="preserve">
<style type="text/css">
	.st0{fill:#FFFFFF;}
</style>
<g>
	<g>
		<path class="st0" d="M56.271,14.685c-0.781,0-1.597-0.02-2.236-0.255c-0.702-0.258-1.35-1.083-1.542-1.962
			c-0.132-0.604-0.124-1.248-0.116-1.871c0.002-0.145,0.004-0.289,0.004-0.431V8.421h-3.217c-0.123,0-0.228-0.043-0.313-0.127
			c-0.194-0.193-0.223-0.554-0.222-0.752V7.497c-0.004-0.178,0.01-0.62,0.231-0.844c0.084-0.085,0.186-0.128,0.304-0.128h3.217
			V3.718h-2.349c-0.123,0-0.228-0.043-0.313-0.127c-0.195-0.193-0.223-0.555-0.222-0.753l0-0.092
			c-0.005-0.208,0.017-0.59,0.218-0.794c0.085-0.086,0.192-0.13,0.316-0.13h9.335c0.125,0,0.231,0.044,0.316,0.13
			c0.201,0.204,0.223,0.586,0.218,0.796l0,0.088c0,0.2-0.028,0.563-0.223,0.756c-0.085,0.084-0.19,0.126-0.312,0.126h-5.032v2.807
			h6.295c0.244,0,0.535,0.176,0.535,1.017c0,0.551-0.2,0.88-0.535,0.88h-6.295c0,0.557,0.004,2.912,0.004,2.912
			c0,0.16,0.026,0.33,0.076,0.492c0.08,0.261,0.297,0.507,0.566,0.643c0.202,0.102,1.019,0.162,2.183,0.162
			c1.064,0,2.821-0.127,2.821-0.127s0.277,0.309,0.277,0.443c-0.003,0.027-0.057,0.471-0.086,0.622
			c-0.114,0.597-0.382,0.927-0.775,0.954c-0.28,0.019-0.54,0.04-0.792,0.061c-0.644,0.052-1.252,0.102-1.998,0.102L56.271,14.685z"
			/>
	</g>
	<g>
		<g>
			<path class="st0" d="M32.975,13.865c-0.131,0-0.243-0.048-0.333-0.142c-0.215-0.225-0.242-0.652-0.24-0.886l0-0.095
				c-0.004-0.235,0.023-0.665,0.238-0.892c0.091-0.095,0.203-0.143,0.334-0.143h11.426c0.131,0,0.243,0.048,0.333,0.142
				c0.215,0.225,0.241,0.652,0.24,0.886c0,0,0,0.088,0,0.097c-0.001,0.233-0.023,0.663-0.238,0.89
				c-0.091,0.095-0.203,0.143-0.334,0.143H32.975z"/>
			<path class="st0" d="M34.37,4.723c-0.13,0-0.242-0.048-0.331-0.142c-0.214-0.225-0.241-0.65-0.237-0.883V3.604
				c-0.003-0.232,0.023-0.657,0.237-0.882c0.09-0.094,0.201-0.142,0.332-0.142h8.636c0.13,0,0.242,0.048,0.332,0.142
				c0.214,0.224,0.24,0.65,0.237,0.883v0.094c0.003,0.232-0.023,0.657-0.237,0.882c-0.09,0.094-0.201,0.142-0.332,0.142H34.37z"/>
		</g>
	</g>
	<g>
		<path class="st0" d="M27.062,14.929c-0.129,0-0.324-0.058-0.324-0.058s-0.76-1.779-0.881-2.041
			c-4.809,0.803-9.449,1.294-9.977,1.358c-0.027,0.003-0.053,0.005-0.079,0.005c-0.4,0-0.746-0.37-0.805-0.86l-0.1-0.826
			c-0.03-0.245,0.165-0.466,0.165-0.466s1.366-0.07,1.731-0.108c1.162-2.921,2.212-6.033,3.122-9.25
			c0.094-0.334,0.365-0.671,0.758-0.671c0.063,0,0.128,0.009,0.192,0.027l0.798,0.179c0.244,0.071,0.333,0.363,0.333,0.363
			s-1.652,5.972-2.92,9.138c1.328-0.102,4.176-0.326,5.955-0.589c-0.586-1.15-1.801-3.195-1.801-3.195s0.04-0.314,0.221-0.449
			l0.625-0.449l0.034-0.024c0.108-0.078,0.221-0.159,0.359-0.159c0.254,0,0.488,0.141,0.643,0.387
			c0.922,1.463,2.404,4.155,3.126,5.887c0.1,0.241,0.121,0.511,0.059,0.759c-0.064,0.257-0.208,0.467-0.403,0.591l-0.613,0.387
			C27.215,14.908,27.141,14.929,27.062,14.929z"/>
	</g>
	<path class="st0" d="M1.375,14.755c-0.176,0-0.356-0.097-0.494-0.267c-0.101-0.123-0.32-1.146-0.323-1.165
		c0.008-0.275,0.149-0.511,0.149-0.511l0.027-0.003c0.51-0.051,0.956-0.219,1.494-0.563c0.628-0.402,1.029-0.814,1.381-1.42
		c0.421-0.725,0.617-1.502,0.657-2.596c0.028-0.797,0.026-1.62,0.024-2.416L4.288,5.262l0.018-0.019
		c0.01-0.01,0.309-0.251,0.547-0.251h0.594c0.448,0,0.813,0.439,0.813,0.978v0.487c0,0.607-0.033,1.148-0.067,1.614
		c0.076-0.016,0.156-0.04,0.204-0.056c1.409-0.462,3.109-2.707,3.494-4.266L0.209,3.776c0,0-0.209-0.277-0.209-0.521V2.837
		c0-0.539,0.365-0.978,0.813-0.978h10.051c0.524,0.019,1.173,0.587,1.173,0.587l-0.006,0.036c-0.202,1.286-1.016,3.347-1.778,4.499
		C9.43,8.228,8.408,9.147,7.297,9.639c-0.309,0.137-1.17,0.455-1.365,0.526c-0.008,0.05-0.02,0.134-0.028,0.168
		c-0.208,0.914-0.607,1.587-0.934,2.07c-0.894,1.321-2.009,2.066-3.508,2.344C1.433,14.752,1.404,14.755,1.375,14.755
		C1.375,14.755,1.375,14.755,1.375,14.755z"/>
	<g>
		<path class="st0" d="M68.458,15.468c-0.442,0-0.706-0.206-0.706-0.551c0-0.054,0.005-4.758,0.007-6.198
			c-0.233,0.676-0.509,1.415-0.841,2.094l-0.05,0.106c-0.158,0.278-0.412,0.441-0.681,0.441c-0.263,0-0.493-0.132-0.633-0.364
			c-0.013-0.021-0.036-0.065-0.047-0.087c-0.093-0.187-0.134-0.413-0.134-0.413s0.588-1.003,0.731-1.268
			c0.156-0.29,0.297-0.608,0.421-0.889c0.138-0.311,0.269-0.618,0.381-0.926c0.257-0.705,0.501-1.466,0.698-2.278h-1.608
			c-0.255-0.022-0.409-0.264-0.43-0.664v-0.18c-0.004-0.18,0.015-0.511,0.188-0.688c0.074-0.075,0.165-0.113,0.272-0.113h1.724
			V0.722c0-0.345,0.264-0.55,0.707-0.55h0.142c0.442,0,0.706,0.206,0.706,0.55V3.49h1.135c0.107,0,0.199,0.038,0.272,0.113
			c0.173,0.177,0.188,0.508,0.188,0.689c0,0.041,0,0.134-0.002,0.177c-0.02,0.398-0.171,0.645-0.415,0.666c-0.004,0-1.178,0-1.178,0
			v1.143c0.387,0.417,0.721,0.844,1.051,1.281c0.004-0.175,0.036-0.468,0.193-0.628c0.069-0.071,0.154-0.107,0.251-0.107h3.167V4.53
			h-1.397c-0.142,0.485-0.53,1.518-0.617,1.638c-0.184,0.252-0.407,0.386-0.646,0.386c-0.124,0-0.227-0.025-0.314-0.077
			c-0.109-0.065-0.287-0.258-0.307-0.28c-0.156-0.128-0.206-0.454-0.206-0.454s0.356-0.738,0.474-1.046
			c0.277-0.715,0.496-1.502,0.651-2.338c0.071-0.385,0.194-1.352,0.194-1.352s0.191-0.177,0.383-0.177
			c0.019,0,0.193,0.025,0.293,0.042c0.43,0.073,0.636,0.715,0.608,0.966c-0.014,0.122-0.126,0.839-0.178,1.11h1.061V0.712
			c0-0.338,0.259-0.54,0.693-0.54h0.141c0.434,0,0.693,0.202,0.693,0.54l0,2.234l2.527,0c0.104,0,0.192,0.037,0.263,0.109
			c0.166,0.17,0.184,0.487,0.18,0.66v0.192c-0.026,0.397-0.187,0.623-0.443,0.623h-2.527v2.294h3.27
			c0.103,0,0.191,0.037,0.262,0.109c0.165,0.169,0.183,0.487,0.179,0.661v0.184c-0.023,0.387-0.175,0.615-0.418,0.63
			c-0.016,0.001-0.113,0.002-0.76,0.002c-0.669,0-1.588-0.001-1.907-0.002c0.835,1.519,3.199,3.918,3.199,3.918
			s0.061,0.317-0.051,0.519c-0.005,0.009-0.124,0.222-0.239,0.397c-0.112,0.17-0.366,0.353-0.658,0.353l0,0
			c-0.197,0-0.377-0.081-0.536-0.24c-0.863-0.863-1.834-2.429-2.34-3.379l0,4.951c0,0.338-0.259,0.54-0.694,0.54l-0.118,0
			c-0.457,0-0.716-0.202-0.716-0.54v-4.81c-0.718,1.474-1.595,2.712-2.61,3.681l-0.034,0.031c-0.158,0.127-0.312,0.187-0.475,0.187
			c-0.235,0-0.498-0.165-0.669-0.422c-0.036-0.055-0.145-0.215-0.211-0.312c-0.124-0.183-0.067-0.472-0.067-0.472
			s0.806-0.58,0.973-0.742c0.969-0.944,1.845-2.206,2.538-3.655l-2.574-0.005c0.01,0.061,0.017,0.131,0.017,0.195
			c0,0.224-0.062,0.438-0.18,0.619l-0.272,0.372c-0.114,0.155-0.391,0.167-0.391,0.167s-0.486-0.841-0.707-1.186l0.002,6.342
			c0,0.345-0.264,0.551-0.707,0.551H68.458z"/>
	</g>
	<g>
		<g>
			<path class="st0" d="M110.779,4.885c-0.953-0.752-1.817-1.606-2.634-2.606c-0.059-0.072-0.136-0.112-0.218-0.112
				c-0.095,0-0.184,0.053-0.245,0.146c-0.585,0.9-1.328,1.765-2.21,2.571L110.779,4.885z M102.047,7.13
				c-0.233,0-0.452-0.12-0.609-0.332l-0.002,0.001l-0.034-0.051l-0.271-0.421c-0.127-0.198-0.059-0.43-0.056-0.44l0.009-0.029
				l0.26-0.122c0.322-0.152,0.642-0.319,0.949-0.496c2.079-1.193,3.785-2.917,4.777-4.867c0.126-0.248,0.266-0.353,0.814-0.353
				c0.48,0,0.571,0.103,0.69,0.285l0.033,0.05c0.985,1.441,2.902,3.481,5.061,4.489c0.103,0.048,0.236,0.115,0.379,0.187
				c0.251,0.127,0.536,0.27,0.731,0.347l0.032,0.013l0.008,0.034c0.003,0.011,0.07,0.285-0.025,0.462l-0.258,0.477
				c-0.162,0.255-0.4,0.4-0.654,0.4c-0.088,0-0.176-0.019-0.271-0.059l-0.102-0.054c-0.638-0.345-1.26-0.721-1.807-1.093
				c0.005,0.117,0.006,0.257,0.003,0.289c-0.034,0.405-0.271,0.637-0.65,0.637c0,0-6.017,0.003-6.022,0.003
				c-0.371-0.003-0.601-0.24-0.635-0.64c-0.001-0.014-0.002-0.04-0.003-0.067c-0.618,0.457-1.324,0.908-2.01,1.262
				C102.265,7.103,102.158,7.13,102.047,7.13z"/>
			<path class="st0" d="M112.866,15.428c-0.155-0.215-0.728-0.999-0.893-1.216c-2.555,0.402-6.57,0.751-9.066,0.876l-0.032,0.001
				c-0.316,0-0.603-0.241-0.731-0.614l-0.182-0.611c-0.07-0.227,0.072-0.424,0.078-0.432l0.02-0.027l0.033-0.001
				c0.305-0.009,0.658-0.02,0.976-0.032l0.394-0.013c0.633-0.984,1.363-2.341,1.841-3.421h-3.325c-0.443,0-0.63-0.36-0.657-0.698
				l-0.003-0.133c-0.009-0.253,0.059-0.469,0.192-0.606c0.114-0.118,0.272-0.178,0.468-0.178h11.971c0.196,0,0.353,0.06,0.468,0.178
				c0.133,0.137,0.201,0.353,0.192,0.607l-0.003,0.176c-0.033,0.417-0.273,0.654-0.657,0.654h-6.75
				c-0.54,1.157-1.186,2.335-1.828,3.336l0.893-0.042l0.282-0.015c1.235-0.067,2.763-0.15,4.368-0.332
				c-0.379-0.466-1.571-1.743-1.584-1.757l-0.017-0.018l-0.001-0.025c-0.001-0.014-0.017-0.35,0.184-0.494l0.367-0.262
				c0.134-0.11,0.294-0.17,0.459-0.17c0.157,0,0.312,0.056,0.447,0.162l0.131,0.128c0.986,0.985,2.212,2.398,2.851,3.287
				c0.136,0.19,0.165,0.429,0.165,0.597c0,0.3-0.112,0.582-0.306,0.774l-0.248,0.203c-0.175,0.143-0.432,0.146-0.442,0.146l-0.035,0
				L112.866,15.428z"/>
		</g>
	</g>
	<g>
		<g>
			<path class="st0" d="M121.877,15.468c-0.439-0.005-0.701-0.305-0.701-0.803l0.005-5.58c-0.064,0.067-0.128,0.134-0.191,0.2
				c-0.369,0.389-0.716,0.759-1.067,1.045c-0.154,0.125-0.309,0.184-0.474,0.184c-0.26,0-0.492-0.143-0.62-0.383
				c-0.072-0.135-0.178-0.419-0.182-0.431c-0.086-0.24-0.029-0.571-0.026-0.585l0.005-0.028l0.023-0.016
				c0.165-0.118,0.35-0.239,0.521-0.35c0.166-0.108,0.319-0.208,0.427-0.288c1.386-1.028,2.675-2.72,3.389-3.905h-3.834l-0.02-0.02
				c-0.008-0.008-0.196-0.203-0.196-0.457V3.868c0-0.552,0.369-1.001,0.823-1.001h1.418l-0.001-1.901
				c0-0.738,0.531-0.796,0.693-0.796c0,0,0.122,0,0.122,0c0.184,0,0.713,0.059,0.713,0.795l0.003,1.901h1.328
				c0.283,0,0.768,0.739,0.863,0.887l0.018,0.028l-0.011,0.031c-0.107,0.303-0.348,0.834-0.475,1.072
				c-0.452,0.842-0.964,1.543-1.505,2.282c0.658,0.481,1.537,1.247,1.904,1.63c0.132,0.138,0.239,0.461,0.239,0.722
				c0,0.192-0.046,0.379-0.134,0.541l-0.003-0.002c-0.021,0.044-0.079,0.138-0.22,0.371c-0.128,0.212-0.353,0.218-0.378,0.218
				h-0.031l-0.052-0.06c-0.226-0.263-0.647-0.753-0.781-0.897c-0.102-0.109-0.199-0.22-0.298-0.332
				c-0.144-0.163-0.291-0.331-0.453-0.494l0.001,5.8c0,0.188-0.051,0.803-0.708,0.803H121.877z"/>
			<path class="st0" d="M124.581,14.877c-0.392-0.004-0.632-0.253-0.661-0.683c-0.003-0.041-0.003-0.132-0.002-0.174
				c-0.009-0.259,0.061-0.481,0.198-0.623c0.116-0.12,0.276-0.181,0.474-0.181h2.91V6.402h-2.237c-0.394,0-0.638-0.245-0.669-0.671
				l-0.002-0.175c-0.009-0.258,0.06-0.478,0.196-0.618c0.116-0.121,0.276-0.182,0.476-0.182h2.237l0.001-3.648
				c0-0.75,0.545-0.809,0.712-0.809c0,0,0.194,0,0.194,0c0.188,0,0.73,0.06,0.73,0.808v3.648l2.279,0
				c0.199,0,0.358,0.061,0.474,0.181c0.135,0.14,0.204,0.36,0.195,0.62v0.168c-0.03,0.432-0.274,0.677-0.669,0.677h-2.279v6.814
				h2.517c0.198,0,0.357,0.061,0.474,0.181c0.137,0.142,0.207,0.364,0.198,0.628c0.001,0.037,0.001,0.129-0.002,0.17
				c-0.029,0.433-0.272,0.682-0.669,0.682H124.581z"/>
		</g>
	</g>
	<g>
		<g>
			<path class="st0" d="M84.053,14.79c-0.307,0-0.592-0.207-0.744-0.541c-0.019-0.042-0.055-0.179-0.118-0.417
				c-0.027-0.103-0.055-0.211-0.082-0.308c-0.067-0.244,0.123-0.517,0.131-0.528l0.016-0.023c0,0,2.4-0.445,3.231-0.598V8.496
				h-2.115c-0.264,0-0.429-0.243-0.455-0.666c-0.003-0.052-0.003-0.155-0.003-0.207c0-0.186,0.015-0.529,0.191-0.709
				c0.072-0.074,0.162-0.111,0.267-0.111h6.008c0.105,0,0.194,0.037,0.267,0.111c0.176,0.179,0.195,0.523,0.191,0.712l-0.003,0.2
				c-0.025,0.427-0.191,0.67-0.455,0.67H88.15v3.587c0.626-0.103,2.687-0.496,2.687-0.496l0.027,0.021
				c0.009,0.007,0.212,0.167,0.279,0.393l0.003,0.508c0,0.644-0.343,0.865-0.631,0.938C88.93,13.843,84.126,14.79,84.053,14.79z"/>
			<path class="st0" d="M96.09,15.637c-0.671,0-1.753-1.047-2.618-2.554c-1.118-1.949-1.719-4.349-2.094-8.258h-7.044
				c-0.265-0.008-0.427-0.256-0.449-0.681V3.908c-0.004-0.186,0.015-0.527,0.19-0.706c0.073-0.075,0.164-0.112,0.27-0.112h6.907
				c-0.038-0.65-0.104-2.354-0.108-2.496c-0.009-0.354,0.261-0.574,0.722-0.59L92.058,0c0.245,0,0.449,0.069,0.574,0.195
				c0.092,0.092,0.138,0.21,0.137,0.35c-0.003,0.531,0.084,2.006,0.117,2.545h1.823c-0.338-0.594-0.646-1.101-1.117-1.65
				c-0.066-0.077-0.098-0.172-0.096-0.285c0.004-0.215,0.104-0.443,0.26-0.594l0.119-0.113c0.129-0.107,0.25-0.159,0.366-0.159
				c0.106,0,0.205,0.044,0.293,0.13c0.337,0.332,1.217,1.584,1.437,2.143c0.077,0.196-0.123,0.399-0.298,0.528l1.132,0
				c0.106,0,0.197,0.038,0.271,0.113c0.176,0.18,0.195,0.52,0.191,0.707V4.14c0,0.416-0.181,0.685-0.461,0.685h-3.797
				c0.27,2.866,0.685,4.741,1.387,6.258c0.617,1.325,1.267,2.232,1.465,2.359c0.017-0.078,0.046-0.238,0.094-0.504l0.022-0.125
				c0.051-0.28,0.094-0.62,0.128-1.011c0.015-0.17,0.036-0.469,0.047-0.669l0.002-0.039l0.034-0.018
				c0.006-0.003,0.064-0.033,0.148-0.033c0.083,0,0.163,0.028,0.237,0.082l0.644,0.484c0.227,0.198,0.355,0.5,0.355,0.831
				c0,0.065-0.007,0.129-0.016,0.191C97.259,14.733,96.847,15.637,96.09,15.637z"/>
			<path class="st0" d="M91.115,11.677"/>
			<path class="st0" d="M91.115,11.677"/>
		</g>
	</g>
</g>
</svg>
