<?xml version="1.0" encoding="utf-8"?>
<!-- Generator: Adobe Illustrator 23.0.4, SVG Export Plug-In . SVG Version: 6.00 Build 0)  -->
<svg version="1.1" id="レイヤー_1" xmlns="http://www.w3.org/2000/svg" xmlns:xlink="http://www.w3.org/1999/xlink" x="0px"
	 y="0px" viewBox="0 0 113.9 130.6" style="enable-background:new 0 0 113.9 130.6;" xml:space="preserve">
<style type="text/css">
	.st0{fill:#1A2C77;}
	.st1{fill:#F1F0F8;}
	.st2{fill:#FFFFFF;}
</style>
<g>
	<g id="XMLID_30_">
		<g>
			<path class="st0" d="M111.1,25.8c1.5,0.7,2.5,2.3,2.5,4c0,48.2-20,84.7-54.9,100.2c-0.5,0.2-1.2,0.4-1.8,0.4
				c-0.6,0-1.2-0.1-1.8-0.4C20.3,114.5,0.2,77.9,0.2,29.7c0-1.7,1-3.2,2.5-4L55,0.7c1.2-0.6,2.6-0.6,3.8,0L111.1,25.8z M109,29.9
				l-52.1-25l-52.1,25c0,46.2,19,81.1,52.1,95.9C90,111,109,76.1,109,29.9z"/>
			<path class="st1" d="M56.9,4.9l52.1,25c0,46.2-19,81.1-52.1,95.9C23.9,111,4.9,76.1,4.8,29.9L56.9,4.9z M101,37.4
				c0-0.9-0.5-1.8-1.3-2.2L57.9,15.3c-0.6-0.3-1.3-0.3-2,0L14.2,35.2c-0.8,0.4-1.4,1.3-1.3,2.2c1,21.2,7.9,59.4,43,77.8
				c0.3,0.2,0.7,0.3,1.1,0.3c0.4,0,0.7-0.1,1.1-0.3C93.1,96.8,100,58.6,101,37.4z"/>
			<path class="st0" d="M99.7,35.2c0.8,0.4,1.3,1.3,1.3,2.2c-1,21.2-8,59.4-43,77.8c-0.3,0.2-0.7,0.3-1.1,0.3
				c-0.4,0-0.7-0.1-1.1-0.3c-35.1-18.4-42-56.6-43-77.8c0-0.9,0.5-1.8,1.3-2.2l41.8-19.9c0.6-0.3,1.4-0.3,2,0L99.7,35.2z M96.3,38.7
				L56.9,20L17.5,38.7c1.2,20.2,8.1,54.7,39.4,71.8C88.2,93.5,95.1,58.9,96.3,38.7z"/>
			<path class="st1" d="M56.9,20l39.4,18.8c-1.2,20.2-8.1,54.7-39.4,71.8C25.6,93.5,18.7,58.9,17.5,38.7L56.9,20z M74.6,78.5V58.6
				c0-2.7-2.1-5-4.8-5.2c-0.1,0-0.1,0-0.2,0v-2.2c0-7-5.7-12.7-12.7-12.7s-12.7,5.7-12.7,12.7v2.2v0c-2.8,0.1-5,2.4-5,5.2v19.9
				c0,2.9,2.4,5.2,5.2,5.2h24.9C72.2,83.7,74.6,81.4,74.6,78.5z"/>
			<path class="st0" d="M74.6,58.6v19.9c0,2.9-2.3,5.2-5.2,5.2H44.5c-2.9,0-5.2-2.3-5.2-5.2V58.6c0-2.8,2.2-5.1,5-5.2v0h2.5
				c-1.1,0.3-2,1.4-2,2.7c0,1.4,1,2.6,2.2,2.8h-2.2v19.4h24.4V58.9h-0.9c1.2-0.2,2.2-1.3,2.2-2.8c0-0.8-0.3-1.5-0.7-2l0.1-0.7
				C72.5,53.6,74.6,55.9,74.6,58.6z"/>
			<path class="st0" d="M69.7,54.2c0.5,0.5,0.7,1.2,0.7,2c0,1.4-1,2.6-2.2,2.8h-1.4c-1.5,0-2.7-1.2-2.7-2.7v-2.8h3.8
				C68.6,53.3,69.3,53.7,69.7,54.2z"/>
			<path class="st0" d="M69.8,53.4l-0.1,0.7c-0.5-0.5-1.1-0.8-1.8-0.8h-3.8v-2.2c0-4-3.2-7.2-7.2-7.2c-4,0-7.2,3.2-7.2,7.2v2.2h-2.5
				c-0.2,0-0.3,0-0.5,0.1h-2.5v-2.2c0-7,5.7-12.7,12.7-12.7s12.7,5.7,12.7,12.7v2.2C69.7,53.4,69.7,53.4,69.8,53.4z"/>
			<path class="st2" d="M69.1,58.9v19.4H44.8V58.9H47c0.1,0,0.2,0,0.3,0h20.7c0.1,0,0.2,0,0.3,0H69.1z M59,70.3v-4.2
				c0-1.2-0.9-2.1-2.1-2.1c-1.2,0-2.1,0.9-2.1,2.1v4.2c0,1.2,0.9,2.1,2.1,2.1C58.1,72.4,59,71.4,59,70.3z"/>
			<path class="st0" d="M66.9,58.9h1.4c-0.1,0-0.2,0-0.3,0H47.3c-0.1,0-0.2,0-0.3,0h0c1.5,0,2.7-1.2,2.7-2.7v-2.8h14.4v2.8
				C64.1,57.7,65.4,58.9,66.9,58.9z"/>
			<path class="st2" d="M64.1,51.2v2.2H49.7v-2.2c0-4,3.2-7.2,7.2-7.2C60.9,44,64.1,47.2,64.1,51.2z"/>
			<path class="st0" d="M59,66.1v4.2c0,1.2-0.9,2.1-2.1,2.1c-1.2,0-2.1-0.9-2.1-2.1v-4.2c0-1.2,0.9-2.1,2.1-2.1
				C58.1,64,59,64.9,59,66.1z"/>
			<path class="st0" d="M49.7,53.3v2.8c0,1.5-1.2,2.7-2.7,2.7h0c-1.2-0.2-2.2-1.3-2.2-2.8c0-1.3,0.9-2.5,2-2.7
				c0.2,0,0.3-0.1,0.5-0.1H49.7z"/>
		</g>
		<g>
		</g>
	</g>
</g>
</svg>
