<?xml version="1.0" encoding="utf-8"?>
<!-- Generator: Adobe Illustrator 22.1.0, SVG Export Plug-In . SVG Version: 6.00 Build 0)  -->
<svg version="1.1" id="レイヤー_1" xmlns="http://www.w3.org/2000/svg" xmlns:xlink="http://www.w3.org/1999/xlink" x="0px"
	 y="0px" width="40px" height="40px" viewBox="0 0 40 40" style="enable-background:new 0 0 40 40;" xml:space="preserve">
<style type="text/css">
	.st0{fill:#10069F;}
</style>
<g>
	<g>
		<path class="st0" d="M37.678,37.678c-1.167,1.167-3.076,1.167-4.243,0L2.322,6.565c-1.167-1.167-1.167-3.076,0-4.243l0,0
			c1.167-1.167,3.076-1.167,4.243,0l31.113,31.113C38.844,34.602,38.844,36.511,37.678,37.678L37.678,37.678z"/>
	</g>
	<g>
		<path class="st0" d="M2.322,37.678c-1.167-1.167-1.167-3.076,0-4.243L33.435,2.322c1.167-1.167,3.076-1.167,4.243,0l0,0
			c1.167,1.167,1.167,3.076,0,4.243L6.565,37.678C5.398,38.844,3.489,38.844,2.322,37.678L2.322,37.678z"/>
	</g>
</g>
</svg>
