<?xml version="1.0" encoding="utf-8"?>
<!-- Generator: Adobe Illustrator 22.1.0, SVG Export Plug-In . SVG Version: 6.00 Build 0)  -->
<svg version="1.1" id="レイヤー_1" xmlns="http://www.w3.org/2000/svg" xmlns:xlink="http://www.w3.org/1999/xlink" x="0px"
	 y="0px" width="20px" height="30px" viewBox="0 0 20 30" style="enable-background:new 0 0 20 30;" xml:space="preserve">
<style type="text/css">
	.st0{fill:#10069F;}
</style>
<g>
	<path class="st0" d="M17.5,15.731V12.5c0-3.628-2.577-6.654-6-7.349V1.5C11.5,0.672,10.828,0,10,0S8.5,0.672,8.5,1.5v3.651
		c-3.423,0.695-6,3.721-6,7.349v3.231c0,3.381-0.919,6.54-2.5,9.269h20C18.419,22.271,17.5,19.112,17.5,15.731z"/>
	<path class="st0" d="M10,30c1.814,0,3.327-1.288,3.674-3H6.326C6.673,28.711,8.186,30,10,30z"/>
</g>
</svg>
