<?xml version="1.0" encoding="utf-8"?>
<!-- Generator: Adobe Illustrator 22.1.0, SVG Export Plug-In . SVG Version: 6.00 Build 0)  -->
<svg version="1.1" id="レイヤー_1" xmlns="http://www.w3.org/2000/svg" xmlns:xlink="http://www.w3.org/1999/xlink" x="0px"
	 y="0px" width="54px" height="54px" viewBox="0 0 54 54" style="enable-background:new 0 0 54 54;" xml:space="preserve">
<style type="text/css">
	.st0{fill:#10069F;}
</style>
<g>
	<g>
		<g>
			<path class="st0" d="M36.444,27.062c-1.865,0.191-3.793,0.388-5.08,1.857c-1.112,1.269-1.495,3.166-0.954,4.72
				c0.714,2.051,2.612,3.301,5.067,3.301c1.789,0,3.555-0.654,4.703-1.816c0.318-0.322,0.634-0.732,0.849-1.122
				c1.204-2.184,1.111-5.185,0.844-7.383C41.214,26.672,36.444,27.062,36.444,27.062z"/>
			<path class="st0" d="M37.922,7.959c-2.461-0.55-4.901-0.618-7.236-0.272c-2.52,0.373-5.049,0.03-7.406-0.893
				c-0.329-0.129-0.653-0.271-0.975-0.419c-1.57-0.719-3.385-1.236-5.914-1.072c-2.339,0.152-4.434,1.093-5.908,2.115
				c0.846,0.156,1.658,0.373,2.304,0.663c3.201,1.433,5.234,3.438,6.231,6.535c0.533,1.656,0.422,4.083-0.395,6.757
				c-0.834,2.728-4.21,13.769-4.21,13.769c2.419,6.927,8.412,12.272,16.045,13.379c11.449,1.66,22.084-6.869,23.088-18.847
				C54.397,19.507,47.656,10.135,37.922,7.959z M46.203,39.387c0,0-0.575,0.346-0.981,0.361h-1.99c-1.465,0-1.235-0.476-1.235-2.606
				c-3.108,2.869-7.14,4.036-11.078,2.535c-6.668-2.542-6.363-11.709-0.509-14.858c2.615-1.407,11.724-1.395,11.724-1.395
				s-0.058-6.711-5.654-7.493c-2.084-0.291-4.859,0.575-5.771,0.718c-0.72,0.113-1.163-0.363-1.423-0.961
				c-0.345-0.795-0.848-1.664,0.532-2.317c1.077-0.51,4.697-1.42,6.934-1.141c3.481,0.435,6.011,1.758,7.87,4.428
				c0.994,1.428,1.583,3.781,1.583,6.578C46.203,28.545,46.203,39.387,46.203,39.387z"/>
		</g>
	</g>
	<path class="st0" d="M14.742,20.429c-0.057-0.017-5.675-1.734-9.333-2.098l-0.164-0.016l-0.012-0.164
		c-0.192-3.385,0.776-5.757,2.033-7.706l0.064-0.096l0.115,0.009c1.3,0.105,2.955,0.3,4.22,0.889
		c5.216,2.427,3.341,8.985,3.322,9.051l-0.056,0.189L14.742,20.429z"/>
	<path class="st0" d="M6.605,31.829c-0.742,0-1.482-0.111-2.201-0.331c-2.429-0.743-3.931-2.543-4.019-4.817
		c-0.065-1.713,0.893-3.484,2.385-4.409c0.756-0.468,1.625-0.696,2.654-0.696c0.257,0,0.524,0.014,0.813,0.041
		c0.698,0.067,1.398,0.205,2.074,0.339l5.509,1.204l-0.033,0.185c-0.351,1.979-0.879,3.639-1.568,4.933
		c-0.422,0.792-0.911,1.461-1.454,1.987c-0.322,0.312-0.753,0.624-1.183,0.856C8.725,31.584,7.696,31.829,6.605,31.829
		C6.605,31.829,6.605,31.829,6.605,31.829z"/>
</g>
</svg>
