<?xml version="1.0" encoding="utf-8"?>
<!-- Generator: Adobe Illustrator 23.0.4, SVG Export Plug-In . SVG Version: 6.00 Build 0)  -->
<svg version="1.1" id="レイヤー_1" xmlns="http://www.w3.org/2000/svg" xmlns:xlink="http://www.w3.org/1999/xlink" x="0px"
	 y="0px" viewBox="0 0 471.1 189.3" style="enable-background:new 0 0 471.1 189.3;" xml:space="preserve">
<style type="text/css">
	.st0{fill:#5354A2;}
	.st1{fill:none;stroke:#2C3590;stroke-width:8.3163;stroke-miterlimit:10;}
	.st2{fill:none;stroke:#2C3590;stroke-width:4.0673;stroke-miterlimit:10;}
	.st3{fill:#9794C8;}
	.st4{fill:#2C3590;}
	.st5{fill:#495354;}
	.st6{fill:#50BCB6;}
	.st7{fill:#FFFFFF;}
</style>
<g>
	<path class="st0" d="M235.1,6.2c37.1,0,67.3,30.2,67.3,67.3c0,37.1-30.2,67.3-67.3,67.3c-37.1,0-67.3-30.2-67.3-67.3
		C167.8,36.4,198,6.2,235.1,6.2 M235.1,0c-40.6,0-73.5,32.9-73.5,73.5c0,40.6,32.9,73.5,73.5,73.5c40.6,0,73.5-32.9,73.5-73.5
		C308.7,32.9,275.7,0,235.1,0L235.1,0z"/>
</g>
<line class="st1" x1="30.5" y1="73.5" x2="73.4" y2="73.5"/>
<g>
	<path class="st0" d="M73.5,6.2c37.1,0,67.3,30.2,67.3,67.3c0,37.1-30.2,67.3-67.3,67.3c-37.1,0-67.3-30.2-67.3-67.3
		C6.2,36.4,36.4,6.2,73.5,6.2 M73.5,0C32.9,0,0,32.9,0,73.5c0,40.6,32.9,73.5,73.5,73.5c40.6,0,73.5-32.9,73.5-73.5
		C147.1,32.9,114.1,0,73.5,0L73.5,0z"/>
</g>
<g>
	<path class="st0" d="M397.6,6.2c37.1,0,67.3,30.2,67.3,67.3c0,37.1-30.2,67.3-67.3,67.3c-37.1,0-67.3-30.2-67.3-67.3
		C330.3,36.4,360.4,6.2,397.6,6.2 M397.6,0C356.9,0,324,32.9,324,73.5c0,40.6,32.9,73.5,73.5,73.5c40.6,0,73.5-32.9,73.5-73.5
		C471.1,32.9,438.2,0,397.6,0L397.6,0z"/>
</g>
<g>
	<path class="st2" d="M396.7,100c0,16.8-13.7,30.5-30.5,30.5h-305c-16.8,0-30.5-13.7-30.5-30.5V47.6c0-16.8,13.7-30.5,30.5-30.5h305
		c16.8,0,30.5,13.7,30.5,30.5V100z"/>
</g>
<g>
	<path class="st3" d="M235.1,118.9c-34.8,0-63.1-20.4-63.1-45.4s28.3-45.4,63.1-45.4c34.8,0,63.1,20.4,63.1,45.4
		S269.9,118.9,235.1,118.9z"/>
	<path class="st3" d="M235.1,29.3c34.1,0,61.9,19.9,61.9,44.3s-27.8,44.3-61.9,44.3c-34.2,0-61.9-19.9-61.9-44.3
		S201,29.3,235.1,29.3 M235.1,27c-35.5,0-64.2,20.8-64.2,46.5c0,25.7,28.7,46.5,64.2,46.5c35.5,0,64.2-20.8,64.2-46.5
		C299.3,47.8,270.6,27,235.1,27L235.1,27z"/>
</g>
<g>
	<path class="st4" d="M49.3,73.5c0,10.3-8.4,18.7-18.7,18.7c-10.3,0-18.7-8.4-18.7-18.7c0-10.3,8.4-18.7,18.7-18.7
		C40.9,54.8,49.3,63.2,49.3,73.5z"/>
	<path class="st4" d="M92.1,73.5c0,10.3-8.4,18.7-18.7,18.7c-10.3,0-18.7-8.4-18.7-18.7c0-10.3,8.4-18.7,18.7-18.7
		C83.7,54.8,92.1,63.2,92.1,73.5z"/>
	<circle class="st4" cx="116.2" cy="73.5" r="18.7"/>
</g>
<g>
	<g>
		<g>
			<path class="st3" d="M360.5,78.7c-2.9,0-5.2-2.3-5.2-5.2V37.1c0-2.9,2.3-5.2,5.2-5.2h16.8c2.9,0,5.2,2.3,5.2,5.2v36.4
				c0,2.9-2.3,5.2-5.2,5.2H360.5z"/>
			<path class="st3" d="M377.2,32.9c2.3,0,4.2,1.9,4.2,4.2v36.4c0,2.3-1.9,4.2-4.2,4.2h-16.8c-2.3,0-4.2-1.9-4.2-4.2V37.1
				c0-2.3,1.9-4.2,4.2-4.2H377.2 M377.2,30.8h-16.8c-3.4,0-6.2,2.8-6.2,6.2v36.4c0,3.4,2.8,6.2,6.2,6.2h16.8c3.4,0,6.2-2.8,6.2-6.2
				V37.1C383.5,33.6,380.7,30.8,377.2,30.8L377.2,30.8z"/>
		</g>
		<g>
			<path class="st5" d="M439.5,73.4c0,3.4-2.8,6.2-6.2,6.2h-39.9c-3.4,0-6.2-2.8-6.2-6.2V37c0-3.4,2.8-6.2,6.2-6.2h39.9
				c3.4,0,6.2,2.8,6.2,6.2V73.4z"/>
		</g>
		<g>
			<path class="st6" d="M360.5,83c-3.4,0-6.2,2.8-6.2,6.2v20.8c0,3.4,2.8,6.2,6.2,6.2h72.8c3.4,0,6.2-2.8,6.2-6.2V89.2
				c0-3.4-2.8-6.2-6.2-6.2H360.5z"/>
		</g>
	</g>
</g>
<polygon class="st4" points="158.4,73.8 150.1,82.1 150.1,65.5 "/>
<polygon class="st4" points="320.5,73.8 312.2,82.1 312.2,65.5 "/>
<g>
	<path class="st6" d="M290.5,73.5c0,15.5-12.6,28.1-28.1,28.1c-15.5,0-28.1-12.6-28.1-28.1s12.6-28.1,28.1-28.1
		C277.9,45.5,290.5,58,290.5,73.5z"/>
</g>
<path class="st4" d="M226.5,73.5c0,10.3-8.4,18.7-18.7,18.7c-10.3,0-18.7-8.4-18.7-18.7c0-10.3,8.4-18.7,18.7-18.7
	C218.2,54.8,226.5,63.2,226.5,73.5z"/>
<path class="st4" d="M281.1,73.5c0,10.3-8.4,18.7-18.7,18.7c-10.3,0-18.7-8.4-18.7-18.7c0-10.3,8.4-18.7,18.7-18.7
	C272.8,54.8,281.1,63.2,281.1,73.5z"/>
<path class="st4" d="M320.7,24.7H106.4c-4.2,0-7.7-3.4-7.7-7.7l0,0c0-4.2,3.4-7.7,7.7-7.7h214.3c4.2,0,7.7,3.4,7.7,7.7l0,0
	C328.3,21.3,324.9,24.7,320.7,24.7z"/>
<g>
	<path class="st7" d="M21,73.8c0.5-0.5,1-1.2,1.2-1.7c-0.1,0-1.4,0.3-2.6,0.5v2.1c0,0.5,0.2,0.6,1,0.6c0.8,0,1.5-0.1,2.2-0.2l0,0.6
		c-0.6,0.1-1.3,0.1-2.2,0.1c-1.3,0-1.5-0.3-1.5-1v-2.1c-0.7,0.1-1.3,0.3-1.6,0.3l-0.1-0.6c0.3,0,1-0.2,1.7-0.3V71c0-0.2,0-0.4,0-0.6
		h0.7c0,0.2,0,0.4,0,0.6v1.1c1.2-0.2,2.4-0.5,2.7-0.5c0.2,0,0.3-0.1,0.4-0.1l0.4,0.3c0,0.1-0.1,0.2-0.2,0.3c-0.3,0.6-0.9,1.5-1.4,2
		L21,73.8z"/>
	<path class="st7" d="M27.2,74.3c1.1-0.7,1.9-1.7,2.3-2.6l0.3,0.6c-0.5,0.9-1.3,1.8-2.4,2.5c-0.7,0.4-1.6,0.9-2.8,1.1l-0.4-0.6
		C25.7,75.2,26.6,74.8,27.2,74.3z M26.8,72.1l-0.4,0.4c-0.4-0.4-1.2-1.1-1.7-1.5l0.4-0.4C25.5,71,26.4,71.7,26.8,72.1z"/>
	<path class="st7" d="M36.4,71.8c0.3,0,0.5,0,0.6,0v0.6c-0.1,0-0.3,0-0.6,0h-0.8v0.2c0,1.9-0.4,2.8-2,3.5l-0.5-0.4
		c1.3-0.5,1.9-1.1,1.9-3.1v-0.3h-2v1.1c0,0.3,0,0.6,0,0.6h-0.6c0-0.1,0-0.4,0-0.6v-1.1h-0.7c-0.3,0-0.6,0-0.7,0v-0.6
		c0.1,0,0.4,0,0.7,0h0.7v-0.9c0-0.2,0-0.4,0-0.5h0.6c0,0.1,0,0.3,0,0.5v0.9h2v-0.9c0-0.3,0-0.5,0-0.6h0.6c0,0.1,0,0.3,0,0.6v0.9
		H36.4z"/>
	<path class="st7" d="M38.1,72.8c0.2,0,0.6,0,1,0h3.8c0.3,0,0.6,0,0.8,0v0.7c-0.1,0-0.4,0-0.7,0h-3.8c-0.4,0-0.8,0-1,0V72.8z"/>
</g>
<g>
	<path class="st7" d="M64.3,74.9c0.3,0.5,0.9,0.8,1.7,0.8c0.8,0,2.3,0,3.1,0c-0.1,0.1-0.1,0.4-0.2,0.5c-0.8,0-2.2,0-3,0
		c-0.9,0-1.5-0.3-2-0.8c-0.3,0.3-0.7,0.6-1.1,0.9l-0.3-0.5c0.3-0.2,0.7-0.5,1.1-0.8v-1.8h-1v-0.5h1.5V74.9z M64.1,71.5
		c-0.2-0.3-0.7-0.8-1.2-1.1l0.4-0.3c0.4,0.3,1,0.7,1.2,1.1L64.1,71.5z M67.3,73.2c0.3,0.9,0.9,1.5,1.8,1.7c-0.1,0.1-0.3,0.3-0.3,0.4
		c-0.9-0.3-1.5-0.9-1.8-1.8c-0.2,0.6-0.7,1.3-1.8,1.8c-0.1-0.1-0.2-0.3-0.3-0.4c1.2-0.5,1.6-1.2,1.7-1.8h-1.8v-0.5h1.9
		c0-0.1,0-0.1,0-0.2v-0.8H65v-0.5h0.9c-0.1-0.3-0.3-0.8-0.6-1.1l0.4-0.2c0.3,0.3,0.5,0.8,0.6,1.1l-0.4,0.2h3v0.5h-1.8v0.8
		c0,0.1,0,0.1,0,0.2h2v0.5H67.3z M68.5,70.1c-0.2,0.4-0.5,0.9-0.8,1.2l-0.4-0.2c0.2-0.3,0.5-0.8,0.7-1.2L68.5,70.1z"/>
	<path class="st7" d="M72.2,70.1c-0.2,0.5-0.4,1-0.7,1.4v4.8H71v-4c-0.3,0.4-0.5,0.7-0.8,0.9c0-0.1-0.2-0.4-0.3-0.5
		c0.7-0.7,1.4-1.7,1.8-2.8L72.2,70.1z M76.5,71.2v0.4H72v-0.4H76.5z M72.5,74.1h3.6v2.2h-0.5V76H73v0.3h-0.5V74.1z M76,72.6h-3.4
		v-0.4H76V72.6z M72.6,73.2H76v0.4h-3.4V73.2z M75.9,70.7h-3.2v-0.4h3.2V70.7z M73,74.5v1h2.5v-1H73z"/>
	<path class="st7" d="M81.6,73.2c0.5,0.5,1.3,0.9,2.1,1.1c-0.1,0.1-0.3,0.3-0.3,0.4c-0.1,0-0.3-0.1-0.4-0.1v1.8h-0.5v-0.2h-1.3v0.3
		h-0.5v-2.3h1.3c-0.4-0.3-0.8-0.6-1.1-0.9h-1.1c-0.3,0.4-0.7,0.7-1.2,0.9h1.4v2.2h-0.5v-0.2h-1.3v0.3h-0.5v-1.9
		c-0.1,0.1-0.3,0.1-0.4,0.2c-0.1-0.1-0.2-0.3-0.3-0.4c0.8-0.3,1.5-0.6,2-1.1h-1.9v-0.5h2.3c0.1-0.2,0.3-0.3,0.4-0.5h-2.2v-1.9H80
		v1.8l0-0.1l0.5,0.2c-0.1,0.2-0.2,0.4-0.3,0.6h3.3v0.5H81.6z M79.6,70.7h-1.3v1.1h1.3V70.7z M79.6,74.5h-1.3v1.1h1.3V74.5z
		 M83.1,72.2h-2.3v-1.9h2.3V72.2z M82.5,75.6v-1.1h-1.3v1.1H82.5z M82.6,70.7h-1.3v1.1h1.3V70.7z"/>
</g>
<g>
	<path class="st7" d="M104.5,71.7c0.2,0,0.5,0,0.7,0v0.6c-0.2,0-0.5,0-0.7,0h-1.2c-0.1,2-0.9,3.2-2.1,3.9l-0.6-0.4
		c0.2-0.1,0.4-0.2,0.6-0.3c0.7-0.5,1.4-1.4,1.5-3.2H101c-0.3,0.5-0.8,1.2-1.2,1.5l-0.6-0.3c0.5-0.4,1-1.1,1.2-1.5
		c0.2-0.3,0.3-0.7,0.4-1c0-0.2,0.1-0.4,0.1-0.6l0.7,0.1c-0.1,0.2-0.1,0.3-0.2,0.5c-0.1,0.2-0.2,0.5-0.3,0.7H104.5z M104.4,71.4
		c-0.1-0.3-0.4-0.7-0.6-1l0.4-0.2c0.2,0.3,0.4,0.7,0.6,1L104.4,71.4z M105,70c0.2,0.3,0.5,0.7,0.6,1l-0.4,0.2
		c-0.2-0.3-0.4-0.7-0.6-1L105,70z"/>
	<path class="st7" d="M105.5,72.8c0.2,0,0.6,0,1,0h3.8c0.4,0,0.6,0,0.8,0v0.7c-0.1,0-0.4,0-0.7,0h-3.8c-0.4,0-0.8,0-1,0V72.8z"/>
	<path class="st7" d="M115.2,74c-0.8-0.4-2-0.9-2.8-1.1l0,2.3c0,0.2,0,0.6,0,0.8h-0.7c0-0.2,0-0.6,0-0.8v-4.1c0-0.2,0-0.5-0.1-0.7
		h0.7c0,0.2,0,0.5,0,0.7v1.1c0.9,0.3,2.2,0.8,3,1.2L115.2,74z"/>
	<path class="st7" d="M121.4,71.6c0,0.1-0.1,0.3-0.1,0.4c-0.1,0.6-0.3,1.4-0.7,2.1c-0.5,0.9-1.5,1.6-2.8,2l-0.5-0.5
		c0.2,0,0.5-0.1,0.7-0.2c0.7-0.2,1.5-0.7,1.9-1.4c0.4-0.6,0.6-1.4,0.7-2h-3.9v1.3c0,0.1,0,0.3,0,0.4h-0.6c0-0.1,0-0.3,0-0.4v-1.2
		c0-0.1,0-0.4,0-0.5c0.2,0,0.4,0,0.7,0h1.5v-0.7c0-0.1,0-0.3,0-0.5h0.7c0,0.2,0,0.4,0,0.5v0.7h1.6c0.3,0,0.4,0,0.5-0.1L121.4,71.6z"
		/>
	<path class="st7" d="M126,75.3c0.2,0,0.3,0,0.5,0v0.6c-0.1,0-0.4,0-0.5,0h-3.9c-0.2,0-0.3,0-0.5,0v-0.6c0.2,0,0.4,0,0.5,0h1.6v-2.6
		h-1.3c-0.1,0-0.3,0-0.5,0v-0.6c0.1,0,0.4,0,0.5,0h3.2c0.2,0,0.4,0,0.5,0v0.6c-0.2,0-0.3,0-0.5,0h-1.4v2.6H126z"/>
	<path class="st7" d="M132.3,70.8c-0.5,0.5-1.2,1.1-1.9,1.5v3c0,0.3,0,0.6,0,0.7h-0.7c0-0.1,0-0.5,0-0.7v-2.6
		c-0.7,0.4-1.7,0.8-2.6,1.1l-0.3-0.5c1.2-0.3,2.4-0.8,3.1-1.3c0.7-0.4,1.4-1.1,1.8-1.5L132.3,70.8z"/>
</g>
<g>
	<path class="st7" d="M195.5,70.7h0.7v5.1h-0.7V70.7z"/>
	<path class="st7" d="M197.4,73.9c0-1.3,0.8-2,1.8-2s1.8,0.7,1.8,2c0,1.3-0.8,2-1.8,2S197.4,75.2,197.4,73.9z M200.2,73.9
		c0-0.9-0.4-1.5-1.1-1.5S198,73,198,73.9c0,0.9,0.4,1.5,1.1,1.5S200.2,74.8,200.2,73.9z"/>
	<path class="st7" d="M202.6,71.2h-1.6v-0.5h3.8v0.5h-1.6v4.6h-0.7V71.2z"/>
	<path class="st7" d="M213,70.2v6.1h-0.6V76h-4.7v0.4h-0.5v-6.1H213z M212.5,75.5v-4.7h-4.7v4.7H212.5z M211.5,71.8v2.5h-2.7v-2.5
		H211.5z M211,72.3h-1.7v1.6h1.7V72.3z"/>
	<path class="st7" d="M215,74c-0.1,0.7-0.3,1.3-0.5,1.8c-0.1-0.1-0.3-0.2-0.4-0.2c0.2-0.4,0.4-1.1,0.4-1.7L215,74z M215.7,73.4v2.9
		h-0.5v-2.9l-1.1,0.1l0-0.5l0.5,0c0.1-0.2,0.3-0.4,0.4-0.6c-0.2-0.3-0.6-0.7-0.9-1l0.3-0.3c0.1,0.1,0.1,0.1,0.2,0.2
		c0.2-0.4,0.5-0.9,0.6-1.3l0.5,0.2c-0.2,0.5-0.5,1.1-0.8,1.4c0.1,0.2,0.3,0.3,0.4,0.4c0.3-0.4,0.6-0.9,0.7-1.3l0.4,0.2
		c-0.4,0.6-0.9,1.4-1.4,2l1,0c-0.1-0.2-0.2-0.4-0.3-0.6l0.4-0.2c0.3,0.4,0.6,1.1,0.7,1.4l-0.4,0.2c0-0.1-0.1-0.3-0.1-0.4L215.7,73.4
		z M216.3,73.9c0.2,0.4,0.3,0.9,0.4,1.2l-0.4,0.1c0-0.3-0.2-0.9-0.4-1.3L216.3,73.9z M218.2,73.8c-0.2,1.1-0.8,1.8-1.5,2.2
		c-0.1-0.1-0.2-0.3-0.3-0.4c0.6-0.3,1-0.8,1.3-1.5h-0.9v-0.4h1.1l0.1,0L218.2,73.8z M220.5,73.7c-0.3,0.3-0.7,0.6-1.1,0.9
		c0.3,0.4,0.7,0.8,1.2,1c-0.1,0.1-0.2,0.3-0.3,0.4c-0.7-0.4-1.2-1-1.5-1.7v1.4c0,0.3,0,0.4-0.2,0.5c-0.2,0.1-0.4,0.1-0.9,0.1
		c0-0.1-0.1-0.3-0.1-0.4c0.3,0,0.6,0,0.7,0c0.1,0,0.1,0,0.1-0.1v-2.7H217v-2.5h1.1c0.1-0.2,0.2-0.5,0.3-0.7L219,70
		c-0.1,0.2-0.2,0.4-0.3,0.6h1.6v2.5h-1.4v0.1c0.1,0.3,0.2,0.7,0.4,1c0.3-0.3,0.7-0.6,0.9-0.8L220.5,73.7z M217.4,71.7h2.4v-0.6h-2.4
		V71.7z M217.4,72.7h2.4v-0.6h-2.4V72.7z"/>
</g>
<g>
	<path class="st7" d="M249,70.7h0.7v5.1H249V70.7z"/>
	<path class="st7" d="M251.2,70.7h0.7v5.1h-0.7V70.7z"/>
	<path class="st7" d="M253,73.9c0-1.3,0.8-2,1.8-2c0.9,0,1.8,0.7,1.8,2c0,1.3-0.8,2-1.8,2C253.8,75.9,253,75.2,253,73.9z
		 M255.9,73.9c0-0.9-0.4-1.5-1.1-1.5s-1.1,0.6-1.1,1.5c0,0.9,0.4,1.5,1.1,1.5S255.9,74.8,255.9,73.9z"/>
	<path class="st7" d="M258.3,71.2h-1.6v-0.5h3.8v0.5h-1.6v4.6h-0.7V71.2z"/>
	<path class="st7" d="M267.4,73.7c0.4,0.5,1,0.9,1.6,1.1c-0.1,0.1-0.3,0.3-0.3,0.4c-0.7-0.3-1.4-0.9-1.8-1.5h-2.2
		c-0.4,0.7-1.1,1.3-1.8,1.6c-0.1-0.1-0.2-0.3-0.3-0.4c0.6-0.2,1.2-0.7,1.6-1.2h-1.5v-0.4h1.4v-2.2h-1.1v-0.4h1.1v-0.7h0.5v0.7h2.5
		v-0.7h0.5v0.7h1v0.4h-1v2.2h1.4v0.4H267.4z M266,75.7h2.4v0.4h-5.3v-0.4h2.3V75h-1.4v-0.4h1.4V74h0.5v0.6h1.5V75H266V75.7z
		 M264.5,71.1v0.5h2.5v-0.5H264.5z M264.5,72.4h2.5v-0.5h-2.5V72.4z M264.5,73.3h2.5v-0.5h-2.5V73.3z"/>
	<path class="st7" d="M272.3,72.3c-0.5,0-1,0.1-1.4,0.1c-0.1,0.6-0.3,1.3-0.8,1.8c-0.1-0.1-0.2-0.2-0.3-0.3c0.4-0.4,0.6-1,0.7-1.5
		l-0.6,0l0-0.4c0.2,0,0.4,0,0.6,0c0-0.1,0-0.2,0-0.2v-1.3h0.8c0.1-0.2,0.2-0.4,0.2-0.5l0.5,0.1c-0.1,0.2-0.1,0.3-0.2,0.4h1v1.4
		l0.3,0l0,0.4l-0.3,0v1.2c0,0.2,0,0.4-0.2,0.4c-0.2,0.1-0.4,0.1-0.8,0.1c0-0.1-0.1-0.3-0.1-0.4c0.3,0,0.5,0,0.6,0
		c0.1,0,0.1,0,0.1-0.1V72.3z M275.4,75.7h0.8v0.4h-6.3v-0.4h0.8v-1.6h4.7V75.7z M270.9,71.7c0,0.1,0,0.1,0,0.2c0.4,0,0.9,0,1.4-0.1
		v-1.1h-1.4V71.7z M271.5,71c0.2,0.2,0.3,0.5,0.4,0.7l-0.3,0.1c-0.1-0.2-0.2-0.5-0.4-0.7L271.5,71z M271.2,75.7h0.9v-1.2h-0.9V75.7z
		 M271.7,72.5v1h-0.4v-1H271.7z M272.6,74.5v1.2h0.9v-1.2H272.6z M275.7,72.1c-0.2,0.5-0.5,0.9-0.9,1.2c0.4,0.2,0.9,0.3,1.4,0.4
		c-0.1,0.1-0.2,0.3-0.3,0.4c-0.6-0.1-1.1-0.3-1.5-0.5c-0.4,0.2-0.8,0.4-1.3,0.5c-0.1-0.1-0.2-0.3-0.3-0.4c0.4-0.1,0.8-0.2,1.2-0.4
		c-0.3-0.2-0.5-0.5-0.7-0.8l0.3-0.1h-0.5V72h0c0-0.1-0.2-0.3-0.3-0.3c0.5-0.3,0.6-0.6,0.6-1v-0.5h1.8v1c0,0.1,0,0.1,0.1,0.1h0.3
		c0.1,0,0.1,0,0.1-0.5c0.1,0.1,0.3,0.1,0.4,0.2c0,0.6-0.2,0.8-0.5,0.8h-0.4c-0.4,0-0.5-0.1-0.5-0.5v-0.6h-0.9v0.1
		c0,0.4-0.1,0.9-0.7,1.3h2.1l0.1,0L275.7,72.1z M273.9,72.4c0.1,0.3,0.4,0.5,0.6,0.7c0.3-0.2,0.5-0.4,0.7-0.7H273.9z M274,74.5v1.2
		h0.9v-1.2H274z"/>
</g>
<g>
	<path class="st7" d="M366.3,47.5h-1.9l-0.5,1.6h-0.7l1.7-5.1h0.7l1.7,5.1h-0.7L366.3,47.5z M366.2,47l-0.2-0.8
		c-0.2-0.6-0.4-1.1-0.5-1.7h0c-0.2,0.6-0.3,1.2-0.5,1.7l-0.3,0.8H366.2z"/>
	<path class="st7" d="M368.5,44h1.5c1.2,0,1.9,0.4,1.9,1.5c0,1.1-0.8,1.6-1.9,1.6h-0.8v2h-0.7V44z M369.9,46.5
		c0.9,0,1.3-0.3,1.3-1.1c0-0.7-0.5-1-1.4-1h-0.7v2H369.9z"/>
	<path class="st7" d="M373,44h0.7v5.1H373V44z"/>
	<path class="st7" d="M370.9,57.7c-0.4-0.1-0.8-0.3-1.2-0.6c-0.4,0.4-0.9,0.6-1.5,0.6c-0.9,0-1.6-0.6-1.6-1.4c0-0.7,0.5-1.1,1-1.5
		c-0.2-0.4-0.3-0.8-0.3-1.2c0-0.7,0.5-1.2,1.2-1.2c0.6,0,1,0.4,1,1c0,0.7-0.6,1.1-1.2,1.5c0.3,0.5,0.8,1.1,1.3,1.4
		c0.3-0.4,0.6-0.9,0.7-1.5h0.6c-0.2,0.7-0.5,1.3-0.9,1.8c0.3,0.2,0.7,0.4,1,0.5L370.9,57.7z M368.3,57.2c0.4,0,0.7-0.2,1-0.4
		c-0.5-0.4-1-1-1.4-1.5c-0.4,0.3-0.6,0.6-0.6,1C367.3,56.9,367.7,57.2,368.3,57.2z M368.1,54.5c0.5-0.3,0.9-0.6,0.9-1.1
		c0-0.3-0.1-0.6-0.5-0.6c-0.4,0-0.6,0.3-0.6,0.7C367.9,53.9,368,54.2,368.1,54.5z"/>
	<path class="st7" d="M362.3,65.6l0.4-0.4c0.4,0.4,0.9,0.6,1.4,0.6c0.7,0,1.1-0.3,1.1-0.8c0-0.5-0.4-0.7-0.9-0.9l-0.7-0.3
		c-0.5-0.2-1-0.6-1-1.3c0-0.8,0.7-1.4,1.6-1.4c0.6,0,1.1,0.3,1.5,0.6l-0.3,0.4c-0.3-0.3-0.7-0.5-1.2-0.5c-0.6,0-1,0.3-1,0.8
		c0,0.5,0.4,0.7,0.8,0.9l0.7,0.3c0.6,0.3,1.1,0.6,1.1,1.4c0,0.8-0.7,1.5-1.7,1.5C363.3,66.3,362.7,66,362.3,65.6z"/>
	<path class="st7" d="M366.9,61.1h1.3c1.6,0,2.4,0.9,2.4,2.5c0,1.6-0.8,2.6-2.4,2.6h-1.3V61.1z M368.1,65.7c1.2,0,1.8-0.8,1.8-2.1
		c0-1.3-0.6-2-1.8-2h-0.6v4.1H368.1z"/>
	<path class="st7" d="M371.8,61.1h0.7v2.6h0l2.1-2.6h0.7l-1.6,2l1.9,3.2h-0.7l-1.5-2.7l-0.9,1.1v1.6h-0.7V61.1z"/>
</g>
<g>
	<path class="st7" d="M409.4,52.8c0,0.1-0.1,0.2-0.2,0.3c-0.3,0.5-0.9,1.4-1.7,1.9l-0.5-0.4c0.6-0.4,1.3-1.1,1.5-1.6h-4
		c-0.3,0-0.5,0-0.8,0v-0.6c0.2,0,0.5,0.1,0.8,0.1h4c0.1,0,0.4,0,0.5,0L409.4,52.8z M406.6,53.7c0,1.9-0.2,3.2-2,4.1l-0.5-0.4
		c0.2-0.1,0.4-0.2,0.6-0.3c1.1-0.7,1.2-1.7,1.2-2.8c0-0.2,0-0.3,0-0.5H406.6z"/>
	<path class="st7" d="M414.9,52.8c0.1,0,0.1,0,0.2,0c0-0.1,0-0.1,0-0.2c0-0.4,0.3-0.8,0.8-0.8s0.8,0.4,0.8,0.8
		c0,0.4-0.3,0.8-0.8,0.8c-0.1,0-0.2,0-0.3,0l0,0.1c-0.2,0.7-0.5,1.9-1,2.6c-0.6,0.8-1.5,1.5-2.8,1.9l-0.5-0.5
		c1.4-0.3,2.1-0.9,2.7-1.7c0.5-0.6,0.8-1.6,0.9-2.3h-3.6c-0.3,0-0.5,0-0.7,0v-0.6c0.2,0,0.5,0,0.7,0H414.9z M416.4,52.5
		c0-0.3-0.2-0.5-0.5-0.5c-0.3,0-0.5,0.2-0.5,0.5c0,0.3,0.2,0.5,0.5,0.5C416.1,53,416.4,52.8,416.4,52.5z"/>
	<path class="st7" d="M418.8,52.3c0,0.1,0,0.3,0,0.5v2.3c0,0.2,0,0.4,0,0.5h-0.6c0-0.1,0-0.3,0-0.5v-2.3c0-0.1,0-0.4,0-0.5H418.8z
		 M422,52.2c0,0.2,0,0.4,0,0.6V54c0,1.7-0.2,2.2-0.7,2.8c-0.5,0.5-1.2,0.8-1.7,1l-0.5-0.5c0.6-0.2,1.2-0.4,1.7-0.9
		c0.5-0.6,0.6-1.1,0.6-2.5v-1.1c0-0.2,0-0.4,0-0.6H422z"/>
</g>
<g>
	<path class="st7" d="M375,99.2c0-1.2,0.8-2,1.7-2c1,0,1.5,0.7,1.5,1.8c0,0.1,0,0.3,0,0.4h-2.6c0,0.8,0.5,1.3,1.3,1.3
		c0.4,0,0.7-0.1,1-0.3l0.2,0.4c-0.3,0.2-0.7,0.4-1.3,0.4C375.8,101.2,375,100.5,375,99.2z M377.7,98.9c0-0.8-0.4-1.2-0.9-1.2
		c-0.5,0-1,0.4-1.1,1.2H377.7z"/>
	<path class="st7" d="M383.7,101.2c0-0.1,0-0.2,0-0.4h-3.4c-0.3,0-0.6,0-0.8,0v-0.6c0.2,0,0.5,0,0.8,0h3.4v-3.3h-3.4
		c-0.3,0-0.6,0-0.8,0v-0.6c0.2,0,0.5,0,0.8,0h3.5c0.2,0,0.4,0,0.5,0c0,0.2,0,0.4,0,0.5v3.6c0,0.3,0,0.6,0,0.7H383.7z"/>
	<path class="st7" d="M391.6,96.7c-0.1,0.1-0.1,0.2-0.2,0.2c-0.5,0.8-1.4,2-2.5,2.8c0.4,0.4,0.9,0.9,1.2,1.3l-0.5,0.4
		c-0.3-0.4-0.8-1-1.3-1.4c-0.4-0.4-1.2-1.1-1.6-1.4l0.5-0.4c0.3,0.2,0.8,0.7,1.3,1.1c1-0.8,1.8-1.8,2.2-2.4h-4.1c-0.3,0-0.6,0-0.7,0
		v-0.6c0.2,0,0.5,0.1,0.7,0.1h4.2c0.2,0,0.4,0,0.4-0.1L391.6,96.7z"/>
	<path class="st7" d="M392.4,98.1c0.2,0,0.6,0,1,0h3.8c0.3,0,0.6,0,0.8,0v0.7c-0.1,0-0.4,0-0.7,0h-3.8c-0.4,0-0.8,0-1,0V98.1z"/>
	<path class="st7" d="M403.2,96.4c0,0.1-0.1,0.2-0.2,0.3c-0.2,0.6-0.7,1.4-1.2,2.1c0.7,0.6,1.6,1.5,2,2.1l-0.5,0.4
		c-0.5-0.6-1.2-1.4-1.9-2.1c-0.7,0.8-1.7,1.6-2.7,2l-0.4-0.5c1.1-0.4,2.2-1.3,2.9-2.1c0.5-0.5,1-1.4,1.2-1.9h-2.7
		c-0.2,0-0.6,0-0.7,0v-0.6c0.1,0,0.5,0,0.7,0h2.7c0.2,0,0.4,0,0.5-0.1L403.2,96.4z"/>
	<path class="st7" d="M409.7,99c0.4,0.5,1,0.9,1.6,1.1c-0.1,0.1-0.3,0.3-0.3,0.4c-0.7-0.3-1.4-0.9-1.8-1.5h-2.2
		c-0.4,0.7-1.1,1.3-1.8,1.6c-0.1-0.1-0.2-0.3-0.3-0.4c0.6-0.2,1.2-0.7,1.6-1.2h-1.5v-0.4h1.4v-2.2h-1.1v-0.4h1.1v-0.7h0.5v0.7h2.5
		v-0.7h0.5v0.7h1v0.4h-1v2.2h1.4V99H409.7z M408.2,101h2.4v0.4h-5.3V101h2.3v-0.7h-1.4v-0.4h1.4v-0.6h0.5v0.6h1.5v0.4h-1.5V101z
		 M406.7,96.4v0.5h2.5v-0.5H406.7z M406.7,97.7h2.5v-0.5h-2.5V97.7z M406.7,98.6h2.5v-0.5h-2.5V98.6z"/>
	<path class="st7" d="M414.5,97.6c-0.5,0-1,0.1-1.4,0.1c-0.1,0.6-0.3,1.3-0.8,1.8c-0.1-0.1-0.2-0.2-0.3-0.3c0.4-0.4,0.6-1,0.7-1.5
		l-0.6,0l0-0.4c0.2,0,0.4,0,0.6,0c0-0.1,0-0.2,0-0.2v-1.3h0.8c0.1-0.2,0.2-0.4,0.2-0.5l0.5,0.1c-0.1,0.2-0.1,0.3-0.2,0.4h1v1.4
		l0.3,0l0,0.4l-0.3,0v1.2c0,0.2,0,0.4-0.2,0.4c-0.2,0.1-0.4,0.1-0.8,0.1c0-0.1-0.1-0.3-0.1-0.4c0.3,0,0.5,0,0.6,0
		c0.1,0,0.1,0,0.1-0.1V97.6z M417.6,101h0.8v0.4h-6.3V101h0.8v-1.6h4.7V101z M413.2,97c0,0.1,0,0.1,0,0.2c0.4,0,0.9,0,1.4-0.1v-1.1
		h-1.4V97z M413.7,96.3c0.2,0.2,0.3,0.5,0.4,0.7l-0.3,0.1c-0.1-0.2-0.2-0.5-0.4-0.7L413.7,96.3z M413.4,101h0.9v-1.2h-0.9V101z
		 M414,97.8v1h-0.4v-1H414z M414.8,99.9v1.2h0.9v-1.2H414.8z M418,97.4c-0.2,0.5-0.5,0.9-0.9,1.2c0.4,0.2,0.9,0.3,1.4,0.4
		c-0.1,0.1-0.2,0.3-0.3,0.4c-0.6-0.1-1.1-0.3-1.5-0.5c-0.4,0.2-0.8,0.4-1.3,0.5c-0.1-0.1-0.2-0.3-0.3-0.4c0.4-0.1,0.8-0.2,1.2-0.4
		c-0.3-0.2-0.5-0.5-0.7-0.8l0.3-0.1h-0.5v-0.4h0c0-0.1-0.2-0.3-0.3-0.3c0.5-0.3,0.6-0.6,0.6-1v-0.5h1.8v1c0,0.1,0,0.1,0.1,0.1h0.3
		c0.1,0,0.1,0,0.1-0.5c0.1,0.1,0.3,0.1,0.4,0.2c0,0.6-0.2,0.8-0.5,0.8h-0.4c-0.4,0-0.5-0.1-0.5-0.5v-0.6h-0.9V96
		c0,0.4-0.1,0.9-0.7,1.3h2.1l0.1,0L418,97.4z M416.1,97.7c0.1,0.3,0.4,0.5,0.6,0.7c0.3-0.2,0.5-0.4,0.7-0.7H416.1z M416.2,99.9v1.2
		h0.9v-1.2H416.2z"/>
</g>
<g>
	<path class="st7" d="M124.1,14.3c0.7,0,1.3,0.2,1.7,0.5c0.4,0.3,0.6,0.8,0.6,1.5v3.6h-1l-0.3-0.7h0c-0.2,0.3-0.5,0.5-0.7,0.6
		c-0.3,0.1-0.6,0.2-1.1,0.2c-0.5,0-0.9-0.1-1.2-0.4c-0.3-0.3-0.5-0.7-0.5-1.3c0-0.6,0.2-1,0.6-1.3c0.4-0.3,1-0.4,1.8-0.5l1,0v-0.2
		c0-0.3-0.1-0.5-0.2-0.6c-0.1-0.1-0.4-0.2-0.6-0.2s-0.5,0-0.8,0.1c-0.3,0.1-0.5,0.2-0.8,0.3l-0.5-1c0.3-0.1,0.6-0.3,1-0.4
		C123.3,14.3,123.7,14.3,124.1,14.3z M124.9,17.3l-0.6,0c-0.5,0-0.8,0.1-1,0.3c-0.2,0.2-0.3,0.4-0.3,0.6c0,0.2,0.1,0.4,0.2,0.5
		c0.1,0.1,0.3,0.1,0.5,0.1c0.3,0,0.6-0.1,0.8-0.3c0.2-0.2,0.3-0.5,0.3-0.8V17.3z"/>
	<path class="st7" d="M134.5,14.3c0.6,0,1.1,0.2,1.4,0.5c0.3,0.3,0.5,0.8,0.5,1.5v3.6h-1.5v-3.2c0-0.8-0.3-1.2-0.8-1.2
		c-0.4,0-0.7,0.1-0.8,0.4c-0.2,0.3-0.2,0.7-0.2,1.2v2.7h-1.5v-3.2c0-0.8-0.3-1.2-0.8-1.2c-0.4,0-0.7,0.2-0.9,0.5
		c-0.2,0.3-0.2,0.8-0.2,1.3v2.6h-1.5v-5.5h1.1l0.2,0.7h0.1c0.2-0.3,0.4-0.5,0.7-0.6c0.3-0.1,0.6-0.2,0.9-0.2c0.4,0,0.7,0.1,1,0.2
		c0.3,0.1,0.5,0.3,0.6,0.6h0.1c0.2-0.3,0.4-0.5,0.7-0.6C133.9,14.4,134.2,14.3,134.5,14.3z"/>
	<path class="st7" d="M141.2,14.3c0.6,0,1.1,0.2,1.4,0.5c0.4,0.3,0.5,0.8,0.5,1.5v3.6h-1.5v-3.2c0-0.4-0.1-0.7-0.2-0.9
		c-0.1-0.2-0.4-0.3-0.7-0.3c-0.5,0-0.8,0.2-0.9,0.5c-0.2,0.3-0.2,0.8-0.2,1.3v2.6h-1.5v-5.5h1.1l0.2,0.7h0.1
		c0.2-0.3,0.4-0.5,0.7-0.6C140.6,14.4,140.9,14.3,141.2,14.3z"/>
	<path class="st7" d="M145.6,12.3c0.2,0,0.4,0.1,0.6,0.2c0.2,0.1,0.2,0.3,0.2,0.6c0,0.3-0.1,0.5-0.2,0.6c-0.2,0.1-0.4,0.2-0.6,0.2
		c-0.2,0-0.4-0.1-0.6-0.2c-0.2-0.1-0.2-0.3-0.2-0.6c0-0.3,0.1-0.5,0.2-0.6C145.2,12.3,145.4,12.3,145.6,12.3z M146.4,14.4v5.5h-1.5
		v-5.5H146.4z"/>
	<path class="st7" d="M154.6,14.3c0.6,0,1.1,0.2,1.4,0.5c0.3,0.3,0.5,0.8,0.5,1.5v3.6h-1.5v-3.2c0-0.8-0.3-1.2-0.8-1.2
		c-0.4,0-0.7,0.1-0.8,0.4c-0.2,0.3-0.2,0.7-0.2,1.2v2.7h-1.5v-3.2c0-0.8-0.3-1.2-0.8-1.2c-0.4,0-0.7,0.2-0.9,0.5
		c-0.2,0.3-0.2,0.8-0.2,1.3v2.6h-1.5v-5.5h1.1l0.2,0.7h0.1c0.2-0.3,0.4-0.5,0.7-0.6c0.3-0.1,0.6-0.2,0.9-0.2c0.4,0,0.7,0.1,1,0.2
		c0.3,0.1,0.5,0.3,0.6,0.6h0.1c0.2-0.3,0.4-0.5,0.7-0.6C153.9,14.4,154.2,14.3,154.6,14.3z"/>
	<path class="st7" d="M163.1,17.1c0,0.9-0.2,1.6-0.7,2.1c-0.5,0.5-1.1,0.7-1.9,0.7c-0.5,0-1-0.1-1.4-0.3c-0.4-0.2-0.7-0.5-0.9-1
		c-0.2-0.4-0.3-0.9-0.3-1.5c0-0.9,0.2-1.6,0.7-2.1c0.5-0.5,1.1-0.7,1.9-0.7c0.5,0,1,0.1,1.4,0.3c0.4,0.2,0.7,0.5,0.9,1
		C163,16,163.1,16.5,163.1,17.1z M159.4,17.1c0,0.5,0.1,0.9,0.3,1.2c0.2,0.3,0.5,0.4,0.9,0.4c0.4,0,0.7-0.1,0.9-0.4
		c0.2-0.3,0.3-0.7,0.3-1.2c0-0.5-0.1-0.9-0.3-1.2c-0.2-0.3-0.5-0.4-0.9-0.4c-0.4,0-0.7,0.1-0.9,0.4
		C159.4,16.2,159.4,16.6,159.4,17.1z"/>
	<path class="st7" d="M171.5,19.9l-1.7-5.6h0c0,0.1,0,0.3,0,0.6c0,0.3,0,0.6,0,0.9c0,0.3,0,0.6,0,0.8v3.3h-1.4v-7.1h2.1l1.7,5.5h0
		l1.8-5.5h2.1v7.1h-1.4v-3.4c0-0.2,0-0.5,0-0.8c0-0.3,0-0.6,0-0.8c0-0.3,0-0.5,0-0.6h0l-1.8,5.6H171.5z"/>
	<path class="st7" d="M180.2,14.3c0.8,0,1.4,0.2,1.8,0.6c0.4,0.4,0.7,1,0.7,1.8v0.7h-3.5c0,0.4,0.1,0.8,0.4,1c0.2,0.2,0.6,0.4,1,0.4
		c0.3,0,0.7,0,1-0.1c0.3-0.1,0.6-0.2,0.9-0.3v1.2c-0.3,0.1-0.6,0.2-0.9,0.3c-0.3,0.1-0.6,0.1-1.1,0.1c-0.5,0-1-0.1-1.5-0.3
		c-0.4-0.2-0.8-0.5-1-0.9c-0.2-0.4-0.4-0.9-0.4-1.6c0-0.6,0.1-1.2,0.3-1.6c0.2-0.4,0.5-0.7,0.9-1C179.3,14.4,179.7,14.3,180.2,14.3z
		 M180.2,15.4c-0.3,0-0.5,0.1-0.7,0.3c-0.2,0.2-0.3,0.5-0.3,0.9h2.1c0-0.3-0.1-0.6-0.3-0.8C180.9,15.5,180.6,15.4,180.2,15.4z"/>
	<path class="st7" d="M186.3,14.3c0.7,0,1.3,0.2,1.7,0.5c0.4,0.3,0.6,0.8,0.6,1.5v3.6h-1l-0.3-0.7h0c-0.2,0.3-0.5,0.5-0.7,0.6
		c-0.3,0.1-0.6,0.2-1.1,0.2c-0.5,0-0.9-0.1-1.2-0.4c-0.3-0.3-0.5-0.7-0.5-1.3c0-0.6,0.2-1,0.6-1.3c0.4-0.3,1-0.4,1.8-0.5l1,0v-0.2
		c0-0.3-0.1-0.5-0.2-0.6c-0.1-0.1-0.4-0.2-0.6-0.2s-0.5,0-0.8,0.1c-0.3,0.1-0.5,0.2-0.8,0.3l-0.5-1c0.3-0.1,0.6-0.3,1-0.4
		C185.6,14.3,185.9,14.3,186.3,14.3z M187.1,17.3l-0.6,0c-0.5,0-0.8,0.1-1,0.3c-0.2,0.2-0.3,0.4-0.3,0.6c0,0.2,0.1,0.4,0.2,0.5
		c0.1,0.1,0.3,0.1,0.5,0.1c0.3,0,0.6-0.1,0.8-0.3c0.2-0.2,0.3-0.5,0.3-0.8V17.3z"/>
	<path class="st7" d="M194.1,18.2c0,0.6-0.2,1-0.6,1.3c-0.4,0.3-1,0.4-1.7,0.4c-0.4,0-0.7,0-1-0.1c-0.3-0.1-0.5-0.1-0.8-0.2v-1.2
		c0.3,0.1,0.6,0.2,1,0.3c0.3,0.1,0.6,0.1,0.9,0.1c0.3,0,0.5,0,0.6-0.1c0.1-0.1,0.2-0.2,0.2-0.3c0-0.1,0-0.2-0.1-0.2
		c0-0.1-0.2-0.2-0.3-0.2c-0.2-0.1-0.4-0.2-0.8-0.4c-0.3-0.1-0.6-0.3-0.8-0.4c-0.2-0.1-0.4-0.3-0.5-0.5c-0.1-0.2-0.2-0.5-0.2-0.8
		c0-0.5,0.2-0.9,0.6-1.1c0.4-0.3,0.9-0.4,1.6-0.4c0.3,0,0.7,0,1,0.1c0.3,0.1,0.6,0.2,0.9,0.3l-0.4,1.1c-0.3-0.1-0.5-0.2-0.8-0.3
		c-0.2-0.1-0.5-0.1-0.7-0.1c-0.4,0-0.7,0.1-0.7,0.4c0,0.1,0,0.2,0.1,0.2c0.1,0.1,0.2,0.1,0.3,0.2c0.2,0.1,0.4,0.2,0.7,0.3
		c0.3,0.1,0.6,0.3,0.8,0.4c0.2,0.1,0.4,0.3,0.5,0.5C194.1,17.6,194.1,17.9,194.1,18.2z"/>
	<path class="st7" d="M200.5,14.4v5.5h-1.1l-0.2-0.7h-0.1c-0.2,0.3-0.4,0.5-0.7,0.6c-0.3,0.1-0.6,0.2-1,0.2c-0.6,0-1.1-0.2-1.4-0.5
		c-0.4-0.3-0.5-0.8-0.5-1.5v-3.6h1.5v3.2c0,0.4,0.1,0.7,0.2,0.9c0.1,0.2,0.4,0.3,0.7,0.3c0.5,0,0.8-0.2,0.9-0.5
		c0.2-0.3,0.2-0.8,0.2-1.3v-2.6H200.5z"/>
	<path class="st7" d="M205.3,14.3c0.1,0,0.2,0,0.3,0c0.1,0,0.2,0,0.2,0l-0.1,1.4c-0.1,0-0.1,0-0.2,0c-0.1,0-0.2,0-0.2,0
		c-0.3,0-0.5,0-0.7,0.1c-0.2,0.1-0.4,0.2-0.6,0.4c-0.1,0.2-0.2,0.5-0.2,0.8v2.8h-1.5v-5.5h1.1l0.2,0.9h0.1c0.2-0.3,0.4-0.5,0.7-0.7
		C204.6,14.4,205,14.3,205.3,14.3z"/>
	<path class="st7" d="M209.3,14.3c0.8,0,1.4,0.2,1.8,0.6s0.7,1,0.7,1.8v0.7h-3.5c0,0.4,0.1,0.8,0.4,1c0.2,0.2,0.6,0.4,1,0.4
		c0.3,0,0.7,0,1-0.1c0.3-0.1,0.6-0.2,0.9-0.3v1.2c-0.3,0.1-0.6,0.2-0.9,0.3c-0.3,0.1-0.6,0.1-1.1,0.1c-0.5,0-1-0.1-1.5-0.3
		c-0.4-0.2-0.8-0.5-1-0.9c-0.2-0.4-0.4-0.9-0.4-1.6c0-0.6,0.1-1.2,0.3-1.6c0.2-0.4,0.5-0.7,0.9-1C208.3,14.4,208.8,14.3,209.3,14.3z
		 M209.3,15.4c-0.3,0-0.5,0.1-0.7,0.3c-0.2,0.2-0.3,0.5-0.3,0.9h2.1c0-0.3-0.1-0.6-0.3-0.8C209.9,15.5,209.6,15.4,209.3,15.4z"/>
	<path class="st7" d="M219.5,14.3c0.6,0,1.1,0.2,1.4,0.5c0.3,0.3,0.5,0.8,0.5,1.5v3.6h-1.5v-3.2c0-0.8-0.3-1.2-0.8-1.2
		c-0.4,0-0.7,0.1-0.8,0.4c-0.2,0.3-0.2,0.7-0.2,1.2v2.7h-1.5v-3.2c0-0.8-0.3-1.2-0.8-1.2c-0.4,0-0.7,0.2-0.9,0.5
		c-0.2,0.3-0.2,0.8-0.2,1.3v2.6h-1.5v-5.5h1.1l0.2,0.7h0.1c0.2-0.3,0.4-0.5,0.7-0.6c0.3-0.1,0.6-0.2,0.9-0.2c0.4,0,0.7,0.1,1,0.2
		c0.3,0.1,0.5,0.3,0.6,0.6h0.1c0.2-0.3,0.4-0.5,0.7-0.6C218.9,14.4,219.2,14.3,219.5,14.3z"/>
	<path class="st7" d="M225.4,14.3c0.8,0,1.4,0.2,1.8,0.6s0.7,1,0.7,1.8v0.7h-3.5c0,0.4,0.1,0.8,0.4,1c0.2,0.2,0.6,0.4,1,0.4
		c0.3,0,0.7,0,1-0.1c0.3-0.1,0.6-0.2,0.9-0.3v1.2c-0.3,0.1-0.6,0.2-0.9,0.3S226,20,225.6,20c-0.5,0-1-0.1-1.5-0.3
		c-0.4-0.2-0.8-0.5-1-0.9c-0.2-0.4-0.4-0.9-0.4-1.6c0-0.6,0.1-1.2,0.3-1.6c0.2-0.4,0.5-0.7,0.9-1C224.4,14.4,224.9,14.3,225.4,14.3z
		 M225.4,15.4c-0.3,0-0.5,0.1-0.7,0.3c-0.2,0.2-0.3,0.5-0.3,0.9h2.1c0-0.3-0.1-0.6-0.3-0.8S225.8,15.4,225.4,15.4z"/>
	<path class="st7" d="M232.4,14.3c0.6,0,1.1,0.2,1.4,0.5c0.4,0.3,0.5,0.8,0.5,1.5v3.6h-1.5v-3.2c0-0.4-0.1-0.7-0.2-0.9
		c-0.1-0.2-0.4-0.3-0.7-0.3c-0.5,0-0.8,0.2-0.9,0.5c-0.2,0.3-0.2,0.8-0.2,1.3v2.6h-1.5v-5.5h1.1l0.2,0.7h0.1
		c0.2-0.3,0.4-0.5,0.7-0.6C231.7,14.4,232,14.3,232.4,14.3z"/>
	<path class="st7" d="M238.3,18.8c0.2,0,0.3,0,0.5,0c0.2,0,0.3-0.1,0.5-0.1v1.1c-0.2,0.1-0.4,0.1-0.6,0.2c-0.2,0-0.5,0.1-0.8,0.1
		c-0.3,0-0.6-0.1-0.9-0.2c-0.3-0.1-0.5-0.3-0.6-0.6c-0.2-0.3-0.2-0.6-0.2-1.1v-2.6h-0.7v-0.6l0.8-0.5l0.4-1.2h1v1.2h1.5v1.1h-1.5
		v2.6c0,0.2,0.1,0.4,0.2,0.5C238,18.7,238.1,18.8,238.3,18.8z"/>
	<path class="st7" d="M246.6,14.3c0.7,0,1.3,0.2,1.7,0.5c0.4,0.3,0.6,0.8,0.6,1.5v3.6h-1l-0.3-0.7h0c-0.2,0.3-0.5,0.5-0.7,0.6
		c-0.3,0.1-0.6,0.2-1.1,0.2c-0.5,0-0.9-0.1-1.2-0.4c-0.3-0.3-0.5-0.7-0.5-1.3c0-0.6,0.2-1,0.6-1.3c0.4-0.3,1-0.4,1.8-0.5l1,0v-0.2
		c0-0.3-0.1-0.5-0.2-0.6c-0.2-0.1-0.4-0.2-0.6-0.2s-0.5,0-0.8,0.1c-0.3,0.1-0.5,0.2-0.8,0.3l-0.5-1c0.3-0.1,0.6-0.3,1-0.4
		C245.8,14.3,246.2,14.3,246.6,14.3z M247.4,17.3l-0.6,0c-0.5,0-0.8,0.1-1,0.3c-0.2,0.2-0.3,0.4-0.3,0.6c0,0.2,0.1,0.4,0.2,0.5
		c0.1,0.1,0.3,0.1,0.5,0.1c0.3,0,0.6-0.1,0.8-0.3c0.2-0.2,0.3-0.5,0.3-0.8V17.3z"/>
	<path class="st7" d="M254.4,18.2c0,0.6-0.2,1-0.6,1.3c-0.4,0.3-1,0.4-1.7,0.4c-0.4,0-0.7,0-1-0.1c-0.3-0.1-0.5-0.1-0.8-0.2v-1.2
		c0.3,0.1,0.6,0.2,1,0.3c0.3,0.1,0.6,0.1,0.9,0.1c0.3,0,0.5,0,0.6-0.1c0.1-0.1,0.2-0.2,0.2-0.3c0-0.1,0-0.2-0.1-0.2
		c0-0.1-0.2-0.2-0.3-0.2c-0.2-0.1-0.4-0.2-0.8-0.4c-0.3-0.1-0.6-0.3-0.8-0.4c-0.2-0.1-0.4-0.3-0.5-0.5c-0.1-0.2-0.2-0.5-0.2-0.8
		c0-0.5,0.2-0.9,0.6-1.1c0.4-0.3,0.9-0.4,1.6-0.4c0.3,0,0.7,0,1,0.1c0.3,0.1,0.6,0.2,0.9,0.3l-0.4,1.1c-0.3-0.1-0.5-0.2-0.8-0.3
		c-0.2-0.1-0.5-0.1-0.7-0.1c-0.4,0-0.7,0.1-0.7,0.4c0,0.1,0,0.2,0.1,0.2c0.1,0.1,0.2,0.1,0.3,0.2c0.2,0.1,0.4,0.2,0.7,0.3
		c0.3,0.1,0.6,0.3,0.8,0.4c0.2,0.1,0.4,0.3,0.5,0.5C254.4,17.6,254.4,17.9,254.4,18.2z"/>
	<path class="st7" d="M261.8,14.3c0.7,0,1.3,0.2,1.7,0.5c0.4,0.3,0.6,0.8,0.6,1.5v3.6h-1l-0.3-0.7h0c-0.2,0.3-0.5,0.5-0.7,0.6
		c-0.3,0.1-0.6,0.2-1.1,0.2c-0.5,0-0.9-0.1-1.2-0.4c-0.3-0.3-0.5-0.7-0.5-1.3c0-0.6,0.2-1,0.6-1.3c0.4-0.3,1-0.4,1.8-0.5l1,0v-0.2
		c0-0.3-0.1-0.5-0.2-0.6c-0.2-0.1-0.4-0.2-0.6-0.2s-0.5,0-0.8,0.1c-0.3,0.1-0.5,0.2-0.8,0.3l-0.5-1c0.3-0.1,0.6-0.3,1-0.4
		C261.1,14.3,261.4,14.3,261.8,14.3z M262.6,17.3l-0.6,0c-0.5,0-0.8,0.1-1,0.3c-0.2,0.2-0.3,0.4-0.3,0.6c0,0.2,0.1,0.4,0.2,0.5
		c0.1,0.1,0.3,0.1,0.5,0.1c0.3,0,0.6-0.1,0.8-0.3c0.2-0.2,0.3-0.5,0.3-0.8V17.3z"/>
	<path class="st7" d="M273.9,17.9c0,0.6-0.2,1.1-0.7,1.5c-0.5,0.4-1.1,0.6-1.9,0.6c-0.8,0-1.4-0.1-2-0.4v-1.4
		c0.3,0.1,0.7,0.3,1.1,0.4c0.4,0.1,0.7,0.2,1.1,0.2c0.4,0,0.6-0.1,0.8-0.2c0.2-0.1,0.2-0.3,0.2-0.5c0-0.2-0.1-0.3-0.2-0.5
		c-0.1-0.1-0.3-0.2-0.5-0.4c-0.2-0.1-0.4-0.2-0.7-0.4c-0.2-0.1-0.3-0.2-0.5-0.3c-0.2-0.1-0.4-0.2-0.6-0.4c-0.2-0.2-0.3-0.4-0.4-0.6
		c-0.1-0.2-0.2-0.5-0.2-0.8c0-0.6,0.2-1.1,0.6-1.5c0.4-0.4,1-0.5,1.8-0.5c0.4,0,0.7,0,1.1,0.1c0.3,0.1,0.7,0.2,1.1,0.4l-0.5,1.2
		c-0.3-0.1-0.6-0.2-0.9-0.3c-0.3-0.1-0.5-0.1-0.8-0.1c-0.3,0-0.5,0.1-0.7,0.2c-0.2,0.1-0.2,0.3-0.2,0.5c0,0.3,0.1,0.5,0.3,0.6
		c0.2,0.1,0.6,0.3,1,0.5c0.4,0.2,0.7,0.4,0.9,0.5c0.3,0.2,0.5,0.4,0.6,0.7C273.9,17.2,273.9,17.5,273.9,17.9z"/>
	<path class="st7" d="M277.6,14.3c0.8,0,1.4,0.2,1.8,0.6c0.4,0.4,0.7,1,0.7,1.8v0.7h-3.5c0,0.4,0.1,0.8,0.4,1c0.2,0.2,0.6,0.4,1,0.4
		c0.3,0,0.7,0,1-0.1c0.3-0.1,0.6-0.2,0.9-0.3v1.2c-0.3,0.1-0.6,0.2-0.9,0.3c-0.3,0.1-0.6,0.1-1.1,0.1c-0.5,0-1-0.1-1.5-0.3
		c-0.4-0.2-0.8-0.5-1-0.9c-0.2-0.4-0.4-0.9-0.4-1.6c0-0.6,0.1-1.2,0.3-1.6c0.2-0.4,0.5-0.7,0.9-1C276.6,14.4,277.1,14.3,277.6,14.3z
		 M277.6,15.4c-0.3,0-0.5,0.1-0.7,0.3c-0.2,0.2-0.3,0.5-0.3,0.9h2.1c0-0.3-0.1-0.6-0.3-0.8C278.2,15.5,277.9,15.4,277.6,15.4z"/>
	<path class="st7" d="M284.5,14.3c0.1,0,0.2,0,0.3,0c0.1,0,0.2,0,0.2,0l-0.1,1.4c-0.1,0-0.1,0-0.2,0c-0.1,0-0.2,0-0.2,0
		c-0.3,0-0.5,0-0.7,0.1c-0.2,0.1-0.4,0.2-0.6,0.4c-0.1,0.2-0.2,0.5-0.2,0.8v2.8h-1.5v-5.5h1.1l0.2,0.9h0.1c0.2-0.3,0.4-0.5,0.7-0.7
		C283.8,14.4,284.1,14.3,284.5,14.3z"/>
	<path class="st7" d="M287.5,19.9l-2.1-5.5h1.6l1,3.1c0.1,0.2,0.1,0.4,0.1,0.6c0,0.2,0.1,0.4,0.1,0.5h0c0-0.4,0.1-0.7,0.2-1.1l1-3.1
		h1.6l-2.1,5.5H287.5z"/>
	<path class="st7" d="M292.8,12.3c0.2,0,0.4,0.1,0.6,0.2c0.2,0.1,0.2,0.3,0.2,0.6c0,0.3-0.1,0.5-0.2,0.6c-0.2,0.1-0.4,0.2-0.6,0.2
		c-0.2,0-0.4-0.1-0.6-0.2c-0.2-0.1-0.2-0.3-0.2-0.6c0-0.3,0.1-0.5,0.2-0.6C292.4,12.3,292.6,12.3,292.8,12.3z M293.6,14.4v5.5h-1.5
		v-5.5H293.6z"/>
	<path class="st7" d="M297.5,20c-0.8,0-1.4-0.2-1.9-0.7c-0.4-0.4-0.7-1.2-0.7-2.1c0-0.7,0.1-1.2,0.3-1.6c0.2-0.4,0.5-0.7,0.9-0.9
		c0.4-0.2,0.9-0.3,1.4-0.3c0.4,0,0.7,0,1,0.1c0.3,0.1,0.5,0.2,0.7,0.3l-0.4,1.2c-0.2-0.1-0.5-0.2-0.7-0.2c-0.2-0.1-0.4-0.1-0.6-0.1
		c-0.8,0-1.2,0.6-1.2,1.7c0,0.5,0.1,1,0.3,1.2c0.2,0.3,0.5,0.4,0.9,0.4c0.3,0,0.6,0,0.8-0.1c0.2-0.1,0.5-0.2,0.7-0.3v1.3
		c-0.2,0.1-0.5,0.3-0.7,0.3S297.9,20,297.5,20z"/>
	<path class="st7" d="M302.9,14.3c0.8,0,1.3,0.2,1.8,0.6c0.4,0.4,0.7,1,0.7,1.8v0.7h-3.5c0,0.4,0.1,0.8,0.4,1c0.2,0.2,0.6,0.4,1,0.4
		c0.3,0,0.7,0,1-0.1c0.3-0.1,0.6-0.2,0.9-0.3v1.2c-0.3,0.1-0.6,0.2-0.8,0.3c-0.3,0.1-0.7,0.1-1.1,0.1c-0.5,0-1-0.1-1.5-0.3
		c-0.4-0.2-0.8-0.5-1-0.9c-0.2-0.4-0.4-0.9-0.4-1.6c0-0.6,0.1-1.2,0.3-1.6c0.2-0.4,0.5-0.7,0.9-1C301.9,14.4,302.4,14.3,302.9,14.3z
		 M302.9,15.4c-0.3,0-0.5,0.1-0.7,0.3c-0.2,0.2-0.3,0.5-0.3,0.9h2.1c0-0.3-0.1-0.6-0.3-0.8C303.5,15.5,303.3,15.4,302.9,15.4z"/>
</g>
<g>
	<g>
		<path class="st7" d="M216.8,40.2c1.6-1.4,2.4-2.4,2.4-3.3c0-0.6-0.3-1-0.9-1c-0.4,0-0.8,0.3-1.1,0.6l-0.4-0.4
			c0.4-0.5,0.9-0.8,1.5-0.8c0.9,0,1.5,0.6,1.5,1.5c0,1-0.8,2.1-2,3.2c0.3,0,0.6,0,0.8,0h1.4v0.6h-3.2V40.2z"/>
		<path class="st7" d="M224.2,39.2h-0.7v1.4h-0.6v-1.4h-2.2v-0.4l2.1-3.3h0.7v3.2h0.7V39.2z M222.9,38.7v-1.6c0-0.3,0-0.7,0-0.9h0
			c-0.1,0.3-0.3,0.5-0.4,0.8l-1.2,1.8H222.9z"/>
		<path class="st7" d="M227.4,39.8h-1.5v0.6h-0.5v-5.1h2V39.8z M225.9,35.7v1.6h1v-1.6H225.9z M226.9,39.3v-1.6h-1v1.6H226.9z
			 M230.7,37.4v0.8h0.8v0.5h-0.8v1.9c0,0.3-0.1,0.4-0.3,0.5c-0.2,0.1-0.6,0.1-1.1,0.1c0-0.1-0.1-0.4-0.2-0.5c0.4,0,0.8,0,0.9,0
			c0.1,0,0.2,0,0.2-0.1v-1.9h-2.6v-0.5h2.6v-0.8h-2.7v-0.5h1.8V36h-1.5v-0.5h1.5v-0.8h0.5v0.8h1.5V36h-1.5v0.9h1.8v0.5H230.7z
			 M228.4,38.9c0.4,0.3,0.7,0.8,0.9,1.2l-0.4,0.3c-0.2-0.3-0.5-0.9-0.9-1.2L228.4,38.9z"/>
		<path class="st7" d="M233.3,37.4v3.7h-0.5v-6.1h2.5v2.4H233.3z M233.3,35.5V36h1.5v-0.6H233.3z M234.8,37v-0.6h-1.5V37H234.8z
			 M234.8,40.5v0.4h-0.5V38h2.6v2.5H234.8z M234.8,38.4V39h1.6v-0.7H234.8z M236.5,40.1v-0.7h-1.6v0.7H236.5z M238.6,40.5
			c0,0.3-0.1,0.5-0.3,0.6c-0.2,0.1-0.6,0.1-1.2,0.1c0-0.1-0.1-0.4-0.2-0.5c0.4,0,0.9,0,1,0c0.1,0,0.2,0,0.2-0.2v-3H236v-2.4h2.6
			V40.5z M236.5,35.5V36h1.6v-0.6H236.5z M238,37.1v-0.6h-1.6v0.6H238z"/>
		<path class="st7" d="M246.2,40.5V41h-6.3v-0.5h0.8v-1.7h4.8v1.7H246.2z M243.1,38.3h-3V35h2.9v0.4h-1.2V36h1v1.4h-1v0.6h1.2V38.3z
			 M240.6,35.4V36h0.8v-0.5H240.6z M242.4,36.3h-1.9v0.6h1.9V36.3z M240.6,37.9h0.8v-0.6h-0.8V37.9z M241.1,40.5h0.9v-1.3h-0.9V40.5
			z M242.5,39.2v1.3h1v-1.3H242.5z M243.9,36.3c-0.2,0.4-0.4,0.7-0.6,0.9c-0.1-0.1-0.3-0.2-0.4-0.3c0.4-0.5,0.8-1.3,1-2.1l0.5,0.1
			c-0.1,0.3-0.2,0.6-0.3,0.9h2v0.5H243.9z M243.6,38v-0.4h2.4V38H243.6z M244,39.2v1.3h1v-1.3H244z"/>
		<path class="st7" d="M249.7,39.1c-0.2-0.2-0.5-0.6-0.8-0.9v3h-0.5v-2.7c-0.3,0.3-0.7,0.6-1,0.9c0-0.1-0.2-0.4-0.3-0.5
			c0.8-0.5,1.6-1.4,2.1-2.3h-1.8v-0.5h1v-1.3h0.5v1.3h0.6l0.1,0l0.3,0.2c-0.2,0.5-0.5,1-0.8,1.5c0.3,0.3,0.9,0.8,1,1L249.7,39.1z
			 M253,40.7c0.2,0,0.2-0.1,0.2-0.8c0.1,0.1,0.3,0.2,0.4,0.2c0,0.9-0.2,1.1-0.6,1.1h-0.7c-0.5,0-0.6-0.1-0.6-0.6V39h-0.6
			c-0.1,1-0.5,1.7-1.6,2.1c-0.1-0.1-0.2-0.3-0.3-0.4c1-0.3,1.3-0.9,1.4-1.7h-0.6v-3.9h2.9V39h-0.8v1.4c0,0.2,0,0.2,0.2,0.2H253z
			 M250.7,36.3h1.9v-0.7h-1.9V36.3z M250.7,37.4h1.9v-0.7h-1.9V37.4z M250.7,38.6h1.9v-0.7h-1.9V38.6z"/>
	</g>
</g>
<g>
	<path class="st7" d="M248.1,55.6c0.1-0.7-0.1-1.6-0.2-2.1c-0.1,0.1-0.9,1.2-1.6,2.2l1.4,1.5c0.3,0.4,0.6,0.4,1.2-0.2
		c0.6-0.5,1.1-1,1.5-1.6l0.4,0.5c-0.4,0.5-0.9,1-1.5,1.6c-1,0.9-1.4,0.8-1.8,0.3l-1.4-1.6c-0.4,0.6-0.8,1.1-1,1.3l-0.5-0.4
		c0.2-0.2,0.6-0.8,1.1-1.4l-0.8-0.9c-0.1-0.2-0.3-0.3-0.5-0.4l0.5-0.4c0.1,0.2,0.3,0.4,0.4,0.5l0.7,0.8c0.7-1,1.5-2,1.6-2.2
		c0.1-0.1,0.2-0.2,0.2-0.3l0.5,0c0,0.1,0,0.2,0.1,0.3c0.2,0.6,0.3,1.7,0.3,2.5L248.1,55.6z"/>
	<path class="st7" d="M255.9,51.1c-0.1,0.1-0.3,0.2-0.5,0.3c-0.3,0.2-0.9,0.6-1.4,1c0.4,0.6,0.8,1,0.9,1.2c0.1,0.2,0.3,0.4,0.4,0.5
		l-0.5,0.4c-0.1-0.2-0.2-0.4-0.4-0.6c-0.1-0.1-0.4-0.6-0.8-1.2c-0.7,0.5-1.3,0.9-1.6,1.1c-0.2,0.2-0.4,0.3-0.5,0.4l-0.4-0.5
		c0.1-0.1,0.4-0.2,0.5-0.3c0.3-0.2,0.9-0.6,1.6-1.1l-0.8-1.2c-0.6,0.4-1.1,0.7-1.3,0.9c-0.2,0.1-0.3,0.2-0.5,0.3l-0.4-0.5
		c0.2-0.1,0.3-0.2,0.5-0.3c0.2-0.1,0.8-0.5,1.3-0.9c-0.2-0.3-0.4-0.5-0.4-0.6c-0.1-0.2-0.2-0.3-0.3-0.4l0.5-0.4
		c0.1,0.1,0.2,0.3,0.3,0.4c0,0.1,0.2,0.3,0.5,0.6c0.6-0.4,1.1-0.8,1.4-0.9c0.2-0.1,0.3-0.2,0.4-0.3l0.4,0.5
		c-0.1,0.1-0.3,0.2-0.4,0.3c-0.3,0.2-0.8,0.5-1.4,0.9l0.8,1.2c0.6-0.4,1.2-0.8,1.4-1c0.2-0.2,0.4-0.3,0.5-0.4L255.9,51.1z"/>
	<path class="st7" d="M261.7,51.9c0.2,0,0.4-0.1,0.5-0.1l0.1,0.6c-0.1,0-0.4,0-0.5,0.1L258,53c-0.2,0-0.4,0.1-0.6,0.1l-0.1-0.6
		c0.2,0,0.4,0,0.6-0.1l2.5-0.4c0-0.6,0-2,0-2.4l-2.2,0.4c-0.2,0-0.4,0.1-0.6,0.1l-0.1-0.6c0.2,0,0.4,0,0.6,0l2.1-0.3
		c0.1,0,0.3-0.1,0.3-0.1l0.5,0.1c0,0.1,0,0.2,0,0.2c0,0.5,0,1.9,0,2.5L261.7,51.9z"/>
	<path class="st7" d="M264.5,47.4c0,0.1-0.1,0.3-0.1,0.5l-0.2,2.3c0,0.2,0,0.4,0,0.5l-0.6-0.1c0-0.1,0.1-0.3,0.1-0.5l0.2-2.3
		c0-0.1,0-0.4,0-0.5L264.5,47.4z M267.7,47.7c0,0.2-0.1,0.4-0.1,0.6l-0.1,1.1c-0.2,1.7-0.4,2.2-1,2.8c-0.5,0.5-1.2,0.7-1.8,0.9
		l-0.4-0.5c0.7-0.1,1.3-0.3,1.8-0.8c0.6-0.5,0.7-1.1,0.8-2.4l0.1-1.1c0-0.2,0-0.4,0-0.6L267.7,47.7z"/>
	<path class="st7" d="M274.4,52.2c0.1,0.1,0.4,0.1,0.5,0.2l-0.2,0.5c-0.1-0.1-0.3-0.2-0.5-0.2l-1.8-0.7c-0.3,0.7-0.6,1.2-1.1,1.6
		c-0.4,0.3-1.1,0.6-1.8,0.7l-0.3-0.5c0.6,0,1.2-0.2,1.6-0.5c0.5-0.3,0.8-0.9,1-1.5l-1.9-0.8c-0.2-0.1-0.4-0.2-0.6-0.2l0.2-0.5
		c0.2,0.1,0.4,0.2,0.6,0.3L274.4,52.2z M271.4,49.6c-0.2-0.1-0.4-0.2-0.6-0.2l0.2-0.5c0.2,0.1,0.4,0.2,0.6,0.3l2.6,1.1
		c0.2,0.1,0.4,0.2,0.6,0.2l-0.2,0.5c-0.2-0.1-0.4-0.2-0.6-0.3L271.4,49.6z"/>
	<path class="st7" d="M279.9,55.8c-0.5,0.1-1.3,0.1-2,0l-1.5,2c-0.1,0.2-0.3,0.4-0.3,0.5l-0.5-0.4c0.1-0.1,0.3-0.3,0.4-0.5l1.3-1.7
		c-0.7-0.1-1.6-0.3-2.3-0.6l0.1-0.6c0.8,0.4,1.8,0.6,2.5,0.7c0.8,0.1,1.8,0.1,2.3,0L279.9,55.8z"/>
</g>
<g>
	<path class="st4" d="M49.7,173.8c1.4,0.6,3.1,1.5,3.9,2.2l-1,1.5c-0.8-0.7-2.5-1.8-3.9-2.4L49.7,173.8z M52.5,180.3l1.4,0.9
		c-0.9,2.5-2.1,5.4-3.1,7.6l-1.6-1C50.1,186,51.5,182.9,52.5,180.3z M50.7,167.5c1.3,0.6,3,1.6,3.8,2.4l-1.1,1.4
		c-0.8-0.8-2.4-1.9-3.8-2.6L50.7,167.5z M57.8,184.2c-0.8,1.8-2.2,3.8-3.5,5c-0.3-0.3-1-0.7-1.4-1c1.3-1.1,2.5-2.8,3.2-4.4
		L57.8,184.2z M62.1,168.3v15h-6.9v-15H62.1z M56.7,172.8h3.8v-2.9h-3.8V172.8z M56.7,177.2h3.8v-3h-3.8V177.2z M56.7,181.7h3.8v-3
		h-3.8V181.7z M60.8,183.7c1,1.1,2.2,2.7,2.7,3.7l-1.4,0.9c-0.5-1-1.7-2.6-2.7-3.8L60.8,183.7z M65.5,169.7v13.6h-1.6v-13.6H65.5z
		 M69.7,167.2v19.7c0,1.1-0.3,1.6-0.9,1.9c-0.7,0.3-1.8,0.3-3.8,0.3c-0.1-0.5-0.3-1.2-0.5-1.7c1.4,0,2.7,0,3,0
		c0.4,0,0.6-0.1,0.6-0.5v-19.7H69.7z"/>
	<path class="st4" d="M91,170.6c-0.4,0.3-1,0.6-1.3,0.9c-1.2,0.9-4.4,3.7-6.2,5.2c1.1-0.4,2.2-0.5,3.2-0.5c4,0,6.8,2.4,6.8,5.6
		c0,3.8-3.2,6.3-8.2,6.3c-3.2,0-5.2-1.4-5.2-3.4c0-1.6,1.5-3.1,3.7-3.1c3,0,4.6,2,4.9,4.2c1.9-0.7,3-2.1,3-4c0-2.3-2.4-4-5.4-4
		c-3.9,0-6.1,1.7-9.1,4.7l-1.4-1.4c2-1.6,5-4.2,6.4-5.3c1.3-1.1,4.3-3.6,5.4-4.7c-1.2,0-5.9,0.3-7.2,0.3c-0.6,0-1.1,0-1.6,0.1l0-2
		c0.5,0.1,1.2,0.1,1.7,0.1c1.2,0,6.9-0.2,8.1-0.3c0.7-0.1,1-0.1,1.3-0.2L91,170.6z M86.9,186.3c-0.2-1.9-1.3-3.2-3.1-3.2
		c-1.1,0-1.9,0.6-1.9,1.5c0,1.2,1.4,1.8,3.1,1.8C85.7,186.5,86.3,186.4,86.9,186.3z"/>
</g>
<g>
	<path class="st4" d="M189.8,174.1c2-0.6,6.7-2.4,10.2-2.4c3.9,0,7.1,2.3,7.1,6.3c0,5.7-5.7,8.5-13,8.9l-0.8-2
		c6.2-0.2,11.7-2,11.7-6.9c0-2.5-1.8-4.4-5-4.4c-3.9,0-10,2.6-11.8,3.4l-0.9-2.1C188,174.6,188.9,174.3,189.8,174.1z"/>
	<path class="st4" d="M223.7,172.9c-1.2,0.4-2.7,0.7-4.3,0.9c-1.2,3.4-3.3,7.5-5.2,10.1l-1.9-1c2-2.3,4-6.1,5.1-8.9
		c-0.7,0-1.4,0.1-2.1,0.1c-0.9,0-1.9,0-2.8-0.1l-0.1-1.8c0.9,0.1,1.9,0.2,2.9,0.2c0.8,0,1.7,0,2.6-0.1c0.4-1.3,0.7-2.8,0.7-4.1
		l2.1,0.2c-0.2,0.9-0.6,2.3-0.9,3.7c1.2-0.2,2.5-0.5,3.7-0.9L223.7,172.9z M226.5,175.6c-0.1,1,0,1.7,0,2.6c0,0.9,0.1,2.4,0.2,3.9
		c2,0.7,3.7,1.9,4.9,3l-1,1.6c-1-0.9-2.3-2-3.8-2.7c0,0.4,0,0.7,0,1c0,1.9-1.2,3.5-4.2,3.5c-2.6,0-4.8-1.1-4.8-3.4
		c0-2.2,2.1-3.6,4.8-3.6c0.8,0,1.6,0.1,2.3,0.2c-0.1-1.9-0.2-4.3-0.2-5.9H226.5z M224.9,183.3c-0.7-0.2-1.6-0.3-2.4-0.3
		c-1.8,0-2.9,0.8-2.9,1.9c0,1.1,0.9,1.8,2.7,1.8c1.9,0,2.6-1.1,2.6-2.3C224.9,184.1,224.9,183.7,224.9,183.3z M231.2,176.3
		c-1.3-1.1-3.8-2.5-5.4-3.3l0.9-1.5c1.7,0.8,4.4,2.3,5.6,3.2L231.2,176.3z"/>
	<path class="st4" d="M241.3,169.6c-0.1,0.4-0.3,1.1-0.4,1.5c-0.8,3.4-1.5,8.4-0.7,12.3c0.3-1,0.8-2.4,1.2-3.6l1.1,0.6
		c-0.6,1.7-1.3,4.1-1.5,5.3c-0.1,0.3-0.1,0.8-0.1,1.1c0,0.2,0,0.6,0.1,0.8l-1.7,0.2c-0.5-1.5-1.2-4.6-1.2-7.5c0-3.9,0.6-7.3,0.9-9.3
		c0.1-0.5,0.1-1.2,0.1-1.6L241.3,169.6z M253,169.3c-0.1,0.5-0.1,0.9-0.1,1.4c0,0.5,0,2.1,0,3.5c1.5-0.1,3-0.3,4.2-0.6v2
		c-1.2,0.2-2.6,0.3-4.1,0.4v0.7c0,5.5,0,9.4-5,12.3l-1.8-1.4c0.7-0.3,1.7-0.9,2.3-1.5c2.5-2.2,2.7-4.9,2.7-9.5v-0.6
		c-0.9,0-1.8,0-2.7,0c-1.1,0-2.8-0.1-3.8-0.1v-1.9c1,0.1,2.5,0.3,3.8,0.3c0.9,0,1.8,0,2.7,0c0-1.5-0.1-3-0.1-3.6
		c0-0.5-0.1-1-0.2-1.4H253z M255.2,172.3c-0.4-1.1-0.9-2.4-1.3-3.4l1.2-0.4c0.5,0.9,1.1,2.4,1.4,3.3L255.2,172.3z M257.4,167.8
		c0.5,0.9,1.1,2.4,1.4,3.3l-1.2,0.4c-0.4-1.1-0.9-2.4-1.4-3.3L257.4,167.8z"/>
	<path class="st4" d="M277.8,170.6c-0.4,0.3-1,0.6-1.3,0.9c-1.2,0.9-4.4,3.7-6.2,5.2c1.1-0.4,2.2-0.5,3.2-0.5c4,0,6.8,2.4,6.8,5.6
		c0,3.8-3.2,6.3-8.2,6.3c-3.2,0-5.2-1.4-5.2-3.4c0-1.6,1.5-3.1,3.7-3.1c3,0,4.6,2,4.9,4.2c1.9-0.7,3-2.1,3-4c0-2.3-2.4-4-5.4-4
		c-3.9,0-6.1,1.7-9.1,4.7l-1.4-1.4c2-1.6,5-4.2,6.4-5.3c1.3-1.1,4.3-3.6,5.4-4.7c-1.2,0-5.9,0.3-7.2,0.3c-0.6,0-1.1,0-1.6,0.1l0-2
		c0.5,0.1,1.2,0.1,1.7,0.1c1.2,0,6.9-0.2,8.1-0.3c0.7-0.1,1-0.1,1.3-0.2L277.8,170.6z M273.7,186.3c-0.2-1.9-1.3-3.2-3.1-3.2
		c-1.1,0-1.9,0.6-1.9,1.5c0,1.2,1.4,1.8,3.1,1.8C272.5,186.5,273.1,186.4,273.7,186.3z"/>
</g>
<g>
	<path class="st4" d="M352.4,177.9c-1-0.7-3-1.8-4.4-2.6l1-1.3c1.4,0.7,3.4,1.8,4.4,2.4L352.4,177.9z M348.6,187.6
		c1.3-1.8,3.1-5,4.5-7.7l1.3,1.2c-1.2,2.5-2.9,5.5-4.3,7.7L348.6,187.6z M353.6,171.4c-1-0.7-3-1.8-4.4-2.6l1-1.3
		c1.5,0.7,3.5,1.8,4.5,2.5L353.6,171.4z M363.2,175.9v3.9h5v9.1h-1.7v-0.9H358v1h-1.6v-9.3h5.2v-3.9h-6.9v-1.7h6.9v-3.9
		c-1.8,0.3-3.6,0.5-5.3,0.6c-0.1-0.4-0.3-1.1-0.5-1.5c4.1-0.4,9-1.2,11.6-2.1l1.4,1.4c-1.6,0.5-3.5,1-5.6,1.3v4.2h6.6v1.7H363.2z
		 M366.5,181.5H358v4.9h8.5V181.5z"/>
	<path class="st4" d="M394.1,186.7c0,1.2-0.3,1.7-1.1,2c-0.8,0.3-2.2,0.3-4.5,0.3c-0.1-0.5-0.4-1.2-0.6-1.7c1.7,0.1,3.3,0,3.7,0
		c0.5,0,0.6-0.2,0.6-0.6v-4.9h-6.5v7.1h-1.8v-7.1h-6c-0.4,2.7-1.2,5.4-3,7.4c-0.3-0.4-1-1-1.4-1.2c2.6-3,2.9-7.2,2.9-10.5v-8.6h17.5
		V186.7z M384.1,180.1v-4h-5.7v1.4c0,0.8,0,1.7-0.1,2.6H384.1z M378.3,170.6v3.8h5.7v-3.8H378.3z M392.3,170.6h-6.5v3.8h6.5V170.6z
		 M392.3,180.1v-4h-6.5v4H392.3z"/>
	<path class="st4" d="M412.8,173.1c0,1.3,0,2.8,0,3.9c0.5,0.8,0.8,1.9,0.8,3c0,3.2-1.6,6.8-7.1,8.4l-1.7-1.6c3.1-0.7,5.3-2,6.3-4.1
		c-0.6,0.4-1.2,0.6-2,0.6c-2,0-3.9-1.4-3.9-4c0-2.4,1.9-4.2,4.2-4.2c0.6,0,1.1,0.1,1.6,0.3c0-0.7,0-1.5,0-2.4
		c-3.6,0-7.6,0.2-10.6,0.4l0-1.9c2.6,0,7.1-0.2,10.6-0.2c0-0.7,0-1.2,0-1.6c0-0.5-0.1-1.2-0.1-1.5h2.2l-0.1,1.5c0,0.4,0,0.9,0,1.5
		h0.4c2.9,0,5.8,0,7,0l0,1.8c-1.3-0.1-3.5-0.1-7-0.1H412.8z M411.6,178.3c-0.4-1-1.2-1.5-2.1-1.5c-1.2,0-2.4,1-2.4,2.5
		c0,1.5,1.1,2.4,2.4,2.4C410.9,181.7,411.8,180.5,411.6,178.3z"/>
	<path class="st4" d="M439.8,170.6c-0.4,0.3-1,0.6-1.3,0.9c-1.2,0.9-4.4,3.7-6.2,5.2c1.1-0.4,2.2-0.5,3.2-0.5c4,0,6.8,2.4,6.8,5.6
		c0,3.8-3.2,6.3-8.2,6.3c-3.2,0-5.2-1.4-5.2-3.4c0-1.6,1.5-3.1,3.7-3.1c3,0,4.6,2,4.9,4.2c1.9-0.7,3-2.1,3-4c0-2.3-2.4-4-5.4-4
		c-3.9,0-6.1,1.7-9.1,4.7l-1.4-1.4c2-1.6,5-4.2,6.4-5.3c1.3-1.1,4.3-3.6,5.4-4.7c-1.2,0-5.9,0.3-7.2,0.3c-0.6,0-1.1,0-1.6,0.1l0-2
		c0.5,0.1,1.2,0.1,1.7,0.1c1.2,0,6.9-0.2,8.1-0.3c0.7-0.1,1-0.1,1.3-0.2L439.8,170.6z M435.6,186.3c-0.2-1.9-1.3-3.2-3.1-3.2
		c-1.1,0-1.9,0.6-1.9,1.5c0,1.2,1.4,1.8,3.1,1.8C434.4,186.5,435.1,186.4,435.6,186.3z"/>
</g>
</svg>
