<svg id="レイヤー_1" data-name="レイヤー 1" xmlns="http://www.w3.org/2000/svg" viewBox="0 0 605.35 475.36"><defs><style>.cls-1,.cls-3{fill:#162789;}.cls-2,.cls-4{fill:none;}.cls-2,.cls-3,.cls-4{stroke:#162789;stroke-width:3px;}.cls-2,.cls-3{stroke-linecap:round;stroke-linejoin:round;}.cls-4{stroke-miterlimit:10;}</style></defs><title>アートボード 5</title><path class="cls-1" d="M365.52,224.52c0,3.53,0,7.06,0,8.18a6.79,6.79,0,0,1-2.42.85h-7.12a3.39,3.39,0,0,1-2.4-.62c-.75-.75-.75-2.5-.74-5.14v-2.12l-1.06.9c-6.88,5.83-14.15,8.78-21.62,8.78a32.87,32.87,0,0,1-11-2c-8.69-3.07-14.27-10.65-14.93-20.28a25.63,25.63,0,0,1,13.45-24.78c7.92-4.08,34.58-4.23,34.85-4.23h.64v-.64c0-.18-.22-18.5-16.09-21.88a16.81,16.81,0,0,0-3.58-.34A56.75,56.75,0,0,0,322,162.87a30.83,30.83,0,0,1-4.16.75c-1.83,0-3.22-1.87-3.87-3.48-1-2.46-1.94-4.78,1.8-6.55A55.87,55.87,0,0,1,334.08,150a21.33,21.33,0,0,1,2.77.16c10.85,1.35,18.43,5.59,23.85,13.36,3.06,4.38,4.82,11.63,4.82,19.87v17.49c0,10.39,0,19.56,0,23.66m-25.37-87.3a60.09,60.09,0,0,0-21.93-.83,44.39,44.39,0,0,1-25.41-4,36,36,0,0,0-36.15,3.31,33.12,33.12,0,0,1,7.72,2.1c10,4.46,15.76,10.47,18.66,19.47,1.62,5,1.18,12.35-1.22,20.16l-5,16.46c-3.07,10.05-5.8,18.94-7,22.88-.29.95-.58,1.88-.86,2.77,7.32,21,25.47,37.25,48.62,40.61,34.71,5,67-20.82,70-57.13,2.59-30.82-17.85-59.23-47.36-65.83m-69.68,38,.31-1c.06-.18,5.31-18.08-9.16-26.11-3.9-2.16-9.64-2.74-14.11-3.11a37.71,37.71,0,0,0-6.71,17.94,40.52,40.52,0,0,0-.13,5.81c11,.86,28.59,6.13,28.78,6.19Zm81.89,18.58-.61.05c-1.74.14-10.61.86-15.22,1.33l-.67.06c-5.6.57-11.38,1.16-15.32,5.6a14.83,14.83,0,0,0-2.93,14.33c2.2,6.22,8,9.93,15.46,9.93a20.44,20.44,0,0,0,14.22-5.57,14.55,14.55,0,0,0,2.46-3.26c3.64-6.51,3.47-15.48,2.68-21.86Zm-86.27-10.62c-2.41-.53-10.62-2.32-14.95-3.17l-.66-.14a48.82,48.82,0,0,0-8-1.1c-.21,0-.43,0-.65,0a14.86,14.86,0,0,0-8,2.08,15.27,15.27,0,0,0-7.2,13.23c.28,6.77,4.83,12.15,12.17,14.38a21.69,21.69,0,0,0,6.41,1,19.52,19.52,0,0,0,9.15-2.17,15.46,15.46,0,0,0,3.4-2.46,20.91,20.91,0,0,0,2.36-2.77c3.85-5.22,5.79-12.21,6.74-17.59l.18-1Z"/><rect class="cls-2" x="42.24" y="221.48" width="13.09" height="13.97" rx="1.42"/><rect class="cls-2" x="78.32" y="221.48" width="13.09" height="13.97" rx="1.42"/><rect class="cls-2" x="114.4" y="221.48" width="13.09" height="13.97" rx="1.42"/><path class="cls-2" d="M127.87,196.76a.82.82,0,0,1-1.28-.8v-19.4a1.42,1.42,0,0,0-1.41-1.42h-8.46a1.42,1.42,0,0,0-1.41,1.42v24.83a2.48,2.48,0,0,1-1.28,2l-9.84,4.73a.82.82,0,0,1-1.28-.8V192.83a.82.82,0,0,0-1.28-.8L68.1,208.15a.82.82,0,0,1-1.28-.8V192.83a.82.82,0,0,0-1.27-.8L32,208.15a2.48,2.48,0,0,0-1.28,2v51.46a1.43,1.43,0,0,0,1.42,1.42H137.57a1.43,1.43,0,0,0,1.42-1.42V192.83a.82.82,0,0,0-1.28-.8Z"/><path class="cls-2" d="M127.87,196.76a.82.82,0,0,1-1.28-.8v-19.4a1.42,1.42,0,0,0-1.41-1.42h-8.46a1.42,1.42,0,0,0-1.41,1.42v24.83a2.48,2.48,0,0,1-1.28,2l-9.84,4.73a.82.82,0,0,1-1.28-.8V192.83a.82.82,0,0,0-1.28-.8L68.1,208.15a.82.82,0,0,1-1.28-.8V192.83a.82.82,0,0,0-1.27-.8L32,208.15a2.48,2.48,0,0,0-1.28,2v51.46a1.43,1.43,0,0,0,1.42,1.42H137.57a1.43,1.43,0,0,0,1.42-1.42V192.83a.82.82,0,0,0-1.28-.8Z"/><path class="cls-1" d="M0,278.24H1.86l1.89,5.21c.24.69.45,1.39.69,2.09h.07c.24-.7.44-1.4.67-2.09l1.87-5.21H8.92v10.31H7.41v-5.1c0-.92.13-2.26.21-3.19H7.56l-.82,2.38L5,287.55h-1l-1.81-4.91-.81-2.38H1.26c.07.93.2,2.27.2,3.19v5.1H0Z"/><path class="cls-1" d="M11.73,286.5c0-1.65,1.4-2.5,4.61-2.85,0-.9-.34-1.68-1.47-1.68a4.26,4.26,0,0,0-2.23.78l-.6-1.09a5.87,5.87,0,0,1,3.11-1c1.92,0,2.8,1.22,2.8,3.26v4.64H16.63l-.13-.88h-.05A3.82,3.82,0,0,1,14,288.73,2.13,2.13,0,0,1,11.73,286.5Zm4.61.06v-1.89c-2.28.28-3.05.85-3.05,1.72s.52,1.07,1.2,1.07A2.75,2.75,0,0,0,16.34,286.56Z"/><path class="cls-1" d="M20.93,280.84h1.32l.12,1.07h.05A3.63,3.63,0,0,1,25,280.65c1.64,0,2.37,1.09,2.37,3.05v4.85H25.72V283.9c0-1.33-.39-1.86-1.3-1.86a2.59,2.59,0,0,0-1.89,1v5.46h-1.6Z"/><path class="cls-1" d="M30.27,285.69v-4.85h1.61v4.66c0,1.33.38,1.84,1.29,1.84.71,0,1.2-.33,1.85-1.14v-5.36h1.61v7.71H35.31l-.13-1.16h0a3.22,3.22,0,0,1-2.52,1.34C31,288.73,30.27,287.65,30.27,285.69Z"/><path class="cls-1" d="M43.49,278.67a2.21,2.21,0,0,0-.84-.19c-.69,0-1,.45-1,1.38v1h1.56v1.29H41.62v6.42H40v-6.42H39v-1.2l1-.09v-1c0-1.58.72-2.68,2.44-2.68a3.57,3.57,0,0,1,1.36.27Z"/><path class="cls-1" d="M44.52,286.5c0-1.65,1.4-2.5,4.61-2.85,0-.9-.34-1.68-1.47-1.68a4.26,4.26,0,0,0-2.23.78l-.6-1.09a5.87,5.87,0,0,1,3.11-1c1.92,0,2.8,1.22,2.8,3.26v4.64H49.42l-.14-.88h0a3.84,3.84,0,0,1-2.45,1.06A2.13,2.13,0,0,1,44.52,286.5Zm4.61.06v-1.89c-2.28.28-3.05.85-3.05,1.72s.51,1.07,1.2,1.07A2.75,2.75,0,0,0,49.13,286.56Z"/><path class="cls-1" d="M53.17,284.71A3.78,3.78,0,0,1,57,280.65a3.32,3.32,0,0,1,2.26.88l-.8,1.05a2,2,0,0,0-1.39-.6c-1.29,0-2.21,1.09-2.21,2.73s.88,2.7,2.17,2.7a2.6,2.6,0,0,0,1.68-.7l.66,1.07a3.75,3.75,0,0,1-2.49,1C54.77,288.73,53.17,287.26,53.17,284.71Z"/><path class="cls-1" d="M61.75,286v-3.9H60.63v-1.2l1.2-.09.18-2.12h1.36v2.12h2v1.29h-2V286c0,.93.32,1.4,1.12,1.4a2.23,2.23,0,0,0,.82-.18l.3,1.19a5,5,0,0,1-1.52.28C62.36,288.73,61.75,287.65,61.75,286Z"/><path class="cls-1" d="M67.65,285.69v-4.85h1.61v4.66c0,1.33.38,1.84,1.29,1.84.71,0,1.2-.33,1.85-1.14v-5.36H74v7.71H72.69l-.13-1.16h0A3.22,3.22,0,0,1,70,288.73C68.36,288.73,67.65,287.65,67.65,285.69Z"/><path class="cls-1" d="M77.13,280.84h1.31l.13,1.39h0a2.68,2.68,0,0,1,2.19-1.58,1.78,1.78,0,0,1,.86.17l-.29,1.4a2.15,2.15,0,0,0-.77-.13c-.63,0-1.39.44-1.88,1.65v4.81H77.13Z"/><path class="cls-1" d="M83.33,278.45a.94.94,0,0,1,1-.95,1,1,0,1,1,0,1.9A1,1,0,0,1,83.33,278.45Zm.22,2.39h1.6v7.71h-1.6Z"/><path class="cls-1" d="M88.27,280.84h1.32l.12,1.07h0a3.67,3.67,0,0,1,2.55-1.26c1.64,0,2.37,1.09,2.37,3.05v4.85H93.06V283.9c0-1.33-.39-1.86-1.3-1.86a2.59,2.59,0,0,0-1.89,1v5.46h-1.6Z"/><path class="cls-1" d="M97.15,290a2,2,0,0,1,1.12-1.68v-.07a1.41,1.41,0,0,1-.7-1.28,1.91,1.91,0,0,1,.85-1.43v0a2.65,2.65,0,0,1-1-2.05,2.78,2.78,0,0,1,3-2.77,3.31,3.31,0,0,1,1.12.19h2.73v1.21h-1.47a2.11,2.11,0,0,1,.5,1.41,2.63,2.63,0,0,1-2.88,2.65,2.54,2.54,0,0,1-1.08-.24,1,1,0,0,0-.42.82c0,.46.31.75,1.29.75h1.41c1.82,0,2.77.56,2.77,1.88,0,1.48-1.57,2.69-4,2.69C98.49,292,97.15,291.32,97.15,290Zm5.67-.41c0-.64-.51-.84-1.44-.84h-1.17a4.85,4.85,0,0,1-1-.11,1.38,1.38,0,0,0-.66,1.12c0,.76.78,1.2,2.06,1.2S102.82,290.29,102.82,289.57Zm-1-6.15a1.47,1.47,0,1,0-2.91,0,1.47,1.47,0,1,0,2.91,0Z"/><path class="cls-1" d="M110.49,278.24h1.62v10.31h-1.62Z"/><path class="cls-1" d="M115.37,280.84h1.32l.13,1.07h0a3.65,3.65,0,0,1,2.55-1.26c1.64,0,2.36,1.09,2.36,3.05v4.85h-1.61V283.9c0-1.33-.39-1.86-1.3-1.86a2.63,2.63,0,0,0-1.89,1v5.46h-1.6Z"/><path class="cls-1" d="M124.29,284.71c0-2.51,1.58-4.06,3.31-4.06a3,3,0,0,1,2.07.87l-.07-1.28v-2.86h1.61v11.17h-1.32l-.14-.87h0a3.21,3.21,0,0,1-2.24,1.05C125.54,288.73,124.29,287.26,124.29,284.71Zm5.31,1.75v-3.77a2.44,2.44,0,0,0-1.69-.7c-1.08,0-2,1-2,2.69s.68,2.72,1.89,2.72A2.25,2.25,0,0,0,129.6,286.46Z"/><path class="cls-1" d="M134.23,285.69v-4.85h1.61v4.66c0,1.33.38,1.84,1.29,1.84.72,0,1.21-.33,1.85-1.14v-5.36h1.61v7.71h-1.32l-.12-1.16h0a3.24,3.24,0,0,1-2.53,1.34C135,288.73,134.23,287.65,134.23,285.69Z"/><path class="cls-1" d="M142.9,287.67l.75-1a3.4,3.4,0,0,0,2.19.88c.92,0,1.36-.45,1.36-1s-.87-1-1.71-1.33c-1-.4-2.2-.94-2.2-2.25s1-2.25,2.73-2.25a4.06,4.06,0,0,1,2.51.91l-.76,1a2.89,2.89,0,0,0-1.72-.67c-.84,0-1.23.42-1.23.95s.79.91,1.63,1.22c1.08.41,2.27.89,2.27,2.34,0,1.29-1,2.34-2.92,2.34A4.76,4.76,0,0,1,142.9,287.67Z"/><path class="cls-1" d="M151.07,286v-3.9H150v-1.2l1.19-.09.19-2.12h1.35v2.12h2v1.29h-2V286c0,.93.33,1.4,1.12,1.4a2.24,2.24,0,0,0,.83-.18l.3,1.19a5,5,0,0,1-1.52.28C151.68,288.73,151.07,287.65,151.07,286Z"/><path class="cls-1" d="M157.07,280.84h1.31l.13,1.39h0a2.68,2.68,0,0,1,2.19-1.58,1.78,1.78,0,0,1,.86.17l-.29,1.4a2.15,2.15,0,0,0-.77-.13c-.63,0-1.39.44-1.88,1.65v4.81h-1.59Z"/><path class="cls-1" d="M167.19,289c-.6,1.65-1.42,2.76-3,2.76a3,3,0,0,1-1-.15l.31-1.26a2.14,2.14,0,0,0,.56.11c.84,0,1.33-.62,1.61-1.44l.16-.54-3.06-7.65h1.66l1.42,4c.23.69.47,1.46.7,2.17h.07l.61-2.17,1.23-4H170Z"/><path class="cls-1" d="M157.2,115.09h-3.59l-.88,3h-1.66l3.42-10.31h1.88L159.79,118h-1.73Zm-.4-1.27-.4-1.39c-.35-1.12-.66-2.27-1-3.43h-.06c-.29,1.18-.62,2.31-1,3.43l-.42,1.39Z"/><path class="cls-1" d="M161.14,119.46a2.06,2.06,0,0,1,1.12-1.68v-.07a1.42,1.42,0,0,1-.7-1.27,1.92,1.92,0,0,1,.86-1.43V115a2.61,2.61,0,0,1-1-2,2.78,2.78,0,0,1,3-2.78,3.21,3.21,0,0,1,1.12.2h2.73v1.21h-1.47a2,2,0,0,1,.51,1.41,2.64,2.64,0,0,1-2.89,2.65,2.77,2.77,0,0,1-1.08-.24,1,1,0,0,0-.42.81c0,.46.31.76,1.29.76h1.41c1.83,0,2.78.56,2.78,1.88,0,1.48-1.57,2.69-4,2.69C162.49,121.5,161.14,120.81,161.14,119.46Zm5.67-.4c0-.65-.5-.84-1.44-.84h-1.16a4.88,4.88,0,0,1-1-.11,1.37,1.37,0,0,0-.66,1.12c0,.75.79,1.2,2.06,1.2S166.81,119.77,166.81,119.06Zm-1-6.15a1.47,1.47,0,1,0-2.92,0,1.47,1.47,0,1,0,2.92,0Z"/><path class="cls-1" d="M170.49,110.33h1.32l.13,1.39h0a2.65,2.65,0,0,1,2.18-1.59,2,2,0,0,1,.87.17l-.29,1.4a2.39,2.39,0,0,0-.77-.12c-.63,0-1.39.43-1.88,1.65V118h-1.6Z"/><path class="cls-1" d="M176.69,107.94a1,1,0,1,1,1,1A1,1,0,0,1,176.69,107.94Zm.23,2.39h1.59V118h-1.59Z"/><path class="cls-1" d="M181.09,114.2a3.79,3.79,0,0,1,3.81-4.07,3.3,3.3,0,0,1,2.25.89l-.79,1a2,2,0,0,0-1.39-.6c-1.29,0-2.21,1.09-2.21,2.73s.88,2.7,2.17,2.7a2.65,2.65,0,0,0,1.68-.7l.66,1.06a3.72,3.72,0,0,1-2.5,1C182.69,118.22,181.09,116.75,181.09,114.2Z"/><path class="cls-1" d="M189.48,115.18v-4.85h1.61V115c0,1.33.37,1.85,1.29,1.85.71,0,1.2-.34,1.84-1.15v-5.35h1.62V118h-1.32l-.13-1.17h0a3.22,3.22,0,0,1-2.52,1.35C190.19,118.22,189.48,117.14,189.48,115.18Z"/><path class="cls-1" d="M199,116.23v-9.36h1.6v9.44c0,.44.2.59.39.59a1.07,1.07,0,0,0,.27,0l.21,1.22a2.61,2.61,0,0,1-.87.13C199.39,118.22,199,117.47,199,116.23Z"/><path class="cls-1" d="M204.08,115.51v-3.89H203v-1.2l1.19-.09.18-2.13h1.36v2.13h2v1.29h-2v3.91c0,.92.32,1.4,1.12,1.4a2.51,2.51,0,0,0,.83-.18l.29,1.19a4.89,4.89,0,0,1-1.51.28C204.68,118.22,204.08,117.14,204.08,115.51Z"/><path class="cls-1" d="M210,115.18v-4.85h1.61V115c0,1.33.38,1.85,1.29,1.85.71,0,1.21-.34,1.85-1.15v-5.35h1.61V118H215l-.12-1.17h0a3.22,3.22,0,0,1-2.53,1.35C210.69,118.22,210,117.14,210,115.18Z"/><path class="cls-1" d="M219.45,110.33h1.32l.12,1.39h0a2.67,2.67,0,0,1,2.19-1.59,2,2,0,0,1,.87.17l-.3,1.4a2.35,2.35,0,0,0-.77-.12c-.63,0-1.38.43-1.87,1.65V118h-1.6Z"/><path class="cls-1" d="M225.17,114.2c0-2.51,1.71-4.07,3.52-4.07,2.05,0,3.14,1.48,3.14,3.66a4.27,4.27,0,0,1-.07.81h-5a2.33,2.33,0,0,0,2.38,2.36,3.21,3.21,0,0,0,1.83-.58l.56,1a4.62,4.62,0,0,1-2.6.82A3.71,3.71,0,0,1,225.17,114.2Zm5.27-.7c0-1.33-.6-2.1-1.72-2.1a2.09,2.09,0,0,0-2,2.1Z"/><polygon class="cls-2" points="120.7 91.85 138.7 91.85 183.13 50.22 174.94 50.22 120.7 91.85"/><polygon class="cls-2" points="157.59 91.85 175.59 91.85 199.93 50.22 191.73 50.22 157.59 91.85"/><circle class="cls-3" cx="163.44" cy="27" r="8.3"/><line class="cls-2" x1="167.9" y1="22.55" x2="177.37" y2="13.07"/><line class="cls-2" x1="158.98" y1="22.55" x2="149.51" y2="13.07"/><line class="cls-2" x1="157.13" y1="27" x2="147" y2="27"/><line class="cls-2" x1="163.44" y1="33.31" x2="163.44" y2="43.45"/><line class="cls-2" x1="169.74" y1="27" x2="179.88" y2="27"/><line class="cls-2" x1="163.44" y1="20.7" x2="163.44" y2="10.56"/><line class="cls-2" x1="158.98" y1="31.46" x2="149.51" y2="40.94"/><line class="cls-2" x1="167.9" y1="31.46" x2="177.37" y2="40.94"/><path class="cls-2" d="M238,78.74V65S237,39.12,265.48,39.12c0,0-2.64,25.36-27.46,25.88"/><path class="cls-2" d="M238,82.06V65s1-25.88-27.47-25.88c0,0,2.64,25.36,27.47,25.88"/><path class="cls-1" d="M416.71,107.73h6.11v1.35h-4.49v3.16h3.81v1.35h-3.81V118h-1.62Z"/><path class="cls-1" d="M425,107.94a1,1,0,0,1,1-1,1,1,0,1,1,0,1.91A1,1,0,0,1,425,107.94Zm.22,2.39h1.6V118h-1.6Z"/><path class="cls-1" d="M429.1,117.15l.75-1A3.46,3.46,0,0,0,432,117c.92,0,1.36-.45,1.36-1s-.87-1-1.71-1.33c-1-.39-2.2-.94-2.2-2.24s1-2.26,2.73-2.26a4.06,4.06,0,0,1,2.51.92l-.76,1a2.89,2.89,0,0,0-1.72-.67c-.84,0-1.23.42-1.23.95s.8.91,1.64,1.22c1.07.4,2.26.88,2.26,2.34,0,1.29-1,2.34-2.92,2.34A4.7,4.7,0,0,1,429.1,117.15Z"/><path class="cls-1" d="M437.33,106.87h1.6v3l-.06,1.52a3.59,3.59,0,0,1,2.49-1.22c1.64,0,2.37,1.1,2.37,3.06V118h-1.61v-4.66c0-1.33-.39-1.86-1.3-1.86a2.63,2.63,0,0,0-1.89,1V118h-1.6Z"/><path class="cls-1" d="M446.18,114.2c0-2.51,1.7-4.07,3.51-4.07,2.05,0,3.14,1.48,3.14,3.66a4.27,4.27,0,0,1-.07.81h-5a2.33,2.33,0,0,0,2.38,2.36,3.24,3.24,0,0,0,1.84-.58l.56,1a4.68,4.68,0,0,1-2.61.82A3.7,3.7,0,0,1,446.18,114.2Zm5.26-.7c0-1.33-.6-2.1-1.72-2.1a2.08,2.08,0,0,0-2,2.1Z"/><path class="cls-1" d="M455.33,110.33h1.32l.13,1.39h0a2.65,2.65,0,0,1,2.18-1.59,2,2,0,0,1,.87.17l-.29,1.4a2.39,2.39,0,0,0-.77-.12c-.63,0-1.39.43-1.88,1.65V118h-1.6Z"/><path class="cls-1" d="M465.46,118.5c-.61,1.65-1.42,2.76-3,2.76a2.69,2.69,0,0,1-1-.16l.31-1.26a2.14,2.14,0,0,0,.56.11c.84,0,1.33-.61,1.61-1.44l.15-.53L461,110.33h1.65l1.43,4c.23.68.46,1.45.7,2.17h.07l.6-2.17,1.24-4h1.57Z"/><path class="cls-2" d="M382.22,60.35c4.11,5.94,12.23,8.91,20.36,8.91a27.43,27.43,0,0,0,20.36-8.91,27.72,27.72,0,0,0-40.72,0Z"/><polyline class="cls-2" points="422.94 60.35 432.69 66.85 432.69 53.84 422.94 60.35"/><path class="cls-2" d="M407.31,85.52c4.12,5.94,12.23,8.91,20.36,8.91A27.41,27.41,0,0,0,448,85.52a27.72,27.72,0,0,0-40.72,0Z"/><polyline class="cls-2" points="448.03 85.52 457.78 92.03 457.78 79.02 448.03 85.52"/><path class="cls-2" d="M447.44,59.5c4.12,5.94,12.23,8.91,20.36,8.91a27.45,27.45,0,0,0,20.37-8.91,27.73,27.73,0,0,0-40.73,0Z"/><polyline class="cls-2" points="488.17 59.5 497.92 66 497.92 52.99 488.17 59.5"/><polyline class="cls-2" points="428.28 34.6 416.66 22.63 468.77 22.63 462.79 34.6"/><rect class="cls-2" x="437.96" y="12.06" width="21.42" height="10.56"/><rect class="cls-2" x="445.89" y="1.5" width="6.25" height="10.56"/><path class="cls-2" d="M513,38.12a14.36,14.36,0,0,0-17.8,0,14.36,14.36,0,0,1-17.8,0,14.36,14.36,0,0,0-17.8,0,14.36,14.36,0,0,1-17.8,0,14.36,14.36,0,0,0-17.8,0,14.36,14.36,0,0,1-17.8,0,14.36,14.36,0,0,0-17.8,0,14.36,14.36,0,0,1-17.8,0"/><path class="cls-1" d="M511.38,278.24H513v4.2h4.41v-4.2H519v10.31h-1.62v-4.69H513v4.69h-1.63Z"/><path class="cls-1" d="M522.21,285.69v-4.85h1.61v4.66c0,1.33.37,1.84,1.29,1.84.71,0,1.2-.33,1.84-1.14v-5.36h1.62v7.71h-1.32l-.13-1.16h0a3.24,3.24,0,0,1-2.52,1.34C522.92,288.73,522.21,287.65,522.21,285.69Z"/><path class="cls-1" d="M531.68,280.84H533l.13,1.07h0a3.65,3.65,0,0,1,2.55-1.26c1.64,0,2.36,1.09,2.36,3.05v4.85h-1.61V283.9c0-1.33-.39-1.86-1.3-1.86a2.63,2.63,0,0,0-1.89,1v5.46h-1.6Z"/><path class="cls-1" d="M541.37,286v-3.9h-1.12v-1.2l1.19-.09.18-2.12H543v2.12h2v1.29h-2V286c0,.93.32,1.4,1.12,1.4a2.24,2.24,0,0,0,.83-.18l.29,1.19a4.89,4.89,0,0,1-1.51.28C542,288.73,541.37,287.65,541.37,286Z"/><path class="cls-1" d="M547.14,278.45a.94.94,0,0,1,1-.95,1,1,0,1,1,0,1.9A1,1,0,0,1,547.14,278.45Zm.22,2.39H549v7.71h-1.6Z"/><path class="cls-1" d="M552.08,280.84h1.32l.12,1.07h.05a3.63,3.63,0,0,1,2.55-1.26c1.63,0,2.36,1.09,2.36,3.05v4.85h-1.61V283.9c0-1.33-.39-1.86-1.3-1.86a2.59,2.59,0,0,0-1.89,1v5.46h-1.6Z"/><path class="cls-1" d="M561,290a2,2,0,0,1,1.12-1.68v-.07a1.43,1.43,0,0,1-.7-1.28,1.91,1.91,0,0,1,.85-1.43v0a2.65,2.65,0,0,1-1-2.05,2.78,2.78,0,0,1,3-2.77,3.31,3.31,0,0,1,1.12.19h2.73v1.21h-1.47a2.11,2.11,0,0,1,.5,1.41,2.63,2.63,0,0,1-2.88,2.65,2.57,2.57,0,0,1-1.08-.24,1,1,0,0,0-.42.82c0,.46.31.75,1.29.75h1.41c1.82,0,2.78.56,2.78,1.88,0,1.48-1.57,2.69-4,2.69C562.3,292,561,291.32,561,290Zm5.67-.41c0-.64-.5-.84-1.44-.84H564a4.85,4.85,0,0,1-1-.11,1.4,1.4,0,0,0-.66,1.12c0,.76.78,1.2,2.06,1.2S566.63,290.29,566.63,289.57Zm-1-6.15a1.47,1.47,0,1,0-2.91,0,1.47,1.47,0,1,0,2.91,0Z"/><path class="cls-2" d="M587.3,209.38l-7.75-1.89.71-4.89-8.46-1.5.71-4.89-13.38.38v-4.52l-13,.76.35-4.14-15.14,1.5.71-6.39c-32,4.89-33.45,26.7-33.45,26.7L482,218l5.28,9.4H506l8.7,24.07h5.56l-2.72-19.56h52.74l9.12,19.56h6.41l-3.79-21.06Z"/><polygon class="cls-2" points="558.63 231.94 560.17 242.04 553.58 251.5 560.89 251.5 570.05 242.03 570.32 231.94 558.63 231.94"/><polygon class="cls-2" points="506.04 227.43 498.88 251.5 506.19 251.5 511.24 242.1 506.04 227.43"/><path class="cls-2" d="M504.2,217.27s-2.11,11.66-13.38,16.93"/><path class="cls-2" d="M584.83,221s5.28,13.54,19,11.28"/><polyline class="cls-2" points="530.25 201.1 535.89 205.24 529.9 210.5"/><polyline class="cls-2" points="539.06 214.64 544.69 218.78 538.71 224.04"/><polyline class="cls-2" points="521.45 214.64 527.09 218.78 521.1 224.04"/><circle class="cls-2" cx="513.45" cy="205.21" r="1.16"/><polyline class="cls-2" points="547.86 202.98 553.5 207.12 547.51 212.38"/><polyline class="cls-2" points="554.55 215.77 560.18 219.91 554.2 225.17"/><polyline class="cls-2" points="566.17 209.75 571.8 213.89 565.82 219.15"/><path class="cls-1" d="M140.79,463.28h-3v-1.36h7.69v1.36h-3v9h-1.63Z"/><path class="cls-1" d="M147.08,464.53h1.32l.12,1.38h0a2.68,2.68,0,0,1,2.19-1.58,2,2,0,0,1,.87.17l-.3,1.4a2.34,2.34,0,0,0-.77-.13c-.63,0-1.38.44-1.87,1.66v4.8h-1.6Z"/><path class="cls-1" d="M152.67,470.19c0-1.66,1.4-2.51,4.6-2.86,0-.9-.33-1.68-1.47-1.68a4.19,4.19,0,0,0-2.22.78l-.61-1.09a5.87,5.87,0,0,1,3.11-1c1.92,0,2.8,1.22,2.8,3.26v4.64h-1.31l-.14-.88h0a3.85,3.85,0,0,1-2.46,1.06A2.12,2.12,0,0,1,152.67,470.19Zm4.6.05v-1.89c-2.28.28-3.05.86-3.05,1.72s.52,1.07,1.2,1.07A2.68,2.68,0,0,0,157.27,470.24Z"/><path class="cls-1" d="M161.86,464.53h1.32l.12,1.06h0a3.65,3.65,0,0,1,2.55-1.26c1.64,0,2.36,1.09,2.36,3.05v4.85h-1.61v-4.65c0-1.33-.39-1.86-1.3-1.86a2.63,2.63,0,0,0-1.89,1v5.46h-1.6Z"/><path class="cls-1" d="M170.49,471.35l.75-1a3.4,3.4,0,0,0,2.19.88c.92,0,1.36-.44,1.36-1s-.87-1-1.71-1.33c-1-.39-2.2-.94-2.2-2.24s1-2.26,2.73-2.26a4.06,4.06,0,0,1,2.51.91l-.76,1a2.84,2.84,0,0,0-1.72-.68c-.84,0-1.23.42-1.23,1s.79.91,1.63,1.22c1.08.4,2.27.88,2.27,2.33,0,1.29-1,2.34-2.92,2.34A4.76,4.76,0,0,1,170.49,471.35Z"/><path class="cls-1" d="M178.72,464.53H180l.12.84h0a4,4,0,0,1,2.37-1c2,0,3.05,1.56,3.05,3.92,0,2.65-1.58,4.16-3.32,4.16a3.14,3.14,0,0,1-2-.87l0,1.32v2.5h-1.6Zm5.24,3.75c0-1.61-.52-2.6-1.81-2.6a2.67,2.67,0,0,0-1.83.93v3.77a2.59,2.59,0,0,0,1.68.7C183.12,471.08,184,470.09,184,468.28Z"/><path class="cls-1" d="M187.69,468.39a3.65,3.65,0,1,1,3.63,4A3.73,3.73,0,0,1,187.69,468.39Zm5.61,0c0-1.64-.76-2.73-2-2.73s-2,1.09-2,2.73.76,2.71,2,2.71S193.3,470,193.3,468.39Z"/><path class="cls-1" d="M197.54,464.53h1.31l.13,1.38h0a2.68,2.68,0,0,1,2.19-1.58,1.93,1.93,0,0,1,.86.17l-.29,1.4a2.39,2.39,0,0,0-.77-.13c-.63,0-1.39.44-1.88,1.66v4.8h-1.59Z"/><path class="cls-1" d="M204.21,469.71v-3.89h-1.12v-1.21l1.19-.08.18-2.13h1.36v2.13h2v1.29h-2v3.9c0,.93.33,1.4,1.12,1.4a2.24,2.24,0,0,0,.83-.18l.29,1.19a4.89,4.89,0,0,1-1.51.28C204.81,472.41,204.21,471.33,204.21,469.71Z"/><path class="cls-1" d="M209.42,470.19c0-1.66,1.4-2.51,4.61-2.86,0-.9-.34-1.68-1.47-1.68a4.26,4.26,0,0,0-2.23.78l-.6-1.09a5.87,5.87,0,0,1,3.11-1c1.92,0,2.8,1.22,2.8,3.26v4.64h-1.32l-.14-.88h0a3.84,3.84,0,0,1-2.45,1.06A2.13,2.13,0,0,1,209.42,470.19Zm4.61.05v-1.89c-2.28.28-3.06.86-3.06,1.72s.52,1.07,1.21,1.07A2.7,2.7,0,0,0,214,470.24Z"/><path class="cls-1" d="M218.63,469.71v-3.89h-1.12v-1.21l1.19-.08.18-2.13h1.36v2.13h2v1.29h-2v3.9c0,.93.33,1.4,1.12,1.4a2.24,2.24,0,0,0,.83-.18l.29,1.19a4.89,4.89,0,0,1-1.51.28C219.23,472.41,218.63,471.33,218.63,469.71Z"/><path class="cls-1" d="M224.4,462.13a.94.94,0,0,1,1-.95,1,1,0,1,1,0,1.9A1,1,0,0,1,224.4,462.13Zm.22,2.4h1.6v7.7h-1.6Z"/><path class="cls-1" d="M228.79,468.39a3.65,3.65,0,1,1,3.63,4A3.73,3.73,0,0,1,228.79,468.39Zm5.61,0c0-1.64-.76-2.73-2-2.73s-2,1.09-2,2.73.76,2.71,2,2.71S234.4,470,234.4,468.39Z"/><path class="cls-1" d="M238.64,464.53H240l.13,1.06h0a3.67,3.67,0,0,1,2.55-1.26c1.64,0,2.37,1.09,2.37,3.05v4.85h-1.61v-4.65c0-1.33-.39-1.86-1.3-1.86a2.63,2.63,0,0,0-1.9,1v5.46h-1.59Z"/><polyline class="cls-2" points="134.91 418.56 124.06 418.56 124.06 399.21 129.79 383.44 155.23 383.44 155.23 418.56 147.35 418.56"/><polygon class="cls-2" points="133.51 399.46 136.88 390.2 145.78 390.2 145.78 399.46 133.51 399.46"/><circle class="cls-2" cx="141.25" cy="422.13" r="6.45"/><polyline class="cls-2" points="179.91 436.32 169.06 436.32 169.06 416.98 174.79 401.21 200.23 401.21 200.23 436.32 192.35 436.32"/><polygon class="cls-2" points="178.51 417.22 181.88 407.97 190.78 407.97 190.78 417.22 178.51 417.22"/><circle class="cls-2" cx="186.26" cy="439.9" r="6.45"/><polyline class="cls-2" points="247.65 436.32 254.09 436.32 254.09 427.44 200.23 427.44 200.23 436.32 235.67 436.32"/><rect class="cls-2" x="200.23" y="390.82" width="53.86" height="36.63"/><circle class="cls-2" cx="241.88" cy="439.9" r="6.45"/><path class="cls-1" d="M415.33,461.92h1.86l1.89,5.21c.24.69.45,1.39.69,2.09h.07c.24-.7.43-1.4.67-2.09l1.87-5.21h1.87v10.31h-1.51v-5.1c0-.92.13-2.25.21-3.19h-.06l-.82,2.38-1.8,4.92h-1l-1.81-4.92-.81-2.38h-.06c.07.94.2,2.27.2,3.19v5.1h-1.46Z"/><path class="cls-1" d="M427,468.39c0-2.5,1.71-4.06,3.52-4.06,2,0,3.14,1.47,3.14,3.66a4.35,4.35,0,0,1-.07.81h-5a2.32,2.32,0,0,0,2.38,2.35,3.3,3.3,0,0,0,1.83-.57l.56,1a4.61,4.61,0,0,1-2.6.81A3.7,3.7,0,0,1,427,468.39Zm5.27-.7c0-1.33-.6-2.1-1.72-2.1a2.09,2.09,0,0,0-2,2.1Z"/><path class="cls-1" d="M435.6,468.39c0-2.5,1.58-4.06,3.31-4.06a3,3,0,0,1,2.07.87l-.07-1.28v-2.85h1.61v11.16h-1.31l-.15-.87h0a3.21,3.21,0,0,1-2.24,1.05C436.85,472.41,435.6,470.94,435.6,468.39Zm5.31,1.75v-3.76a2.4,2.4,0,0,0-1.69-.7c-1.08,0-2,1-2,2.68s.69,2.72,1.89,2.72A2.25,2.25,0,0,0,440.91,470.14Z"/><path class="cls-1" d="M445.42,462.13a1,1,0,0,1,2.05,0,1,1,0,0,1-2.05,0Zm.22,2.4h1.6v7.7h-1.6Z"/><path class="cls-1" d="M449.81,468.39a3.79,3.79,0,0,1,3.81-4.06,3.32,3.32,0,0,1,2.26.88l-.8,1.05a2.06,2.06,0,0,0-1.39-.6c-1.29,0-2.21,1.09-2.21,2.73s.88,2.71,2.17,2.71a2.65,2.65,0,0,0,1.68-.7l.66,1.06a3.75,3.75,0,0,1-2.49,1C451.41,472.41,449.81,470.94,449.81,468.39Z"/><path class="cls-1" d="M457.69,470.19c0-1.66,1.4-2.51,4.61-2.86,0-.9-.33-1.68-1.47-1.68a4.26,4.26,0,0,0-2.23.78l-.6-1.09a5.87,5.87,0,0,1,3.11-1c1.92,0,2.8,1.22,2.8,3.26v4.64H462.6l-.14-.88h0a3.87,3.87,0,0,1-2.46,1.06A2.13,2.13,0,0,1,457.69,470.19Zm4.61.05v-1.89c-2.28.28-3.05.86-3.05,1.72s.52,1.07,1.2,1.07A2.68,2.68,0,0,0,462.3,470.24Z"/><path class="cls-1" d="M466.89,470.42v-9.35h1.6v9.44c0,.43.19.59.39.59a1.07,1.07,0,0,0,.27,0l.21,1.22a2.65,2.65,0,0,1-.87.12C467.33,472.41,466.89,471.67,466.89,470.42Z"/><path class="cls-2" d="M459.78,366h1.8v30.14l-21,37c-2.68,4.73-.83,8.6,4.12,8.6H493.9c5,0,6.81-3.87,4.12-8.6l-21-37V366h1.8"/><path class="cls-2" d="M451.12,415.45c11.62-4.75,20.07,8.16,35.39-1.87"/><path class="cls-2" d="M420.26,415.09a11.09,11.09,0,1,1,4.49,21.72l-24.31,5A11.09,11.09,0,0,1,396,420.11Z"/><path class="cls-2" d="M406.28,418c3.48-.72,7.31,3.56,8.55,9.56s-.58,11.44-4.06,12.16"/><path class="cls-2" d="M400.23,394.27a9.37,9.37,0,1,1,0,18.73h-21a9.37,9.37,0,0,1,0-18.74Z"/><path class="cls-2" d="M388.17,394.27c3,0,5.44,4.19,5.44,9.37s-2.43,9.36-5.43,9.36"/><ellipse class="cls-2" cx="428.56" cy="391.12" rx="12.72" ry="7.89"/><path class="cls-2" d="M415.85,391.12c0,4.36,5.69,7.89,12.71,7.89s12.72-3.53,12.72-7.89v7.48c0,4.36-5.7,7.89-12.72,7.89s-12.71-3.53-12.71-7.89Z"/><path class="cls-4" d="M415.34,341.19a39.54,39.54,0,0,0,26.41-9.79,31,31,0,0,0,0-47.29,39.5,39.5,0,0,0-26.41-9.8,42.22,42.22,0,0,0-26.41,9.8c-6.34,5.38-12.27,8.28-20.13,8.28s-13.79-2.9-20.13-8.28a40.49,40.49,0,0,0-52.82,0c-6.34,5.38-12.27,8.28-20.13,8.28s-13.79-2.9-20.13-8.28a42.2,42.2,0,0,0-26.41-9.8,39.46,39.46,0,0,0-26.4,9.8,31,31,0,0,0,0,47.29,39.5,39.5,0,0,0,26.4,9.79,42.25,42.25,0,0,0,26.41-9.79c6.34-5.38,12.27-8.29,20.13-8.29s13.79,2.91,20.13,8.29a40.52,40.52,0,0,0,52.82,0c6.34-5.38,12.27-8.29,20.13-8.29s13.79,2.91,20.13,8.29A42.27,42.27,0,0,0,415.34,341.19Z"/><path class="cls-1" d="M202.38,302.41h1.73l1.75,4.83c.22.64.42,1.29.64,1.94h.07c.22-.65.4-1.3.62-1.94l1.73-4.83h1.74V312h-1.4v-4.74c0-.85.11-2.09.19-3h0l-.77,2.21L207,311.05H206l-1.67-4.56-.76-2.21h0c.06.87.18,2.11.18,3V312h-1.35Z"/><path class="cls-1" d="M213.18,308.41a3.48,3.48,0,0,1,3.27-3.77c1.89,0,2.91,1.37,2.91,3.4a3.75,3.75,0,0,1-.07.75h-4.64a2.16,2.16,0,0,0,2.21,2.18,3,3,0,0,0,1.7-.53l.52.95a4.33,4.33,0,0,1-2.41.75A3.43,3.43,0,0,1,213.18,308.41Zm4.89-.65c0-1.23-.56-1.95-1.6-1.95a1.93,1.93,0,0,0-1.83,1.95Z"/><path class="cls-1" d="M221.07,310.08c0-1.54,1.3-2.33,4.28-2.65,0-.84-.31-1.56-1.37-1.56a3.91,3.91,0,0,0-2.06.72l-.56-1a5.45,5.45,0,0,1,2.88-.94c1.79,0,2.6,1.13,2.6,3V312h-1.22l-.13-.82h0a3.52,3.52,0,0,1-2.27,1A2,2,0,0,1,221.07,310.08Zm4.28.05v-1.76c-2.12.26-2.83.8-2.83,1.6s.48,1,1.11,1A2.54,2.54,0,0,0,225.35,310.13Z"/><path class="cls-1" d="M228.86,311.16l.7-1a3.16,3.16,0,0,0,2,.82c.86,0,1.26-.41,1.26-1s-.81-.93-1.59-1.23c-.94-.37-2-.87-2-2.08s1-2.1,2.54-2.1a3.76,3.76,0,0,1,2.33.85l-.71.92a2.68,2.68,0,0,0-1.6-.62c-.78,0-1.14.39-1.14.88s.74.85,1.52,1.13c1,.38,2.11.82,2.11,2.17,0,1.2-1,2.17-2.72,2.17A4.4,4.4,0,0,1,228.86,311.16Z"/><path class="cls-1" d="M236.41,309.32v-4.49h1.5v4.31c0,1.24.35,1.72,1.19,1.72.67,0,1.12-.31,1.72-1.07v-5h1.49V312h-1.22L241,310.9h0a3,3,0,0,1-2.34,1.24C237.08,312.14,236.41,311.14,236.41,309.32Z"/><path class="cls-1" d="M245.21,304.83h1.23l.11,1.28h0a2.48,2.48,0,0,1,2-1.47,1.8,1.8,0,0,1,.8.16l-.27,1.3a2,2,0,0,0-.71-.12c-.59,0-1.29.41-1.74,1.54V312h-1.49Z"/><path class="cls-1" d="M250.53,308.41a3.48,3.48,0,0,1,3.26-3.77c1.9,0,2.92,1.37,2.92,3.4a3.75,3.75,0,0,1-.07.75H252a2.16,2.16,0,0,0,2.21,2.18,3,3,0,0,0,1.7-.53l.52.95a4.33,4.33,0,0,1-2.41.75A3.43,3.43,0,0,1,250.53,308.41Zm4.89-.65c0-1.23-.56-1.95-1.6-1.95a1.93,1.93,0,0,0-1.83,1.95Z"/><path class="cls-1" d="M295.22,307.22c0-3.12,1.89-5,4.31-5a3.7,3.7,0,0,1,2.72,1.2l-.82,1a2.52,2.52,0,0,0-1.87-.86c-1.65,0-2.8,1.38-2.8,3.63s1.07,3.66,2.76,3.66a2.8,2.8,0,0,0,2.12-1l.81.95a3.8,3.8,0,0,1-3,1.37C297.06,312.14,295.22,310.35,295.22,307.22Z"/><path class="cls-1" d="M304.15,308.41a3.38,3.38,0,1,1,3.36,3.73A3.46,3.46,0,0,1,304.15,308.41Zm5.2,0c0-1.52-.7-2.53-1.84-2.53s-1.82,1-1.82,2.53.71,2.51,1.82,2.51S309.35,309.92,309.35,308.41Z"/><path class="cls-1" d="M313.29,304.83h1.22l.12,1h0a3.47,3.47,0,0,1,2.37-1.17c1.52,0,2.2,1,2.2,2.84V312h-1.5v-4.32c0-1.24-.36-1.73-1.21-1.73a2.44,2.44,0,0,0-1.75,1V312h-1.48Z"/><path class="cls-1" d="M322.05,304.83h1.22l.12,1h0a3.43,3.43,0,0,1,2.36-1.17c1.52,0,2.2,1,2.2,2.84V312H326.5v-4.32c0-1.24-.37-1.73-1.21-1.73a2.44,2.44,0,0,0-1.76,1V312h-1.48Z"/><path class="cls-1" d="M330.3,308.41a3.48,3.48,0,0,1,3.27-3.77c1.89,0,2.91,1.37,2.91,3.4a3.75,3.75,0,0,1-.07.75h-4.64A2.16,2.16,0,0,0,334,311a3,3,0,0,0,1.71-.53l.52.95a4.39,4.39,0,0,1-2.42.75A3.43,3.43,0,0,1,330.3,308.41Zm4.89-.65c0-1.23-.56-1.95-1.6-1.95a1.94,1.94,0,0,0-1.83,1.95Z"/><path class="cls-1" d="M338.3,308.41a3.51,3.51,0,0,1,3.53-3.77,3.09,3.09,0,0,1,2.1.82l-.74,1a1.89,1.89,0,0,0-1.29-.56c-1.2,0-2,1-2,2.53s.82,2.51,2,2.51a2.42,2.42,0,0,0,1.56-.65l.61,1a3.44,3.44,0,0,1-2.31.88C339.78,312.14,338.3,310.78,338.3,308.41Z"/><path class="cls-1" d="M346.27,309.64V306h-1V304.9l1.1-.07.17-2h1.26v2h1.86V306h-1.86v3.63c0,.86.3,1.3,1,1.3a2.17,2.17,0,0,0,.77-.17l.27,1.1a4.53,4.53,0,0,1-1.4.26C346.83,312.14,346.27,311.14,346.27,309.64Z"/><path class="cls-1" d="M392.29,307.87v-5.46h1.51V308c0,2.16.86,2.86,2.05,2.86s2.1-.7,2.1-2.86v-5.56h1.45v5.46c0,3.12-1.43,4.27-3.55,4.27S392.29,311,392.29,307.87Z"/><path class="cls-1" d="M402.63,309.64V306h-1V304.9l1.1-.07.17-2h1.26v2H406V306h-1.86v3.63c0,.86.3,1.3,1,1.3a2.17,2.17,0,0,0,.77-.17l.27,1.1a4.53,4.53,0,0,1-1.4.26C403.19,312.14,402.63,311.14,402.63,309.64Z"/><path class="cls-1" d="M408,302.6a1,1,0,0,1,1.91,0,1,1,0,0,1-1.91,0Zm.21,2.23h1.48V312h-1.48Z"/><path class="cls-1" d="M412.57,310.3v-8.69h1.48v8.77c0,.4.19.54.37.54l.24,0,.2,1.13a2.56,2.56,0,0,1-.81.11C413,312.14,412.57,311.46,412.57,310.3Z"/><path class="cls-1" d="M416.89,302.6a.88.88,0,0,1,.95-.88.89.89,0,0,1,1,.88.9.9,0,0,1-1,.89A.89.89,0,0,1,416.89,302.6Zm.2,2.23h1.49V312h-1.49Z"/><path class="cls-1" d="M420.83,311.17l3.52-5.15h-3.13v-1.19h5v.79l-3.52,5.16h3.64V312h-5.52Z"/><path class="cls-1" d="M427.85,308.41a3.47,3.47,0,0,1,3.26-3.77c1.9,0,2.91,1.37,2.91,3.4a3.84,3.84,0,0,1-.06.75h-4.64a2.15,2.15,0,0,0,2.21,2.18,3,3,0,0,0,1.7-.53l.52.95a4.34,4.34,0,0,1-2.42.75A3.43,3.43,0,0,1,427.85,308.41Zm4.88-.65c0-1.23-.55-1.95-1.59-1.95a2,2,0,0,0-1.84,1.95Z"/><polygon class="cls-2" points="169.06 416.98 171.71 409.68 155.23 409.68 155.23 418.56 169.06 418.56 169.06 416.98"/><polygon class="cls-2" points="155.23 373.05 155.23 409.68 171.71 409.68 174.79 401.21 200.23 401.21 200.23 390.82 209.09 390.82 209.09 373.05 155.23 373.05"/><path class="cls-2" d="M238,65a28.9,28.9,0,0,1-10.87-2.21l4.22,29.06h18L239.12,64.94C238.75,65,238.4,65,238,65Z"/><path class="cls-2" d="M237.81,61.5a26.39,26.39,0,0,1,.21,2.77c0-.46,0-1.11.11-1.91Z"/><path class="cls-2" d="M214.08,50.22h-5.55L194.48,91.85h18L216.34,54A31.11,31.11,0,0,1,214.08,50.22Z"/></svg>