<svg id="レイヤー_1" data-name="レイヤー 1" xmlns="http://www.w3.org/2000/svg" viewBox="0 0 722.91 309.66"><defs><style>.cls-1,.cls-2{fill:#162789;}.cls-1{stroke:#162789;stroke-linecap:round;stroke-linejoin:round;stroke-width:5.48px;}.cls-3{fill:#fff;}.cls-10,.cls-11,.cls-4,.cls-6,.cls-7,.cls-8,.cls-9{fill:none;stroke:#6d7776;stroke-miterlimit:10;}.cls-5{fill:#6d7776;}.cls-6{stroke-width:1.14px;}.cls-7{stroke-width:1.07px;}.cls-8{stroke-width:0.92px;}.cls-9{stroke-width:0.76px;}.cls-10{stroke-width:1.5px;}.cls-11{stroke-width:0.86px;}</style></defs><title>アートボード 2</title><path class="cls-1" d="M370.93,81.91a29.75,29.75,0,1,0-29.75-29.75A29.79,29.79,0,0,0,370.93,81.91Z"/><path class="cls-1" d="M403.6,96.32l-.05,0-8.49-2.6a2.64,2.64,0,0,0-3.25,1.62L374,144.3a3.22,3.22,0,0,1-6.06,0l-17.85-49a2.62,2.62,0,0,0-3.25-1.62l-8.48,2.6a26.35,26.35,0,0,0-18.09,25v51.81a2.65,2.65,0,0,0,.43,1.45L339.29,203V304.28a2.64,2.64,0,0,0,2.63,2.64h58a2.64,2.64,0,0,0,2.64-2.64V203L421.2,174.6a2.65,2.65,0,0,0,.43-1.45V121.2a26.17,26.17,0,0,0-18-24.88Z"/><path class="cls-2" d="M377.76,92.57a3.65,3.65,0,0,0-2.71-1.13h-7.58a3.68,3.68,0,0,0-2.71,1.13,3.51,3.51,0,0,0-.46,4.14l4.05,6.11-1.89,16,3.73,9.94a1.14,1.14,0,0,0,2.14,0l3.74-9.94-1.9-16,4.05-6.11a3.49,3.49,0,0,0-.46-4.14Z"/><rect class="cls-3" x="0.5" y="149.93" width="590.18" height="32.47" rx="2.83"/><rect class="cls-4" x="0.5" y="149.93" width="590.18" height="32.47" rx="2.83"/><path class="cls-5" d="M9.84,155.94H13l1.81,10,1,6.18h.11c.42-2.06.86-4.13,1.31-6.18l2.49-10h2.67l2.51,10c.45,2,.87,4.09,1.31,6.18h.13c.32-2.09.66-4.16,1-6.18l1.84-10h2.91l-3.8,19.28H24.51l-2.59-10.71c-.34-1.52-.63-3-.89-4.43h-.14c-.26,1.46-.57,2.91-.89,4.43l-2.54,10.71H13.79Z"/><path class="cls-5" d="M34.54,156.33a1.77,1.77,0,0,1,1.91-1.78,1.78,1.78,0,1,1-1.91,1.78Zm.42,4.48h3v14.41H35Z"/><path class="cls-5" d="M42.48,160.81h2.46l.24,2.59h.08c1-1.86,2.54-3,4.08-3a3.61,3.61,0,0,1,1.63.32l-.55,2.62a4.23,4.23,0,0,0-1.44-.24c-1.18,0-2.6.81-3.51,3.09v9h-3Z"/><path class="cls-5" d="M51.88,168c0-4.69,3.2-7.6,6.58-7.6,3.82,0,5.87,2.75,5.87,6.84a7.66,7.66,0,0,1-.13,1.52H54.84c.24,2.75,2,4.4,4.46,4.4a6.13,6.13,0,0,0,3.43-1.07L63.78,174a8.77,8.77,0,0,1-4.88,1.52C55,175.56,51.88,172.78,51.88,168Zm9.85-1.31c0-2.49-1.12-3.93-3.22-3.93-1.81,0-3.4,1.39-3.69,3.93Z"/><path class="cls-5" d="M67.7,171.84v-17.5h3V172c0,.81.37,1.1.74,1.1a2.13,2.13,0,0,0,.49,0l.4,2.28a4.92,4.92,0,0,1-1.63.23C68.52,175.56,67.7,174.17,67.7,171.84Z"/><path class="cls-5" d="M74.49,168c0-4.69,3.2-7.6,6.58-7.6,3.82,0,5.86,2.75,5.86,6.84a7.66,7.66,0,0,1-.13,1.52H77.45c.24,2.75,2,4.4,4.45,4.4a6.14,6.14,0,0,0,3.44-1.07l1,1.91a8.71,8.71,0,0,1-4.87,1.52C77.61,175.56,74.49,172.78,74.49,168Zm9.85-1.31c0-2.49-1.13-3.93-3.22-3.93-1.81,0-3.41,1.39-3.7,3.93Z"/><path class="cls-5" d="M88.79,173.57l1.42-1.94a6.38,6.38,0,0,0,4.08,1.65c1.73,0,2.54-.84,2.54-1.94,0-1.31-1.62-1.88-3.19-2.49-1.91-.73-4.11-1.75-4.11-4.19s1.93-4.22,5.1-4.22a7.57,7.57,0,0,1,4.69,1.71L97.91,164a5.37,5.37,0,0,0-3.22-1.26c-1.58,0-2.31.79-2.31,1.78,0,1.23,1.49,1.7,3.07,2.28,2,.76,4.24,1.65,4.24,4.38,0,2.41-1.91,4.37-5.47,4.37A8.88,8.88,0,0,1,88.79,173.57Z"/><path class="cls-5" d="M101.37,173.57l1.41-1.94a6.39,6.39,0,0,0,4.09,1.65c1.73,0,2.54-.84,2.54-1.94,0-1.31-1.63-1.88-3.2-2.49-1.91-.73-4.11-1.75-4.11-4.19s1.94-4.22,5.11-4.22a7.57,7.57,0,0,1,4.69,1.71L110.48,164a5.32,5.32,0,0,0-3.22-1.26c-1.57,0-2.31.79-2.31,1.78,0,1.23,1.5,1.7,3.07,2.28,2,.76,4.24,1.65,4.24,4.38,0,2.41-1.91,4.37-5.47,4.37A8.85,8.85,0,0,1,101.37,173.57Z"/><path class="cls-5" d="M114.7,166.71h6.92v2.22H114.7Z"/><path class="cls-5" d="M125.1,160.81h2.46l.24,2h.08a6.86,6.86,0,0,1,4.76-2.36c3.07,0,4.43,2.05,4.43,5.72v9.06h-3v-8.7c0-2.49-.74-3.48-2.44-3.48-1.33,0-2.25.68-3.54,2v10.22h-3Z"/><path class="cls-5" d="M140.42,168c0-4.69,3.2-7.6,6.58-7.6,3.82,0,5.87,2.75,5.87,6.84a8.51,8.51,0,0,1-.13,1.52h-9.36c.24,2.75,2,4.4,4.46,4.4a6.13,6.13,0,0,0,3.43-1.07l1,1.91a8.77,8.77,0,0,1-4.88,1.52C143.54,175.56,140.42,172.78,140.42,168Zm9.85-1.31c0-2.49-1.12-3.93-3.22-3.93-1.81,0-3.41,1.39-3.69,3.93Z"/><path class="cls-5" d="M156.43,170.5v-7.28h-2.1V161l2.23-.16.34-4h2.54v4h3.75v2.41h-3.75v7.31c0,1.73.6,2.62,2.1,2.62a4.38,4.38,0,0,0,1.54-.34l.55,2.23a9.26,9.26,0,0,1-2.83.52C157.55,175.56,156.43,173.54,156.43,170.5Z"/><path class="cls-5" d="M164.76,160.81h3l1.91,7.81c.29,1.39.52,2.72.79,4.09h.1c.31-1.37.6-2.73.94-4.09l2-7.81h2.8l2.07,7.81c.34,1.39.63,2.72,1,4.09h.11c.29-1.37.52-2.7.84-4.09l1.86-7.81H185l-3.72,14.41H177.7l-1.83-7.13c-.34-1.36-.61-2.67-.92-4.16h-.13c-.29,1.49-.55,2.83-.92,4.19l-1.75,7.1h-3.49Z"/><path class="cls-5" d="M186.84,168c0-4.82,3.22-7.6,6.79-7.6s6.78,2.78,6.78,7.6-3.22,7.52-6.78,7.52S186.84,172.81,186.84,168Zm10.48,0c0-3.06-1.41-5.11-3.69-5.11S190,165,190,168s1.41,5.06,3.67,5.06S197.32,171.08,197.32,168Z"/><path class="cls-5" d="M204,160.81h2.46l.24,2.59h.07c1-1.86,2.55-3,4.09-3a3.61,3.61,0,0,1,1.63.32l-.55,2.62a4.24,4.24,0,0,0-1.45-.24c-1.17,0-2.59.81-3.51,3.09v9h-3Z"/><path class="cls-5" d="M214.66,154.34h2.94v13.47h.07l5.66-7h3.33l-4.9,5.84,5.45,8.57h-3.28L220,168.7l-2.43,2.8v3.72h-2.94Z"/><path class="cls-5" d="M234.78,171.39c0-3.09,2.62-4.68,8.62-5.34,0-1.68-.63-3.14-2.75-3.14a8,8,0,0,0-4.17,1.46l-1.13-2a11.12,11.12,0,0,1,5.82-1.89c3.59,0,5.24,2.28,5.24,6.11v8.67H244l-.26-1.65h-.08a7.16,7.16,0,0,1-4.59,2A4,4,0,0,1,234.78,171.39Zm8.62.11V168c-4.27.53-5.71,1.6-5.71,3.23,0,1.41,1,2,2.25,2A5.1,5.1,0,0,0,243.4,171.5Z"/><path class="cls-5" d="M250.68,160.81h2.46l.24,2h.08a6.86,6.86,0,0,1,4.76-2.36c3.07,0,4.43,2.05,4.43,5.72v9.06h-3v-8.7c0-2.49-.73-3.48-2.44-3.48-1.33,0-2.25.68-3.53,2v10.22h-3Z"/><path class="cls-5" d="M266.06,168c0-4.69,3-7.6,6.18-7.6a5.55,5.55,0,0,1,3.88,1.63l-.13-2.39v-5.34h3v20.88h-2.46l-.27-1.62h-.08a6,6,0,0,1-4.19,2C268.39,175.56,266.06,172.81,266.06,168Zm9.93,3.28v-7a4.54,4.54,0,0,0-3.18-1.31c-2,0-3.64,1.91-3.64,5s1.29,5.08,3.54,5.08A4.25,4.25,0,0,0,276,171.32Z"/><path class="cls-5" d="M288.64,165.63c0-6.29,3.82-10.06,8.69-10.06a7.42,7.42,0,0,1,5.48,2.44L301.16,160a5.1,5.1,0,0,0-3.77-1.73c-3.33,0-5.64,2.77-5.64,7.31s2.15,7.38,5.56,7.38a5.61,5.61,0,0,0,4.27-2l1.62,1.91a7.58,7.58,0,0,1-6,2.78C292.36,175.56,288.64,172,288.64,165.63Z"/><path class="cls-5" d="M306.34,171.84v-17.5h3V172c0,.81.37,1.1.73,1.1a2.16,2.16,0,0,0,.5,0l.39,2.28a4.85,4.85,0,0,1-1.62.23C307.16,175.56,306.34,174.17,306.34,171.84Z"/><path class="cls-5" d="M313.13,168c0-4.82,3.22-7.6,6.78-7.6s6.79,2.78,6.79,7.6-3.22,7.52-6.79,7.52S313.13,172.81,313.13,168Zm10.48,0c0-3.06-1.42-5.11-3.7-5.11s-3.66,2-3.66,5.11,1.41,5.06,3.66,5.06S323.61,171.08,323.61,168Z"/><path class="cls-5" d="M330.05,169.88v-9.07h3v8.7c0,2.49.71,3.46,2.41,3.46,1.34,0,2.26-.63,3.46-2.15v-10h3v14.41h-2.46l-.23-2.17h-.08a6,6,0,0,1-4.72,2.51C331.39,175.56,330.05,173.54,330.05,169.88Z"/><path class="cls-5" d="M345.51,168c0-4.69,3-7.6,6.18-7.6a5.55,5.55,0,0,1,3.88,1.63l-.13-2.39v-5.34h3v20.88H356l-.27-1.62h-.08a6,6,0,0,1-4.19,2C347.84,175.56,345.51,172.81,345.51,168Zm9.93,3.28v-7a4.53,4.53,0,0,0-3.17-1.31c-2,0-3.65,1.91-3.65,5s1.29,5.08,3.54,5.08A4.25,4.25,0,0,0,355.44,171.32Z"/><path class="cls-5" d="M361.93,166.71h6.92v2.22h-6.92Z"/><path class="cls-5" d="M370.81,173.57l1.41-1.94a6.43,6.43,0,0,0,4.09,1.65c1.73,0,2.54-.84,2.54-1.94,0-1.31-1.62-1.88-3.19-2.49-1.92-.73-4.12-1.75-4.12-4.19s1.94-4.22,5.11-4.22a7.57,7.57,0,0,1,4.69,1.71L379.93,164a5.38,5.38,0,0,0-3.23-1.26c-1.57,0-2.3.79-2.3,1.78,0,1.23,1.49,1.7,3.06,2.28,2,.76,4.25,1.65,4.25,4.38,0,2.41-1.91,4.37-5.48,4.37A8.88,8.88,0,0,1,370.81,173.57Z"/><path class="cls-5" d="M383.88,168c0-4.69,3.2-7.6,6.58-7.6,3.82,0,5.87,2.75,5.87,6.84a7.56,7.56,0,0,1-.14,1.52h-9.35c.24,2.75,2,4.4,4.46,4.4a6.13,6.13,0,0,0,3.43-1.07l1,1.91a8.77,8.77,0,0,1-4.88,1.52C387,175.56,383.88,172.78,383.88,168Zm9.85-1.31c0-2.49-1.12-3.93-3.22-3.93-1.81,0-3.41,1.39-3.69,3.93Z"/><path class="cls-5" d="M399.7,160.81h2.47l.23,2.59h.08c1-1.86,2.54-3,4.09-3a3.56,3.56,0,0,1,1.62.32l-.55,2.62a4.18,4.18,0,0,0-1.44-.24c-1.18,0-2.59.81-3.51,3.09v9h-3Z"/><path class="cls-5" d="M409.06,160.81h3.09l2.46,7.76c.39,1.41.84,2.88,1.26,4.29h.1c.42-1.41.87-2.88,1.26-4.29l2.46-7.76h2.94l-5,14.41h-3.49Z"/><path class="cls-5" d="M424.85,156.33a1.77,1.77,0,0,1,1.91-1.78,1.78,1.78,0,1,1-1.91,1.78Zm.42,4.48h3v14.41h-3Z"/><path class="cls-5" d="M431.77,168c0-4.82,3.32-7.6,7.12-7.6a6.22,6.22,0,0,1,4.22,1.65l-1.49,2a3.78,3.78,0,0,0-2.6-1.13c-2.41,0-4.14,2-4.14,5.11s1.65,5.06,4.06,5.06a5,5,0,0,0,3.15-1.31l1.23,2a7,7,0,0,1-4.66,1.78C434.75,175.56,431.77,172.81,431.77,168Z"/><path class="cls-5" d="M444.63,168c0-4.69,3.19-7.6,6.57-7.6,3.83,0,5.87,2.75,5.87,6.84a7.66,7.66,0,0,1-.13,1.52h-9.35c.23,2.75,2,4.4,4.45,4.4a6.08,6.08,0,0,0,3.43-1.07l1,1.91a8.71,8.71,0,0,1-4.87,1.52C447.75,175.56,444.63,172.78,444.63,168Zm9.85-1.31c0-2.49-1.13-3.93-3.22-3.93-1.81,0-3.41,1.39-3.7,3.93Z"/><path class="cls-5" d="M465.56,165.63c0-6.29,3.82-10.06,8.7-10.06a7.4,7.4,0,0,1,5.47,2.44L478.08,160a5.09,5.09,0,0,0-3.77-1.73c-3.33,0-5.63,2.77-5.63,7.31s2.14,7.38,5.55,7.38a5.61,5.61,0,0,0,4.27-2l1.62,1.91a7.58,7.58,0,0,1-6,2.78C469.28,175.56,465.56,172,465.56,165.63Z"/><path class="cls-5" d="M482.24,168c0-4.82,3.23-7.6,6.79-7.6s6.78,2.78,6.78,7.6-3.22,7.52-6.78,7.52S482.24,172.81,482.24,168Zm10.48,0c0-3.06-1.41-5.11-3.69-5.11s-3.67,2-3.67,5.11,1.42,5.06,3.67,5.06S492.72,171.08,492.72,168Z"/><path class="cls-5" d="M499.35,160.81h2.46l.24,2h.08a6.86,6.86,0,0,1,4.76-2.36c3.07,0,4.43,2.05,4.43,5.72v9.06h-3v-8.7c0-2.49-.73-3.48-2.44-3.48-1.33,0-2.25.68-3.53,2v10.22h-3Z"/><path class="cls-5" d="M516.17,170.5v-7.28h-2.1V161l2.23-.16.34-4h2.54v4h3.75v2.41h-3.75v7.31c0,1.73.6,2.62,2.1,2.62a4.38,4.38,0,0,0,1.54-.34l.55,2.23a9.26,9.26,0,0,1-2.83.52C517.29,175.56,516.17,173.54,516.17,170.5Z"/><path class="cls-5" d="M526.07,160.81h2.46l.24,2.59h.08c1-1.86,2.54-3,4.08-3a3.61,3.61,0,0,1,1.63.32l-.55,2.62a4.23,4.23,0,0,0-1.44-.24c-1.18,0-2.6.81-3.51,3.09v9h-3Z"/><path class="cls-5" d="M535.21,171.39c0-3.09,2.62-4.68,8.62-5.34,0-1.68-.63-3.14-2.75-3.14a8,8,0,0,0-4.17,1.46l-1.12-2a11.05,11.05,0,0,1,5.81-1.89c3.59,0,5.24,2.28,5.24,6.11v8.67h-2.46l-.26-1.65H544a7.16,7.16,0,0,1-4.59,2A4,4,0,0,1,535.21,171.39Zm8.62.11V168c-4.27.53-5.71,1.6-5.71,3.23,0,1.41,1,2,2.25,2A5.1,5.1,0,0,0,543.83,171.5Z"/><path class="cls-5" d="M550.09,168c0-4.82,3.33-7.6,7.13-7.6a6.19,6.19,0,0,1,4.21,1.65l-1.49,2a3.76,3.76,0,0,0-2.59-1.13c-2.41,0-4.14,2-4.14,5.11s1.65,5.06,4.06,5.06a5,5,0,0,0,3.14-1.31l1.23,2a7,7,0,0,1-4.66,1.78C553.08,175.56,550.09,172.81,550.09,168Z"/><path class="cls-5" d="M564.84,170.5v-7.28h-2.1V161l2.23-.16.34-4h2.54v4h3.75v2.41h-3.75v7.31c0,1.73.6,2.62,2.1,2.62a4.38,4.38,0,0,0,1.54-.34L572,175a9.26,9.26,0,0,1-2.83.52C566,175.56,564.84,173.54,564.84,170.5Z"/><path class="cls-5" d="M572.93,173.57l1.42-1.94a6.38,6.38,0,0,0,4.08,1.65c1.73,0,2.55-.84,2.55-1.94,0-1.31-1.63-1.88-3.2-2.49-1.91-.73-4.11-1.75-4.11-4.19s1.94-4.22,5.11-4.22a7.59,7.59,0,0,1,4.69,1.71L582.05,164a5.35,5.35,0,0,0-3.22-1.26c-1.57,0-2.31.79-2.31,1.78,0,1.23,1.5,1.7,3.07,2.28,2,.76,4.24,1.65,4.24,4.38,0,2.41-1.91,4.37-5.47,4.37A8.9,8.9,0,0,1,572.93,173.57Z"/><rect class="cls-3" x="364.53" y="192.22" width="357.81" height="39.54" rx="3.24"/><rect class="cls-6" x="364.53" y="192.22" width="357.81" height="39.54" rx="3.24"/><path class="cls-5" d="M376.08,220.53l2-2.4a8.56,8.56,0,0,0,5.88,2.61c2.67,0,4.17-1.26,4.17-3.12,0-2-1.5-2.64-3.54-3.54l-3.06-1.32c-2.13-.9-4.5-2.58-4.5-5.79,0-3.48,3.06-6.09,7.26-6.09a9.46,9.46,0,0,1,6.69,2.79l-1.83,2.22a7,7,0,0,0-4.86-2c-2.25,0-3.72,1.08-3.72,2.85s1.77,2.61,3.57,3.33l3,1.29c2.61,1.11,4.5,2.73,4.5,6,0,3.54-2.94,6.42-7.77,6.42A11,11,0,0,1,376.08,220.53Z"/><path class="cls-5" d="M394.41,215.16c0-5.37,3.66-8.7,7.53-8.7,4.38,0,6.72,3.15,6.72,7.83a8.92,8.92,0,0,1-.15,1.74H397.8c.27,3.15,2.25,5,5.1,5a7,7,0,0,0,3.93-1.23L408,222a10,10,0,0,1-5.58,1.74C398,223.77,394.41,220.59,394.41,215.16Zm11.28-1.5c0-2.85-1.29-4.5-3.69-4.5-2.07,0-3.9,1.59-4.23,4.5Z"/><path class="cls-5" d="M412.53,219.51v-20H416v20.22c0,.93.42,1.26.84,1.26a2.44,2.44,0,0,0,.57-.06l.45,2.61a5.54,5.54,0,0,1-1.86.27C413.46,223.77,412.53,222.18,412.53,219.51Z"/><path class="cls-5" d="M420.3,215.16c0-5.37,3.65-8.7,7.53-8.7,4.37,0,6.71,3.15,6.71,7.83a8.92,8.92,0,0,1-.15,1.74H423.68c.27,3.15,2.25,5,5.1,5a7,7,0,0,0,3.93-1.23l1.21,2.19a10,10,0,0,1-5.58,1.74C423.86,223.77,420.3,220.59,420.3,215.16Zm11.27-1.5c0-2.85-1.29-4.5-3.68-4.5-2.08,0-3.9,1.59-4.23,4.5Z"/><path class="cls-5" d="M437.25,215.16c0-5.52,3.81-8.7,8.15-8.7a7.06,7.06,0,0,1,4.83,1.89l-1.71,2.25a4.32,4.32,0,0,0-3-1.29c-2.76,0-4.74,2.34-4.74,5.85s1.89,5.79,4.65,5.79a5.63,5.63,0,0,0,3.6-1.5l1.41,2.28a8,8,0,0,1-5.34,2C440.67,223.77,437.25,220.62,437.25,215.16Z"/><path class="cls-5" d="M454.14,218v-8.34h-2.4v-2.58l2.54-.18.4-4.56h2.91v4.56h4.28v2.76h-4.28V218c0,2,.68,3,2.39,3a5,5,0,0,0,1.78-.39l.62,2.55a10.5,10.5,0,0,1-3.24.6C455.43,223.77,454.14,221.46,454.14,218Z"/><path class="cls-5" d="M465,201.75a2,2,0,0,1,2.18-2,2,2,0,1,1-2.18,2Zm.47,5.13h3.42v16.5h-3.42Z"/><path class="cls-5" d="M472.91,215.16c0-5.52,3.69-8.7,7.77-8.7s7.77,3.18,7.77,8.7-3.69,8.61-7.77,8.61S472.91,220.62,472.91,215.16Zm12,0c0-3.51-1.62-5.85-4.23-5.85s-4.2,2.34-4.2,5.85,1.62,5.79,4.2,5.79S484.91,218.64,484.91,215.16Z"/><path class="cls-5" d="M492.5,206.88h2.82l.27,2.28h.09c1.53-1.47,3.21-2.7,5.46-2.7,3.51,0,5.07,2.34,5.07,6.54v10.38h-3.45v-10c0-2.85-.84-4-2.79-4-1.53,0-2.58.78-4.05,2.25v11.7H492.5Z"/><path class="cls-5" d="M516.8,215.16c0-5.52,3.69-8.7,7.77-8.7s7.77,3.18,7.77,8.7-3.69,8.61-7.77,8.61S516.8,220.62,516.8,215.16Zm12,0c0-3.51-1.62-5.85-4.23-5.85s-4.2,2.34-4.2,5.85S522,221,524.57,221,528.8,218.64,528.8,215.16Z"/><path class="cls-5" d="M544.31,202.23a4.49,4.49,0,0,0-1.8-.42c-1.47,0-2.19,1-2.19,3v2.1h3.33v2.76h-3.33v13.74h-3.45V209.64h-2.25v-2.58l2.25-.18v-2.07c0-3.39,1.53-5.73,5.22-5.73a7.49,7.49,0,0,1,2.91.57Z"/><path class="cls-5" d="M552.92,201.75a2,2,0,0,1,2.19-2,2,2,0,1,1-2.19,2Zm.48,5.13h3.42v16.5H553.4Z"/><path class="cls-5" d="M562,206.88h2.82l.27,2.28h.09c1.53-1.47,3.21-2.7,5.46-2.7,3.51,0,5.07,2.34,5.07,6.54v10.38h-3.45v-10c0-2.85-.84-4-2.79-4-1.53,0-2.58.78-4.05,2.25v11.7H562Z"/><path class="cls-5" d="M581.27,218v-8.34h-2.4v-2.58l2.55-.18.39-4.56h2.91v4.56H589v2.76h-4.29V218c0,2,.69,3,2.4,3a4.92,4.92,0,0,0,1.77-.39l.63,2.55a10.56,10.56,0,0,1-3.24.6C582.56,223.77,581.27,221.46,581.27,218Z"/><path class="cls-5" d="M590.93,215.16c0-5.37,3.66-8.7,7.53-8.7,4.38,0,6.72,3.15,6.72,7.83A8.92,8.92,0,0,1,605,216H594.32c.27,3.15,2.25,5,5.1,5a7,7,0,0,0,3.93-1.23l1.2,2.19a10,10,0,0,1-5.58,1.74C594.5,223.77,590.93,220.59,590.93,215.16Zm11.28-1.5c0-2.85-1.29-4.5-3.69-4.5-2.07,0-3.9,1.59-4.23,4.5Z"/><path class="cls-5" d="M607.52,226.44a4.36,4.36,0,0,1,2.4-3.6v-.15a3,3,0,0,1-1.5-2.73,4.07,4.07,0,0,1,1.83-3.06v-.12a5.65,5.65,0,0,1-2.16-4.38c0-3.75,3-5.94,6.39-5.94a6.88,6.88,0,0,1,2.4.42h5.85v2.58h-3.15a4.46,4.46,0,0,1,1.08,3c0,3.6-2.73,5.67-6.18,5.67a5.74,5.74,0,0,1-2.31-.51,2.19,2.19,0,0,0-.9,1.74c0,1,.66,1.62,2.76,1.62h3c3.9,0,5.94,1.2,5.94,4,0,3.18-3.36,5.76-8.64,5.76C610.4,230.79,607.52,229.32,607.52,226.44Zm12.15-.87c0-1.38-1.08-1.8-3.09-1.8h-2.49a10.49,10.49,0,0,1-2.22-.24,3,3,0,0,0-1.41,2.4c0,1.62,1.68,2.58,4.41,2.58S619.67,227.1,619.67,225.57ZM617.6,212.4c0-2.22-1.38-3.51-3.12-3.51s-3.12,1.26-3.12,3.51,1.41,3.54,3.12,3.54S617.6,214.59,617.6,212.4Z"/><path class="cls-5" d="M626.06,206.88h2.82l.27,3h.09c1.17-2.13,2.91-3.39,4.68-3.39a4.1,4.1,0,0,1,1.86.36l-.63,3a4.88,4.88,0,0,0-1.65-.27c-1.35,0-3,.93-4,3.54v10.29h-3.42Z"/><path class="cls-5" d="M636.53,219c0-3.54,3-5.37,9.87-6.12,0-1.92-.72-3.6-3.15-3.6a9.07,9.07,0,0,0-4.77,1.68l-1.29-2.34a12.64,12.64,0,0,1,6.66-2.16c4.11,0,6,2.61,6,7v9.93H647l-.3-1.89h-.09a8.2,8.2,0,0,1-5.25,2.28A4.56,4.56,0,0,1,636.53,219Zm9.87.12v-4.05c-4.89.6-6.54,1.83-6.54,3.69,0,1.62,1.11,2.28,2.58,2.28A5.82,5.82,0,0,0,646.4,219.12Z"/><path class="cls-5" d="M654.77,218v-8.34h-2.4v-2.58l2.55-.18.39-4.56h2.91v4.56h4.29v2.76h-4.29V218c0,2,.69,3,2.4,3a4.92,4.92,0,0,0,1.77-.39l.63,2.55a10.56,10.56,0,0,1-3.24.6C656.06,223.77,654.77,221.46,654.77,218Z"/><path class="cls-5" d="M664.43,215.16c0-5.52,3.69-8.7,7.77-8.7s7.77,3.18,7.77,8.7-3.69,8.61-7.77,8.61S664.43,220.62,664.43,215.16Zm12,0c0-3.51-1.62-5.85-4.23-5.85s-4.2,2.34-4.2,5.85,1.62,5.79,4.2,5.79S676.43,218.64,676.43,215.16Z"/><path class="cls-5" d="M684,206.88h2.82l.27,3h.09c1.17-2.13,2.91-3.39,4.68-3.39a4.1,4.1,0,0,1,1.86.36l-.63,3a4.88,4.88,0,0,0-1.65-.27c-1.35,0-3,.93-4,3.54v10.29H684Z"/><path class="cls-5" d="M694.37,221.49l1.62-2.22a7.31,7.31,0,0,0,4.68,1.89c2,0,2.91-1,2.91-2.22,0-1.5-1.86-2.16-3.66-2.85-2.19-.84-4.71-2-4.71-4.8s2.22-4.83,5.85-4.83a8.69,8.69,0,0,1,5.37,1.95l-1.62,2.13a6.17,6.17,0,0,0-3.69-1.44c-1.8,0-2.64.9-2.64,2,0,1.41,1.71,2,3.51,2.61,2.31.87,4.86,1.89,4.86,5,0,2.76-2.19,5-6.27,5A10.15,10.15,0,0,1,694.37,221.49Z"/><rect class="cls-3" x="108.14" y="246.22" width="467.5" height="35.82" rx="3.02"/><rect class="cls-7" x="108.14" y="246.22" width="467.5" height="35.82" rx="3.02"/><path class="cls-5" d="M120.64,272.35l1.87-2.21a7.86,7.86,0,0,0,5.4,2.4c2.45,0,3.83-1.16,3.83-2.87s-1.38-2.42-3.25-3.25l-2.81-1.21c-2-.82-4.13-2.37-4.13-5.31,0-3.2,2.81-5.59,6.66-5.59a8.67,8.67,0,0,1,6.14,2.56l-1.67,2a6.48,6.48,0,0,0-4.47-1.82c-2.06,0-3.41,1-3.41,2.61s1.62,2.4,3.28,3.06l2.78,1.19c2.39,1,4.13,2.5,4.13,5.48,0,3.25-2.7,5.89-7.14,5.89A10.1,10.1,0,0,1,120.64,272.35Z"/><path class="cls-5" d="M137.47,267.42c0-4.93,3.36-8,6.91-8,4,0,6.17,2.89,6.17,7.19a8.38,8.38,0,0,1-.13,1.59h-9.84c.25,2.9,2.07,4.63,4.69,4.63a6.4,6.4,0,0,0,3.6-1.13l1.1,2a9.13,9.13,0,0,1-5.12,1.6C140.75,275.32,137.47,272.4,137.47,267.42ZM147.83,266c0-2.62-1.19-4.13-3.39-4.13-1.9,0-3.58,1.46-3.88,4.13Z"/><path class="cls-5" d="M154.11,271.41V253h3.14v18.56c0,.86.39,1.16.77,1.16a2.35,2.35,0,0,0,.52-.05l.42,2.39a5.06,5.06,0,0,1-1.71.25C155,275.32,154.11,273.86,154.11,271.41Z"/><path class="cls-5" d="M161.25,267.42c0-4.93,3.35-8,6.91-8,4,0,6.17,2.89,6.17,7.19a8.27,8.27,0,0,1-.14,1.59h-9.83c.24,2.9,2.06,4.63,4.68,4.63a6.4,6.4,0,0,0,3.61-1.13l1.1,2a9.18,9.18,0,0,1-5.12,1.6C164.52,275.32,161.25,272.4,161.25,267.42ZM171.6,266c0-2.62-1.18-4.13-3.39-4.13-1.9,0-3.58,1.46-3.88,4.13Z"/><path class="cls-5" d="M176.81,267.42c0-5.07,3.5-8,7.49-8a6.55,6.55,0,0,1,4.44,1.73l-1.57,2.07a4,4,0,0,0-2.73-1.18c-2.53,0-4.35,2.14-4.35,5.37s1.73,5.31,4.27,5.31a5.15,5.15,0,0,0,3.3-1.38l1.3,2.1a7.39,7.39,0,0,1-4.91,1.87C180,275.32,176.81,272.43,176.81,267.42Z"/><path class="cls-5" d="M192.32,270v-7.66h-2.2V260l2.34-.17.36-4.18h2.67v4.18h3.94v2.54h-3.94V270c0,1.82.63,2.76,2.2,2.76a4.67,4.67,0,0,0,1.63-.36l.57,2.34a9.52,9.52,0,0,1-3,.55C193.5,275.32,192.32,273.2,192.32,270Z"/><path class="cls-5" d="M202.29,255.1a1.86,1.86,0,0,1,2-1.87,1.88,1.88,0,0,1,2,1.87,1.9,1.9,0,0,1-2,1.88A1.88,1.88,0,0,1,202.29,255.1Zm.44,4.71h3.14V275h-3.14Z"/><path class="cls-5" d="M209.57,267.42c0-5.07,3.38-8,7.13-8s7.13,2.92,7.13,8-3.39,7.9-7.13,7.9S209.57,272.43,209.57,267.42Zm11,0c0-3.23-1.48-5.37-3.88-5.37s-3.86,2.14-3.86,5.37,1.49,5.31,3.86,5.31S220.58,270.61,220.58,267.42Z"/><path class="cls-5" d="M227.55,259.81h2.59l.25,2.1h.08c1.41-1.35,2.95-2.48,5-2.48,3.22,0,4.65,2.15,4.65,6V275H237v-9.14c0-2.62-.77-3.66-2.56-3.66-1.4,0-2.37.71-3.72,2.06V275h-3.14Z"/><path class="cls-5" d="M249.87,267.42c0-5.07,3.39-8,7.13-8s7.14,2.92,7.14,8-3.39,7.9-7.14,7.9S249.87,272.43,249.87,267.42Zm11,0c0-3.23-1.49-5.37-3.89-5.37s-3.85,2.14-3.85,5.37,1.48,5.31,3.85,5.31S260.89,270.61,260.89,267.42Z"/><path class="cls-5" d="M275.13,255.55a4.09,4.09,0,0,0-1.65-.39c-1.35,0-2,.88-2,2.73v1.92h3v2.54h-3V275H268.3V262.35h-2.07V260l2.07-.17v-1.9c0-3.11,1.4-5.26,4.79-5.26a6.74,6.74,0,0,1,2.67.53Z"/><path class="cls-5" d="M281.88,273.23l1.49-2a6.72,6.72,0,0,0,4.29,1.73c1.82,0,2.68-.88,2.68-2,0-1.38-1.71-2-3.36-2.62-2-.77-4.33-1.85-4.33-4.41s2-4.43,5.37-4.43a8,8,0,0,1,4.93,1.79l-1.48,1.95a5.71,5.71,0,0,0-3.39-1.32c-1.65,0-2.43.83-2.43,1.87,0,1.3,1.57,1.8,3.23,2.4,2.12.8,4.46,1.74,4.46,4.6,0,2.54-2,4.6-5.76,4.6A9.33,9.33,0,0,1,281.88,273.23Z"/><path class="cls-5" d="M295.63,267.42c0-4.93,3.36-8,6.91-8,4,0,6.17,2.89,6.17,7.19a8.27,8.27,0,0,1-.14,1.59h-9.83c.25,2.9,2.07,4.63,4.68,4.63a6.4,6.4,0,0,0,3.61-1.13l1.1,2a9.15,9.15,0,0,1-5.12,1.6C298.9,275.32,295.63,272.4,295.63,267.42ZM306,266c0-2.62-1.18-4.13-3.38-4.13-1.91,0-3.59,1.46-3.89,4.13Z"/><path class="cls-5" d="M312.27,259.81h2.58l.25,2.1h.08c1.41-1.35,2.95-2.48,5-2.48,3.22,0,4.65,2.15,4.65,6V275h-3.17v-9.14c0-2.62-.77-3.66-2.56-3.66-1.4,0-2.36.71-3.71,2.06V275h-3.14Z"/><path class="cls-5" d="M327.86,273.23l1.49-2a6.72,6.72,0,0,0,4.29,1.73c1.82,0,2.67-.88,2.67-2,0-1.38-1.7-2-3.36-2.62-2-.77-4.32-1.85-4.32-4.41s2-4.43,5.37-4.43a8,8,0,0,1,4.93,1.79l-1.49,1.95a5.65,5.65,0,0,0-3.38-1.32c-1.66,0-2.43.83-2.43,1.87,0,1.3,1.57,1.8,3.22,2.4,2.12.8,4.47,1.74,4.47,4.6,0,2.54-2,4.6-5.76,4.6A9.33,9.33,0,0,1,327.86,273.23Z"/><path class="cls-5" d="M341.61,267.42c0-5.07,3.38-8,7.13-8s7.13,2.92,7.13,8-3.39,7.9-7.13,7.9S341.61,272.43,341.61,267.42Zm11,0c0-3.23-1.48-5.37-3.88-5.37s-3.86,2.14-3.86,5.37,1.49,5.31,3.86,5.31S352.62,270.61,352.62,267.42Z"/><path class="cls-5" d="M359.59,259.81h2.59l.25,2.73h.08c1.08-2,2.68-3.11,4.3-3.11a3.8,3.8,0,0,1,1.71.33l-.58,2.75a4.6,4.6,0,0,0-1.51-.24c-1.24,0-2.73.85-3.7,3.25V275h-3.14Z"/><path class="cls-5" d="M369.1,273.23l1.49-2a6.72,6.72,0,0,0,4.29,1.73c1.82,0,2.68-.88,2.68-2,0-1.38-1.71-2-3.37-2.62-2-.77-4.32-1.85-4.32-4.41s2-4.43,5.37-4.43a8,8,0,0,1,4.93,1.79l-1.49,1.95a5.65,5.65,0,0,0-3.38-1.32c-1.66,0-2.43.83-2.43,1.87,0,1.3,1.57,1.8,3.23,2.4,2.12.8,4.46,1.74,4.46,4.6,0,2.54-2,4.6-5.76,4.6A9.33,9.33,0,0,1,369.1,273.23Z"/><path class="cls-5" d="M389.24,270.94c0-3.25,2.75-4.93,9.06-5.62,0-1.76-.66-3.3-2.89-3.3a8.28,8.28,0,0,0-4.38,1.54l-1.19-2.15a11.62,11.62,0,0,1,6.12-2c3.77,0,5.51,2.39,5.51,6.42V275h-2.59l-.28-1.73h-.08a7.55,7.55,0,0,1-4.82,2.09A4.18,4.18,0,0,1,389.24,270.94Zm9.06.11v-3.72c-4.49.55-6,1.68-6,3.39,0,1.49,1,2.09,2.37,2.09A5.35,5.35,0,0,0,398.3,271.05Z"/><path class="cls-5" d="M406,259.81h2.59l.25,2.1h.08c1.4-1.35,2.95-2.48,5-2.48,3.22,0,4.66,2.15,4.66,6V275h-3.17v-9.14c0-2.62-.77-3.66-2.56-3.66-1.41,0-2.37.71-3.72,2.06V275H406Z"/><path class="cls-5" d="M422.13,267.42c0-4.93,3.11-8,6.5-8a5.83,5.83,0,0,1,4.08,1.71l-.14-2.51V253h3.17V275h-2.59l-.28-1.7h-.08a6.38,6.38,0,0,1-4.41,2.06C424.58,275.32,422.13,272.43,422.13,267.42Zm10.44,3.44v-7.41a4.74,4.74,0,0,0-3.33-1.38c-2.12,0-3.83,2-3.83,5.29,0,3.44,1.35,5.34,3.72,5.34A4.44,4.44,0,0,0,432.57,270.86Z"/><path class="cls-5" d="M445.6,277.77a4,4,0,0,1,2.21-3.3v-.14a2.78,2.78,0,0,1-1.38-2.51,3.74,3.74,0,0,1,1.68-2.81v-.11a5.19,5.19,0,0,1-2-4c0-3.44,2.73-5.45,5.87-5.45a6.25,6.25,0,0,1,2.2.38h5.37v2.37h-2.89a4.11,4.11,0,0,1,1,2.79c0,3.3-2.5,5.2-5.67,5.2a5.14,5.14,0,0,1-2.12-.47,2,2,0,0,0-.83,1.6c0,.91.61,1.49,2.54,1.49h2.78c3.58,0,5.45,1.1,5.45,3.69,0,2.92-3.08,5.28-7.93,5.28C448.25,281.76,445.6,280.42,445.6,277.77Zm11.16-.8c0-1.26-1-1.65-2.84-1.65h-2.29a9.43,9.43,0,0,1-2-.22,2.72,2.72,0,0,0-1.3,2.2c0,1.49,1.54,2.37,4.05,2.37S456.76,278.38,456.76,277Zm-1.9-12.09a2.9,2.9,0,0,0-2.87-3.22c-1.6,0-2.86,1.16-2.86,3.22a2.89,2.89,0,1,0,5.73,0Z"/><path class="cls-5" d="M461.22,270.94c0-3.25,2.75-4.93,9.06-5.62,0-1.76-.66-3.3-2.89-3.3a8.31,8.31,0,0,0-4.38,1.54l-1.18-2.15a11.61,11.61,0,0,1,6.11-2c3.77,0,5.51,2.39,5.51,6.42V275h-2.59l-.27-1.73h-.09a7.53,7.53,0,0,1-4.82,2.09A4.19,4.19,0,0,1,461.22,270.94Zm9.06.11v-3.72c-4.49.55-6,1.68-6,3.39,0,1.49,1,2.09,2.37,2.09A5.33,5.33,0,0,0,470.28,271.05Z"/><path class="cls-5" d="M478,270v-7.66h-2.2V260l2.34-.17.36-4.18h2.67v4.18h3.94v2.54h-3.94V270c0,1.82.63,2.76,2.2,2.76a4.67,4.67,0,0,0,1.63-.36l.57,2.34a9.52,9.52,0,0,1-3,.55C479.15,275.32,478,273.2,478,270Z"/><path class="cls-5" d="M486.84,267.42c0-4.93,3.36-8,6.91-8,4,0,6.17,2.89,6.17,7.19a8.38,8.38,0,0,1-.13,1.59H490c.25,2.9,2.07,4.63,4.69,4.63a6.4,6.4,0,0,0,3.6-1.13l1.11,2a9.18,9.18,0,0,1-5.13,1.6C490.12,275.32,486.84,272.4,486.84,267.42ZM497.2,266c0-2.62-1.19-4.13-3.39-4.13-1.9,0-3.58,1.46-3.88,4.13Z"/><path class="cls-5" d="M501.83,259.81H505l2,8.21c.31,1.46.55,2.87.83,4.3H508c.33-1.43.63-2.87,1-4.3l2.12-8.21H514L516.2,268c.36,1.46.67,2.87,1,4.3h.11c.31-1.43.56-2.84.89-4.3l1.95-8.21h3L519.23,275h-3.8l-1.92-7.49c-.36-1.43-.64-2.81-1-4.38h-.14c-.3,1.57-.57,3-1,4.41L509.6,275h-3.67Z"/><path class="cls-5" d="M525.11,270.94c0-3.25,2.75-4.93,9.06-5.62,0-1.76-.66-3.3-2.89-3.3a8.28,8.28,0,0,0-4.38,1.54l-1.19-2.15a11.62,11.62,0,0,1,6.12-2c3.77,0,5.51,2.39,5.51,6.42V275h-2.59l-.28-1.73h-.08a7.55,7.55,0,0,1-4.82,2.09A4.18,4.18,0,0,1,525.11,270.94Zm9.06.11v-3.72c-4.49.55-6,1.68-6,3.39,0,1.49,1,2.09,2.37,2.09A5.35,5.35,0,0,0,534.17,271.05Z"/><path class="cls-5" d="M548.49,275.87c-1.18,3.25-2.78,5.43-6,5.43a5.21,5.21,0,0,1-1.9-.31l.6-2.48a3.89,3.89,0,0,0,1.1.23c1.66,0,2.62-1.22,3.17-2.84l.3-1-6-15H543l2.81,7.8c.44,1.35.91,2.86,1.38,4.27h.13l1.19-4.27,2.42-7.8h3.09Z"/><path class="cls-5" d="M555.22,273.23l1.48-2a6.75,6.75,0,0,0,4.3,1.73c1.82,0,2.67-.88,2.67-2,0-1.38-1.71-2-3.36-2.62-2-.77-4.32-1.85-4.32-4.41s2-4.43,5.37-4.43a8,8,0,0,1,4.93,1.79l-1.49,1.95a5.66,5.66,0,0,0-3.39-1.32c-1.65,0-2.42.83-2.42,1.87,0,1.3,1.57,1.8,3.22,2.4,2.12.8,4.46,1.74,4.46,4.6,0,2.54-2,4.6-5.75,4.6A9.31,9.31,0,0,1,555.22,273.23Z"/><rect class="cls-3" x="0.5" y="83.16" width="348.18" height="31.86" rx="2.61"/><rect class="cls-8" x="0.5" y="83.16" width="348.18" height="31.86" rx="2.61"/><path class="cls-5" d="M6.74,94.52h7.4v1.65H8.72v3.48h4.59v1.67H8.72v4h5.6V107H6.74Z"/><path class="cls-5" d="M15.79,106l.92-1.26a4.13,4.13,0,0,0,2.65,1.07c1.12,0,1.65-.54,1.65-1.26s-1.06-1.22-2.08-1.61c-1.24-.48-2.67-1.14-2.67-2.72s1.26-2.74,3.32-2.74a4.87,4.87,0,0,1,3,1.11l-.92,1.2a3.52,3.52,0,0,0-2.09-.81c-1,0-1.49.51-1.49,1.15,0,.8,1,1.11,2,1.48,1.31.5,2.76,1.07,2.76,2.84,0,1.56-1.24,2.84-3.55,2.84A5.72,5.72,0,0,1,15.79,106Z"/><path class="cls-5" d="M24.87,104V99.24H23.51V97.78l1.44-.1.22-2.58h1.65v2.58h2.43v1.56H26.82V104c0,1.12.39,1.7,1.36,1.7a2.76,2.76,0,0,0,1-.23l.36,1.45a6,6,0,0,1-1.84.34C25.6,107.25,24.87,105.94,24.87,104Z"/><path class="cls-5" d="M30.34,104.55c0-2,1.7-3,5.59-3.47,0-1.09-.41-2-1.78-2a5.15,5.15,0,0,0-2.71.95l-.73-1.32a7.11,7.11,0,0,1,3.78-1.23c2.33,0,3.4,1.48,3.4,4V107h-1.6L36.12,106h0a4.65,4.65,0,0,1-3,1.29A2.58,2.58,0,0,1,30.34,104.55Zm5.59.06v-2.29c-2.77.34-3.7,1-3.7,2.09s.63,1.29,1.46,1.29A3.28,3.28,0,0,0,35.93,104.61Z"/><path class="cls-5" d="M42.43,106.06h0l-.19,1H40.66V93.48H42.6v3.59l-.05,1.6a4.43,4.43,0,0,1,2.78-1.23c2.37,0,3.71,1.89,3.71,4.76,0,3.21-1.92,5-4,5A3.88,3.88,0,0,1,42.43,106.06ZM47,102.24c0-2-.63-3.17-2.2-3.17a3.26,3.26,0,0,0-2.22,1.14v4.57a3.12,3.12,0,0,0,2,.85C46,105.63,47,104.43,47,102.24Z"/><path class="cls-5" d="M51.35,104.84V93.48h1.94v11.46c0,.52.24.71.48.71a1.53,1.53,0,0,0,.32,0l.25,1.48a3.25,3.25,0,0,1-1.05.15C51.88,107.25,51.35,106.35,51.35,104.84Z"/><path class="cls-5" d="M56.15,94.77a1.14,1.14,0,0,1,1.24-1.15,1.16,1.16,0,0,1,1.25,1.15,1.17,1.17,0,0,1-1.25,1.16A1.16,1.16,0,0,1,56.15,94.77Zm.27,2.91h1.93V107H56.42Z"/><path class="cls-5" d="M60.31,106l.92-1.26a4.15,4.15,0,0,0,2.65,1.07c1.12,0,1.65-.54,1.65-1.26s-1.06-1.22-2.07-1.61c-1.25-.48-2.67-1.14-2.67-2.72S62,97.44,64.1,97.44a4.87,4.87,0,0,1,3,1.11l-.91,1.2a3.54,3.54,0,0,0-2.09-.81c-1,0-1.5.51-1.5,1.15,0,.8,1,1.11,2,1.48,1.31.5,2.75,1.07,2.75,2.84,0,1.56-1.24,2.84-3.55,2.84A5.74,5.74,0,0,1,60.31,106Z"/><path class="cls-5" d="M69.46,93.48h1.93v3.59l-.06,1.85a4.34,4.34,0,0,1,3-1.48c2,0,2.87,1.33,2.87,3.71V107h-2v-5.65c0-1.61-.48-2.26-1.58-2.26a3.23,3.23,0,0,0-2.3,1.28V107H69.46Z"/><path class="cls-5" d="M80,97.68h1.6L81.76,99h0a4.09,4.09,0,0,1,2.89-1.55,2.5,2.5,0,0,1,2.59,1.72,4.3,4.3,0,0,1,3-1.72c2,0,2.87,1.33,2.87,3.71V107h-2v-5.65c0-1.61-.51-2.26-1.57-2.26a3.13,3.13,0,0,0-2.1,1.28V107h-2v-5.65c0-1.61-.49-2.26-1.56-2.26A3.16,3.16,0,0,0,82,100.4V107H80Z"/><path class="cls-5" d="M95.36,102.37c0-3,2.08-4.93,4.27-4.93,2.48,0,3.81,1.79,3.81,4.44a5,5,0,0,1-.09,1H97.28a2.83,2.83,0,0,0,2.89,2.86,4,4,0,0,0,2.23-.7l.68,1.24a5.67,5.67,0,0,1-3.16,1C97.39,107.25,95.36,105.45,95.36,102.37Zm6.4-.85c0-1.61-.74-2.55-2.1-2.55a2.53,2.53,0,0,0-2.39,2.55Z"/><path class="cls-5" d="M105.63,97.68h1.6l.15,1.29h.05a4.48,4.48,0,0,1,3.1-1.53c2,0,2.87,1.33,2.87,3.71V107h-2v-5.65c0-1.61-.48-2.26-1.59-2.26a3.21,3.21,0,0,0-2.29,1.28V107h-1.94Z"/><path class="cls-5" d="M116.55,104V99.24h-1.36V97.78l1.44-.1.22-2.58h1.65v2.58h2.43v1.56H118.5V104c0,1.12.39,1.7,1.36,1.7a2.76,2.76,0,0,0,1-.23l.36,1.45a6,6,0,0,1-1.84.34C117.28,107.25,116.55,105.94,116.55,104Z"/><path class="cls-5" d="M126.25,104.55c0-2,1.7-3,5.6-3.47,0-1.09-.41-2-1.79-2a5.12,5.12,0,0,0-2.7.95l-.73-1.32a7.07,7.07,0,0,1,3.77-1.23c2.33,0,3.4,1.48,3.4,4V107h-1.6L132,106H132a4.64,4.64,0,0,1-3,1.29A2.58,2.58,0,0,1,126.25,104.55Zm5.6.06v-2.29c-2.78.34-3.71,1-3.71,2.09s.63,1.29,1.46,1.29A3.3,3.3,0,0,0,131.85,104.61Z"/><path class="cls-5" d="M136.57,97.68h1.6l.15,1.29h.05a4.48,4.48,0,0,1,3.1-1.53c2,0,2.87,1.33,2.87,3.71V107h-2v-5.65c0-1.61-.48-2.26-1.59-2.26a3.21,3.21,0,0,0-2.29,1.28V107h-1.94Z"/><path class="cls-5" d="M146.55,102.37c0-3,1.92-4.93,4-4.93a3.62,3.62,0,0,1,2.52,1.06L153,97V93.48h2V107h-1.6l-.17-1.06h-.05a3.91,3.91,0,0,1-2.72,1.28C148.06,107.25,146.55,105.46,146.55,102.37ZM153,104.5V99.92a2.91,2.91,0,0,0-2.05-.85c-1.31,0-2.37,1.24-2.37,3.27s.84,3.29,2.3,3.29A2.74,2.74,0,0,0,153,104.5Z"/><path class="cls-5" d="M161.71,97.68h1.6l.15,1.31h.06a4.05,4.05,0,0,1,2.89-1.55A2.5,2.5,0,0,1,169,99.16a4.3,4.3,0,0,1,3-1.72c2,0,2.87,1.33,2.87,3.71V107h-2v-5.65c0-1.61-.51-2.26-1.56-2.26a3.12,3.12,0,0,0-2.11,1.28V107h-2v-5.65c0-1.61-.49-2.26-1.56-2.26a3.16,3.16,0,0,0-2.11,1.28V107h-1.94Z"/><path class="cls-5" d="M177.06,102.37c0-3.13,2.1-4.93,4.41-4.93s4.4,1.8,4.4,4.93-2.09,4.88-4.4,4.88S177.06,105.46,177.06,102.37Zm6.8,0c0-2-.91-3.31-2.39-3.31s-2.38,1.32-2.38,3.31.92,3.28,2.38,3.28S183.86,104.34,183.86,102.37Z"/><path class="cls-5" d="M188.17,97.68h1.59l.16,1.29H190a4.45,4.45,0,0,1,3.09-1.53c2,0,2.87,1.33,2.87,3.71V107h-2v-5.65c0-1.61-.48-2.26-1.58-2.26a3.23,3.23,0,0,0-2.3,1.28V107h-1.93Z"/><path class="cls-5" d="M198.5,94.77a1.15,1.15,0,0,1,1.24-1.15A1.16,1.16,0,0,1,201,94.77a1.25,1.25,0,0,1-2.5,0Zm.27,2.91h1.94V107h-1.94Z"/><path class="cls-5" d="M204,104V99.24H202.6V97.78l1.44-.1.22-2.58h1.65v2.58h2.43v1.56h-2.43V104c0,1.12.39,1.7,1.36,1.7a2.82,2.82,0,0,0,1-.23l.35,1.45a5.9,5.9,0,0,1-1.83.34C204.69,107.25,204,105.94,204,104Z"/><path class="cls-5" d="M209.43,102.37c0-3.13,2.09-4.93,4.41-4.93s4.4,1.8,4.4,4.93-2.09,4.88-4.4,4.88S209.43,105.46,209.43,102.37Zm6.8,0c0-2-.92-3.31-2.39-3.31s-2.38,1.32-2.38,3.31.91,3.28,2.38,3.28S216.23,104.34,216.23,102.37Z"/><path class="cls-5" d="M220.53,97.68h1.6l.15,1.68h.06A3.23,3.23,0,0,1,225,97.44a2.25,2.25,0,0,1,1,.21l-.36,1.7a2.56,2.56,0,0,0-.93-.16c-.77,0-1.68.53-2.28,2V107h-1.94Z"/><path class="cls-5" d="M227.22,94.77a1.14,1.14,0,0,1,1.24-1.15,1.16,1.16,0,0,1,1.25,1.15,1.17,1.17,0,0,1-1.25,1.16A1.16,1.16,0,0,1,227.22,94.77Zm.27,2.91h1.93V107h-1.93Z"/><path class="cls-5" d="M232.37,97.68H234l.16,1.29h0a4.45,4.45,0,0,1,3.09-1.53c2,0,2.87,1.33,2.87,3.71V107h-1.95v-5.65c0-1.61-.48-2.26-1.58-2.26a3.23,3.23,0,0,0-2.3,1.28V107h-1.93Z"/><path class="cls-5" d="M242.29,108.76a2.49,2.49,0,0,1,1.36-2v-.08a1.73,1.73,0,0,1-.85-1.55,2.3,2.3,0,0,1,1-1.73v-.07a3.19,3.19,0,0,1-1.22-2.48,3.37,3.37,0,0,1,3.62-3.37,3.85,3.85,0,0,1,1.36.24h3.31v1.46h-1.78a2.57,2.57,0,0,1,.61,1.72,3.43,3.43,0,0,1-4.81,2.92,1.24,1.24,0,0,0-.51,1c0,.56.37.92,1.56.92h1.72c2.21,0,3.36.68,3.36,2.27,0,1.81-1.9,3.27-4.89,3.27C243.93,111.23,242.29,110.39,242.29,108.76Zm6.89-.49c0-.78-.61-1-1.75-1H246a5.59,5.59,0,0,1-1.26-.14,1.7,1.7,0,0,0-.8,1.36c0,.92.95,1.47,2.5,1.47S249.18,109.14,249.18,108.27ZM248,100.81a1.78,1.78,0,1,0-3.54,0,1.78,1.78,0,1,0,3.54,0Z"/><path class="cls-5" d="M256,102.37c0-3.13,2.09-4.93,4.4-4.93s4.41,1.8,4.41,4.93-2.09,4.88-4.41,4.88S256,105.46,256,102.37Zm6.8,0c0-2-.92-3.31-2.4-3.31s-2.38,1.32-2.38,3.31.92,3.28,2.38,3.28S262.76,104.34,262.76,102.37Z"/><path class="cls-5" d="M271.55,95a2.59,2.59,0,0,0-1-.23c-.83,0-1.24.54-1.24,1.68v1.19h1.89v1.56h-1.89V107h-2V99.24h-1.27V97.78l1.27-.1V96.51c0-1.92.87-3.25,3-3.25a4.36,4.36,0,0,1,1.65.32Z"/><path class="cls-5" d="M275.71,106l.92-1.26a4.18,4.18,0,0,0,2.65,1.07c1.13,0,1.65-.54,1.65-1.26s-1.05-1.22-2.07-1.61c-1.24-.48-2.67-1.14-2.67-2.72s1.26-2.74,3.32-2.74a4.92,4.92,0,0,1,3,1.11l-.92,1.2a3.54,3.54,0,0,0-2.09-.81c-1,0-1.5.51-1.5,1.15,0,.8,1,1.11,2,1.48,1.31.5,2.76,1.07,2.76,2.84,0,1.56-1.25,2.84-3.56,2.84A5.77,5.77,0,0,1,275.71,106Z"/><path class="cls-5" d="M284.2,102.37c0-3,2.07-4.93,4.26-4.93,2.49,0,3.81,1.79,3.81,4.44a5.14,5.14,0,0,1-.08,1h-6.07a2.82,2.82,0,0,0,2.89,2.86,4,4,0,0,0,2.22-.7l.68,1.24a5.62,5.62,0,0,1-3.16,1C286.22,107.25,284.2,105.45,284.2,102.37Zm6.39-.85c0-1.61-.73-2.55-2.09-2.55a2.53,2.53,0,0,0-2.4,2.55Z"/><path class="cls-5" d="M293.8,102.37a4.59,4.59,0,0,1,4.63-4.93,4,4,0,0,1,2.73,1.07l-1,1.28a2.43,2.43,0,0,0-1.68-.73c-1.56,0-2.68,1.32-2.68,3.31s1.07,3.28,2.63,3.28a3.18,3.18,0,0,0,2-.85l.8,1.29a4.55,4.55,0,0,1-3,1.16C295.74,107.25,293.8,105.46,293.8,102.37Z"/><path class="cls-5" d="M303.14,103.56V97.68h1.95v5.64c0,1.62.46,2.25,1.56,2.25.87,0,1.47-.41,2.25-1.4V97.68h2V107h-1.6l-.15-1.41h-.05a3.94,3.94,0,0,1-3.06,1.63C304,107.25,303.14,105.94,303.14,103.56Z"/><path class="cls-5" d="M313.79,97.68h1.6l.16,1.68h.05a3.24,3.24,0,0,1,2.65-1.92,2.25,2.25,0,0,1,1.05.21l-.36,1.7a2.56,2.56,0,0,0-.93-.16c-.76,0-1.68.53-2.28,2V107h-1.94Z"/><path class="cls-5" d="M320.48,94.77a1.14,1.14,0,0,1,1.24-1.15A1.16,1.16,0,0,1,323,94.77a1.17,1.17,0,0,1-1.25,1.16A1.16,1.16,0,0,1,320.48,94.77Zm.27,2.91h1.93V107h-1.93Z"/><path class="cls-5" d="M325.93,104V99.24h-1.36V97.78l1.45-.1.22-2.58h1.65v2.58h2.43v1.56h-2.43V104c0,1.12.39,1.7,1.36,1.7a2.76,2.76,0,0,0,1-.23l.36,1.45a6,6,0,0,1-1.84.34C326.66,107.25,325.93,105.94,325.93,104Z"/><path class="cls-5" d="M336.47,107.59c-.73,2-1.71,3.35-3.69,3.35a3.29,3.29,0,0,1-1.17-.19l.37-1.53a2.64,2.64,0,0,0,.68.14c1,0,1.62-.75,2-1.75l.19-.65-3.71-9.28h2l1.73,4.81c.27.83.56,1.77.85,2.63h.08l.74-2.63L338,97.68h1.91Z"/><rect class="cls-3" x="381.38" y="41.68" width="151.53" height="25.38" rx="2.14"/><rect class="cls-9" x="381.38" y="41.68" width="151.53" height="25.38" rx="2.14"/><path class="cls-5" d="M396.65,57.47h-5.17l-1.27,4.24h-2.38l4.93-14.86h2.7l4.93,14.86H397.9Zm-.56-1.84-.59-2c-.5-1.61-.95-3.27-1.41-5H394c-.43,1.7-.89,3.34-1.38,5l-.6,2Z"/><path class="cls-5" d="M401.35,56.17a5.46,5.46,0,0,1,5.49-5.85,4.72,4.72,0,0,1,3.25,1.27l-1.15,1.52a2.88,2.88,0,0,0-2-.87c-1.85,0-3.19,1.57-3.19,3.93s1.28,3.9,3.13,3.9a3.8,3.8,0,0,0,2.43-1l.94,1.53A5.39,5.39,0,0,1,406.66,62C403.65,62,401.35,59.85,401.35,56.17Z"/><path class="cls-5" d="M411.26,56.17a5.46,5.46,0,0,1,5.49-5.85A4.72,4.72,0,0,1,420,51.59l-1.15,1.52a2.88,2.88,0,0,0-2-.87c-1.85,0-3.19,1.57-3.19,3.93s1.28,3.9,3.13,3.9a3.8,3.8,0,0,0,2.43-1l.94,1.53A5.39,5.39,0,0,1,416.57,62C413.56,62,411.26,59.85,411.26,56.17Z"/><path class="cls-5" d="M421.17,56.17c0-3.61,2.46-5.85,5.07-5.85,2.95,0,4.52,2.12,4.52,5.27a6.06,6.06,0,0,1-.1,1.17h-7.21a3.36,3.36,0,0,0,3.44,3.39,4.69,4.69,0,0,0,2.64-.83l.81,1.48A6.79,6.79,0,0,1,426.58,62C423.57,62,421.17,59.83,421.17,56.17Zm7.59-1c0-1.91-.87-3-2.48-3-1.39,0-2.62,1.07-2.85,3Z"/><path class="cls-5" d="M432.19,60.43l1.09-1.49a4.91,4.91,0,0,0,3.15,1.27c1.33,0,2-.64,2-1.49,0-1-1.25-1.46-2.46-1.92-1.48-.57-3.17-1.35-3.17-3.23s1.49-3.25,3.93-3.25a5.83,5.83,0,0,1,3.62,1.31l-1.09,1.44a4.15,4.15,0,0,0-2.49-1c-1.21,0-1.77.6-1.77,1.37,0,1,1.15,1.31,2.36,1.76,1.55.58,3.27,1.27,3.27,3.37,0,1.85-1.47,3.37-4.22,3.37A6.84,6.84,0,0,1,432.19,60.43Z"/><path class="cls-5" d="M441.88,60.43,443,58.94a4.91,4.91,0,0,0,3.15,1.27c1.33,0,2-.64,2-1.49,0-1-1.26-1.46-2.47-1.92-1.47-.57-3.17-1.35-3.17-3.23s1.5-3.25,3.94-3.25A5.8,5.8,0,0,1,450,51.63l-1.09,1.44a4.1,4.1,0,0,0-2.48-1c-1.21,0-1.78.6-1.78,1.37,0,1,1.16,1.31,2.37,1.76,1.55.58,3.27,1.27,3.27,3.37,0,1.85-1.48,3.37-4.22,3.37A6.81,6.81,0,0,1,441.88,60.43Z"/><path class="cls-5" d="M456.49,56.17c0-3.71,2.56-5.85,5.49-5.85a4.74,4.74,0,0,1,3.25,1.27l-1.15,1.52a2.88,2.88,0,0,0-2-.87c-1.85,0-3.19,1.57-3.19,3.93s1.28,3.9,3.13,3.9a3.76,3.76,0,0,0,2.42-1l.95,1.53A5.41,5.41,0,0,1,461.8,62C458.79,62,456.49,59.85,456.49,56.17Z"/><path class="cls-5" d="M466.4,56.17c0-3.71,2.48-5.85,5.23-5.85s5.23,2.14,5.23,5.85-2.49,5.8-5.23,5.8S466.4,59.85,466.4,56.17Zm8.08,0c0-2.36-1.09-3.93-2.85-3.93s-2.83,1.57-2.83,3.93,1.09,3.9,2.83,3.9S474.48,58.52,474.48,56.17Z"/><path class="cls-5" d="M479.58,50.6h1.9l.18,1.54h.06a5.29,5.29,0,0,1,3.67-1.82c2.37,0,3.42,1.57,3.42,4.4v7h-2.33V55c0-1.91-.56-2.68-1.87-2.68-1,0-1.74.52-2.73,1.51v7.88h-2.3Z"/><path class="cls-5" d="M492.54,58.07V52.46h-1.62V50.72l1.72-.12.26-3.07h2V50.6h2.89v1.86h-2.89v5.63c0,1.33.46,2,1.61,2a3.39,3.39,0,0,0,1.2-.26l.42,1.71a6.87,6.87,0,0,1-2.18.41C493.41,62,492.54,60.41,492.54,58.07Z"/><path class="cls-5" d="M500.17,50.6h1.89l.19,2h.06a3.84,3.84,0,0,1,3.15-2.28,2.81,2.81,0,0,1,1.25.24l-.43,2a3.27,3.27,0,0,0-1.11-.18c-.9,0-2,.62-2.7,2.38v6.93h-2.3Z"/><path class="cls-5" d="M507.41,56.17c0-3.71,2.49-5.85,5.23-5.85s5.23,2.14,5.23,5.85-2.48,5.8-5.23,5.8S507.41,59.85,507.41,56.17Zm8.08,0c0-2.36-1.09-3.93-2.85-3.93s-2.83,1.57-2.83,3.93,1.09,3.9,2.83,3.9S515.49,58.52,515.49,56.17Z"/><path class="cls-5" d="M520.59,59.1V45.62h2.3v13.6c0,.63.29.85.57.85a1.6,1.6,0,0,0,.38,0l.3,1.76a3.72,3.72,0,0,1-1.25.18C521.22,62,520.59,60.9,520.59,59.1Z"/><rect class="cls-3" x="413.31" y="84.75" width="285.71" height="49.98" rx="4.24"/><rect class="cls-10" x="413.31" y="84.75" width="285.71" height="49.98" rx="4.24"/><path class="cls-5" d="M434.28,99.68h-8.41V95.91h21.38v3.77H438.8v24.89h-4.52Z"/><path class="cls-5" d="M451.18,96.49A2.63,2.63,0,0,1,454,93.84a2.66,2.66,0,1,1-2.84,2.65Zm.63,6.66h4.43v21.42h-4.43Z"/><path class="cls-5" d="M463,103.15h3.66l.35,3h.12c1.83-2,4-3.55,6.62-3.55a5.72,5.72,0,0,1,5.92,3.94c2.1-2.26,4.28-3.94,7-3.94,4.48,0,6.58,3,6.58,8.49v13.48h-4.48V111.64c0-3.7-1.17-5.18-3.58-5.18-1.48,0-3,1-4.83,2.92v15.19h-4.48V111.64c0-3.7-1.13-5.18-3.58-5.18-1.44,0-3,1-4.83,2.92v15.19H463Z"/><path class="cls-5" d="M498.14,113.9c0-7,4.75-11.3,9.78-11.3,5.68,0,8.72,4.09,8.72,10.17a12.29,12.29,0,0,1-.19,2.26H502.54c.35,4.08,2.93,6.54,6.62,6.54a9.15,9.15,0,0,0,5.11-1.6l1.55,2.84a12.93,12.93,0,0,1-7.24,2.26C502.78,125.07,498.14,120.94,498.14,113.9Zm14.65-2c0-3.7-1.68-5.84-4.79-5.84-2.69,0-5.07,2.06-5.49,5.84Z"/><path class="cls-5" d="M529.18,118.88c0-4.59,3.89-7,12.81-7.94,0-2.49-.93-4.68-4.09-4.68a11.76,11.76,0,0,0-6.19,2.19l-1.67-3a16.4,16.4,0,0,1,8.64-2.81c5.34,0,7.79,3.39,7.79,9.08v12.89h-3.66l-.39-2.46h-.12a10.59,10.59,0,0,1-6.81,3C531.79,125.07,529.18,122.66,529.18,118.88ZM542,119v-5.26c-6.35.78-8.49,2.37-8.49,4.79,0,2.1,1.44,3,3.35,3S540.24,120.63,542,119Z"/><path class="cls-5" d="M552.82,103.15h3.66l.35,3h.11c2-1.91,4.17-3.51,7.09-3.51,4.56,0,6.58,3,6.58,8.49v13.48h-4.48V111.64c0-3.7-1.09-5.18-3.62-5.18-2,0-3.35,1-5.25,2.92v15.19h-4.44Z"/><path class="cls-5" d="M575.68,113.9c0-7,4.4-11.3,9.19-11.3a8.26,8.26,0,0,1,5.76,2.42l-.2-3.55V93.53h4.48v31h-3.66l-.39-2.42h-.11a9,9,0,0,1-6.23,2.92C579.14,125.07,575.68,121,575.68,113.9Zm14.75,4.86V108.29a6.7,6.7,0,0,0-4.71-2c-3,0-5.41,2.84-5.41,7.48,0,4.87,1.91,7.55,5.26,7.55C587.36,121.37,588.88,120.56,590.43,118.76Z"/><path class="cls-5" d="M609.24,110.31c0-9.34,5.69-15,12.93-15A11,11,0,0,1,630.31,99l-2.46,2.88a7.63,7.63,0,0,0-5.6-2.57c-5,0-8.37,4.13-8.37,10.87s3.19,11,8.25,11a8.35,8.35,0,0,0,6.35-3l2.41,2.84a11.31,11.31,0,0,1-8.92,4.13C614.77,125.07,609.24,119.7,609.24,110.31Z"/><path class="cls-5" d="M634.05,113.9c0-7.17,4.79-11.3,10.08-11.3s10.09,4.13,10.09,11.3-4.79,11.17-10.09,11.17S634.05,121,634.05,113.9Zm15.57,0c0-4.56-2.1-7.6-5.49-7.6s-5.45,3-5.45,7.6,2.1,7.51,5.45,7.51S649.62,118.41,649.62,113.9Z"/><path class="cls-5" d="M657.1,122.11l2.1-2.88a9.49,9.49,0,0,0,6.08,2.45c2.57,0,3.78-1.24,3.78-2.88,0-1.94-2.42-2.8-4.75-3.7-2.85-1.09-6.12-2.61-6.12-6.23s2.88-6.27,7.59-6.27a11.32,11.32,0,0,1,7,2.53l-2.11,2.77a8,8,0,0,0-4.79-1.87c-2.33,0-3.42,1.17-3.42,2.65,0,1.83,2.22,2.53,4.55,3.39,3,1.13,6.31,2.45,6.31,6.5,0,3.58-2.84,6.5-8.14,6.5A13.15,13.15,0,0,1,657.1,122.11Z"/><path class="cls-5" d="M677.9,117.56V106.73h-3.12v-3.35l3.31-.23.51-5.92h3.77v5.92h5.57v3.58h-5.57V117.6c0,2.57.9,3.89,3.12,3.89a6.28,6.28,0,0,0,2.3-.51l.81,3.31a13.59,13.59,0,0,1-4.2.78C679.57,125.07,677.9,122.07,677.9,117.56Z"/><rect class="cls-3" x="145.33" y="0.43" width="236.05" height="28.22" rx="2.43"/><rect class="cls-11" x="145.33" y="0.43" width="236.05" height="28.22" rx="2.43"/><path class="cls-5" d="M152.79,19.81l1.43-1.67a6,6,0,0,0,4.1,1.82c1.86,0,2.91-.88,2.91-2.18s-1-1.84-2.47-2.47l-2.14-.92c-1.48-.63-3.13-1.8-3.13-4,0-2.42,2.13-4.24,5.06-4.24a6.58,6.58,0,0,1,4.66,1.94L161.94,9.6a4.91,4.91,0,0,0-3.39-1.38c-1.57,0-2.6.75-2.6,2s1.24,1.82,2.49,2.32l2.12.9c1.82.77,3.13,1.9,3.13,4.16,0,2.47-2.05,4.48-5.41,4.48A7.72,7.72,0,0,1,152.79,19.81Z"/><path class="cls-5" d="M165.58,16.07c0-3.75,2.55-6.07,5.25-6.07,3,0,4.68,2.2,4.68,5.46a6.44,6.44,0,0,1-.1,1.21h-7.47a3.48,3.48,0,0,0,3.56,3.52,4.94,4.94,0,0,0,2.74-.86l.83,1.53a7,7,0,0,1-3.89,1.21C168.06,22.07,165.58,19.85,165.58,16.07ZM173.44,15c0-2-.9-3.14-2.57-3.14-1.45,0-2.72,1.11-3,3.14Z"/><path class="cls-5" d="M177.39,16.07c0-3.85,2.66-6.07,5.69-6.07a4.91,4.91,0,0,1,3.37,1.32l-1.19,1.57a3,3,0,0,0-2.07-.9c-1.93,0-3.31,1.63-3.31,4.08s1.32,4,3.24,4a4,4,0,0,0,2.52-1l1,1.59a5.63,5.63,0,0,1-3.73,1.42C179.78,22.07,177.39,19.87,177.39,16.07Z"/><path class="cls-5" d="M188.88,17.53V10.29h2.4v7c0,2,.57,2.76,1.93,2.76,1.06,0,1.8-.5,2.76-1.72v-8h2.4V21.8h-2l-.19-1.74h-.06a4.85,4.85,0,0,1-3.77,2C189.94,22.07,188.88,20.46,188.88,17.53Z"/><path class="cls-5" d="M202,10.29h2l.19,2.07h.06A4,4,0,0,1,207.47,10a2.84,2.84,0,0,1,1.3.25l-.44,2.09a3.55,3.55,0,0,0-1.15-.19c-.94,0-2.07.65-2.8,2.47V21.8H202Z"/><path class="cls-5" d="M210.21,6.71a1.42,1.42,0,0,1,1.53-1.42,1.43,1.43,0,1,1-1.53,1.42Zm.34,3.58h2.38V21.8h-2.38Z"/><path class="cls-5" d="M216.93,18V12.22h-1.68v-1.8l1.78-.13.27-3.18h2v3.18h3v1.93h-3v5.83c0,1.38.48,2.09,1.68,2.09a3.35,3.35,0,0,0,1.23-.27l.44,1.78a7.33,7.33,0,0,1-2.26.42C217.83,22.07,216.93,20.46,216.93,18Z"/><path class="cls-5" d="M229.9,22.49c-.9,2.47-2.12,4.12-4.54,4.12a4,4,0,0,1-1.45-.23l.46-1.88a3.3,3.3,0,0,0,.84.16c1.25,0,2-.92,2.41-2.15l.23-.8-4.56-11.42h2.46l2.14,5.92c.33,1,.69,2.18,1,3.24H229l.9-3.24,1.84-5.92h2.34Z"/><path class="cls-5" d="M240.92,10.29h2l.19,1.61h.07a5,5,0,0,1,3.55-1.9,3.06,3.06,0,0,1,3.18,2.11C251,10.9,252.17,10,253.62,10c2.4,0,3.53,1.63,3.53,4.56V21.8h-2.4v-7c0-2-.63-2.78-1.93-2.78a3.83,3.83,0,0,0-2.59,1.57V21.8h-2.41v-7c0-2-.61-2.78-1.92-2.78a3.88,3.88,0,0,0-2.6,1.57V21.8h-2.38Z"/><path class="cls-5" d="M260,18.74c0-2.47,2.09-3.74,6.89-4.26,0-1.34-.51-2.52-2.2-2.52a6.36,6.36,0,0,0-3.33,1.18l-.9-1.64a8.88,8.88,0,0,1,4.65-1.5c2.86,0,4.18,1.82,4.18,4.87V21.8h-2l-.2-1.32H267a5.7,5.7,0,0,1-3.66,1.59A3.18,3.18,0,0,1,260,18.74Zm6.89.09V16c-3.41.42-4.57,1.28-4.57,2.58,0,1.13.78,1.59,1.8,1.59A4.11,4.11,0,0,0,266.84,18.83Z"/><path class="cls-5" d="M272.65,10.29h2l.18,1.59h.07a5.49,5.49,0,0,1,3.8-1.88c2.45,0,3.54,1.63,3.54,4.56V21.8H279.8v-7c0-2-.58-2.78-1.94-2.78-1.07,0-1.8.54-2.83,1.57V21.8h-2.38Z"/><path class="cls-5" d="M285,18.74c0-2.47,2.09-3.74,6.88-4.26,0-1.34-.5-2.52-2.19-2.52a6.33,6.33,0,0,0-3.33,1.18l-.9-1.64a8.85,8.85,0,0,1,4.65-1.5c2.86,0,4.18,1.82,4.18,4.87V21.8h-2l-.21-1.32h-.06a5.7,5.7,0,0,1-3.66,1.59A3.18,3.18,0,0,1,285,18.74Zm6.88.09V16c-3.41.42-4.56,1.28-4.56,2.58,0,1.13.78,1.59,1.8,1.59A4.07,4.07,0,0,0,291.91,18.83Z"/><path class="cls-5" d="M296.89,23.93a3,3,0,0,1,1.68-2.51v-.1a2.13,2.13,0,0,1-1.05-1.91,2.83,2.83,0,0,1,1.28-2.13v-.09a3.9,3.9,0,0,1-1.51-3.05A4.15,4.15,0,0,1,301.75,10a4.76,4.76,0,0,1,1.67.29h4.08v1.8h-2.2a3.1,3.1,0,0,1,.76,2.11c0,2.51-1.91,4-4.31,4a4.05,4.05,0,0,1-1.62-.36,1.54,1.54,0,0,0-.62,1.21c0,.7.46,1.13,1.92,1.13h2.11c2.72,0,4.15.84,4.15,2.81,0,2.22-2.35,4-6,4C298.9,27,296.89,25.94,296.89,23.93Zm8.47-.61c0-1-.75-1.25-2.15-1.25h-1.74a6.92,6.92,0,0,1-1.54-.17,2.08,2.08,0,0,0-1,1.68c0,1.12,1.17,1.79,3.08,1.79S305.36,24.39,305.36,23.32Zm-1.44-9.18a2.19,2.19,0,1,0-4.35,0,2.19,2.19,0,1,0,4.35,0Z"/><path class="cls-5" d="M308.65,16.07c0-3.75,2.55-6.07,5.25-6.07,3.05,0,4.68,2.2,4.68,5.46a6.44,6.44,0,0,1-.1,1.21H311a3.48,3.48,0,0,0,3.56,3.52,4.94,4.94,0,0,0,2.74-.86l.84,1.53a7,7,0,0,1-3.9,1.21C311.14,22.07,308.65,19.85,308.65,16.07ZM316.51,15c0-2-.9-3.14-2.57-3.14-1.44,0-2.72,1.11-2.95,3.14Z"/><path class="cls-5" d="M321.28,10.29h2l.19,1.61h.06a5,5,0,0,1,3.56-1.9,3.08,3.08,0,0,1,3.18,2.11C331.36,10.9,332.54,10,334,10c2.41,0,3.54,1.63,3.54,4.56V21.8h-2.41v-7c0-2-.63-2.78-1.93-2.78a3.83,3.83,0,0,0-2.59,1.57V21.8h-2.41v-7c0-2-.6-2.78-1.92-2.78a3.87,3.87,0,0,0-2.59,1.57V21.8h-2.39Z"/><path class="cls-5" d="M340.17,16.07c0-3.75,2.55-6.07,5.25-6.07,3.05,0,4.69,2.2,4.69,5.46a6.33,6.33,0,0,1-.11,1.21h-7.47a3.48,3.48,0,0,0,3.56,3.52,4.91,4.91,0,0,0,2.74-.86l.84,1.53a7,7,0,0,1-3.89,1.21C342.66,22.07,340.17,19.85,340.17,16.07ZM348,15c0-2-.9-3.14-2.58-3.14-1.44,0-2.72,1.11-2.95,3.14Z"/><path class="cls-5" d="M352.8,10.29h2l.19,1.59H355A5.51,5.51,0,0,1,358.83,10c2.45,0,3.53,1.63,3.53,4.56V21.8H360v-7c0-2-.59-2.78-1.95-2.78-1.06,0-1.8.54-2.82,1.57V21.8H352.8Z"/><path class="cls-5" d="M366.23,18V12.22h-1.67v-1.8l1.78-.13.27-3.18h2v3.18h3v1.93h-3v5.83c0,1.38.48,2.09,1.67,2.09a3.4,3.4,0,0,0,1.24-.27l.44,1.78a7.39,7.39,0,0,1-2.26.42C367.13,22.07,366.23,20.46,366.23,18Z"/></svg>