<?xml version="1.0" encoding="utf-8"?>
<!-- Generator: Adobe Illustrator 23.0.4, SVG Export Plug-In . SVG Version: 6.00 Build 0)  -->
<svg version="1.1" id="レイヤー_1" xmlns="http://www.w3.org/2000/svg" xmlns:xlink="http://www.w3.org/1999/xlink" x="0px"
	 y="0px" viewBox="0 0 487.6 139.6" style="enable-background:new 0 0 487.6 139.6;" xml:space="preserve">
<style type="text/css">
	.st0{fill:#172788;}
	.st1{fill:#FFFFFF;}
</style>
<g>
	<path class="st0" d="M418.6,139.6c38.6-0.5,69.4-32.1,69-70.6c-0.5-37.9-31.1-68.5-69-69c-19.3,0-37.5,9.2-49.4,20.5
		c-11.9,11.2-22.9,17.3-37.6,17.3c-14.7,0-25.8-6.1-37.6-17.3C282.1,9.2,263.9,0,244.6,0c-19.2,0-37.5,9.2-49.4,20.5
		c-11.9,11.2-22.9,17.3-37.6,17.3c-14.7,0-25.8-6.1-37.6-17.3C108.2,9.2,89.9,0,70.6,0C32.1-0.5,0.5,30.4,0,69
		c-0.5,38.6,30.4,70.2,69,70.6c0.6,0,1.1,0,1.7,0c19.3,0,37.5-9.2,49.4-20.4c11.9-11.2,22.9-17.3,37.6-17.3
		c14.7,0,25.8,6.1,37.6,17.3c11.9,11.2,30.1,20.4,49.4,20.4c19.3,0,37.5-9.2,49.4-20.4c11.9-11.2,22.9-17.3,37.6-17.3
		c14.7,0,25.8,6.1,37.6,17.3C381.1,130.4,399.3,139.6,418.6,139.6z"/>
	<path class="st1" d="M48.3,62.4c1.5,0.5,2.9,1.3,4.1,2.3L51,66.7c-1.2-1-2.6-1.8-4-2.4L48.3,62.4z M50.8,69.2l1.9,1.2
		c-0.9,2.7-2.1,5.7-3.2,8l-2.1-1.2C48.7,74.6,49.9,71.9,50.8,69.2z M49.3,55.7c1.4,0.6,2.8,1.4,4,2.4l-1.4,1.9
		c-1.2-1.1-2.5-2-3.9-2.7L49.3,55.7z M56.9,73.6c-0.8,1.9-2,3.7-3.5,5.2c-0.6-0.5-1.2-0.9-1.9-1.3c1.4-1.3,2.5-2.8,3.2-4.6
		L56.9,73.6z M61.3,56.6v16h-7.4V56.6L61.3,56.6z M55.9,61.3h3.4v-2.7h-3.4V61.3z M55.9,66h3.4v-2.8h-3.4V66z M55.9,70.6h3.4v-2.8
		h-3.4V70.6z M60.1,72.9c1,1.2,2,2.5,2.8,3.9l-1.9,1.1c-0.8-1.4-1.7-2.7-2.7-4L60.1,72.9z M65,58.2v14.4H63V58.1L65,58.2z
		 M69.4,55.6V76c0,1.3-0.3,2-1.1,2.4c-1.3,0.4-2.7,0.5-4,0.4c-0.1-0.8-0.3-1.5-0.7-2.2c1.4,0,2.7,0,3.1,0c0.4,0,0.5-0.1,0.5-0.5
		V55.5L69.4,55.6z"/>
	<path class="st1" d="M90.6,59.3c-0.5,0.3-1.1,0.7-1.5,1c-1.3,0.9-4.3,3.6-6.1,5c1-0.3,2-0.4,3-0.4c4.2,0,7.3,2.6,7.3,6.1
		c0,4-3.2,6.9-8.8,6.9c-3.5,0-5.8-1.6-5.8-3.8c0.2-2.1,2-3.7,4.1-3.6c0,0,0,0,0,0c2.6-0.2,5,1.8,5.3,4.4c1.6-0.6,2.7-2.2,2.6-4
		c0-2.3-2.4-4-5.4-4c-4,0-6.4,1.9-9.3,5L74.1,70c2-1.6,5.1-4.2,6.6-5.4c1.5-1.2,4.3-3.6,5.5-4.7c-1.3,0-5.6,0.2-6.9,0.3
		c-0.6,0-1.3,0.1-1.9,0.2l-0.1-2.6c0.7,0.1,1.3,0.1,2,0.1c1.3,0,7-0.2,8.4-0.3c0.5,0,1.1-0.1,1.6-0.3L90.6,59.3z M85.7,75.5
		c-0.2-1.9-1.3-3.1-3-3.1c-1,0-1.8,0.6-1.8,1.4c0,1.1,1.3,1.8,3,1.8C84.5,75.6,85.1,75.6,85.7,75.5z"/>
	<path class="st1" d="M198.3,62.5c2-0.6,7-2.4,10.7-2.4c4.3,0,7.7,2.5,7.7,6.9c0,5.9-5.7,9.1-13.9,9.5l-1.1-2.7
		c6.7-0.1,12.3-2.1,12.3-7c0-2.5-1.8-4.5-5-4.5c-3.9,0-10.1,2.7-12.4,3.6l-1.1-2.8C196.3,63.1,197.4,62.8,198.3,62.5z"/>
	<path class="st1" d="M234,61.8c-1.5,0.4-3,0.7-4.5,0.9c-1.3,3.8-3.2,7.4-5.5,10.7l-2.4-1.2c2.2-2.8,3.9-5.9,5.2-9.1
		c-0.6,0-1.2,0-1.8,0c-1,0-2,0-3-0.1l-0.2-2.3c1,0.1,2.2,0.1,3.2,0.1c0.8,0,1.7,0,2.6-0.1c0.4-1.4,0.6-2.8,0.7-4.3l2.8,0.3
		c-0.2,0.9-0.5,2.2-0.9,3.7c1.2-0.2,2.5-0.5,3.7-0.9L234,61.8z M237.1,64.4c-0.1,1-0.1,2,0,3c0,0.8,0.1,2.3,0.2,3.7
		c1.9,0.7,3.7,1.8,5.2,3.2l-1.3,2.2c-1.1-1.1-2.4-2-3.7-2.8v0.7c0,2.1-1.3,3.9-4.6,3.9c-2.9,0-5.3-1.2-5.3-3.9c0-2.3,2.1-4,5.2-4
		c0.7,0,1.4,0.1,2.1,0.2c-0.1-2-0.2-4.3-0.3-6L237.1,64.4z M234.9,72.5c-0.7-0.2-1.5-0.3-2.3-0.3c-1.7,0-2.8,0.7-2.8,1.8
		c0,1,0.9,1.8,2.6,1.8c1.2,0.2,2.3-0.6,2.5-1.8c0-0.2,0-0.4,0-0.5C235,73.2,235,72.9,234.9,72.5z M241.8,65.3
		c-1.8-1.4-3.8-2.5-5.9-3.5l1.3-2c2.1,1,4.1,2.1,6,3.4L241.8,65.3z"/>
	<path class="st1" d="M252.3,58c-0.2,0.5-0.4,1.3-0.5,1.8c-0.7,3.3-1.6,8.4-0.8,12.1c0.4-0.9,0.8-2.3,1.3-3.4l1.3,0.8
		c-0.7,1.9-1.4,4.5-1.7,5.8c-0.1,0.4-0.1,0.8-0.1,1.2c0,0.3,0,0.6,0,0.9l-2.2,0.2c-0.9-2.6-1.3-5.3-1.4-8c0.1-3.3,0.4-6.5,0.9-9.8
		c0.1-0.6,0.1-1.2,0.1-1.9L252.3,58z M264.5,57.6c-0.1,0.5-0.1,1-0.1,1.6c0,0.6,0,2,0,3.5c1.4-0.1,2.9-0.3,4.3-0.6v2.6
		c-1.2,0.2-2.6,0.3-4.2,0.4v0.7c0,5.8-0.2,9.7-5.4,12.9l-2.3-1.8c1-0.4,1.9-1,2.7-1.8c2.3-2.2,2.6-4.8,2.6-9.3v-0.6
		c-0.9,0-1.8,0.1-2.7,0.1c-1.2,0-2.8-0.1-4-0.2v-2.6c1.3,0.2,2.6,0.3,3.9,0.3c0.9,0,1.8,0,2.7,0c0-1.5-0.1-3-0.1-3.6
		c-0.1-0.5-0.1-1.1-0.3-1.6L264.5,57.6z M266.5,60.8c-0.4-1.2-0.9-2.4-1.4-3.6l1.4-0.4c0.6,1.1,1,2.3,1.4,3.5L266.5,60.8z
		 M269.2,55.9c0.5,1.1,1,2.3,1.4,3.5l-1.5,0.5c-0.4-1.2-0.9-2.4-1.4-3.5L269.2,55.9z"/>
	<path class="st1" d="M290.1,59.3c-0.5,0.3-1.1,0.7-1.5,1c-1.3,0.9-4.3,3.6-6.1,5c1-0.3,2-0.4,3-0.4c4.2,0,7.3,2.6,7.3,6.1
		c0,4-3.2,6.9-8.8,6.9c-3.5,0-5.8-1.6-5.8-3.8c0.2-2.1,2-3.7,4.1-3.6h0c2.7-0.2,5,1.8,5.3,4.4c1.6-0.6,2.7-2.2,2.6-4
		c0-2.3-2.4-4-5.4-4c-4,0-6.4,1.9-9.3,5l-1.9-1.8c2-1.6,5.1-4.2,6.6-5.4c1.5-1.2,4.3-3.6,5.6-4.7c-1.3,0-5.6,0.2-6.9,0.3
		c-0.6,0-1.3,0.1-1.9,0.2l-0.1-2.6c0.7,0.1,1.3,0.1,2,0.1c1.3,0,7-0.2,8.3-0.3c0.5,0,1.1-0.1,1.6-0.3L290.1,59.3z M285.2,75.5
		c-0.2-1.9-1.3-3.1-3-3.1c-1,0-1.8,0.6-1.8,1.4c0,1.1,1.3,1.8,3,1.8C284,75.6,284.6,75.6,285.2,75.5z"/>
	<path class="st1" d="M374.3,67.2c-1.5-1-3.1-1.9-4.7-2.7l1.3-1.8c1.4,0.7,3.6,1.8,4.7,2.5L374.3,67.2z M370.2,76.9
		c1.8-2.6,3.3-5.2,4.8-8l1.7,1.6c-1.3,2.6-3,5.7-4.5,8L370.2,76.9z M375.5,60.3c-1-0.7-3.1-2-4.6-2.8l1.3-1.7
		c1.6,0.8,3.2,1.6,4.7,2.6L375.5,60.3z M386.1,65.1v3.7h5.2v9.8H389v-0.9h-8.4v1.1h-2.2v-9.9h5.3v-3.7h-7v-2.3h7v-3.6
		c-1.8,0.3-3.6,0.5-5.3,0.6c-0.1-0.7-0.4-1.4-0.7-2c4.1-0.3,8.1-1.1,12.1-2.3l1.9,1.8c-1.9,0.7-3.8,1.1-5.7,1.5v4h6.7v2.3
		L386.1,65.1z M389,71h-8.4v4.6h8.4V71z"/>
	<path class="st1" d="M417.7,75.8c0,1.4-0.3,2.1-1.2,2.4c-1.5,0.4-3.1,0.5-4.7,0.4c-0.2-0.8-0.4-1.6-0.8-2.3c1.6,0.1,3.3,0,3.8,0
		c0.5,0,0.6-0.1,0.6-0.6v-4.5h-6.1v7.2h-2.3v-7.2H401c-0.3,2.8-1.4,5.5-3.2,7.7c-0.5-0.6-1.2-1.1-1.9-1.5c2.8-3.1,3-7.6,3-11.1v-9
		h18.7V75.8z M406.9,69v-3.8h-5.5v1c0,0.9,0,1.8-0.1,2.7L406.9,69z M401.4,59.5v3.6h5.5v-3.6H401.4z M415.3,59.5h-6.1v3.6h6.1V59.5z
		 M415.3,69v-3.8h-6.1V69H415.3z"/>
	<path class="st1" d="M443.8,62.1c-1.5-0.1-3.8-0.1-7.5-0.1c0,1.3,0,2.8,0,3.9c0.6,1,0.9,2.2,0.9,3.3c0,3.3-1.8,7.3-7.7,9l-2.1-2.1
		c2.9-0.7,5.2-1.8,6.5-3.6c-2.2,0.9-4.7-0.1-5.6-2.3c-0.2-0.5-0.3-1.1-0.3-1.7c0-2.5,2.1-4.5,4.6-4.5c0,0,0.1,0,0.1,0
		c0.5,0,0.9,0.1,1.4,0.2V62c-3.8,0-7.9,0.2-11,0.4l-0.1-2.4c2.8,0,7.5-0.2,11.1-0.2c0-0.5,0-1,0-1.3c0-0.6-0.1-1.5-0.2-1.8h2.9
		c0,0.3-0.1,1.5-0.1,1.8c0,0.3,0,0.7,0,1.2h7.5L443.8,62.1z M432.5,70.7c1.3,0,2.3-1,1.9-3.4c-0.4-0.8-1.2-1.2-2-1.2
		c-1.2,0-2.3,1-2.3,2.3c0,0,0,0.1,0,0.1c0,1.2,0.9,2.2,2.1,2.2C432.4,70.7,432.5,70.7,432.5,70.7z"/>
	<path class="st1" d="M464,59.3c-0.5,0.3-1.1,0.7-1.5,1c-1.3,0.9-4.3,3.6-6.1,5c1-0.3,2-0.4,3-0.4c4.2,0,7.3,2.6,7.3,6.1
		c0,4-3.2,6.9-8.8,6.9c-3.5,0-5.8-1.6-5.8-3.8c0.2-2.1,2-3.7,4.1-3.6h0c2.7-0.2,5,1.8,5.3,4.4c1.6-0.6,2.7-2.2,2.6-4
		c0-2.3-2.4-4-5.4-4c-4,0-6.4,1.9-9.3,5l-1.9-1.9c2-1.6,5.1-4.2,6.6-5.4c1.5-1.2,4.3-3.6,5.6-4.7c-1.3,0-5.6,0.2-6.9,0.3
		c-0.6,0-1.3,0.1-1.9,0.2l-0.1-2.5c0.7,0.1,1.3,0.1,2,0.1c1.3,0,7-0.2,8.4-0.3c0.5,0,1.1-0.1,1.6-0.3L464,59.3z M459.1,75.5
		c-0.2-1.9-1.3-3.1-3-3.1c-1,0-1.8,0.6-1.8,1.4c0,1.1,1.3,1.8,3,1.8C457.9,75.6,458.5,75.6,459.1,75.5z"/>
</g>
</svg>
