<?xml version="1.0" encoding="utf-8"?>
<!-- Generator: Adobe Illustrator 22.1.0, SVG Export Plug-In . SVG Version: 6.00 Build 0)  -->
<svg version="1.1" id="レイヤー_1" xmlns="http://www.w3.org/2000/svg" xmlns:xlink="http://www.w3.org/1999/xlink" x="0px"
	 y="0px" width="450.659px" height="104.089px" viewBox="0 0 450.659 104.089" style="enable-background:new 0 0 450.659 104.089;"
	 xml:space="preserve">
<style type="text/css">
	.st0{fill:#FFFFFF;}
</style>
<g>
	<g>
		<g>
			<g>
				<g>
					<path class="st0" d="M75.071,58.985c-3.882,0.398-7.896,0.808-10.575,3.865c-2.314,2.641-3.112,6.59-1.986,9.826
						c1.486,4.269,5.438,6.871,10.548,6.871c3.725,0,7.4-1.361,9.79-3.781c0.662-0.67,1.32-1.523,1.768-2.335
						c2.507-4.546,2.313-10.795,1.757-15.369C85,58.174,75.071,58.985,75.071,58.985z"/>
					<path class="st0" d="M78.148,19.217c-5.123-1.146-10.203-1.286-15.063-0.566c-5.246,0.777-10.512,0.063-15.418-1.859
						c-0.684-0.268-1.359-0.564-2.031-0.872c-3.267-1.498-7.046-2.573-12.312-2.231c-4.87,0.317-9.231,2.275-12.299,4.404
						c1.761,0.325,3.451,0.777,4.797,1.38c6.665,2.984,10.896,7.158,12.972,13.605c1.109,3.447,0.879,8.5-0.823,14.067
						c-1.736,5.679-8.765,28.663-8.765,28.663c5.036,14.421,17.512,25.548,33.402,27.851c23.834,3.455,45.974-14.299,48.063-39.236
						C112.445,43.257,98.411,23.747,78.148,19.217z M95.387,84.642c0,0-1.198,0.721-2.042,0.752h-4.143
						c-3.049,0-2.571-0.99-2.571-5.424c-6.47,5.973-14.863,8.402-23.062,5.277c-13.881-5.292-13.246-24.374-1.061-30.93
						c5.444-2.929,24.406-2.904,24.406-2.904s-0.12-13.97-11.77-15.598c-4.337-0.606-10.116,1.198-12.015,1.496
						c-1.499,0.235-2.421-0.756-2.962-2.001c-0.719-1.655-1.765-3.464,1.107-4.823c2.242-1.061,9.778-2.956,14.434-2.374
						c7.246,0.905,12.514,3.659,16.383,9.218c2.069,2.972,3.295,7.872,3.295,13.693C95.387,62.072,95.387,84.642,95.387,84.642z"/>
				</g>
			</g>
			<path class="st0" d="M29.894,45.176c-0.118-0.036-11.814-3.609-19.428-4.368l-0.341-0.034L10.1,40.432
				c-0.4-7.047,1.614-11.984,4.231-16.043l0.133-0.199l0.238,0.019c2.707,0.218,6.151,0.625,8.786,1.851
				c10.858,5.053,6.956,18.705,6.915,18.843l-0.117,0.394L29.894,45.176z"/>
			<path class="st0" d="M12.954,68.909c-1.545,0-3.086-0.232-4.581-0.689c-5.057-1.546-8.184-5.295-8.366-10.028
				c-0.136-3.565,1.859-7.254,4.964-9.178c1.575-0.975,3.382-1.449,5.525-1.449c0.536,0,1.09,0.028,1.693,0.086
				c1.454,0.14,2.909,0.427,4.318,0.705l11.468,2.507l-0.068,0.385c-0.731,4.12-1.829,7.575-3.264,10.269
				c-0.879,1.65-1.897,3.042-3.026,4.136c-0.669,0.649-1.568,1.299-2.464,1.782C17.368,68.399,15.224,68.909,12.954,68.909
				L12.954,68.909z"/>
		</g>
		<g>
			<path class="st0" d="M192.04,45.791c-0.526-7.655-6.088-12.64-8.527-14.272c-2.954-1.977-7.046-3.514-12.655-3.514
				c-5.015,0-9.021,1.324-12.121,3.323c-1.166,0.752-2.835,2.24-4.082,3.46c-1.247-1.221-2.916-2.709-4.082-3.46
				c-3.1-1.999-7.106-3.323-12.121-3.323c-5.609,0-9.701,1.538-12.655,3.514c-2.439,1.632-8.001,6.617-8.527,14.272l-0.093,35.935
				c-0.117,3.806,2.405,3.806,3.087,3.806l4.483-0.002c0.899,0,2.032-0.755,2.032-0.755V51.307c0-7.122,1.548-14.554,11.673-14.595
				c7.659,0,12.081,4.695,11.807,14.595v30.357c0,2.784,2.301,3.479,4.393,3.479c2.092,0,4.4-0.65,4.4-3.479V51.307
				c-0.274-9.9,4.148-14.595,11.807-14.595c10.123,0.041,11.673,7.473,11.673,14.595v33.469c0,0,1.134,0.755,2.032,0.755
				l4.483,0.002c0.681,0,3.204,0,3.087-3.806L192.04,45.791z"/>
			<path class="st0" d="M383.139,45.791c-0.526-7.655-6.088-12.64-8.527-14.272c-2.954-1.977-7.046-3.514-12.655-3.514
				c-5.015,0-9.021,1.324-12.121,3.323c-1.166,0.752-2.835,2.24-4.082,3.46c-1.247-1.221-2.916-2.709-4.082-3.46
				c-3.1-1.999-7.106-3.323-12.121-3.323c-5.609,0-9.701,1.538-12.655,3.514c-2.439,1.632-8.001,6.617-8.527,14.272l-0.093,35.935
				c-0.117,3.806,2.405,3.806,3.087,3.806l4.483-0.002c0.899,0,2.032-0.755,2.032-0.755V51.307c0-7.122,1.548-14.554,11.673-14.595
				c7.659,0,12.081,4.695,11.807,14.595v30.357c0,2.784,2.301,3.479,4.393,3.479s4.4-0.65,4.4-3.479V51.307
				c-0.274-9.9,4.148-14.595,11.807-14.595c10.123,0.041,11.673,7.473,11.673,14.595v33.469c0,0,1.134,0.755,2.032,0.755
				l4.483,0.002c0.681,0,3.204,0,3.087-3.806L383.139,45.791z"/>
			<path class="st0" d="M252.918,38.017c-2.091-3.431-5.054-6.275-8.695-8.01c-3.296-1.57-7.036-2.147-10.662-2.198
				c-3.627,0.051-7.176,0.628-10.472,2.198c-3.642,1.735-6.604,4.578-8.696,8.01c-1.893,3.107-3.182,7.687-3.178,10.807v33.489
				c0,2.019,1.295,3.258,2.99,3.258h4.736c0.88,0,2.095-0.755,2.095-0.755s0.007-23.621,0.007-33.914
				c0-5.804,2.095-9.156,3.665-10.933c2.476-2.802,6.454-3.414,8.845-3.398c2.395,0.015,6.636,0.688,9.052,3.398
				c1.577,1.769,3.664,5.128,3.664,10.933c0,10.292,0.051,33.913,0.051,33.913s1.192,0.756,2.091,0.756h4.696
				c1.695,0,2.99-1.239,2.99-3.258V48.825C256.096,44.579,254.81,41.124,252.918,38.017z"/>
			<path class="st0" d="M281.997,14.134c-3.013-0.042-5.584-1.956-6.545-4.871c-0.893-2.707-0.246-5.27,1.736-7.183
				c2.035-1.964,4.406-2.528,6.991-1.731c3.294,1.015,5.408,3.998,4.953,7.413C288.644,11.43,285.56,14.185,281.997,14.134"/>
			<path class="st0" d="M286.849,82.145V29.373c-2.848,0.472-4.722,0.409-4.722,0.409s-1.874,0.063-4.722-0.409v52.773
				c0,1.648-0.114,2.818,1.514,3.749c0.575,0.329,1.892,0.605,3.208,0.605s2.632-0.276,3.208-0.605
				C286.963,84.963,286.849,83.793,286.849,82.145z"/>
			<g>
				<g>
					<path class="st0" d="M435.399,28.787c-1.414-0.513-5.443-1.454-9.467-1.513c-4.023,0.059-8.055,0.992-9.467,1.513
						c-6.852,2.524-15.259,9.611-15.259,28.737s8.344,26.2,15.259,28.609c1.421,0.494,5.445,1.462,9.468,1.521
						c4.023-0.059,8.047-1.027,9.468-1.521c6.915-2.409,15.259-9.483,15.259-28.609S442.23,31.266,435.399,28.787z M440.722,61.96
						c-0.677,9.571-3.652,14.64-9.99,16.25c-1.421,0.367-3.035,0.553-4.799,0.554c-1.764,0-3.378-0.187-4.799-0.554
						c-6.338-1.61-9.313-6.679-9.99-16.25c-0.161-2.27-0.161-6.602,0-8.872c0.677-9.571,3.652-14.421,9.99-16.031
						c1.421-0.367,3.035-0.553,4.799-0.554c1.764,0,3.378,0.187,4.799,0.554c6.338,1.61,9.313,6.459,9.99,16.031
						C440.882,55.358,440.882,59.69,440.722,61.96z"/>
				</g>
			</g>
		</g>
	</g>
</g>
</svg>
