<?xml version="1.0" encoding="utf-8"?>
<!-- Generator: Adobe Illustrator 22.1.0, SVG Export Plug-In . SVG Version: 6.00 Build 0)  -->
<svg version="1.1" id="レイヤー_1" xmlns="http://www.w3.org/2000/svg" xmlns:xlink="http://www.w3.org/1999/xlink" x="0px"
	 y="0px" width="19.999px" height="19.999px" viewBox="0 0 19.999 19.999" style="enable-background:new 0 0 19.999 19.999;"
	 xml:space="preserve">
<style type="text/css">
	.st0{fill:#FFFFFF;}
</style>
<path class="st0" d="M-86.104,0h-17.792C-104.506,0-105,0.494-105,1.104v17.792c0,0.609,0.494,1.103,1.104,1.103h9.579v-7.734
	h-2.598V9.238h2.598V7.01c0-2.584,1.577-3.99,3.882-3.99c1.104,0,2.052,0.082,2.329,0.119v2.7h-1.589
	c-1.254,0-1.497,0.596-1.497,1.47v1.928h2.998h0l-0.391,3.027h0h-2.607v7.734h5.087c0.61,0,1.104-0.494,1.104-1.103c0,0,0,0,0,0
	V1.103C-85.001,0.494-85.495,0-86.104,0z"/>
<g>
	<path class="st0" d="M-60,1.802c2.67,0,2.986,0.01,4.041,0.058c0.975,0.044,1.504,0.207,1.857,0.344
		c0.467,0.181,0.8,0.398,1.15,0.748c0.35,0.35,0.567,0.683,0.748,1.15c0.137,0.352,0.3,0.882,0.344,1.857
		c0.048,1.054,0.058,1.371,0.058,4.041s-0.01,2.986-0.058,4.041c-0.044,0.975-0.207,1.504-0.344,1.857
		c-0.181,0.467-0.398,0.8-0.748,1.15c-0.35,0.35-0.683,0.567-1.15,0.748c-0.352,0.137-0.882,0.3-1.857,0.344
		c-1.054,0.048-1.371,0.058-4.041,0.058c-2.67,0-2.986-0.01-4.041-0.058c-0.975-0.044-1.504-0.207-1.857-0.344
		c-0.467-0.181-0.8-0.398-1.15-0.748c-0.35-0.35-0.567-0.683-0.748-1.15c-0.137-0.352-0.3-0.882-0.344-1.857
		c-0.048-1.054-0.058-1.371-0.058-4.041s0.01-2.986,0.058-4.041c0.044-0.975,0.207-1.504,0.344-1.857
		c0.181-0.467,0.398-0.8,0.748-1.15c0.35-0.35,0.683-0.567,1.15-0.748c0.352-0.137,0.882-0.3,1.857-0.344
		C-62.987,1.812-62.67,1.802-60,1.802 M-60,0c-2.716,0-3.056,0.012-4.123,0.06c-1.064,0.049-1.791,0.218-2.427,0.465
		c-0.658,0.256-1.215,0.597-1.771,1.153c-0.556,0.556-0.898,1.114-1.153,1.771c-0.247,0.636-0.416,1.363-0.465,2.427
		C-69.988,6.943-70,7.284-70,10c0,2.716,0.012,3.056,0.06,4.123c0.049,1.064,0.218,1.791,0.465,2.427
		c0.256,0.658,0.597,1.215,1.153,1.771c0.556,0.556,1.114,0.898,1.771,1.153c0.636,0.247,1.363,0.416,2.427,0.465
		c1.067,0.049,1.407,0.06,4.123,0.06s3.056-0.011,4.123-0.06c1.064-0.049,1.791-0.218,2.427-0.465
		c0.658-0.256,1.215-0.597,1.771-1.153c0.556-0.556,0.898-1.114,1.153-1.771c0.247-0.636,0.416-1.363,0.465-2.427
		c0.049-1.067,0.06-1.407,0.06-4.123s-0.012-3.056-0.06-4.123c-0.049-1.064-0.218-1.791-0.465-2.427
		c-0.256-0.658-0.597-1.215-1.153-1.771c-0.556-0.556-1.114-0.898-1.771-1.153c-0.636-0.247-1.363-0.416-2.427-0.465
		C-56.944,0.012-57.285,0-60,0L-60,0z"/>
	<path class="st0" d="M-60,4.865c-2.836,0-5.135,2.299-5.135,5.135s2.299,5.135,5.135,5.135c2.836,0,5.135-2.299,5.135-5.135
		S-57.164,4.865-60,4.865z M-60,13.333c-1.841,0-3.333-1.492-3.333-3.333c0-1.841,1.492-3.333,3.333-3.333
		c1.841,0,3.333,1.492,3.333,3.333C-56.667,11.841-58.159,13.333-60,13.333z"/>
	<circle class="st0" cx="-54.662" cy="4.662" r="1.2"/>
</g>
<path class="st0" d="M-16.48,0h-17.045C-34.339,0-35,0.646-35,1.442v17.115C-35,19.353-34.339,20-33.525,20h17.045
	c0.815,0,1.479-0.647,1.479-1.443V1.442C-15.001,0.646-15.665,0-16.48,0z M-29.067,17.042h-2.969V7.498h2.969V17.042z
	 M-30.551,6.194c-0.953,0-1.721-0.771-1.721-1.72c0-0.949,0.768-1.72,1.721-1.72c0.949,0,1.719,0.771,1.719,1.72
	C-28.832,5.423-29.602,6.194-30.551,6.194z M-17.957,17.042h-2.966v-4.641c0-1.107-0.019-2.531-1.541-2.531
	c-1.544,0-1.779,1.206-1.779,2.451v4.721h-2.963V7.498h2.843v1.305h0.041c0.396-0.75,1.363-1.542,2.807-1.542
	c3.003,0,3.559,1.976,3.559,4.547V17.042z"/>
<path class="st0" d="M17.5,0h-15C1.119,0,0,1.119,0,2.5v15c0,1.381,1.119,2.5,2.5,2.5h15c1.381,0,2.5-1.119,2.5-2.5v-15
	C19.999,1.119,18.88,0,17.5,0z M14.97,7.451c0.005,0.11,0.007,0.22,0.007,0.332c0,3.389-2.58,7.297-7.297,7.297
	c-1.448,0-2.796-0.425-3.931-1.152c0.201,0.024,0.405,0.036,0.612,0.036c1.202,0,2.307-0.41,3.185-1.098
	c-1.123-0.021-2.069-0.762-2.396-1.781c0.156,0.03,0.317,0.046,0.482,0.046c0.234,0,0.461-0.032,0.676-0.09
	c-1.173-0.235-2.057-1.272-2.057-2.514c0-0.011,0-0.022,0.001-0.033c0.346,0.192,0.741,0.308,1.161,0.321
	C4.725,8.354,4.273,7.569,4.273,6.679c0-0.47,0.127-0.91,0.347-1.289c1.265,1.552,3.155,2.572,5.286,2.679
	C9.862,7.882,9.839,7.686,9.839,7.485c0-1.416,1.149-2.564,2.565-2.564c0.737,0,1.404,0.312,1.872,0.81
	c0.584-0.115,1.133-0.329,1.628-0.622c-0.192,0.599-0.598,1.101-1.128,1.419c0.519-0.062,1.013-0.2,1.473-0.404
	C15.906,6.637,15.471,7.089,14.97,7.451z"/>
</svg>
