<svg xmlns="http://www.w3.org/2000/svg" viewBox="0 0 591.9 423.1"><defs><style>.cls-1{fill:#10069f}.cls-2{fill:#fff}.cls-4,.cls-6,.cls-7{fill:none;stroke:#10069f;stroke-linecap:round}.cls-6,.cls-7{stroke-linejoin:round}.cls-4,.cls-6{stroke-width:3px}.cls-4{stroke-miterlimit:10}.cls-6{stroke-dasharray:0 5.27}.cls-7{stroke-width:1.88px}</style></defs><g id="レイヤー_2" data-name="レイヤー 2"><g id="レイヤー_2-2" data-name="レイヤー 2"><path class="cls-1" d="M500 117.4a47.9 47.9 0 0147.3 39.8l.9 5.4 5.5.4a33.6 33.6 0 01-2.4 67.2H434a33.7 33.7 0 01-15.9-63.3l3.9-2.1-.2-4.4v-1.1a23.8 23.8 0 0123.7-23.8 23 23 0 019 1.8l4.8 2 3.3-4.1a48 48 0 0137.4-17.8m0-7a55.1 55.1 0 00-42.8 20.4 32.1 32.1 0 00-11.7-2.3 30.8 30.8 0 00-30.7 30.8v1.4a40.6 40.6 0 0019.2 76.5h117.3a40.7 40.7 0 002.9-81.2 55.1 55.1 0 00-54.2-45.6z" transform="translate(0 -1.3)"/><path class="cls-1" d="M458.1 159.6a5.2 5.2 0 00-3.7-2 9.3 9.3 0 00-3.2.5c-.6.3-.5.7-.3 1.1a.7.7 0 00.7.6 10.4 10.4 0 012.8-.3c2.4.5 2.4 3.2 2.4 3.2s-4.1 0-5.3.6c-2.8 1.5-2.8 5.9.2 7a5.1 5.1 0 005.1-1.1c0 .8-.1 1.1.5 1.1h1.5v-7.5a4.9 4.9 0 00-.7-3.1m-4.3 9.3a2.3 2.3 0 01-2.2-1.5 2.1 2.1 0 01.4-2c.6-.7 1.3-.8 4.7-1a7.2 7.2 0 01-.4 3.2 2.9 2.9 0 01-2.5 1.3m25.5-7.4a4.3 4.3 0 00-1.9-3.1 4.8 4.8 0 00-2.7-.7 4.5 4.5 0 00-2.7.7l-.9.7a3.1 3.1 0 00-.9-.7 4 4 0 00-2.6-.7 5.5 5.5 0 00-2.8.7 5 5 0 00-1.9 3.1v7.9c0 .8.6.8.7.8h1.4V163c0-1.6.4-3.2 2.6-3.2s2.6 1 2.6 3.2v6.6c0 .6.5.7.9.7s1-.1 1-.7V163c-.1-2.2.9-3.2 2.6-3.2s2.5 1.6 2.5 3.2v7.3h1.4c.2 0 .7 0 .7-.8zm41.8 0a4.3 4.3 0 00-1.9-3.1 4.8 4.8 0 00-2.7-.7 4.5 4.5 0 00-2.7.7l-.9.7c-.3-.2-.6-.6-.9-.7a4.2 4.2 0 00-2.6-.7 5.2 5.2 0 00-2.8.7 5 5 0 00-1.9 3.1v7.9c0 .8.5.8.7.8h1.4V163c0-1.6.4-3.2 2.6-3.2s2.6 1 2.6 3.2v6.6c0 .6.5.7.9.7s1-.1 1-.7V163c-.1-2.2.9-3.2 2.6-3.2s2.5 1.6 2.5 3.2v7.3h1.4c.2 0 .7 0 .7-.8zm-28.5-1.7a4.5 4.5 0 00-1.9-1.7 5.5 5.5 0 00-4.6 0 4.5 4.5 0 00-1.9 1.7 5.5 5.5 0 00-.7 2.4v7.3c0 .5.3.7.6.7h1.5v-7.4a3.7 3.7 0 01.8-2.4 2.9 2.9 0 014 0 3.7 3.7 0 01.8 2.4v7.4h1.5c.3 0 .6-.2.6-.7v-7.3a4.8 4.8 0 00-.7-2.4m6.4-5.2a1.6 1.6 0 01-1.5-1 1.6 1.6 0 01.4-1.6 1.6 1.6 0 011.6-.4 1.4 1.4 0 011 1.6 1.5 1.5 0 01-1.5 1.4m1 14.9v-11.5h-2v11.5c0 .4-.1.6.3.8h1.4c.4-.2.3-.4.3-.8m32.5-11.7a7.7 7.7 0 00-2-.3 7.9 7.9 0 00-2.1.3c-1.5.6-3.4 2.1-3.4 6.3s1.9 5.7 3.4 6.3a7.9 7.9 0 002.1.3 7.7 7.7 0 002-.3c1.5-.6 3.4-2.1 3.4-6.3s-1.9-5.7-3.4-6.3m1.2 7.3c-.2 2.1-.8 3.2-2.2 3.5l-1 .2-1.1-.2c-1.4-.3-2-1.4-2.2-3.5v-2c.2-2.1.8-3.1 2.2-3.5h2.1c1.4.4 2 1.4 2.2 3.5v2m-64.8 17.9c0-4.2 2.7-6.7 5.9-6.7a5 5 0 013.7 1.7l-1.3 1.6a3.4 3.4 0 00-2.3-1.1c-1.9 0-3.4 1.7-3.4 4.4s1.3 4.4 3.3 4.4a3.2 3.2 0 002.6-1.3l1.4 1.6a5.3 5.3 0 01-4.1 1.9c-3.2 0-5.8-2.3-5.8-6.5zm11.7 3.6v-11h2.5v11.1c0 .5.3.7.5.7h.4l.3 1.9-1.3.2c-1.8 0-2.4-1.2-2.4-2.9zm4.8-2.1c0-3.2 2.2-5.1 4.6-5.1s4.6 1.9 4.6 5.1a4.6 4.6 0 11-9.2 0zm6.6 0c0-1.8-.7-3-2-3s-2 1.2-2 3 .7 2.9 2 2.9 2-1.1 2-2.9zm4.6 1.2v-6h2.5v5.6c0 1.5.4 2 1.3 2s1.3-.3 2-1.2v-6.4h2.5v9.5h-2l-.2-1.3h-.1a3.7 3.7 0 01-3.1 1.6c-2 0-2.9-1.5-2.9-3.8zm10.4-1.2c0-3.2 2-5.1 4.1-5.1a3.2 3.2 0 012.4 1.1v-4.9h2.5v13.6h-2l-.2-.9h-.1a4.2 4.2 0 01-2.6 1.2c-2.5 0-4.1-1.9-4.1-5zm6.4 1.9v-4.2a2.7 2.7 0 00-1.8-.7c-1.1 0-2 1-2 2.9s.7 3 2 3a2.2 2.2 0 001.8-1zm-97 15h2.4c2.7 0 4.4 1.4 4.4 4.4s-1.7 4.4-4.3 4.4h-2.5zm2.3 7.4c1.6 0 2.7-.9 2.7-3s-1.1-3-2.7-3h-.6v6zm5.2-1.9a3.3 3.3 0 013.1-3.6c1.9 0 2.8 1.4 2.8 3.3a1.9 1.9 0 01-.1.8h-4.1a1.7 1.7 0 001.9 1.6 2.8 2.8 0 001.5-.4l.6 1.1a5.1 5.1 0 01-2.4.7 3.2 3.2 0 01-3.3-3.5zm4.4-.7c0-.9-.4-1.5-1.3-1.5s-1.3.5-1.4 1.5zm1.7-2.7h1.8l1 3.4a19.4 19.4 0 00.5 2h.1a11.7 11.7 0 01.5-2l1-3.4h1.7l-2.3 6.7h-2zm7.1-2a.9.9 0 011-1 1 1 0 110 1.9.9.9 0 01-1-.9zm.1 2h1.8v6.7h-1.8zm2.8 3.4a3.4 3.4 0 013.4-3.6 3.3 3.3 0 012 .8l-.9 1.1a1.3 1.3 0 00-1-.4c-1 0-1.7.8-1.7 2.1s.7 2.1 1.6 2.1a2 2 0 001.3-.6l.7 1.2a3.5 3.5 0 01-2.2.8 3.2 3.2 0 01-3.2-3.5zm5.8 0a3.3 3.3 0 013.1-3.6c1.9 0 2.8 1.4 2.8 3.3v.8h-4.2a1.8 1.8 0 001.9 1.6 2.8 2.8 0 001.5-.4l.6 1.1a4.8 4.8 0 01-2.4.7 3.3 3.3 0 01-3.3-3.5zm4.4-.7c0-.9-.4-1.5-1.2-1.5a1.5 1.5 0 00-1.5 1.5zm4.9-4.8h2l1.5 4.1.5 1.7h.1l.5-1.7 1.5-4.1h2v8.8h-1.6v-3.7c0-.8.1-2 .2-2.9h-.1l-.7 2.1-1.4 3.7h-1l-1.4-3.7-.7-2.1c.1.9.2 2.1.2 2.9v3.7h-1.6zm9.3 7c0-1.4 1.2-2.2 3.9-2.5-.1-.6-.3-1.1-1.2-1.1a3.2 3.2 0 00-1.8.6l-.7-1.2a5.5 5.5 0 012.8-.9c1.7 0 2.6 1.1 2.6 3v3.9h-1.4v-.7h-.1a3.1 3.1 0 01-2 .9 1.9 1.9 0 01-2.1-2zm3.9 0v-1.4c-1.7.2-2.2.7-2.2 1.3s.4.7.9.7a1.9 1.9 0 001.3-.6zm3-4.9h1.5v.9h.1a2.7 2.7 0 012.1-1.1c1.5 0 2.1 1.1 2.1 2.7v4.2h-1.8v-3.9c0-1.1-.2-1.4-.9-1.4a1.9 1.9 0 00-1.4.7v4.6h-1.8zm6.9 4.9c0-1.4 1.2-2.2 3.9-2.5 0-.6-.3-1.1-1.2-1.1a3.2 3.2 0 00-1.8.6l-.6-1.2a5.2 5.2 0 012.8-.9c1.7 0 2.5 1.1 2.5 3v3.9h-1.4v-.7h-.1a2.9 2.9 0 01-2 .9 1.9 1.9 0 01-2.1-2zm3.9 0v-1.4c-1.6.2-2.2.7-2.2 1.3s.4.7.9.7a1.8 1.8 0 001.3-.6zm2.6 3a1.9 1.9 0 011-1.4 1.3 1.3 0 01-.6-1.2 1.5 1.5 0 01.7-1.2 2.2 2.2 0 01-.9-1.7 2.5 2.5 0 012.7-2.5l1 .2h2.5v1.3h-1.2a1.5 1.5 0 01.3 1c0 1.5-1.1 2.3-2.6 2.3h-.8a.5.5 0 00-.3.5c0 .4.3.6 1 .6h1.2c1.6 0 2.5.5 2.5 1.7s-1.4 2.3-3.7 2.3-2.8-.7-2.8-1.9zm4.8-.3c0-.5-.4-.6-1.1-.6h-1.8a.9.9 0 00-.4.7c0 .6.6.9 1.6.9s1.7-.5 1.7-1zm-.8-5.3a1.2 1.2 0 00-1.1-1.3c-.6 0-1 .5-1 1.3a1.1 1.1 0 001 1.2 1.1 1.1 0 001.1-1.2zm2.7 1.1a3.4 3.4 0 013.2-3.6c1.8 0 2.8 1.4 2.8 3.3 0 .3-.1.6-.1.8h-4.2a1.8 1.8 0 001.9 1.6 2.6 2.6 0 001.5-.4l.6 1.1a4.5 4.5 0 01-2.3.7 3.3 3.3 0 01-3.4-3.5zm4.5-.7c0-.9-.4-1.5-1.3-1.5s-1.3.5-1.5 1.5zm2.4-2.7h1.5v.9h.1a2.6 2.6 0 012-1.1 2 2 0 011.9 1.2 3 3 0 012.1-1.2c1.4 0 2.1 1.1 2.1 2.7v4.2h-1.8v-3.9c0-1.1-.3-1.4-.9-1.4a1.9 1.9 0 00-1.3.7v4.6h-1.8v-3.9c0-1.1-.3-1.4-.9-1.4a1.9 1.9 0 00-1.3.7v4.6h-1.8zM509 207a3.3 3.3 0 013.1-3.6c1.9 0 2.9 1.4 2.9 3.3 0 .3-.1.6-.1.8h-4.2a1.8 1.8 0 001.9 1.6 2.8 2.8 0 001.5-.4l.6 1.1a4.8 4.8 0 01-2.4.7 3.3 3.3 0 01-3.3-3.5zm4.4-.7c0-.9-.4-1.5-1.2-1.5a1.5 1.5 0 00-1.5 1.5zm2.5-2.7h1.5v.9a3.1 3.1 0 012.2-1.1c1.5 0 2.1 1.1 2.1 2.7v4.2H520v-3.9c0-1.1-.3-1.4-.9-1.4a1.7 1.7 0 00-1.4.7v4.6h-1.8zm7.5 4.4v-3h-1v-1.3h1.1l.2-1.8h1.5v1.8h1.6v1.3h-1.6v3c0 .7.3 1.1.9 1.1h.6l.3 1.2a2.6 2.6 0 01-1.4.3c-1.6-.1-2.2-1.1-2.2-2.6zm6.1 1.2l1-1.2a3.7 3.7 0 002.3 1c.9 0 1.4-.4 1.4-1.1s-.6-.8-1.3-1.2l-1.2-.5a2.5 2.5 0 01-1.8-2.3 2.7 2.7 0 013-2.6 3.9 3.9 0 012.8 1.1l-.9 1.1a2.9 2.9 0 00-1.9-.7c-.7 0-1.2.4-1.2.9s.6.9 1.3 1.2l1.2.5a2.4 2.4 0 011.8 2.4c0 1.5-1.2 2.7-3.3 2.7a4.8 4.8 0 01-3.2-1.3zm7.1 3.7l.3-1.4h.5a1.3 1.3 0 001.3-1v-.4l-2.6-6.6h1.7l1.1 3.1.6 1.9a10.5 10.5 0 00.5-1.9l.9-3.1h1.7l-2.4 6.9c-.5 1.6-1.3 2.5-2.8 2.5zm6.1-3.3l.8-1.2a2.9 2.9 0 001.8.8c.7 0 1-.3 1-.7s-.7-.8-1.4-1-1.8-.9-1.8-2 .9-2.1 2.5-2.1a3.7 3.7 0 012.2.9l-.7 1a3 3 0 00-1.5-.5q-.9 0-.9.6c0 .5.7.7 1.4.9s1.9.8 1.9 2.1-1 2.1-2.7 2.1a4.8 4.8 0 01-2.6-.9zm6.4-1.6v-3h-1v-1.3h1.1l.2-1.8h1.4v1.8h1.7v1.3h-1.7v3c0 .7.3 1.1.9 1.1h.7l.3 1.2a2.9 2.9 0 01-1.4.3c-1.6-.1-2.2-1.1-2.2-2.6zm3.9-1a3.3 3.3 0 013.1-3.6c1.8 0 2.8 1.4 2.8 3.3a1.9 1.9 0 01-.1.8h-4.1a1.6 1.6 0 001.8 1.6 2.4 2.4 0 001.5-.4l.6 1.1a4.5 4.5 0 01-2.3.7 3.2 3.2 0 01-3.3-3.5zm4.4-.7c0-.9-.4-1.5-1.3-1.5s-1.3.5-1.5 1.5zm2.5-2.7h1.4v.9h.1a2.7 2.7 0 012-1.1 1.9 1.9 0 011.9 1.2 3 3 0 012.1-1.2c1.4 0 2.1 1.1 2.1 2.7v4.2h-1.8v-3.9c0-1.1-.3-1.4-.9-1.4a1.9 1.9 0 00-1.3.7v4.6h-1.7v-3.9c0-1.1-.3-1.4-1-1.4a1.9 1.9 0 00-1.3.7v4.6h-1.7zM333 259.7a4.7 4.7 0 014.7 4.7v68.1a4.7 4.7 0 01-4.7 4.7H157.8a4.7 4.7 0 01-4.7-4.7v-68.1a4.7 4.7 0 014.7-4.7H333m0-5H157.8a9.7 9.7 0 00-9.7 9.7v68.1a9.7 9.7 0 009.7 9.7H333a9.6 9.6 0 009.7-9.7v-68.1a9.6 9.6 0 00-9.7-9.7z" transform="translate(0 -1.3)"/><path class="cls-1" d="M165.1 304.5h29.2v19.46h-29.2zm29.2 9.7h19.5v9.73h-19.5zm18.3-60.8h4.9v17.03h-4.9zm12.1 0h4.9v17.03h-4.9zm12.2 0h4.9v17.03h-4.9zm12.2 0h4.9v17.03h-4.9zm12.1 0h4.9v17.03h-4.9zm12.2 0h4.9v17.03h-4.9z"/><path class="cls-1" d="M263.8 295.2v1h-1.5c-.1-.1-.1-.4-.1-.7v-.2h-.1a4.5 4.5 0 01-2.7 1.1l-1.4-.3a2.9 2.9 0 01-1.8-2.5 3.3 3.3 0 011.7-3.1c.9-.5 4.2-.5 4.3-.5h.1s-.1-2.3-2-2.7h-.5l-1.4.2h-.5c-.2 0-.4-.3-.5-.5s-.2-.6.2-.8a9.7 9.7 0 012.3-.4h.3a4 4 0 013 1.7 4 4 0 01.6 2.4v5.1m-3.2-10.8a8.2 8.2 0 00-2.7-.1 4.9 4.9 0 01-3.1-.5 4.2 4.2 0 00-2.7-.3 3.6 3.6 0 00-1.8.7l1 .3a3.9 3.9 0 012.3 2.4 4.5 4.5 0 01-.2 2.5l-.6 2c-.4 1.3-.7 2.4-.9 2.9a.4.4 0 01-.1.3 7.6 7.6 0 0014.7-2 7.7 7.7 0 00-5.9-8.2" transform="translate(0 -1.3)"/><path class="cls-1" d="M252 289.1h.1s.6-2.3-1.2-3.3a5.1 5.1 0 00-1.7-.3 4.3 4.3 0 00-.9 2.2v.7a20.3 20.3 0 013.6.8zm10.2 2.3h-.1l-1.9.2h-.1a2.3 2.3 0 00-1.9.7 1.7 1.7 0 00-.3 1.7 1.8 1.8 0 001.9 1.3 2.6 2.6 0 001.7-.7.5.5 0 00.3-.4 4.3 4.3 0 00.4-2.7zm53.3-3.1a4.5 4.5 0 00-1.3-1.7 3.9 3.9 0 00-2.3-.6 3.6 3.6 0 00-2.2.6l-.8.6-.7-.6a3.8 3.8 0 00-2.2-.6 3.9 3.9 0 00-2.3.6 3.7 3.7 0 00-1.3 1.7 1.8 1.8 0 00-.2 1c-.1.8 0 3.4 0 5.1v1.3c0 .2 0 .6.5.6h1.2v-6a2.9 2.9 0 01.7-2.2 2 2 0 011.4-.5 3 3 0 011.5.5 2.9 2.9 0 01.6 2.2v5.4a.7.7 0 00.8.6.7.7 0 00.9-.6v-5.4a2.9 2.9 0 01.6-2.2 3 3 0 011.5-.5 2 2 0 011.4.5 2.9 2.9 0 01.7 2.2v6h1.2c.5 0 .5-.4.5-.6v-6.4a3.6 3.6 0 00-.2-1m-34.5 0a4.5 4.5 0 00-1.3-1.7 3.9 3.9 0 00-2.3-.6 3.6 3.6 0 00-2.2.6l-.8.6-.7-.6a3.8 3.8 0 00-2.2-.6 3.9 3.9 0 00-2.3.6 3.7 3.7 0 00-1.3 1.7 1.8 1.8 0 00-.2 1c-.1.8 0 3.4 0 5.1v1.3c0 .2 0 .6.5.6h1.2v-6a2.9 2.9 0 01.7-2.2 2 2 0 011.4-.5 3 3 0 011.5.5 2.9 2.9 0 01.6 2.2v5.4a.7.7 0 00.8.6.7.7 0 00.9-.6v-5.4a2.9 2.9 0 01.6-2.2 3 3 0 011.5-.5 2 2 0 011.4.5 2.9 2.9 0 01.7 2.2v6h1.1c.6 0 .6-.4.6-.6v-6.4a3.6 3.6 0 00-.2-1m45.1 3.8c-.1 1.7-.7 2.6-1.8 2.9h-1.7c-1.2-.3-1.7-1.2-1.9-2.9v-1.6c.2-1.7.7-2.6 1.9-2.9h1.7c1.1.3 1.7 1.2 1.8 2.9v1.6m1.8-1.1c0-1-.3-4-2.8-4.9a4.5 4.5 0 00-1.6-.3h-.1a4.7 4.7 0 00-1.7.3c-2.5.9-2.7 3.9-2.7 4.9v.6c0 1 .2 4 2.7 4.8a4.7 4.7 0 001.7.3h.1l1.6-.2c2.5-.9 2.8-3.9 2.8-4.9v-.6m-30.1-10a1 1 0 00-1.2.3 1.2 1.2 0 00-.4 1.3 1.4 1.4 0 001.2.9 1.3 1.3 0 001.3-1.2 1.2 1.2 0 00-.9-1.3m-.3 5.3h-.9v9.7c0 .4.4.5.9.5s.8-.1.8-.5v-9.8h-.8m-6.9.1a4.3 4.3 0 00-1.9-.4 4.1 4.1 0 00-1.9.4 3.9 3.9 0 00-1.6 1.5 4.7 4.7 0 00-.6 1.9v6a.6.6 0 00.6.6h1.2v-6.1a2.7 2.7 0 01.7-2 2.4 2.4 0 013.2 0 2.7 2.7 0 01.7 2v6.1h1.2a.6.6 0 00.6-.6v-6a3.6 3.6 0 00-.6-1.9 3.9 3.9 0 00-1.6-1.5m-39.1 3.8l-1.9-.4h-.1l-.9-.2h-.1a1.7 1.7 0 00-1 .3 1.8 1.8 0 00-.9 1.6 1.9 1.9 0 001.5 1.8h.8l1.1-.2.4-.3a.5.5 0 00.3-.4 4.7 4.7 0 00.9-2.2h-.1zM138.6 2.2h1.5l1.8 6c.4 1.3.6 2.3 1 3.6h.1l1.1-3.6 1.7-6h1.4l-3.5 11h-1.6zm9.8 8.9c0-1.8 1.6-2.7 5-3.1 0-1-.3-2-1.7-2a3.9 3.9 0 00-2.4.9l-.5-1a5.8 5.8 0 013.2-1.1c1.9 0 2.8 1.4 2.8 3.4v5h-1.1l-.2-1a4.2 4.2 0 01-2.7 1.2 2.2 2.2 0 01-2.4-2.3zm5 .1V8.9c-2.7.4-3.7 1-3.7 2.1s.7 1.3 1.5 1.3a3.3 3.3 0 002.2-1.1zm4.3-6.1h1.1v1.4h.1a2.8 2.8 0 012.3-1.7l.9.2-.3 1.2h-.8c-.7 0-1.5.5-2.1 1.9v5.2h-1.3zm5.8-2.6a.9.9 0 011-.9.8.8 0 01.9.9.9.9 0 01-.9.9 1 1 0 01-1-.9zm.3 2.6h1.4v8.1h-1.4zm3.8 4c0-2.7 1.8-4.3 3.8-4.3s3.8 1.6 3.8 4.3-1.8 4.3-3.8 4.3-3.8-1.6-3.8-4.3zm6.2 0c0-1.8-1-3.1-2.4-3.1S169 7.3 169 9.1s1 3.2 2.4 3.2 2.4-1.3 2.4-3.2zm3.7 1.1V5.1h1.4v5c0 1.5.4 2.1 1.5 2.1s1.4-.4 2.2-1.4V5.1h1.4v8.1h-1.2v-1.3a3.6 3.6 0 01-2.7 1.5c-1.8 0-2.6-1.1-2.6-3.2zm8.6 2.1l.7-.9a3.9 3.9 0 002.4.9c1.1 0 1.6-.5 1.6-1.2s-1-1.2-1.9-1.6-2.4-1-2.4-2.3 1-2.4 2.8-2.4a4.6 4.6 0 012.6 1l-.7.8a3.2 3.2 0 00-1.9-.7c-1 0-1.5.6-1.5 1.2s.9 1.1 1.8 1.4 2.5.9 2.5 2.5-1 2.4-2.9 2.4a5.3 5.3 0 01-3.1-1.1zm11.3-3.2c0-2.6 1.7-4.3 3.5-4.3a3.3 3.3 0 012.3 1V1.3h1.3v11.9h-1.1v-1a3.5 3.5 0 01-2.5 1.2c-2.2 0-3.5-1.5-3.5-4.3zm5.8 2V6.9a2.6 2.6 0 00-2-.9c-1.3 0-2.4 1.3-2.4 3.1s.8 3.2 2.3 3.2a2.9 2.9 0 002.1-1.2zm3.8-2c0-2.6 1.8-4.3 3.7-4.3s3.2 1.5 3.2 3.9a1.9 1.9 0 01-.1.8h-5.4a2.6 2.6 0 002.7 2.8 3.6 3.6 0 002-.6l.5.9a5.4 5.4 0 01-2.7.8c-2.2 0-3.9-1.6-3.9-4.3zm5.7-.6c0-1.7-.7-2.6-2-2.6s-2.2 1-2.4 2.6zm2.3-3.4h1.5l1.5 4.6c.2.8.5 1.6.7 2.4h.1a22.5 22.5 0 01.8-2.4l1.5-4.6h1.4l-2.9 8.1H218zm9.1-2.6a.8.8 0 01.9-.9c.6 0 1 .3 1 .9a.9.9 0 01-1 .9.9.9 0 01-.9-.9zm.2 2.6h1.4v8.1h-1.4zm3.8 4a4 4 0 014-4.3 3.8 3.8 0 012.4 1l-.8.9a2.2 2.2 0 00-1.6-.7c-1.5 0-2.5 1.3-2.5 3.1s1 3.2 2.5 3.2a2.8 2.8 0 001.9-.9l.6 1a4.2 4.2 0 01-2.6 1c-2.2 0-3.9-1.6-3.9-4.3zm8 0c0-2.6 1.8-4.3 3.6-4.3s3.3 1.5 3.3 3.9a1.9 1.9 0 01-.1.8h-5.5a2.7 2.7 0 002.7 2.8 3.7 3.7 0 002.1-.6l.5.9a5.4 5.4 0 01-2.7.8c-2.2 0-3.9-1.6-3.9-4.3zm5.7-.6c0-1.7-.8-2.6-2-2.6s-2.2 1-2.4 2.6zm2.6 3.8l.7-.9a3.9 3.9 0 002.4.9c1.1 0 1.6-.5 1.6-1.2s-1-1.2-1.9-1.6-2.4-1-2.4-2.3 1-2.4 2.8-2.4a4 4 0 012.5 1l-.6.8a3.4 3.4 0 00-1.9-.7c-1 0-1.5.6-1.5 1.2s.9 1.1 1.8 1.4 2.5.9 2.5 2.5-1.1 2.4-3 2.4a5.2 5.2 0 01-3-1.1zm46.8 363.1v-7.1h.9v7.1c0 3 1.4 3.9 3.1 3.9s3-.9 3-3.9v-7.1h1v7.1c0 3.7-1.9 4.8-4 4.8s-4-1.1-4-4.8zm11.2-3.9h.8v1a5.1 5.1 0 012.9-1.3c2.2 0 3.4 1.8 3.4 4.4s-1.8 4.6-3.8 4.6a4.7 4.7 0 01-2.5-1v4.6h-.9zm6.2 4.1c0-2.1-.7-3.5-2.6-3.5a4.2 4.2 0 00-2.7 1.3v4.9a3.9 3.9 0 002.4 1.1c1.7 0 2.9-1.5 2.9-3.8zm7.2 2v-5.4h-1.3v-.7h1.4V369h.8v2.5h2.4v.7h-2.4v5.4c0 1.1.3 1.8 1.4 1.8l1-.2.3.7a4.4 4.4 0 01-1.5.3c-1.5 0-2.1-1.1-2.1-2.6zm4.8-1.9c0-2.8 1.8-4.5 3.8-4.5s3.9 1.7 3.9 4.5-1.8 4.5-3.9 4.5-3.8-1.6-3.8-4.5zm6.7 0c0-2.1-1.2-3.6-2.9-3.6s-2.9 1.5-2.9 3.6 1.3 3.7 2.9 3.7 2.9-1.5 2.9-3.7zm13.4 1h-1.6v3.3h-.9v-3.3H333v-.6l5.2-7.8h.9v7.6h1.6zm-2.5-.8v-4.3a13.4 13.4 0 01.1-2h-.1l-.9 1.7-3.2 4.6zm8.4 1.7v-5.4h-1.3v-.7h1.4V369h.8v2.5h2.5v.7h-2.4v5.4c0 1.1.3 1.8 1.4 1.8l1-.2.3.7a4.4 4.4 0 01-1.5.3c-1.6 0-2.2-1.1-2.2-2.6zm4.3 6.1l.2-.8h.7c1 0 1.7-.9 2.1-2.2l.3-.7-3.5-8.6h1l2 5.2c.2.7.6 1.6.9 2.4l.8-2.4 1.8-5.2h.9l-3.3 9.5c-.5 1.5-1.4 2.8-3 2.8zm9-12.2h.8v1a5.1 5.1 0 012.9-1.3c2.2 0 3.4 1.8 3.4 4.4s-1.8 4.6-3.8 4.6a4.7 4.7 0 01-2.5-1v4.6h-.9zm6.2 4.1c0-2.1-.7-3.5-2.6-3.5a4.2 4.2 0 00-2.7 1.3v4.9a3.9 3.9 0 002.4 1.1c1.7 0 2.9-1.5 2.9-3.8zm2.8.1c0-2.7 1.8-4.5 3.7-4.5s3.3 1.5 3.3 4v.7h-6.1c.1 2.1 1.3 3.5 3.1 3.5a3.9 3.9 0 002.3-.7l.4.7a5.2 5.2 0 01-2.8.8c-2.1 0-3.9-1.7-3.9-4.5zm6.2-.6c0-2-1-3.1-2.5-3.1s-2.6 1.2-2.8 3.1zm2.1 3.9l.4-.6a4.3 4.3 0 002.7 1c1.3 0 2-.7 2-1.6s-1.1-1.5-2.1-1.8-2.6-1-2.6-2.5 1-2.3 2.8-2.3a3.9 3.9 0 012.4.9l-.4.7a3.6 3.6 0 00-2.1-.8c-1.2 0-1.8.7-1.8 1.5s1 1.3 2 1.7 2.7.9 2.7 2.6-1 2.4-2.9 2.4a4.4 4.4 0 01-3.1-1.2zm11.1-3.3c0-2.8 1.8-4.5 3.8-4.5s3.9 1.7 3.9 4.5-1.8 4.5-3.9 4.5-3.8-1.6-3.8-4.5zm6.7 0c0-2.1-1.2-3.6-2.9-3.6s-2.9 1.5-2.9 3.6 1.3 3.7 2.9 3.7 2.9-1.5 2.9-3.7zm6.9-7.6l-1-.3c-.9 0-1.3.7-1.3 1.9v1.8h1.9v.7h-1.9v7.8h-1v-7.8h-1.2v-.7h1.2v-1.8c0-1.7.8-2.6 2.2-2.6l1.3.2zm4.1 10.4l.6-.7a4.9 4.9 0 003.4 1.5c1.7 0 2.8-.9 2.8-2.2s-.9-1.9-2.1-2.4l-1.7-.7c-1.1-.5-2.4-1.2-2.4-3s1.5-2.9 3.5-2.9a4.6 4.6 0 013.3 1.4l-.6.6a3.7 3.7 0 00-2.7-1.1c-1.5 0-2.5.8-2.5 2s1.1 1.8 2 2.2l1.7.7c1.3.6 2.5 1.4 2.5 3.1s-1.5 3.2-3.8 3.2a5.3 5.3 0 01-4-1.7zm10.2-10.2h.9V380h-.9zm4.3 0h1.3l2.4 6.7.9 2.6h.1a25.8 25.8 0 00.8-2.6l2.5-6.7h1.2V380h-.9v-7.4c0-1 .1-2.2.1-3.2l-.9 2.6-2.5 6.7h-.8l-2.4-6.7-.9-2.6h-.1c0 1 .1 2.2.1 3.2v7.4h-.9zm15.4 7.4c0-2.8 1.8-4.5 3.9-4.5a3.3 3.3 0 012.5 1.1l-.5.6a2.8 2.8 0 00-2-.8c-1.7 0-3 1.5-3 3.6s1.2 3.7 3 3.7a3.2 3.2 0 002.2-.9l.5.6a4.4 4.4 0 01-2.7 1.1c-2.2 0-3.9-1.6-3.9-4.5zm8.1 2.1c0-1.8 1.6-2.7 5.4-3.2 0-1.2-.3-2.5-1.9-2.5a4.8 4.8 0 00-2.7.9l-.5-.6a5.9 5.9 0 013.3-1.2c2 0 2.7 1.5 2.7 3.4v5.4h-.7v-1.1h-.1a4.8 4.8 0 01-3 1.3 2.3 2.3 0 01-2.5-2.4zm5.4.3v-2.8c-3.4.4-4.5 1.2-4.5 2.5a1.5 1.5 0 001.7 1.6 4 4 0 002.8-1.3zm3.9-6.6h.8v1.3a4.3 4.3 0 012.9-1.6c1.8 0 2.6 1.1 2.6 3.3v5.5h-.9v-5.3c0-1.8-.6-2.6-1.9-2.6s-1.7.5-2.7 1.5v6.4h-.9zm13.9 7.6v.9h-.8v-12.7h1v5.2a5.1 5.1 0 012.9-1.3c2.3 0 3.4 1.8 3.4 4.4s-1.7 4.6-3.7 4.6a4.2 4.2 0 01-2.8-1.1zm5.3-3.5c0-2.1-.7-3.5-2.6-3.5a3.8 3.8 0 00-2.6 1.3v4.9a3.9 3.9 0 002.4 1.1c1.7 0 2.8-1.5 2.8-3.8zm2.8.1c0-2.7 1.8-4.5 3.7-4.5s3.3 1.5 3.3 4v.7h-6.1c.1 2.1 1.3 3.5 3.2 3.5a3.8 3.8 0 002.2-.7l.4.7a5.1 5.1 0 01-2.7.8c-2.2 0-4-1.7-4-4.5zm6.2-.6c0-2-1-3.1-2.4-3.1a3.1 3.1 0 00-2.9 3.1zm6.4-6.4a.6.6 0 01.7-.7c.5 0 .8.2.8.7a.7.7 0 01-.8.8.7.7 0 01-.7-.8zm.3 2.8h.9v8.5h-.9zm4.1 0h.7v1.3h.1a3.9 3.9 0 012.9-1.6c1.8 0 2.6 1.1 2.6 3.3v5.5h-.9v-5.3c0-1.8-.6-2.6-1.9-2.6s-1.7.5-2.7 1.5v6.4h-.9zm8.4 7.5l.5-.6a3.9 3.9 0 002.7 1c1.3 0 2-.7 2-1.6s-1.1-1.5-2.1-1.8-2.7-1-2.7-2.5 1-2.3 2.8-2.3a4.2 4.2 0 012.5.9l-.5.7a3.6 3.6 0 00-2-.8c-1.3 0-1.9.7-1.9 1.5s1 1.3 2 1.7 2.8.9 2.8 2.6-1.1 2.4-2.9 2.4a4.8 4.8 0 01-3.2-1.2zm8.5-1.4v-5.4h-1.3v-.7h1.3V369h.8v2.5h2.5v.7H510v5.4c0 1.1.3 1.8 1.4 1.8l1.1-.2.2.7-1.4.3c-1.6 0-2.1-1.1-2.1-2.6zm4.8.2c0-1.8 1.7-2.7 5.5-3.2 0-1.2-.4-2.5-2-2.5a5.1 5.1 0 00-2.7.9l-.4-.6a5.8 5.8 0 013.2-1.2c2.1 0 2.8 1.5 2.8 3.4v5.4h-.8v-1.1a5.1 5.1 0 01-3 1.3 2.3 2.3 0 01-2.6-2.4zm5.5.3v-2.8c-3.4.4-4.5 1.2-4.5 2.5a1.5 1.5 0 001.7 1.6 4.2 4.2 0 002.8-1.3zm3.9.6v-11.4h.9v11.5c0 .4.2.6.4.6h.3v.7h-.6c-.7.1-1-.4-1-1.4zm4.2 0v-11.4h1v11.5c0 .4.1.6.4.6h.3v.7h-.6q-1.1.1-1.1-1.4zm3.6-3c0-2.7 1.8-4.5 3.8-4.5s3.3 1.5 3.3 4c0 .2-.1.5-.1.7h-6c0 2.1 1.2 3.5 3.1 3.5a4.5 4.5 0 002.3-.7l.3.7a5.1 5.1 0 01-2.7.8c-2.2 0-4-1.7-4-4.5zm6.2-.6c0-2-.9-3.1-2.4-3.1a3 3 0 00-2.8 3.1zm2.4.6c0-2.7 1.8-4.5 3.8-4.5a3.6 3.6 0 012.5 1.1v-5h.9V380h-.8v-1.1a3.9 3.9 0 01-2.7 1.3c-2.3 0-3.7-1.6-3.7-4.5zm6.3 2.3v-4.9a3.3 3.3 0 00-2.4-1c-1.6 0-2.9 1.5-2.9 3.6s1 3.7 2.7 3.7a3.8 3.8 0 002.6-1.4zm3.4 4.2a2.6 2.6 0 001.4-2.1h-.2a.8.8 0 110-1.6c.6 0 .9.5.9 1.3a3.2 3.2 0 01-1.9 3zm-259 16.8c0-1.8 1.7-2.7 5.5-3.2 0-1.2-.4-2.5-2-2.5a5.1 5.1 0 00-2.7.9l-.4-.6a5.8 5.8 0 013.2-1.2c2.1 0 2.8 1.5 2.8 3.4v5.4h-.8v-1.1a5.1 5.1 0 01-3 1.3 2.3 2.3 0 01-2.6-2.4zm5.5.3v-2.8c-3.4.4-4.5 1.2-4.5 2.5a1.5 1.5 0 001.7 1.6 4.2 4.2 0 002.8-1.3zm3.9-6.6h.7l.2 1.3a4.1 4.1 0 012.9-1.6c1.8 0 2.6 1.1 2.6 3.3v5.5h-.9v-5.3c0-1.8-.6-2.6-1.9-2.6s-1.7.5-2.7 1.5v6.4h-.9zm8.8 4.2c0-2.7 1.7-4.5 3.7-4.5a3.8 3.8 0 012.6 1.1v-5h.9v12.7h-.7v-1.1h-.1a3.9 3.9 0 01-2.7 1.3c-2.3 0-3.7-1.6-3.7-4.5zm6.2 2.3v-4.9a3.2 3.2 0 00-2.4-1c-1.6 0-2.8 1.5-2.8 3.6s.9 3.7 2.7 3.7a3.4 3.4 0 002.5-1.4zm14.1-1.3h-1.6v3.3h-.9v-3.3h-5.2v-.6l5.2-7.8h.9v7.6h1.6zm-2.5-.8v-6.3l-1 1.7-3.1 4.6zm7.5-.2c0-2.8 1.8-4.5 4-4.5a3.4 3.4 0 012.5 1.1l-.6.6a2.6 2.6 0 00-1.9-.8c-1.7 0-3 1.5-3 3.6s1.2 3.7 3 3.7a3.6 3.6 0 002.2-.9l.4.6a4.1 4.1 0 01-2.7 1.1c-2.2 0-3.9-1.6-3.9-4.5zm8.1 2.1c0-1.8 1.7-2.7 5.4-3.2.1-1.2-.3-2.5-1.9-2.5a5.1 5.1 0 00-2.7.9l-.4-.6a5.3 5.3 0 013.2-1.2c2 0 2.8 1.5 2.8 3.4v5.4h-.8v-1.1a5.1 5.1 0 01-3 1.3 2.3 2.3 0 01-2.6-2.4zm5.4.3v-2.8c-3.3.4-4.5 1.2-4.5 2.5s.8 1.6 1.8 1.6a4 4 0 002.7-1.3zm3.9-6.6h.8v1.5h.1a2.9 2.9 0 012.4-1.8l.8.2-.2.9a.8.8 0 00-.7-.2c-.8 0-1.7.6-2.3 2.2v5.7h-1zm5.8 0h.8v1.5a3.1 3.1 0 012.4-1.8l.9.2-.2.9a1.2 1.2 0 00-.8-.2c-.8 0-1.7.6-2.3 2.2v5.7h-.9zm5.4-2.8a.8.8 0 011.6 0 .8.8 0 11-1.6 0zm.3 2.8h1v8.5h-1zm3.4 4.2c0-2.7 1.8-4.5 3.8-4.5s3.3 1.5 3.3 4a1.7 1.7 0 01-.1.7h-6c0 2.1 1.3 3.5 3.1 3.5a4.5 4.5 0 002.3-.7l.3.7a5.1 5.1 0 01-2.7.8c-2.2 0-4-1.7-4-4.5zm6.2-.6c0-2-.9-3.1-2.4-3.1s-2.6 1.2-2.8 3.1zm3.1-3.6h.8v1.5h.1a2.9 2.9 0 012.4-1.8l.8.2-.2.9a.8.8 0 00-.7-.2c-.8 0-1.7.6-2.3 2.2v5.7h-1zm9.3 0h.8v1.3h.1a3.9 3.9 0 012.9-1.6c1.7 0 2.6 1.1 2.6 3.3v5.5h-1v-5.3c0-1.8-.5-2.6-1.8-2.6s-1.7.5-2.7 1.5v6.4h-1zm8.8 4.2c0-2.7 1.8-4.5 3.8-4.5s3.3 1.5 3.3 4a1.7 1.7 0 01-.1.7h-6c0 2.1 1.3 3.5 3.1 3.5a4.5 4.5 0 002.3-.7l.3.7a5.1 5.1 0 01-2.7.8c-2.2 0-4-1.7-4-4.5zm6.2-.6c0-2-.9-3.1-2.4-3.1a3 3 0 00-2.8 3.1zm3.3 2.5v-5.4h-1.3v-.7h1.4v-2.5h.8v2.5h2.4v.7h-2.4v5.4c0 1.1.3 1.8 1.4 1.8l1-.2.3.7a4.4 4.4 0 01-1.5.3c-1.5 0-2.1-1.1-2.1-2.6zm4.3-6.1h1l1.5 5.3c.2.9.4 1.6.5 2.4h.1l.6-2.4 1.5-5.3h1l1.6 5.3.6 2.4h.1c.1-.8.3-1.5.5-2.4l1.5-5.3h.9l-2.4 8.5h-1.2l-1.4-5.1c-.3-.9-.4-1.6-.7-2.5a18.2 18.2 0 01-.7 2.5l-1.4 5.1H410zm12.7 4.2c0-2.8 1.8-4.5 3.9-4.5s3.8 1.7 3.8 4.5-1.8 4.5-3.8 4.5-3.9-1.6-3.9-4.5zm6.8 0c0-2.1-1.3-3.6-2.9-3.6s-2.9 1.5-2.9 3.6 1.2 3.7 2.9 3.7 2.9-1.5 2.9-3.7zm3.4-4.2h.8v1.5a3.2 3.2 0 012.5-1.8l.8.2-.2.9a1.1 1.1 0 00-.8-.2c-.7 0-1.6.6-2.2 2.2v5.7h-1zm5.8-4.2h.9v9.2l4.1-5h1.1l-2.8 3.3 3.2 5.2h-1l-2.8-4.5-1.8 2.2v2.3h-.9zm7.3 11.7l.5-.6a3.9 3.9 0 002.7 1c1.3 0 1.9-.7 1.9-1.6s-1.1-1.5-2.1-1.8-2.6-1-2.6-2.5 1-2.3 2.8-2.3a4.5 4.5 0 012.5.9l-.5.7a3.6 3.6 0 00-2.1-.8c-1.2 0-1.8.7-1.8 1.5s1 1.3 2 1.7 2.7.9 2.7 2.6-1 2.4-2.9 2.4a4.6 4.6 0 01-3.1-1.2zm11.1-3.3c0-2.8 1.8-4.5 3.9-4.5a3.3 3.3 0 012.5 1.1l-.5.6a2.6 2.6 0 00-1.9-.8c-1.7 0-3 1.5-3 3.6s1.2 3.7 2.9 3.7a3.6 3.6 0 002.3-.9l.4.6a4.1 4.1 0 01-2.7 1.1c-2.2 0-3.9-1.6-3.9-4.5zm8.1 2.1c0-1.8 1.7-2.7 5.4-3.2.1-1.2-.3-2.5-1.9-2.5a5.1 5.1 0 00-2.7.9l-.4-.6a5.3 5.3 0 013.2-1.2c2 0 2.8 1.5 2.8 3.4v5.4h-.8v-1.1h-.1a4.6 4.6 0 01-2.9 1.3 2.3 2.3 0 01-2.6-2.4zm5.4.3v-2.8c-3.3.4-4.5 1.2-4.5 2.5s.8 1.6 1.8 1.6a4 4 0 002.7-1.3zm3.9-6.6h.8v1.3a4.3 4.3 0 013-1.6c1.7 0 2.5 1.1 2.5 3.3v5.5h-.9v-5.3c0-1.8-.5-2.6-1.9-2.6s-1.6.5-2.6 1.5v6.4h-1zm14 7.6h-.1v.9h-.7v-12.7h.9v5.2a4.5 4.5 0 012.8-1.3c2.3 0 3.5 1.8 3.5 4.4s-1.8 4.6-3.8 4.6a4 4 0 01-2.6-1.1zm5.3-3.5c0-2.1-.7-3.5-2.6-3.5a4 4 0 00-2.7 1.3v4.9a3.9 3.9 0 002.4 1.1c1.7 0 2.9-1.5 2.9-3.8zm2.7.1c0-2.7 1.8-4.5 3.8-4.5s3.3 1.5 3.3 4c0 .2-.1.5-.1.7h-6c0 2.1 1.2 3.5 3.1 3.5a4.5 4.5 0 002.3-.7l.3.7a5.1 5.1 0 01-2.7.8c-2.2 0-4-1.7-4-4.5zm6.2-.6c0-2-.9-3.1-2.4-3.1a3 3 0 00-2.8 3.1zm6.6 1.8v-5.4h.9v5.3c0 1.8.5 2.6 1.8 2.6s1.7-.5 2.7-1.7v-6.2h.9v8.5h-.8v-1.4h-.1a3.9 3.9 0 01-2.9 1.6c-1.7 0-2.5-1.1-2.5-3.3zm8.5 2.1l.5-.6a3.9 3.9 0 002.7 1c1.3 0 1.9-.7 1.9-1.6s-1.1-1.5-2-1.8-2.7-1-2.7-2.5 1-2.3 2.8-2.3a4.5 4.5 0 012.5.9l-.5.7a3.6 3.6 0 00-2.1-.8c-1.2 0-1.8.7-1.8 1.5s1 1.3 2 1.7 2.7.9 2.7 2.6-1 2.4-2.9 2.4a4.6 4.6 0 01-3.1-1.2zm7.5-3.3c0-2.7 1.9-4.5 3.8-4.5s3.3 1.5 3.3 4a1.7 1.7 0 01-.1.7h-6c0 2.1 1.3 3.5 3.1 3.5a4.5 4.5 0 002.3-.7l.3.7a5.1 5.1 0 01-2.7.8c-2.2 0-4-1.7-4-4.5zm6.2-.6c0-2-.9-3.1-2.4-3.1s-2.6 1.2-2.8 3.1zm2.5.6c0-2.7 1.7-4.5 3.7-4.5a3.8 3.8 0 012.6 1.1v-5h.9v12.7h-.7v-1.1h-.1a3.9 3.9 0 01-2.7 1.3c-2.4 0-3.7-1.6-3.7-4.5zm6.2 2.3v-4.9a3.3 3.3 0 00-2.4-1c-1.6 0-2.9 1.5-2.9 3.6s1 3.7 2.8 3.7a3.4 3.4 0 002.5-1.4zM92.5 319.4a2.7 2.7 0 002.8 2.7H97V316h-4.5zm4.5-20h-1.7a2.8 2.8 0 00-2.8 2.8v3.4H97z" transform="translate(0 -1.3)"/><path class="cls-1" d="M104.4 298.2h5.1v6.16h-5.1zm-6.2 0h5.1v6.16h-5.1zm0 16.5h5.1v6.16h-5.1z"/><path class="cls-1" d="M112.4 299.4h-1.7v6.2h4.5v-3.4a2.9 2.9 0 00-2.8-2.8z" transform="translate(0 -1.3)"/><path class="cls-1" d="M119.6 291h-7.2v.4a2.7 2.7 0 11-5.3 0 .8.8 0 01.1-.4h-6.7v.4a2.6 2.6 0 01-2.6 2.7 2.7 2.7 0 01-2.6-2.7v-.4H88a4 4 0 00-3.9 4v38.2l10.5 10.5h25a4 4 0 004-3.9V295a4 4 0 00-4-4zm-3.2 14.6v13.8a4 4 0 01-4 3.9H95.3a4 4 0 01-4-3.9v-17.2a4 4 0 014-3.9h17.1a4 4 0 014 3.9z" transform="translate(0 -1.3)"/><path class="cls-1" d="M104.4 314.7h5.1v6.16h-5.1z"/><path class="cls-1" d="M92.5 314.8h18.2v7.3h1.7a2.8 2.8 0 002.8-2.7v-12.6H92.5zm-41.1-23.3a2.1 2.1 0 012.1 2.1v44.8a2.1 2.1 0 01-2.1 2.1H27.2l-9.5-9.5v-37.4a2.1 2.1 0 012.1-2.1h5.6a4.5 4.5 0 008.5 0h3.4a4.5 4.5 0 008.5 0h5.6m0-1.9h-7.3c0 .2.1.3.1.5a2.7 2.7 0 01-5.3 0v-.5h-6.6v.5a2.7 2.7 0 01-5.3 0c0-.2.1-.3.1-.5h-7.3a4 4 0 00-4 4v38.2l10.6 10.5h25a4 4 0 004-3.9v-44.8a4 4 0 00-4-4z" transform="translate(0 -1.3)"/><path class="cls-1" d="M44.2 296.9H27a4 4 0 00-3.9 3.9V318a4 4 0 003.9 3.9h17.2a4 4 0 003.9-3.9v-17.2a4 4 0 00-3.9-3.9zm-2.9 1.1v6.2h-5.1V298zm-6.3 0v6.2h-5.1V298zm-10.8 2.8A2.9 2.9 0 0127 298h1.8v6.2h-4.6zm2.8 19.9a2.8 2.8 0 01-2.8-2.7v-3.4h4.6v6.1zm2.9 0v-6.1H35v6.1zm6.3 0v-6.1h5.1v6.1zM47 318a2.8 2.8 0 01-2.8 2.7h-1.8v-7.3H24.2v-8H47zm-4.6-13.8V298h1.8a2.9 2.9 0 012.8 2.8v3.4zm1.9 74v21.5H32.9l-4.1-4.1v-17.4h15.5m1.1-1H27.7V396l4.7 4.7h13v-23.5z" transform="translate(0 -1.3)"/><path class="cls-1" d="M58.4 373v1.7h-7.1v6.3h7.1v1.1h-7.1v6.3h7.1v1.1h-7.1v6.3h7.1v1.1h-7.1v6.3h7.1v1.7H14.7v-1.7h7.1v-6.3h-7.1v-1.1h7.1v-6.3h-7.1v-1.1h7.1v-6.3h-7.1V381h7.1v-6.3h-7.1V373h43.7m.5-1.7H14.2a1.2 1.2 0 00-1.1 1.2v2.7a1.2 1.2 0 001.1 1.2h5.9v2.9h-5.9a1.1 1.1 0 00-1.1 1.2v2.1a1.2 1.2 0 001.1 1.2h5.9v2.9h-5.9a1.1 1.1 0 00-1.1 1.2v2.1a1.2 1.2 0 001.1 1.2h5.9v2.9h-5.9a1.1 1.1 0 00-1.1 1.2v2.1a1.2 1.2 0 001.1 1.2h5.9v2.9h-5.9a1.1 1.1 0 00-1.1 1.2v2.7a1.2 1.2 0 001.1 1.2h44.7a1.2 1.2 0 001.1-1.2v-2.7a1.1 1.1 0 00-1.1-1.2H53v-2.9h5.9a1.2 1.2 0 001.1-1.2v-2.1a1.1 1.1 0 00-1.1-1.2H53v-2.9h5.9A1.2 1.2 0 0060 390v-2.1a1.1 1.1 0 00-1.1-1.2H53v-2.9h5.9a1.2 1.2 0 001.1-1.2v-2.1a1.1 1.1 0 00-1.1-1.2H53v-2.9h5.9a1.2 1.2 0 001.1-1.2v-2.7a1.2 1.2 0 00-1.1-1.2zm66.4 5.1a1.2 1.2 0 001.1-1.2v-2.7a1.2 1.2 0 00-1.1-1.2H80.6a1.2 1.2 0 00-1.1 1.2v2.7a1.2 1.2 0 001.1 1.2h5.9v2.9h-5.9a1.1 1.1 0 00-1.1 1.2v2.1a1.2 1.2 0 001.1 1.2h5.9v2.9h-5.9a1.1 1.1 0 00-1.1 1.2v2.1a1.2 1.2 0 001.1 1.2h5.9v2.9h-5.9a1.1 1.1 0 00-1.1 1.2v2.1a1.2 1.2 0 001.1 1.2h5.9v2.9h-5.9a1.1 1.1 0 00-1.1 1.2v2.7a1.2 1.2 0 001.1 1.2h44.7a1.2 1.2 0 001.1-1.2v-2.7a1.1 1.1 0 00-1.1-1.2h-5.9v-2.9h5.9a1.2 1.2 0 001.1-1.2v-2.1a1.1 1.1 0 00-1.1-1.2h-5.9v-2.9h5.9a1.2 1.2 0 001.1-1.2v-2.1a1.1 1.1 0 00-1.1-1.2h-5.9v-2.9h5.9a1.2 1.2 0 001.1-1.2v-2.1a1.1 1.1 0 00-1.1-1.2h-5.9v-2.9zm-13.5 24.3h-13l-4.7-4.7v-18.8h17.7zm-87.4-42.1l.7-.9A4.6 4.6 0 0028 359c1.3 0 2.1-.7 2.1-1.7s-.7-1.4-1.7-1.8l-1.4-.7a2.8 2.8 0 01-2.1-2.6 2.9 2.9 0 013.2-2.8 4.4 4.4 0 013 1.3l-.7.8a3.4 3.4 0 00-2.3-.9c-1.2 0-1.9.6-1.9 1.5s.9 1.4 1.7 1.7l1.4.6c1.2.5 2.2 1.2 2.2 2.8s-1.4 2.9-3.5 2.9a5 5 0 01-3.6-1.5zm9.1-9h1.3v10.3h-1.3zm4.1 0h1.5l2 5.5a18.7 18.7 0 01.7 2.2h.1a18.7 18.7 0 00.7-2.2l2-5.5h1.5v10.3h-1.2v-5.7c0-.9.1-2.1.2-3H45l-.8 2.3-1.9 5.4h-.9l-1.9-5.4-.8-2.3h-.1c.1.9.2 2.1.2 3v5.7h-1.2zm54.8 9l.8-.9A4.3 4.3 0 0096 359c1.4 0 2.2-.7 2.2-1.7s-.7-1.4-1.7-1.8l-1.5-.7a2.9 2.9 0 01-2.1-2.6c0-1.6 1.4-2.8 3.3-2.8a4.4 4.4 0 013 1.3l-.7.8a3.6 3.6 0 00-2.3-.9c-1.2 0-2 .6-2 1.5s.9 1.4 1.7 1.7l1.5.6a2.8 2.8 0 012.1 2.8c0 1.6-1.3 2.9-3.5 2.9a5.1 5.1 0 01-3.6-1.5zm9.1-9h1.3v10.3h-1.3zm4.1 0h1.6l2 5.5.7 2.2h.1a18.7 18.7 0 01.7-2.2l1.9-5.5h1.6v10.3H113v-5.7c0-.9.1-2.1.2-3h-.1l-.8 2.3-2 5.4h-.8l-2-5.4-.8-2.3c0 .9.1 2.1.1 3v5.7h-1.2zm-85 70.8c0-2.5 1.6-4 3.4-4s3 1.4 3 3.6v.7h-5.2a2.5 2.5 0 002.5 2.6 3.4 3.4 0 002-.6l.4.9a4.9 4.9 0 01-2.5.8c-2 0-3.6-1.5-3.6-4zm5.3-.6c0-1.6-.7-2.4-1.9-2.4s-2 .9-2.2 2.4zm2.4 3l.7-.8a4.5 4.5 0 002.9 1.2c1.3 0 2.1-.6 2.1-1.7s-.7-1.3-1.7-1.8l-1.5-.6a3.1 3.1 0 01-2.1-2.7c0-1.5 1.4-2.7 3.3-2.7a4 4 0 013 1.3l-.7.8a3.2 3.2 0 00-2.3-.9c-1.2 0-1.9.5-1.9 1.5s.9 1.3 1.7 1.7l1.4.6a2.8 2.8 0 012.1 2.7c0 1.7-1.3 3-3.4 3a4.5 4.5 0 01-3.6-1.6zm9.1-8.9h1.3v10.3h-1.3zm4.1 0H43l2 5.5c.2.7.5 1.4.7 2.1h.1c.2-.7.5-1.4.7-2.1l2-5.5H50v10.3h-1.2v-5.7c0-.9.1-2.1.2-3h-.1l-.8 2.3-1.9 5.3h-.9l-2-5.3-.8-2.3c0 .9.1 2.1.1 3v5.7h-1.1zm47.1 6.5c0-2.5 1.7-4 3.4-4s3.1 1.4 3.1 3.6c0 .2-.1.5-.1.7h-5.1a2.5 2.5 0 002.5 2.6 3.1 3.1 0 001.9-.6l.5.9a4.9 4.9 0 01-2.5.8 3.7 3.7 0 01-3.7-4zm5.3-.6c0-1.6-.7-2.4-1.8-2.4a2.3 2.3 0 00-2.2 2.4zm2.4 3l.8-.8a4.2 4.2 0 002.8 1.2c1.4 0 2.2-.6 2.2-1.7s-.8-1.3-1.7-1.8l-1.5-.6a2.8 2.8 0 011.1-5.4 4.2 4.2 0 013.1 1.3l-.7.8a3.4 3.4 0 00-2.4-.9c-1.1 0-1.9.5-1.9 1.5s.9 1.3 1.7 1.7l1.5.6a2.8 2.8 0 012.1 2.7c0 1.7-1.3 3-3.5 3a4.8 4.8 0 01-3.6-1.6zm9.1-8.9h1.3v10.3h-1.3zm4.1 0h1.6l2 5.5a17.2 17.2 0 00.7 2.1h.1a17.2 17.2 0 01.7-2.1l1.9-5.5h1.6v10.3h-1.2v-5.7c0-.9.1-2.1.1-3l-.8 2.3-2 5.3h-.8l-2-5.3-.8-2.3h-.1c.1.9.2 2.1.2 3v5.7h-1.2z" transform="translate(0 -1.3)"/><rect class="cls-1" x="320.8" y="30.9" width="68.7" height="68.72" rx="12"/><path class="cls-2" d="M382.5 60.7l-10.4-.4.4-1.5a2.9 2.9 0 00-2-3.5l-35.2-9.4h-.7a2.9 2.9 0 00-2.8 2.1L328 62.1a2.8 2.8 0 002 3.5l10.4 2.8a7.6 7.6 0 005.4 8.5v11.8h2V77.1a7.4 7.4 0 006.9-4.8l10.5 2.8h.7a2.9 2.9 0 002.8-2.2l.5-1.8 9.2 4.8zm-15.7 11.8a1 1 0 01-.9.7h-.2l-35.2-9.4c-.3-.1-.5-.3-.5-.5s-.2-.3-.1-.7l3.8-14.2a1 1 0 01.9-.7h.2l35.2 9.5a.8.8 0 01.6 1.1zm2.9-3.2l1.9-7.1 8.4.3-2.8 10.7z" transform="translate(0 -1.3)"/><rect class="cls-1" x="213.9" y="30.9" width="68.7" height="68.72" rx="12"/><path class="cls-2" d="M267.3 44.1h-38.1a3.4 3.4 0 00-3.4 3.4V89h44.9V47.5a3.4 3.4 0 00-3.4-3.4zm1.8 41.5a1.8 1.8 0 01-1.8 1.8h-7.4a12.4 12.4 0 00-6.7-6.4 5.1 5.1 0 00-1.4-4.6h-.1l-3.5-14.9-3.5 14.9a5.1 5.1 0 00-1.4 4.6 12.4 12.4 0 00-6.7 6.4h-7.4a1.8 1.8 0 01-1.8-1.8V60a30.8 30.8 0 014.4-3.7l3.4 5.8a.5.5 0 00.4.3h.3a.6.6 0 00.2-.7l-3.4-5.8a17.2 17.2 0 013.8-2 14.5 14.5 0 012.9-1.1l1.1 4.1a.5.5 0 00.5.3h.1a.5.5 0 00.4-.6l-1.1-4.1a26 26 0 017.4-1.1v7.2a.5.5 0 00.4.5.5.5 0 00.5-.5v-7.3a26 26 0 017.4 1.1l-1.1 4.1a.5.5 0 00.4.6h.1a.5.5 0 00.5-.3l1.1-4.1a14.5 14.5 0 012.9 1.1 17.2 17.2 0 013.8 2l-3.4 5.8a.6.6 0 00.2.7h.3a.5.5 0 00.4-.3l3.4-5.8a37.5 37.5 0 014.4 3.7zm-23.3-8a3.4 3.4 0 012.4-1.1 3.4 3.4 0 012.5 1.1 3.1 3.1 0 011 2.4 3.5 3.5 0 01-1 2.5 3.7 3.7 0 01-2.5 1 3.7 3.7 0 01-2.4-1 3.4 3.4 0 010-4.9zm23.3-19.8a30.9 30.9 0 00-41.7 0V47.5a1.8 1.8 0 011.8-1.8h38.1a1.8 1.8 0 011.8 1.8z" transform="translate(0 -1.3)"/><rect class="cls-1" y="30.9" width="68.7" height="68.72" rx="12"/><path class="cls-2" d="M37.4 50.7v25.5H18.6V50.7h18.8m1-.9H17.6v27.4h20.8V49.8z" transform="translate(0 -1.3)"/><path class="cls-2" d="M44.5 67.5v1.7h-2v5h2v1.7h6.4v-8.4h-6.4zm0-10.2V59h-2v5h2v1.7h6.4v-8.4h-6.4z"/><path class="cls-2" d="M53.4 44.2H15.3a3.3 3.3 0 00-3.3 3.3v41.4h44.7V47.5a3.3 3.3 0 00-3.3-3.3zM16 87.1a2.2 2.2 0 112.2-2.2 2.2 2.2 0 01-2.2 2.2zm9.2 0a2.2 2.2 0 110-4.4 2.2 2.2 0 010 4.4zm9.2 0a2.2 2.2 0 110-4.4 2.2 2.2 0 010 4.4zm9.1 0a2.2 2.2 0 010-4.4 2.2 2.2 0 110 4.4zm9.2 0a2.2 2.2 0 010-4.4 2.2 2.2 0 110 4.4zm2.5-6.2h-6.5v6.4h-1.1v-6.4h-8.1v6.4h-1.1v-6.4h-8.1v6.4h-1.1v-6.4h-8v6.4H20v-6.4h-6.4V47.5a1.7 1.7 0 011.7-1.8h38.1a1.8 1.8 0 011.8 1.8z" transform="translate(0 -1.3)"/><circle class="cls-1" cx="326.9" cy="211.4" r="3"/><path class="cls-1" d="M325.9 219.4a1 1 0 112 0v28.3a1 1 0 01-2 0m8.8-21a1 1 0 01-.9-.5 1 1 0 01.4-1.3 14.3 14.3 0 000-24.5 1.1 1.1 0 01-.4-1.4 1.1 1.1 0 011.4-.3 16.3 16.3 0 010 27.9zm-15.6 0h-.5a16.3 16.3 0 010-27.9 1.1 1.1 0 011.4.3 1.1 1.1 0 01-.4 1.4 14.3 14.3 0 000 24.5 1 1 0 01.4 1.3 1 1 0 01-.9.4z" transform="translate(0 -1.3)"/><path class="cls-1" d="M338.6 233.3a1.2 1.2 0 01-.9-.5 1 1 0 01.4-1.4 21.8 21.8 0 000-37.5 1 1 0 01-.4-1.4 1.1 1.1 0 011.4-.4 23.8 23.8 0 010 41zm-23.4 0l-.5-.2a23.8 23.8 0 010-41 1 1 0 111 1.8 21.8 21.8 0 000 37.5 1.1 1.1 0 01.4 1.4 1.2 1.2 0 01-.9.5z" transform="translate(0 -1.3)"/><path d="M141.7 388.4h131.7v-31.7" stroke-width="3" stroke-linejoin="round" fill="none" stroke="#10069f" stroke-linecap="round"/><path class="cls-1" d="M280.4 358.8l-7-12.2-7 12.2h14z"/><path class="cls-4" d="M179.7 256.9v-77.4H34.4V99.6m195.2 157.3v-77.4h125.6V99.6"/><path class="cls-4" d="M249.9 99.6v65.7h-37.3v91.6M137.9 99.6v65.7h58.8v91.6"/><rect class="cls-1" x="105.9" y="30.9" width="68.7" height="68.72" rx="12"/><path class="cls-2" d="M149.2 84.6h-1.1V84a7.8 7.8 0 00-15.6 0v.6h-1.1V84a8.9 8.9 0 0117.8 0zM141.4 63l-11.7-7.1 7 11.7a3.4 3.4 0 001 1.6 3.5 3.5 0 002.6 1.1 3.8 3.8 0 003.8-3.8 3.7 3.7 0 00-2.7-3.5z" transform="translate(0 -1.3)"/><path class="cls-2" d="M141.4 85.1c.2-.1.3-.4.4-.6l2.8-4.8-4.7 2.9-.7.4a1.2 1.2 0 00-.4 1 1.6 1.6 0 001.5 1.6 1.6 1.6 0 001.1-.5z" transform="translate(0 -1.3)"/><path class="cls-2" d="M140.3 41.5a25.1 25.1 0 1025 25 25 25 0 00-25-25zm16.8 41.1l-4.6-4.7a.6.6 0 00-.8.8l4.6 4.7a23.2 23.2 0 01-32 0l4.6-4.7a.6.6 0 00-.8-.8l-4.6 4.7a22.9 22.9 0 01-6.4-15.5h6.5a.6.6 0 00.6-.6.6.6 0 00-.6-.5h-6.5a22.9 22.9 0 016.4-15.5l4.6 4.6.4.2.4-.2a.5.5 0 000-.7l-4.6-4.7a23.2 23.2 0 0115.5-6.4v6.6a.5.5 0 00.5.5.6.6 0 00.6-.5v-6.6a23.1 23.1 0 0115.4 6.4l-4.6 4.7a.5.5 0 000 .7l.4.2.4-.2 4.6-4.6a22.9 22.9 0 016.4 15.5H157a.6.6 0 00-.6.5.6.6 0 00.6.6h6.5a22.9 22.9 0 01-6.4 15.5z" transform="translate(0 -1.3)"/><path d="M232.4 117.8l-.6 1.4h5v.8h-1.7a6.8 6.8 0 01-1.3 2.7 16.7 16.7 0 012.7 1.4l-.6.8a17.7 17.7 0 00-2.8-1.5 12.3 12.3 0 01-4.8 1.5l-.4-.9a10.1 10.1 0 004.1-1.1l-1.8-.7-.2.4-.9-.3a16.1 16.1 0 001.2-2.3h-2.1v-.7l-1.2.3v4c0 .6-.1.9-.5 1.1a3.9 3.9 0 01-1.8.2l-.3-1h1.4c.1 0 .2-.1.2-.3V120l-1.9.5-.2-1 2.1-.6v-3h-1.9v-1h1.9v-2.8h1v2.8h1.4v1H227v2.7l1.3-.4.2 1h2.2l.6-1.4h-3.2v-.9h2.5a9.8 9.8 0 00-.6-2.3h-1.3v-.9h3.3v-1.5h1v1.5h3.4v.9h-1.2l-.9 2.3h2.5v.9zm-1 2.2l-.8 1.5 2.3.8a6.2 6.2 0 001.2-2.3zm-.5-5.5a7.1 7.1 0 01.6 2.3h1.8a15.5 15.5 0 00.8-2.3zm7.2 9.9a8.6 8.6 0 001.9-2.8l1 .3a9.3 9.3 0 01-2 3zm11-3.6h-9.3v-4.4h4v-4.3h1.1v1.5h5.2v1h-5.2v1.8h4.2zm-1-3.5h-7.3v2.5h7.3zm-4.9 4.6c.2.9.3 2.1.4 2.7l-1.1.2a14.9 14.9 0 00-.3-2.8zm2.8-.1a14 14 0 011.1 2.7l-1 .2c-.2-.6-.6-1.8-1-2.7zm2.8-.2a9.3 9.3 0 011.9 2.8l-1 .4a13.5 13.5 0 00-1.8-2.9zm7.5-9.2a25.9 25.9 0 01-1.4 2.9v9.6h-1v-8.1l-1.5 1.9-.6-1a16.2 16.2 0 003.5-5.5zm8.6 2.3v.9h-9.1v-.9zm-8.1 5.8h7.1v4.4h-1v-.7h-5.1v.7h-1zm7-3H257v-.9h6.8zm-6.8 1.1h6.8v.8H257zm6.5-5h-6.4v-.8h6.4zm-5.7 7.7v2.1h5.1v-2.1zm12.5-2.5a5.6 5.6 0 01-.4 1.2h7.1v.5c-.4 2.5-.7 3.6-1.2 4a1.6 1.6 0 01-1.2.4h-2.4a1.7 1.7 0 00-.3-1h2.4c.3 0 .5 0 .6-.2s.7-1.1 1-2.8h-6.2a6.9 6.9 0 00-.4 1l-1.1-.2c.3-.8.8-2 1.1-3h-3v-.9h12.5v.9zm6.6-2h-8.8v-4.1h8.8zm-1-3.2h-6.8v2.2h6.8zm-40 23.1a12.9 12.9 0 012.1-7.1l.8.3a13.3 13.3 0 00-1.8 6.8 12.9 12.9 0 001.8 6.7l-.8.4a13.2 13.2 0 01-2.1-7.1zm4.9-5.9h2.6c3.1 0 4.8 1.8 4.8 5.1s-1.7 5.1-4.8 5.1h-2.6zm2.5 9.2c2.4 0 3.6-1.5 3.6-4.1s-1.2-4.1-3.6-4.1h-1.2v8.2zm7.1-9.2h1.3V141h-1.3zm3.5 5.1c0-3.3 1.8-5.3 4.4-5.3s4.4 2 4.4 5.3-1.8 5.3-4.4 5.3-4.4-2-4.4-5.3zm7.5 0c0-2.6-1.3-4.2-3.1-4.2s-3 1.6-3 4.2 1.2 4.2 3 4.2 3.1-1.7 3.1-4.2zm2.7 7.5a12.9 12.9 0 001.8-6.7 13.3 13.3 0 00-1.8-6.8l.8-.3a12.9 12.9 0 012.1 7.1 13.2 13.2 0 01-2.1 7.1zm-140.8-10l-2.5-4.3H119v4.3h-1.3v-10.2h3.2c2.1 0 3.6.7 3.6 2.9a2.7 2.7 0 01-2.4 2.8l2.7 4.5zM119 128h1.7c1.6 0 2.5-.6 2.5-1.9s-.9-1.9-2.5-1.9H119zm6.8 4.1l.8-.9a3.9 3.9 0 002.8 1.3c1.4 0 2.2-.7 2.2-1.7s-.8-1.4-1.7-1.8l-1.5-.7a2.8 2.8 0 01-2.1-2.6c0-1.6 1.4-2.7 3.2-2.7a4.6 4.6 0 013.1 1.2l-.7.9a3.3 3.3 0 00-2.4-1c-1.1 0-1.9.6-1.9 1.5s.9 1.4 1.7 1.7l1.5.7a2.8 2.8 0 012.1 2.7c0 1.6-1.3 2.9-3.5 2.9a5.1 5.1 0 01-3.6-1.5zm8.4-3.1h3.5v1h-3.5zm4.8 3.7c3.2-2.8 4.7-4.9 4.7-6.6a1.8 1.8 0 00-1.9-2.1 2.7 2.7 0 00-2.1 1.2l-.8-.7a4.2 4.2 0 013.1-1.5 2.8 2.8 0 012.9 3c0 2.1-1.6 4.1-4 6.4h4.5v1.1H139zm7.5-.5l.7-.8a3.5 3.5 0 002.5 1.2 1.9 1.9 0 002.1-2c0-1.2-.8-2-3.2-2v-1c2.2 0 2.9-.8 2.9-2a1.6 1.6 0 00-1.8-1.6 3 3 0 00-2.1 1l-.7-.8a4.3 4.3 0 012.9-1.2c1.7 0 3 .9 3 2.5a2.6 2.6 0 01-1.9 2.5 2.6 2.6 0 012.2 2.6c0 1.8-1.4 2.9-3.3 2.9a4.4 4.4 0 01-3.3-1.3zm8 .5c3.3-2.8 4.7-4.9 4.7-6.6a1.8 1.8 0 00-1.9-2.1 2.9 2.9 0 00-2.1 1.2l-.7-.7a3.8 3.8 0 013-1.5 2.8 2.8 0 013 3c0 2.1-1.6 4.1-4 6.4h4.5v1.1h-6.5zM24 129.2v-6h1.3v6c0 2.5 1.1 3.3 2.4 3.3s2.5-.8 2.5-3.3v-6h1.2v6c0 3.3-1.6 4.4-3.7 4.4s-3.7-1.1-3.7-4.4zm9.4 2.9l.8-.9a3.9 3.9 0 002.8 1.3c1.4 0 2.2-.7 2.2-1.7s-.7-1.4-1.7-1.8l-1.5-.7a2.9 2.9 0 01-2.1-2.6c0-1.6 1.4-2.7 3.3-2.7a4.3 4.3 0 013 1.2l-.7.9a3.3 3.3 0 00-2.3-1c-1.2 0-2 .6-2 1.5s.9 1.4 1.7 1.7l1.5.7a2.8 2.8 0 012.1 2.7c0 1.6-1.3 2.9-3.5 2.9a5.1 5.1 0 01-3.6-1.5zm9.1-8.9h3.1c2.1 0 3.5.7 3.5 2.5a2.2 2.2 0 01-1.5 2.2 2.3 2.3 0 012.1 2.4c0 2-1.6 3-3.9 3h-3.3zm2.9 4.3c1.7 0 2.4-.6 2.4-1.7s-.8-1.6-2.4-1.6h-1.6v3.3zm.2 4.9c1.8 0 2.8-.6 2.8-2s-1-1.9-2.8-1.9h-1.8v3.9zm282.3-18.8h5.9v1.1h-4.6v3.2h3.9v1.1h-3.9v3.7h4.8v1.1h-6.1zm8.3 7.9v-4.2h-1.1v-1h1.2v-2.1h1.1v2.1h2.1v1.1h-2.1v4.2c0 .9.3 1.5 1.2 1.5l.9-.2.2.9a3.2 3.2 0 01-1.4.3c-1.5-.1-2.1-1.1-2.1-2.6zm5.1-8.8h1.3v4.6a3.6 3.6 0 012.5-1.3c1.6 0 2.4 1.1 2.4 3v4.8h-1.3v-4.6c0-1.4-.4-2-1.4-2a2.6 2.6 0 00-2.1 1.1v5.5h-1.3zm7.9 7.3a3.7 3.7 0 013.4-4c2 0 3.1 1.4 3.1 3.6 0 .3-.1.5-.1.7h-5.1c.1 1.7 1.1 2.7 2.5 2.7a2.9 2.9 0 001.9-.6l.5.8a4.1 4.1 0 01-2.5.8 3.7 3.7 0 01-3.7-4zm5.4-.6c0-1.5-.7-2.3-1.9-2.3a2.2 2.2 0 00-2.2 2.3zm2.9-3.2h1.1v1.4h.1a2.5 2.5 0 012.1-1.6l.8.2-.2 1.1h-.8c-.6 0-1.4.4-1.9 1.7v4.9h-1.3zm5.5 0h1v1.1h.1a3.6 3.6 0 012.5-1.3c1.6 0 2.4 1.1 2.4 3v4.8h-1.3v-4.6c0-1.4-.5-2-1.5-2a2.6 2.6 0 00-2 1.1v5.5H363zm8 3.8c0-2.4 1.6-4 3.4-4s3 1.4 3 3.6v.7h-5.2a2.5 2.5 0 002.6 2.7 3.3 3.3 0 001.9-.6l.4.8a4.1 4.1 0 01-2.5.8c-2 0-3.6-1.5-3.6-4zm5.3-.6c0-1.5-.7-2.3-1.9-2.3s-2 .8-2.2 2.3zm3.2 2.1v-4.2h-1.1v-1h1.2v-2.1h1.1v2.1h2v1.1h-2v4.2c0 .9.3 1.5 1.2 1.5l.8-.2.3.9-1.4.3c-1.5-.1-2.1-1.1-2.1-2.6zm-40.8 15.2a12.8 12.8 0 012-7.1l.8.3a13.3 13.3 0 00-1.8 6.8 12.9 12.9 0 001.8 6.7l-.8.4a13.1 13.1 0 01-2-7.1zm4.8-5.9h2.9c2.3 0 3.9.7 3.9 3s-1.6 3.2-3.8 3.2h-1.7v4h-1.3zm2.8 5.1q2.7 0 2.7-2.1c0-1.5-.9-2-2.7-2h-1.5v4.1zm5.4 1.3c0-2.5 1.6-4 3.5-4s3.5 1.5 3.5 4-1.6 4-3.5 4-3.5-1.4-3.5-4zm5.7 0c0-1.7-.9-2.9-2.2-2.9s-2.2 1.2-2.2 2.9.9 3 2.2 3 2.2-1.2 2.2-3zm3.4-6.4h6v1.1h-4.7v3.2h3.9v1.1h-3.9v3.7h4.8v1.1h-6.1zm7.5 12.6a12.9 12.9 0 001.8-6.7 13.3 13.3 0 00-1.8-6.8l.8-.3a12.8 12.8 0 012 7.1 13.1 13.1 0 01-2 7.1z" stroke="#fff" stroke-width="11" stroke-miterlimit="10" fill="none"/><path class="cls-1" d="M327.9 114.9h5.9v1.1h-4.6v3.2h3.9v1.1h-3.9v3.7h4.8v1.1h-6.1zm8.3 7.9v-4.2h-1.1v-1h1.2v-2.1h1.1v2.1h2.1v1.1h-2.1v4.2c0 .9.3 1.5 1.2 1.5l.9-.2.2.9a3.2 3.2 0 01-1.4.3c-1.5-.1-2.1-1.1-2.1-2.6zm5.1-8.8h1.3v4.6a3.6 3.6 0 012.5-1.3c1.6 0 2.4 1.1 2.4 3v4.8h-1.3v-4.6c0-1.4-.4-2-1.4-2a2.6 2.6 0 00-2.1 1.1v5.5h-1.3zm7.9 7.3a3.7 3.7 0 013.4-4c2 0 3.1 1.4 3.1 3.6 0 .3-.1.5-.1.7h-5.1c.1 1.7 1.1 2.7 2.5 2.7a2.9 2.9 0 001.9-.6l.5.8a4.1 4.1 0 01-2.5.8 3.7 3.7 0 01-3.7-4zm5.4-.6c0-1.5-.7-2.3-1.9-2.3a2.2 2.2 0 00-2.2 2.3zm2.9-3.2h1.1v1.4h.1a2.5 2.5 0 012.1-1.6l.8.2-.2 1.1h-.8c-.6 0-1.4.4-1.9 1.7v4.9h-1.3zm5.5 0h1v1.1h.1a3.6 3.6 0 012.5-1.3c1.6 0 2.4 1.1 2.4 3v4.8h-1.3v-4.6c0-1.4-.5-2-1.5-2a2.6 2.6 0 00-2 1.1v5.5H363zm8 3.8c0-2.4 1.6-4 3.4-4s3 1.4 3 3.6v.7h-5.2a2.5 2.5 0 002.6 2.7 3.3 3.3 0 001.9-.6l.4.8a4.1 4.1 0 01-2.5.8c-2 0-3.6-1.5-3.6-4zm5.3-.6c0-1.5-.7-2.3-1.9-2.3s-2 .8-2.2 2.3zm3.2 2.1v-4.2h-1.1v-1h1.2v-2.1h1.1v2.1h2v1.1h-2v4.2c0 .9.3 1.5 1.2 1.5l.8-.2.3.9-1.4.3c-1.5-.1-2.1-1.1-2.1-2.6zM338.7 138a12.8 12.8 0 012-7.1l.8.3a13.3 13.3 0 00-1.8 6.8 12.9 12.9 0 001.8 6.7l-.8.4a13.1 13.1 0 01-2-7.1zm4.8-5.9h2.9c2.3 0 3.9.7 3.9 3s-1.6 3.2-3.8 3.2h-1.7v4h-1.3zm2.8 5.1q2.7 0 2.7-2.1c0-1.5-.9-2-2.7-2h-1.5v4.1zm5.4 1.3c0-2.5 1.6-4 3.5-4s3.5 1.5 3.5 4-1.6 4-3.5 4-3.5-1.4-3.5-4zm5.7 0c0-1.7-.9-2.9-2.2-2.9s-2.2 1.2-2.2 2.9.9 3 2.2 3 2.2-1.2 2.2-3zm3.4-6.4h6v1.1h-4.7v3.2h3.9v1.1h-3.9v3.7h4.8v1.1h-6.1zm7.5 12.6a12.9 12.9 0 001.8-6.7 13.3 13.3 0 00-1.8-6.8l.8-.3a12.8 12.8 0 012 7.1 13.1 13.1 0 01-2 7.1zM204 120c0-3.3 1.9-5.3 4.5-5.3a4.1 4.1 0 012.9 1.2l-.7.9a3 3 0 00-2.2-1c-1.9 0-3.2 1.6-3.2 4.2s1.2 4.2 3.2 4.2a3.3 3.3 0 002.4-1.2l.7.8a3.7 3.7 0 01-3.1 1.5c-2.6 0-4.5-2-4.5-5.3zm8.8 1.3a3.6 3.6 0 117.1 0c0 2.6-1.7 4-3.6 4s-3.5-1.4-3.5-4zm5.8 0c0-1.7-.9-2.9-2.3-2.9s-2.2 1.2-2.2 2.9.9 2.9 2.2 2.9 2.3-1.1 2.3-2.9zm3.3-3.8h1v1.1h.1a3.6 3.6 0 012.5-1.3c1.6 0 2.4 1.1 2.4 3v4.8h-1.3v-4.6c0-1.4-.5-2-1.5-2a2.9 2.9 0 00-2.1 1.1v5.5h-1.2zm8.8 5.3v-4.2h-1.2v-1h1.2l.2-2.1h1v2.1h2.1v1.1h-2.1v4.2c0 .9.3 1.5 1.2 1.5l.9-.2.2.9a3.2 3.2 0 01-1.4.3c-1.6-.1-2.1-1.1-2.1-2.6zm4.5.4c0-1.7 1.5-2.5 4.7-2.9 0-1-.3-1.9-1.6-1.9a4.2 4.2 0 00-2.2.8l-.5-.9a5.9 5.9 0 012.9-1c1.9 0 2.7 1.3 2.7 3.2v4.6h-1.1v-.9a4.1 4.1 0 01-2.5 1.1 2.1 2.1 0 01-2.4-2.1zm4.7.1v-2.1c-2.6.3-3.4.9-3.4 1.9a1.2 1.2 0 001.3 1.2 3.2 3.2 0 002.1-1zm3.1-2a3.8 3.8 0 013.7-4 3.4 3.4 0 012.2.9l-.6.9a2.4 2.4 0 00-1.6-.7c-1.3 0-2.3 1.2-2.3 2.9s.9 2.9 2.3 2.9a2.9 2.9 0 001.8-.7l.6.8a3.5 3.5 0 01-2.5 1c-2 0-3.6-1.4-3.6-4zm8 1.5v-4.2h-1.2v-1h1.2l.2-2.1h1v2.1h2.1v1.1h-2.1v4.2c0 .9.3 1.5 1.2 1.5l.9-.2.2.9a3.2 3.2 0 01-1.4.3c-1.6-.1-2.1-1.1-2.1-2.6zm7.3 1.5l.6-.9a3.3 3.3 0 002.3.9c1 0 1.5-.5 1.5-1.2s-.9-1.1-1.8-1.4-2.2-.9-2.2-2.2.9-2.2 2.6-2.2a4.2 4.2 0 012.4.9l-.7.8a2.6 2.6 0 00-1.7-.7c-1 0-1.4.5-1.4 1.1s.8 1 1.7 1.3 2.3.9 2.3 2.4-1 2.2-2.8 2.2a4.5 4.5 0 01-2.8-1zm7.2-9.2a.7.7 0 01.8-.8.8.8 0 01.9.8.9.9 0 01-.9.9.8.8 0 01-.8-.9zm.2 2.4h1.3v7.6h-1.3zm3.3 9.1a2 2 0 011.1-1.7 1.3 1.3 0 01-.7-1.2 2.2 2.2 0 01.8-1.5 2.6 2.6 0 01-.9-2.1 2.7 2.7 0 012.8-2.7l1.1.2h2.6v1h-1.5a2.6 2.6 0 01.6 1.6 2.6 2.6 0 01-2.8 2.6l-1.1-.2a.9.9 0 00-.5.9c0 .5.3.8 1.3.8h1.5c1.8 0 2.6.6 2.6 1.8s-1.4 2.6-3.8 2.6-3.1-.8-3.1-2.1zm5.7-.4c0-.7-.5-.9-1.5-.9h-1.4l-.9-.2a1.6 1.6 0 00-.8 1.3c0 .8.8 1.4 2.2 1.4s2.4-.8 2.4-1.6zm-1-6.2a1.6 1.6 0 10-3.2 0c0 1.2.7 1.9 1.6 1.9s1.6-.7 1.6-1.9zm3.7-2.5h1.1v1.1a3.8 3.8 0 012.6-1.3c1.6 0 2.3 1.1 2.3 3v4.8h-1.3v-4.6c0-1.4-.4-2-1.4-2a2.7 2.7 0 00-2.1 1.1v5.5h-1.3zm8.1 5.7c0-1.7 1.4-2.5 4.7-2.9 0-1-.3-1.9-1.6-1.9a4.2 4.2 0 00-2.3.8l-.5-.9a6.3 6.3 0 013-1c1.9 0 2.7 1.3 2.7 3.2v4.6h-1.1v-.9a4.3 4.3 0 01-2.6 1.1 2.1 2.1 0 01-2.3-2.1zm4.7.1v-2.1c-2.6.3-3.4.9-3.4 1.9s.5 1.2 1.3 1.2a3.7 3.7 0 002.1-1zm3.7.3V114h1.3v9.7c0 .4.1.5.3.5h.3l.2 1h-.8c-.9.1-1.3-.5-1.3-1.6zm-58 14.4a12.9 12.9 0 012.1-7.1l.8.3a13.3 13.3 0 00-1.8 6.8 12.9 12.9 0 001.8 6.7l-.8.4a13.2 13.2 0 01-2.1-7.1zm4.9-5.9h2.6c3.1 0 4.8 1.8 4.8 5.1s-1.7 5.1-4.8 5.1h-2.6zm2.5 9.2c2.4 0 3.6-1.5 3.6-4.1s-1.2-4.1-3.6-4.1h-1.2v8.2zm7.1-9.2h1.3v10.2h-1.3zm3.5 5.1c0-3.3 1.8-5.3 4.4-5.3s4.4 2 4.4 5.3-1.8 5.3-4.4 5.3-4.4-2-4.4-5.3zm7.5 0c0-2.6-1.3-4.2-3.1-4.2s-3 1.6-3 4.2 1.2 4.2 3 4.2 3.1-1.7 3.1-4.2zm2.7 7.5a12.9 12.9 0 001.8-6.7 13.3 13.3 0 00-1.8-6.8l.8-.3a12.9 12.9 0 012.1 7.1 13.2 13.2 0 01-2.1 7.1zm-140.8-10l-2.5-4.3H119v4.3h-1.3v-10.2h3.2c2.1 0 3.6.7 3.6 2.9a2.7 2.7 0 01-2.4 2.8l2.7 4.5zm-4.3-5.4h1.7c1.6 0 2.5-.6 2.5-1.9s-.9-1.9-2.5-1.9H119zm6.8 4.1l.8-.9a3.9 3.9 0 002.8 1.3c1.4 0 2.2-.7 2.2-1.7s-.8-1.4-1.7-1.8l-1.5-.7a2.8 2.8 0 01-2.1-2.6c0-1.6 1.4-2.7 3.2-2.7a4.6 4.6 0 013.1 1.2l-.7.9a3.3 3.3 0 00-2.4-1c-1.1 0-1.9.6-1.9 1.5s.9 1.4 1.7 1.7l1.5.7a2.8 2.8 0 012.1 2.7c0 1.6-1.3 2.9-3.5 2.9a5.1 5.1 0 01-3.6-1.5zm8.4-3.1h3.5v1h-3.5zm4.8 3.7c3.2-2.8 4.7-4.9 4.7-6.6a1.8 1.8 0 00-1.9-2.1 2.7 2.7 0 00-2.1 1.2l-.8-.7a4.2 4.2 0 013.1-1.5 2.8 2.8 0 012.9 3c0 2.1-1.6 4.1-4 6.4h4.5v1.1H139zm7.5-.5l.7-.8a3.5 3.5 0 002.5 1.2 1.9 1.9 0 002.1-2c0-1.2-.8-2-3.2-2v-1c2.2 0 2.9-.8 2.9-2a1.6 1.6 0 00-1.8-1.6 3 3 0 00-2.1 1l-.7-.8a4.3 4.3 0 012.9-1.2c1.7 0 3 .9 3 2.5a2.6 2.6 0 01-1.9 2.5 2.6 2.6 0 012.2 2.6c0 1.8-1.4 2.9-3.3 2.9a4.4 4.4 0 01-3.3-1.3zm8 .5c3.3-2.8 4.7-4.9 4.7-6.6a1.8 1.8 0 00-1.9-2.1 2.9 2.9 0 00-2.1 1.2l-.7-.7a3.8 3.8 0 013-1.5 2.8 2.8 0 013 3c0 2.1-1.6 4.1-4 6.4h4.5v1.1h-6.5zM24 130.5v-6h1.3v6c0 2.5 1.1 3.3 2.4 3.3s2.5-.8 2.5-3.3v-6h1.2v6c0 3.3-1.6 4.4-3.7 4.4s-3.7-1.1-3.7-4.4zm9.4 2.9l.8-.9a3.9 3.9 0 002.8 1.3c1.4 0 2.2-.7 2.2-1.7s-.7-1.4-1.7-1.8l-1.5-.7a2.9 2.9 0 01-2.1-2.6c0-1.6 1.4-2.7 3.3-2.7a4.3 4.3 0 013 1.2l-.7.9a3.3 3.3 0 00-2.3-1c-1.2 0-2 .6-2 1.5s.9 1.4 1.7 1.7l1.5.7a2.8 2.8 0 012.1 2.7c0 1.6-1.3 2.9-3.5 2.9a5.1 5.1 0 01-3.6-1.5zm9.1-8.9h3.1c2.1 0 3.5.7 3.5 2.5a2.2 2.2 0 01-1.5 2.2 2.3 2.3 0 012.1 2.4c0 2-1.6 3-3.9 3h-3.3zm2.9 4.3c1.7 0 2.4-.6 2.4-1.7s-.8-1.6-2.4-1.6h-1.6v3.3zm.2 4.9c1.8 0 2.8-.6 2.8-2s-1-1.9-2.8-1.9h-1.8v3.9z" transform="translate(0 -1.3)"/><path class="cls-4" d="M352.6 240.3c7.9 3.8-.1 20.1 7.7 23.9s15.8-12.5 23.6-8.7-.1 20.1 7.7 23.9" transform="translate(0 -1.3)"/><path class="cls-6" d="M561.7 284.9v-29"/><path class="cls-1" d="M569.2 255.5l-7.5-13-7.5 13h15z"/><path class="cls-7" d="M570 309.2a18.3 18.3 0 000-32.6m-2.9 5.8a11.8 11.8 0 010 21m-10.9 0a11.9 11.9 0 01-6.3-10.5 11.8 11.8 0 016.3-10.4m-3-5.8a18.3 18.3 0 000 32.4" transform="translate(0 -1.3)"/><path class="cls-7" d="M553.6 333.2l8.3-35.6 8.2 35.6m-12.8-13.5h9.6m-11.1 6.4h12.4"/><path class="cls-6" d="M516.6 284.9v-29"/><path class="cls-1" d="M524.1 255.5l-7.5-13-7.5 13h15z"/><path class="cls-7" d="M524.9 309.2a18.3 18.3 0 000-32.6m-2.9 5.8a11.8 11.8 0 010 21m-10.9 0a11.9 11.9 0 01-6.3-10.5 11.8 11.8 0 016.3-10.4m-3-5.8a18.4 18.4 0 000 32.4" transform="translate(0 -1.3)"/><path class="cls-7" d="M508.5 333.2l8.3-35.6 8.2 35.6m-12.7-13.5h9.5m-11 6.4h12.4"/><path class="cls-6" d="M471.6 284.9v-29"/><path class="cls-1" d="M479 255.5l-7.4-13-7.5 13H479z"/><path class="cls-7" d="M479.9 309.2a18.4 18.4 0 000-32.6m-3 5.8a11.7 11.7 0 010 21m-10.8 0a11.7 11.7 0 01-6.3-10.5 11.6 11.6 0 016.3-10.4m-3-5.8a18.3 18.3 0 000 32.4" transform="translate(0 -1.3)"/><path class="cls-7" d="M463.5 333.2l8.2-35.6 8.3 35.6m-12.8-13.5h9.6m-11.1 6.4h12.4"/><path class="cls-6" d="M426.5 284.9v-29"/><path class="cls-1" d="M434 255.5l-7.5-13-7.5 13h15z"/><path class="cls-7" d="M434.8 309.2a18.4 18.4 0 000-32.6m-3 5.8a11.7 11.7 0 010 21m-10.8 0a11.9 11.9 0 01-6.3-10.5 11.8 11.8 0 016.3-10.4m-3-5.8a18.3 18.3 0 000 32.4" transform="translate(0 -1.3)"/><path class="cls-7" d="M418.4 333.2l8.3-35.6 8.2 35.6m-12.8-13.5h9.6m-11.1 6.4H433"/></g></g></svg>