<svg xmlns="http://www.w3.org/2000/svg" viewBox="0 0 692.8 368.8"><defs><style>.cls-1{fill:#10069f}.cls-2{fill:#fff}.cls-4,.cls-5,.cls-6{fill:none;stroke:#10069f;stroke-linecap:round}.cls-5,.cls-6{stroke-linejoin:round}.cls-4,.cls-5{stroke-width:3px}.cls-4{stroke-miterlimit:10}.cls-5{stroke-dasharray:0 5.27}.cls-6{stroke-width:1.88px}</style></defs><g id="レイヤー_2" data-name="レイヤー 2"><g id="レイヤー_2-2" data-name="レイヤー 2"><path class="cls-1" d="M600.8 7a47.9 47.9 0 0147.4 39.8l.9 5.4 5.5.4a33.6 33.6 0 01-2.5 67.2H534.9A33.6 33.6 0 01519 56.5l3.9-2.1-.2-4.4v-1.1a23.8 23.8 0 0123.7-23.8 23.3 23.3 0 019 1.8l4.8 2 3.3-4.1A48 48 0 01600.8 7m0-7a55 55 0 00-42.7 20.4 32.5 32.5 0 00-11.7-2.3 30.7 30.7 0 00-30.7 30.8v1.4a40.6 40.6 0 0019.2 76.5h117.2a40.7 40.7 0 003-81.2A55.1 55.1 0 00600.8 0z"/><path class="cls-1" d="M559.9 48.2a4.8 4.8 0 00-3.6-2 8.9 8.9 0 00-3.2.5c-.6.3-.5.7-.4 1.1a1 1 0 00.7.6 11.2 11.2 0 012.9-.3c2.3.5 2.3 3.2 2.3 3.2s-4 0-5.3.6-2.8 5.9.3 7a4.9 4.9 0 005-1.1c0 .8-.1 1.1.5 1.1h1.5v-7.6a4.9 4.9 0 00-.7-3.1m-4.2 9.3a2.2 2.2 0 01-2.2-1.5 1.9 1.9 0 01.4-2c.6-.7 1.2-.8 4.6-1a5.2 5.2 0 01-.4 3.2 2.7 2.7 0 01-2.4 1.3m25.5-7.3a5 5 0 00-1.9-3.1 5.2 5.2 0 00-2.8-.7 4.2 4.2 0 00-2.6.7c-.3.1-.6.5-.9.7l-.9-.7a4.5 4.5 0 00-2.7-.7 4.8 4.8 0 00-2.7.7 4.3 4.3 0 00-1.9 3.1v7.9c0 .8.5.8.7.8h1.4v-7.5c0-1.5.3-3.1 2.5-3.1s2.7 1 2.6 3.1v6.7c0 .6.5.7 1 .7s.9-.1.9-.7v-6.7c0-2.1.9-3.1 2.6-3.1s2.6 1.6 2.6 3.1v7.4h1.4c.2 0 .7 0 .7-.8zm41.8 0a5 5 0 00-1.9-3.1 5.5 5.5 0 00-2.8-.7 4 4 0 00-2.6.7c-.3.1-.6.5-.9.7l-.9-.7a4.5 4.5 0 00-2.7-.7 4.8 4.8 0 00-2.7.7 4.3 4.3 0 00-1.9 3.1v7.9c0 .8.5.8.7.8h1.4v-7.5c0-1.5.3-3.1 2.5-3.1s2.7 1 2.6 3.1v6.7c0 .6.5.7 1 .7s.9-.1.9-.7v-6.7c0-2.1.9-3.1 2.6-3.1s2.6 1.6 2.6 3.1v7.4h1.4c.1 0 .7 0 .7-.8zm-28.5-1.7a5.2 5.2 0 00-1.9-1.7 4.9 4.9 0 00-2.4-.5 4.8 4.8 0 00-2.3.5 6.1 6.1 0 00-1.9 1.7 5.3 5.3 0 00-.6 2.4v7.3c0 .5.2.7.6.7h1.5v-7.5a3.7 3.7 0 01.8-2.4 2.6 2.6 0 011.9-.8 2.7 2.7 0 012 .8 3.2 3.2 0 01.8 2.4v7.4h1.5a.6.6 0 00.7-.7v-7.2a4.8 4.8 0 00-.7-2.4m6.3-5.2a1.5 1.5 0 01-1.4-1 1.6 1.6 0 011.9-2 1.5 1.5 0 011.1 1.6 1.6 1.6 0 01-1.6 1.4m1.1 14.9V46.7h-2.1v11.5c0 .4 0 .6.4.8h1.4c.3-.2.3-.4.3-.8m32.5-11.7a7.9 7.9 0 00-2.1-.3 8.6 8.6 0 00-2.1.3c-1.5.6-3.3 2.1-3.3 6.3s1.8 5.7 3.3 6.3a8.6 8.6 0 002.1.3 7.9 7.9 0 002.1-.3c1.5-.6 3.3-2.1 3.3-6.3s-1.8-5.7-3.3-6.3m1.1 7.3c-.1 2.1-.8 3.2-2.1 3.5l-1.1.2-1-.2c-1.4-.3-2.1-1.4-2.2-3.5a6.7 6.7 0 010-2c.1-2.1.8-3.1 2.2-3.5h2.1c1.3.4 2 1.4 2.1 3.5a6.7 6.7 0 010 2m-64.7 17.9c0-4.2 2.7-6.7 5.9-6.7a5 5 0 013.7 1.7l-1.3 1.6a3.6 3.6 0 00-2.4-1.1c-1.9 0-3.3 1.7-3.3 4.4s1.3 4.4 3.3 4.4a3.3 3.3 0 002.6-1.3l1.3 1.6a5.1 5.1 0 01-4 1.9c-3.2 0-5.8-2.3-5.8-6.5zm11.7 3.6v-11h2.5v11.1c0 .5.2.7.5.7h.3l.3 1.9-1.3.2c-1.7 0-2.3-1.2-2.3-2.9zm4.8-2.1c0-3.2 2.2-5.1 4.6-5.1a5.1 5.1 0 010 10.1 4.7 4.7 0 01-4.6-5zm6.6 0c0-1.8-.7-3-2-3s-2.1 1.2-2.1 3 .8 2.9 2.1 2.9 2-1.1 2-2.9zm4.6 1.2v-6h2.5V74c0 1.5.4 2 1.3 2s1.3-.3 2-1.2v-6.4h2.5v9.5h-2.1l-.2-1.3a4 4 0 01-3.1 1.6c-2.1 0-2.9-1.5-2.9-3.8zm10.4-1.2c0-3.2 2-5.1 4-5.1a2.9 2.9 0 012.4 1.1v-4.9h2.6v13.6h-2.1l-.2-.9a4.5 4.5 0 01-2.7 1.2c-2.5 0-4-1.9-4-5zm6.3 1.9v-4.2a2.3 2.3 0 00-1.7-.7c-1.1 0-2 1-2 2.9s.7 3 2 3a2.1 2.1 0 001.7-1zm-98 14h2.5c2.7 0 4.4 1.4 4.4 4.4s-1.7 4.4-4.3 4.4h-2.6zm2.4 7.4c1.6 0 2.6-.9 2.6-3s-1-3-2.6-3h-.6v6zm5.2-1.9a3.3 3.3 0 013.1-3.6c1.8 0 2.8 1.4 2.8 3.3a1.9 1.9 0 01-.1.8h-4.1a1.6 1.6 0 001.8 1.6 2.4 2.4 0 001.5-.4l.6 1.1a4.5 4.5 0 01-2.3.7 3.2 3.2 0 01-3.3-3.5zm4.4-.7c0-.9-.4-1.5-1.3-1.5s-1.3.5-1.5 1.5zm1.7-2.7h1.8l.9 3.4.6 2 .6-2 1-3.4h1.7l-2.3 6.7h-2zm7-2a1 1 0 011.1-1 .9.9 0 011 1 .9.9 0 01-1 .9 1 1 0 01-1.1-.9zm.2 2h1.8v6.7h-1.8zm2.8 3.4a3.4 3.4 0 013.4-3.6 3 3 0 011.9.8l-.8 1.1a1.4 1.4 0 00-1-.4c-1.1 0-1.8.8-1.8 2.1s.7 2.1 1.7 2.1a2 2 0 001.3-.6l.7 1.2a3.5 3.5 0 01-2.2.8 3.2 3.2 0 01-3.2-3.5zm5.8 0a3.3 3.3 0 013.1-3.6c1.9 0 2.8 1.4 2.8 3.3a1.9 1.9 0 01-.1.8h-4.1a1.8 1.8 0 001.9 1.6 2.8 2.8 0 001.5-.4l.6 1.1a4.8 4.8 0 01-2.4.7 3.3 3.3 0 01-3.3-3.5zm4.4-.7c0-.9-.4-1.5-1.3-1.5s-1.3.5-1.4 1.5zm4.9-4.8h2l1.5 4.1.5 1.7h.1l.5-1.7 1.5-4.1h2v8.8h-1.7v-3.7c0-.8.2-2.1.2-2.9l-.7 2.1-1.4 3.7h-1l-1.4-3.7-.7-2.1c0 .8.2 2.1.2 2.9v3.7H556zm9.3 7c0-1.4 1.1-2.2 3.8-2.5a1 1 0 00-1.1-1.1 3.2 3.2 0 00-1.8.6l-.7-1.2a5.5 5.5 0 012.8-.9c1.7 0 2.6 1.1 2.6 3v3.9h-1.4l-.2-.7a3.3 3.3 0 01-2 .9 1.9 1.9 0 01-2-2zm3.8 0v-1.4c-1.6.2-2.1.7-2.1 1.3s.3.7.8.7a1.6 1.6 0 001.3-.6zm3.1-4.9h1.5v.9A3.1 3.1 0 01576 91c1.5 0 2.1 1.1 2.1 2.7v4.2h-1.8V94c0-1.1-.3-1.4-.9-1.4a1.7 1.7 0 00-1.4.7v4.6h-1.8zm6.9 4.9c0-1.4 1.2-2.2 3.9-2.5-.1-.6-.3-1.1-1.2-1.1a3.2 3.2 0 00-1.8.6l-.7-1.2a5.5 5.5 0 012.9-.9c1.7 0 2.5 1.1 2.5 3v3.9h-1.4v-.7h-.1a3.1 3.1 0 01-2 .9 1.9 1.9 0 01-2.1-2zm3.9 0v-1.4c-1.7.2-2.2.7-2.2 1.3s.4.7.9.7a1.9 1.9 0 001.3-.6zm2.6 3a1.9 1.9 0 011-1.4 1.3 1.3 0 01-.6-1.2 1.5 1.5 0 01.7-1.2 1.9 1.9 0 01-.9-1.7 2.5 2.5 0 012.7-2.5l1 .2h2.5v1.3h-1.2a1.5 1.5 0 01.3 1c0 1.5-1.1 2.3-2.6 2.3h-.8a.5.5 0 00-.3.5c0 .4.2.6 1 .6h1.2c1.6 0 2.5.5 2.5 1.7s-1.4 2.3-3.7 2.3-2.8-.7-2.8-1.9zm4.8-.3c0-.5-.4-.6-1.1-.6h-1.8a.9.9 0 00-.4.7c0 .6.6.9 1.6.9s1.7-.5 1.7-1zm-.8-5.3a1.2 1.2 0 00-1.1-1.3c-.6 0-1 .5-1 1.3s.4 1.2 1 1.2a1.1 1.1 0 001.1-1.2zm2.7 1.1a3.3 3.3 0 013.1-3.6c1.9 0 2.9 1.4 2.9 3.3 0 .3-.1.6-.1.8H594a1.8 1.8 0 001.9 1.6 2.8 2.8 0 001.5-.4l.6 1.1a4.8 4.8 0 01-2.3.7 3.3 3.3 0 01-3.4-3.5zm4.4-.7c0-.9-.4-1.5-1.2-1.5a1.5 1.5 0 00-1.5 1.5zm2.5-2.7h1.5v.9a2.9 2.9 0 012.1-1.1 1.8 1.8 0 011.8 1.2 3.5 3.5 0 012.2-1.2c1.4 0 2.1 1.1 2.1 2.7v4.2h-1.8V94c0-1.1-.3-1.4-.9-1.4a1.9 1.9 0 00-1.3.7v4.6h-1.8V94c0-1.1-.3-1.4-.9-1.4a1.9 1.9 0 00-1.3.7v4.6h-1.8zm10.7 3.4A3.3 3.3 0 01613 91c1.9 0 2.8 1.4 2.8 3.3a1.9 1.9 0 01-.1.8h-4.1a1.8 1.8 0 001.9 1.6 2.8 2.8 0 001.5-.4l.6 1.1a4.8 4.8 0 01-2.4.7 3.3 3.3 0 01-3.3-3.5zm4.4-.7c0-.9-.4-1.5-1.2-1.5a1.5 1.5 0 00-1.5 1.5zm2.5-2.7h1.4l.2.9a3.1 3.1 0 012.2-1.1c1.4 0 2.1 1.1 2.1 2.7v4.2h-1.8V94c0-1.1-.3-1.4-.9-1.4a1.7 1.7 0 00-1.4.7v4.6h-1.8zm7.5 4.4v-3h-1v-1.3h1.1l.2-1.8h1.4v1.8h1.7v1.4H626v3c0 .7.3 1.1.9 1.1h.7l.3 1.2a2.9 2.9 0 01-1.4.3c-1.6-.2-2.2-1.2-2.2-2.7zm6.1 1.2l1-1.2a3.4 3.4 0 002.3 1c.9 0 1.4-.4 1.4-1.1s-.6-.8-1.4-1.2l-1.1-.5a2.5 2.5 0 01-1.8-2.3 2.7 2.7 0 013-2.6 3.9 3.9 0 012.8 1.1l-.9 1.1a3.2 3.2 0 00-1.9-.7c-.8 0-1.3.4-1.3.9s.7.9 1.4 1.2l1.2.5a2.4 2.4 0 011.8 2.4c0 1.5-1.2 2.7-3.3 2.7a4.6 4.6 0 01-3.2-1.3zm7.1 3.7l.3-1.4h.5a1.1 1.1 0 001.2-1l.2-.4-2.6-6.6h1.7l1.1 3.1.6 1.9c.2-.6.3-1.2.5-1.9l.9-3.1h1.7l-2.4 6.9c-.6 1.6-1.3 2.5-2.8 2.5zm6.1-3.4l.8-1.1a2.9 2.9 0 001.8.8c.7 0 1-.3 1-.7s-.7-.8-1.4-1-1.9-.9-1.9-2a2.2 2.2 0 012.5-2.1 3.7 3.7 0 012.3.9l-.8 1a2.4 2.4 0 00-1.4-.5q-.9 0-.9.6c0 .5.7.7 1.4.9s1.8.8 1.8 2.1-.9 2.1-2.6 2.1a4.2 4.2 0 01-2.6-1zm6.4-1.5v-3h-1v-1.3h1l.2-1.8h1.5v1.8h1.7v1.4h-1.7v3c0 .7.3 1.1.9 1.1h.7l.3 1.2a3.2 3.2 0 01-1.4.3c-1.6-.2-2.2-1.2-2.2-2.7zm3.8-1A3.4 3.4 0 01657 91c1.8 0 2.8 1.4 2.8 3.3 0 .3-.1.6-.1.8h-4.1a1.6 1.6 0 001.8 1.6 2.6 2.6 0 001.5-.4l.6 1.1a4.5 4.5 0 01-2.3.7 3.3 3.3 0 01-3.4-3.5zm4.5-.7c0-.9-.4-1.5-1.3-1.5s-1.3.5-1.5 1.5zm2.5-2.7h1.4v.9h.1a2.6 2.6 0 012-1.1 2 2 0 011.9 1.2 3 3 0 012.1-1.2c1.4 0 2.1 1.1 2.1 2.7v4.2h-1.8V94c0-1.1-.3-1.4-.9-1.4a1.9 1.9 0 00-1.3.7v4.6h-1.8V94c0-1.1-.3-1.4-.9-1.4a1.9 1.9 0 00-1.3.7v4.6h-1.7zm-236.9 72.1a4.7 4.7 0 014.7 4.7v68.1a4.7 4.7 0 01-4.7 4.7H248.7a4.7 4.7 0 01-4.7-4.7V168a4.7 4.7 0 014.7-4.7h175.2m0-5H248.7a9.7 9.7 0 00-9.7 9.7v68.1a9.7 9.7 0 009.7 9.7h175.2a9.7 9.7 0 009.7-9.7V168a9.7 9.7 0 00-9.7-9.7z"/><path class="cls-1" d="M256 209.3h29.2v19.46H256zm29.2 9.8h19.5v9.73h-19.5zm18.3-60.8h4.9v17.03h-4.9zm12.1 0h4.9v17.03h-4.9zm12.2 0h4.9v17.03h-4.9zm12.1 0h4.9v17.03h-4.9zm12.2 0h4.9v17.03h-4.9zm12.2 0h4.9v17.03h-4.9zm-9.6 40.5v1h-1.5c-.1-.1-.1-.4-.1-.7v-.1h-.1a4.5 4.5 0 01-2.7 1.1 3.5 3.5 0 01-1.4-.3 2.7 2.7 0 01-1.8-2.5 3.2 3.2 0 011.6-3.1c1-.5 4.3-.5 4.4-.5s0-2.3-2-2.7h-.4l-1.4.2h-.5c-.3 0-.4-.3-.5-.5s-.3-.6.2-.8a8.8 8.8 0 012.3-.4h.3a4.2 4.2 0 013 1.6 4.6 4.6 0 01.6 2.5v5.1m-3.2-10.7a8.2 8.2 0 00-2.7-.1 4.8 4.8 0 01-3.1-.5 4.2 4.2 0 00-2.7-.3 3.6 3.6 0 00-1.8.7l.9.3a3.8 3.8 0 012.4 2.4 4.5 4.5 0 01-.2 2.5l-.6 2c-.4 1.3-.7 2.4-.9 2.9v.3a7.5 7.5 0 006 5 7.7 7.7 0 002.8-15.2"/><path class="cls-1" d="M342.9 192.7s.7-2.3-1.1-3.3a5.1 5.1 0 00-1.7-.3 4.3 4.3 0 00-.9 2.2v.7a22.9 22.9 0 013.6.8zM353 195l-1.9.2h-.1a2.3 2.3 0 00-1.9.7 1.8 1.8 0 00-.4 1.7 2 2 0 002 1.3 2.6 2.6 0 001.7-.7l.3-.4a5.1 5.1 0 00.4-2.7zm53.4-3.1a3.9 3.9 0 00-1.4-1.7 3.5 3.5 0 00-2.3-.6 3.3 3.3 0 00-2.1.6 2.4 2.4 0 00-.8.6l-.7-.6a3.8 3.8 0 00-2.2-.6 3.9 3.9 0 00-2.3.6 4.7 4.7 0 00-1.4 1.7 3.4 3.4 0 00-.1 1c-.1.8-.1 3.4-.1 5.1a7.8 7.8 0 01.1 1.3c0 .2 0 .6.5.6h1.2v-6a2.9 2.9 0 01.6-2.2 2.3 2.3 0 011.5-.5 2.2 2.2 0 012.1 2.7v5.4a.7.7 0 00.8.6.7.7 0 00.9-.6v-5.4a2.3 2.3 0 01.6-2.2 2.6 2.6 0 011.4-.5 2.1 2.1 0 011.5.5 2.9 2.9 0 01.7 2.2v6h1.1a.6.6 0 00.6-.6v-6.4a3.6 3.6 0 00-.2-1m-34.5 0a3.9 3.9 0 00-1.4-1.7 3.5 3.5 0 00-2.3-.6 3.3 3.3 0 00-2.1.6 2.4 2.4 0 00-.8.6l-.7-.6a3.8 3.8 0 00-2.2-.6 3.9 3.9 0 00-2.3.6 4.7 4.7 0 00-1.4 1.7 3.4 3.4 0 00-.1 1c-.1.8-.1 3.4-.1 5.1a7.8 7.8 0 01.1 1.3c0 .2 0 .6.5.6h1.2v-6a2.9 2.9 0 01.6-2.2 2.3 2.3 0 011.5-.5 2.2 2.2 0 012.1 2.7v5.4a.7.7 0 00.8.6.7.7 0 00.9-.6v-5.4a2.3 2.3 0 01.6-2.2 2.6 2.6 0 011.4-.5 2.1 2.1 0 011.5.5 2.9 2.9 0 01.7 2.2v6h1.1a.6.6 0 00.6-.6v-6.4a3.6 3.6 0 00-.2-1m45.1 3.8c-.2 1.7-.7 2.6-1.8 2.9h-1.8c-1.1-.3-1.7-1.2-1.8-2.9v-1.6c.1-1.7.7-2.6 1.8-2.9h1.8c1.1.3 1.6 1.2 1.8 2.9v1.6m1.8-1.1c-.1-1-.3-4-2.8-4.9a4.5 4.5 0 00-1.6-.3h-.2a4.5 4.5 0 00-1.6.3c-2.5.9-2.8 3.9-2.8 4.9v.6c.1 1 .3 4 2.8 4.8a4.5 4.5 0 001.6.3h.2l1.6-.2c2.5-.9 2.7-3.9 2.8-4.9v-.6m-30.1-10a1.1 1.1 0 00-1.3.3 1.4 1.4 0 00-.3 1.3 1.4 1.4 0 001.2.9 1.3 1.3 0 001.3-1.2 1.2 1.2 0 00-.9-1.3m-.4 5.3h-.8v9.8c0 .4.4.5.8.5s.9-.1.9-.5v-9.8h-.9m-6.8 0a4.3 4.3 0 00-1.9-.4 4.1 4.1 0 00-1.9.4 3.9 3.9 0 00-1.6 1.5 4.7 4.7 0 00-.6 1.9v6a.6.6 0 00.6.6h1.2v-6.1a2.7 2.7 0 01.7-2 2 2 0 011.6-.6 2.2 2.2 0 011.6.6 2.7 2.7 0 01.7 2v6.1h1.2c.3 0 .5-.2.5-.6v-6a3.6 3.6 0 00-.5-1.9 4.6 4.6 0 00-1.6-1.5m-39.1 3.8l-1.9-.4h-.1l-1-.2a1.5 1.5 0 00-1 .3 1.6 1.6 0 00-.9 1.6 1.9 1.9 0 001.5 1.8h.8l1.1-.2.4-.3.3-.4a6 6 0 00.9-2.2h-.1zM0 8.9h1.5l1.8 5.9c.3 1.3.6 2.4 1 3.6h.1c.4-1.2.7-2.3 1-3.6l1.8-5.9h1.4l-3.5 11H3.5zm9.8 8.8c0-1.7 1.5-2.6 5-3 0-1.1-.3-2.1-1.7-2.1a4.6 4.6 0 00-2.4.9l-.6-.9a6.1 6.1 0 013.2-1.1c2 0 2.9 1.3 2.9 3.3v5.1H15v-1a4.6 4.6 0 01-2.8 1.1 2.2 2.2 0 01-2.4-2.3zm5 .2v-2.3c-2.7.3-3.7 1-3.7 2a1.3 1.3 0 001.5 1.4 3.3 3.3 0 002.2-1.1zm4.3-6.2h1.1v1.5h.1a2.8 2.8 0 012.3-1.7 1.1 1.1 0 01.8.2l-.2 1.2-.8-.2c-.7 0-1.5.5-2.1 1.9v5.3h-1.2zm5.8-2.6c0-.5.4-.8 1-.8a.8.8 0 01.9.8.8.8 0 01-.9.9c-.6 0-1-.3-1-.9zm.3 2.6h1.3v8.2h-1.3zm3.8 4.1c0-2.7 1.8-4.3 3.8-4.3s3.8 1.6 3.8 4.3-1.8 4.2-3.8 4.2-3.8-1.5-3.8-4.2zm6.1 0c0-1.9-.9-3.2-2.3-3.2s-2.4 1.3-2.4 3.2 1 3.1 2.4 3.1 2.3-1.2 2.3-3.1zm3.8 1.1v-5.2h1.4v5c0 1.5.4 2.2 1.5 2.2s1.4-.4 2.2-1.4v-5.8h1.4v8.2h-1.2v-1.3a3.5 3.5 0 01-2.8 1.4c-1.7 0-2.5-1.1-2.5-3.1zm8.6 2l.7-.9a3.5 3.5 0 002.4 1c1.1 0 1.6-.6 1.6-1.3s-1-1.2-1.9-1.5-2.4-1-2.4-2.4 1-2.3 2.8-2.3a4 4 0 012.5.9l-.6.9a3.4 3.4 0 00-1.9-.7c-1 0-1.5.5-1.5 1.1s.9 1.1 1.8 1.5 2.5.9 2.5 2.4-1 2.4-3 2.4a4.6 4.6 0 01-3-1.1zm11.3-3.1c0-2.7 1.7-4.3 3.5-4.3a3.3 3.3 0 012.3 1V7.9H66v12h-1.2v-1h-.1a3.6 3.6 0 01-2.5 1.1c-2.1 0-3.4-1.5-3.4-4.2zm5.7 2v-4.3a2.6 2.6 0 00-1.9-.8c-1.4 0-2.4 1.2-2.4 3.1s.8 3.1 2.3 3.1a2.7 2.7 0 002-1.1zm3.9-2c0-2.7 1.8-4.3 3.6-4.3s3.3 1.5 3.3 3.8a1.9 1.9 0 01-.1.8h-5.5a2.8 2.8 0 002.7 2.9 3.8 3.8 0 002.1-.7l.5.9a4.8 4.8 0 01-2.7.8c-2.2 0-3.9-1.5-3.9-4.2zm5.7-.7c0-1.6-.8-2.5-2-2.5a2.5 2.5 0 00-2.4 2.5zm2.3-3.4h1.4l1.6 4.6c.2.8.5 1.7.7 2.4h.1c.2-.7.5-1.6.7-2.4l1.6-4.6h1.3l-2.9 8.2h-1.6zm9.1-2.6a.9.9 0 011.8 0 .9.9 0 11-1.8 0zm.2 2.6h1.4v8.2h-1.4zm3.8 4.1a4 4 0 013.9-4.3 3.1 3.1 0 012.4 1l-.7.9a2.1 2.1 0 00-1.6-.8c-1.5 0-2.6 1.3-2.6 3.2s1.1 3.1 2.6 3.1a2.7 2.7 0 001.9-.8l.6.9a3.9 3.9 0 01-2.7 1c-2.1 0-3.8-1.5-3.8-4.2zm8 0c0-2.7 1.7-4.3 3.6-4.3s3.3 1.5 3.3 3.8c0 .3-.1.6-.1.8h-5.5a2.8 2.8 0 002.7 2.9 3.8 3.8 0 002.1-.7l.5.9a4.8 4.8 0 01-2.7.8c-2.2 0-3.9-1.5-3.9-4.2zm5.7-.7c0-1.6-.8-2.5-2.1-2.5s-2.1.9-2.3 2.5zm2.6 3.8l.6-.9a3.7 3.7 0 002.5 1c1 0 1.6-.6 1.6-1.3s-1-1.2-1.9-1.5-2.4-1-2.4-2.4 1-2.3 2.8-2.3a4 4 0 012.5.9l-.7.9a2.9 2.9 0 00-1.8-.7c-1 0-1.5.5-1.5 1.1s.9 1.1 1.8 1.5 2.5.9 2.5 2.4-1.1 2.4-3 2.4a4.4 4.4 0 01-3-1.1zm320.7 243.3v-6.7h.9v6.6c0 2.9 1.3 3.7 2.8 3.7s2.9-.8 2.9-3.7v-6.6h.9v6.7c0 3.4-1.8 4.5-3.8 4.5s-3.7-1.1-3.7-4.5zm10.5-3.7h.8v.9a4.6 4.6 0 012.7-1.1c2.1 0 3.2 1.6 3.2 4s-1.7 4.4-3.5 4.4a4.2 4.2 0 01-2.4-1v4.3h-.8zm5.8 3.8c0-1.9-.6-3.3-2.4-3.3a4.1 4.1 0 00-2.5 1.3v4.6a4 4 0 002.3 1c1.5 0 2.6-1.4 2.6-3.6zm6.8 1.9v-5h-1.2v-.7h1.3v-2.3h.7v2.3h2.3v.7h-2.3v5c0 1 .3 1.7 1.3 1.7l1-.2.2.7-1.3.3c-1.5 0-2-1-2-2.5zm4.5-1.7c0-2.7 1.6-4.2 3.6-4.2s3.6 1.5 3.6 4.2-1.7 4.2-3.6 4.2-3.6-1.6-3.6-4.2zm6.3 0c0-2.1-1.2-3.5-2.7-3.5s-2.7 1.4-2.7 3.5 1.1 3.4 2.7 3.4 2.7-1.4 2.7-3.4zm12.6.8h-1.6v3.2h-.8v-3.2h-4.8v-.5l4.8-7.3h.8v7.1h1.6zm-2.4-.7v-4a10.9 10.9 0 01.1-1.8h-.1l-.9 1.5-2.9 4.3zm7.9 1.6v-5h-1.2v-.7h1.2v-2.3h.8v2.3h2.3v.7h-2.3v5c0 1 .3 1.7 1.3 1.7l1-.2.2.7-1.3.3c-1.5 0-2-1-2-2.5zm4 5.7l.2-.7h.7c.9 0 1.6-.9 2-2l.2-.7-3.3-8.1h.9l1.9 4.9a14.3 14.3 0 01.8 2.2h.1c.3-.7.5-1.6.7-2.2l1.7-4.9h.9l-3.2 8.9c-.4 1.4-1.3 2.7-2.7 2.7zm8.4-11.4h.8v.9a4.6 4.6 0 012.7-1.1c2.1 0 3.2 1.6 3.2 4s-1.7 4.4-3.5 4.4a4.2 4.2 0 01-2.4-1v4.3h-.9zm5.9 3.8c0-1.9-.7-3.3-2.5-3.3a4.1 4.1 0 00-2.5 1.3v4.6a4 4 0 002.3 1c1.5 0 2.7-1.4 2.7-3.6zm2.6.2c0-2.6 1.7-4.2 3.5-4.2s3.1 1.3 3.1 3.7c0 .2-.1.4-.1.6h-5.7c.1 2 1.2 3.3 3 3.3a3.1 3.1 0 002.1-.7l.3.7a4.4 4.4 0 01-2.5.8c-2.1 0-3.7-1.6-3.7-4.2zm5.8-.6c0-1.9-.9-2.9-2.3-2.9a2.9 2.9 0 00-2.7 2.9zm1.9 3.7l.5-.7a3.6 3.6 0 002.5 1c1.2 0 1.8-.7 1.8-1.5s-1-1.4-1.9-1.7-2.5-.9-2.5-2.3.9-2.1 2.6-2.1a3.6 3.6 0 012.3.8l-.4.6a2.9 2.9 0 00-1.9-.7c-1.2 0-1.7.7-1.7 1.4s.9 1.2 1.8 1.5 2.6.9 2.6 2.5a2.4 2.4 0 01-2.7 2.3 4.7 4.7 0 01-3-1.1zm10.4-3.1c0-2.7 1.7-4.2 3.7-4.2s3.6 1.5 3.6 4.2-1.7 4.2-3.6 4.2-3.7-1.6-3.7-4.2zm6.4 0c0-2.1-1.2-3.5-2.7-3.5s-2.7 1.4-2.7 3.5 1.1 3.4 2.7 3.4 2.7-1.4 2.7-3.4zm6.4-7.2l-1-.2c-.8 0-1.2.6-1.2 1.7v1.7h1.8v.7h-1.8v7.3h-.9v-7.3h-1.1v-.7h1.1v-1.7c0-1.6.8-2.5 2.1-2.5a2.7 2.7 0 011.2.3zm3.9 9.7l.5-.6a4.3 4.3 0 003.2 1.4c1.6 0 2.6-.8 2.6-2.1s-.8-1.7-1.9-2.2l-1.6-.7c-1-.4-2.3-1.1-2.3-2.7s1.4-2.8 3.3-2.8a4.1 4.1 0 013.1 1.4l-.5.5a3.9 3.9 0 00-2.6-1.1c-1.4 0-2.4.8-2.4 1.9s1.1 1.7 1.9 2.1l1.6.7c1.3.5 2.3 1.2 2.3 2.9s-1.4 3-3.5 3a4.7 4.7 0 01-3.7-1.7zm9.5-9.5h.9v11h-.9zm4.1 0h1.2l2.2 6.3.9 2.4.9-2.4 2.2-6.3h1.2v11h-.8v-7c0-.9 0-2.1.1-3h-.1l-.9 2.5-2.3 6.3h-.7l-2.3-6.3-.8-2.5h-.1c0 .9.1 2.1.1 3v7h-.8zm14.4 7c0-2.7 1.7-4.2 3.7-4.2a3.2 3.2 0 012.3.9l-.5.6a3 3 0 00-1.8-.8c-1.6 0-2.8 1.4-2.8 3.5s1.1 3.4 2.8 3.4a3.3 3.3 0 002.1-.9l.4.6a4.1 4.1 0 01-2.6 1.1c-2.1 0-3.6-1.6-3.6-4.2zm7.6 2c0-1.8 1.5-2.7 5.1-3.1 0-1.1-.4-2.4-1.9-2.4a4.7 4.7 0 00-2.5.9l-.4-.6a5.6 5.6 0 013-1c2 0 2.6 1.3 2.6 3.1v5.1h-.7v-1.1a4.5 4.5 0 01-2.8 1.3 2.1 2.1 0 01-2.4-2.2zm5.1.2v-2.6c-3.2.3-4.3 1.1-4.3 2.3s.8 1.5 1.7 1.5a4.3 4.3 0 002.6-1.2zm3.6-6.2h.7v1.2h.1a3.8 3.8 0 012.7-1.4c1.7 0 2.4 1 2.4 3v5.2h-.8v-5c0-1.7-.6-2.5-1.8-2.5a3.4 3.4 0 00-2.5 1.5v6h-.9zm13.1 7.2l-.2.8h-.7v-12h.9v5a4.2 4.2 0 012.7-1.2c2.1 0 3.2 1.6 3.2 4s-1.7 4.4-3.5 4.4a3.9 3.9 0 01-2.4-1zm4.9-3.4c0-1.9-.6-3.3-2.4-3.3a4.1 4.1 0 00-2.5 1.3v4.6a3.8 3.8 0 002.3 1c1.5 0 2.6-1.4 2.6-3.6zm2.6.2c0-2.6 1.7-4.2 3.5-4.2s3.1 1.3 3.1 3.7v.6H600c.1 2 1.2 3.3 2.9 3.3a3.2 3.2 0 002.2-.7l.3.7a4.5 4.5 0 01-2.6.8c-2 0-3.7-1.6-3.7-4.2zm5.8-.6c0-1.9-.9-2.9-2.2-2.9s-2.5 1.1-2.7 2.9zm6-6a.7.7 0 01.7-.7.7.7 0 110 1.4.7.7 0 01-.7-.7zm.3 2.6h.9v8h-.9zm3.8 0h.8v1.2a3.8 3.8 0 012.7-1.4c1.7 0 2.5 1 2.5 3v5.2h-.9v-5c0-1.7-.5-2.5-1.8-2.5a3.4 3.4 0 00-2.5 1.5v6h-.8zm8 7.1l.4-.7a3.7 3.7 0 002.5 1c1.3 0 1.9-.7 1.9-1.5s-1-1.4-2-1.7-2.5-.9-2.5-2.3 1-2.1 2.7-2.1a3.8 3.8 0 012.3.8l-.5.6a2.9 2.9 0 00-1.9-.7c-1.2 0-1.7.7-1.7 1.4s.9 1.2 1.9 1.5 2.5.9 2.5 2.5-.9 2.3-2.7 2.3a4.5 4.5 0 01-2.9-1.1zm7.9-1.4v-5h-1.2v-.7h1.2v-2.3h.8v2.3h2.3v.7h-2.3v5c0 1 .3 1.7 1.3 1.7l1-.2.2.7-1.3.3c-1.5 0-2-1-2-2.5zm4.5.3c0-1.8 1.6-2.7 5.1-3.1.1-1.1-.3-2.4-1.8-2.4a4.4 4.4 0 00-2.5.9l-.4-.6a5.6 5.6 0 013-1c1.9 0 2.6 1.3 2.6 3.1v5.1h-.7v-1.1a4.8 4.8 0 01-2.8 1.3 2.2 2.2 0 01-2.5-2.2zm5.1.2v-2.6c-3.1.3-4.2 1.1-4.2 2.3a1.4 1.4 0 001.6 1.5 3.9 3.9 0 002.6-1.2zm3.7.6v-10.8h.9v10.9c0 .3.1.5.3.5h.3l.2.7h-.6c-.8.1-1.1-.4-1.1-1.3zm4 0v-10.8h.9v10.9c0 .3.1.5.3.5h.3l.2.7h-.6c-.8.1-1.1-.4-1.1-1.3zm3.3-2.8c0-2.6 1.7-4.2 3.6-4.2s3 1.3 3 3.7v.6h-5.7c.1 2 1.2 3.3 3 3.3a3.1 3.1 0 002.1-.7l.3.7a4.4 4.4 0 01-2.5.8c-2.1 0-3.8-1.6-3.8-4.2zm5.9-.6c0-1.9-.9-2.9-2.3-2.9a2.9 2.9 0 00-2.7 2.9zm2.2.6c0-2.6 1.7-4.2 3.6-4.2a3.3 3.3 0 012.3.9v-4.7h.9v12h-.8v-1a3.8 3.8 0 01-2.6 1.2c-2.1 0-3.4-1.5-3.4-4.2zm5.9 2.1V260a3.4 3.4 0 00-2.3-1c-1.5 0-2.7 1.5-2.7 3.5s1 3.4 2.6 3.4a3.2 3.2 0 002.4-1.3zm3.1 3.9a2.3 2.3 0 001.4-2h-.2a.7.7 0 01-.8-.7.8.8 0 01.8-.8c.5 0 .9.5.9 1.3a3 3 0 01-1.8 2.8zm-235.2 13c0-1.8 1.5-2.7 5.1-3.1 0-1.1-.3-2.4-1.9-2.4a4.7 4.7 0 00-2.5.9l-.4-.6a6 6 0 013.1-1c1.9 0 2.5 1.3 2.5 3.1v5.1h-.7v-1.1a4.5 4.5 0 01-2.8 1.3 2.1 2.1 0 01-2.4-2.2zm5.1.2v-2.6c-3.2.3-4.3 1.1-4.3 2.3s.8 1.5 1.7 1.5a4.1 4.1 0 002.6-1.2zm3.6-6.2h.8v1.2a3.8 3.8 0 012.7-1.4c1.7 0 2.4 1 2.4 3v5.2h-.8v-5c0-1.7-.5-2.5-1.8-2.5a3.4 3.4 0 00-2.5 1.5v6h-.9zm8.3 4c0-2.6 1.6-4.2 3.5-4.2a3.6 3.6 0 012.4.9v-4.7h.9v12h-.7v-1h-.1a3.7 3.7 0 01-2.5 1.2c-2.2 0-3.5-1.5-3.5-4.2zm5.8 2.1V277a3.3 3.3 0 00-2.2-1c-1.5 0-2.7 1.5-2.7 3.5s.9 3.4 2.5 3.4a3.1 3.1 0 002.4-1.3zm13.2-1.3h-1.5v3.2h-.9v-3.2h-4.8v-.5l4.8-7.3h.9v7.1h1.5zm-2.4-.7v-4c0-.5.1-1.3.1-1.8l-.9 1.5-3 4.3zm7.1-.1c0-2.7 1.8-4.2 3.7-4.2a3.5 3.5 0 012.4.9l-.5.6a3 3 0 00-1.9-.8c-1.5 0-2.8 1.4-2.8 3.5s1.2 3.4 2.8 3.4a2.9 2.9 0 002.1-.9l.4.6a3.8 3.8 0 01-2.5 1.1c-2.1 0-3.7-1.6-3.7-4.2zm7.6 2c0-1.8 1.6-2.7 5.1-3.1 0-1.1-.3-2.4-1.8-2.4a4.1 4.1 0 00-2.5.9l-.4-.6a5.6 5.6 0 013-1c1.9 0 2.6 1.3 2.6 3.1v5.1h-.7v-1.1h-.1a4.3 4.3 0 01-2.8 1.3 2.2 2.2 0 01-2.4-2.2zm5.1.2v-2.6c-3.1.3-4.2 1.1-4.2 2.3s.7 1.5 1.6 1.5a3.9 3.9 0 002.6-1.2zm3.7-6.2h.7v1.5a2.7 2.7 0 012.3-1.7h.8l-.2.8h-.7c-.7 0-1.6.5-2.2 2v5.4h-.8zm5.4 0h.7v1.5a2.7 2.7 0 012.3-1.7h.8l-.2.8h-.7c-.7 0-1.6.5-2.2 2v5.4h-.8zm5.1-2.6a.7.7 0 11.7.7.7.7 0 01-.7-.7zm.2 2.6h.9v8h-.9zm3.2 4c0-2.6 1.7-4.2 3.6-4.2s3 1.3 3 3.7v.6h-5.7c.1 2 1.2 3.3 3 3.3a3.1 3.1 0 002.1-.7l.3.7a4.4 4.4 0 01-2.5.8c-2.1 0-3.8-1.6-3.8-4.2zm5.8-.6c0-1.9-.8-2.9-2.2-2.9a2.9 2.9 0 00-2.7 2.9zm3-3.4h.7v1.5a2.7 2.7 0 012.3-1.7h.8l-.2.8h-.7c-.7 0-1.6.5-2.2 2v5.4h-.8zm8.7 0h.7v1.2a4.2 4.2 0 012.8-1.4q2.4 0 2.4 3v5.2h-.8v-5c0-1.7-.5-2.5-1.7-2.5s-1.6.5-2.5 1.5v6h-.9zm8.2 4c0-2.6 1.7-4.2 3.5-4.2s3.1 1.3 3.1 3.7v.6H531c.1 2 1.2 3.3 2.9 3.3a3.2 3.2 0 002.2-.7l.3.7a4.7 4.7 0 01-2.6.8c-2 0-3.7-1.6-3.7-4.2zm5.8-.6c0-1.9-.9-2.9-2.3-2.9s-2.4 1.1-2.6 2.9zm3.1 2.3v-5h-1.2v-.7h1.3v-2.3h.7v2.3h2.3v.7h-2.3v5c0 1 .3 1.7 1.4 1.7l.9-.2.2.7-1.3.3c-1.5 0-2-1-2-2.5zm4-5.7h1l1.3 5 .6 2.2.6-2.2 1.4-5h1l1.4 5 .6 2.2h.1a22.5 22.5 0 01.5-2.2l1.4-5h.8l-2.2 8h-1.1l-1.4-4.9-.6-2.2h-.1a11.2 11.2 0 01-.6 2.3l-1.3 4.8h-1zm12 4c0-2.7 1.6-4.2 3.6-4.2s3.6 1.5 3.6 4.2-1.7 4.2-3.6 4.2-3.6-1.6-3.6-4.2zm6.3 0c0-2.1-1.2-3.5-2.7-3.5s-2.7 1.4-2.7 3.5 1.1 3.4 2.7 3.4 2.7-1.4 2.7-3.4zm3.2-4h.8v1.5a2.5 2.5 0 012.2-1.7h.9l-.2.8h-.8c-.7 0-1.5.5-2.1 2v5.4h-.9zm5.4-4h.9v8.7l3.8-4.7h1l-2.6 3.1 3.1 4.9h-1l-2.6-4.2-1.7 2v2.2h-.9zm6.9 11.1l.4-.7a3.6 3.6 0 002.5 1c1.3 0 1.9-.7 1.9-1.5s-1-1.4-2-1.7-2.5-.9-2.5-2.3 1-2.1 2.7-2.1a3.8 3.8 0 012.3.8l-.5.6a2.9 2.9 0 00-1.9-.7c-1.2 0-1.7.7-1.7 1.4s.9 1.2 1.9 1.5 2.5.9 2.5 2.5-.9 2.3-2.7 2.3a4.5 4.5 0 01-2.9-1.1zm10.4-3.1c0-2.7 1.7-4.2 3.7-4.2a3.2 3.2 0 012.3.9l-.5.6a3 3 0 00-1.8-.8c-1.6 0-2.8 1.4-2.8 3.5s1.1 3.4 2.8 3.4a3.3 3.3 0 002.1-.9l.4.6a4.1 4.1 0 01-2.6 1.1c-2 0-3.6-1.6-3.6-4.2zm7.6 2c0-1.8 1.5-2.7 5.1-3.1 0-1.1-.3-2.4-1.9-2.4a4.7 4.7 0 00-2.5.9l-.4-.6a6 6 0 013.1-1c1.9 0 2.5 1.3 2.5 3.1v5.1h-.7v-1.1a4.5 4.5 0 01-2.8 1.3 2.1 2.1 0 01-2.4-2.2zm5.1.2v-2.6c-3.2.3-4.3 1.1-4.3 2.3s.8 1.5 1.7 1.5a4.1 4.1 0 002.6-1.2zm3.6-6.2h.7l.2 1.2a3.8 3.8 0 012.7-1.4c1.7 0 2.4 1 2.4 3v5.2h-.8v-5c0-1.7-.6-2.5-1.8-2.5a3.4 3.4 0 00-2.5 1.5v6h-.9zm13.1 7.2v.8h-.7v-12h.8v5a4.2 4.2 0 012.7-1.2c2.1 0 3.2 1.6 3.2 4s-1.7 4.4-3.5 4.4a3.9 3.9 0 01-2.5-1zm5-3.4c0-1.9-.7-3.3-2.5-3.3a4.1 4.1 0 00-2.5 1.3v4.6a3.8 3.8 0 002.3 1c1.5 0 2.7-1.4 2.7-3.6zm2.5.2c0-2.6 1.7-4.2 3.5-4.2s3.1 1.3 3.1 3.7v.6H625c.1 2 1.2 3.3 2.9 3.3a3.2 3.2 0 002.2-.7l.3.7a4.4 4.4 0 01-2.5.8c-2.1 0-3.8-1.6-3.8-4.2zm5.8-.6c0-1.9-.8-2.9-2.2-2.9a2.9 2.9 0 00-2.7 2.9zm6.2 1.7v-5.1h.8v5q0 2.4 1.8 2.4c.9 0 1.6-.5 2.5-1.6v-5.8h.8v8h-.7v-1.4a3.7 3.7 0 01-2.7 1.6c-1.8 0-2.5-1.1-2.5-3.1zm8 2l.4-.7a3.8 3.8 0 002.6 1c1.2 0 1.8-.7 1.8-1.5s-1-1.4-1.9-1.7-2.6-.9-2.6-2.3 1-2.1 2.7-2.1a3.8 3.8 0 012.3.8l-.5.6a2.9 2.9 0 00-1.9-.7 1.5 1.5 0 00-1.7 1.4c0 .9.9 1.2 1.9 1.5s2.6.9 2.6 2.5-1 2.3-2.8 2.3a4.5 4.5 0 01-2.9-1.1zm7.1-3.1c0-2.6 1.7-4.2 3.5-4.2s3.1 1.3 3.1 3.7a1.3 1.3 0 01-.1.6h-5.6c0 2 1.2 3.3 2.9 3.3a3.1 3.1 0 002.1-.7l.3.7a4.4 4.4 0 01-2.5.8c-2.1 0-3.7-1.6-3.7-4.2zm5.8-.6c0-1.9-.9-2.9-2.3-2.9a2.8 2.8 0 00-2.6 2.9zm2.2.6c0-2.6 1.7-4.2 3.6-4.2a3.8 3.8 0 012.4.9v-4.7h.9v12h-.7l-.2-1a3.7 3.7 0 01-2.5 1.2c-2.2 0-3.5-1.5-3.5-4.2zm5.9 2.1V277a3.3 3.3 0 00-2.2-1c-1.6 0-2.7 1.5-2.7 3.5s.9 3.4 2.5 3.4a3.1 3.1 0 002.4-1.3zm-163.3 43.5a2.8 2.8 0 002.8 2.8h1.7v-6.2h-4.5zm4.5-19.9h-1.7a2.8 2.8 0 00-2.8 2.8v3.4h4.5zm7.4 0h5.1v6.16h-5.1zm-6.2 0h5.1v6.16h-5.1zm0 16.5h5.1v6.16h-5.1zm14.2-16.5H520v6.2h4.5V308a2.7 2.7 0 00-2.8-2.8z"/><path class="cls-1" d="M529 296.8h-7.3v.4a2.6 2.6 0 01-5.2 0v-.4h-6.7a.6.6 0 01.1.4 2.7 2.7 0 01-5.3 0v-.4h-7.2a4 4 0 00-4 3.9v38.2l10.5 10.6H529a4 4 0 003.9-4v-44.8a4 4 0 00-3.9-3.9zm-3.3 14.6v13.7a4 4 0 01-4 4h-17.1a3.9 3.9 0 01-3.9-4V308a3.9 3.9 0 013.9-4h17.1a4 4 0 014 4z"/><path class="cls-1" d="M513.7 321.7h5.1v6.16h-5.1z"/><path class="cls-1" d="M501.8 320.6H520v7.3h1.7a2.7 2.7 0 002.8-2.8v-12.6h-22.7zm-33.1-23.3a2 2 0 012.1 2v44.8a2.1 2.1 0 01-2.1 2.1h-24.2l-9.5-9.4v-37.5a2.1 2.1 0 012.1-2h5.6a4.6 4.6 0 008.6 0h3.3a4.5 4.5 0 008.5 0h5.6m0-1.9h-7.2v.4a2.7 2.7 0 11-5.3 0 .6.6 0 01.1-.4h-6.7v.4a2.6 2.6 0 11-5.2 0v-.4h-7.3a3.9 3.9 0 00-3.9 3.9v38.2l10.5 10.6h25a4 4 0 004-4v-44.8a4 4 0 00-4-3.9z"/><path class="cls-1" d="M461.5 302.6h-17.1a4 4 0 00-4 4v17.1a4 4 0 004 4h17.1a3.9 3.9 0 003.9-4v-17.1a3.9 3.9 0 00-3.9-4zm-2.9 1.2v6.2h-5.1v-6.2zm-6.3 0v6.2h-5v-6.2zm-10.7 2.8a2.8 2.8 0 012.8-2.8h1.7v6.2h-4.5zm2.8 19.9a2.7 2.7 0 01-2.8-2.8v-3.4h4.5v6.2zm2.9 0v-6.2h5v6.2zm6.2 0v-6.2h5.1v6.2zm10.8-2.8a2.8 2.8 0 01-2.8 2.8h-1.7v-7.3h-18.2v-8.1h22.7zm-4.5-13.7v-6.2h1.7a2.9 2.9 0 012.8 2.8v3.4zm124.3 2.7v21.4h-11.4l-4.1-4.1v-17.3h15.5m1.1-1h-17.6v18.8l4.7 4.7h12.9v-23.5z"/><path class="cls-1" d="M598.2 307.5v1.7h-7v6.3h7v1.1h-7v6.3h7v1.1h-7v6.3h7v1.1h-7v6.3h7v1.7h-43.7v-1.7h7.1v-6.3h-7.1v-1.1h7.1V324h-7.1v-1.1h7.1v-6.3h-7.1v-1.1h7.1v-6.3h-7.1v-1.7h43.7m.5-1.7h-44.6a1.2 1.2 0 00-1.2 1.2v2.7a1.2 1.2 0 001.2 1.2h5.8v2.9h-5.8a1.2 1.2 0 00-1.2 1.2v2.1a1.2 1.2 0 001.2 1.2h5.8v2.9h-5.8a1.2 1.2 0 00-1.2 1.2v2.1a1.2 1.2 0 001.2 1.2h5.8v2.9h-5.8a1.2 1.2 0 00-1.2 1.2v2.1a1.2 1.2 0 001.2 1.2h5.8v2.9h-5.8a1.2 1.2 0 00-1.2 1.2v2.7a1.1 1.1 0 001.2 1.1h44.6a1.2 1.2 0 001.2-1.1v-2.7a1.2 1.2 0 00-1.2-1.2h-5.9v-2.9h5.9a1.3 1.3 0 001.2-1.2v-2.1a1.2 1.2 0 00-1.2-1.2h-5.9v-2.9h5.9a1.3 1.3 0 001.2-1.2v-2.1a1.2 1.2 0 00-1.2-1.2h-5.9v-2.9h5.9a1.3 1.3 0 001.2-1.2V315a1.2 1.2 0 00-1.2-1.2h-5.9v-2.9h5.9a1.3 1.3 0 001.2-1.2V307a1.2 1.2 0 00-1.2-1.2zm66.4 5.1a1.3 1.3 0 001.2-1.2V307a1.2 1.2 0 00-1.2-1.2h-44.6a1.2 1.2 0 00-1.2 1.2v2.7a1.2 1.2 0 001.2 1.2h5.8v2.9h-5.8a1.2 1.2 0 00-1.2 1.2v2.1a1.2 1.2 0 001.2 1.2h5.8v2.9h-5.8a1.2 1.2 0 00-1.2 1.2v2.1a1.2 1.2 0 001.2 1.2h5.8v2.9h-5.8a1.2 1.2 0 00-1.2 1.2v2.1a1.2 1.2 0 001.2 1.2h5.8v2.9h-5.8a1.2 1.2 0 00-1.2 1.2v2.7a1.1 1.1 0 001.2 1.1h44.6a1.2 1.2 0 001.2-1.1v-2.7a1.2 1.2 0 00-1.2-1.2h-5.9v-2.9h5.9a1.3 1.3 0 001.2-1.2v-2.1a1.2 1.2 0 00-1.2-1.2h-5.9v-2.9h5.9a1.3 1.3 0 001.2-1.2v-2.1a1.2 1.2 0 00-1.2-1.2h-5.9v-2.9h5.9a1.3 1.3 0 001.2-1.2V315a1.2 1.2 0 00-1.2-1.2h-5.9v-2.9zm-13.5 24.3h-12.9l-4.7-4.7v-18.8h17.6zm-210.8 32.1l.8-.9a3.7 3.7 0 002.8 1.3c1.3 0 2.2-.7 2.2-1.7s-.8-1.4-1.8-1.8l-1.4-.6a2.9 2.9 0 01-2.1-2.7c0-1.5 1.3-2.7 3.2-2.7a4 4 0 013 1.3l-.6.8a3.5 3.5 0 00-2.4-1c-1.1 0-1.9.6-1.9 1.5s.9 1.4 1.7 1.8l1.5.6a2.9 2.9 0 012.1 2.7c0 1.7-1.4 2.9-3.5 2.9a4.6 4.6 0 01-3.6-1.5zm9.1-8.9h1.3v10.3h-1.3zm4.1 0h1.6l1.9 5.5.8 2.1a17.2 17.2 0 00.7-2.1l2-5.5h1.6v10.3h-1.3V363a28.3 28.3 0 01.2-3l-.9 2.3-1.9 5.3h-.9l-1.9-5.3-.8-2.3h-.1a28.3 28.3 0 01.2 3v5.7H454zm48.5 8.9l.8-.9a3.7 3.7 0 002.8 1.3c1.4 0 2.2-.7 2.2-1.7s-.8-1.4-1.7-1.8l-1.5-.6a2.8 2.8 0 011.1-5.4 4 4 0 013 1.3l-.6.8a3.5 3.5 0 00-2.4-1c-1.1 0-1.9.6-1.9 1.5s.9 1.4 1.7 1.8l1.5.6a2.8 2.8 0 012.1 2.7c0 1.7-1.4 2.9-3.5 2.9a4.6 4.6 0 01-3.6-1.5zm9.1-8.9h1.3v10.3h-1.3zm4.1 0h1.6l1.9 5.5.8 2.1a17.2 17.2 0 00.7-2.1l2-5.5h1.6v10.3H523V363a28.3 28.3 0 01.2-3l-.9 2.3-1.9 5.3h-.9l-1.9-5.3-.8-2.3h-.1a28.3 28.3 0 01.2 3v5.7h-1.2zm45.6 6.5c0-2.5 1.7-4 3.4-4s3.1 1.4 3.1 3.5c0 .3-.1.6-.1.8h-5.1a2.4 2.4 0 002.5 2.6 3.3 3.3 0 001.9-.6l.5.9a5 5 0 01-2.6.7 3.6 3.6 0 01-3.6-3.9zm5.3-.6c0-1.6-.7-2.4-1.9-2.4a2.3 2.3 0 00-2.1 2.4zm2.4 3l.8-.9a3.7 3.7 0 002.8 1.3c1.4 0 2.2-.7 2.2-1.7s-.8-1.4-1.7-1.8l-1.5-.6a2.8 2.8 0 011.1-5.4 4 4 0 013 1.3l-.6.8a3.5 3.5 0 00-2.4-1c-1.1 0-1.9.6-1.9 1.5s.9 1.4 1.7 1.8l1.5.6a2.8 2.8 0 012.1 2.7c0 1.7-1.4 2.9-3.5 2.9a4.6 4.6 0 01-3.6-1.5zm9.1-8.9h1.3v10.3h-1.3zm4.1 0h1.6l1.9 5.5.8 2.1a17.2 17.2 0 00.7-2.1l2-5.5h1.6v10.3h-1.3V363a28.3 28.3 0 01.2-3l-.9 2.3-1.9 5.3h-.9l-1.9-5.3-.8-2.3h-.1a28.3 28.3 0 01.2 3v5.7h-1.2zm45.5 6.5c0-2.5 1.7-4 3.4-4s3.1 1.4 3.1 3.5c0 .3-.1.6-.1.8H629a2.5 2.5 0 002.5 2.6 3.3 3.3 0 001.9-.6l.5.9a5 5 0 01-2.6.7 3.6 3.6 0 01-3.6-3.9zm5.3-.6c0-1.6-.7-2.4-1.9-2.4a2.3 2.3 0 00-2.1 2.4zm2.4 3l.8-.9a3.9 3.9 0 002.8 1.3c1.4 0 2.2-.7 2.2-1.7s-.8-1.4-1.7-1.8l-1.5-.6a2.8 2.8 0 011.1-5.4 4.4 4.4 0 013.1 1.3l-.7.8a3.5 3.5 0 00-2.4-1c-1.1 0-1.9.6-1.9 1.5s.9 1.4 1.7 1.8l1.5.6a2.8 2.8 0 012.1 2.7c0 1.7-1.4 2.9-3.5 2.9a4.6 4.6 0 01-3.6-1.5zm9.1-8.9h1.3v10.3h-1.3zm4.1 0h1.6l1.9 5.5.8 2.1a17.2 17.2 0 00.7-2.1l2-5.5h1.6v10.3H656V363c0-.9.1-2.2.1-3l-.8 2.3-2 5.3h-.9l-1.9-5.3-.8-2.3h-.1a28.3 28.3 0 01.2 3v5.7h-1.2z"/><rect class="cls-1" x="20.4" y="38.4" width="68.7" height="68.72" rx="12"/><path class="cls-2" d="M82.1 66.9l-10.4-.4.4-1.5a2.9 2.9 0 00-2.1-3.5l-35.1-9.4h-.8a2.9 2.9 0 00-2.7 2.1l-3.8 14.1a2.8 2.8 0 002 3.5L40 74.6a7.4 7.4 0 005.4 8.5v11.8h1.9V83.3a7.5 7.5 0 007-4.8l10.5 2.8h.7a3 3 0 002.8-2.2l.5-1.8 9.2 4.9zM66.4 78.7a1 1 0 01-.9.7h-.2L30.1 70a1 1 0 01-.6-.5c-.1-.1-.2-.3-.1-.7l3.8-14.2a1 1 0 01.9-.7h.3l35.2 9.4a.9.9 0 01.6 1.1zm2.9-3.2l1.9-7.1 8.4.3-2.9 10.7z"/><rect class="cls-1" x="20.4" y="121.6" width="68.7" height="68.72" rx="12"/><path class="cls-2" d="M73.8 133.5H35.7a3.4 3.4 0 00-3.4 3.4v38.9a2.6 2.6 0 002.6 2.6h39.7a2.6 2.6 0 002.6-2.6v-38.9a3.4 3.4 0 00-3.4-3.4zm1.8 41.6a1.8 1.8 0 01-1.8 1.7h-7.4a13.1 13.1 0 00-6.7-6.4 4.8 4.8 0 00-1.4-4.5L54.8 151l-3.5 14.9h-.1a5.1 5.1 0 00-1.4 4.5 13.9 13.9 0 00-6.7 6.4h-7.4a1.8 1.8 0 01-1.8-1.7v-25.6a26 26 0 014.5-3.7l3.3 5.8.4.2h.3a.5.5 0 00.2-.6l-3.4-5.9 3.8-2 2.9-1.1 1.1 4.1a.7.7 0 00.5.4h.1a.6.6 0 00.4-.7l-1.1-4.1a30.1 30.1 0 017.4-1.1v7.2a.5.5 0 00.5.5.5.5 0 00.5-.5v-7.2a30.8 30.8 0 017.4 1.1l-1.2 4.1a.7.7 0 00.4.7h.1a.7.7 0 00.5-.4l1.1-4.1 3 1.1c1.3.6 2.5 1.3 3.7 2l-3.3 5.8a.4.4 0 00.1.6h.3l.4-.2 3.4-5.8a22.2 22.2 0 014.4 3.7zM52.3 167a3.3 3.3 0 012.5-1 3.4 3.4 0 013.4 3.4 3.3 3.3 0 01-1 2.5 3.5 3.5 0 01-2.4 1 3.7 3.7 0 01-2.5-1 3.6 3.6 0 010-4.9zm23.3-19.7a30.6 30.6 0 00-41.7 0v-10.4a1.8 1.8 0 011.8-1.8h38.1a1.8 1.8 0 011.8 1.8z"/><rect class="cls-1" x="20.4" y="288.1" width="68.7" height="68.72" rx="12"/><path class="cls-2" d="M57.8 306.6v25.5H39v-25.5h18.8m1-.9H38v27.4h20.8v-27.4zm6.1 19v1.7h-2v5h2v1.7h6.4v-8.4h-6.4zm0-10.2v1.7h-2v5h2v1.7h6.4v-8.4h-6.4z"/><path class="cls-2" d="M73.8 300.1H35.7a3.3 3.3 0 00-3.3 3.3v41.4h44.8v-41.4a3.4 3.4 0 00-3.4-3.3zM36.4 343a2.2 2.2 0 112.2-2.2 2.2 2.2 0 01-2.2 2.2zm9.2 0a2.2 2.2 0 110-4.4 2.2 2.2 0 110 4.4zm9.2 0a2.2 2.2 0 110-4.4 2.2 2.2 0 110 4.4zm9.1 0a2.2 2.2 0 010-4.4 2.2 2.2 0 110 4.4zm9.2 0a2.2 2.2 0 110-4.4 2.2 2.2 0 110 4.4zm2.5-6.2h-6.5v6.5H68v-6.5h-8.1v6.5h-1.1v-6.5h-8.1v6.5h-1.1v-6.5h-8v6.5h-1.2v-6.5H34v-33.4a1.8 1.8 0 011.7-1.8h38.1a1.8 1.8 0 011.8 1.8z"/><circle class="cls-1" cx="409.8" cy="114" r="3"/><path class="cls-1" d="M408.8 120.6a1.1 1.1 0 011-1 1 1 0 011 1V149a1 1 0 01-1 1 1.1 1.1 0 01-1-1m8.8-21a1 1 0 01-.8-.5 1 1 0 01.3-1.4 14.1 14.1 0 000-24.4 1 1 0 01-.3-1.4.9.9 0 011.3-.3 16.3 16.3 0 018 13.9 16.5 16.5 0 01-8 14zm-15.6 0h-.5a16.4 16.4 0 01-7.9-14 16.2 16.2 0 017.9-13.9 1 1 0 011.4.3 1.1 1.1 0 01-.3 1.4 14.1 14.1 0 000 24.4 1.1 1.1 0 01.3 1.4 1.1 1.1 0 01-.9.4z"/><path class="cls-1" d="M421.5 134.5a.9.9 0 01-.8-.4 1 1 0 01.3-1.4 21.9 21.9 0 0010.7-18.8A22.2 22.2 0 00421 95.1a.9.9 0 01-.3-1.3.9.9 0 011.3-.4 23.8 23.8 0 010 41zm-23.4 0h-.5a23.9 23.9 0 010-41 1 1 0 011.4.4 1 1 0 01-.3 1.3 22.2 22.2 0 00-10.7 18.7 21.9 21.9 0 0010.7 18.8 1.1 1.1 0 01.3 1.4 1 1 0 01-.9.4z"/><path d="M418.9 316.7h-54.6v-51.1" stroke-width="3" stroke-linejoin="round" fill="none" stroke="#10069f" stroke-linecap="round"/><path class="cls-1" d="M371.3 267.7l-7-12.2-7.1 12.2h14.1zM97.5 52.6h6v1.1h-4.7v3.2h3.9v1.2h-3.9v3.7h4.8v1.1h-6.1zm8.4 7.9v-4.2h-1.1v-.9h1.1l.2-2.1h1.1v2.1h2v1h-2v4.3c0 .9.3 1.4 1.1 1.4h.9l.3.9-1.4.3c-1.7-.2-2.2-1.2-2.2-2.8zm5-8.7h1.3v4.6a3.6 3.6 0 012.5-1.3c1.6 0 2.3 1 2.3 3v4.8h-1.3v-4.6c0-1.5-.4-2.1-1.4-2.1s-1.3.4-2.1 1.2v5.5h-1.3zm8 7.3c0-2.5 1.6-4 3.4-4s3 1.4 3 3.6v.7h-5.2a2.6 2.6 0 002.6 2.7 4.2 4.2 0 001.9-.6l.4.8a4.6 4.6 0 01-2.5.8c-2 0-3.6-1.5-3.6-4zm5.3-.6c0-1.6-.7-2.4-1.9-2.4s-2 .9-2.2 2.4zm3-3.2h1l.2 1.4a2.5 2.5 0 012.2-1.6 1.2 1.2 0 01.8.2l-.3 1.1h-.7c-.6 0-1.4.4-1.9 1.7V63h-1.3zm5.4 0h1.1v1.1a3.8 3.8 0 012.6-1.3c1.6 0 2.3 1 2.3 3v4.8h-1.3v-4.6c0-1.5-.4-2.1-1.4-2.1s-1.3.4-2.1 1.2v5.5h-1.3zm8 3.8c0-2.5 1.7-4 3.4-4s3.1 1.4 3.1 3.6c0 .3-.1.5-.1.7h-5.1a2.6 2.6 0 002.5 2.7 4.2 4.2 0 001.9-.6l.5.8a5 5 0 01-2.6.8c-2 0-3.6-1.5-3.6-4zm5.3-.6c0-1.6-.7-2.4-1.8-2.4a2.3 2.3 0 00-2.2 2.4zm3.3 2v-4.2H148v-.9h1.2l.2-2.1h1v2.1h2.1v1h-2.1v4.3c0 .9.3 1.4 1.2 1.4h.9l.2.9a5.8 5.8 0 01-1.4.3c-1.6-.2-2.1-1.2-2.1-2.8zm5-2a13.2 13.2 0 012.1-7.1l.8.4a13.6 13.6 0 000 13.5l-.8.4a13.2 13.2 0 01-2.1-7.2zm4.9-5.9h2.9c2.3 0 3.8.8 3.8 3s-1.5 3.2-3.7 3.2h-1.7v4.1h-1.3zm2.8 5.2c1.8 0 2.6-.7 2.6-2.2s-.9-1.9-2.7-1.9h-1.4v4.1zm5.3 1.3a3.6 3.6 0 117.1 0 3.6 3.6 0 11-7.1 0zm5.8 0c0-1.7-.9-2.9-2.2-2.9s-2.2 1.2-2.2 2.9.8 2.9 2.2 2.9 2.2-1.1 2.2-2.9zm3.4-6.5h5.9v1.1h-4.6v3.2h3.9v1.2h-3.9v3.7h4.8v1.1h-6.1zm7.4 12.7a13.6 13.6 0 000-13.5l.8-.4a13.2 13.2 0 010 14.3zm-87.6 61.3c0-3.4 1.9-5.4 4.5-5.4a3.6 3.6 0 012.8 1.3l-.7.8a2.9 2.9 0 00-2.1-.9c-1.9 0-3.2 1.6-3.2 4.1s1.2 4.2 3.2 4.2a3.2 3.2 0 002.4-1.1l.7.8a4.1 4.1 0 01-3.2 1.5c-2.5 0-4.4-2-4.4-5.3zm8.8 1.3a3.6 3.6 0 113.5 4 3.7 3.7 0 01-3.5-4zm5.7 0c0-1.8-.9-3-2.2-3s-2.2 1.2-2.2 3 .9 2.9 2.2 2.9 2.2-1.2 2.2-2.9zm3.3-3.8h1.1v1.1h.1a3.6 3.6 0 012.5-1.3c1.6 0 2.3 1 2.3 3v4.8h-1.2V127c0-1.4-.5-2-1.5-2s-1.3.4-2.1 1.2v5.5H114zm8.8 5.2v-4.2h-1.1v-1h1.2v-2.2h1.1v2.2h2.1v1H124v4.3c0 .9.3 1.4 1.2 1.4l.8-.2.3 1a5.8 5.8 0 01-1.4.3c-1.5 0-2.1-1-2.1-2.6zm4.6.4c0-1.6 1.4-2.5 4.7-2.8 0-1-.3-2-1.6-2a4.3 4.3 0 00-2.3.9l-.5-.9a5.4 5.4 0 013-1c1.9 0 2.7 1.2 2.7 3.1v4.7h-1.1v-.9a4.3 4.3 0 01-2.6 1.1 2.1 2.1 0 01-2.3-2.2zm4.7.1v-2.1c-2.6.3-3.4.9-3.4 1.9s.5 1.2 1.3 1.2a3.1 3.1 0 002.1-1zm3.1-1.9a3.7 3.7 0 013.7-4 3 3 0 012.2.9l-.7.8a2.1 2.1 0 00-1.5-.7c-1.4 0-2.4 1.2-2.4 3s1 2.9 2.4 2.9a2.5 2.5 0 001.8-.8l.5.9a3.5 3.5 0 01-2.4 1c-2 0-3.6-1.5-3.6-4zm7.9 1.4v-4.2H142v-1h1.2v-2.2h1.1v2.2h2.1v1h-2.1v4.3c0 .9.3 1.4 1.2 1.4l.8-.2.3 1a5.8 5.8 0 01-1.4.3c-1.5 0-2.1-1-2.1-2.6zm7.4 1.5l.6-.8a3.6 3.6 0 002.2.9c1.1 0 1.5-.6 1.5-1.2s-.8-1.1-1.7-1.5-2.3-.9-2.3-2.2 1-2.1 2.7-2.1a4.2 4.2 0 012.3.8l-.6.9a2.8 2.8 0 00-1.7-.7c-1 0-1.4.5-1.4 1.1s.8 1 1.7 1.3 2.3.9 2.3 2.3-1 2.3-2.8 2.3a4.4 4.4 0 01-2.8-1.1zm7.1-9.1a.9.9 0 11.9.8.8.8 0 01-.9-.8zm.3 2.4h1.2v7.6h-1.2zm3.2 9a2.4 2.4 0 011.2-1.7 1.6 1.6 0 01-.7-1.3 1.8 1.8 0 01.8-1.4 2.6 2.6 0 01-1-2 2.7 2.7 0 012.9-2.7l1 .2h2.7v1h-1.6a2 2 0 01.7 1.5 2.7 2.7 0 01-2.8 2.7l-1.2-.3a1.3 1.3 0 00-.4.9c0 .5.3.8 1.3.8h1.5c1.7 0 2.6.6 2.6 1.9s-1.5 2.6-3.8 2.6-3.2-.8-3.2-2.2zm5.8-.4c0-.7-.6-.9-1.6-.9H163a1.6 1.6 0 00-.7 1.3c0 .8.8 1.3 2.2 1.3s2.4-.9 2.4-1.7zm-1-6.1a1.6 1.6 0 10-1.6 1.8 1.6 1.6 0 001.6-1.8zm3.7-2.5h1.1v1.1a3.6 3.6 0 012.6-1.3c1.6 0 2.3 1 2.3 3v4.8h-1.3V127c0-1.4-.4-2-1.4-2a2.7 2.7 0 00-2.1 1.2v5.5h-1.3zm8.1 5.6c0-1.6 1.4-2.5 4.7-2.8 0-1-.4-2-1.6-2a4.3 4.3 0 00-2.3.9l-.5-.9a5.4 5.4 0 013-1c1.8 0 2.6 1.2 2.6 3.1v4.7h-1v-.9h-.1a4.1 4.1 0 01-2.5 1.1 2 2 0 01-2.3-2.2zm4.7.1v-2.1c-2.6.3-3.5.9-3.5 1.9s.6 1.2 1.4 1.2a3.1 3.1 0 002.1-1zm3.7.4v-9.7h1.2v9.8a.5.5 0 00.4.5h.3v1h-.7c-.9.1-1.2-.6-1.2-1.6zm-59.5 13.1a13.1 13.1 0 012-7.1l.8.4a12.9 12.9 0 00-1.8 6.7 13.3 13.3 0 001.8 6.8l-.8.3a12.8 12.8 0 01-2-7.1zm4.8-5.9h2.6c3.1 0 4.8 1.9 4.8 5.1s-1.7 5.2-4.8 5.2h-2.6zm2.5 9.2c2.4 0 3.6-1.5 3.6-4.1s-1.2-4-3.6-4h-1.2v8.1zm7.1-9.2h1.3v10.3H141zm3.5 5.1c0-3.3 1.8-5.3 4.4-5.3s4.4 2 4.4 5.3-1.8 5.4-4.4 5.4-4.4-2.1-4.4-5.4zm7.5 0c0-2.6-1.3-4.1-3.1-4.1s-3 1.5-3 4.1 1.2 4.2 3 4.2 3.1-1.6 3.1-4.2zm2.7 7.6a13.3 13.3 0 001.8-6.8 12.9 12.9 0 00-1.8-6.7l.8-.4a13.2 13.2 0 012.1 7.1 12.9 12.9 0 01-2.1 7.1zm-28.3 81.7l-2.5-4.3H122v4.3h-1.3v-10.3h3.3c2.1 0 3.5.8 3.5 2.9a2.8 2.8 0 01-2.3 2.9l2.7 4.5zm-4.4-5.4h1.8c1.6 0 2.5-.6 2.5-2s-.9-1.8-2.5-1.8H122zm6.9 4.1l.8-.9a3.7 3.7 0 002.8 1.3c1.3 0 2.2-.7 2.2-1.7s-.8-1.4-1.7-1.8l-1.5-.7a2.8 2.8 0 01-2.1-2.6 3 3 0 013.2-2.8 4.4 4.4 0 013 1.3l-.6.8a3.9 3.9 0 00-2.4-.9c-1.1 0-1.9.6-1.9 1.5s.9 1.4 1.7 1.7l1.5.6c1.2.6 2.1 1.3 2.1 2.8s-1.4 2.9-3.5 2.9a5 5 0 01-3.6-1.5zm8.3-3.1h3.6v1h-3.6zm4.9 3.7c3.2-2.9 4.7-4.9 4.7-6.7a1.8 1.8 0 00-1.9-2 2.6 2.6 0 00-2.1 1.2l-.8-.7a3.7 3.7 0 013-1.6 2.9 2.9 0 013 3.1c0 2-1.6 4.1-4 6.4h4.5v1.1h-6.4zm7.5-.5l.7-.8a3.4 3.4 0 002.5 1.1 1.9 1.9 0 002.1-1.9c0-1.2-.8-2-3.2-2v-1c2.1 0 2.9-.9 2.9-2a1.6 1.6 0 00-1.8-1.6 3 3 0 00-2.1 1l-.7-.8a4.3 4.3 0 012.9-1.3c1.7 0 3 1 3 2.6a2.6 2.6 0 01-1.9 2.5 2.6 2.6 0 012.2 2.6 3 3 0 01-3.3 2.9 4.4 4.4 0 01-3.3-1.3zm8 .5c3.2-2.9 4.7-4.9 4.7-6.7a1.8 1.8 0 00-1.9-2 2.9 2.9 0 00-2.1 1.2l-.8-.7a4 4 0 013.1-1.6 2.9 2.9 0 013 3.1c0 2-1.7 4.1-4.1 6.4h4.6v1.1h-6.5zm-28 80.2v-6.1h1.3v6.1c0 2.5 1 3.2 2.4 3.2s2.4-.7 2.4-3.2v-6.1h1.3v6.1c0 3.3-1.6 4.4-3.7 4.4s-3.7-1.1-3.7-4.4zm9.4 2.9l.7-.9a4.5 4.5 0 002.9 1.2c1.3 0 2.1-.6 2.1-1.6s-.7-1.4-1.7-1.9l-1.4-.6a2.8 2.8 0 01-2.1-2.6 2.9 2.9 0 013.2-2.8 4.4 4.4 0 013 1.3l-.7.8a3.4 3.4 0 00-2.3-.9c-1.2 0-1.9.6-1.9 1.5s.9 1.4 1.7 1.7l1.4.6c1.2.5 2.2 1.2 2.2 2.8s-1.4 2.9-3.5 2.9a5 5 0 01-3.6-1.5zm9.1-9h3c2.1 0 3.6.7 3.6 2.5a2.3 2.3 0 01-1.6 2.3 2.4 2.4 0 012.1 2.5c0 2-1.5 3-3.8 3h-3.3zm2.8 4.4c1.8 0 2.5-.7 2.5-1.7s-.8-1.6-2.4-1.6h-1.6v3.3zm.3 4.9c1.7 0 2.8-.7 2.8-2.1s-1-1.8-2.8-1.8h-1.8v3.9z"/><path class="cls-4" d="M89.3 153.9h105v43.2h46.9"/><rect class="cls-1" x="20.4" y="204.9" width="68.7" height="68.72" rx="12"/><path class="cls-2" d="M63.7 257.3h-1.1v-.6a7.8 7.8 0 00-15.6 0v.6h-1.1v-.6a8.9 8.9 0 0117.8 0zm-7.8-21.7l-11.7-7 7 11.7a5.1 5.1 0 00.9 1.6 4.1 4.1 0 002.7 1.1 3.8 3.8 0 001.1-7.4z"/><path class="cls-2" d="M55.8 257.8a2.1 2.1 0 00.4-.6l2.9-4.8-4.8 2.9-.6.3a1.6 1.6 0 00-.5 1.1 1.5 1.5 0 001.6 1.5 1.2 1.2 0 001-.4z"/><path class="cls-2" d="M54.8 214.2a25 25 0 1025 25 25 25 0 00-25-25zm16.8 41l-4.7-4.6a.5.5 0 00-.7 0 .6.6 0 000 .8l4.6 4.6a23.1 23.1 0 01-16 6.5 23.4 23.4 0 01-16.1-6.5l4.7-4.6a.6.6 0 00-.8-.8l-4.7 4.6a23.4 23.4 0 01-6.4-15.4h6.6a.6.6 0 00.5-.6.5.5 0 00-.5-.5h-6.6a23.7 23.7 0 016.4-15.5l4.7 4.6.4.2.4-.2a.6.6 0 000-.8l-4.7-4.6a22.9 22.9 0 0115.5-6.4v6.5a.6.6 0 00.6.6.6.6 0 00.5-.6V216a22.7 22.7 0 0115.5 6.4l-4.6 4.6a.6.6 0 000 .8l.4.2.3-.2 4.7-4.6a23.2 23.2 0 016.4 15.5h-6.6a.5.5 0 00-.5.5.6.6 0 00.5.6H78a22.9 22.9 0 01-6.4 15.4z"/><path class="cls-5" d="M658 174.2v-29.1"/><path class="cls-1" d="M665.5 144.7l-7.5-13-7.4 13h14.9z"/><path class="cls-4" d="M450.4 127.6c7.8 3.8-.1 20.1 7.7 23.9s15.8-12.5 23.6-8.7-.1 20.1 7.7 23.9m-248.2 17.8H206V70.6H87.9m1.4 168.6h105v-31.7h46.9"/><path class="cls-4" d="M241.2 219.1H206v104H87.9"/><path class="cls-6" d="M666.4 197.1a18.3 18.3 0 000-32.5m-3 5.8a11.8 11.8 0 016.5 10.5 12 12 0 01-6.5 10.5m-10.8-.1a11.8 11.8 0 010-20.9m-3-5.7a18.2 18.2 0 000 32.3m.4 25.4l8.2-35.6 8.3 35.6M653.7 209h9.6m-11.1 6.3h12.4"/><path class="cls-5" d="M613 174.2v-29.1"/><path class="cls-1" d="M620.5 144.7l-7.5-13-7.5 13h15z"/><path class="cls-6" d="M621.3 197.1a18.2 18.2 0 000-32.5m-2.9 5.8a11.7 11.7 0 016.4 10.5 11.9 11.9 0 01-6.4 10.5m-10.9-.1a11.8 11.8 0 010-20.9m-3-5.7a18.2 18.2 0 000 32.3m.4 25.4l8.2-35.6 8.3 35.6M608.6 209h9.6m-11.1 6.3h12.4"/><path class="cls-5" d="M567.9 174.2v-29.1"/><path class="cls-1" d="M575.4 144.7l-7.5-13-7.5 13h15z"/><path class="cls-6" d="M576.2 197.1a18.2 18.2 0 000-32.5m-2.9 5.8a11.7 11.7 0 016.4 10.5 11.9 11.9 0 01-6.4 10.5m-10.8-.1a11.7 11.7 0 010-20.9m-3.1-5.7a18.3 18.3 0 000 32.3m.4 25.4l8.3-35.6 8.2 35.6M563.5 209h9.6m-11 6.3h12.3"/><path class="cls-5" d="M522.8 174.2v-29.1"/><path class="cls-1" d="M530.3 144.7l-7.5-13-7.4 13h14.9z"/><path class="cls-6" d="M531.2 197.1a18.3 18.3 0 000-32.5m-3 5.8a11.8 11.8 0 016.5 10.5 12 12 0 01-6.5 10.5m-10.8-.1a11.8 11.8 0 010-20.9m-3-5.7a18.2 18.2 0 000 32.3m.4 25.4l8.2-35.6 8.3 35.6M518.5 209h9.5m-11 6.3h12.4"/></g></g></svg>