<?xml version="1.0" encoding="utf-8"?>
<!-- Generator: Adobe Illustrator 22.1.0, SVG Export Plug-In . SVG Version: 6.00 Build 0)  -->
<svg version="1.1" id="レイヤー_1" xmlns="http://www.w3.org/2000/svg" xmlns:xlink="http://www.w3.org/1999/xlink" x="0px"
	 y="0px" width="1200px" height="300px" viewBox="0 0 1200 300" style="enable-background:new 0 0 1200 300;" xml:space="preserve">
<style type="text/css">
	.st0{clip-path:url(#SVGID_2_);fill:#10069E;}
</style>
<g>
	<defs>
		
			<rect id="SVGID_1_" x="0" y="-65.002" transform="matrix(-1 -1.224647e-16 1.224647e-16 -1 1238 234.9975)" width="1238" height="365.002"/>
	</defs>
	<clipPath id="SVGID_2_">
		<use xlink:href="#SVGID_1_"  style="overflow:visible;"/>
	</clipPath>
	<path class="st0" d="M799.478-1304.702c131.06,63.289,244.683,164.521,321.937,297.428c47.709,82.08,78.307,168.887,93.207,256.574
		c18.304,107.869,69.297,205.651,142.844,285.95c60.181,65.685,102.148,150.506,115.354,248.772
		c26.953,200.354-71.874,393.03-264.363,474.685c-130.446,55.336-261.992,52.482-382.864-5.577
		c-19.129-9.188-36.789-17.395-54.403-29.198c-17.668-11.833-36.056-22.299-55-31.45c-75.301-36.358-157.252-34.004-241.735-33.43
		c-115.625,0.767-236.806-23.397-339.851-73.182C-12.625,14.783-146.172-117.672-219.705-278.611
		c-176.403-386.085-7.553-872.083,400.202-1043.634C384.935-1408.261,610.351-1396.049,799.478-1304.702"/>
</g>
</svg>
