<?xml version="1.0" encoding="utf-8"?>
<!-- Generator: Adobe Illustrator 23.0.4, SVG Export Plug-In . SVG Version: 6.00 Build 0)  -->
<svg version="1.1" id="レイヤー_1" xmlns="http://www.w3.org/2000/svg" xmlns:xlink="http://www.w3.org/1999/xlink" x="0px"
	 y="0px" viewBox="0 0 77.1 138.5" style="enable-background:new 0 0 77.1 138.5;" xml:space="preserve">
<style type="text/css">
	.st0{fill:#F1F0F8;}
	.st1{fill:#FFFFFF;}
	.st2{fill:#1A2C77;}
</style>
<g>
	<rect x="4.7" y="15.3" class="st0" width="67.7" height="104.8"/>
	<rect x="19.6" y="47.8" class="st1" width="37.8" height="37.8"/>
	<path class="st0" d="M72.4,124.3v4.4c0,2.8-2.3,5.1-5.1,5.1H9.8c-2.8,0-5.1-2.3-5.1-5.1v-4.4H72.4z"/>
	<rect x="4.7" y="15.3" class="st2" width="67.7" height="0.3"/>
	<path class="st0" d="M72.4,9.8v2H4.7v-2c0-2.8,2.3-5.1,5.1-5.1h57.6C70.2,4.7,72.4,6.9,72.4,9.8z"/>
	<path class="st2" d="M61.2,78.1v7.6c0,2.1-1.7,3.8-3.8,3.8h-7.6v-3.8h7.6v-7.6H61.2z"/>
	<path class="st2" d="M61.2,47.8v7.6h-3.8v-7.6h-7.6V44h7.6C59.5,44,61.2,45.7,61.2,47.8z"/>
	<rect x="49.9" y="72.4" class="st2" width="3.8" height="5.7"/>
	<rect x="49.9" y="64.8" class="st2" width="3.8" height="3.8"/>
	<path class="st2" d="M53.7,51.6v11.3H42.3V51.6H53.7z M49.9,59.2v-3.8h-3.8v3.8H49.9z"/>
	<rect x="46.1" y="78.1" class="st2" width="3.8" height="3.8"/>
	<rect x="46.1" y="68.6" class="st2" width="3.8" height="3.8"/>
	<rect x="46.1" y="55.4" class="st1" width="3.8" height="3.8"/>
	<polygon class="st2" points="46.1,72.4 46.1,78.1 40.4,78.1 40.4,81.8 36.7,81.8 36.7,74.3 42.3,74.3 42.3,72.4 	"/>
	<rect x="42.3" y="64.8" class="st2" width="3.8" height="3.8"/>
	<polygon class="st2" points="40.4,64.8 40.4,72.4 36.7,72.4 36.7,68.6 32.9,68.6 32.9,64.8 	"/>
	<rect x="36.7" y="55.4" class="st2" width="3.8" height="7.6"/>
	<path class="st2" d="M34.8,70.5v11.3H23.4V70.5H34.8z M31,78.1v-3.8h-3.8v3.8H31z"/>
	<path class="st2" d="M34.8,51.6v11.3H23.4V51.6H34.8z M31,59.2v-3.8h-3.8v3.8H31z"/>
	<rect x="27.2" y="74.3" class="st1" width="3.8" height="3.8"/>
	<rect x="27.2" y="55.4" class="st1" width="3.8" height="3.8"/>
	<path class="st2" d="M27.2,85.6v3.8h-7.6c-2.1,0-3.8-1.7-3.8-3.8v-7.6h3.8v7.6H27.2z"/>
	<rect x="23.4" y="64.8" class="st2" width="3.8" height="3.8"/>
	<path class="st2" d="M27.2,44v3.8h-7.6v7.6h-3.8v-7.6c0-2.1,1.7-3.8,3.8-3.8H27.2z"/>
	<path class="st2" d="M67.3,0H9.8C4.4,0,0,4.4,0,9.8v118.9c0,5.4,4.4,9.8,9.8,9.8h57.6c5.4,0,9.8-4.4,9.8-9.8V9.8
		C77.1,4.4,72.7,0,67.3,0z M72.4,128.7c0,2.8-2.3,5.1-5.1,5.1H9.8c-2.8,0-5.1-2.3-5.1-5.1v-4.4h67.7V128.7z M72.4,120.4H4.7v-105
		h67.7V120.4z M72.4,11.7H4.7v-2c0-2.8,2.3-5.1,5.1-5.1h57.6c2.8,0,5.1,2.3,5.1,5.1V11.7z"/>
</g>
</svg>
