<?xml version="1.0" encoding="utf-8"?>
<!-- Generator: Adobe Illustrator 23.0.4, SVG Export Plug-In . SVG Version: 6.00 Build 0)  -->
<svg version="1.1" id="レイヤー_1" xmlns="http://www.w3.org/2000/svg" xmlns:xlink="http://www.w3.org/1999/xlink" x="0px"
	 y="0px" viewBox="0 0 147.2 84.6" style="enable-background:new 0 0 147.2 84.6;" xml:space="preserve">
<style type="text/css">
	.st0{fill:#FFFFFF;}
	.st1{fill:#F1F0F8;stroke:#172788;stroke-width:4;stroke-miterlimit:10;}
	.st2{fill:#172788;}
	.st3{fill:#F1F0F8;}
	.st4{fill:none;stroke:#172788;stroke-width:2.5;stroke-linecap:round;stroke-miterlimit:10;}
</style>
<path class="st0" d="M141.4,8.6c0,2-1.6,3.6-3.6,3.6c-2,0-3.6-1.6-3.6-3.6s1.6-3.6,3.6-3.6C139.8,4.9,141.4,6.6,141.4,8.6z"/>
<path class="st1" d="M139.6,82.9H7.7c-3.1,0-5.7-2.5-5.7-5.7V8c0-3.1,2.5-5.7,5.7-5.7h131.9c3.1,0,5.7,2.5,5.7,5.7v69.2
	C145.2,80.3,142.7,82.9,139.6,82.9z"/>
<g>
	<g id="XMLID_27_">
		<g>
			<path class="st2" d="M40.5,59.1C40.5,59.2,40.5,59.2,40.5,59.1c0,0.1,0,0.1,0,0.1c-0.1,0.5-0.2,1.1-0.3,1.6c-1,5.9-5.4,9-12.9,9
				c-0.1,0-0.2,0-0.4,0c-3.6,0-6.3-0.7-8.3-2.1c-2.6-1.8-3.3-5.3-3.8-8.2l-0.1-0.7c0,0,0-0.1,0-0.1c0,0,0-0.1,0-0.1v0
				c0.1-4.9,0.5-10.1,1.4-15.9l0-0.2c0.3-2,0.6-4.4,2-6.2c0.9-1.2,2.8-2,3-2c1.7-0.7,3.8-1.1,6.1-1.1c2,0,3.8,0.3,5.4,0.8
				c1.6,0.5,3.2,1.2,4.4,2.3c1.6,1.7,1.9,4,2.2,6.1c0,0.3,0.1,0.6,0.1,0.8c0.7,4.2,1.1,8.8,1.2,14.3c0,0,0,0,0,0.1
				c0,0.1,0,0.1,0,0.2C40.5,58.2,40.5,58.7,40.5,59.1z M38.5,58c0-0.1,0-0.1,0-0.2c-0.1-5.5-0.5-10-1.2-14.3c0-0.3-0.1-0.6-0.1-0.9
				c-0.2-1.4-0.4-2.7-0.9-3.9c-1,2.2-5.2,3.4-9.1,3.4c-4,0-7.2-1.1-8.5-2.8c-0.3,1-0.5,2.2-0.6,3.3l0,0.2
				c-0.8,5.6-1.2,10.6-1.3,15.4c0.3,0.5,0.8,0.9,1.5,1.4c0.8,0.5,1.8,0.9,2.7,1.2l0-0.6c0-0.5,0-0.9,0.1-1.4c0-0.4,0-0.8,0.1-1.1
				v-0.1c0-0.3,0-1,0.5-1.4c0.5-0.5,1.2-0.4,1.5-0.3l0.5,0.1c0.2,0,0.4,0.1,0.6,0.1c0.3,0,0.6,0.1,0.9,0.1l0.7,0.1
				c0.2,0,0.5,0,0.7,0.1c1.1,0.4,1.2,1.5,1.2,1.9v0.1c0,0.7,0,1.3,0,2l0,0.3c0,0.3,0,0.7,0,1c2,0,3.9-0.1,5.9-0.7
				c1.1-0.3,2.5-0.8,3.5-1.6c0.5-0.3,0.8-0.7,1.1-1.1C38.3,58.3,38.4,58.2,38.5,58z M34.5,37.7c0-0.4-0.6-1-1.9-1.6c0,0,0,0,0,0
				c-0.2-0.1-0.4-0.1-0.6-0.2c-1.4-0.5-3-0.7-4.7-0.7c-2,0-3.9,0.3-5.4,0.9c0,0,0,0,0,0c-1.1,0.5-1.8,1.1-1.8,1.6
				c0,1,2.8,2.5,7.2,2.5C31.6,40.3,34.5,38.7,34.5,37.7z M25.7,62.7c0-0.1,0-0.2,0-0.2c0-0.5,0-1,0-1.6l0-0.3c0-0.7,0-1.4,0-2v-0.1
				c0,0,0-0.1,0-0.1l-0.1,0l-0.7-0.1c-0.3,0-0.7-0.1-1-0.1c-0.2,0-0.4-0.1-0.6-0.1l-0.2,0c0,0.3,0,0.6,0,0.8c0,0.6,0,1-0.1,1.5
				l-0.1,1.8c0,0,0,0.1,0,0.1C23.7,62.6,24.7,62.7,25.7,62.7z"/>
			<path class="st0" d="M38.5,57.8c0,0.1,0,0.1,0,0.2c0,0.2-0.1,0.3-0.2,0.5c-0.3,0.4-0.6,0.8-1.1,1.1c-1,0.7-2.5,1.2-3.5,1.6
				c-2.1,0.6-3.9,0.7-5.9,0.7c0-0.3,0-0.7,0-1l0-0.3c0-0.7,0-1.4,0-2v-0.1c0-0.5,0-1.5-1.2-1.9c-0.2-0.1-0.5-0.1-0.7-0.1L25,56.4
				c-0.3,0-0.6-0.1-0.9-0.1c-0.2,0-0.4-0.1-0.6-0.1L23,56.1c-0.3-0.1-1-0.2-1.5,0.3C21,56.9,21,57.5,21,57.8v0.1
				c0,0.3,0,0.7-0.1,1.1c0,0.5,0,0.9-0.1,1.4l0,0.6c-1-0.3-1.9-0.6-2.7-1.2c-0.7-0.5-1.2-0.9-1.5-1.4c0.1-4.8,0.5-9.8,1.3-15.4
				l0-0.2c0.2-1.1,0.3-2.3,0.6-3.3c1.4,1.7,4.6,2.8,8.5,2.8c3.9,0,8-1.2,9.1-3.4c0.5,1.1,0.7,2.5,0.9,3.9c0,0.3,0.1,0.6,0.1,0.9
				C38,47.8,38.3,52.3,38.5,57.8z M26.2,53.7l0-2.1l-0.9-0.1l-1-0.1l-0.9-0.1l-0.9-0.2l-0.1,2.1l1,0.2l1,0.2l1,0.1L26.2,53.7z"/>
			<path class="st0" d="M32.5,36.1c1.3,0.6,1.9,1.2,1.9,1.6c0,1-2.9,2.6-7.3,2.6c-4.4,0-7.2-1.5-7.2-2.5c0-0.5,0.7-1.1,1.8-1.6
				c0,0,0,0,0,0c1.4-0.6,3.3-0.9,5.4-0.9c1.8,0,3.4,0.2,4.7,0.7C32.1,35.9,32.3,36,32.5,36.1C32.5,36.1,32.5,36.1,32.5,36.1z"/>
			<polygon class="st2" points="26.3,51.7 26.2,53.7 25.3,53.7 24.3,53.6 23.4,53.4 22.4,53.3 22.6,51.2 23.5,51.4 24.4,51.5 
				25.3,51.6 			"/>
			<path class="st0" d="M25.7,62.5c0,0.1,0,0.1,0,0.2c-1,0-2-0.2-2.9-0.3c0,0,0-0.1,0-0.1l0.1-1.8c0-0.5,0-0.9,0.1-1.5
				c0-0.3,0-0.6,0-0.8l0.2,0c0.2,0,0.4,0.1,0.6,0.1c0.3,0.1,0.7,0.1,1,0.1l0.7,0.1l0.1,0c0,0,0,0.1,0,0.1v0.1c0,0.7,0,1.3,0,2l0,0.3
				C25.6,61.5,25.7,62,25.7,62.5z"/>
		</g>
		<g>
		</g>
	</g>
</g>
<g>
	<path class="st2" d="M41.3,34.7C41.3,34.7,41.3,34.7,41.3,34.7c-0.6-0.1-1-0.5-1-1.1c0.1-0.8-0.5-1.4-1.2-1.5
		c-0.5-0.1-0.9-0.6-0.9-1.1c0.1-0.5,0.6-0.9,1.1-0.9c1.8,0.2,3.1,1.9,2.9,3.7C42.3,34.3,41.8,34.7,41.3,34.7z"/>
	<g>
		<path class="st2" d="M48.6,35.4C48.6,35.4,48.5,35.4,48.6,35.4c-0.6-0.1-1-0.5-1-1.1c0.2-2.3-0.5-4.6-2-6.4
			c-1.5-1.8-3.6-2.9-5.9-3.1c-0.5-0.1-1-0.5-0.9-1.1c0.1-0.5,0.5-1,1.1-0.9c5.9,0.5,10.2,5.8,9.7,11.7C49.6,35,49.1,35.4,48.6,35.4z
			"/>
		<path class="st2" d="M44.9,35c-0.4,0-0.6-0.3-0.7-0.6c-0.1-0.7-0.2-1.4-0.4-2.1c-0.1-0.7-0.5-1.4-1-2c-0.5-0.6-1.1-1.1-1.8-1.3
			c-0.7-0.3-1.4-0.6-2-0.8c-0.3-0.1-0.5-0.4-0.5-0.8c0-0.4,0.3-0.7,0.7-0.7c0.5-0.1,1.1-0.1,1.7,0.1c1.6,0.4,3,1.4,3.9,2.8
			c0.9,1.3,1.4,2.9,1.2,4.6C45.9,34.7,45.5,35.1,44.9,35C44.9,35.1,44.9,35.1,44.9,35z"/>
		<path class="st2" d="M41.3,34.7C41.3,34.7,41.3,34.7,41.3,34.7c-0.6-0.1-1-0.5-1-1.1c0-0.4-0.1-0.7-0.3-1
			c-0.2-0.3-0.6-0.5-0.9-0.5c-0.5-0.1-1-0.5-0.9-1.1c0.1-0.5,0.5-0.9,1.1-0.9c0.9,0.1,1.7,0.5,2.3,1.2c0.6,0.7,0.9,1.6,0.8,2.5
			C42.3,34.3,41.8,34.7,41.3,34.7z"/>
	</g>
</g>
<g>
	<path class="st2" d="M15.7,13.7l0-0.1c0,0,0.6-2.1-1.1-3.1c-0.5-0.2-1.1-0.3-1.7-0.3c-0.4,0.6-0.7,1.3-0.8,2.1c0,0.2,0,0.5,0,0.7
		c1.3,0.1,3.4,0.7,3.4,0.7L15.7,13.7"/>
	<path class="st2" d="M26.9,19.3c0,0.4,0,0.8,0,1c-0.1,0-0.2,0.1-0.3,0.1l-0.8,0c-0.1,0-0.2,0-0.3-0.1c-0.1-0.1-0.1-0.3-0.1-0.6
		l0-0.2l-0.1,0.1c-0.8,0.7-1.7,1.1-2.5,1.1c-0.4,0-0.9-0.1-1.3-0.2c-1-0.3-1.7-1.2-1.8-2.4c-0.1-1.2,0.5-2.4,1.5-2.9
		c0.9-0.5,4.1-0.6,4.1-0.6l0.1,0l0-0.1c0,0-0.1-2.2-1.9-2.6c-0.1,0-0.3,0-0.4,0c-0.5,0-1,0.1-1.3,0.2c-0.2,0.1-0.4,0.1-0.5,0.1
		c-0.2,0-0.4-0.2-0.5-0.4c-0.1-0.3-0.2-0.6,0.2-0.8c0.3-0.1,1.3-0.4,2.1-0.5c0.1,0,0.2,0,0.3,0c1.3,0.1,2.2,0.6,2.8,1.5
		c0.4,0.5,0.6,1.4,0.6,2.3l0,2.1C26.9,17.8,26.9,18.8,26.9,19.3 M29.5,16.8c0.3-3.6-2.2-6.9-5.7-7.7c-0.9-0.2-1.8-0.2-2.6-0.1
		c-1,0.2-2.1,0-3-0.4c-0.8-0.3-1.7-0.5-2.6-0.3C15,8.4,14.5,8.7,14,9c0.3,0.1,0.7,0.1,0.9,0.2c1.2,0.5,1.9,1.2,2.2,2.3
		c0.2,0.6,0.2,1.5-0.1,2.4l-0.6,1.9c-0.3,1.2-0.6,2.2-0.8,2.7c0,0.1-0.1,0.2-0.1,0.3c0.9,2.5,3.1,4.3,5.8,4.7
		C25.4,24.1,29.2,21,29.5,16.8"/>
	<path class="st2" d="M25.3,15.7L25.3,15.7c-0.3,0-1.3,0.1-1.9,0.2l-0.1,0c-0.7,0.1-1.3,0.2-1.8,0.7c-0.4,0.5-0.5,1.1-0.3,1.7
		c0.3,0.7,1,1.2,1.8,1.1c0.6,0,1.3-0.3,1.7-0.7c0.1-0.1,0.2-0.2,0.3-0.4C25.5,17.6,25.5,16.5,25.3,15.7L25.3,15.7"/>
	<path class="st2" d="M15.2,14.6c-0.3-0.1-1.3-0.3-1.8-0.4l-0.1,0c-0.3-0.1-0.6-0.1-0.9-0.1c0,0-0.1,0-0.1,0c-0.4,0-0.7,0.1-0.9,0.3
		c-0.5,0.3-0.9,1-0.8,1.6c0,0.8,0.6,1.4,1.5,1.7c0.2,0.1,0.5,0.1,0.8,0.1c0.4,0,0.8-0.1,1.1-0.3c0.1-0.1,0.3-0.2,0.4-0.3
		c0.1-0.1,0.2-0.2,0.3-0.3c0.4-0.6,0.7-1.4,0.8-2.1l0-0.1L15.2,14.6"/>
</g>
<path class="st2" d="M89.6,15.9H76.4c-1.1,0-2-0.9-2-2v-3.6c0-1.1,0.9-2,2-2h13.1c1.1,0,2,0.9,2,2V14C91.6,15.1,90.7,15.9,89.6,15.9
	z"/>
<g>
	<path class="st3" d="M59.4,35.3c-0.4,0-0.7-0.3-0.7-0.7v-6.9c0-0.4,0.3-0.7,0.7-0.7h30.1c0.4,0,0.7,0.3,0.7,0.7v6.9
		c0,0.4-0.3,0.7-0.7,0.7H59.4z"/>
	<path class="st2" d="M89,28.2V34H59.9v-5.8H89 M89.5,25.7H59.4c-1.1,0-2,0.9-2,2v6.9c0,1.1,0.9,2,2,2h30.1c1.1,0,2-0.9,2-2v-6.9
		C91.5,26.6,90.6,25.7,89.5,25.7L89.5,25.7z"/>
</g>
<g>
	<path class="st3" d="M59.4,54.4c-0.4,0-0.7-0.3-0.7-0.7v-6.9c0-0.4,0.3-0.7,0.7-0.7h30.1c0.4,0,0.7,0.3,0.7,0.7v6.9
		c0,0.4-0.3,0.7-0.7,0.7H59.4z"/>
	<path class="st2" d="M89,47.3v5.8H59.9v-5.8H89 M89.5,44.8H59.4c-1.1,0-2,0.9-2,2v6.9c0,1.1,0.9,2,2,2h30.1c1.1,0,2-0.9,2-2v-6.9
		C91.5,45.7,90.6,44.8,89.5,44.8L89.5,44.8z"/>
</g>
<g>
	<path class="st3" d="M59.4,72.5c-0.4,0-0.7-0.3-0.7-0.7v-6.9c0-0.4,0.3-0.7,0.7-0.7h30.1c0.4,0,0.7,0.3,0.7,0.7v6.9
		c0,0.4-0.3,0.7-0.7,0.7H59.4z"/>
	<path class="st2" d="M89,65.4v5.8H59.9v-5.8H89 M89.5,62.9H59.4c-1.1,0-2,0.9-2,2v6.9c0,1.1,0.9,2,2,2h30.1c1.1,0,2-0.9,2-2v-6.9
		C91.5,63.8,90.6,62.9,89.5,62.9L89.5,62.9z"/>
</g>
<path class="st2" d="M111.9,15.9H98.8c-1.1,0-2-0.9-2-2v-3.6c0-1.1,0.9-2,2-2h13.1c1.1,0,2,0.9,2,2V14
	C113.9,15.1,113,15.9,111.9,15.9z"/>
<path class="st2" d="M134.2,15.9h-13.1c-1.1,0-2-0.9-2-2v-3.6c0-1.1,0.9-2,2-2h13.1c1.1,0,2,0.9,2,2V14
	C136.2,15.1,135.3,15.9,134.2,15.9z"/>
<line class="st4" x1="102" y1="31.1" x2="134" y2="31.1"/>
<line class="st4" x1="102" y1="41.3" x2="134" y2="41.3"/>
<line class="st4" x1="102" y1="52.5" x2="134" y2="52.5"/>
<g>
	<path class="st2" d="M133,73.2h-30.1c-1.1,0-2-0.9-2-2v-5.8c0-1.1,0.9-2,2-2H133c1.1,0,2,0.9,2,2v5.8C135,72.3,134.1,73.2,133,73.2
		z"/>
	<g>
		<path class="st0" d="M105.8,69.1c0,0.4-0.1,0.7-0.4,0.9c-0.3,0.2-0.7,0.3-1.2,0.3c-0.5,0-0.9-0.1-1.2-0.3v-0.8
			c0.2,0.1,0.4,0.2,0.6,0.2c0.2,0.1,0.4,0.1,0.7,0.1c0.2,0,0.4,0,0.5-0.1c0.1-0.1,0.1-0.2,0.1-0.3c0-0.1,0-0.2-0.1-0.3
			c-0.1-0.1-0.2-0.1-0.3-0.2c-0.1-0.1-0.3-0.1-0.4-0.2c-0.1,0-0.2-0.1-0.3-0.2c-0.1-0.1-0.2-0.1-0.3-0.2c-0.1-0.1-0.2-0.2-0.3-0.4
			c-0.1-0.1-0.1-0.3-0.1-0.5c0-0.4,0.1-0.7,0.4-0.9c0.3-0.2,0.6-0.3,1.1-0.3c0.2,0,0.4,0,0.6,0.1c0.2,0.1,0.4,0.1,0.6,0.2l-0.3,0.7
			c-0.2-0.1-0.4-0.1-0.5-0.2c-0.2,0-0.3-0.1-0.5-0.1c-0.2,0-0.3,0-0.4,0.1c-0.1,0.1-0.1,0.2-0.1,0.3c0,0.2,0.1,0.3,0.2,0.4
			c0.1,0.1,0.3,0.2,0.6,0.3c0.2,0.1,0.4,0.2,0.6,0.3c0.2,0.1,0.3,0.2,0.4,0.4C105.7,68.7,105.8,68.9,105.8,69.1z"/>
		<path class="st0" d="M111.4,66v2.8c0,0.3-0.1,0.6-0.2,0.8c-0.1,0.2-0.3,0.4-0.6,0.6c-0.3,0.1-0.6,0.2-1,0.2c-0.6,0-1-0.1-1.3-0.4
			s-0.4-0.7-0.4-1.1V66h0.9v2.6c0,0.4,0.1,0.6,0.2,0.7c0.1,0.1,0.4,0.2,0.6,0.2c0.3,0,0.5-0.1,0.6-0.2c0.1-0.2,0.2-0.4,0.2-0.7V66
			H111.4z"/>
		<path class="st0" d="M113.9,66h1.3c0.6,0,1,0.1,1.3,0.2c0.3,0.2,0.4,0.4,0.4,0.8c0,0.2-0.1,0.5-0.2,0.6c-0.1,0.2-0.3,0.3-0.5,0.3
			v0c0.1,0,0.3,0.1,0.4,0.2c0.1,0.1,0.2,0.2,0.3,0.3c0.1,0.1,0.1,0.3,0.1,0.5c0,0.4-0.1,0.7-0.4,0.9c-0.3,0.2-0.7,0.3-1.1,0.3h-1.6
			V66z M114.8,67.7h0.5c0.3,0,0.4,0,0.5-0.1c0.1-0.1,0.2-0.2,0.2-0.4c0-0.2-0.1-0.3-0.2-0.4c-0.1-0.1-0.3-0.1-0.6-0.1h-0.5V67.7z
			 M114.8,68.4v1.1h0.6c0.3,0,0.5-0.1,0.6-0.2c0.1-0.1,0.2-0.2,0.2-0.4c0-0.2-0.1-0.3-0.2-0.4c-0.1-0.1-0.3-0.1-0.6-0.1H114.8z"/>
		<path class="st0" d="M121.1,70.3l-1-3.4h0c0,0.1,0,0.2,0,0.4c0,0.2,0,0.3,0,0.5c0,0.2,0,0.3,0,0.5v2h-0.8V66h1.2l1,3.3h0l1.1-3.3
			h1.2v4.3H123v-2c0-0.1,0-0.3,0-0.5c0-0.2,0-0.3,0-0.5c0-0.2,0-0.3,0-0.4h0l-1.1,3.4H121.1z"/>
		<path class="st0" d="M128,70.3H126v-0.5l0.5-0.2v-2.8l-0.5-0.2V66h1.9v0.5l-0.5,0.2v2.8l0.5,0.2V70.3z"/>
		<path class="st0" d="M131.9,70.3H131v-3.5h-1.2V66h3.2v0.8h-1.2V70.3z"/>
	</g>
</g>
</svg>
