<?xml version="1.0" encoding="utf-8"?>
<!-- Generator: Adobe Illustrator 22.1.0, SVG Export Plug-In . SVG Version: 6.00 Build 0)  -->
<svg version="1.1" id="レイヤー_1" xmlns="http://www.w3.org/2000/svg" xmlns:xlink="http://www.w3.org/1999/xlink" x="0px"
	 y="0px" width="30px" height="30px" viewBox="0 0 30 30" style="enable-background:new 0 0 30 30;" xml:space="preserve">
<style type="text/css">
	.st0{fill:#10069F;}
</style>
<g>
	<g>
		<circle class="st0" cx="15" cy="10" r="5"/>
		<path class="st0" d="M15,17c-4.833,0-8.75,3.917-8.75,8.75V30h17.5v-4.25C23.75,20.917,19.833,17,15,17z"/>
		<path class="st0" d="M10.971,4.285C10.978,4.189,11,4.098,11,4c0-2.209-1.791-4-4-4S3,1.791,3,4c0,2.209,1.791,4,4,4
			c0.488,0,0.949-0.1,1.381-0.26C8.863,6.333,9.779,5.128,10.971,4.285z"/>
		<path class="st0" d="M21.619,7.74C22.051,7.9,22.512,8,23,8c2.209,0,4-1.791,4-4c0-2.209-1.791-4-4-4s-4,1.791-4,4
			c0,0.098,0.022,0.189,0.029,0.285C20.221,5.128,21.137,6.333,21.619,7.74z"/>
		<path class="st0" d="M8,10c0-0.105,0.011-0.207,0.016-0.311C7.683,9.64,7.347,9.6,7,9.6c-3.866,0-7,3.134-7,7V22h4.938
			c1.063-2.842,3.294-5.111,6.105-6.231C9.208,14.506,8,12.392,8,10z"/>
		<path class="st0" d="M23,9.6c-0.347,0-0.683,0.04-1.016,0.089C21.989,9.793,22,9.895,22,10c0,2.392-1.208,4.506-3.043,5.769
			c2.811,1.12,5.042,3.389,6.105,6.231H30v-5.4C30,12.734,26.866,9.6,23,9.6z"/>
	</g>
</g>
</svg>
