<svg id="レイヤー_1" data-name="レイヤー 1" xmlns="http://www.w3.org/2000/svg" viewBox="0 0 847.91 281.26"><defs><style>.cls-1{fill:#162789;}.cls-2{fill:#f7f9f9;}.cls-3{fill:none;stroke:#f7f9f9;stroke-linecap:round;stroke-linejoin:round;stroke-width:3.41px;}</style></defs><title>アートボード 6</title><path class="cls-1" d="M87,8.22a16.18,16.18,0,0,1,4.27,2.37l-1.42,2A18.53,18.53,0,0,0,85.67,10Zm2.66,7,2,1.29c-1,2.77-2.21,5.88-3.32,8.33l-2.21-1.27A72.2,72.2,0,0,0,89.7,15.23Zm-1.55-14a16.47,16.47,0,0,1,4.16,2.56L90.83,5.77a18.79,18.79,0,0,0-4-2.77Zm7.9,18.56a18.46,18.46,0,0,1-3.63,5.45A17.72,17.72,0,0,0,90.49,24a13.47,13.47,0,0,0,3.32-4.74Zm4.59-17.71v16.7H92.89V2.11ZM95,7h3.51V4.24H95Zm0,4.85h3.51V9H95Zm0,4.79h3.51V13.83H95Zm4.32,2.43a35.32,35.32,0,0,1,2.9,4l-2,1.22a26.76,26.76,0,0,0-2.8-4.19Zm5.17-15.39v15h-2.14v-15ZM109,1V22.27c0,1.37-.29,2.05-1.11,2.45a11.27,11.27,0,0,1-4.21.45,8.85,8.85,0,0,0-.71-2.35c1.47.05,2.82.05,3.24,0s.55-.14.55-.56V1Z"/><path class="cls-1" d="M158.78,4.93c-.53.34-1.14.73-1.61,1.08-1.34,1-4.51,3.71-6.35,5.24a9.74,9.74,0,0,1,3.08-.45c4.38,0,7.62,2.69,7.62,6.33,0,4.19-3.35,7.17-9.2,7.17-3.61,0-6-1.64-6-4a4,4,0,0,1,4.32-3.72,5.22,5.22,0,0,1,5.48,4.59,4.26,4.26,0,0,0,2.74-4.09c0-2.45-2.48-4.19-5.67-4.19-4.16,0-6.64,1.95-9.72,5.22l-1.92-1.95c2-1.66,5.29-4.4,6.82-5.67s4.46-3.71,5.77-4.85c-1.37.06-5.82.24-7.19.32-.66,0-1.34.11-1.92.19l-.08-2.72a18.58,18.58,0,0,0,2.08.13c1.37,0,7.27-.16,8.69-.29A9.27,9.27,0,0,0,157.35,3Zm-5.09,16.89c-.21-1.93-1.34-3.19-3.08-3.19-1.08,0-1.87.63-1.87,1.45,0,1.13,1.34,1.84,3.11,1.84A13.44,13.44,0,0,0,153.69,21.82Z"/><path class="cls-1" d="M376.57,8.27c2.11-.66,7.3-2.53,11.15-2.53,4.48,0,8,2.61,8,7.17,0,6.11-6,9.49-14.52,9.94l-1.19-2.77c6.93-.16,12.78-2.21,12.78-7.22,0-2.61-1.87-4.64-5.21-4.64-4.09,0-10.52,2.77-12.89,3.74l-1.19-2.9C374.49,8.88,375.6,8.56,376.57,8.27Z"/><path class="cls-1" d="M413.71,7.51a40,40,0,0,1-4.64.92,45.69,45.69,0,0,1-5.67,11.1l-2.52-1.3a37.75,37.75,0,0,0,5.45-9.51c-.63,0-1.24,0-1.87,0-1,0-2.08,0-3.14-.1l-.18-2.43a33.1,33.1,0,0,0,3.32.16c.87,0,1.76,0,2.69-.1a21,21,0,0,0,.76-4.43l2.87.26c-.21.9-.55,2.35-.94,3.82a27.61,27.61,0,0,0,3.79-.89Zm3.21,2.71a28.49,28.49,0,0,0,0,3.06c0,.84.1,2.35.18,3.82a17.28,17.28,0,0,1,5.4,3.3l-1.39,2.24a20.59,20.59,0,0,0-3.9-2.9v.71c0,2.21-1.35,4-4.77,4-3,0-5.48-1.29-5.48-4,0-2.45,2.21-4.19,5.45-4.19a12,12,0,0,1,2.19.18c-.11-2.05-.24-4.5-.29-6.22Zm-2.26,8.49a8.86,8.86,0,0,0-2.4-.32c-1.74,0-2.87.77-2.87,1.82s.89,1.87,2.68,1.87c1.95,0,2.61-1.1,2.61-2.45C414.68,19.37,414.68,19.08,414.66,18.71Zm7.14-7.49a33.68,33.68,0,0,0-6.09-3.63l1.32-2a43.91,43.91,0,0,1,6.24,3.5Z"/><path class="cls-1" d="M432.69,3.58c-.19.56-.4,1.37-.53,1.87-.74,3.4-1.64,8.75-.79,12.57.37-1,.87-2.39,1.32-3.55l1.37.87a61.91,61.91,0,0,0-1.74,6,7.36,7.36,0,0,0-.13,1.22c0,.26.05.65.05,1l-2.27.24a28.49,28.49,0,0,1-1.45-8.36,66.49,66.49,0,0,1,1-10.17,17.82,17.82,0,0,0,.16-1.95Zm12.8-.39c-.08.55-.1,1.05-.13,1.6s0,2.14,0,3.64a35,35,0,0,0,4.43-.58l0,2.72c-1.21.18-2.74.31-4.38.42v.76c0,6.09-.23,10.15-5.58,13.42l-2.4-1.9a9.63,9.63,0,0,0,2.77-1.82c2.42-2.27,2.68-4.95,2.68-9.7v-.63c-.94,0-1.89.05-2.81.05-1.22,0-2.93-.08-4.14-.16V8.35a27.48,27.48,0,0,0,4.08.29c.92,0,1.87,0,2.82-.05,0-1.53-.08-3.06-.13-3.77a13,13,0,0,0-.26-1.63Zm2.11,3.29a31.52,31.52,0,0,0-1.45-3.74l1.5-.45A28,28,0,0,1,449.13,6Zm2.74-5a35.15,35.15,0,0,1,1.5,3.66l-1.52.5A28.81,28.81,0,0,0,448.84,2Z"/><path class="cls-1" d="M472.09,4.93c-.53.34-1.14.73-1.61,1.08-1.34,1-4.51,3.71-6.35,5.24a9.78,9.78,0,0,1,3.08-.45c4.38,0,7.62,2.69,7.62,6.33,0,4.19-3.35,7.17-9.2,7.17-3.61,0-6-1.64-6-4a4,4,0,0,1,4.32-3.72,5.22,5.22,0,0,1,5.48,4.59,4.26,4.26,0,0,0,2.74-4.09c0-2.45-2.48-4.19-5.67-4.19-4.16,0-6.64,1.95-9.72,5.22l-1.92-1.95c2-1.66,5.29-4.4,6.82-5.67s4.46-3.71,5.77-4.85c-1.37.06-5.82.24-7.19.32-.66,0-1.34.11-1.92.19l-.08-2.72a18.58,18.58,0,0,0,2.08.13c1.37,0,7.27-.16,8.69-.29A9.27,9.27,0,0,0,470.66,3ZM467,21.82c-.21-1.93-1.34-3.19-3.08-3.19-1.08,0-1.87.63-1.87,1.45,0,1.13,1.34,1.84,3.11,1.84A13.44,13.44,0,0,0,467,21.82Z"/><path class="cls-1" d="M679.25,13.12c-1.08-.74-3.27-2-4.85-2.82l1.35-1.82c1.5.74,3.74,1.9,4.84,2.61Zm-4.32,10.09a78.53,78.53,0,0,0,5-8.32l1.77,1.63c-1.35,2.72-3.11,5.88-4.67,8.33ZM680.49,6c-1.08-.77-3.27-2-4.82-2.9L677,1.37A54.21,54.21,0,0,1,681.94,4Zm11,5v3.9h5.43V25h-2.32v-1h-8.72v1.11H683.6V14.89h5.53V11h-7.32V8.64h7.32V4.9c-1.84.29-3.74.5-5.48.63a8.32,8.32,0,0,0-.71-2.05c4.51-.48,9.62-1.32,12.52-2.4L697.38,3a35,35,0,0,1-5.93,1.52V8.64h7V11Zm3.11,6.11h-8.72v4.74h8.72Z"/><path class="cls-1" d="M724.34,22.11c0,1.42-.34,2.16-1.29,2.53a14.46,14.46,0,0,1-4.93.42,10.07,10.07,0,0,0-.81-2.37c1.68.08,3.42,0,3.92,0s.66-.16.66-.66V17.36h-6.38V24.9h-2.45V17.36H707a15.16,15.16,0,0,1-3.29,8,8.15,8.15,0,0,0-1.93-1.61c2.88-3.19,3.14-7.85,3.14-11.57V2.79h19.42Zm-11.28-7.06v-3.9h-5.71v1c0,.9,0,1.87-.11,2.85Zm-5.71-9.91V8.85h5.71V5.14Zm14.54,0h-6.38V8.85h6.38Zm0,9.91v-3.9h-6.38v3.9Z"/><path class="cls-1" d="M751.57,7.83c-1.56-.08-4-.14-7.8-.14,0,1.4,0,2.93,0,4.09a6.44,6.44,0,0,1,.92,3.48c0,3.47-1.85,7.56-8,9.35l-2.24-2.21c3.06-.69,5.46-1.82,6.72-3.77a4.45,4.45,0,0,1-6.22-4.19,4.73,4.73,0,0,1,4.88-4.69,5.19,5.19,0,0,1,1.45.18l0-2.21c-4,0-8.22.21-11.46.42l-.08-2.53c2.95,0,7.8-.18,11.51-.24,0-.55,0-1-.05-1.31,0-.66-.13-1.53-.21-1.9h3c-.05.34-.13,1.53-.13,1.9s0,.76,0,1.29h7.8Zm-11.75,8.88c1.34,0,2.34-1.08,2-3.56a2.13,2.13,0,0,0-2-1.21,2.34,2.34,0,0,0-2.35,2.45A2.27,2.27,0,0,0,739.82,16.71Z"/><path class="cls-1" d="M772.52,4.93c-.52.34-1.13.73-1.6,1.08-1.35,1-4.51,3.71-6.35,5.24a9.74,9.74,0,0,1,3.08-.45c4.37,0,7.61,2.69,7.61,6.33,0,4.19-3.34,7.17-9.19,7.17-3.61,0-6-1.64-6-4a4,4,0,0,1,4.32-3.72,5.22,5.22,0,0,1,5.49,4.59,4.27,4.27,0,0,0,2.74-4.09c0-2.45-2.48-4.19-5.67-4.19-4.16,0-6.64,1.95-9.72,5.22l-1.93-1.95c2-1.66,5.3-4.4,6.83-5.67s4.45-3.71,5.77-4.85c-1.37.06-5.83.24-7.2.32-.65,0-1.34.11-1.92.19l-.08-2.72a18.58,18.58,0,0,0,2.08.13c1.37,0,7.28-.16,8.7-.29A9.27,9.27,0,0,0,771.1,3Zm-5.08,16.89c-.21-1.93-1.35-3.19-3.09-3.19-1.08,0-1.87.63-1.87,1.45,0,1.13,1.35,1.84,3.11,1.84A13.59,13.59,0,0,0,767.44,21.82Z"/><path class="cls-1" d="M725.31,278.26a120.61,120.61,0,1,0,0-241.21C692,37.05,660.51,53,640,72.37s-39.62,29.89-65,29.89-44.53-10.48-65-29.89-52-35.32-85.28-35.32S359.93,53,339.45,72.37s-39.62,29.89-65,29.89-44.53-10.48-65-29.89-52-35.32-85.28-35.32a120.61,120.61,0,1,0,0,241.21c33.3,0,64.8-15.91,85.28-35.32s39.62-29.9,65-29.9,44.53,10.48,65,29.9,52,35.32,85.28,35.32,64.8-15.91,85.28-35.32S549.63,213,575,213s44.52,10.48,65,29.9S692,278.26,725.31,278.26Z"/><path class="cls-2" d="M589.66,133.79C588.88,120.59,578,110,564.88,110a25.87,25.87,0,0,0-20.46,10.28c-.11,0-.23-.09-.34-.15-.29-.14-.58-.27-.89-.39l-.5-.19-.91-.28-.51-.13c-.33-.07-.66-.13-1-.18l-.45-.07a14.15,14.15,0,0,0-1.47-.09A13.23,13.23,0,0,0,525.14,132a5.25,5.25,0,0,0,0,.56,20.26,20.26,0,0,0-10.3,17.27,18.87,18.87,0,0,0,18.85,18.84h7.56a1.47,1.47,0,1,0,0-2.93h-7.56a15.93,15.93,0,0,1-15.91-15.91,17.44,17.44,0,0,1,9.43-15l.84-.4v-.93c0-.18,0-.36,0-.55v-.25l0-.28c0-.13,0-.25,0-.38a10.28,10.28,0,0,1,10.27-10.27,10,10,0,0,1,1.34.1l.34,0a8.87,8.87,0,0,1,1.16.26l.15,0a9.16,9.16,0,0,1,1.23.47l.3.14a9.62,9.62,0,0,1,1,.59,10.26,10.26,0,0,1,4.71,8.62,1.47,1.47,0,0,0,2.93,0A13.19,13.19,0,0,0,546.86,122a23.23,23.23,0,0,1,18-9,22.14,22.14,0,0,1,21.78,20.37,27.83,27.83,0,0,0-6,.18,1.47,1.47,0,0,0,.22,2.92l.22,0a27,27,0,0,1,6.87,0,15,15,0,0,1,12,14.65,14.73,14.73,0,0,1-14.71,14.71h-5.83a1.47,1.47,0,0,0,0,2.93h5.83a17.66,17.66,0,0,0,17.65-17.64A18.06,18.06,0,0,0,589.66,133.79Z"/><path class="cls-2" d="M585.25,169.15h-5.83a1.9,1.9,0,1,1,0-3.8h5.83a14.3,14.3,0,0,0,14.28-14.28,14.6,14.6,0,0,0-11.63-14.22,26.34,26.34,0,0,0-6.72,0,1.93,1.93,0,0,1-2.17-1.59,1.86,1.86,0,0,1,.35-1.41,1.9,1.9,0,0,1,1.24-.76,28.13,28.13,0,0,1,5.58-.22,21.76,21.76,0,0,0-21.3-19.47,22.74,22.74,0,0,0-17.43,8.5A13.58,13.58,0,0,1,552,132a1.9,1.9,0,1,1-3.8,0,9.81,9.81,0,0,0-4.51-8.26,11.27,11.27,0,0,0-1-.56l-.29-.14a9.84,9.84,0,0,0-1.17-.45l-.15,0a7.5,7.5,0,0,0-1.11-.25l-.32,0a9,9,0,0,0-1.29-.1,9.85,9.85,0,0,0-9.84,9.84c0,.1,0,.19,0,.29l0,.34V133c0,.23,0,.38,0,.52v1.2l-1.08.52a17,17,0,0,0-9.19,14.65,15.5,15.5,0,0,0,15.48,15.48h7.56a1.9,1.9,0,0,1,0,3.8h-7.56a19.3,19.3,0,0,1-19.28-19.28,20.67,20.67,0,0,1,10.28-17.52c0-.1,0-.21,0-.31a13.66,13.66,0,0,1,13.64-13.64,14,14,0,0,1,1.52.09l.3,0,.16,0c.35,0,.7.11,1,.19.16,0,.31.08.46.12.39.1.69.19,1,.3l.52.19c.32.13.62.27.92.41h0a26.16,26.16,0,0,1,20.6-10.18,25.46,25.46,0,0,1,25.19,23.85,18.52,18.52,0,0,1,13.26,17.62A18.1,18.1,0,0,1,585.25,169.15Zm-5.83-2.94a1,1,0,0,0,0,2.07h5.83a17.23,17.23,0,0,0,17.21-17.21,17.63,17.63,0,0,0-12.91-16.86l-.31-.08,0-.32a24.6,24.6,0,0,0-24.34-23.34,25.29,25.29,0,0,0-20.12,10.1l-.22.3-.33-.17-.14-.07-.18-.08-.85-.38-.49-.18c-.29-.1-.58-.19-.88-.27l-.49-.13c-.32-.07-.64-.12-1-.17l-.19,0-.25,0a12,12,0,0,0-1.42-.08A12.78,12.78,0,0,0,525.58,132c0,.18,0,.35,0,.52l0,.28-.25.14a19.76,19.76,0,0,0-10.06,16.89,18.43,18.43,0,0,0,18.41,18.41h7.56a1,1,0,0,0,0-2.07h-7.56a16.37,16.37,0,0,1-16.35-16.34,17.92,17.92,0,0,1,9.69-15.44l.58-.28v-.65c0-.16,0-.32,0-.49l0-.34,0-.22c0-.18,0-.3,0-.41a10.72,10.72,0,0,1,10.71-10.71,10.59,10.59,0,0,1,1.4.11l.35,0a10.73,10.73,0,0,1,1.21.27l.16,0a10,10,0,0,1,1.28.49l.32.16a9.42,9.42,0,0,1,1.08.61,10.65,10.65,0,0,1,4.9,9,1,1,0,0,0,2.07,0,12.76,12.76,0,0,0-4.54-9.75l-.32-.27.25-.33a23.62,23.62,0,0,1,18.37-9.16c11.45,0,21.2,9.12,22.21,20.77l0,.51-.51,0a27.53,27.53,0,0,0-5.89.18,1,1,0,0,0-.68.41,1,1,0,0,0-.19.77A1,1,0,0,0,581,136a27.63,27.63,0,0,1,7,0,15.49,15.49,0,0,1,12.36,15.08,15.16,15.16,0,0,1-15.15,15.14Z"/><path class="cls-2" d="M561.39,148.61a1.31,1.31,0,0,0-.48-.32,1.45,1.45,0,0,0-1.12,0,1.39,1.39,0,0,0-.48.32l-11.73,11.73a1.46,1.46,0,0,0,0,2.08,1.46,1.46,0,0,0,2.07,0l9.24-9.24v30.2a1.47,1.47,0,1,0,2.93,0v-30.2l9.23,9.24a1.49,1.49,0,0,0,1,.43,1.51,1.51,0,0,0,1-.43,1.48,1.48,0,0,0,0-2.08Z"/><path class="cls-2" d="M560.35,185.29a1.91,1.91,0,0,1-1.9-1.91V154.23L550,162.72a2,2,0,0,1-2.69,0,1.88,1.88,0,0,1,0-2.68L559,148.3a1.77,1.77,0,0,1,.62-.41,1.91,1.91,0,0,1,2.07.41L573.43,160a1.9,1.9,0,0,1,0,2.68,1.93,1.93,0,0,1-2.68,0l-8.5-8.49v29.15A1.91,1.91,0,0,1,560.35,185.29Zm-1-33.15v31.24a1,1,0,1,0,2.07,0V152.14l10,10a1.06,1.06,0,0,0,1.46,0,1,1,0,0,0,0-1.46l-11.74-11.74a1,1,0,0,0-.33-.22,1,1,0,0,0-.79,0,1.11,1.11,0,0,0-.34.22l-11.74,11.74a1,1,0,0,0-.3.73,1,1,0,0,0,1.77.73Z"/><path class="cls-2" d="M444.52,183.3H401.15A24.54,24.54,0,0,1,395.2,135a31.28,31.28,0,0,1,55.28,0,24.54,24.54,0,0,1-6,48.35Zm-21.68-60.84a27,27,0,0,0-24.39,15.2,2,2,0,0,1-1.44,1.11,20.41,20.41,0,0,0,4.14,40.4h43.37a20.41,20.41,0,0,0,4.14-40.4,2.05,2.05,0,0,1-1.44-1.11A27,27,0,0,0,422.84,122.46Z"/><path class="cls-2" d="M389.85,167.7a2.07,2.07,0,0,1-2-1.6l-9-38.42-9,38.42a2.07,2.07,0,0,1-4-.94l11-47a2.06,2.06,0,0,1,4,0l11,47a2.06,2.06,0,0,1-1.54,2.48A2,2,0,0,1,389.85,167.7Z"/><path class="cls-2" d="M387.12,159.15H370.6a2.07,2.07,0,0,1,0-4.14h16.52a2.07,2.07,0,0,1,0,4.14Z"/><path class="cls-2" d="M385.16,149.68H372.55a2.07,2.07,0,1,1,0-4.13h12.61a2.07,2.07,0,1,1,0,4.13Z"/><path class="cls-2" d="M384.9,125.55a2,2,0,0,1-1.46-.61,2.06,2.06,0,0,1,0-2.92A6.49,6.49,0,0,0,378.86,111,6.48,6.48,0,0,0,374.27,122a2.06,2.06,0,0,1-2.92,2.92,10.62,10.62,0,1,1,15,0A2,2,0,0,1,384.9,125.55Z"/><path class="cls-2" d="M392.18,132.34a2,2,0,0,1-1.46-.61,2.06,2.06,0,0,1,0-2.92,16.78,16.78,0,1,0-23.72,0,2.06,2.06,0,0,1-2.92,2.92,20.9,20.9,0,1,1,29.56,0A2,2,0,0,1,392.18,132.34Z"/><rect class="cls-2" x="738.13" y="167.26" width="9.78" height="15.43"/><path class="cls-2" d="M747.91,185.46h-9.78a2.76,2.76,0,0,1-2.77-2.76V167.26a2.76,2.76,0,0,1,2.77-2.76h9.78a2.75,2.75,0,0,1,2.76,2.76V182.7A2.75,2.75,0,0,1,747.91,185.46Zm-7-5.53h4.24V170H740.9Z"/><rect class="cls-2" x="790.93" y="118.93" width="18.84" height="63.77"/><path class="cls-2" d="M809.77,185.46H790.93a2.76,2.76,0,0,1-2.77-2.76V118.93a2.77,2.77,0,0,1,2.77-2.77h18.84a2.77,2.77,0,0,1,2.77,2.77V182.7A2.76,2.76,0,0,1,809.77,185.46Zm-16.08-5.53H807V121.7H793.69Z"/><rect class="cls-1" x="705.56" y="118.93" width="74.91" height="48.33" rx="3.14"/><path class="cls-2" d="M777.34,170H708.7a5.9,5.9,0,0,1-5.9-5.9V122.07a5.91,5.91,0,0,1,5.9-5.91h68.64a5.91,5.91,0,0,1,5.9,5.91v42.06A5.91,5.91,0,0,1,777.34,170ZM708.7,121.7a.38.38,0,0,0-.37.37v42.06a.38.38,0,0,0,.37.37h68.64a.39.39,0,0,0,.37-.37V122.07a.38.38,0,0,0-.37-.37Z"/><path class="cls-2" d="M763.46,185.46H722.58a2.77,2.77,0,1,1,0-5.53h40.88a2.77,2.77,0,0,1,0,5.53Z"/><rect class="cls-1" x="797.91" y="124.61" width="4.88" height="7.87" rx="0.94"/><rect class="cls-1" x="797.91" y="135.79" width="4.88" height="7.87" rx="0.94"/><circle class="cls-1" cx="800.35" cy="174.4" r="2.35"/><rect class="cls-2" x="657.72" y="132.02" width="37.61" height="50.68" rx="2.89"/><path class="cls-2" d="M692.45,185.24H660.61a5.43,5.43,0,0,1-5.43-5.43v-44.9a5.44,5.44,0,0,1,5.43-5.44h31.84a5.44,5.44,0,0,1,5.43,5.44v44.9A5.44,5.44,0,0,1,692.45,185.24Zm-31.84-50.67a.35.35,0,0,0-.34.34v44.9a.35.35,0,0,0,.34.34h31.84a.35.35,0,0,0,.34-.34v-44.9a.35.35,0,0,0-.34-.34Z"/><circle class="cls-1" cx="676.53" cy="179.56" r="1.94"/><rect class="cls-1" x="659.83" y="134.76" width="33.41" height="39.68" rx="1.73"/><rect class="cls-2" x="674.55" y="84.68" width="21.26" height="38.54" rx="3.14"/><path class="cls-2" d="M692.68,124.89h-15a4.81,4.81,0,0,1-4.8-4.8V87.82a4.81,4.81,0,0,1,4.8-4.8h15a4.81,4.81,0,0,1,4.79,4.8v32.27A4.81,4.81,0,0,1,692.68,124.89Zm-15-38.55a1.48,1.48,0,0,0-1.48,1.48v32.27a1.47,1.47,0,0,0,1.48,1.47h15a1.47,1.47,0,0,0,1.47-1.47V87.82a1.48,1.48,0,0,0-1.47-1.48Z"/><path class="cls-1" d="M687.73,87.68h-5.1a1,1,0,0,1,0-1.94h5.1a1,1,0,1,1,0,1.94Z"/><circle class="cls-1" cx="685.18" cy="120.4" r="1.87"/><rect class="cls-1" x="676.51" y="90.11" width="17.34" height="26.25" rx="1.25"/><path class="cls-2" d="M240.05,196.56a11.35,11.35,0,0,0,1.58-.1v1.75c-.55-.05-1.21-.05-1.58-.05h-2.53c-.29,4.46-2,7.26-4.88,9.06l-1.73-1.17a4.82,4.82,0,0,0,1.41-.81c1.65-1.24,3.2-3.3,3.46-7.08h-3.84a13.24,13.24,0,0,1-2.65,3.43l-1.6-1a12.08,12.08,0,0,0,2.83-3.42,10.74,10.74,0,0,0,.94-2.23,6.54,6.54,0,0,0,.27-1.45l2,.38c-.16.39-.34.88-.47,1.22s-.32.92-.54,1.44Zm-.45-.65a21,21,0,0,0-1.28-2.25l1-.43a21.4,21.4,0,0,1,1.31,2.21Zm1.87-.71a16.44,16.44,0,0,0-1.32-2.22l1-.43a18,18,0,0,1,1.34,2.2Z"/><path class="cls-2" d="M245,198.92c.52.05,1.52.1,2.4.1h8.78c.79,0,1.42-.07,1.81-.1v2c-.36,0-1.08-.07-1.8-.07h-8.79c-.91,0-1.87,0-2.4.07Z"/><path class="cls-2" d="M271,202.17a43.73,43.73,0,0,0-6.11-2.52v5a19.19,19.19,0,0,0,.12,2.07h-2a17.2,17.2,0,0,0,.12-2.07V195.3a11.42,11.42,0,0,0-.14-1.82h2c-.05.54-.11,1.25-.11,1.82v2.52a55.53,55.53,0,0,1,6.84,2.59Z"/><path class="cls-2" d="M287.39,196.33a6.55,6.55,0,0,0-.27,1.1,15.1,15.1,0,0,1-1.55,4.74,10.36,10.36,0,0,1-6.49,4.71l-1.33-1.54a10.7,10.7,0,0,0,1.94-.53,8.3,8.3,0,0,0,4.08-3,11.32,11.32,0,0,0,1.49-4.47h-8.61V200a7.12,7.12,0,0,0,.07,1.07H275c0-.34.06-.81.06-1.16V197c0-.36,0-.94-.06-1.31a14.9,14.9,0,0,0,1.56.08h3.53v-1.39a8.23,8.23,0,0,0-.11-1.35h1.95a13,13,0,0,0-.09,1.35v1.39h3.27a3.58,3.58,0,0,0,1.21-.16Z"/><path class="cls-2" d="M300,204.79a7.44,7.44,0,0,0,1.14-.1v1.69c-.33,0-.87,0-1.14,0h-8.95c-.37,0-.81,0-1.23,0v-1.69a10.9,10.9,0,0,0,1.23.1h3.54v-5.63h-2.76c-.31,0-.86,0-1.2.05v-1.62a10.31,10.31,0,0,0,1.18.08h7.43a8.91,8.91,0,0,0,1.19-.08v1.62c-.37,0-.82-.05-1.19-.05h-3v5.63Z"/><path class="cls-2" d="M312.12,204.82a12.25,12.25,0,0,0,.11,1.91h-2a18,18,0,0,0,.1-1.91v-5.76a30.48,30.48,0,0,1-5.85,2.38l-.93-1.57a25.31,25.31,0,0,0,7.3-2.94,18,18,0,0,0,4.22-3.62l1.38,1.24a26.88,26.88,0,0,1-4.32,3.48Z"/><path class="cls-2" d="M380.78,205c0,.6.05,1.4.08,1.91H379a18.08,18.08,0,0,0,.11-1.91c0-.88,0-2.17,0-3.21a26.08,26.08,0,0,1-5.26,2.14l-1-1.51a19.62,19.62,0,0,0,6.59-2.73,12,12,0,0,0,3-2.72h-6.34c-.58,0-1.54,0-2,.07v-1.68c.55.06,1.46.09,2,.09h3v-.95a10.68,10.68,0,0,0-.09-1.46h1.84a12.73,12.73,0,0,0-.1,1.46v.95h2.36a3.92,3.92,0,0,0,1.15-.13l1.07,1c-.34.36-.76.8-1.05,1.14a22.37,22.37,0,0,1-3.56,3.28Zm2.31-4.61a36.77,36.77,0,0,1,3.9,2.33l-1.07,1.4a27.58,27.58,0,0,0-3.88-2.52Z"/><path class="cls-2" d="M392.34,201.2l-1.53.57a33,33,0,0,0-1.48-3.69l1.52-.55C391.23,198.27,392,200.33,392.34,201.2Zm8.19-3.48a7.91,7.91,0,0,0-.31,1,12.92,12.92,0,0,1-2.27,4.87,12.68,12.68,0,0,1-5.32,3.92l-1.34-1.38a11.12,11.12,0,0,0,5.31-3.41,11.34,11.34,0,0,0,2.15-5.53Zm-4.61,2.48-1.52.55a30.66,30.66,0,0,0-1.3-3.56l1.52-.5C394.91,197.37,395.71,199.49,395.92,200.2Z"/><path class="cls-2" d="M412.69,202.17a43.36,43.36,0,0,0-6.12-2.52v5a19.32,19.32,0,0,0,.13,2.07h-2a17.16,17.16,0,0,0,.13-2.07V195.3a12.72,12.72,0,0,0-.14-1.82h2c0,.54-.11,1.25-.11,1.82v2.52a54.32,54.32,0,0,1,6.84,2.59Z"/><path class="cls-2" d="M428.92,195.33a6.21,6.21,0,0,0-.24.89,15.69,15.69,0,0,1-1.85,6,11.5,11.5,0,0,1-6.13,4.58l-1.4-1.43a10.23,10.23,0,0,0,6-4,12.25,12.25,0,0,0,1.51-5.17h-8.41v3c0,.22,0,.71,0,1.16h-1.86c0-.44.07-.81.07-1.16v-3.45c0-.39,0-.81-.07-1.2.46,0,1.1,0,1.83,0h8.06a6,6,0,0,0,1.24-.09Z"/><path class="cls-2" d="M431.88,198.92c.51.05,1.52.1,2.39.1h8.78c.8,0,1.43-.07,1.81-.1v2c-.35,0-1.08-.07-1.79-.07h-8.8c-.91,0-1.86,0-2.39.07Z"/><path class="cls-2" d="M461,196a5.3,5.3,0,0,0-.45,1,16,16,0,0,1-2.85,5.5A14.79,14.79,0,0,1,451.2,207l-1.5-1.35a13,13,0,0,0,6.48-4,12,12,0,0,0,2.46-4.77h-5a17.08,17.08,0,0,1-4.11,4l-1.43-1.06a13.69,13.69,0,0,0,5.08-5.35,6.82,6.82,0,0,0,.6-1.46l1.88.62a15.94,15.94,0,0,0-.84,1.44l-.23.4h3.88a3.86,3.86,0,0,0,1.21-.16Z"/><path class="cls-2" d="M541.37,196a5.3,5.3,0,0,0-.45,1,16,16,0,0,1-2.85,5.5A14.73,14.73,0,0,1,531.6,207l-1.5-1.35a13,13,0,0,0,6.49-4,12.15,12.15,0,0,0,2.45-4.77h-5a17.08,17.08,0,0,1-4.11,4l-1.42-1.06a13.73,13.73,0,0,0,5.07-5.35,6.82,6.82,0,0,0,.6-1.46l1.88.62c-.32.48-.66,1.12-.84,1.44l-.23.4h3.88a3.92,3.92,0,0,0,1.22-.16Z"/><path class="cls-2" d="M556.07,198.39a4,4,0,0,0-.24.55,11.62,11.62,0,0,1-2.38,4.54,12.07,12.07,0,0,1-5.79,3.45l-1.26-1.46a11,11,0,0,0,5.66-2.91,7.79,7.79,0,0,0,1.8-3.24h-8.24c-.39,0-1.1,0-1.71.07v-1.68c.63.06,1.24.11,1.71.11h8.28a3.23,3.23,0,0,0,1-.15Zm-10.69-4.45a14.65,14.65,0,0,0,1.54.08h6.3a15.2,15.2,0,0,0,1.59-.08v1.66c-.41,0-1,0-1.6,0h-6.29c-.51,0-1.09,0-1.54,0Z"/><path class="cls-2" d="M571.58,196.33a6.56,6.56,0,0,0-.28,1.1,14.85,14.85,0,0,1-1.55,4.74,10.31,10.31,0,0,1-6.48,4.71l-1.33-1.54a10.93,10.93,0,0,0,1.94-.53,8.35,8.35,0,0,0,4.08-3,11.14,11.14,0,0,0,1.48-4.47h-8.6V200a8.84,8.84,0,0,0,.06,1.07h-1.76c0-.34.07-.81.07-1.16V197a11.62,11.62,0,0,0-.07-1.31,15,15,0,0,0,1.57.08h3.53v-1.39a7.39,7.39,0,0,0-.12-1.35h2a11,11,0,0,0-.1,1.35v1.39h3.27a3.54,3.54,0,0,0,1.21-.16Z"/><path class="cls-2" d="M577.66,198.05a52.86,52.86,0,0,1,6.84,2.58l-.71,1.75a45.92,45.92,0,0,0-6.13-2.51v5c0,.5.05,1.47.12,2.07h-2a17.16,17.16,0,0,0,.13-2.07v-9.35a12.36,12.36,0,0,0-.14-1.81h2c0,.53-.13,1.23-.13,1.81Zm4.62-.78a15,15,0,0,0-1.42-2.48l1.08-.46a18.78,18.78,0,0,1,1.47,2.44Zm2.1-.86A15.92,15.92,0,0,0,582.9,194l1.08-.51a19.24,19.24,0,0,1,1.5,2.4Z"/><path class="cls-2" d="M712.51,198.32a11,11,0,0,0,1.36-.08v1.67c-.37,0-.94,0-1.36,0h-4.16a9.82,9.82,0,0,1-1,4.31,8,8,0,0,1-3.2,3l-1.51-1.1a6.68,6.68,0,0,0,3-2.41,7.43,7.43,0,0,0,1-3.82h-4.68c-.48,0-1,0-1.47,0v-1.68a14,14,0,0,0,1.47.08ZM704,195.75c-.55,0-1.14,0-1.58.06v-1.66a13.39,13.39,0,0,0,1.57.09h5.47a14.48,14.48,0,0,0,1.61-.09v1.66c-.51,0-1.1-.06-1.61-.06Zm8.2-.16a20,20,0,0,0-1.27-2.24l1-.43a21.4,21.4,0,0,1,1.31,2.21Zm1.59-3.35a17.28,17.28,0,0,1,1.34,2.2l-1.05.45a14.39,14.39,0,0,0-1.33-2.21Z"/><path class="cls-2" d="M720,195.13l1.84.38c-.11.4-.26,1-.34,1.37a34.34,34.34,0,0,1-1.42,5,23.12,23.12,0,0,1-2.38,4.52l-1.76-.75a21.33,21.33,0,0,0,2.51-4.43A24,24,0,0,0,720,195.13Zm4.07.36,1.67-.55c.65,1.21,1.73,3.56,2.38,5.19s1.47,4.08,1.91,5.6l-1.85.6a52.31,52.31,0,0,0-1.76-5.63A45.51,45.51,0,0,0,724.1,195.49Zm4.81.13-1,.45a21.15,21.15,0,0,0-1.3-2.23l1.05-.44A20.73,20.73,0,0,1,728.91,195.62Zm1.86-.71-1,.47a17,17,0,0,0-1.32-2.23l1-.44A23,23,0,0,1,730.77,194.91Z"/><path class="cls-2" d="M740.9,204.82a12.05,12.05,0,0,0,.12,1.91h-2a18,18,0,0,0,.1-1.91v-5.76a30.31,30.31,0,0,1-5.86,2.38l-.92-1.57a25.31,25.31,0,0,0,7.3-2.94,18,18,0,0,0,4.22-3.62l1.37,1.24A26,26,0,0,1,740.9,198Z"/><path class="cls-2" d="M758.66,195.25a5.25,5.25,0,0,0-.47.84,22.41,22.41,0,0,1-2.65,4.61,42.82,42.82,0,0,1,4.62,4.74l-1.43,1.26a34.35,34.35,0,0,0-4.28-4.72,20.75,20.75,0,0,1-6.22,4.64l-1.31-1.36a18.17,18.17,0,0,0,6.65-4.74,13.36,13.36,0,0,0,2.57-4.27H750.2c-.63,0-1.5.08-1.76.1v-1.83a16.87,16.87,0,0,0,1.76.11h6a4.85,4.85,0,0,0,1.41-.16Z"/><path class="cls-2" d="M201,149.14c0-1,.66-1.33,1.46-.77l12,8.27a1.15,1.15,0,0,1,0,2l-12,8.27c-.8.55-1.46.21-1.46-.77Z"/><path class="cls-2" d="M334.62,149.14c0-1,.66-1.33,1.47-.77l12,8.27a1.15,1.15,0,0,1,0,2l-12,8.27c-.81.55-1.47.21-1.47-.77Z"/><path class="cls-2" d="M485.4,149.14c0-1,.66-1.33,1.47-.77l12,8.27a1.16,1.16,0,0,1,0,2l-12,8.27c-.81.55-1.47.21-1.47-.77Z"/><path class="cls-2" d="M620.78,149.14c0-1,.66-1.33,1.46-.77l12,8.27a1.15,1.15,0,0,1,0,2l-12,8.27c-.8.55-1.46.21-1.46-.77Z"/><path class="cls-2" d="M316.52,178.09h-3.64V155a6.16,6.16,0,0,0-6.16-6.16h-66a6.16,6.16,0,0,0-6.16,6.16v23.12H231V155a9.81,9.81,0,0,1,9.8-9.8h66a9.82,9.82,0,0,1,9.8,9.8Z"/><rect class="cls-2" x="222.99" y="174.45" width="101.51" height="3.64"/><path class="cls-2" d="M302.13,166.42a5.76,5.76,0,1,1,5.76-5.76A5.76,5.76,0,0,1,302.13,166.42Zm0-7.87a2.12,2.12,0,1,0,2.12,2.11A2.12,2.12,0,0,0,302.13,158.55Z"/><path class="cls-2" d="M301.07,169.88H273.52a9.22,9.22,0,0,1,0-18.43h27.55a9.22,9.22,0,0,1,0,18.43Zm-27.55-14.79a5.58,5.58,0,0,0,0,11.15h27.55a5.58,5.58,0,0,0,0-11.15Z"/><path class="cls-2" d="M252.34,148.81h-3.63v-32a.59.59,0,0,0-.58-.57h-5a.58.58,0,0,0-.57.57v32H239v-32a4.22,4.22,0,0,1,4.21-4.21h5a4.22,4.22,0,0,1,4.21,4.21Z"/><path class="cls-2" d="M308.54,148.81H304.9v-32a.58.58,0,0,0-.57-.57h-5a.59.59,0,0,0-.58.57v32h-3.64v-32a4.22,4.22,0,0,1,4.22-4.21h5a4.22,4.22,0,0,1,4.21,4.21Z"/><path class="cls-2" d="M105.88,252H70a1.71,1.71,0,0,1-1.7-1.71V199.09a1.71,1.71,0,0,1,1.7-1.71H80.9a1.71,1.71,0,0,1,1.7,1.71V243h23.28a1.71,1.71,0,0,1,1.7,1.71v5.57A1.71,1.71,0,0,1,105.88,252Zm-34.16-3.41h32.45v-2.17H80.9a1.7,1.7,0,0,1-1.7-1.7v-43.9H71.72Z"/><path class="cls-2" d="M126.77,239.31H91.62a1.7,1.7,0,0,1-1.7-1.7V195.19a1.7,1.7,0,0,1,1.7-1.7h35.15a1.7,1.7,0,0,1,1.7,1.7v42.42A1.7,1.7,0,0,1,126.77,239.31Zm-33.44-3.4h31.73v-39H93.33Z"/><path class="cls-2" d="M91.62,239.32a1.7,1.7,0,0,1-.58-.11l-10.72-3.9a1.68,1.68,0,0,1-1.12-1.6V199.09a1.68,1.68,0,0,1,1.12-1.6L91,193.59a1.7,1.7,0,0,1,2.29,1.6v42.42a1.7,1.7,0,0,1-.73,1.4A1.73,1.73,0,0,1,91.62,239.32Zm-9-6.8,7.32,2.66V197.62l-7.32,2.66Z"/><path class="cls-2" d="M70,235.42H42.92a1.71,1.71,0,0,1-1.7-1.71V186.34a1.7,1.7,0,0,1,1.7-1.7H59.34a1.71,1.71,0,0,1,1.71,1.7v11h9a1.71,1.71,0,0,1,1.7,1.71v34.62A1.71,1.71,0,0,1,70,235.42ZM44.62,232h23.7V200.79h-9a1.7,1.7,0,0,1-1.7-1.7V188h-13Z"/><path class="cls-2" d="M59.34,213.53a1.7,1.7,0,0,1-1.7-1.7V199.09a1.71,1.71,0,1,1,3.41,0v12.74A1.71,1.71,0,0,1,59.34,213.53Z"/><path class="cls-2" d="M61.94,188H40.32a1.7,1.7,0,0,1-1.7-1.7v-6.5a1.7,1.7,0,0,1,1.7-1.7H61.94a1.7,1.7,0,0,1,1.7,1.7v6.5A1.7,1.7,0,0,1,61.94,188ZM42,184.64H60.24v-3.09H42Z"/><path class="cls-2" d="M126.77,239.32a1.79,1.79,0,0,1-1-.3,1.73,1.73,0,0,1-.74-1.41V195.19a1.73,1.73,0,0,1,.74-1.41,1.71,1.71,0,0,1,1.58-.18l5.17,2c3.27,1.26,5.84,4.62,5.84,7.65v26.32c0,3-2.57,6.39-5.84,7.65l-5.17,2A1.66,1.66,0,0,1,126.77,239.32Zm1.7-41.65v37.46l2.86-1.1c2.15-.83,3.65-3,3.65-4.47V203.24c0-1.45-1.5-3.64-3.65-4.47Z"/><line class="cls-3" x1="120.14" y1="230.46" x2="91.62" y2="230.46"/><line class="cls-3" x1="120.14" y1="223.43" x2="91.62" y2="223.43"/><line class="cls-3" x1="120.14" y1="216.4" x2="91.62" y2="216.4"/><line class="cls-3" x1="120.14" y1="209.37" x2="91.62" y2="209.37"/><line class="cls-3" x1="91.62" y1="202.34" x2="120.14" y2="202.34"/><path class="cls-2" d="M42.92,226.31H32.77a1.7,1.7,0,0,1-1.7-1.7V208.19a1.7,1.7,0,0,1,1.7-1.7H42.92a1.7,1.7,0,0,1,1.7,1.7v16.42A1.7,1.7,0,0,1,42.92,226.31Zm-8.44-3.4h6.74v-13H34.48Z"/><path class="cls-2" d="M26.28,226.31H5.11a1.7,1.7,0,1,1,0-3.4H24.57v-13H-2.3a1.7,1.7,0,0,1-1.7-1.7,1.7,1.7,0,0,1,1.7-1.7H26.28a1.7,1.7,0,0,1,1.7,1.7v16.42A1.7,1.7,0,0,1,26.28,226.31Z"/><path class="cls-2" d="M59.34,181.55H42.92a1.7,1.7,0,0,1-1.7-1.71V158.68a1.7,1.7,0,1,1,3.4,0v19.46h13V158.68a1.71,1.71,0,1,1,3.41,0v21.16A1.71,1.71,0,0,1,59.34,181.55Z"/><path class="cls-2" d="M32.77,228.91H26.28a1.71,1.71,0,0,1-1.71-1.7V205.59a1.71,1.71,0,0,1,1.71-1.7h6.49a1.71,1.71,0,0,1,1.71,1.7v21.62A1.71,1.71,0,0,1,32.77,228.91ZM28,225.51h3.09V207.29H28Z"/><path class="cls-2" d="M166,143.11H76.56a1.82,1.82,0,0,1-1.82-1.82V96.75a1.82,1.82,0,0,1,1.82-1.82H166a1.82,1.82,0,0,1,1.82,1.82v44.54A1.82,1.82,0,0,1,166,143.11Zm-87.61-3.64h85.79V98.57H78.38Z"/><path class="cls-2" d="M163.53,98.57H79a1.81,1.81,0,0,1-1.82-1.82V84.13A1.82,1.82,0,0,1,79,82.31h84.51a1.82,1.82,0,0,1,1.82,1.82V96.75A1.81,1.81,0,0,1,163.53,98.57Zm-82.7-3.64h80.88V86H80.83Z"/><path class="cls-2" d="M161.07,86H81.48a1.81,1.81,0,0,1-1.82-1.82V71.51a1.81,1.81,0,0,1,1.82-1.81h79.59a1.81,1.81,0,0,1,1.82,1.81V84.13A1.81,1.81,0,0,1,161.07,86ZM83.29,82.31h76v-9h-76Z"/><path class="cls-2" d="M116.35,79.64H90.09a1.82,1.82,0,0,1,0-3.64h26.26a1.82,1.82,0,1,1,0,3.64Z"/><path class="cls-2" d="M152.46,79.64H126.2a1.82,1.82,0,0,1,0-3.64h26.26a1.82,1.82,0,1,1,0,3.64Z"/><path class="cls-2" d="M116.35,92.26H90.09a1.82,1.82,0,1,1,0-3.64h26.26a1.82,1.82,0,1,1,0,3.64Z"/><path class="cls-2" d="M152.46,92.26H126.2a1.82,1.82,0,0,1,0-3.64h26.26a1.82,1.82,0,0,1,0,3.64Z"/><path class="cls-2" d="M121.45,128.7H85.94a1.82,1.82,0,0,1-1.82-1.82v-19.5a1.82,1.82,0,0,1,1.82-1.82h35.51a1.82,1.82,0,0,1,1.82,1.82v19.5A1.82,1.82,0,0,1,121.45,128.7Zm-33.69-3.64h31.87V109.2H87.76Z"/><rect class="cls-2" x="132.13" y="114.11" width="6.03" height="6.03" transform="translate(147.89 295.52) rotate(-135)"/><path class="cls-2" d="M135.15,123.21a1.8,1.8,0,0,1-1.29-.53l-4.26-4.26a1.83,1.83,0,0,1,0-2.58l4.26-4.26a1.83,1.83,0,0,1,2.58,0l4.26,4.26a1.83,1.83,0,0,1,0,2.58l-4.26,4.26A1.8,1.8,0,0,1,135.15,123.21Zm-1.69-6.08,1.69,1.69,1.69-1.69-1.69-1.69Z"/><rect class="cls-2" x="149.24" y="114.11" width="6.03" height="6.03" transform="translate(177.1 307.62) rotate(-135)"/><path class="cls-2" d="M152.26,123.21a1.8,1.8,0,0,1-1.29-.53l-4.26-4.26a1.83,1.83,0,0,1,0-2.58l4.26-4.26a1.83,1.83,0,0,1,2.58,0l4.26,4.26a1.83,1.83,0,0,1,0,2.58l-4.26,4.26A1.8,1.8,0,0,1,152.26,123.21Zm-1.69-6.08,1.69,1.69,1.69-1.69-1.69-1.69Z"/><rect class="cls-2" x="140.69" y="122.67" width="6.03" height="6.03" transform="translate(156.45 316.17) rotate(-135)"/><path class="cls-2" d="M143.7,131.77a1.82,1.82,0,0,1-1.28-.53L138.15,127a1.82,1.82,0,0,1,0-2.57l4.27-4.27a1.82,1.82,0,0,1,2.57,0l4.26,4.27a1.8,1.8,0,0,1,0,2.57L145,131.24A1.84,1.84,0,0,1,143.7,131.77ZM142,125.68l1.69,1.7,1.7-1.7L143.7,124Z"/><rect class="cls-2" x="140.69" y="105.56" width="6.03" height="6.03" transform="translate(168.54 286.96) rotate(-135)"/><path class="cls-2" d="M143.7,114.66a1.82,1.82,0,0,1-1.28-.53l-4.27-4.27a1.82,1.82,0,0,1,0-2.57l4.27-4.27a1.82,1.82,0,0,1,2.57,0l4.26,4.27a1.8,1.8,0,0,1,0,2.57L145,114.13A1.84,1.84,0,0,1,143.7,114.66ZM142,108.58l1.69,1.69,1.7-1.69-1.7-1.7Z"/><path class="cls-2" d="M117.16,195.2a1.64,1.64,0,0,1-1.55-2.1l7.43-24h-7.65a1.61,1.61,0,0,1-1.54-2.09l8.08-26.15a1.62,1.62,0,1,1,3.09,1l-7.43,24h7.65a1.61,1.61,0,0,1,1.54,2.09l-8.08,26.15A1.63,1.63,0,0,1,117.16,195.2Z"/><rect class="cls-1" x="145.34" y="219.08" width="31.17" height="31.17" rx="4.11"/><path class="cls-2" d="M172.4,251.22H149.46a5.09,5.09,0,0,1-5.08-5.08V223.2a5.09,5.09,0,0,1,5.08-5.09H172.4a5.09,5.09,0,0,1,5.08,5.09v22.94A5.09,5.09,0,0,1,172.4,251.22Zm-22.94-31.17a3.15,3.15,0,0,0-3.15,3.15v22.94a3.15,3.15,0,0,0,3.15,3.14H172.4a3.15,3.15,0,0,0,3.15-3.14V223.2a3.16,3.16,0,0,0-3.15-3.15Z"/><path class="cls-2" d="M163.22,237.39V224.45a2.29,2.29,0,0,0-4.58,0v12.94a5.25,5.25,0,1,0,4.58,0Z"/><path class="cls-2" d="M160.93,248.08a6,6,0,0,1-6-6,5.91,5.91,0,0,1,3-5.14V224.45a3,3,0,0,1,6,0V237a5.91,5.91,0,0,1,3,5.14A6,6,0,0,1,160.93,248.08Zm0-25.2a1.57,1.57,0,0,0-1.57,1.57v12.94a.73.73,0,0,1-.4.65,4.53,4.53,0,1,0,3.94,0,.71.71,0,0,1-.4-.65V224.45A1.58,1.58,0,0,0,160.93,222.88Z"/><circle class="cls-1" cx="160.93" cy="242.1" r="1.94"/><path class="cls-1" d="M160.93,244.76a2.66,2.66,0,1,1,2.66-2.66A2.66,2.66,0,0,1,160.93,244.76Zm0-3.87a1.21,1.21,0,1,0,1.21,1.21A1.21,1.21,0,0,0,160.93,240.89Z"/><path class="cls-1" d="M160.93,240.22a.73.73,0,0,1-.73-.73v-15a.73.73,0,0,1,.73-.73.73.73,0,0,1,.72.73v15A.73.73,0,0,1,160.93,240.22Z"/><path class="cls-2" d="M168.07,226.47h-4.85a.61.61,0,0,1,0-1.21h4.85a.61.61,0,1,1,0,1.21Z"/><path class="cls-2" d="M166.29,228.86h-3.07a.61.61,0,0,1,0-1.21h3.07a.61.61,0,0,1,0,1.21Z"/><path class="cls-2" d="M166.29,233.65h-3.07a.61.61,0,0,1,0-1.21h3.07a.61.61,0,0,1,0,1.21Z"/><path class="cls-2" d="M168.07,231.26h-4.85a.61.61,0,0,1,0-1.21h4.85a.61.61,0,1,1,0,1.21Z"/><path class="cls-2" d="M172.4,215.24H149.46a5.09,5.09,0,0,1-5.08-5.09V187.21a5.09,5.09,0,0,1,5.08-5.08H172.4a5.09,5.09,0,0,1,5.08,5.08v22.94A5.09,5.09,0,0,1,172.4,215.24Zm-22.94-31.17a3.15,3.15,0,0,0-3.15,3.14v22.94a3.15,3.15,0,0,0,3.15,3.15H172.4a3.16,3.16,0,0,0,3.15-3.15V187.21a3.15,3.15,0,0,0-3.15-3.14Z"/><rect class="cls-2" x="150.79" y="201.5" width="20.28" height="5.26" transform="translate(-43.2 365.06) rotate(-90)"/><path class="cls-2" d="M163.56,215H158.3a.73.73,0,0,1-.73-.72V194a.73.73,0,0,1,.73-.73h5.26a.73.73,0,0,1,.73.73v20.28A.73.73,0,0,1,163.56,215ZM159,213.54h3.81V194.71H159Z"/><circle class="cls-2" cx="160.93" cy="198.6" r="11.24"/><path class="cls-2" d="M160.93,210.57a12,12,0,1,1,12-12A12,12,0,0,1,160.93,210.57Zm0-22.49a10.52,10.52,0,1,0,10.52,10.52A10.53,10.53,0,0,0,160.93,188.08Z"/><circle class="cls-1" cx="160.93" cy="198.6" r="8.9"/><path class="cls-1" d="M160.93,208.23a9.63,9.63,0,1,1,9.63-9.63A9.64,9.64,0,0,1,160.93,208.23Zm0-17.81a8.18,8.18,0,1,0,8.18,8.18A8.19,8.19,0,0,0,160.93,190.42Z"/><polygon class="cls-2" points="160.62 197.43 163.01 193.22 161.95 197.94 160.93 198.6 160.62 197.43"/><path class="cls-2" d="M160.93,198.84h-.09a.26.26,0,0,1-.15-.17l-.3-1.17a.22.22,0,0,1,0-.18l2.39-4.21a.24.24,0,0,1,.44.17L162.18,198a.25.25,0,0,1-.1.15l-1,.66A.22.22,0,0,1,160.93,198.84Zm-.05-1.38.2.75.65-.42.68-3Z"/><path class="cls-2" d="M166.19,204.47a.58.58,0,0,1-.42-.18.59.59,0,0,1,0-.85,6.84,6.84,0,1,0-9.68,0,.6.6,0,1,1-.85.85,8.05,8.05,0,1,1,11.38,0A.6.6,0,0,1,166.19,204.47Z"/><path class="cls-2" d="M160.93,193.65a.6.6,0,0,1-.61-.6v-1.89a.61.61,0,1,1,1.21,0v1.89A.6.6,0,0,1,160.93,193.65Z"/><path class="cls-2" d="M157,195.28a.61.61,0,0,1-.43-.18l-1.33-1.34a.6.6,0,0,1,.85-.85l1.34,1.34a.59.59,0,0,1,0,.85A.6.6,0,0,1,157,195.28Z"/><path class="cls-2" d="M155.38,199.2h-1.9a.6.6,0,0,1,0-1.2h1.9a.6.6,0,1,1,0,1.2Z"/><path class="cls-2" d="M155.67,204.47a.6.6,0,0,1-.43-.18.59.59,0,0,1,0-.85l1.33-1.34a.61.61,0,0,1,.86.86l-1.34,1.33A.59.59,0,0,1,155.67,204.47Z"/><path class="cls-2" d="M164.86,195.28a.6.6,0,0,1-.43-.18.59.59,0,0,1,0-.85l1.34-1.34a.6.6,0,0,1,.85.85l-1.34,1.34A.58.58,0,0,1,164.86,195.28Z"/><path class="cls-2" d="M168.37,199.2h-1.89a.6.6,0,0,1,0-1.2h1.89a.6.6,0,1,1,0,1.2Z"/><path class="cls-2" d="M166.19,204.47a.58.58,0,0,1-.42-.18L164.43,203a.6.6,0,0,1,0-.86.59.59,0,0,1,.85,0l1.34,1.34a.59.59,0,0,1,0,.85A.6.6,0,0,1,166.19,204.47Z"/><circle class="cls-1" cx="160.93" cy="198.6" r="1.34"/><path class="cls-2" d="M160.93,200.67A2.07,2.07,0,1,1,163,198.6,2.07,2.07,0,0,1,160.93,200.67Zm0-2.68a.61.61,0,0,0-.62.61.62.62,0,0,0,.62.62.61.61,0,0,0,.61-.62A.61.61,0,0,0,160.93,198Z"/><path class="cls-2" d="M208.38,215.19H185.44a5,5,0,0,1-5-5V198.68a.92.92,0,0,1,1.83,0v11.47a3.2,3.2,0,0,0,3.2,3.2h22.94a3.2,3.2,0,0,0,3.2-3.2v-7.94a.92.92,0,1,1,1.83,0v7.94A5,5,0,0,1,208.38,215.19Z"/><path class="cls-2" d="M212.5,199.6a.92.92,0,0,1-.92-.92V187.21a3.2,3.2,0,0,0-3.2-3.19H185.44a3.2,3.2,0,0,0-3.2,3.19v7.95a.92.92,0,1,1-1.83,0v-7.95a5,5,0,0,1,5-5h22.94a5,5,0,0,1,5,5v11.47A.92.92,0,0,1,212.5,199.6Z"/><path class="cls-2" d="M197.75,211.15h0a.92.92,0,0,1-.87-.82L195,191.87l-2.93,11.7a.91.91,0,0,1-.88.69h0a.92.92,0,0,1-.88-.68l-2-7.52-.64,2.83a.92.92,0,0,1-.9.71h-5.47a.92.92,0,1,1,0-1.83h4.74l1.31-5.74a.92.92,0,0,1,.88-.71.9.9,0,0,1,.9.68l2,7.67,3.35-13.39a.94.94,0,0,1,.95-.7.92.92,0,0,1,.85.83l1.7,17.44,2.21-11.43a.91.91,0,0,1,1.8,0l1.64,10.18,2.3-4.37a.92.92,0,0,1,.81-.49h5.69a.92.92,0,0,1,0,1.83h-5.14L204,205.92a.9.9,0,0,1-1,.48.92.92,0,0,1-.76-.76l-1.24-7.78-2.43,12.54A.92.92,0,0,1,197.75,211.15Z"/><rect class="cls-1" x="181.33" y="219.08" width="31.17" height="31.17" rx="4.11"/><path class="cls-2" d="M208.38,251.22H185.44a5.09,5.09,0,0,1-5.08-5.08V223.2a5.09,5.09,0,0,1,5.08-5.09h22.94a5.09,5.09,0,0,1,5.08,5.09v22.94A5.09,5.09,0,0,1,208.38,251.22Zm-22.94-31.17a3.16,3.16,0,0,0-3.15,3.15v22.94a3.15,3.15,0,0,0,3.15,3.14h22.94a3.15,3.15,0,0,0,3.15-3.14V223.2a3.15,3.15,0,0,0-3.15-3.15Z"/><rect class="cls-2" x="184.9" y="222.66" width="24.02" height="15.68" rx="1.37"/><polygon class="cls-1" points="197 236.54 201.58 230.25 198.42 237.37 196.91 238.34 197 236.54"/><path class="cls-1" d="M196.91,238.7a.41.41,0,0,1-.18,0,.35.35,0,0,1-.18-.33l.08-1.79a.48.48,0,0,1,.07-.2l4.59-6.3a.36.36,0,0,1,.62.36l-3.16,7.12a.29.29,0,0,1-.13.16l-1.51,1A.36.36,0,0,1,196.91,238.7Zm.44-2,0,1,.82-.53,1.74-3.9Z"/><path class="cls-1" d="M194.73,238.34a2.19,2.19,0,1,1,4.37,0Z"/><path class="cls-1" d="M199.1,239.06h-4.37a.73.73,0,0,1-.73-.72,2.91,2.91,0,0,1,5.82,0A.72.72,0,0,1,199.1,239.06Zm-3.45-1.45h2.53a1.47,1.47,0,0,0-1.27-.73A1.44,1.44,0,0,0,195.65,237.61Z"/><path class="cls-1" d="M205.68,229.57a12.41,12.41,0,0,0-17.54,0l-.85-.86a13.63,13.63,0,0,1,19.25,0Z"/><path class="cls-1" d="M196.91,227.75a.6.6,0,0,1-.6-.61v-1.81a.61.61,0,0,1,1.21,0v1.81A.61.61,0,0,1,196.91,227.75Z"/><path class="cls-1" d="M189,231a.6.6,0,0,1-.43-.18l-1.28-1.28a.6.6,0,0,1,0-.86.61.61,0,0,1,.85,0l1.28,1.28a.6.6,0,0,1,0,.86A.59.59,0,0,1,189,231Z"/><path class="cls-1" d="M191.31,229.25a.59.59,0,0,1-.52-.31l-.91-1.57a.61.61,0,0,1,.23-.82.6.6,0,0,1,.82.22l.91,1.57a.62.62,0,0,1-.22.83A.68.68,0,0,1,191.31,229.25Z"/><path class="cls-1" d="M194,228.13a.61.61,0,0,1-.58-.45l-.47-1.75a.61.61,0,0,1,1.17-.31l.47,1.75a.62.62,0,0,1-.43.74Z"/><path class="cls-1" d="M199.81,228.13l-.16,0a.62.62,0,0,1-.43-.74l.47-1.75a.61.61,0,0,1,.74-.43.6.6,0,0,1,.43.74l-.47,1.75A.6.6,0,0,1,199.81,228.13Z"/><path class="cls-1" d="M202.51,229.25a.64.64,0,0,1-.3-.08.61.61,0,0,1-.22-.83l.9-1.57a.61.61,0,0,1,1.05.61L203,229A.6.6,0,0,1,202.51,229.25Z"/><path class="cls-1" d="M204.83,231a.61.61,0,0,1-.43-1l1.28-1.28a.61.61,0,1,1,.86.86l-1.29,1.28A.58.58,0,0,1,204.83,231Z"/><circle class="cls-1" cx="196.91" cy="243.88" r="2.76"/><path class="cls-2" d="M196.91,247.36a3.49,3.49,0,1,1,3.48-3.48A3.48,3.48,0,0,1,196.91,247.36Zm0-5.51a2,2,0,1,0,2,2A2,2,0,0,0,196.91,241.85Z"/></svg>