<svg id="レイヤー_1" data-name="レイヤー 1" xmlns="http://www.w3.org/2000/svg" viewBox="0 0 668.22 529.08"><defs><style>.cls-1,.cls-3{fill:#f7f9f9;}.cls-2{fill:#172788;}.cls-3{stroke:#172788;stroke-linecap:round;stroke-linejoin:round;stroke-width:5.87px;}.cls-4{fill:#162789;}.cls-5{fill:#e50020;}.cls-6{opacity:0.5;}.cls-7{fill:#c30d23;}</style></defs><title>アートボード 5</title><polygon class="cls-1" points="486.51 460.93 486.51 381.39 467.54 381.39 467.54 470.65 530.07 470.65 530.07 460.93 486.51 460.93"/><path class="cls-2" d="M530.07,473.59H467.54a2.94,2.94,0,0,1-2.94-2.93V381.39a2.94,2.94,0,0,1,2.94-2.93h19a2.93,2.93,0,0,1,2.93,2.93V458h40.63a2.94,2.94,0,0,1,2.94,2.94v9.73A2.94,2.94,0,0,1,530.07,473.59Zm-59.6-5.87h56.67v-3.86H486.51a2.93,2.93,0,0,1-2.93-2.93V384.32H470.47Z"/><rect class="cls-1" x="505.21" y="374.59" width="61.3" height="73.99"/><path class="cls-2" d="M566.51,451.52h-61.3a2.93,2.93,0,0,1-2.93-2.93v-74a2.93,2.93,0,0,1,2.93-2.93h61.3a2.93,2.93,0,0,1,2.93,2.93v74A2.93,2.93,0,0,1,566.51,451.52Zm-58.36-5.87h55.43V377.52H508.15Z"/><polygon class="cls-1" points="486.51 381.39 505.21 374.59 505.21 448.59 486.51 441.79 486.51 381.39"/><path class="cls-2" d="M505.21,451.52a2.94,2.94,0,0,1-1-.18l-18.7-6.8a2.92,2.92,0,0,1-1.93-2.75v-60.4a3,3,0,0,1,1.93-2.76l18.7-6.8a2.94,2.94,0,0,1,3.94,2.76v74a2.93,2.93,0,0,1-2.94,2.93Zm-15.77-11.79,12.84,4.67V378.78l-12.84,4.67Z"/><polygon class="cls-1" points="448.91 359.16 448.91 381.39 467.54 381.39 467.54 448.59 420.26 448.59 420.26 359.16 448.91 359.16"/><path class="cls-2" d="M467.54,451.52H420.27a2.94,2.94,0,0,1-2.94-2.93V359.16a2.94,2.94,0,0,1,2.94-2.93h28.64a2.93,2.93,0,0,1,2.93,2.93v19.3h15.7a2.93,2.93,0,0,1,2.93,2.93v67.2A2.93,2.93,0,0,1,467.54,451.52Zm-44.34-5.87h41.4V384.32H448.91a2.93,2.93,0,0,1-2.93-2.93V362.1H423.2Z"/><path class="cls-2" d="M448.91,406.55a2.93,2.93,0,0,1-2.93-2.93V381.39a2.93,2.93,0,1,1,5.86,0v22.23A2.93,2.93,0,0,1,448.91,406.55Z"/><rect class="cls-1" x="415.73" y="347.83" width="37.71" height="11.33"/><path class="cls-2" d="M453.44,362.1H415.73a2.94,2.94,0,0,1-2.93-2.94V347.83a2.93,2.93,0,0,1,2.93-2.93h37.71a2.94,2.94,0,0,1,2.94,2.93v11.33A2.94,2.94,0,0,1,453.44,362.1Zm-34.77-5.87h31.84v-5.47H418.67Z"/><path class="cls-1" d="M566.51,374.59l9,3.48c4.56,1.75,8.28,6.5,8.28,10.57v45.9c0,4.06-3.72,8.82-8.28,10.57l-9,3.48Z"/><path class="cls-2" d="M566.51,451.52a2.94,2.94,0,0,1-2.93-2.93v-74a2.92,2.92,0,0,1,1.27-2.42,3,3,0,0,1,2.71-.32l9,3.48c5.69,2.19,10.15,8,10.15,13.31v45.9c0,5.27-4.46,11.12-10.15,13.31l-9,3.47A3,3,0,0,1,566.51,451.52Zm2.93-72.66v65.45l5-1.94c3.41-1.31,6.4-5,6.4-7.83v-45.9c0-2.87-3-6.52-6.4-7.84Z"/><line class="cls-3" x1="554.95" y1="436.12" x2="505.21" y2="436.12"/><line class="cls-3" x1="554.95" y1="423.85" x2="505.21" y2="423.85"/><line class="cls-3" x1="554.95" y1="411.59" x2="505.21" y2="411.59"/><line class="cls-3" x1="554.95" y1="399.32" x2="505.21" y2="399.32"/><line class="cls-3" x1="505.21" y1="387.06" x2="554.95" y2="387.06"/><rect class="cls-1" x="402.57" y="397.27" width="17.7" height="28.64"/><path class="cls-2" d="M420.27,428.84h-17.7a2.93,2.93,0,0,1-2.93-2.93V397.27a2.94,2.94,0,0,1,2.93-2.94h17.7a2.94,2.94,0,0,1,2.93,2.94v28.64A2.93,2.93,0,0,1,420.27,428.84ZM405.5,423h11.83V400.2H405.5Z"/><rect class="cls-1" x="391.24" y="392.73" width="11.33" height="37.71"/><path class="cls-2" d="M402.57,433.38H391.24a2.94,2.94,0,0,1-2.94-2.94V392.73a2.94,2.94,0,0,1,2.94-2.93h11.33a2.93,2.93,0,0,1,2.93,2.93v37.71A2.94,2.94,0,0,1,402.57,433.38Zm-8.4-5.87h5.47V395.67h-5.47Z"/><rect class="cls-1" x="395.38" y="440.2" width="51.42" height="51.42" rx="6.79"/><path class="cls-2" d="M440,493.22H402.17a8.4,8.4,0,0,1-8.39-8.38V447a8.4,8.4,0,0,1,8.39-8.38H440A8.39,8.39,0,0,1,448.4,447v37.85A8.39,8.39,0,0,1,440,493.22ZM402.17,441.8A5.2,5.2,0,0,0,397,447v37.85a5.2,5.2,0,0,0,5.19,5.19H440a5.2,5.2,0,0,0,5.2-5.19V447a5.2,5.2,0,0,0-5.2-5.19Z"/><path class="cls-2" d="M424.88,470.39V449.06a3.79,3.79,0,0,0-7.57,0v21.33a8.67,8.67,0,1,0,7.57,0Z"/><path class="cls-2" d="M421.09,488a9.86,9.86,0,0,1-5-18.37V449.06a5,5,0,0,1,10,0v20.61a9.86,9.86,0,0,1-5,18.37Zm0-41.57a2.59,2.59,0,0,0-2.58,2.59v21.33a1.19,1.19,0,0,1-.68,1.07,7.47,7.47,0,1,0,6.52,0,1.19,1.19,0,0,1-.67-1.07V449.06A2.59,2.59,0,0,0,421.09,446.47Z"/><circle class="cls-1" cx="421.09" cy="478.17" r="3.2"/><path class="cls-1" d="M421.09,482.57a4.4,4.4,0,1,1,4.39-4.4A4.4,4.4,0,0,1,421.09,482.57Zm0-6.39a2,2,0,1,0,2,2A2,2,0,0,0,421.09,476.18Z"/><path class="cls-1" d="M421.09,475.07a1.2,1.2,0,0,1-1.2-1.2V449.06a1.2,1.2,0,0,1,2.4,0v24.81A1.2,1.2,0,0,1,421.09,475.07Z"/><path class="cls-2" d="M432.88,452.39h-8a1,1,0,0,1,0-2h8a1,1,0,0,1,0,2Z"/><path class="cls-2" d="M429.93,456.34h-5.05a1,1,0,0,1,0-2h5.05a1,1,0,0,1,0,2Z"/><path class="cls-2" d="M429.93,464.24h-5.05a1,1,0,1,1,0-2h5.05a1,1,0,1,1,0,2Z"/><path class="cls-2" d="M432.88,460.29h-8a1,1,0,0,1,0-2h8a1,1,0,0,1,0,2Z"/><rect class="cls-1" x="296.49" y="211.45" width="51.42" height="51.42" rx="6.79"/><path class="cls-2" d="M341.12,264.47H303.28a8.4,8.4,0,0,1-8.39-8.39V218.24a8.4,8.4,0,0,1,8.39-8.38h37.84a8.39,8.39,0,0,1,8.39,8.38v37.84A8.39,8.39,0,0,1,341.12,264.47Zm-37.84-51.42a5.2,5.2,0,0,0-5.19,5.19v37.84a5.2,5.2,0,0,0,5.19,5.2h37.84a5.19,5.19,0,0,0,5.19-5.2V218.24a5.19,5.19,0,0,0-5.19-5.19Z"/><rect class="cls-2" x="305.47" y="241.8" width="33.46" height="8.68" transform="translate(76.06 568.34) rotate(-90)"/><path class="cls-2" d="M326.54,264.07h-8.68a1.2,1.2,0,0,1-1.2-1.2V229.41a1.2,1.2,0,0,1,1.2-1.2h8.68a1.2,1.2,0,0,1,1.2,1.2v33.46A1.2,1.2,0,0,1,326.54,264.07Zm-7.48-2.39h6.28V230.61h-6.28Z"/><circle class="cls-2" cx="322.2" cy="237.02" r="18.55"/><path class="cls-2" d="M322.2,256.77A19.75,19.75,0,1,1,342,237,19.77,19.77,0,0,1,322.2,256.77Zm0-37.1A17.36,17.36,0,1,0,339.55,237,17.37,17.37,0,0,0,322.2,219.67Z"/><circle class="cls-1" cx="322.2" cy="237.02" r="14.68"/><path class="cls-1" d="M322.2,252.91A15.89,15.89,0,1,1,338.08,237,15.9,15.9,0,0,1,322.2,252.91Zm0-29.37A13.49,13.49,0,1,0,335.69,237,13.5,13.5,0,0,0,322.2,223.54Z"/><polygon class="cls-2" points="321.7 235.09 325.63 228.14 323.88 235.93 322.2 237.03 321.7 235.09"/><path class="cls-2" d="M322.2,237.42a.32.32,0,0,1-.14,0,.44.44,0,0,1-.25-.27l-.5-1.94a.39.39,0,0,1,0-.3l3.93-6.94a.4.4,0,0,1,.49-.18.4.4,0,0,1,.25.46L324.27,236a.43.43,0,0,1-.17.24l-1.68,1.1A.43.43,0,0,1,322.2,237.42Zm-.08-2.28.33,1.25,1.07-.71,1.13-5Z"/><path class="cls-2" d="M330.89,246.71a1,1,0,0,1-.71-1.71,11.28,11.28,0,1,0-16,0,1,1,0,0,1-1.41,1.42,13.28,13.28,0,1,1,18.78,0A1,1,0,0,1,330.89,246.71Z"/><path class="cls-2" d="M322.2,228.86a1,1,0,0,1-1-1v-3.12a1,1,0,0,1,2,0v3.12A1,1,0,0,1,322.2,228.86Z"/><path class="cls-2" d="M315.72,231.54a1,1,0,0,1-.7-.29l-2.21-2.2a1,1,0,0,1,0-1.42,1,1,0,0,1,1.41,0l2.21,2.2a1,1,0,0,1,0,1.41A1,1,0,0,1,315.72,231.54Z"/><path class="cls-2" d="M313,238h-3.12a1,1,0,1,1,0-2H313a1,1,0,1,1,0,2Z"/><path class="cls-2" d="M313.52,246.71a1,1,0,0,1-.71-.29,1,1,0,0,1,0-1.42l2.21-2.2a1,1,0,1,1,1.41,1.41l-2.21,2.2A1,1,0,0,1,313.52,246.71Z"/><path class="cls-2" d="M328.68,231.54a1,1,0,0,1-.71-1.7l2.21-2.21a1,1,0,0,1,1.41,1.42l-2.2,2.2A1,1,0,0,1,328.68,231.54Z"/><path class="cls-2" d="M334.48,238h-3.12a1,1,0,0,1,0-2h3.12a1,1,0,1,1,0,2Z"/><path class="cls-2" d="M330.89,246.71a1,1,0,0,1-.71-.29L328,244.21a1,1,0,0,1,0-1.41,1,1,0,0,1,1.42,0l2.2,2.2a1,1,0,0,1-.7,1.71Z"/><circle class="cls-1" cx="322.2" cy="237.02" r="2.21"/><path class="cls-2" d="M322.2,240.43a3.41,3.41,0,1,1,3.41-3.41A3.41,3.41,0,0,1,322.2,240.43Zm0-4.42a1,1,0,0,0,0,2,1,1,0,1,0,0-2Z"/><polyline class="cls-1" points="0 397.27 391.24 397.27 391.24 425.91 0 425.91"/><path class="cls-2" d="M391.24,428.84H0V423H388.3V400.2H0v-5.87H391.24a2.94,2.94,0,0,1,2.93,2.94v28.64A2.93,2.93,0,0,1,391.24,428.84Z"/><path class="cls-2" d="M448.91,350.76H420.27a2.94,2.94,0,0,1-2.94-2.93V334.6h5.87v10.3H446V61.82A15.93,15.93,0,0,1,461.89,45.9H668.22v5.87H461.89a10.06,10.06,0,0,0-10.05,10v286A2.93,2.93,0,0,1,448.91,350.76Z"/><path class="cls-2" d="M423.2,306h-5.87V51.39a34.17,34.17,0,0,1,34.13-34.13H668.22v5.86H451.46A28.3,28.3,0,0,0,423.2,51.39Z"/><path class="cls-4" d="M198.59,122.78H95.3a2.37,2.37,0,0,1-2.37-2.37V69A2.37,2.37,0,0,1,95.3,66.6H198.59A2.37,2.37,0,0,1,201,69v51.43A2.37,2.37,0,0,1,198.59,122.78ZM97.68,118h98.53V71.35H97.68Z"/><path class="cls-4" d="M195.75,71.35H98.14A2.37,2.37,0,0,1,95.77,69V54.4A2.37,2.37,0,0,1,98.14,52h97.61a2.37,2.37,0,0,1,2.37,2.37V69A2.37,2.37,0,0,1,195.75,71.35ZM100.52,66.6h92.85V56.78H100.52Z"/><path class="cls-4" d="M192.9,56.78H101a2.38,2.38,0,0,1-2.37-2.38V39.83A2.37,2.37,0,0,1,101,37.46H192.9a2.37,2.37,0,0,1,2.38,2.37V54.4A2.38,2.38,0,0,1,192.9,56.78ZM103.36,52h87.17V42.21H103.36Z"/><path class="cls-4" d="M141.26,49.49H110.93a2.38,2.38,0,1,1,0-4.75h30.33a2.38,2.38,0,1,1,0,4.75Z"/><path class="cls-4" d="M183,49.49H152.63a2.38,2.38,0,1,1,0-4.75H183a2.38,2.38,0,0,1,0,4.75Z"/><path class="cls-4" d="M141.26,64.06H110.93a2.37,2.37,0,1,1,0-4.74h30.33a2.37,2.37,0,1,1,0,4.74Z"/><path class="cls-4" d="M183,64.06H152.63a2.37,2.37,0,1,1,0-4.74H183a2.37,2.37,0,1,1,0,4.74Z"/><path class="cls-4" d="M147.14,106.14h-41a2.37,2.37,0,0,1-2.37-2.37V81.25a2.38,2.38,0,0,1,2.37-2.38h41a2.39,2.39,0,0,1,2.38,2.38v22.52A2.38,2.38,0,0,1,147.14,106.14Zm-38.62-4.74h36.25V83.62H108.52Z"/><rect class="cls-4" x="159.48" y="89.03" width="6.96" height="6.96" transform="translate(212.79 273.16) rotate(-135)"/><path class="cls-4" d="M163,99.81a2.34,2.34,0,0,1-1.68-.7l-4.93-4.92a2.39,2.39,0,0,1,0-3.36l4.93-4.92a2.37,2.37,0,0,1,3.36,0l4.92,4.92a2.37,2.37,0,0,1,0,3.36l-4.92,4.92A2.37,2.37,0,0,1,163,99.81Zm-1.57-7.3L163,94.08l1.56-1.57L163,90.94Z"/><rect class="cls-4" x="179.24" y="89.03" width="6.96" height="6.96" transform="translate(246.52 287.13) rotate(-135)"/><path class="cls-4" d="M182.73,99.81a2.34,2.34,0,0,1-1.68-.7l-4.93-4.92a2.37,2.37,0,0,1,0-3.36l4.93-4.92a2.36,2.36,0,0,1,3.35,0l4.93,4.92a2.37,2.37,0,0,1,0,3.36l-4.93,4.92A2.33,2.33,0,0,1,182.73,99.81Zm-1.57-7.3,1.57,1.57,1.56-1.57-1.56-1.57Z"/><rect class="cls-4" x="169.36" y="98.91" width="6.96" height="6.96" transform="translate(222.67 297.01) rotate(-135)"/><path class="cls-4" d="M172.85,109.69a2.38,2.38,0,0,1-1.68-.7l-4.93-4.92a2.39,2.39,0,0,1,0-3.36l4.93-4.93a2.38,2.38,0,0,1,3.35,0l4.93,4.93a2.37,2.37,0,0,1,0,3.36L174.52,109A2.37,2.37,0,0,1,172.85,109.69Zm-1.57-7.3,1.57,1.57,1.56-1.57-1.56-1.57Z"/><rect class="cls-4" x="169.36" y="79.15" width="6.96" height="6.96" transform="translate(236.64 263.28) rotate(-135)"/><path class="cls-4" d="M172.85,89.93a2.34,2.34,0,0,1-1.68-.7l-4.93-4.92a2.39,2.39,0,0,1,0-3.36L171.17,76a2.36,2.36,0,0,1,3.35,0L179.45,81a2.37,2.37,0,0,1,0,3.36l-4.93,4.92A2.33,2.33,0,0,1,172.85,89.93Zm-1.57-7.3,1.57,1.57,1.56-1.57-1.56-1.57Z"/><path class="cls-4" d="M575.55,324.28h-5v2.22h-1.4v-3.29h6.36v-.86h-5.33v-1.19h12.23v1.19h-5.39v.86h6.47v3.29h-1.45v-2.22h-5V328h-1.51Zm6.14,10.32c.84,0,1-.29,1.11-1.85a3.34,3.34,0,0,0,1.33.5c-.2,2-.66,2.56-2.35,2.56H578.1c-2.07,0-2.64-.39-2.64-1.9v-.32h-3.29v.81h-1.5v-5.93h11.39v5.12H577v.32c0,.59.2.69,1.24.69ZM571,326.72h3.77v.91H571Zm3.75-1.68V326h-3.41V325Zm-2.62,4.52v1h3.29v-1Zm3.29,2.92v-1h-3.29v1Zm5.07-2.92H577v1h3.57Zm0,2.92v-1H577v1Zm.74-7.44V326h-3.44V325Zm-3.44,1.68h3.86v.91h-3.86Z"/><path class="cls-4" d="M589.28,328.05a12.91,12.91,0,0,0-3-1.79l.85-1.17a14,14,0,0,1,3.09,1.63Zm1.61,2.26c-.82,1.77-1.87,3.78-2.81,5.38l-1.34-1a51.64,51.64,0,0,0,3-5.38Zm-.76-6.7a12.53,12.53,0,0,0-3-1.86l.86-1.13a12.21,12.21,0,0,1,3,1.73Zm2.29,4.82h1.41v1.7c0,1.86-.25,4.1-2.5,5.74a5,5,0,0,0-1.1-1,5.33,5.33,0,0,0,2.19-4.77Zm2.85-5.84V320.5h1.6v2.09h4.69V324H596c-.4.76-.86,1.6-1.28,2.31l3.95-.14c-.37-.42-.77-.82-1.14-1.18l1.19-.63a15.75,15.75,0,0,1,3,3.47l-1.31.74a8.67,8.67,0,0,0-.71-1.11c-3,.16-6.15.32-8.38.42l-.17-1.47,1.93-.05A18.87,18.87,0,0,0,594.2,324H591v-1.42Zm0,6h1.38v6.63h-1.38Zm5,5.84a.57.57,0,0,0,.31-.06.87.87,0,0,0,.16-.44c0-.27,0-.86,0-1.63a4.65,4.65,0,0,0,1.06.57,9.9,9.9,0,0,1-.16,1.93,1.11,1.11,0,0,1-.51.69,1.54,1.54,0,0,1-.84.2h-.84a1.43,1.43,0,0,1-1-.35c-.27-.25-.35-.54-.35-1.61v-5.28h1.43v5.38c0,.3,0,.45.08.54a.32.32,0,0,0,.23.06Z"/><path class="cls-4" d="M612.79,329.76a15.82,15.82,0,0,0,2.85-3.75c-.38.09-3.11.62-5.83,1.18v4.75c0,1.11.37,1.48,2.3,1.48a26.34,26.34,0,0,0,5.28-.52l-.07,1.82a39.29,39.29,0,0,1-5.26.35c-3.42,0-4-.88-4-2.67v-4.86l-3.72.77-.32-1.74c.78-.1,2.31-.37,4-.69v-2.67a12.11,12.11,0,0,0-.12-1.72h2a14.06,14.06,0,0,0-.12,1.72v2.33c2.67-.52,5.36-1.06,6.08-1.22a4.76,4.76,0,0,0,1-.34l1.26,1c-.14.21-.34.53-.47.78a24.75,24.75,0,0,1-3.46,4.89Z"/><path class="cls-4" d="M627.93,331a16,16,0,0,0,5.83-6.33l1,1.83a17.33,17.33,0,0,1-5.89,6.08,18.56,18.56,0,0,1-6.44,2.5l-1.12-1.73A17.48,17.48,0,0,0,627.93,331Zm-.57-5.38L626,327a38.55,38.55,0,0,0-4.2-3.56l1.23-1.31A34.57,34.57,0,0,1,627.36,325.59Z"/><path class="cls-4" d="M649.34,324.8a9.33,9.33,0,0,0,1.68-.1v1.78c-.27,0-.88-.05-1.67-.05h-1.59V327c0,4.34-1,6.74-4.91,8.5l-1.43-1.34c3.15-1.16,4.62-2.6,4.62-7.06v-.67h-4.43V329c0,.69,0,1.4.07,1.63h-1.85c0-.23.08-.94.08-1.63v-2.52h-1.64c-.79,0-1.48,0-1.75.05v-1.79a14.87,14.87,0,0,0,1.75.11h1.64v-1.93c0-.59-.06-1.12-.08-1.34h1.88a9.6,9.6,0,0,0-.1,1.34v1.93H646v-1.95a12.7,12.7,0,0,0-.08-1.46h1.9a11.8,11.8,0,0,0-.1,1.46v1.95Z"/><path class="cls-4" d="M570.16,345.31a8.14,8.14,0,0,1,2.42-5.84l.92.44a7.62,7.62,0,0,0,0,10.79l-.92.44A8.14,8.14,0,0,1,570.16,345.31Z"/><path class="cls-4" d="M575.85,341h2.33c2.76,0,4.34,1.53,4.34,4.46s-1.58,4.52-4.26,4.52h-2.41Zm2.24,7.82c1.92,0,3-1.13,3-3.36s-1-3.31-3-3.31h-.82v6.67Z"/><path class="cls-4" d="M589.9,349.94l-2-3.62h-1.45v3.62H585v-9h2.94c1.85,0,3.24.66,3.24,2.6a2.51,2.51,0,0,1-1.88,2.58l2.2,3.8Zm-3.49-4.76h1.36c1.3,0,2-.53,2-1.62s-.71-1.46-2-1.46h-1.36Z"/><path class="cls-4" d="M593.6,341h1.46l3,5.27.94,1.91H599c-.08-.93-.19-2-.19-3V341h1.34v9h-1.45l-3-5.29-.94-1.88h-.06c.08.92.19,2,.19,2.94v4.23H593.6Z"/><path class="cls-4" d="M607.34,347c-.16-.39-.51-1.06-.83-1.64v5.5h-1v-5.17a11.36,11.36,0,0,1-1.31,2.93,5.65,5.65,0,0,0-.54-1,12.84,12.84,0,0,0,1.75-4.36h-1.49v-1.05h1.59V339.7h1v2.58h1.29v1.05h-1.29v.72c.34.45,1.24,1.83,1.44,2.16Zm2.68,1.55a7.53,7.53,0,0,1-1.94,2,3.88,3.88,0,0,0-.71-.69,6.56,6.56,0,0,0,1.77-1.75Zm1.86-.67v1.93c0,.47-.07.75-.43.9a4,4,0,0,1-1.55.16,3.47,3.47,0,0,0-.32-.92,8.94,8.94,0,0,0,1.07,0c.14,0,.17,0,.17-.16v-1.91h-3V347h7.09v.93ZM610,341.14h-2.11v-.92h7v.92h-2.19v.72h1.87v3h-6.32v-3H610Zm-1.4,5.15v-.85h5.68v.85Zm.61-2.29h.89v-1.28h-.89Zm2.62-2.86h-.94v.72h.94Zm-.94,1.58V344h.94v-1.28Zm2.44,5.42A11.86,11.86,0,0,1,615,350l-.84.59a13.44,13.44,0,0,0-1.62-1.88Zm.28-5.42h-1V344h1Z"/><path class="cls-4" d="M618.45,343.45a10.85,10.85,0,0,0-1.93-.95l.57-.77a9.5,9.5,0,0,1,1.94.84Zm9.18,5.2h-5v2.26H621.5v-2.26h-4.81v-1h4.81v-.93h1.16v.93h5Zm-10.78-2.48a25.17,25.17,0,0,0,2.42-2.48l.61.77c-.69.86-1.49,1.77-2.24,2.58Zm2.47-4.64a8.94,8.94,0,0,0-1.91-1l.59-.78a10.24,10.24,0,0,1,1.93.91Zm1.23,1.36c-.22.23-.45.45-.67.65a11.76,11.76,0,0,0-.89-.81,8.46,8.46,0,0,0,2.46-3.09l1.09.34a11.48,11.48,0,0,1-.56,1h1.46a11.87,11.87,0,0,0,.59-1.3l1.23.22c-.22.37-.45.75-.67,1.08h2.51v.89h-2.63v.74h2.24v.83h-2.24v.72h2.27V345h-2.27v.77h2.94v.9h-6.86Zm2.83-1h-1.73v.74h1.73Zm0,1.57h-1.73v.72h1.73Zm0,1.55h-1.73v.77h1.73Z"/><path class="cls-4" d="M633.45,340.13a18.44,18.44,0,0,1-1.23,2.58v8.17h-1.15v-6.4a10.29,10.29,0,0,1-1.07,1.25,7.43,7.43,0,0,0-.68-1.16,13.29,13.29,0,0,0,3-4.79Zm7.06,3.37h-1.45v6c0,.79-.21,1.11-.72,1.28a9.12,9.12,0,0,1-2.7.19,4.64,4.64,0,0,0-.44-1.13c1,.05,2,0,2.29,0s.4-.1.4-.36v-6h-4.78v-1.14h4.78v-2.52h1.17v2.52h1.45Zm-5,4.56a31.55,31.55,0,0,0-1.68-3l1-.46c.59.92,1.38,2.15,1.75,2.88Z"/><path class="cls-4" d="M644.48,342.89v.87c0,2.07-.18,5.1-1.42,7.09a3.33,3.33,0,0,0-1-.58c1.17-1.88,1.28-4.59,1.28-6.51v-3.54h9.14v2.67Zm0-1.78V342h6.91v-.89Zm8.23,8.86c0,.45-.09.66-.41.79a4.29,4.29,0,0,1-1.52.14,4.3,4.3,0,0,0-.29-.78h.13c0-.14-.11-.26-.18-.42-1.49.1-3,.17-4.12.22l-.07-.82,1.92-.06v-.85h-2.31v2.72h-1v-3.49h3.34v-.59h-2.86v-2.1h2.86v-.55c-1,.05-2,.09-2.86.09a2.48,2.48,0,0,0-.22-.72,39.64,39.64,0,0,0,6.3-.48l.65.68a25.36,25.36,0,0,1-2.84.36v.62h3v2.1h-3v.59h3.51Zm-4.54-3.81v-.73h-1.85v.73Zm1-.73v.73h1.9v-.73Zm1.79,4.7h.5c.13,0,.17,0,.17-.16V348.2H649.2V349l.87,0c-.09-.16-.18-.32-.27-.46l.67-.17a8.28,8.28,0,0,1,.89,1.66Z"/><path class="cls-4" d="M658.39,345.31a8.14,8.14,0,0,1-2.42,5.83l-.93-.44a7.59,7.59,0,0,0,0-10.79l.93-.44A8.14,8.14,0,0,1,658.39,345.31Z"/><path class="cls-4" d="M209.67,203.7c0,2.79-.24,6.91-1.85,9.61a6.21,6.21,0,0,0-1.4-.82c1.55-2.54,1.67-6.18,1.67-8.77v-4.81h13.44v1.5H209.67Zm12.18,7.6v1.47H209.3V211.3h5.34v-5h-4.22v-1.48h4.22v-3.56h1.58v3.56h4.52v1.48h-4.52v5Z"/><path class="cls-4" d="M238.74,201.47s0,.55,0,.77c-.37,6.8-.69,9.29-1.42,10.15a2.05,2.05,0,0,1-1.55.77,19.59,19.59,0,0,1-2.67,0,3.94,3.94,0,0,0-.56-1.61c1.11.1,2.14.1,2.56.1a.94.94,0,0,0,.77-.25c.57-.54.92-2.84,1.21-8.34h-5.26a12.15,12.15,0,0,1-6.16,10.35,7.21,7.21,0,0,0-1.21-1.26,10.78,10.78,0,0,0,5.71-9.09h-5.21v-1.59h5.29v-3.53h1.65v3.53Z"/><path class="cls-4" d="M250.69,207.16a15.53,15.53,0,0,0,2.85-3.74l-5.83,1.17v4.76c0,1.11.37,1.48,2.31,1.48a26.3,26.3,0,0,0,5.27-.53l-.07,1.82a39.25,39.25,0,0,1-5.25.35c-3.43,0-4-.87-4-2.67V205l-3.72.77-.31-1.75c.77-.1,2.3-.37,4-.69v-2.67a11.87,11.87,0,0,0-.12-1.71h2a13.76,13.76,0,0,0-.12,1.71V203c2.68-.52,5.36-1.06,6.09-1.23a4.17,4.17,0,0,0,1-.34l1.26,1c-.13.2-.34.52-.47.77a24.18,24.18,0,0,1-3.46,4.89Z"/><path class="cls-4" d="M265.83,208.37a15.9,15.9,0,0,0,5.83-6.33l1,1.83a17.17,17.17,0,0,1-5.89,6.08,18.76,18.76,0,0,1-6.44,2.51l-1.12-1.74A17.48,17.48,0,0,0,265.83,208.37Zm-.57-5.37-1.33,1.36a36.59,36.59,0,0,0-4.2-3.56l1.23-1.31A32.87,32.87,0,0,1,265.26,203Z"/><path class="cls-4" d="M287.24,202.21a10.31,10.31,0,0,0,1.68-.1v1.78a15.63,15.63,0,0,0-1.66,0h-1.6v.57c0,4.33-1,6.73-4.91,8.5l-1.42-1.35c3.14-1.15,4.62-2.6,4.62-7.05v-.67h-4.44v2.52c0,.69.05,1.39.07,1.63h-1.85c0-.24.08-.94.08-1.63v-2.52h-1.64c-.79,0-1.48,0-1.75,0v-1.8a14.37,14.37,0,0,0,1.75.12h1.64v-1.94c0-.58-.06-1.12-.08-1.34h1.88a9.6,9.6,0,0,0-.1,1.34v1.94H284v-2a10.13,10.13,0,0,0-.09-1.46h1.9a11.63,11.63,0,0,0-.1,1.46v2Z"/><path class="cls-4" d="M205.78,222.71a8.12,8.12,0,0,1,2.42-5.84l.92.44a7.62,7.62,0,0,0,0,10.79l-.92.44A8.08,8.08,0,0,1,205.78,222.71Z"/><path class="cls-4" d="M215,222.54a9.17,9.17,0,0,1,2.51-.38c1.8,0,3.15,1,3.15,2.51s-.83,2.45-2.61,2.87a7.37,7.37,0,0,1-1.53.17l-.44-1.22a8.7,8.7,0,0,0,1.46-.08c1-.18,1.9-.72,1.9-1.75s-.84-1.44-1.94-1.44a8.06,8.06,0,0,0-2.48.41c0,1,0,2,0,2.49,0,1.28-.48,1.64-1.18,1.64-1,0-2.66-.95-2.66-2.12s1.23-2.09,2.66-2.71v-.76c0-.42,0-.88,0-1.33a7.72,7.72,0,0,1-.79,0c-.54,0-1.12,0-1.59-.06l0-1.17a12.83,12.83,0,0,0,1.6.09l.83,0c0-.55,0-1,0-1.21a7.06,7.06,0,0,0-.07-.95h1.32c0,.23-.06.63-.07.93s0,.68,0,1.11a14.53,14.53,0,0,0,2.38-.47l0,1.2a24.16,24.16,0,0,1-2.43.4c0,.49,0,1,0,1.39ZM214,225.92c0-.38,0-1.07,0-1.86-.88.43-1.49,1-1.49,1.53s.71.89,1.12.89S214,226.32,214,225.92Zm4.86-7a22.79,22.79,0,0,1,2.85,1.73l-.6,1a17,17,0,0,0-2.79-1.78Z"/><path class="cls-4" d="M232.05,220.57a8,8,0,0,1-2.26,2.31,16.93,16.93,0,0,0,4.56,1.11,5.39,5.39,0,0,0-.73,1.1c-.5-.07-1-.17-1.47-.28v3.47H231v-.37h-4.53v.39h-1.11v-3.38c-.57.17-1.16.3-1.73.43a4.08,4.08,0,0,0-.56-1,17.61,17.61,0,0,0,4.57-1.42,8.45,8.45,0,0,1-1.4-1.2,9.78,9.78,0,0,1-1.72,1,3.2,3.2,0,0,0-.76-.84,7.57,7.57,0,0,0,3.46-2.63l1.19.25c-.14.2-.3.41-.47.62h3.17l.21,0Zm-7.37,0h-1.11v-2.44h4.53v-1h1.16v1h4.59v2.44h-1.16v-1.42h-8Zm6.53,4a13,13,0,0,1-2.51-1,15.82,15.82,0,0,1-2.26,1ZM231,227V225.5h-4.53V227Zm-4-5.87a7.13,7.13,0,0,0,1.67,1.27,7.77,7.77,0,0,0,1.65-1.34h-3.25Z"/><path class="cls-4" d="M239.55,224.36c-.16-.38-.51-1-.83-1.61v5.55h-1.05v-5.16a11.52,11.52,0,0,1-1.31,2.93,5.37,5.37,0,0,0-.53-1,13,13,0,0,0,1.74-4.36h-1.49v-1h1.59v-2.57h1.05v2.57H240v1h-1.31v.67c.33.44,1.23,1.81,1.43,2.13Zm3.25,1.71c-.92.53-1.92,1.1-2.72,1.53l-.52-.95c.76-.34,1.86-.93,2.94-1.51Zm2.33-.92a5,5,0,0,0,2.16,1.71,4.34,4.34,0,0,0-.71.92,6.07,6.07,0,0,1-2.46-2.53v1.87c0,.55-.11.84-.47,1a4.27,4.27,0,0,1-1.66.18,3.94,3.94,0,0,0-.3-1c.47,0,1,0,1.13,0s.2-.05.2-.19v-4.39h-3v-.95h3V221h-2.39v-.86H243v-.69h-2.74v-.91h1.41a10.54,10.54,0,0,0-.55-1.12l.89-.31a6.72,6.72,0,0,1,.71,1.38l-.14.05h1.8a10,10,0,0,0,.63-1.48l1.14.31c-.25.41-.49.83-.71,1.17h1.43v.91h-2.77v.69h2.49V221h-2.49v.76h2.95v.95h-2.95v.52a8,8,0,0,0,.62,1.33,11.65,11.65,0,0,0,1.35-1.5l.87.61a16.28,16.28,0,0,1-1.65,1.6Zm-4-2a9.26,9.26,0,0,1,1.23,1.53l-.83.57a10.23,10.23,0,0,0-1.18-1.58Z"/><path class="cls-4" d="M249.91,219.12c.87-.08,3-.29,5.26-.48,1.28-.11,2.5-.18,3.32-.2v1.23a11.57,11.57,0,0,0-2.36.17,4,4,0,0,0-2.66,3.63c0,2.21,2.05,2.93,4,3l-.44,1.3c-2.37-.12-4.84-1.39-4.84-4.06a4.76,4.76,0,0,1,2-3.91c-1.05.11-4,.4-5.38.69l-.12-1.33C249.25,219.17,249.66,219.15,249.91,219.12Zm7.88,3.57L257,223a11.2,11.2,0,0,0-1-1.71l.73-.32A17.94,17.94,0,0,1,257.79,222.69Zm1.39-.57-.74.37a11.58,11.58,0,0,0-1-1.68l.74-.33A19.29,19.29,0,0,1,259.18,222.12Z"/><path class="cls-4" d="M271,226.88c0,.66-.16,1-.6,1.18a6.85,6.85,0,0,1-2.28.19,4.79,4.79,0,0,0-.38-1.1c.78,0,1.59,0,1.82,0s.3-.08.3-.31v-2.18h-3v3.49h-1.14v-3.49H263a7.07,7.07,0,0,1-1.53,3.7,3.81,3.81,0,0,0-.89-.75c1.33-1.48,1.45-3.64,1.45-5.36v-4.34h9Zm-5.23-3.27v-1.8h-2.64v.48c0,.42,0,.87-.05,1.32ZM263.12,219v1.72h2.64V219Zm6.73,0h-3v1.72h3Zm0,4.59v-1.8h-3v1.8Z"/><path class="cls-4" d="M273.46,227.45a4.12,4.12,0,0,0,1.67-2.09l.94.35a4.56,4.56,0,0,1-1.72,2.35Zm10.84-6.68H273.87v-.92h2.76a5.19,5.19,0,0,0-.41-1l.28-.06h-2.07v-.9h4v-.73h1.14v.73h4.05v.9h-1.93l.31.06q-.33.62-.6,1h2.86ZM283,224.86h-4.25a9.25,9.25,0,0,1,1.61.95l-.69.72a9.19,9.19,0,0,0-2-1.21l.46-.46h-3v-3.57H283Zm-1.13-2.72h-5.62v.55h5.62Zm0,1.31h-5.62V224h5.62Zm-1.59,3.81c.47,0,.56-.13.61-1.12a3.42,3.42,0,0,0,1,.37c-.13,1.35-.44,1.68-1.49,1.68h-2.15c-1.35,0-1.69-.27-1.69-1.26v-1.45h1.1v1.44c0,.29.11.34.7.34Zm-3-8.52a4.7,4.7,0,0,1,.41,1l-.24.06h3l-.19,0a10.33,10.33,0,0,0,.49-1.06Zm5.25,6.5a10.37,10.37,0,0,1,2.1,2.17l-.94.56a9.34,9.34,0,0,0-2-2.21Z"/><path class="cls-4" d="M289.67,222.71a8.08,8.08,0,0,1-2.42,5.83l-.92-.44a7.62,7.62,0,0,0,0-10.79l.92-.44A8.12,8.12,0,0,1,289.67,222.71Z"/><path class="cls-4" d="M322.71,140.62a12.7,12.7,0,0,0-3-1.79l.86-1.17a14.18,14.18,0,0,1,3.09,1.63Zm1.62,2.26c-.83,1.77-1.87,3.78-2.81,5.38l-1.34-1a49.93,49.93,0,0,0,2.95-5.38Zm-.76-6.7a12.74,12.74,0,0,0-3-1.86l.85-1.13a12.47,12.47,0,0,1,3,1.73Zm2.28,4.82h1.42v1.7c0,1.86-.26,4.1-2.51,5.74a5,5,0,0,0-1.09-1,5.33,5.33,0,0,0,2.18-4.77Zm2.86-5.84v-2.09h1.6v2.09H335v1.42h-5.57c-.41.76-.86,1.6-1.28,2.31l3.95-.14c-.37-.42-.78-.82-1.15-1.18l1.2-.63a15.42,15.42,0,0,1,3,3.47l-1.31.74a8.49,8.49,0,0,0-.7-1.11c-3,.16-6.15.32-8.39.42l-.17-1.47,1.94-.05a18.82,18.82,0,0,0,1.1-2.36h-3.17v-1.42Zm0,6h1.38v6.63h-1.38Zm5,5.84a.54.54,0,0,0,.3-.06c.07,0,.12-.19.17-.44s0-.86.05-1.63a4.44,4.44,0,0,0,1.06.57,10.58,10.58,0,0,1-.17,1.93,1.06,1.06,0,0,1-.5.69,1.56,1.56,0,0,1-.84.2h-.84a1.4,1.4,0,0,1-1-.35c-.27-.25-.36-.54-.36-1.61V141H333v5.38a1,1,0,0,0,.08.54.36.36,0,0,0,.24.06Z"/><path class="cls-4" d="M352.67,146.9v1.19H337.54V146.9h6.77v-.81H339V145h5.35v-.75h-4.93v-4.2h11.53v4.2h-5.09V145h5.42v1.06h-5.42v.81Zm-.06-7.46h-15V138.3h15Zm-2.15-1.78H339.69v-4.07h10.77Zm-9.6,4.08h3.45V141h-3.45Zm3.45,1.65v-.79h-3.45v.79Zm4.57-8.94H341.2v.76h7.68Zm0,1.58H341.2v.77h7.68Zm.5,4.94h-3.56v.77h3.56Zm0,1.63h-3.56v.79h3.56Z"/><path class="cls-4" d="M363.87,142.33a15.56,15.56,0,0,0,2.85-3.75c-.38.09-3.1.62-5.83,1.18v4.75c0,1.11.37,1.48,2.31,1.48a26.31,26.31,0,0,0,5.27-.52l-.07,1.82a39.25,39.25,0,0,1-5.25.35c-3.43,0-4-.88-4-2.67v-4.86l-3.72.77-.32-1.74c.78-.1,2.31-.37,4-.69v-2.67a12.11,12.11,0,0,0-.12-1.72h2a14.06,14.06,0,0,0-.12,1.72v2.33c2.68-.52,5.36-1.06,6.09-1.22a4.65,4.65,0,0,0,1-.34l1.26,1c-.13.21-.34.52-.47.78a24.75,24.75,0,0,1-3.46,4.89Z"/><path class="cls-4" d="M379,143.54a16,16,0,0,0,5.83-6.33l1,1.83a17.42,17.42,0,0,1-5.89,6.08,18.56,18.56,0,0,1-6.44,2.5l-1.12-1.73A17.48,17.48,0,0,0,379,143.54Zm-.57-5.38-1.33,1.36a38.55,38.55,0,0,0-4.2-3.56l1.23-1.31A34.57,34.57,0,0,1,378.44,138.16Z"/><path class="cls-4" d="M400.42,137.37a9.26,9.26,0,0,0,1.68-.1v1.78c-.27,0-.87-.05-1.66-.05h-1.6v.57c0,4.34-1,6.74-4.91,8.5l-1.42-1.34c3.14-1.16,4.62-2.6,4.62-7.06V139h-4.44v2.52c0,.69.05,1.4.07,1.63h-1.85c0-.23.08-.94.08-1.63V139h-1.64c-.79,0-1.48,0-1.75.05v-1.79a14.87,14.87,0,0,0,1.75.11H391v-1.93c0-.59-.06-1.12-.08-1.34h1.88a9.6,9.6,0,0,0-.1,1.34v1.93h4.44v-2A10.24,10.24,0,0,0,397,134h1.9a11.63,11.63,0,0,0-.1,1.46v2Z"/><path class="cls-4" d="M319,157.88a8.1,8.1,0,0,1,2.42-5.84l.92.44a7.62,7.62,0,0,0,0,10.79l-.92.44A8.1,8.1,0,0,1,319,157.88Z"/><path class="cls-4" d="M328.18,157.7a9.53,9.53,0,0,1,2.51-.37c1.8,0,3.15,1,3.15,2.51s-.83,2.44-2.61,2.87a8.12,8.12,0,0,1-1.53.17l-.44-1.22a7.8,7.8,0,0,0,1.46-.09c1-.18,1.9-.72,1.9-1.74s-.84-1.44-1.94-1.44a8,8,0,0,0-2.48.4c0,1,.05,2,.05,2.49,0,1.28-.48,1.65-1.18,1.65-1.05,0-2.66-1-2.66-2.12s1.23-2.09,2.66-2.71v-.76c0-.43,0-.88,0-1.33l-.79,0c-.54,0-1.12,0-1.59-.06l0-1.17a11.39,11.39,0,0,0,1.6.1l.83,0c0-.54,0-1,0-1.2a7.22,7.22,0,0,0-.07-1h1.32c0,.24-.06.64-.08.93s0,.69,0,1.11a14.58,14.58,0,0,0,2.38-.46l0,1.2c-.69.15-1.59.3-2.43.4,0,.49,0,1,0,1.39Zm-1.05,3.39c0-.38,0-1.08,0-1.86-.88.43-1.49,1-1.49,1.53s.71.89,1.12.89C327,161.65,327.13,161.49,327.13,161.09Zm4.86-7a22.78,22.78,0,0,1,2.85,1.74l-.6,1a18.47,18.47,0,0,0-2.79-1.78Z"/><path class="cls-4" d="M345.23,155.74a8,8,0,0,1-2.26,2.31,17.31,17.31,0,0,0,4.56,1.11,5.39,5.39,0,0,0-.73,1.1c-.51-.08-1-.18-1.47-.28v3.46h-1.16v-.36h-4.53v.39h-1.11v-3.39c-.57.18-1.16.31-1.73.43a4.48,4.48,0,0,0-.56-1,17.6,17.6,0,0,0,4.57-1.41,9,9,0,0,1-1.4-1.2,9.19,9.19,0,0,1-1.72,1,3.55,3.55,0,0,0-.76-.84,7.49,7.49,0,0,0,3.46-2.62l1.19.24a6.74,6.74,0,0,1-.47.62h3.17l.21,0Zm-7.37,0h-1.11v-2.44h4.53v-1h1.16v1H347v2.44h-1.16v-1.41h-8Zm6.53,4a14.43,14.43,0,0,1-2.51-1,15.82,15.82,0,0,1-2.26,1Zm-.22,2.39v-1.45h-4.53v1.45Zm-3.95-5.87a6.62,6.62,0,0,0,1.67,1.27,7.44,7.44,0,0,0,1.65-1.33h-3.25Z"/><path class="cls-4" d="M352.73,159.52c-.16-.37-.51-1-.83-1.61v5.56h-1V158.3a11.36,11.36,0,0,1-1.31,2.93,5.62,5.62,0,0,0-.53-1,13.13,13.13,0,0,0,1.74-4.36h-1.49v-1.05h1.59v-2.58h1v2.58h1.31v1.05H351.9v.67c.33.44,1.23,1.81,1.43,2.12Zm3.25,1.71c-.92.54-1.92,1.1-2.72,1.54l-.52-1c.76-.34,1.86-.93,2.94-1.52Zm2.33-.91a5.17,5.17,0,0,0,2.16,1.71,4.27,4.27,0,0,0-.71.91,6.07,6.07,0,0,1-2.46-2.53v1.87c0,.55-.11.84-.47,1a4.27,4.27,0,0,1-1.66.18,3.94,3.94,0,0,0-.3-1c.47,0,1,0,1.13,0s.2,0,.2-.2V157.9h-3v-1h3v-.76h-2.4v-.87h2.4v-.68h-2.74v-.91h1.41a9.81,9.81,0,0,0-.55-1.13l.89-.3a6.48,6.48,0,0,1,.71,1.38l-.14,0h1.8a10,10,0,0,0,.63-1.48l1.14.3c-.25.42-.49.83-.71,1.18h1.43v.91H357.3v.68h2.49v.87H357.3V157h2.95v1H357.3v.51a7.35,7.35,0,0,0,.62,1.33,10.46,10.46,0,0,0,1.35-1.5l.87.61a14.37,14.37,0,0,1-1.65,1.6Zm-4-2a8.86,8.86,0,0,1,1.23,1.53l-.83.57a9.82,9.82,0,0,0-1.18-1.59Z"/><path class="cls-4" d="M363.09,154.29c.87-.09,3-.3,5.26-.48,1.28-.11,2.5-.18,3.32-.21v1.24a11.57,11.57,0,0,0-2.36.17,4,4,0,0,0-2.66,3.62c0,2.21,2,2.93,4,3l-.44,1.29c-2.37-.12-4.84-1.39-4.84-4a4.78,4.78,0,0,1,2-3.92c-1,.11-4,.41-5.38.7l-.12-1.33C362.43,154.34,362.84,154.31,363.09,154.29Zm7.88,3.56-.76.34a12.25,12.25,0,0,0-1-1.71l.73-.31A17.75,17.75,0,0,1,371,157.85Zm1.39-.56-.74.37a11.69,11.69,0,0,0-1-1.69l.73-.33A18.64,18.64,0,0,1,372.36,157.29Z"/><path class="cls-4" d="M384.17,162.05c0,.66-.16,1-.6,1.17a6.52,6.52,0,0,1-2.28.2,4.49,4.49,0,0,0-.38-1.1c.78,0,1.59,0,1.82,0s.3-.07.3-.3v-2.19h-2.95v3.49h-1.14v-3.49h-2.8a7,7,0,0,1-1.53,3.7,3.55,3.55,0,0,0-.89-.74c1.33-1.48,1.45-3.64,1.45-5.36V153.1h9Zm-5.23-3.27V157H376.3v.49c0,.42,0,.87-.05,1.32Zm-2.64-4.59v1.72h2.64v-1.72Zm6.73,0h-2.95v1.72H383Zm0,4.59V157h-2.95v1.81Z"/><path class="cls-4" d="M386.64,162.61a4.08,4.08,0,0,0,1.67-2.09l.94.36a4.54,4.54,0,0,1-1.72,2.34Zm10.84-6.68H387.05V155h2.76a5.58,5.58,0,0,0-.41-1.05l.28-.06h-2.07V153h4v-.73h1.14V153h4v.91h-1.93l.31.06c-.22.4-.42.76-.6,1.05h2.86ZM396.21,160H392a8.65,8.65,0,0,1,1.61,1l-.69.72a9.19,9.19,0,0,0-2-1.21l.46-.47h-3v-3.56h7.84Zm-1.13-2.72h-5.62v.55h5.62Zm0,1.32h-5.62v.56h5.62Zm-1.59,3.81c.47,0,.56-.14.61-1.12a3.41,3.41,0,0,0,1,.36c-.13,1.36-.44,1.69-1.49,1.69h-2.15c-1.35,0-1.69-.27-1.69-1.26v-1.45h1.1v1.44c0,.29.11.34.7.34Zm-3-8.52a4.7,4.7,0,0,1,.41,1.05l-.24.06h3l-.19-.05a10.33,10.33,0,0,0,.49-1.06Zm5.25,6.49a10.4,10.4,0,0,1,2.1,2.18l-.94.56a9.34,9.34,0,0,0-2-2.21Z"/><path class="cls-4" d="M402.85,157.88a8.1,8.1,0,0,1-2.42,5.83l-.92-.44a7.62,7.62,0,0,0,0-10.79l.92-.44A8.1,8.1,0,0,1,402.85,157.88Z"/><path class="cls-4" d="M88.68,8.28a24.86,24.86,0,0,1-3.23,4.64l-1.44-1a17.4,17.4,0,0,0,3.17-4.37Zm3.68-2.5v8c0,.9-.47,1.42-1.56,1.42-.81,0-1.8,0-2.56-.11l-.15-1.67a11,11,0,0,0,1.92.19c.43,0,.62-.17.64-.62V5.78H86.16c-.52,0-1.06,0-1.51,0V4.07a14,14,0,0,0,1.49.1h4.51V2.6a7.11,7.11,0,0,0-.14-1.31h2a9.2,9.2,0,0,0-.13,1.33V4.17h4.22a12.57,12.57,0,0,0,1.49-.1V5.81c-.49,0-1.06,0-1.48,0Zm3.43,1.76a38.31,38.31,0,0,1,2.89,4.4l-1.55.88a28.8,28.8,0,0,0-2.79-4.49Zm-.71-5.66A1.89,1.89,0,1,1,97,3.76,1.88,1.88,0,0,1,95.08,1.88Zm.89,0a1,1,0,0,0,1,1,1,1,0,0,0,1-1,1,1,0,0,0-1-1A1,1,0,0,0,96,1.88Z"/><path class="cls-4" d="M108,10.75a16,16,0,0,0,5.83-6.33l1,1.83a17.29,17.29,0,0,1-5.9,6.08,18.5,18.5,0,0,1-6.43,2.5L101.4,13.1A17.54,17.54,0,0,0,108,10.75Zm-.58-5.37-1.32,1.36a38.38,38.38,0,0,0-4.2-3.56l1.22-1.32A33.08,33.08,0,0,1,107.43,5.38Z"/><path class="cls-4" d="M126.37,2.69a4.53,4.53,0,0,0,.71,0,2.3,2.3,0,0,1,0-.45A1.94,1.94,0,1,1,129,4.13a1.61,1.61,0,0,1-.44,0l-.08.32a16.83,16.83,0,0,1-2.52,6.17,13.1,13.1,0,0,1-6.67,4.55l-1.44-1.58a11.13,11.13,0,0,0,6.56-4,11.66,11.66,0,0,0,2.1-5.16h-8.24c-.73,0-1.4,0-1.82.06V2.57a14.63,14.63,0,0,0,1.82.12ZM130,2.2a1.05,1.05,0,0,0-2.1,0,1.05,1.05,0,0,0,2.1,0Z"/><path class="cls-4" d="M142.67,2.69a4.47,4.47,0,0,0,.71,0,2.3,2.3,0,0,1,0-.45,1.94,1.94,0,1,1,1.93,1.93,1.61,1.61,0,0,1-.44,0l-.08.32a16.83,16.83,0,0,1-2.52,6.17,13.1,13.1,0,0,1-6.67,4.55l-1.44-1.58a11.19,11.19,0,0,0,6.57-4,11.9,11.9,0,0,0,2.1-5.16h-8.25c-.73,0-1.4,0-1.82.06V2.57a14.63,14.63,0,0,0,1.82.12Zm3.65-.49a1.05,1.05,0,0,0-2.1,0,1.05,1.05,0,0,0,2.1,0Z"/><path class="cls-4" d="M162.34,12.4c0,.59,0,2,0,2.17h-1.83c0-.09,0-.47,0-.94h-8.7c0,.45,0,.85,0,.94h-1.82c0-.16,0-1.5,0-2.17V4.15c0-.44,0-1,0-1.46.65,0,1.19,0,1.61,0h10.67c0,.45,0,1,0,1.44Zm-10.49-8V12h8.72V4.4Z"/><path class="cls-4" d="M178.59,6.1c.35,0,1,0,1.41-.09V7.75c-.39,0-1-.06-1.41-.06h-4.32a10.47,10.47,0,0,1-1,4.49,8.12,8.12,0,0,1-3.34,3.12l-1.55-1.14a7,7,0,0,0,3.11-2.5,7.83,7.83,0,0,0,1-4H167.6c-.5,0-1.06,0-1.53.06V6a14.82,14.82,0,0,0,1.53.09ZM169.7,3.43c-.55,0-1.18,0-1.65,0V1.75a14.59,14.59,0,0,0,1.65.11h6.77a12,12,0,0,0,1.68-.11V3.48c-.54,0-1.16,0-1.68,0Z"/><path class="cls-4" d="M195.71,3.9a6,6,0,0,0-.47,1,16.43,16.43,0,0,1-3,5.71,15.31,15.31,0,0,1-6.72,4.66L184,13.89a13.5,13.5,0,0,0,6.74-4.2,12.55,12.55,0,0,0,2.55-4.95h-5.24a17.6,17.6,0,0,1-4.26,4.1l-1.48-1.09a14.28,14.28,0,0,0,5.27-5.57A7.08,7.08,0,0,0,188.2.67l2,.64c-.33.5-.69,1.16-.87,1.5-.07.13-.15.28-.24.42h4a3.88,3.88,0,0,0,1.26-.17Z"/><path class="cls-4" d="M210.69,3.63a7.11,7.11,0,0,0-.47,1,18.07,18.07,0,0,1-2.39,4.82c.62.41,1.19.77,1.61,1.08l-1.17,1.54c-.41-.33-1-.74-1.6-1.17a15.91,15.91,0,0,1-6.4,4.35l-1.53-1.35a14.32,14.32,0,0,0,6.47-4c-1.24-.8-2.54-1.59-3.44-2.1l1.11-1.26c.94.49,2.23,1.23,3.46,2a14.08,14.08,0,0,0,2-4.08H203a18.51,18.51,0,0,1-4.42,4.36l-1.45-1.09A15.08,15.08,0,0,0,202.49,2a5.82,5.82,0,0,0,.64-1.51l1.91.61c-.32.5-.69,1.14-.85,1.47L204,3h4.09a3.86,3.86,0,0,0,1.26-.18Z"/><path class="cls-4" d="M130.45,17.89h3.21c3.8,0,6,2.1,6,6.13s-2.17,6.23-5.87,6.23h-3.31Zm3.08,10.77c2.65,0,4.08-1.57,4.08-4.64s-1.43-4.55-4.08-4.55H132.4v9.19Z"/><path class="cls-4" d="M149.79,30.25l-2.8-5h-2v5h-2V17.89h4.05c2.55,0,4.47.91,4.47,3.58A3.45,3.45,0,0,1,149,25l3,5.24ZM145,23.7h1.86c1.8,0,2.78-.74,2.78-2.23s-1-2-2.78-2H145Z"/><path class="cls-4" d="M154.89,17.89h2l4.1,7.26,1.29,2.62h.08c-.1-1.28-.25-2.78-.25-4.12V17.89H164V30.25h-2L157.86,23l-1.29-2.59h-.09c.11,1.28.26,2.71.26,4.05v5.83h-1.85Z"/><path class="cls-4" d="M385.07,506.08a15.46,15.46,0,0,0-3.09-1.8l.81-1.12a15.4,15.4,0,0,1,3.12,1.64Zm1.36,2.13c-.8,1.75-1.83,3.75-2.73,5.33l-1.35-.94a51.09,51.09,0,0,0,2.91-5.33Zm-.42-6.65a14.77,14.77,0,0,0-3-1.8l.84-1.1a14,14,0,0,1,3.07,1.66ZM397.45,512v1.36H385.76V512h1.36v-5.12h9.28V512Zm-1.63-6.37h-8.16v-6.48h8.16Zm-7.3,6.37h1.32v-3.8h-1.32Zm5.78-11.56h-5.16v1.33h5.16Zm0,2.56h-5.16v1.34h5.16Zm-3.26,5.2V512h1.34v-3.8Zm2.53,0V512h1.35v-3.8Z"/><path class="cls-4" d="M402.48,504.75c0,2.64-.23,6.54-1.69,9.09a7.11,7.11,0,0,0-1.28-.85c1.36-2.39,1.48-5.8,1.48-8.24V500H407v-1.58h1.63V500h6.11v1.39h-12.3Zm11.18,3.65a8.18,8.18,0,0,1-3.13,3.26,22,22,0,0,0,4.55.89,5.43,5.43,0,0,0-.9,1.34,18.91,18.91,0,0,1-5.33-1.39,22.63,22.63,0,0,1-5.71,1.38,4.48,4.48,0,0,0-.66-1.31,23.57,23.57,0,0,0,4.81-.93,8.76,8.76,0,0,1-2.32-2.17l.76-.28h-2.57v-1.26h9.25l.29-.05Zm-8.2-1.34v-2.69H403v-1.28h2.49v-1.28h1.48v1.28h3.62v-1.28h1.53v1.28h2.57v1.28h-2.57v2.69Zm1,2.13A7.06,7.06,0,0,0,408.9,511a7.66,7.66,0,0,0,2.49-1.81Zm.47-4.82v1.48h3.62v-1.48Z"/><path class="cls-4" d="M426.14,507.69A15.6,15.6,0,0,0,429,504l-5.83,1.17v4.76c0,1.11.37,1.48,2.3,1.48a26.33,26.33,0,0,0,5.28-.53l-.07,1.82a39.41,39.41,0,0,1-5.26.35c-3.43,0-4-.87-4-2.67v-4.85l-3.71.77-.32-1.75c.77-.1,2.3-.37,4-.69v-2.67a11.89,11.89,0,0,0-.11-1.71h2a13.76,13.76,0,0,0-.12,1.71v2.34c2.67-.52,5.36-1.06,6.08-1.23a5,5,0,0,0,1-.33l1.26,1a7.84,7.84,0,0,0-.47.77,24.18,24.18,0,0,1-3.46,4.89Z"/><path class="cls-4" d="M441.29,508.9a16,16,0,0,0,5.83-6.33l1,1.83a17.29,17.29,0,0,1-5.9,6.08,18.5,18.5,0,0,1-6.43,2.51l-1.13-1.73A17.71,17.71,0,0,0,441.29,508.9Zm-.57-5.37-1.33,1.36a38.38,38.38,0,0,0-4.2-3.56l1.22-1.31A33.8,33.8,0,0,1,440.72,503.53Z"/><path class="cls-4" d="M462.7,502.74a10.4,10.4,0,0,0,1.68-.1v1.78a15.86,15.86,0,0,0-1.67-.05h-1.59v.57c0,4.33-1,6.74-4.91,8.5l-1.43-1.34c3.14-1.16,4.62-2.61,4.62-7.06v-.67H455v2.52c0,.69,0,1.39.06,1.63h-1.84c0-.24.08-.94.08-1.63v-2.52h-1.65c-.79,0-1.47,0-1.74.05v-1.8a14.15,14.15,0,0,0,1.74.12h1.65v-1.93c0-.59-.07-1.13-.08-1.35h1.88a8.28,8.28,0,0,0-.1,1.35v1.93h4.43v-1.95a12.54,12.54,0,0,0-.08-1.46h1.9a10,10,0,0,0-.1,1.46v1.95Z"/><path class="cls-4" d="M381.23,523.24a8.12,8.12,0,0,1,2.42-5.83l.93.43a7.61,7.61,0,0,0,0,10.8l-.93.44A8.16,8.16,0,0,1,381.23,523.24Z"/><path class="cls-4" d="M390.45,523.07a9.24,9.24,0,0,1,2.52-.38c1.79,0,3.15,1,3.15,2.52s-.83,2.44-2.61,2.86a8.2,8.2,0,0,1-1.53.18l-.44-1.23a8.58,8.58,0,0,0,1.45-.08c1-.18,1.91-.72,1.91-1.75s-.85-1.44-1.94-1.44a8,8,0,0,0-2.48.41c0,1,0,2,0,2.49,0,1.28-.48,1.64-1.19,1.64-1,0-2.66-.95-2.66-2.12s1.23-2.09,2.66-2.71v-.76c0-.42,0-.88,0-1.33-.3,0-.57,0-.8,0-.54,0-1.11,0-1.59-.06l0-1.17a12.74,12.74,0,0,0,1.6.09l.83,0c0-.55,0-1,0-1.21a9.2,9.2,0,0,0-.07-.95h1.31c0,.23-.06.63-.07.93s0,.68-.05,1.11a14.32,14.32,0,0,0,2.38-.47l0,1.2a22,22,0,0,1-2.43.4c0,.49,0,1,0,1.39Zm-1.05,3.38c0-.38,0-1.07,0-1.86-.88.43-1.49,1-1.49,1.53s.71.89,1.12.89C389.26,527,389.4,526.85,389.4,526.45Zm4.86-7a23,23,0,0,1,2.86,1.73l-.6,1a17.92,17.92,0,0,0-2.79-1.78Z"/><path class="cls-4" d="M407.51,521.1a7.88,7.88,0,0,1-2.26,2.31,16.76,16.76,0,0,0,4.55,1.11,5.84,5.84,0,0,0-.73,1.1c-.5-.07-1-.17-1.46-.28v3.47h-1.16v-.37h-4.53v.39h-1.11v-3.38c-.58.17-1.16.3-1.74.43a3.78,3.78,0,0,0-.56-1,17.57,17.57,0,0,0,4.58-1.42,7.65,7.65,0,0,1-1.4-1.2,10.17,10.17,0,0,1-1.72,1,3.39,3.39,0,0,0-.76-.84,7.59,7.59,0,0,0,3.45-2.63l1.2.25-.48.62h3.18l.2-.05Zm-7.37,0H399v-2.44h4.52v-1.05h1.16v1.05h4.59v2.44h-1.16v-1.42h-8Zm6.53,4a13.52,13.52,0,0,1-2.52-1,14.39,14.39,0,0,1-2.26,1Zm-.22,2.39V526h-4.53v1.45Zm-4-5.87a7.34,7.34,0,0,0,1.67,1.27,8.06,8.06,0,0,0,1.65-1.33h-3.24Z"/><path class="cls-4" d="M415,524.89c-.16-.38-.52-1-.83-1.61v5.55h-1.05v-5.16a11.52,11.52,0,0,1-1.31,2.93,5.39,5.39,0,0,0-.54-1,13,13,0,0,0,1.75-4.36h-1.49v-1h1.59v-2.57h1.05v2.57h1.3v1h-1.3v.67c.33.44,1.23,1.81,1.43,2.13Zm3.24,1.71c-.91.53-1.91,1.1-2.72,1.54l-.51-1c.76-.34,1.85-.93,2.94-1.51Zm2.34-.92a5,5,0,0,0,2.16,1.71,4.26,4.26,0,0,0-.71.92,6.09,6.09,0,0,1-2.47-2.53v1.87c0,.55-.11.84-.46,1a4.26,4.26,0,0,1-1.66.19,4,4,0,0,0-.31-1c.48,0,1,0,1.14,0s.19-.05.19-.19v-4.39h-3v-1h3v-.75h-2.39v-.87h2.39V520h-2.73v-.91h1.4a7.73,7.73,0,0,0-.55-1.12l.89-.31a5.86,5.86,0,0,1,.71,1.38l-.13.05h1.79a11.21,11.21,0,0,0,.64-1.48l1.13.31c-.24.41-.49.83-.7,1.17h1.42V520h-2.77v.69h2.49v.87h-2.49v.75h3v1h-3v.52a9,9,0,0,0,.62,1.33,11,11,0,0,0,1.36-1.5l.87.61a17.39,17.39,0,0,1-1.65,1.6Zm-4-2a9.32,9.32,0,0,1,1.23,1.52l-.83.57a10.36,10.36,0,0,0-1.19-1.58Z"/><path class="cls-4" d="M425.36,519.65c.88-.08,3-.29,5.26-.48,1.28-.1,2.51-.18,3.32-.2l0,1.23a11.47,11.47,0,0,0-2.36.17,4,4,0,0,0-2.66,3.63c0,2.21,2.05,2.93,4,3l-.44,1.3c-2.37-.12-4.85-1.39-4.85-4.05a4.77,4.77,0,0,1,2-3.92c-1.05.11-4,.4-5.37.69l-.12-1.33C424.7,519.7,425.12,519.68,425.36,519.65Zm7.89,3.57-.76.34a10.45,10.45,0,0,0-1-1.71l.74-.32A17.94,17.94,0,0,1,433.25,523.22Zm1.39-.57-.75.37a10.72,10.72,0,0,0-1-1.68l.73-.33A19.31,19.31,0,0,1,434.64,522.65Z"/><path class="cls-4" d="M446.45,527.42c0,.65-.16,1-.6,1.17a6.88,6.88,0,0,1-2.29.19,4.75,4.75,0,0,0-.37-1.1c.78,0,1.58,0,1.81,0s.31-.08.31-.31v-2.18h-2.95v3.49h-1.14v-3.49h-2.81a7,7,0,0,1-1.52,3.7,4,4,0,0,0-.89-.75c1.33-1.48,1.45-3.64,1.45-5.36v-4.34h9Zm-5.23-3.28v-1.8h-2.65v.49c0,.41,0,.86-.05,1.31Zm-2.65-4.59v1.72h2.65v-1.72Zm6.74,0h-2.95v1.72h2.95Zm0,4.59v-1.8h-2.95v1.8Z"/><path class="cls-4" d="M448.91,528a4.09,4.09,0,0,0,1.68-2.09l.94.35a4.58,4.58,0,0,1-1.73,2.35Zm10.84-6.68H449.33v-.92h2.76a5.9,5.9,0,0,0-.42-1l.28-.06h-2.06v-.9h4v-.73h1.14v.73h4.05v.9h-1.93l.31.06q-.33.61-.6,1h2.85Zm-1.27,4.09h-4.24a9.64,9.64,0,0,1,1.61,1l-.7.72a8.72,8.72,0,0,0-2-1.21l.47-.46h-3v-3.57h7.83Zm-1.12-2.72h-5.63v.55h5.63Zm0,1.32h-5.63v.56h5.63Zm-1.6,3.8c.48,0,.56-.13.61-1.12a3.21,3.21,0,0,0,1,.37c-.14,1.35-.44,1.68-1.49,1.68h-2.15c-1.35,0-1.7-.27-1.7-1.26V526h1.1v1.44c0,.3.11.34.71.34Zm-3-8.52a4.7,4.7,0,0,1,.41,1.05l-.24.06h3l-.2,0a8.57,8.57,0,0,0,.49-1.06Zm5.24,6.5a9.89,9.89,0,0,1,2.1,2.17l-.94.56a9.26,9.26,0,0,0-2-2.21Z"/><path class="cls-4" d="M465.13,523.24a8.16,8.16,0,0,1-2.42,5.84l-.93-.44a7.6,7.6,0,0,0,0-10.8l.93-.43A8.12,8.12,0,0,1,465.13,523.24Z"/><path class="cls-2" d="M420.27,337.53a2.94,2.94,0,0,1-2.94-2.93,10.06,10.06,0,0,0-10.05-10.05H338.6a34.17,34.17,0,0,1-34.13-34.13V264.14a2.93,2.93,0,1,1,5.86,0v26.28a28.3,28.3,0,0,0,28.27,28.26h68.68A15.94,15.94,0,0,1,423.2,334.6,2.93,2.93,0,0,1,420.27,337.53Z"/><path class="cls-2" d="M420.27,308.89a2.94,2.94,0,0,1-2.94-2.94,10.06,10.06,0,0,0-10.05-10.05H349A15.93,15.93,0,0,1,333.11,280V264.14a2.94,2.94,0,0,1,5.87,0V280A10.06,10.06,0,0,0,349,290h58.25A15.93,15.93,0,0,1,423.2,306,2.94,2.94,0,0,1,420.27,308.89Z"/><rect class="cls-1" x="408.97" y="148.27" width="51.42" height="51.42" rx="6.43"/><path class="cls-2" d="M453.6,201.21H415.76a8.31,8.31,0,0,1-8.3-8.3V174a1.51,1.51,0,1,1,3,0v18.93a5.28,5.28,0,0,0,5.28,5.27H453.6a5.28,5.28,0,0,0,5.28-5.27V179.8a1.51,1.51,0,0,1,3,0v13.11A8.31,8.31,0,0,1,453.6,201.21Z"/><path class="cls-2" d="M460.39,175.5a1.51,1.51,0,0,1-1.51-1.52V155.06a5.28,5.28,0,0,0-5.28-5.27H415.76a5.28,5.28,0,0,0-5.28,5.27v13.11a1.51,1.51,0,1,1-3,0V155.06a8.31,8.31,0,0,1,8.3-8.3H453.6a8.31,8.31,0,0,1,8.3,8.3V174A1.52,1.52,0,0,1,460.39,175.5Z"/><path class="cls-2" d="M436.07,194.54H436a1.52,1.52,0,0,1-1.44-1.36l-3-30.44L426.77,182a1.51,1.51,0,0,1-1.46,1.14h0a1.5,1.5,0,0,1-1.46-1.12l-3.3-12.41-1.06,4.67A1.52,1.52,0,0,1,418,175.5h-9a1.52,1.52,0,0,1,0-3h7.83L419,163a1.51,1.51,0,0,1,1.45-1.17A1.49,1.49,0,0,1,421.9,163l3.35,12.66,5.53-22.1a1.53,1.53,0,0,1,1.58-1.14,1.52,1.52,0,0,1,1.39,1.36l2.81,28.77,3.64-18.85a1.51,1.51,0,0,1,1.49-1.23h0a1.52,1.52,0,0,1,1.47,1.27l2.7,16.81,3.79-7.22a1.51,1.51,0,0,1,1.34-.81h9.38a1.52,1.52,0,0,1,0,3h-8.47l-5.48,10.42a1.51,1.51,0,0,1-2.83-.46l-2.06-12.84-4,20.7A1.51,1.51,0,0,1,436.07,194.54Z"/><polygon class="cls-2" points="46.45 411.59 33.72 402.93 33.72 408.38 0 408.38 0 414.8 33.72 414.8 33.72 420.25 46.45 411.59"/><polygon class="cls-2" points="668.22 34.51 655.5 25.86 655.5 31.3 621.78 31.3 621.78 37.72 655.5 37.72 655.5 43.17 668.22 34.51"/><path class="cls-5" d="M402.27,175H397.6a1.4,1.4,0,0,1,0-2.8h4.67a1.4,1.4,0,1,1,0,2.8ZM392,175h-4.67a1.4,1.4,0,1,1,0-2.8H392a1.4,1.4,0,0,1,0,2.8Zm-10.27,0h-4.67a1.4,1.4,0,1,1,0-2.8h4.67a1.4,1.4,0,0,1,0,2.8Zm-10.27,0h-4.67a1.4,1.4,0,0,1,0-2.8h4.67a1.4,1.4,0,1,1,0,2.8Zm-10.27,0h-4.67a1.4,1.4,0,1,1,0-2.8h4.67a1.4,1.4,0,0,1,0,2.8Zm-10.27,0h-4.67a1.4,1.4,0,1,1,0-2.8h4.67a1.4,1.4,0,0,1,0,2.8Zm-10.27,0H336a1.4,1.4,0,0,1,0-2.8h4.67a1.4,1.4,0,1,1,0,2.8Zm-10.27,0h-4.67a1.4,1.4,0,1,1,0-2.8h4.67a1.4,1.4,0,0,1,0,2.8Zm-10.27,0h-4.67a1.4,1.4,0,1,1,0-2.8h4.67a1.4,1.4,0,0,1,0,2.8Zm-10.27,0h-4.67a1.4,1.4,0,0,1,0-2.8h4.67a1.4,1.4,0,1,1,0,2.8Zm-10.27,0H294.9a1.4,1.4,0,1,1,0-2.8h4.67a1.4,1.4,0,1,1,0,2.8Zm-10.27,0h-4.67a1.4,1.4,0,1,1,0-2.8h4.67a1.4,1.4,0,0,1,0,2.8ZM279,175h-4.67a1.4,1.4,0,0,1,0-2.8H279a1.4,1.4,0,1,1,0,2.8Zm-10.27,0h-4.67a1.4,1.4,0,1,1,0-2.8h4.67a1.4,1.4,0,1,1,0,2.8Zm-10.27,0h-4.67a1.4,1.4,0,0,1,0-2.8h4.67a1.4,1.4,0,0,1,0,2.8Zm-10.27,0h-4.67a1.4,1.4,0,0,1,0-2.8h4.67a1.4,1.4,0,1,1,0,2.8ZM238,175h-4.67a1.4,1.4,0,1,1,0-2.8H238a1.4,1.4,0,0,1,0,2.8Zm-10.27,0H223a1.4,1.4,0,1,1,0-2.8h4.67a1.4,1.4,0,0,1,0,2.8Zm-10.27,0h-4.67a1.4,1.4,0,0,1,0-2.8h4.67a1.4,1.4,0,1,1,0,2.8Zm-10.27,0h-4.67a1.4,1.4,0,1,1,0-2.8h4.67a1.4,1.4,0,0,1,0,2.8Zm-10.28,0H192.2a1.4,1.4,0,1,1,0-2.8h4.66a1.4,1.4,0,1,1,0,2.8Zm-10.27,0h-4.66a1.4,1.4,0,0,1,0-2.8h4.66a1.4,1.4,0,1,1,0,2.8Zm-9.94-1.54a1.41,1.41,0,0,1-.82-.27,9.36,9.36,0,0,1-3.26-4.32,1.4,1.4,0,1,1,2.63-1,6.6,6.6,0,0,0,2.29,3,1.4,1.4,0,0,1-.84,2.53Zm-3.25-9.22a1.4,1.4,0,0,1-1.4-1.4v-4.67a1.4,1.4,0,0,1,2.8,0v4.67A1.39,1.39,0,0,1,173.4,164.21Zm0-10.27a1.4,1.4,0,0,1-1.4-1.4v-4.67a1.4,1.4,0,0,1,2.8,0v4.67A1.4,1.4,0,0,1,173.4,153.94Zm0-10.27a1.4,1.4,0,0,1-1.4-1.4V137.6a1.4,1.4,0,0,1,2.8,0v4.67A1.4,1.4,0,0,1,173.4,143.67Z"/><polygon class="cls-5" points="164.75 139.32 173.4 126.6 182.06 139.32 164.75 139.32"/><path class="cls-5" d="M291.2,238.5h-4.67a1.4,1.4,0,1,1,0-2.8h4.67a1.4,1.4,0,1,1,0,2.8Zm-10.27,0h-4.67a1.4,1.4,0,1,1,0-2.8h4.67a1.4,1.4,0,0,1,0,2.8Zm-10.27,0H266a1.4,1.4,0,0,1,0-2.8h4.67a1.4,1.4,0,0,1,0,2.8Zm-10.27,0h-4.67a1.4,1.4,0,0,1,0-2.8h4.67a1.4,1.4,0,1,1,0,2.8Zm-10.27,0h-4.67a1.4,1.4,0,1,1,0-2.8h4.67a1.4,1.4,0,0,1,0,2.8Zm-10.27,0h-4.67a1.4,1.4,0,0,1,0-2.8h4.67a1.4,1.4,0,0,1,0,2.8Zm-10.27,0h-4.67a1.4,1.4,0,0,1,0-2.8h4.67a1.4,1.4,0,0,1,0,2.8Zm-10.27,0h-4.67a1.4,1.4,0,1,1,0-2.8h4.67a1.4,1.4,0,0,1,0,2.8Zm-10.27,0h-4.67a1.4,1.4,0,0,1,0-2.8H209a1.4,1.4,0,0,1,0,2.8Zm-10.27,0H194.1a1.4,1.4,0,0,1,0-2.8h4.67a1.4,1.4,0,0,1,0,2.8Zm-10.27,0h-4.67a1.4,1.4,0,0,1,0-2.8h4.67a1.4,1.4,0,0,1,0,2.8Zm-10.27,0h-4.67a1.4,1.4,0,0,1,0-2.8h4.67a1.4,1.4,0,0,1,0,2.8Zm-10.28,0h-4.66a1.4,1.4,0,0,1,0-2.8H168a1.4,1.4,0,0,1,0,2.8Zm-10.27,0h-2.8a9.33,9.33,0,0,1-2.17-.26,1.4,1.4,0,1,1,.65-2.72,6.51,6.51,0,0,0,1.52.18h2.8a1.4,1.4,0,0,1,0,2.8Zm-9.21-3.27a1.42,1.42,0,0,1-1.13-.57,9.37,9.37,0,0,1-1.79-5.11,1.4,1.4,0,0,1,1.34-1.46,1.38,1.38,0,0,1,1.46,1.34A6.48,6.48,0,0,0,149.6,233a1.4,1.4,0,0,1-1.13,2.23Zm-1.53-9.94a1.4,1.4,0,0,1-1.4-1.4v-4.67a1.4,1.4,0,1,1,2.8,0v4.67A1.4,1.4,0,0,1,146.94,225.29Zm0-10.27a1.4,1.4,0,0,1-1.4-1.4V209a1.4,1.4,0,0,1,2.8,0v4.67A1.4,1.4,0,0,1,146.94,215Zm0-10.27a1.4,1.4,0,0,1-1.4-1.4v-4.67a1.4,1.4,0,0,1,2.8,0v4.67A1.4,1.4,0,0,1,146.94,204.75Zm0-10.27a1.4,1.4,0,0,1-1.4-1.4v-4.67a1.4,1.4,0,1,1,2.8,0v4.67A1.4,1.4,0,0,1,146.94,194.48Zm0-10.27a1.4,1.4,0,0,1-1.4-1.4v-4.67a1.4,1.4,0,0,1,2.8,0v4.67A1.4,1.4,0,0,1,146.94,184.21Zm0-10.27a1.4,1.4,0,0,1-1.4-1.4v-4.67a1.4,1.4,0,0,1,2.8,0v4.67A1.4,1.4,0,0,1,146.94,173.94Zm0-10.27a1.4,1.4,0,0,1-1.4-1.4V157.6a1.4,1.4,0,1,1,2.8,0v4.67A1.4,1.4,0,0,1,146.94,163.67Zm0-10.27a1.4,1.4,0,0,1-1.4-1.4v-4.67a1.4,1.4,0,1,1,2.8,0V152A1.4,1.4,0,0,1,146.94,153.4Zm0-10.27a1.4,1.4,0,0,1-1.4-1.4v-4.67a1.4,1.4,0,0,1,2.8,0v4.67A1.4,1.4,0,0,1,146.94,143.13Z"/><polygon class="cls-5" points="138.29 139.32 146.94 126.6 155.6 139.32 138.29 139.32"/><path class="cls-5" d="M390.09,467.81h-4.67a1.4,1.4,0,0,1,0-2.8h4.67a1.4,1.4,0,0,1,0,2.8Zm-10.27,0h-4.67a1.4,1.4,0,0,1,0-2.8h4.67a1.4,1.4,0,0,1,0,2.8Zm-10.27,0h-4.67a1.4,1.4,0,0,1,0-2.8h4.67a1.4,1.4,0,0,1,0,2.8Zm-10.27,0h-4.67a1.4,1.4,0,0,1,0-2.8h4.67a1.4,1.4,0,0,1,0,2.8Zm-10.27,0h-4.67a1.4,1.4,0,0,1,0-2.8H349a1.4,1.4,0,0,1,0,2.8Zm-10.27,0h-4.67a1.4,1.4,0,1,1,0-2.8h4.67a1.4,1.4,0,0,1,0,2.8Zm-10.27,0H323.8a1.4,1.4,0,0,1,0-2.8h4.67a1.4,1.4,0,0,1,0,2.8Zm-10.27,0h-4.67a1.4,1.4,0,1,1,0-2.8h4.67a1.4,1.4,0,1,1,0,2.8Zm-10.27,0h-4.67a1.4,1.4,0,1,1,0-2.8h4.67a1.4,1.4,0,0,1,0,2.8Zm-10.27,0H293a1.4,1.4,0,0,1,0-2.8h4.67a1.4,1.4,0,0,1,0,2.8Zm-10.27,0h-4.67a1.4,1.4,0,0,1,0-2.8h4.67a1.4,1.4,0,1,1,0,2.8Zm-10.27,0h-4.67a1.4,1.4,0,1,1,0-2.8h4.67a1.4,1.4,0,0,1,0,2.8Zm-10.27,0h-4.67a1.4,1.4,0,0,1,0-2.8h4.67a1.4,1.4,0,0,1,0,2.8Zm-10.28,0h-4.66a1.4,1.4,0,0,1,0-2.8h4.66a1.4,1.4,0,1,1,0,2.8Zm-10.26,0h-4.67a1.4,1.4,0,1,1,0-2.8h4.67a1.4,1.4,0,0,1,0,2.8Zm-10.28,0h-4.66a1.4,1.4,0,0,1,0-2.8H236a1.4,1.4,0,1,1,0,2.8Zm-10.27,0H221.1a1.4,1.4,0,0,1,0-2.8h4.66a1.4,1.4,0,0,1,0,2.8Zm-10.27,0h-4.66a1.4,1.4,0,1,1,0-2.8h4.66a1.4,1.4,0,0,1,0,2.8Zm-10.27,0h-4.66a1.4,1.4,0,1,1,0-2.8h4.66a1.4,1.4,0,1,1,0,2.8Zm-10.27,0h-4.66a1.4,1.4,0,1,1,0-2.8H195a1.4,1.4,0,0,1,0,2.8Zm-10.27,0H180a1.4,1.4,0,1,1,0-2.8h4.66a1.4,1.4,0,0,1,0,2.8Zm-10.27,0h-4.67a1.4,1.4,0,0,1,0-2.8h4.67a1.4,1.4,0,1,1,0,2.8Zm-10.27,0h-4.67a1.4,1.4,0,1,1,0-2.8h4.67a1.4,1.4,0,0,1,0,2.8Zm-10.27,0H149.2a1.4,1.4,0,0,1,0-2.8h4.67a1.4,1.4,0,0,1,0,2.8Zm-10.27,0h-4.67a1.4,1.4,0,0,1,0-2.8h4.67a1.4,1.4,0,1,1,0,2.8Zm-10.27,0h-4.67a1.4,1.4,0,0,1,0-2.8h4.67a1.4,1.4,0,0,1,0,2.8Zm-9.87-1.75a1.38,1.38,0,0,1-.87-.31,9.4,9.4,0,0,1-3.07-4.46,1.41,1.41,0,0,1,.91-1.76,1.39,1.39,0,0,1,1.76.91,6.53,6.53,0,0,0,2.15,3.12,1.4,1.4,0,0,1-.88,2.5Zm-3-9.36a1.4,1.4,0,0,1-1.4-1.4v-4.67a1.4,1.4,0,0,1,2.8,0v4.67A1.4,1.4,0,0,1,120.49,456.7Zm0-10.27a1.39,1.39,0,0,1-1.4-1.4v-4.67a1.4,1.4,0,1,1,2.8,0V445A1.4,1.4,0,0,1,120.49,446.43Zm0-10.27a1.4,1.4,0,0,1-1.4-1.4v-4.67a1.4,1.4,0,0,1,2.8,0v4.67A1.4,1.4,0,0,1,120.49,436.16Zm0-10.27a1.4,1.4,0,0,1-1.4-1.4v-4.67a1.4,1.4,0,0,1,2.8,0v4.67A1.4,1.4,0,0,1,120.49,425.89Zm0-10.27a1.4,1.4,0,0,1-1.4-1.4v-4.67a1.4,1.4,0,1,1,2.8,0v4.67A1.4,1.4,0,0,1,120.49,415.62Zm0-10.27a1.4,1.4,0,0,1-1.4-1.4v-4.67a1.4,1.4,0,0,1,2.8,0V404A1.4,1.4,0,0,1,120.49,405.35Zm0-10.27a1.4,1.4,0,0,1-1.4-1.4V389a1.4,1.4,0,0,1,2.8,0v4.67A1.4,1.4,0,0,1,120.49,395.08Zm0-10.27a1.4,1.4,0,0,1-1.4-1.4v-4.67a1.4,1.4,0,1,1,2.8,0v4.67A1.4,1.4,0,0,1,120.49,384.81Zm0-10.27a1.4,1.4,0,0,1-1.4-1.4v-4.67a1.4,1.4,0,1,1,2.8,0v4.67A1.4,1.4,0,0,1,120.49,374.54Zm0-10.27a1.4,1.4,0,0,1-1.4-1.4V358.2a1.4,1.4,0,0,1,2.8,0v4.67A1.4,1.4,0,0,1,120.49,364.27Zm0-10.27a1.4,1.4,0,0,1-1.4-1.4v-4.67a1.4,1.4,0,1,1,2.8,0v4.67A1.4,1.4,0,0,1,120.49,354Zm0-10.27a1.4,1.4,0,0,1-1.4-1.4v-4.67a1.4,1.4,0,1,1,2.8,0v4.67A1.4,1.4,0,0,1,120.49,343.73Zm0-10.27a1.4,1.4,0,0,1-1.4-1.4v-4.67a1.4,1.4,0,0,1,2.8,0v4.67A1.4,1.4,0,0,1,120.49,333.46Zm0-10.27a1.4,1.4,0,0,1-1.4-1.4v-4.67a1.4,1.4,0,0,1,2.8,0v4.67A1.4,1.4,0,0,1,120.49,323.19Zm0-10.27a1.4,1.4,0,0,1-1.4-1.4v-4.67a1.4,1.4,0,1,1,2.8,0v4.67A1.4,1.4,0,0,1,120.49,312.92Zm0-10.27a1.4,1.4,0,0,1-1.4-1.4v-4.67a1.4,1.4,0,0,1,2.8,0v4.67A1.4,1.4,0,0,1,120.49,302.65Zm0-10.27a1.4,1.4,0,0,1-1.4-1.4v-4.67a1.4,1.4,0,0,1,2.8,0V291A1.4,1.4,0,0,1,120.49,292.38Zm0-10.27a1.4,1.4,0,0,1-1.4-1.4V276a1.4,1.4,0,1,1,2.8,0v4.67A1.4,1.4,0,0,1,120.49,282.11Zm0-10.27a1.4,1.4,0,0,1-1.4-1.4v-4.67a1.4,1.4,0,0,1,2.8,0v4.67A1.4,1.4,0,0,1,120.49,271.84Zm0-10.27a1.4,1.4,0,0,1-1.4-1.4V255.5a1.4,1.4,0,0,1,2.8,0v4.67A1.4,1.4,0,0,1,120.49,261.57Zm0-10.27a1.4,1.4,0,0,1-1.4-1.4v-4.67a1.4,1.4,0,0,1,2.8,0v4.67A1.4,1.4,0,0,1,120.49,251.3Zm0-10.27a1.4,1.4,0,0,1-1.4-1.4V235a1.4,1.4,0,1,1,2.8,0v4.67A1.4,1.4,0,0,1,120.49,241Zm0-10.27a1.4,1.4,0,0,1-1.4-1.4v-4.67a1.4,1.4,0,1,1,2.8,0v4.67A1.4,1.4,0,0,1,120.49,230.76Zm0-10.27a1.4,1.4,0,0,1-1.4-1.4v-4.67a1.4,1.4,0,0,1,2.8,0v4.67A1.4,1.4,0,0,1,120.49,220.49Zm0-10.27a1.4,1.4,0,0,1-1.4-1.41v-4.66a1.4,1.4,0,1,1,2.8,0v4.66A1.41,1.41,0,0,1,120.49,210.22Zm0-10.27a1.4,1.4,0,0,1-1.4-1.4v-4.67a1.4,1.4,0,1,1,2.8,0v4.67A1.4,1.4,0,0,1,120.49,200Zm0-10.27a1.4,1.4,0,0,1-1.4-1.41v-4.66a1.4,1.4,0,1,1,2.8,0v4.66A1.41,1.41,0,0,1,120.49,189.68Zm0-10.28a1.39,1.39,0,0,1-1.4-1.4v-4.66a1.4,1.4,0,0,1,2.8,0V178A1.4,1.4,0,0,1,120.49,179.4Zm0-10.27a1.39,1.39,0,0,1-1.4-1.4v-4.66a1.4,1.4,0,0,1,2.8,0v4.66A1.4,1.4,0,0,1,120.49,169.13Zm0-10.27a1.39,1.39,0,0,1-1.4-1.4V152.8a1.4,1.4,0,1,1,2.8,0v4.66A1.4,1.4,0,0,1,120.49,158.86Zm0-10.27a1.39,1.39,0,0,1-1.4-1.4v-4.66a1.4,1.4,0,1,1,2.8,0v4.66A1.4,1.4,0,0,1,120.49,148.59Zm0-10.27a1.39,1.39,0,0,1-1.4-1.4v-1.71a1.4,1.4,0,1,1,2.8,0v1.71A1.4,1.4,0,0,1,120.49,138.32Z"/><polygon class="cls-5" points="111.83 139.32 120.49 126.6 129.14 139.32 111.83 139.32"/><path class="cls-5" d="M535.51,311.34a1.41,1.41,0,0,1-1.41-1.4v-4.67a1.41,1.41,0,0,1,2.81,0v4.67A1.4,1.4,0,0,1,535.51,311.34Zm0-10.27a1.41,1.41,0,0,1-1.41-1.4V295a1.41,1.41,0,0,1,2.81,0v4.67A1.4,1.4,0,0,1,535.51,301.07Zm0-10.27a1.41,1.41,0,0,1-1.41-1.4v-4.67a1.41,1.41,0,0,1,2.81,0v4.67A1.4,1.4,0,0,1,535.51,290.8Zm0-10.27a1.41,1.41,0,0,1-1.41-1.4v-4.67a1.41,1.41,0,0,1,2.81,0v4.67A1.4,1.4,0,0,1,535.51,280.53Zm0-10.27a1.41,1.41,0,0,1-1.41-1.4v-4.67a1.41,1.41,0,0,1,2.81,0v4.67A1.4,1.4,0,0,1,535.51,270.26Zm0-10.27a1.41,1.41,0,0,1-1.41-1.4v-4.67a1.41,1.41,0,0,1,2.81,0v4.67A1.4,1.4,0,0,1,535.51,260Zm0-10.27a1.41,1.41,0,0,1-1.41-1.4v-4.67a1.41,1.41,0,0,1,2.81,0v4.67A1.4,1.4,0,0,1,535.51,249.72Zm0-10.27a1.41,1.41,0,0,1-1.41-1.4v-4.67a1.41,1.41,0,0,1,2.81,0v4.67A1.4,1.4,0,0,1,535.51,239.45Zm0-10.27a1.41,1.41,0,0,1-1.41-1.4v-4.67a1.41,1.41,0,0,1,2.81,0v4.67A1.4,1.4,0,0,1,535.51,229.18Zm0-10.27a1.41,1.41,0,0,1-1.41-1.4v-4.67a1.41,1.41,0,0,1,2.81,0v4.67A1.4,1.4,0,0,1,535.51,218.91Zm0-10.27a1.41,1.41,0,0,1-1.41-1.4v-4.67a1.41,1.41,0,0,1,2.81,0v4.67A1.4,1.4,0,0,1,535.51,208.64Zm0-10.27a1.41,1.41,0,0,1-1.41-1.4V192.3a1.41,1.41,0,0,1,2.81,0V197A1.4,1.4,0,0,1,535.51,198.37Zm0-10.27a1.41,1.41,0,0,1-1.41-1.41V182a1.41,1.41,0,0,1,2.81,0v4.66A1.41,1.41,0,0,1,535.51,188.1Zm0-10.28a1.4,1.4,0,0,1-1.41-1.4v-4.66a1.41,1.41,0,0,1,2.81,0v4.66A1.4,1.4,0,0,1,535.51,177.82Zm0-10.26a1.41,1.41,0,0,1-1.41-1.41v-4.66a1.41,1.41,0,0,1,2.81,0v4.66A1.41,1.41,0,0,1,535.51,167.56Zm0-10.28a1.4,1.4,0,0,1-1.41-1.4v-4.66a1.41,1.41,0,1,1,2.81,0v4.66A1.4,1.4,0,0,1,535.51,157.28Zm0-10.27a1.4,1.4,0,0,1-1.41-1.4V141a1.41,1.41,0,0,1,2.81,0v4.66A1.4,1.4,0,0,1,535.51,147Zm0-10.27a1.4,1.4,0,0,1-1.41-1.4v-4.66a1.41,1.41,0,1,1,2.81,0v4.66A1.4,1.4,0,0,1,535.51,136.74Zm0-10.27a1.4,1.4,0,0,1-1.41-1.4V120.4a1.41,1.41,0,0,1,2.81,0v4.67A1.4,1.4,0,0,1,535.51,126.47Zm0-10.27a1.4,1.4,0,0,1-1.41-1.4v-4.67a1.41,1.41,0,0,1,2.81,0v4.67A1.4,1.4,0,0,1,535.51,116.2Zm0-10.27a1.4,1.4,0,0,1-1.41-1.4v-4.08c0-.16,0-.32,0-.48a1.4,1.4,0,0,1,2.79-.21q0,.34,0,.69v4.08A1.4,1.4,0,0,1,535.51,105.93Zm-2.3-9.65a1.39,1.39,0,0,1-1-.42A6.53,6.53,0,0,0,528.88,94a1.4,1.4,0,0,1,.57-2.74,9.25,9.25,0,0,1,4.75,2.59,1.41,1.41,0,0,1-1,2.39Zm-9.63-2.37h-4.67a1.4,1.4,0,1,1,0-2.8h4.67a1.4,1.4,0,0,1,0,2.8Zm-10.27,0h-4.67a1.4,1.4,0,1,1,0-2.8h4.67a1.4,1.4,0,0,1,0,2.8Zm-10.27,0h-4.67a1.4,1.4,0,1,1,0-2.8H503a1.4,1.4,0,0,1,0,2.8Zm-10.27,0H488.1a1.4,1.4,0,0,1,0-2.8h4.67a1.4,1.4,0,0,1,0,2.8Zm-10.27,0h-4.67a1.4,1.4,0,1,1,0-2.8h4.67a1.4,1.4,0,0,1,0,2.8Zm-10.27,0h-4.67a1.4,1.4,0,1,1,0-2.8h4.67a1.4,1.4,0,0,1,0,2.8Zm-10.27,0h-4.67a1.4,1.4,0,0,1,0-2.8H462a1.4,1.4,0,0,1,0,2.8Zm-10.27,0H447a1.4,1.4,0,1,1,0-2.8h4.67a1.4,1.4,0,0,1,0,2.8Zm-10.27,0h-4.67a1.4,1.4,0,1,1,0-2.8h4.67a1.4,1.4,0,0,1,0,2.8Zm-10.27,0h-4.67a1.4,1.4,0,0,1,0-2.8h4.67a1.4,1.4,0,0,1,0,2.8Zm-10.27,0h-4.67a1.4,1.4,0,1,1,0-2.8h4.67a1.4,1.4,0,0,1,0,2.8Zm-10.28,0h-4.66a1.4,1.4,0,1,1,0-2.8h4.66a1.4,1.4,0,1,1,0,2.8Zm-10.27,0h-4.66a1.4,1.4,0,1,1,0-2.8h4.66a1.4,1.4,0,0,1,0,2.8Zm-10.27,0H385.4a1.4,1.4,0,1,1,0-2.8h4.66a1.4,1.4,0,0,1,0,2.8Zm-10.27,0h-4.66a1.4,1.4,0,1,1,0-2.8h4.66a1.4,1.4,0,0,1,0,2.8Zm-10.27,0h-4.67a1.4,1.4,0,1,1,0-2.8h4.67a1.4,1.4,0,0,1,0,2.8Zm-10.27,0h-4.66a1.4,1.4,0,1,1,0-2.8h4.66a1.4,1.4,0,0,1,0,2.8Zm-10.27,0h-4.67a1.4,1.4,0,1,1,0-2.8H349a1.4,1.4,0,0,1,0,2.8Zm-10.27,0H334a1.4,1.4,0,1,1,0-2.8h4.67a1.4,1.4,0,1,1,0,2.8Zm-10.27,0h-4.67a1.4,1.4,0,1,1,0-2.8h4.67a1.4,1.4,0,0,1,0,2.8Zm-10.27,0H313.5a1.4,1.4,0,1,1,0-2.8h4.67a1.4,1.4,0,0,1,0,2.8Zm-10.27,0h-4.67a1.4,1.4,0,1,1,0-2.8h4.67a1.4,1.4,0,1,1,0,2.8Zm-10.27,0H293a1.4,1.4,0,1,1,0-2.8h4.67a1.4,1.4,0,0,1,0,2.8Zm-10.27,0h-4.67a1.4,1.4,0,1,1,0-2.8h4.67a1.4,1.4,0,0,1,0,2.8Zm-10.27,0h-4.67a1.4,1.4,0,1,1,0-2.8h4.67a1.4,1.4,0,1,1,0,2.8Zm-10.27,0h-4.67a1.4,1.4,0,1,1,0-2.8h4.67a1.4,1.4,0,1,1,0,2.8Zm-10.27,0h-4.67a1.4,1.4,0,0,1,0-2.8h4.67a1.4,1.4,0,0,1,0,2.8Zm-10.27,0h-4.67a1.4,1.4,0,0,1,0-2.8h4.67a1.4,1.4,0,1,1,0,2.8Zm-10.27,0h-4.67a1.4,1.4,0,0,1,0-2.8H236a1.4,1.4,0,1,1,0,2.8Zm-10.27,0h-4.67a1.4,1.4,0,0,1,0-2.8h4.67a1.4,1.4,0,0,1,0,2.8Zm-10.27,0h-.69a1.4,1.4,0,0,1,0-2.8h.69a1.4,1.4,0,0,1,0,2.8Z"/><polygon class="cls-5" points="218.9 83.85 206.18 92.51 218.9 101.17 218.9 83.85"/><rect class="cls-1" x="509.8" y="315.23" width="51.42" height="51.42" rx="6.79"/><path class="cls-2" d="M554.43,368.25H516.58a8.39,8.39,0,0,1-8.38-8.39V322a8.4,8.4,0,0,1,8.38-8.39h37.85a8.4,8.4,0,0,1,8.38,8.39v37.84A8.39,8.39,0,0,1,554.43,368.25Zm-37.85-51.42a5.2,5.2,0,0,0-5.19,5.19v37.84a5.2,5.2,0,0,0,5.19,5.2h37.85a5.2,5.2,0,0,0,5.19-5.2V322a5.2,5.2,0,0,0-5.19-5.19Z"/><rect class="cls-2" x="515.69" y="321.13" width="39.63" height="25.87" rx="2.26"/><polygon class="cls-1" points="535.64 344.04 543.21 333.65 538 345.4 535.5 347 535.64 344.04"/><path class="cls-1" d="M535.51,347.6a.6.6,0,0,1-.6-.63l.14-3a.57.57,0,0,1,.11-.33l7.57-10.38a.6.6,0,0,1,.78-.17.61.61,0,0,1,.25.76l-5.21,11.75a.58.58,0,0,1-.23.26l-2.49,1.6A.63.63,0,0,1,535.51,347.6Zm.72-3.36-.07,1.63,1.36-.88,2.86-6.44Z"/><path class="cls-1" d="M531.9,347a3.61,3.61,0,1,1,7.21,0Z"/><path class="cls-1" d="M539.11,348.19H531.9a1.19,1.19,0,0,1-1.2-1.19,4.81,4.81,0,0,1,9.61,0A1.19,1.19,0,0,1,539.11,348.19Zm-5.69-2.39h4.17a2.4,2.4,0,0,0-4.17,0Z"/><path class="cls-1" d="M550,332.53a20.46,20.46,0,0,0-28.93,0l-1.41-1.41a22.44,22.44,0,0,1,31.75,0Z"/><path class="cls-1" d="M535.51,329.53a1,1,0,0,1-1-1v-3a1,1,0,1,1,2,0v3A1,1,0,0,1,535.51,329.53Z"/><path class="cls-1" d="M522.45,334.94a1,1,0,0,1-.71-.3l-2.11-2.11a1,1,0,0,1,1.41-1.41l2.11,2.11a1,1,0,0,1,0,1.41A1,1,0,0,1,522.45,334.94Z"/><path class="cls-1" d="M526.27,332a1,1,0,0,1-.86-.5l-1.5-2.59a1,1,0,0,1,.37-1.36,1,1,0,0,1,1.36.37l1.5,2.58a1,1,0,0,1-.87,1.5Z"/><path class="cls-1" d="M530.72,330.16a1,1,0,0,1-1-.74l-.77-2.89a1,1,0,0,1,1.93-.52l.77,2.89a1,1,0,0,1-.71,1.22A1.09,1.09,0,0,1,530.72,330.16Z"/><path class="cls-1" d="M540.29,330.16a1.09,1.09,0,0,1-.26,0,1,1,0,0,1-.71-1.22l.78-2.89a1,1,0,0,1,1.92.52l-.77,2.89A1,1,0,0,1,540.29,330.16Z"/><path class="cls-1" d="M544.74,332a1,1,0,0,1-.5-.13,1,1,0,0,1-.36-1.37l1.49-2.58a1,1,0,0,1,1.36-.37,1,1,0,0,1,.37,1.36l-1.5,2.59A1,1,0,0,1,544.74,332Z"/><path class="cls-1" d="M548.56,334.94a1,1,0,0,1-.7-.3,1,1,0,0,1,0-1.41l2.11-2.11a1,1,0,0,1,1.41,1.41l-2.11,2.11A1,1,0,0,1,548.56,334.94Z"/><circle class="cls-1" cx="535.51" cy="356.14" r="4.55"/><path class="cls-2" d="M535.51,361.89a5.75,5.75,0,1,1,5.74-5.75A5.76,5.76,0,0,1,535.51,361.89Zm0-9.1a3.35,3.35,0,1,0,3.35,3.35A3.36,3.36,0,0,0,535.51,352.79Z"/><g class="cls-6"><rect class="cls-7" x="512.31" y="339.07" width="18.67" height="167.13" transform="translate(-146.06 492.65) rotate(-45)"/><rect class="cls-7" x="438.08" y="413.3" width="167.13" height="18.67" transform="translate(-146.06 492.65) rotate(-45)"/></g></svg>