<svg id="レイヤー_1" data-name="レイヤー 1" xmlns="http://www.w3.org/2000/svg" viewBox="0 0 677.24 301.52"><defs><style>.cls-1{fill:#162789;}.cls-2,.cls-4,.cls-6{fill:#f7f9f9;}.cls-3,.cls-5{fill:none;}.cls-3,.cls-4,.cls-5,.cls-6{stroke:#f7f9f9;stroke-linecap:round;stroke-linejoin:round;}.cls-3{stroke-width:3.6px;}.cls-4,.cls-5{stroke-width:2.06px;}.cls-6{stroke-width:1.06px;}</style></defs><title>アートボード 7</title><path class="cls-1" d="M338.62,220c31.73,0,55.66,13.1,81.26,37.36s65,44.16,106.6,44.16A150.76,150.76,0,1,0,526.48,0c-41.63,0-81,19.89-106.6,44.16s-49.53,37.36-81.26,37.36S283,68.42,257.36,44.16,192.39,0,150.76,0a150.76,150.76,0,0,0,0,301.52c41.63,0,81-19.89,106.6-44.16S306.89,220,338.62,220Z"/><path class="cls-2" d="M87.44,224a2.39,2.39,0,0,1-.9-.17L41,205.6a2.43,2.43,0,0,1-1.51-2.24V143.23a2.41,2.41,0,0,1,2.41-2.42,17.47,17.47,0,0,1,17.45,17.45,2.42,2.42,0,1,1-4.83,0,12.64,12.64,0,0,0-10.2-12.38v55.84l42.42,17L113,188.35a2.42,2.42,0,0,1,3.66,3.16L89.27,223.19A2.42,2.42,0,0,1,87.44,224Z"/><path class="cls-2" d="M89.66,236.37A2.41,2.41,0,0,1,87.44,233l3.21-7.5L36.77,203.9,23,234.93a2.42,2.42,0,0,1-4.42-2l14.68-33.17a2.41,2.41,0,0,1,3.11-1.26l58.34,23.38a2.41,2.41,0,0,1,1.33,3.19l-4.19,9.78A2.41,2.41,0,0,1,89.66,236.37Z"/><rect class="cls-2" x="54.56" y="88.68" width="65.37" height="107.14" rx="6.09"/><path class="cls-1" d="M95.3,97.55H79.2a2.15,2.15,0,0,1,0-4.3H95.3a2.15,2.15,0,0,1,0,4.3Z"/><rect class="cls-1" x="63.19" y="101.92" width="48.11" height="69.74" rx="3.04"/><circle class="cls-1" cx="87.25" cy="182.77" r="5.69"/><ellipse class="cls-1" cx="119.41" cy="145.62" rx="8.4" ry="6.11"/><path class="cls-2" d="M119.41,154.14c-6.06,0-10.81-3.74-10.81-8.52s4.75-8.53,10.81-8.53,10.82,3.75,10.82,8.53S125.48,154.14,119.41,154.14Zm0-12.21c-3.52,0-6,1.94-6,3.69s2.46,3.69,6,3.69,6-1.95,6-3.69S122.94,141.93,119.41,141.93Z"/><ellipse class="cls-1" cx="119.41" cy="157.83" rx="8.4" ry="6.11"/><path class="cls-2" d="M119.41,166.35c-6.06,0-10.81-3.74-10.81-8.52s4.75-8.52,10.81-8.52,10.82,3.74,10.82,8.52S125.48,166.35,119.41,166.35Zm0-12.21c-3.52,0-6,1.94-6,3.69s2.46,3.69,6,3.69,6-2,6-3.69S122.94,154.14,119.41,154.14Z"/><ellipse class="cls-1" cx="119.41" cy="170.04" rx="8.4" ry="6.11"/><path class="cls-2" d="M119.41,178.57c-6.06,0-10.81-3.75-10.81-8.53s4.75-8.52,10.81-8.52,10.82,3.74,10.82,8.52S125.48,178.57,119.41,178.57Zm0-12.22c-3.52,0-6,2-6,3.69s2.46,3.69,6,3.69,6-1.94,6-3.69S122.94,166.35,119.41,166.35Z"/><ellipse class="cls-1" cx="119.41" cy="182.26" rx="8.4" ry="6.11"/><path class="cls-2" d="M119.41,190.78c-6.06,0-10.81-3.75-10.81-8.52s4.75-8.53,10.81-8.53,10.82,3.75,10.82,8.53S125.48,190.78,119.41,190.78Zm0-12.21c-3.52,0-6,1.94-6,3.69s2.46,3.68,6,3.68,6-1.94,6-3.68S122.94,178.57,119.41,178.57Z"/><rect class="cls-1" x="89.01" y="111.56" width="45.71" height="30.6"/><path class="cls-2" d="M134.72,144.58H89a2.42,2.42,0,0,1-2.42-2.42V111.57A2.42,2.42,0,0,1,89,109.15h45.71a2.42,2.42,0,0,1,2.42,2.42v30.59A2.42,2.42,0,0,1,134.72,144.58Zm-43.29-4.83H132.3V114H91.43Z"/><polygon class="cls-1" points="89.01 111.56 111.87 132.98 134.72 111.56 89.01 111.56"/><path class="cls-2" d="M111.87,135.4a2.45,2.45,0,0,1-1.66-.65L87.36,113.33A2.41,2.41,0,0,1,89,109.15h45.71a2.41,2.41,0,0,1,1.65,4.18l-22.85,21.42A2.44,2.44,0,0,1,111.87,135.4ZM95.12,114l16.75,15.69L128.61,114Z"/><path class="cls-2" d="M164.84,119.91H134.72a2.42,2.42,0,1,1,0-4.84h30.12a2.42,2.42,0,0,1,0,4.84Z"/><path class="cls-2" d="M158.6,128.33H134.72a2.42,2.42,0,1,1,0-4.84H158.6a2.42,2.42,0,1,1,0,4.84Z"/><path class="cls-2" d="M149.25,136.75H134.72a2.42,2.42,0,0,1,0-4.84h14.53a2.42,2.42,0,0,1,0,4.84Z"/><rect class="cls-2" x="461.1" y="200.11" width="21.5" height="25.06"/><path class="cls-2" d="M482.6,228.26H461.1a3.09,3.09,0,0,1-3.09-3.09V200.11A3.09,3.09,0,0,1,461.1,197h21.5a3.09,3.09,0,0,1,3.09,3.09v25.06A3.09,3.09,0,0,1,482.6,228.26Zm-18.41-6.17h15.33V203.2H464.19Z"/><path class="cls-2" d="M560.49,203.2H383.21a8.93,8.93,0,0,1-8.92-8.92V99.66a8.93,8.93,0,0,1,8.92-8.92H560.49a8.93,8.93,0,0,1,8.92,8.92v94.62A8.93,8.93,0,0,1,560.49,203.2ZM383.21,96.91a2.76,2.76,0,0,0-2.75,2.75v94.62a2.75,2.75,0,0,0,2.75,2.74H560.49a2.75,2.75,0,0,0,2.75-2.74V99.66a2.75,2.75,0,0,0-2.75-2.75Z"/><path class="cls-2" d="M516.8,229.29H426.91a4.12,4.12,0,1,1,0-8.23H516.8a4.12,4.12,0,0,1,0,8.23Z"/><circle class="cls-3" cx="428.28" cy="169.63" r="18.83"/><line class="cls-3" x1="428.28" y1="150.8" x2="428.28" y2="169.63"/><line class="cls-3" x1="416.1" y1="183.99" x2="428.28" y2="169.63"/><line class="cls-3" x1="410.49" y1="163.44" x2="428.28" y2="169.63"/><line class="cls-3" x1="419.53" y1="152.95" x2="428.28" y2="169.63"/><polyline class="cls-3" points="482.62 107.62 482.62 139.73 545.14 139.73"/><rect class="cls-4" x="490.65" y="122.59" width="5.87" height="17.14"/><rect class="cls-4" x="504.05" y="110.71" width="5.87" height="29.02"/><rect class="cls-4" x="517.45" y="122.9" width="5.87" height="16.83"/><rect class="cls-4" x="530.85" y="130.62" width="5.87" height="9.11"/><line class="cls-5" x1="478.57" y1="109.19" x2="482.62" y2="109.19"/><line class="cls-5" x1="478.57" y1="115.75" x2="482.62" y2="115.75"/><line class="cls-5" x1="478.57" y1="122.31" x2="482.62" y2="122.31"/><line class="cls-5" x1="478.57" y1="128.87" x2="482.62" y2="128.87"/><line class="cls-5" x1="478.57" y1="135.43" x2="482.62" y2="135.43"/><polyline class="cls-3" points="482.62 153.93 482.62 186.04 545.14 186.04"/><line class="cls-5" x1="478.57" y1="155.51" x2="482.62" y2="155.51"/><line class="cls-5" x1="478.57" y1="162.07" x2="482.62" y2="162.07"/><line class="cls-5" x1="478.57" y1="168.63" x2="482.62" y2="168.63"/><line class="cls-5" x1="478.57" y1="175.19" x2="482.62" y2="175.19"/><line class="cls-5" x1="478.57" y1="181.74" x2="482.62" y2="181.74"/><polyline class="cls-3" points="482.62 177.89 492.5 172.33 495.28 178.2 504.39 167.09 509.79 175.42 517.35 158.13 521.99 167.39 539.12 157.05"/><polyline class="cls-3" points="428.42 139.73 428.42 108.03 407.18 116.53 407.18 139.73"/><line class="cls-3" x1="457.99" y1="139.73" x2="398.84" y2="139.73"/><polyline class="cls-3" points="428.42 139.73 428.42 116.53 449.65 108.03 449.65 139.73"/><rect class="cls-6" x="412.98" y="121.75" width="3.15" height="4.36"/><rect class="cls-6" x="418.72" y="121.75" width="3.15" height="4.36"/><rect class="cls-6" x="434.83" y="121.75" width="3.15" height="4.36"/><rect class="cls-6" x="440.56" y="121.75" width="3.15" height="4.36"/><path class="cls-2" d="M617.9,173.75H597.79a1.88,1.88,0,0,1-1.88-1.88c0-7.75,5.36-14.05,11.94-14.05s11.93,6.3,11.93,14.05A1.88,1.88,0,0,1,617.9,173.75ZM599.81,170h16.08c-.71-4.78-4-8.41-8-8.41S600.51,165.21,599.81,170Z"/><path class="cls-2" d="M607.85,186.28c-5.67,0-10.11-6.33-10.11-14.41V170H618v1.88C618,180,613.52,186.28,607.85,186.28Zm-6.25-12.53c.55,4.92,3.19,8.77,6.25,8.77s5.7-3.85,6.25-8.77Z"/><path class="cls-2" d="M617.9,173.75H591.81a1.88,1.88,0,1,1,0-3.76H617.9a1.88,1.88,0,0,1,0,3.76Z"/><path class="cls-2" d="M621.86,233a1.85,1.85,0,0,1-1-.31,2,2,0,0,1-.54-.54A6.82,6.82,0,0,1,617,233H601.66a1.88,1.88,0,0,1,0-3.76H617a3.25,3.25,0,0,0,3.18-3.05l.75-18.28c.12-2.9,1.5-3.75,2.32-4s2.43-.3,4.13,2.05l3.32,4.6a9.48,9.48,0,0,1,.23,10.13l-7.5,11.45A1.88,1.88,0,0,1,621.86,233Zm2.81-24.36L624,224.39l3.77-5.75a5.75,5.75,0,0,0-.14-5.87Z"/><path class="cls-2" d="M593.84,233a1.9,1.9,0,0,1-1.58-.85l-7.5-11.45a9.48,9.48,0,0,1,.24-10.13l3.32-4.6c1.7-2.35,3.32-2.29,4.13-2.05s2.19,1.09,2.31,4l1,23.13a1.88,1.88,0,0,1-1.87,2ZM591,208.64l-3,4.13a5.75,5.75,0,0,0-.13,5.87l3.77,5.75Z"/><path class="cls-2" d="M630.44,233a1.85,1.85,0,0,1-1-.31,1.89,1.89,0,0,1-.55-2.6l8-12.3a5.93,5.93,0,0,0-.09-6l-12.3-17.71a8.54,8.54,0,0,0-6.08-3.18H597.29a8.56,8.56,0,0,0-6.09,3.18l-12.3,17.71a5.93,5.93,0,0,0-.08,6l8,12.3a1.87,1.87,0,1,1-3.14,2l-8-12.3a9.66,9.66,0,0,1,.15-10.15L588.12,192a12.3,12.3,0,0,1,9.17-4.79h21.12a12.32,12.32,0,0,1,9.17,4.79l12.3,17.72a9.69,9.69,0,0,1,.15,10.15l-8,12.3A1.86,1.86,0,0,1,630.44,233Z"/><path class="cls-2" d="M640.6,82.79H620.49a1.88,1.88,0,0,1-1.88-1.88c0-7.76,5.36-14.06,11.94-14.06s11.93,6.3,11.93,14.06A1.88,1.88,0,0,1,640.6,82.79ZM622.51,79h16.08c-.71-4.79-4-8.42-8-8.42S623.21,74.24,622.51,79Z"/><path class="cls-2" d="M630.55,95.31c-5.67,0-10.11-6.32-10.11-14.4V79h20.22v1.88C640.66,89,636.22,95.31,630.55,95.31ZM624.3,82.79c.55,4.91,3.19,8.76,6.25,8.76s5.7-3.85,6.25-8.76Z"/><path class="cls-2" d="M640.6,82.79H614.51a1.88,1.88,0,1,1,0-3.76H640.6a1.88,1.88,0,0,1,0,3.76Z"/><path class="cls-2" d="M644.56,142a1.85,1.85,0,0,1-1-.31,2,2,0,0,1-.54-.54,6.85,6.85,0,0,1-3.29.85H624.36a1.88,1.88,0,0,1,0-3.76H639.7a3.25,3.25,0,0,0,3.18-3.05l.75-18.28c.12-2.9,1.5-3.74,2.32-4s2.42-.3,4.13,2.06l3.32,4.59a9.48,9.48,0,0,1,.23,10.13l-7.5,11.45A1.88,1.88,0,0,1,644.56,142Zm2.8-24.36-.64,15.75,3.77-5.75a5.75,5.75,0,0,0-.14-5.87Z"/><path class="cls-2" d="M616.54,142a1.89,1.89,0,0,1-1.58-.85l-7.5-11.45a9.48,9.48,0,0,1,.24-10.13L611,115c1.7-2.35,3.32-2.29,4.13-2s2.19,1.09,2.31,4l.95,23.13a1.88,1.88,0,0,1-1.87,2Zm-2.81-24.36-3,4.13a5.75,5.75,0,0,0-.13,5.87l3.77,5.75Z"/><path class="cls-2" d="M608,142a1.88,1.88,0,0,1-1.58-.86l-8-12.3a9.69,9.69,0,0,1,.14-10.15L610.82,101a12.31,12.31,0,0,1,9.16-4.8h21.13a12.34,12.34,0,0,1,9.17,4.8l12.3,17.71a9.69,9.69,0,0,1,.15,10.15l-8,12.3a1.88,1.88,0,0,1-3.15-2l8-12.3a6,6,0,0,0-.09-6l-12.3-17.71a8.54,8.54,0,0,0-6.08-3.18H620a8.56,8.56,0,0,0-6.08,3.18l-12.3,17.71a5.93,5.93,0,0,0-.08,6l8,12.3A1.88,1.88,0,0,1,608,142Z"/><path class="cls-2" d="M227,75.22H211.47a1.88,1.88,0,0,1-1.88-1.88c0-6.21,4.32-11.27,9.63-11.27s9.64,5.06,9.64,11.27A1.88,1.88,0,0,1,227,75.22Zm-13.44-3.76h11.37c-.65-3.23-3-5.63-5.69-5.63S214.19,68.23,213.54,71.46Z"/><path class="cls-2" d="M219.22,84.88c-4.61,0-8.22-5.07-8.22-11.54V71.46h16.45v1.88C227.45,79.81,223.84,84.88,219.22,84.88Zm-4.32-9.66c.53,3.56,2.51,5.9,4.32,5.9s3.8-2.34,4.33-5.9Z"/><path class="cls-2" d="M230.61,75.22H211.47a1.88,1.88,0,1,1,0-3.76h19.14a1.88,1.88,0,0,1,0,3.76Z"/><path class="cls-2" d="M221.09,120.41h-8.76a1.88,1.88,0,0,1,0-3.76h8.76a3,3,0,0,0,3-3V93a3,3,0,0,0-3-3h-3.73a16.2,16.2,0,0,0-7.73,2.46l-12,8.51a1.74,1.74,0,0,0-.71,1.15,1.71,1.71,0,0,0,.31,1.31l6.55,9a4.3,4.3,0,0,0,2.65,1.95,4.42,4.42,0,0,0-.6-3.27l-1.07-2a6.88,6.88,0,0,1,2.73-9.17l7.18-4a1.88,1.88,0,0,1,1.82,3.29l-7.18,4a3.12,3.12,0,0,0-1.22,4.13l1.07,2c1.75,3.33,1.45,6.86-.71,8.23s-5.48.12-7.71-2.93l-6.54-9a5.5,5.5,0,0,1,1.26-7.74l12-8.52a19.7,19.7,0,0,1,9.9-3.15h3.73A6.74,6.74,0,0,1,227.82,93v20.7A6.74,6.74,0,0,1,221.09,120.41Z"/><path class="cls-2" d="M192.48,171.69a4.48,4.48,0,0,1-2.1-.5c-2.6-1.36-3.36-5.07-1.72-8.44l19.85-40.68a10.39,10.39,0,0,1,8.67-5.42h3.91a4.35,4.35,0,0,1,4,7l-26.66,44.25A7.3,7.3,0,0,1,192.48,171.69Zm24.7-51.28a6.64,6.64,0,0,0-5.29,3.31h0L192,164.4c-.79,1.64-.48,3.16.08,3.45s2.09-.29,3-1.88l26.66-44.25c.35-.58.36-1,.31-1s-.38-.27-1-.27Zm-7,2.49h0Z"/><path class="cls-2" d="M235.72,108.36a5.28,5.28,0,0,1-3-.92l-1.88-1.29a1.87,1.87,0,1,1,2.11-3.1l1.89,1.28a1.52,1.52,0,0,0,2.13-.44l6.09-9.5a4.43,4.43,0,0,0,.86-3.17A4.33,4.33,0,0,0,241.12,93l-1.5,1.73a7,7,0,0,1-9.56.85l-6.59-5.3a1.88,1.88,0,1,1,2.36-2.93l6.58,5.31a3.24,3.24,0,0,0,4.37-.39l1.5-1.74c2.46-2.84,5.87-3.83,7.93-2.31s2.09,5.06,0,8.24l-6.08,9.5a5.24,5.24,0,0,1-3.39,2.33A5.63,5.63,0,0,1,235.72,108.36Z"/><path class="cls-2" d="M224.07,168.52a4.28,4.28,0,0,1-2-.49c-2.51-1.3-3.53-5-2.33-8.45l4.57-13a7.53,7.53,0,0,0-.91-6.3l-2.81-3.52a1.88,1.88,0,0,1,2.94-2.35l2.81,3.52a11.36,11.36,0,0,1,1.52,9.9l-4.57,13c-.64,1.83-.11,3.54.52,3.87a.89.89,0,0,0,.66,0,3.63,3.63,0,0,0,1.93-1.94l7.8-16a9.43,9.43,0,0,0,0-7.08l-9.93-20.34a1.9,1.9,0,0,1,.87-2.52,1.88,1.88,0,0,1,2.51.87l9.92,20.34a13.18,13.18,0,0,1,0,10.38l-7.79,16a7.34,7.34,0,0,1-4.14,3.86A4.94,4.94,0,0,1,224.07,168.52Z"/><rect class="cls-2" x="245.93" y="69.95" width="11.53" height="18.9" rx="1.02"/><path class="cls-1" d="M255,82.85V73.56a.48.48,0,0,0-.48-.47h-5.65a.48.48,0,0,0-.48.47v9.29"/><circle class="cls-1" cx="251.69" cy="85.66" r="1.01"/><path class="cls-2" d="M178.89,164.47h-15.5a1.88,1.88,0,0,1-1.88-1.88c0-6.22,4.32-11.27,9.63-11.27s9.63,5.05,9.63,11.27A1.88,1.88,0,0,1,178.89,164.47Zm-13.44-3.76h11.37c-.65-3.24-2.95-5.63-5.68-5.63S166.11,157.47,165.45,160.71Z"/><path class="cls-2" d="M171.14,174.13c-4.61,0-8.23-5.07-8.23-11.54v-1.88h16.45v1.88C179.36,169.06,175.75,174.13,171.14,174.13Zm-4.33-9.66c.53,3.55,2.52,5.9,4.33,5.9s3.8-2.35,4.33-5.9Z"/><path class="cls-2" d="M182.85,164.47H163.39a1.88,1.88,0,0,1,0-3.76h19.46a1.88,1.88,0,0,1,0,3.76Z"/><path class="cls-2" d="M173,209.66h-8.76a1.88,1.88,0,0,1,0-3.76H173a3,3,0,0,0,3-3V182.23a3,3,0,0,0-3-3h-3.72a16.2,16.2,0,0,0-7.73,2.46l-12,8.52a1.74,1.74,0,0,0-.72,1.14,1.77,1.77,0,0,0,.32,1.32l6.54,9a4.44,4.44,0,0,0,2.65,1.95,4.39,4.39,0,0,0-.59-3.27l-1.07-2a6.87,6.87,0,0,1,2.72-9.17l7.18-4a1.88,1.88,0,0,1,1.82,3.29l-7.17,4a3.14,3.14,0,0,0-1.23,4.13l1.07,2c1.76,3.32,1.45,6.86-.71,8.23s-5.48.11-7.7-2.93l-6.55-9a5.51,5.51,0,0,1,1.26-7.74l12-8.51a19.77,19.77,0,0,1,9.91-3.16H173a6.74,6.74,0,0,1,6.74,6.74v20.69A6.74,6.74,0,0,1,173,209.66Z"/><path class="cls-2" d="M144.39,260.93a4.47,4.47,0,0,1-2.09-.5c-2.61-1.36-3.36-5.06-1.72-8.43l19.84-40.68a10.42,10.42,0,0,1,8.68-5.42H173a4.35,4.35,0,0,1,4,7l-26.65,44.24A7.29,7.29,0,0,1,144.39,260.93Zm24.71-51.27a6.64,6.64,0,0,0-5.3,3.31h0L144,253.65c-.8,1.63-.48,3.16.07,3.45s2.1-.3,3.05-1.89L173.74,211c.35-.58.37-1,.32-1.05s-.38-.26-1.06-.26Zm-7,2.48h0Z"/><path class="cls-2" d="M187.63,197.6a5.2,5.2,0,0,1-3-.92l-1.88-1.28a1.88,1.88,0,0,1,2.12-3.11l1.88,1.28a1.52,1.52,0,0,0,2.14-.43l6.08-9.5a4.4,4.4,0,0,0,.86-3.18A4.45,4.45,0,0,0,193,182.2l-1.5,1.73a7,7,0,0,1-9.56.86l-6.59-5.31a1.88,1.88,0,0,1,2.36-2.92l6.59,5.3a3.21,3.21,0,0,0,4.36-.39l1.5-1.73c2.47-2.84,5.87-3.84,7.93-2.32s2.09,5.07.06,8.25l-6.08,9.5a5.27,5.27,0,0,1-3.4,2.32A4.8,4.8,0,0,1,187.63,197.6Z"/><path class="cls-2" d="M176,257.76a4.39,4.39,0,0,1-2-.48c-2.5-1.31-3.52-5-2.32-8.45l4.56-13a7.59,7.59,0,0,0-.9-6.31L172.49,226a1.87,1.87,0,1,1,2.93-2.34l2.82,3.52a11.34,11.34,0,0,1,1.51,9.89l-4.56,13c-.64,1.83-.12,3.55.51,3.87a.89.89,0,0,0,.66,0A3.71,3.71,0,0,0,178.3,252l7.79-16a9.43,9.43,0,0,0,0-7.08l-9.92-20.34a1.87,1.87,0,0,1,.86-2.51,1.89,1.89,0,0,1,2.52.86l9.92,20.34a13.18,13.18,0,0,1,0,10.38l-7.79,16a7.4,7.4,0,0,1-4.14,3.86A5,5,0,0,1,176,257.76Z"/><path class="cls-2" d="M276.65,120.41H261.14a1.88,1.88,0,0,1-1.88-1.88c0-6.21,4.32-11.26,9.64-11.26s9.63,5,9.63,11.26A1.88,1.88,0,0,1,276.65,120.41Zm-13.44-3.76h11.37c-.65-3.23-2.95-5.62-5.68-5.62S263.86,113.42,263.21,116.65Z"/><path class="cls-2" d="M268.9,130.07c-4.62,0-8.23-5.07-8.23-11.54v-1.88h16.45v1.88C277.12,125,273.51,130.07,268.9,130.07Zm-4.33-9.66c.53,3.56,2.51,5.9,4.33,5.9s3.79-2.34,4.32-5.9Z"/><path class="cls-2" d="M280.28,120.41H261.14a1.88,1.88,0,0,1,0-3.76h19.14a1.88,1.88,0,0,1,0,3.76Z"/><path class="cls-2" d="M270.76,165.61H262a1.88,1.88,0,1,1,0-3.76h8.76a3,3,0,0,0,3-3v-20.7a3,3,0,0,0-3-3H267a16.24,16.24,0,0,0-7.73,2.46l-12,8.52a1.72,1.72,0,0,0-.71,1.14,1.7,1.7,0,0,0,.31,1.31l6.55,9a4.39,4.39,0,0,0,2.65,2,4.44,4.44,0,0,0-.6-3.28l-1.07-2a6.89,6.89,0,0,1,2.73-9.18l7.18-4a1.88,1.88,0,0,1,1.82,3.29l-7.18,4a3.12,3.12,0,0,0-1.22,4.13l1.07,2c1.75,3.32,1.45,6.86-.71,8.22s-5.48.12-7.71-2.93l-6.54-9a5.51,5.51,0,0,1,1.26-7.74l12-8.52a19.73,19.73,0,0,1,9.9-3.15h3.73a6.74,6.74,0,0,1,6.73,6.73v20.7A6.75,6.75,0,0,1,270.76,165.61Z"/><path class="cls-2" d="M242.15,216.88a4.51,4.51,0,0,1-2.1-.5c-2.6-1.36-3.36-5.06-1.71-8.43l19.84-40.68a10.39,10.39,0,0,1,8.67-5.42h3.91a4.34,4.34,0,0,1,4,7L248.06,213.1A7.26,7.26,0,0,1,242.15,216.88Zm17.72-48.79,1.69.82-19.85,40.68c-.79,1.64-.48,3.16.08,3.45s2.09-.29,3.05-1.88l26.66-44.25c.35-.58.36-1,.31-1s-.31-.26-1.05-.26h-3.91a6.63,6.63,0,0,0-5.29,3.3Z"/><path class="cls-2" d="M285.39,153.55a5.28,5.28,0,0,1-3-.92l-1.88-1.29a1.87,1.87,0,1,1,2.11-3.1l1.89,1.28a1.48,1.48,0,0,0,1.16.23,1.53,1.53,0,0,0,1-.67l6.08-9.49a4.46,4.46,0,0,0,.86-3.18,4.45,4.45,0,0,0-2.84,1.74l-1.5,1.73a7,7,0,0,1-9.56.86l-6.59-5.31a1.88,1.88,0,1,1,2.36-2.93l6.58,5.31a3.24,3.24,0,0,0,4.37-.39l1.5-1.73c2.46-2.84,5.87-3.84,7.93-2.32s2.09,5.07.05,8.24l-6.08,9.5a5.27,5.27,0,0,1-3.39,2.33A5.55,5.55,0,0,1,285.39,153.55Z"/><path class="cls-2" d="M273.74,213.71a4.28,4.28,0,0,1-2-.49c-2.51-1.3-3.53-5-2.33-8.44l4.57-13a7.59,7.59,0,0,0-.9-6.31l-2.82-3.52a1.88,1.88,0,0,1,2.94-2.35l2.81,3.52a11.37,11.37,0,0,1,1.52,9.9l-4.57,13c-.64,1.83-.11,3.54.52,3.87a.84.84,0,0,0,.66,0,3.63,3.63,0,0,0,1.93-1.93l7.8-16a9.43,9.43,0,0,0,0-7.08l-9.93-20.34a1.88,1.88,0,0,1,3.38-1.65l9.93,20.34a13.26,13.26,0,0,1,0,10.38l-7.8,16a7.3,7.3,0,0,1-4.14,3.86A4.71,4.71,0,0,1,273.74,213.71Z"/></svg>