<svg id="レイヤー_1" data-name="レイヤー 1" xmlns="http://www.w3.org/2000/svg" viewBox="0 0 576.1 473.34"><defs><style>.cls-1,.cls-3{fill:#162789;}.cls-2,.cls-5{fill:none;}.cls-2,.cls-3,.cls-4,.cls-5{stroke:#162789;stroke-width:3px;}.cls-2,.cls-3,.cls-4{stroke-linecap:round;stroke-linejoin:round;}.cls-4{fill:#f7f9f9;}.cls-5{stroke-miterlimit:10;}</style></defs><title>アートボード 6</title><path class="cls-1" d="M336.28,224.52c0,3.53,0,7.06,0,8.18a6.74,6.74,0,0,1-2.41.85H326.7a3.39,3.39,0,0,1-2.4-.62c-.75-.75-.75-2.5-.74-5.14v-2.12l-1.06.9c-6.88,5.83-14.15,8.78-21.62,8.78a33,33,0,0,1-11-2c-8.69-3.07-14.27-10.65-14.93-20.28-.71-10.48,4.57-20.21,13.46-24.78,7.91-4.08,34.58-4.23,34.85-4.23h.63v-.64c0-.18-.22-18.5-16.08-21.88a16.81,16.81,0,0,0-3.58-.34,56.75,56.75,0,0,0-11.46,1.65,30.91,30.91,0,0,1-4.17.75c-1.83,0-3.21-1.87-3.86-3.48-1-2.46-1.94-4.78,1.8-6.55A55.87,55.87,0,0,1,304.84,150a21.33,21.33,0,0,1,2.77.16c10.85,1.35,18.43,5.59,23.85,13.36,3.06,4.38,4.82,11.63,4.82,19.87v17.49c0,10.39,0,19.56,0,23.66m-25.37-87.3a60.09,60.09,0,0,0-21.93-.83,44.39,44.39,0,0,1-25.41-4,36,36,0,0,0-36.15,3.31,33.12,33.12,0,0,1,7.72,2.1c10,4.46,15.75,10.47,18.66,19.47,1.62,5,1.17,12.35-1.22,20.16l-5,16.46c-3.07,10.05-5.79,18.94-7,22.88-.29.95-.58,1.88-.86,2.77,7.33,21,25.47,37.25,48.63,40.61,34.71,5,67-20.82,70-57.13,2.59-30.82-17.85-59.23-47.36-65.83m-69.68,38,.31-1c.06-.18,5.31-18.08-9.17-26.11-3.89-2.16-9.64-2.74-14.11-3.11a37.8,37.8,0,0,0-6.7,17.94,40.52,40.52,0,0,0-.13,5.81c11,.86,28.59,6.13,28.78,6.19Zm81.89,18.58-.62.05c-1.73.14-10.6.86-15.21,1.33l-.67.06c-5.6.57-11.38,1.16-15.32,5.6a14.83,14.83,0,0,0-2.93,14.33c2.19,6.22,8,9.93,15.46,9.93a20.44,20.44,0,0,0,14.22-5.57,15.18,15.18,0,0,0,2.46-3.26c3.64-6.51,3.47-15.48,2.68-21.86Zm-86.27-10.62c-2.42-.53-10.63-2.32-14.95-3.17l-.66-.14a48.82,48.82,0,0,0-8-1.1c-.22,0-.43,0-.65,0a14.81,14.81,0,0,0-8,2.08,15.25,15.25,0,0,0-7.2,13.23c.28,6.77,4.83,12.15,12.17,14.38a21.69,21.69,0,0,0,6.41,1,19.52,19.52,0,0,0,9.15-2.17,15.46,15.46,0,0,0,3.4-2.46,20.91,20.91,0,0,0,2.36-2.77c3.85-5.22,5.79-12.21,6.74-17.59l.17-1Z"/><rect class="cls-2" x="13" y="221.48" width="13.09" height="13.97" rx="1.42"/><rect class="cls-2" x="49.08" y="221.48" width="13.09" height="13.97" rx="1.42"/><rect class="cls-2" x="85.16" y="221.48" width="13.09" height="13.97" rx="1.42"/><path class="cls-2" d="M98.63,196.76a.82.82,0,0,1-1.28-.8v-19.4a1.43,1.43,0,0,0-1.42-1.42H87.48a1.43,1.43,0,0,0-1.42,1.42v24.83a2.47,2.47,0,0,1-1.27,2l-9.85,4.73a.82.82,0,0,1-1.27-.8V192.83a.82.82,0,0,0-1.28-.8L38.86,208.15a.82.82,0,0,1-1.28-.8V192.83a.82.82,0,0,0-1.27-.8L2.78,208.15a2.46,2.46,0,0,0-1.28,2v51.46a1.43,1.43,0,0,0,1.42,1.42H108.33a1.43,1.43,0,0,0,1.42-1.42V192.83a.82.82,0,0,0-1.28-.8Z"/><path class="cls-2" d="M98.63,196.76a.82.82,0,0,1-1.28-.8v-19.4a1.43,1.43,0,0,0-1.42-1.42H87.48a1.43,1.43,0,0,0-1.42,1.42v24.83a2.47,2.47,0,0,1-1.27,2l-9.85,4.73a.82.82,0,0,1-1.27-.8V192.83a.82.82,0,0,0-1.28-.8L38.86,208.15a.82.82,0,0,1-1.28-.8V192.83a.82.82,0,0,0-1.27-.8L2.78,208.15a2.46,2.46,0,0,0-1.28,2v51.46a1.43,1.43,0,0,0,1.42,1.42H108.33a1.43,1.43,0,0,0,1.42-1.42V192.83a.82.82,0,0,0-1.28-.8Z"/><path class="cls-1" d="M46.1,286a15.41,15.41,0,0,1-2.52,1.42,8.89,8.89,0,0,0,3.36,1.19,3.27,3.27,0,0,0-.73,1,7.5,7.5,0,0,1-5.79-4.17,9.94,9.94,0,0,1-1.83,1.09v1.5l3-.45,0,1-5.52.84-.19-1.08c.4,0,.88-.11,1.4-.18v-1.14a17.12,17.12,0,0,1-2.58.73,4.47,4.47,0,0,0-.7-.95,16.07,16.07,0,0,0,4.81-1.54H34.29v-1h5.55v-.8h1.28v.8h5.57v1h-5.1a5.23,5.23,0,0,0,1.15,1.46,19.35,19.35,0,0,0,2.42-1.46Zm-8.84-5.8h-3v-.91h.93a6.46,6.46,0,0,0-.82-.43,6,6,0,0,0,1.11-2.08l1,.26c-.09.22-.17.45-.27.67h1.08v-.95h1.12v.95h2.41v.87H38.38v.71h2.83v.91H38.38v.63h2.51v1.66c0,.44-.07.65-.4.79a3.5,3.5,0,0,1-1.34.14,3.69,3.69,0,0,0-.34-.79h.86c.12,0,.15,0,.15-.14v-.83H38.38v2.17H37.26v-2.17H35.9v1.82h-1v-2.66h2.38Zm0-.91v-.71H35.75c-.16.26-.31.5-.47.71Zm5.8,2.66H41.88v-4.65h1.18Zm3.11.62c0,.62-.13.9-.56,1.08a6.53,6.53,0,0,1-2.06.18,4.3,4.3,0,0,0-.41-1.06c.7,0,1.37,0,1.58,0s.26-.07.26-.22v-5.68h1.19Z"/><path class="cls-1" d="M52,286.66a3.85,3.85,0,0,0,3.31,1.47c1.55.05,4.66,0,6.41-.1a6.29,6.29,0,0,0-.43,1.33c-1.58.07-4.4.1-6,0a4.79,4.79,0,0,1-3.86-1.61c-.66.57-1.33,1.13-2.06,1.74l-.67-1.35a21.32,21.32,0,0,0,2-1.44v-3.29H48.91v-1.21H52Zm-.64-6.54A10.69,10.69,0,0,0,49,277.9l1-.78a11.25,11.25,0,0,1,2.39,2.14Zm3.07-.54a9.28,9.28,0,0,1-1,1.35,6.65,6.65,0,0,0-1.11-.63,8.13,8.13,0,0,0,2-3.34l1.22.27a12.21,12.21,0,0,1-.51,1.23h1.35V276.8h1.29v1.66h3.2v1.12h-3.2v1.52h3.79v1.1H52.5v-1.1h3.86v-1.52Zm-.7,7.55v-4h6.82v4ZM55,286.07h4.19v-1.86H55Z"/><path class="cls-1" d="M71.63,286.41a13,13,0,0,0,4.75,1.9,6.17,6.17,0,0,0-.87,1.16,12.49,12.49,0,0,1-5-2.63v2.82H69.22v-2.72a13.91,13.91,0,0,1-5,2.52,6.06,6.06,0,0,0-.85-1.11,13.86,13.86,0,0,0,4.72-1.94H63.79v-1.1h5.43v-.85H65.09v-1h4.13v-.84H64.4v-1h2.88a7.28,7.28,0,0,0-.59-1.27l.33-.06H63.84v-1.09h2.08a9.84,9.84,0,0,0-1-1.89l1.14-.38a10.22,10.22,0,0,1,1.12,2l-.72.27H68v-2.4h1.21v2.4h1.39v-2.4h1.23v2.4h1.52l-.54-.17a11.89,11.89,0,0,0,1-2.07l1.35.33c-.38.69-.8,1.39-1.16,1.91h2v1.09h-2.7c-.27.48-.55.94-.78,1.33h3v1h-5v.84h4.3v1H70.5v.85H76v1.1ZM68,280.27a5.62,5.62,0,0,1,.6,1.25l-.4.08h3a12.65,12.65,0,0,0,.62-1.33Z"/><path class="cls-1" d="M160.77,116.34a20.14,20.14,0,0,1-2.39,1,10.61,10.61,0,0,0,3.23.73,4.25,4.25,0,0,0-.75,1.11,8.69,8.69,0,0,1-4.56-1.71l0,.9-5,.63-.15-1.1c.35,0,.74-.07,1.17-.12v-2h-1.17a7.42,7.42,0,0,1-1.33,3.42,5.09,5.09,0,0,0-1.11-.66,7.84,7.84,0,0,0,1.34-5v-1.78H161v1h-9.68v.84c0,.38,0,.8-.06,1.25h10.08v.94h-1.31Zm-.42-5.15H150.21v-4h2.86v-.91h1.27v.91h1.74v-.91h1.29v.91h3Zm-8.95-2.41h1.67V108H151.4Zm0,1.55h1.67v-.76H151.4Zm.67,3.83v-.85h7.82v.85Zm1.55,3.43,2.54-.3a5.89,5.89,0,0,1-1.23-1.55h-1.31Zm.72-9.56v.75h1.74V108Zm0,1.54v.76h1.74v-.76Zm1.89,6.17a4.75,4.75,0,0,0,1.17,1.05,21.75,21.75,0,0,0,2.17-1.05Zm2.88-7.71h-1.74v.75h1.74Zm0,1.54h-1.74v.76h1.74Z"/><path class="cls-1" d="M171.61,115.89a13,13,0,0,0,4.75,1.91,5.42,5.42,0,0,0-.87,1.16,12.59,12.59,0,0,1-5-2.63v2.81H169.2v-2.72a13.77,13.77,0,0,1-5,2.53,6.11,6.11,0,0,0-.86-1.11,13.51,13.51,0,0,0,4.72-2h-4.33V114.8h5.44v-.86h-4.13v-1h4.13v-.84h-4.82v-1h2.87a7,7,0,0,0-.59-1.28l.34,0h-3.18v-1.1h2.07a11,11,0,0,0-1-1.89l1.13-.37a9.05,9.05,0,0,1,1.12,2l-.71.26H168v-2.39h1.22v2.39h1.39v-2.39h1.23v2.39h1.51l-.53-.16a12,12,0,0,0,1-2.08l1.34.34a17.58,17.58,0,0,1-1.16,1.9h2v1.1h-2.7c-.27.47-.55.94-.79,1.33h3v1h-5V113h4.3v1h-4.3v.86H176v1.09Zm-3.6-6.13a6,6,0,0,1,.6,1.24l-.41.09h3c.21-.38.43-.88.62-1.33Z"/><polygon class="cls-2" points="91.46 91.85 109.45 91.85 153.89 50.22 145.7 50.22 91.46 91.85"/><polygon class="cls-2" points="128.35 91.85 146.34 91.85 170.68 50.22 162.49 50.22 128.35 91.85"/><polygon class="cls-2" points="165.24 91.85 183.24 91.85 187.48 50.22 179.28 50.22 165.24 91.85"/><polygon class="cls-2" points="202.13 91.85 220.13 91.85 204.27 50.22 196.08 50.22 202.13 91.85"/><circle class="cls-3" cx="134.2" cy="27" r="8.3"/><line class="cls-2" x1="138.66" y1="22.55" x2="148.13" y2="13.07"/><line class="cls-2" x1="129.74" y1="22.55" x2="120.26" y2="13.07"/><line class="cls-2" x1="127.89" y1="27" x2="117.76" y2="27"/><line class="cls-2" x1="134.2" y1="33.31" x2="134.2" y2="43.45"/><line class="cls-2" x1="140.5" y1="27" x2="150.64" y2="27"/><line class="cls-2" x1="134.2" y1="20.7" x2="134.2" y2="10.56"/><line class="cls-2" x1="129.74" y1="31.46" x2="120.26" y2="40.94"/><line class="cls-2" x1="138.66" y1="31.46" x2="148.13" y2="40.94"/><path class="cls-4" d="M208.78,78.74V65s-1.06-25.88,27.46-25.88c0,0-2.64,25.36-27.46,25.88"/><path class="cls-4" d="M208.78,82.06V65s1.05-25.88-27.47-25.88c0,0,2.64,25.36,27.47,25.88"/><path class="cls-1" d="M401.26,112.49a9.49,9.49,0,0,0-2.38-1.44l.71-1a9.38,9.38,0,0,1,2.42,1.34Zm1.26,2c-.62,1.49-1.42,3.15-2.12,4.47l-1.16-.77a41.26,41.26,0,0,0,2.25-4.48Zm-.58-5.62a9.74,9.74,0,0,0-2.35-1.52l.73-1a9.12,9.12,0,0,1,2.39,1.43Zm1.46,2.36c-.17.18-.35.33-.52.49a7.69,7.69,0,0,0-1-1,12.06,12.06,0,0,0,3.29-4.41l1.28.39c-.13.29-.28.59-.42.88h2.17l.27-.08.84.6a16.21,16.21,0,0,1-1.06,1.74H411v5.59H403.4Zm-1.46,7.2a4.79,4.79,0,0,0,1.52-2.55l1.05.36a5.52,5.52,0,0,1-1.6,2.9Zm2.62-6.32h2v-1.25h-2Zm0,2.26h2V113.1h-2Zm.84-5.69c-.25.39-.52.78-.8,1.15h2.27a9.85,9.85,0,0,0,.66-1.15Zm.8,7.34a11.85,11.85,0,0,1,.38,2.76l-1.12.18a11.1,11.1,0,0,0-.32-2.76Zm1.84-.09a10.79,10.79,0,0,1,1,2.72L408,119a12.6,12.6,0,0,0-1-2.76Zm1.71-5.07h-2v1.25h2Zm0,2.24h-2v1.27h2Zm.36,2.64a11.36,11.36,0,0,1,1.72,2.79l-1.06.6a13.16,13.16,0,0,0-1.67-2.87Z"/><path class="cls-1" d="M421.77,115.89a13,13,0,0,0,4.75,1.91,5.77,5.77,0,0,0-.87,1.16,12.49,12.49,0,0,1-5-2.63v2.81h-1.28v-2.72a13.77,13.77,0,0,1-5,2.53,5.7,5.7,0,0,0-.86-1.11,13.51,13.51,0,0,0,4.72-2h-4.32V114.8h5.43v-.86h-4.13v-1h4.13v-.84h-4.82v-1h2.87a6.93,6.93,0,0,0-.58-1.28l.33,0H414v-1.1h2.08a11.87,11.87,0,0,0-1-1.89l1.14-.37a9.94,9.94,0,0,1,1.12,2l-.72.26h1.54v-2.39h1.22v2.39h1.39v-2.39H422v2.39h1.51l-.53-.16a12,12,0,0,0,1-2.08l1.35.34a21.48,21.48,0,0,1-1.16,1.9h2v1.1h-2.7c-.27.47-.55.94-.79,1.33h3v1h-4.95V113h4.3v1h-4.3v.86h5.51v1.09Zm-3.6-6.13a6,6,0,0,1,.6,1.24l-.4.09h2.95a12.65,12.65,0,0,0,.62-1.33Z"/><path class="cls-2" d="M353,60.35c4.11,5.94,12.22,8.91,20.36,8.91a27.43,27.43,0,0,0,20.36-8.91,27.72,27.72,0,0,0-40.72,0Z"/><polyline class="cls-2" points="393.7 60.35 403.45 66.85 403.45 53.84 393.7 60.35"/><path class="cls-2" d="M378.07,85.52c4.12,5.94,12.23,8.91,20.36,8.91a27.43,27.43,0,0,0,20.36-8.91,27.72,27.72,0,0,0-40.72,0Z"/><polyline class="cls-2" points="418.79 85.52 428.54 92.03 428.54 79.02 418.79 85.52"/><path class="cls-2" d="M418.2,59.5c4.12,5.94,12.23,8.91,20.36,8.91a27.41,27.41,0,0,0,20.36-8.91,27.72,27.72,0,0,0-40.72,0Z"/><polyline class="cls-2" points="458.92 59.5 468.67 66 468.67 52.99 458.92 59.5"/><polyline class="cls-2" points="399.04 34.6 387.42 22.63 439.53 22.63 433.55 34.6"/><rect class="cls-2" x="408.72" y="12.06" width="21.42" height="10.56"/><rect class="cls-2" x="416.64" y="1.5" width="6.25" height="10.56"/><path class="cls-2" d="M483.8,38.12a14.36,14.36,0,0,0-17.8,0,14.36,14.36,0,0,1-17.8,0,14.36,14.36,0,0,0-17.8,0,14.36,14.36,0,0,1-17.8,0,14.36,14.36,0,0,0-17.8,0,14.36,14.36,0,0,1-17.8,0,14.36,14.36,0,0,0-17.8,0,14.36,14.36,0,0,1-17.8,0"/><path class="cls-1" d="M472.13,277.46a14.14,14.14,0,0,1-1.45,2.05,10.37,10.37,0,0,1,.91,4.82c0,2-.14,3.87-.77,4.7a1.26,1.26,0,0,1-.84.51,6.84,6.84,0,0,1-1.78.1,3,3,0,0,0-.37-1.26,9.21,9.21,0,0,0,1.58,0,.62.62,0,0,0,.47-.26,9.46,9.46,0,0,0,.47-3.81V284a12.12,12.12,0,0,1-2.17,2.27,4.37,4.37,0,0,0-.85-1,9.66,9.66,0,0,0,2.88-3.15,7.46,7.46,0,0,0-.43-1.67,14.88,14.88,0,0,1-1.54,1.35,5.47,5.47,0,0,0-.88-.85,13.2,13.2,0,0,0,1.83-1.63,7.6,7.6,0,0,0-1.6-1.76l.9-.71a9.27,9.27,0,0,1,1.49,1.53,10.78,10.78,0,0,0,1-1.53Zm8.11,5.61h-2v5c0,.73-.16,1.09-.65,1.29a8,8,0,0,1-2.48.21,4.53,4.53,0,0,0-.4-1.25c.87,0,1.71,0,2,0s.31-.06.31-.27v-5H472V281.9H477v-1.52h1.25v1.52h2Zm-4.83-4.56v-1.73h1.34v1.73h3.38v2.66h-1.25v-1.49h-5.61v1.49h-1.21v-2.66Zm-1.68,5.26a12.94,12.94,0,0,1,1.86,2.66l-1,.66a13.14,13.14,0,0,0-1.76-2.74Z"/><path class="cls-1" d="M486.5,277.44a13.52,13.52,0,0,1-1.42,2.09,11.23,11.23,0,0,1,.81,4.79c0,2-.14,3.95-.71,4.75a1.19,1.19,0,0,1-.8.47,5.08,5.08,0,0,1-1.54.1,2.56,2.56,0,0,0-.32-1.25,5.5,5.5,0,0,0,1.3,0,.5.5,0,0,0,.41-.22c.32-.41.45-2.11.45-3.88v-.15a11.1,11.1,0,0,1-1.84,2.07,5.52,5.52,0,0,0-.84-1,9.26,9.26,0,0,0,2.56-3,8.83,8.83,0,0,0-.36-1.68,16.26,16.26,0,0,1-1.3,1.22,5.51,5.51,0,0,0-.89-.84,11.61,11.61,0,0,0,1.66-1.57,7.91,7.91,0,0,0-1.43-1.79l.91-.68a9.09,9.09,0,0,1,1.29,1.49,11.66,11.66,0,0,0,.92-1.5Zm7.28,2.9c-.06,3.91-.08,7.9.56,8.08a5.54,5.54,0,0,0,.21-1.73,5.38,5.38,0,0,0,.7.85c-.14,2-.76,2.38-1.41,2.07s-1-1.41-1.15-3h-1.75v2.81h-1.17v-2.81H488a6.1,6.1,0,0,1-1.51,3.11,4.45,4.45,0,0,0-1-.73c1.37-1.4,1.51-3.39,1.51-5v-3.66h5l-.41-.18a18.31,18.31,0,0,0,1.62-3.22l1.29.53c-.5,1-1.12,2.07-1.64,2.87Zm-6-.15a8.88,8.88,0,0,0-1.24-2.61l1-.46a9.07,9.07,0,0,1,1.32,2.56Zm2,5.26V284h-1.55v0c0,.45,0,.94-.06,1.44Zm-1.55-3.95v1.36h1.55V281.5Zm1.86-1.69a9.64,9.64,0,0,0-.94-2.65l1-.38a8.88,8.88,0,0,1,1,2.58Zm2.48,1.69h-1.62v1.36h1.62Zm.06,3.95c0-.46,0-1,0-1.47h-1.64v1.47Z"/><path class="cls-1" d="M498.82,283.23a9.36,9.36,0,0,1,2.77-6.7l1.07.5a8.73,8.73,0,0,0,0,12.39l-1.07.5A9.35,9.35,0,0,1,498.82,283.23Z"/><path class="cls-1" d="M509.09,282.82l-.81,1.25a32.38,32.38,0,0,0-3.11-2l.8-1.21C506.84,281.38,508.43,282.36,509.09,282.82Zm1.42,3.29a14.27,14.27,0,0,0,5.36-5.2l.86,1.49a16.3,16.3,0,0,1-10.13,6.75l-.83-1.44A15.54,15.54,0,0,0,510.51,286.11Zm.7-6.39-.84,1.21c-.72-.52-2.22-1.5-3.07-2l.8-1.21C509,278.21,510.53,279.25,511.21,279.72Zm4.2.41-1,.43a13.74,13.74,0,0,0-1.26-2.19l1-.41A23.89,23.89,0,0,1,515.41,280.13Zm1.92-.71-1,.43a13.52,13.52,0,0,0-1.32-2.16l1-.4A20.46,20.46,0,0,1,517.33,279.42Z"/><path class="cls-1" d="M522,286.46c0,.67.29.84,1,1a12.05,12.05,0,0,0,1.75.1,23.07,23.07,0,0,0,4.82-.46v1.61a41,41,0,0,1-4.9.28,15.05,15.05,0,0,1-2.3-.14c-1.13-.21-1.78-.77-1.78-1.95v-7.67a7.87,7.87,0,0,0-.09-1.26h1.63a10.14,10.14,0,0,0-.08,1.26v2.94a39.85,39.85,0,0,0,5.11-1.64,7,7,0,0,0,1.36-.69l.62,1.42c-.46.18-1,.43-1.47.59A54.68,54.68,0,0,1,522,283.6Zm6.49-6.74a22,22,0,0,0-1.12-1.93l.89-.38a22,22,0,0,1,1.14,1.92Zm1.37-2.9a22,22,0,0,1,1.15,1.91l-.91.39A14.08,14.08,0,0,0,529,277.2Z"/><path class="cls-1" d="M543.3,286.6a8.85,8.85,0,0,0,1.22-.1v1.6c-.38,0-.93-.06-1.22-.06h-9.25c-.4,0-.85,0-1.3.06v-1.6a8.31,8.31,0,0,0,1.3.1h3.77v-6.12h-3a10.7,10.7,0,0,0-1.24.06V279c.37,0,.91.07,1.24.07h7.66a12.43,12.43,0,0,0,1.26-.07v1.53a10.53,10.53,0,0,0-1.26-.06h-3.18v6.12Z"/><path class="cls-1" d="M550.52,283.23a9.32,9.32,0,0,1-2.78,6.69l-1.06-.5a8.73,8.73,0,0,0,0-12.39l1.06-.5A9.32,9.32,0,0,1,550.52,283.23Z"/><path class="cls-2" d="M558.06,209.38l-7.75-1.89.7-4.89-8.45-1.5.71-4.89-13.38.38v-4.52l-13,.76.35-4.14-15.14,1.5.7-6.39c-32,4.89-33.45,26.7-33.45,26.7L452.77,218l5.29,9.4H476.8l8.7,24.07h5.56l-2.72-19.56h52.74l9.11,19.56h6.42l-3.79-21.06Z"/><polygon class="cls-2" points="529.38 231.94 530.93 242.04 524.33 251.5 531.65 251.5 540.81 242.03 541.08 231.94 529.38 231.94"/><polygon class="cls-2" points="476.8 227.43 469.63 251.5 476.95 251.5 482 242.1 476.8 227.43"/><path class="cls-2" d="M475,217.27s-2.12,11.66-13.38,16.93"/><path class="cls-2" d="M555.59,221s5.28,13.54,19,11.28"/><polyline class="cls-2" points="501.01 201.1 506.65 205.24 500.66 210.5"/><polyline class="cls-2" points="509.82 214.64 515.45 218.78 509.46 224.04"/><polyline class="cls-2" points="492.21 214.64 497.84 218.78 491.86 224.04"/><circle class="cls-2" cx="484.21" cy="205.21" r="1.16"/><polyline class="cls-2" points="518.62 202.98 524.25 207.12 518.27 212.38"/><polyline class="cls-2" points="525.31 215.77 530.94 219.91 524.96 225.17"/><polyline class="cls-2" points="536.93 209.75 542.56 213.89 536.58 219.15"/><path class="cls-1" d="M144.4,470.4a3.74,3.74,0,0,0,3.26,1.47c1.59.07,4.84,0,6.62-.1a5.41,5.41,0,0,0-.42,1.27c-1.61.07-4.58.1-6.21,0a4.65,4.65,0,0,1-3.79-1.62c-.59.58-1.21,1.14-1.9,1.74l-.64-1.29a19.64,19.64,0,0,0,1.84-1.43v-3.37h-1.69v-1.21h2.93Zm-.67-6.5a9.86,9.86,0,0,0-2.16-2.34l1-.73a10.35,10.35,0,0,1,2.21,2.24Zm5.1,6.47H145v-1h3.83v-.69H145.9v-4h2.93V464h-3.31v-.93h3.31v-.87h1.27v.87h3.36V464H150.1v.7h3v4h-3v.69h4v1h-4v1.15h-1.27Zm-2.48-7.58H145.2v-1.85h8.64v1.85h-1.2v-.88h-6.29Zm.67,3.5h1.81v-.75H147Zm1.81,1.57v-.78H147v.78Zm1.27-2.32v.75H152v-.75Zm1.87,1.54H150.1v.78H152Z"/><path class="cls-1" d="M159.41,469.86h2.12V471h-2.12v2.29h-1.15V471h-2.2v-1.17h2.2v-1h-1.83V464h1.82V463h-2v-1.14h2v-1.43h1.16v1.43h2.16V463h-2.16V464h1.88v.18a9.36,9.36,0,0,0,3.27-3.61h1.15a10.2,10.2,0,0,0,3.51,3.47,9,9,0,0,0-.68,1.12,9.82,9.82,0,0,1-1.45-1.13v1h-3.83v-.9a9,9,0,0,1-1.39,1.11,4.63,4.63,0,0,0-.58-1v4.64h-1.88Zm-2.06-3.9h1.08V464.9h-1.08Zm0,2h1.08v-1.08h-1.08Zm3-3h-1.06V466h1.06Zm0,2h-1.06v1.08h1.06Zm4.72,5.44c0,.42,0,.7-.31.85a2,2,0,0,1-1.09.18,3.15,3.15,0,0,0-.24-.91h.6c.1,0,.12,0,.12-.14v-1.64H162.8v2.65h-.93V466H165Zm-2.24-5.38v.92h1.32v-.92Zm1.32,2.79v-1H162.8v1Zm2.95-5.73a11.92,11.92,0,0,1-1.87-2.26,11,11,0,0,1-1.77,2.26Zm-.43,7.24h-.94v-4.92h.94Zm.89-5.48h1v6.42c0,.53-.1.81-.43,1a4.94,4.94,0,0,1-1.71.17,3.76,3.76,0,0,0-.31-1h1.2c.16,0,.21,0,.21-.19Z"/><path class="cls-1" d="M179,470.09a12.8,12.8,0,0,0,4.74,1.9,5.78,5.78,0,0,0-.86,1.17,12.49,12.49,0,0,1-5-2.64v2.82h-1.27v-2.72a13.91,13.91,0,0,1-5,2.52,6.89,6.89,0,0,0-.86-1.11,13.31,13.31,0,0,0,4.72-1.94h-4.33V469h5.44v-.86h-4.14v-1h4.14v-.84h-4.82v-1h2.87A6.9,6.9,0,0,0,174,464l.34-.06h-3.18v-1.09h2.07a10.34,10.34,0,0,0-1-1.89l1.13-.38a9.28,9.28,0,0,1,1.12,2l-.71.27h1.54v-2.4h1.22v2.4h1.39v-2.4h1.23v2.4h1.51l-.53-.17a11.89,11.89,0,0,0,1-2.07l1.34.33a18.83,18.83,0,0,1-1.16,1.91h2V464h-2.7c-.27.48-.55.94-.79,1.33h3v1h-5v.84h4.3v1h-4.3V469h5.52v1.09Zm-3.6-6.14a6.1,6.1,0,0,1,.6,1.25l-.41.08h3a12.64,12.64,0,0,0,.61-1.33Z"/><polyline class="cls-2" points="105.67 418.56 94.81 418.56 94.81 399.21 100.55 383.44 125.99 383.44 125.99 418.56 118.1 418.56"/><polygon class="cls-2" points="104.27 399.46 107.63 390.2 116.54 390.2 116.54 399.46 104.27 399.46"/><circle class="cls-2" cx="112.01" cy="422.13" r="6.45"/><circle class="cls-2" cx="167.64" cy="422.13" r="6.45"/><polyline class="cls-2" points="173.41 418.56 179.85 418.56 179.85 409.68 125.99 409.68 125.99 418.56 161.43 418.56"/><rect class="cls-4" x="125.99" y="373.05" width="53.86" height="36.63"/><polyline class="cls-4" points="150.67 436.32 139.81 436.32 139.81 416.98 145.55 401.21 170.99 401.21 170.99 436.32 163.1 436.32"/><polygon class="cls-4" points="149.27 417.22 152.63 407.97 161.54 407.97 161.54 417.22 149.27 417.22"/><circle class="cls-4" cx="157.01" cy="439.9" r="6.45"/><polyline class="cls-4" points="218.41 436.32 224.85 436.32 224.85 427.44 170.99 427.44 170.99 436.32 206.43 436.32"/><rect class="cls-4" x="170.99" y="390.82" width="53.86" height="36.63"/><circle class="cls-4" cx="212.64" cy="439.9" r="6.45"/><path class="cls-1" d="M411.64,472.71H400.92v.61h-1.3V461.19h11.69v1.25H400.92v9h10.72Zm-4.57-5.3a5.39,5.39,0,0,0,4.1,2.5,4.47,4.47,0,0,0-.77,1.09,6.18,6.18,0,0,1-4-2.51c-.58,1-1.75,1.88-4,2.55a4.85,4.85,0,0,0-.81-1c2.66-.7,3.6-1.68,3.89-2.66h-3.81v-1.12h3.95v-1.4h-2a8.31,8.31,0,0,1-1,1.05,10.5,10.5,0,0,0-1.09-.66,6.49,6.49,0,0,0,2-2.74l1.23.31a6,6,0,0,1-.45.92h6v1.12h-3.5v1.4H411v1.12Z"/><path class="cls-1" d="M421.74,470.14a11.94,11.94,0,0,0,4.74,2,4.49,4.49,0,0,0-.79,1,11.71,11.71,0,0,1-5-2.66v2.84h-1.29v-2.87a12.88,12.88,0,0,1-5,2.75,5.47,5.47,0,0,0-.8-1,13,13,0,0,0,4.57-2.05h-4.26V469h5.49v-.73h-1.9v-4.5h1.63a8.77,8.77,0,0,0,.36-1.05l1.27.2-.39.85h2.32v3l.7-.77a19,19,0,0,1,2.85,1.69l-.79.93a15.9,15.9,0,0,0-2.76-1.77v1.46h-2V469h5.52v1.1Zm-4.47-2.95c-1,.49-2.06,1-2.94,1.4l-.53-1.09c.83-.31,2-.83,3.19-1.33Zm-.3-4.72h-3.1v-1.11H417v-.88h1.28v.88h3.49v-.88h1.32v.88h3.15v1.11h-3.15v1h-1.32v-1h-3.49v1H417Zm-1.85.89A7.75,7.75,0,0,1,417,465.2l-1,.73a8.88,8.88,0,0,0-1.78-1.91Zm3.5,2.26h2.83v-.93h-2.83Zm0,1.81h2.83v-1h-2.83Zm4.3-2.2a12.76,12.76,0,0,0,1.88-1.94l1.1.55a14.76,14.76,0,0,1-2,1.91Z"/><path class="cls-2" d="M430.54,366h1.8v30.14l-21,37c-2.68,4.73-.83,8.6,4.12,8.6h49.22c4.95,0,6.81-3.87,4.12-8.6l-21-37V366h1.8"/><path class="cls-2" d="M421.88,415.45c11.62-4.75,20.07,8.16,35.39-1.87"/><path class="cls-2" d="M391,415.09a11.09,11.09,0,1,1,4.49,21.72l-24.31,5a11.09,11.09,0,0,1-4.49-21.73Z"/><path class="cls-2" d="M377,418c3.49-.72,7.32,3.56,8.56,9.56S385,439,381.52,439.7"/><path class="cls-2" d="M371,394.27A9.37,9.37,0,1,1,371,413H350a9.37,9.37,0,0,1,0-18.74Z"/><path class="cls-2" d="M358.93,394.27c3,0,5.44,4.19,5.44,9.37s-2.43,9.36-5.43,9.36"/><ellipse class="cls-2" cx="399.32" cy="391.12" rx="12.72" ry="7.89"/><path class="cls-2" d="M386.6,391.12c0,4.36,5.7,7.89,12.72,7.89S412,395.48,412,391.12v7.48c0,4.36-5.69,7.89-12.71,7.89S386.6,403,386.6,398.6Z"/><path class="cls-5" d="M386.1,341.19a39.54,39.54,0,0,0,26.41-9.79,31,31,0,0,0,0-47.29,39.5,39.5,0,0,0-26.41-9.8,42.2,42.2,0,0,0-26.41,9.8c-6.34,5.38-12.27,8.28-20.13,8.28s-13.79-2.9-20.13-8.28a40.49,40.49,0,0,0-52.82,0c-6.34,5.38-12.27,8.28-20.13,8.28s-13.79-2.9-20.13-8.28a42.2,42.2,0,0,0-26.41-9.8,39.5,39.5,0,0,0-26.41,9.8,31,31,0,0,0,0,47.29,39.54,39.54,0,0,0,26.41,9.79,42.25,42.25,0,0,0,26.41-9.79c6.34-5.38,12.27-8.29,20.13-8.29s13.79,2.91,20.13,8.29a40.52,40.52,0,0,0,52.82,0c6.34-5.38,12.27-8.29,20.13-8.29s13.79,2.91,20.13,8.29A42.25,42.25,0,0,0,386.1,341.19Z"/><path class="cls-1" d="M186.62,303.45a9.13,9.13,0,0,1,2.45,1.36l-.82,1.13a10.38,10.38,0,0,0-2.41-1.46Zm1.53,4,1.14.74c-.55,1.59-1.26,3.37-1.9,4.77l-1.27-.72A41.1,41.1,0,0,0,188.15,307.46Zm-.89-8a9.09,9.09,0,0,1,2.38,1.46l-.84,1.12a10.4,10.4,0,0,0-2.33-1.59Zm4.52,10.62a10.25,10.25,0,0,1-2.08,3.12,9.66,9.66,0,0,0-1.1-.75,7.93,7.93,0,0,0,1.9-2.72ZM194.41,300v9.57H190V300Zm-3.25,2.8h2v-1.58h-2Zm0,2.78h2v-1.61h-2Zm0,2.75h2v-1.62h-2Zm2.48,1.39A21.24,21.24,0,0,1,195.3,312l-1.13.69a15.83,15.83,0,0,0-1.6-2.4Zm3-8.82v8.59h-1.22v-8.59Zm2.59-1.54v12.18c0,.79-.16,1.18-.63,1.41a6.55,6.55,0,0,1-2.41.25,4.88,4.88,0,0,0-.41-1.34c.84,0,1.61,0,1.85,0s.32-.07.32-.31v-12.2Z"/><path class="cls-1" d="M211.85,301.56l-.92.62c-.77.54-2.58,2.13-3.64,3a5.74,5.74,0,0,1,1.77-.25c2.5,0,4.36,1.54,4.36,3.62,0,2.4-1.92,4.1-5.27,4.1-2.07,0-3.45-.93-3.45-2.27a2.3,2.3,0,0,1,2.47-2.13,3,3,0,0,1,3.14,2.62,2.43,2.43,0,0,0,1.57-2.33c0-1.41-1.42-2.4-3.25-2.4-2.38,0-3.8,1.11-5.56,3L202,308c1.17-.95,3-2.52,3.91-3.25l3.31-2.77c-.79,0-3.34.13-4.12.18l-1.1.1-.05-1.55c.38,0,.83.07,1.19.07.79,0,4.17-.09,5-.16a5.08,5.08,0,0,0,.95-.15Zm-2.91,9.68a1.8,1.8,0,0,0-1.77-1.83c-.62,0-1.07.36-1.07.83,0,.65.77,1.06,1.78,1.06A8.91,8.91,0,0,0,208.94,311.24Z"/><path class="cls-1" d="M265.46,303.48a24.05,24.05,0,0,1,6.38-1.45c2.57,0,4.61,1.49,4.61,4.11,0,3.5-3.41,5.43-8.32,5.68l-.68-1.58c4-.09,7.32-1.27,7.32-4.13a2.67,2.67,0,0,0-3-2.66c-2.33,0-6,1.58-7.37,2.14l-.68-1.66A17,17,0,0,0,265.46,303.48Z"/><path class="cls-1" d="M286.72,303a22.28,22.28,0,0,1-2.66.53,26,26,0,0,1-3.24,6.35l-1.45-.74a21.64,21.64,0,0,0,3.12-5.44c-.36,0-.71,0-1.07,0-.57,0-1.19,0-1.8-.06l-.1-1.39c.59.06,1.3.09,1.9.09s1,0,1.54-.06a11.67,11.67,0,0,0,.44-2.54L285,300c-.12.52-.31,1.35-.54,2.19a16,16,0,0,0,2.17-.51Zm1.84,1.56a17.09,17.09,0,0,0,0,1.75c0,.48.06,1.34.11,2.19a9.8,9.8,0,0,1,3.09,1.88l-.8,1.28a12.67,12.67,0,0,0-2.23-1.66v.41c0,1.27-.77,2.3-2.73,2.3-1.74,0-3.14-.74-3.14-2.3,0-1.4,1.27-2.4,3.12-2.4a6.49,6.49,0,0,1,1.26.11c-.06-1.18-.14-2.58-.17-3.56Zm-1.3,4.86a5,5,0,0,0-1.37-.19c-1,0-1.65.44-1.65,1.05s.52,1.07,1.54,1.07a1.31,1.31,0,0,0,1.5-1.41A5.07,5.07,0,0,0,287.26,309.46Zm4.09-4.29a19,19,0,0,0-3.48-2.08l.75-1.17a25.23,25.23,0,0,1,3.58,2Z"/><path class="cls-1" d="M297.58,300.79c-.11.32-.23.79-.3,1.07-.43,1.95-.94,5-.46,7.2.21-.56.5-1.37.76-2l.78.49a35.73,35.73,0,0,0-1,3.44,3.85,3.85,0,0,0-.08.7c0,.15,0,.38,0,.56l-1.3.13a16.41,16.41,0,0,1-.83-4.78,38.46,38.46,0,0,1,.55-5.83c.06-.37.07-.8.09-1.11Zm7.33-.22c0,.31-.06.6-.07.92s0,1.22,0,2.08a22,22,0,0,0,2.54-.33l0,1.55c-.69.11-1.57.18-2.5.24v.44c0,3.49-.14,5.81-3.2,7.68l-1.38-1.08a5.56,5.56,0,0,0,1.59-1.05c1.39-1.29,1.54-2.83,1.54-5.55v-.36l-1.62,0c-.69,0-1.67-.05-2.37-.09v-1.53a15.7,15.7,0,0,0,2.34.17l1.62,0c0-.87-.05-1.75-.08-2.16a7.25,7.25,0,0,0-.15-.93Zm1.21,1.88a20.21,20.21,0,0,0-.83-2.14l.86-.26a15.58,15.58,0,0,1,.84,2.1Zm1.57-2.88a20.12,20.12,0,0,1,.86,2.1l-.88.29a15.32,15.32,0,0,0-.84-2.1Z"/><path class="cls-1" d="M320.13,301.56l-.92.62c-.77.54-2.58,2.13-3.63,3a5.68,5.68,0,0,1,1.76-.25c2.51,0,4.36,1.54,4.36,3.62,0,2.4-1.92,4.1-5.26,4.1-2.07,0-3.46-.93-3.46-2.27a2.3,2.3,0,0,1,2.47-2.13,3,3,0,0,1,3.14,2.62,2.43,2.43,0,0,0,1.57-2.33c0-1.41-1.42-2.4-3.24-2.4-2.39,0-3.8,1.11-5.57,3l-1.1-1.11c1.16-.95,3-2.52,3.91-3.25s2.55-2.13,3.3-2.77c-.78,0-3.33.13-4.12.18l-1.1.1,0-1.55c.37,0,.83.07,1.19.07.78,0,4.16-.09,5-.16a5.43,5.43,0,0,0,.95-.15Zm-2.91,9.68a1.8,1.8,0,0,0-1.77-1.83c-.61,0-1.07.36-1.07.83,0,.65.77,1.06,1.78,1.06A8.78,8.78,0,0,0,317.22,311.24Z"/><path class="cls-1" d="M357.22,306.26a32,32,0,0,0-2.77-1.62l.77-1c.86.42,2.14,1.09,2.77,1.49ZM354.75,312a45.28,45.28,0,0,0,2.83-4.77l1,.93a52.08,52.08,0,0,1-2.68,4.77Zm3.18-9.86c-.62-.44-1.87-1.16-2.76-1.66l.78-1a31,31,0,0,1,2.81,1.52Zm6.28,2.85v2.24h3.11v5.81H366v-.56h-5v.63h-1.29v-5.88h3.17V305h-4.19v-1.34h4.19v-2.14c-1.05.16-2.14.28-3.14.36a5.3,5.3,0,0,0-.4-1.18,34.13,34.13,0,0,0,7.16-1.37l1.11,1.09a20,20,0,0,1-3.4.87v2.37h4V305Zm1.78,3.51h-5v2.71h5Z"/><path class="cls-1" d="M383,311.4c0,.82-.2,1.24-.74,1.45a8.07,8.07,0,0,1-2.82.24,6.46,6.46,0,0,0-.47-1.36c1,0,2,0,2.25,0s.37-.09.37-.37v-2.7H378V313h-1.4v-4.31h-3.47a8.65,8.65,0,0,1-1.89,4.57,4.45,4.45,0,0,0-1.1-.92c1.64-1.83,1.79-4.5,1.79-6.63v-5.37H383Zm-6.46-4v-2.24H373.3v.61c0,.51,0,1.07-.06,1.63Zm-3.28-5.68v2.13h3.28v-2.13Zm8.33,0H378v2.13h3.65Zm0,5.68v-2.24H378v2.24Z"/><path class="cls-1" d="M398.62,303.22c-.89,0-2.29-.07-4.47-.07,0,.8,0,1.67,0,2.34a3.62,3.62,0,0,1,.53,2c0,2-1.06,4.33-4.61,5.36l-1.28-1.27a5.86,5.86,0,0,0,3.85-2.16,2.44,2.44,0,0,1-1,.21A2.51,2.51,0,0,1,389.1,307a2.71,2.71,0,0,1,2.79-2.69,2.78,2.78,0,0,1,.83.11l0-1.27c-2.26,0-4.7.12-6.56.24l0-1.44c1.68,0,4.46-.11,6.59-.14,0-.32,0-.59,0-.75,0-.38-.08-.88-.12-1.09h1.72c0,.19-.08.87-.08,1.09s0,.43,0,.73h4.47Zm-6.73,5.09c.77,0,1.34-.62,1.15-2a1.23,1.23,0,0,0-1.17-.69,1.34,1.34,0,0,0-1.34,1.4A1.3,1.3,0,0,0,391.89,308.31Z"/><path class="cls-1" d="M410.61,301.56l-.92.62c-.77.54-2.58,2.13-3.64,3a5.78,5.78,0,0,1,1.77-.25c2.51,0,4.36,1.54,4.36,3.62,0,2.4-1.91,4.1-5.27,4.1-2.06,0-3.45-.93-3.45-2.27a2.3,2.3,0,0,1,2.47-2.13,3,3,0,0,1,3.14,2.62,2.43,2.43,0,0,0,1.57-2.33c0-1.41-1.42-2.4-3.24-2.4-2.39,0-3.81,1.11-5.57,3l-1.1-1.11c1.16-.95,3-2.52,3.91-3.25s2.55-2.13,3.3-2.77c-.78,0-3.33.13-4.12.18l-1.1.1-.05-1.55c.38,0,.83.07,1.2.07.78,0,4.16-.09,5-.16a5.43,5.43,0,0,0,.95-.15Zm-2.91,9.68a1.8,1.8,0,0,0-1.77-1.83c-.61,0-1.07.36-1.07.83,0,.65.77,1.06,1.78,1.06A8.78,8.78,0,0,0,407.7,311.24Z"/></svg>