<?xml version="1.0" encoding="utf-8"?>
<!-- Generator: Adobe Illustrator 22.0.1, SVG Export Plug-In . SVG Version: 6.00 Build 0)  -->
<svg version="1.1" id="レイヤー_1" xmlns="http://www.w3.org/2000/svg" xmlns:xlink="http://www.w3.org/1999/xlink" x="0px"
	 y="0px" viewBox="0 0 25 10" style="enable-background:new 0 0 25 10;" xml:space="preserve">
<style type="text/css">
	.st0{opacity:0.5;fill:#10069F;}
</style>
<path class="st0" d="M0.4,2.6l11,6.9C11.6,9.8,12,10,12.5,10c0.5,0,0.9-0.2,1.2-0.5l11-6.9C24.9,2.3,25,1.9,25,1.5
	c0-0.4-0.2-0.8-0.5-1.1c-0.3-0.3-0.6-0.4-1-0.4c0,0-0.1,0-0.1,0c-0.4,0-0.8,0.2-1.1,0.5l-9.8,5.6L2.7,0.5C2.2-0.1,1.1-0.2,0.5,0.4
	C0.2,0.7,0,1,0,1.5C0,1.9,0.1,2.3,0.4,2.6z"/>
</svg>
