<svg id="レイヤー_1" data-name="レイヤー 1" xmlns="http://www.w3.org/2000/svg" xmlns:xlink="http://www.w3.org/1999/xlink" viewBox="0 0 1200 300"><defs><style>.cls-1{fill:none;}.cls-2{clip-path:url(#clip-path);}.cls-3{fill:#fff;}</style><clipPath id="clip-path"><rect class="cls-1" width="1200" height="300"/></clipPath></defs><title>アートボード 3</title><g class="cls-2"><path class="cls-3" d="M1344.87,445.89C1255.33,327.07,1132,234.15,985,184.91a749.41,749.41,0,0,0-272.24-38.49c-110.13,4.94-217.09-25.37-311.48-82.31C324.06,17.52,231.75-6.49,132.14,1.52-71,17.83-244.41,173.68-285.9,378c-29.19,143.66,6.73,280.19,84.15,382.94a462.08,462.08,0,0,0,42.53,48.9,460.38,460.38,0,0,1,42.4,48.8c51.43,68.26,84.46,150.14,101.39,235.73a785.33,785.33,0,0,0,142.81,320c100.56,133.47,244.37,234.19,417.27,277.81,426,107.44,861-174.18,945.69-624,42.46-225.52-16.26-450.89-145.47-622.34"/></g></svg>