<svg xmlns="http://www.w3.org/2000/svg" viewBox="0 0 113.39 76.51"><defs><style>.cls-1{fill:#10e2d0;}</style></defs><title>アセット 1</title><g id="レイヤー_2" data-name="レイヤー 2"><g id="レイヤー_1-2" data-name="レイヤー 1"><path class="cls-1" d="M104.88,0H8.5A8.53,8.53,0,0,0,0,8.5V68a8.53,8.53,0,0,0,8.5,8.51h96.38A8.55,8.55,0,0,0,113.39,68V8.5A8.53,8.53,0,0,0,104.88,0Zm4.51,8.5V68a4.68,4.68,0,0,1-.19,1.29L78,38.17l31.11-31.1A4.66,4.66,0,0,1,109.39,8.5ZM104.88,4a4.4,4.4,0,0,1,1.44.24l-45,45a6.52,6.52,0,0,1-9.2,0l-45-45A4.6,4.6,0,0,1,8.5,4ZM4,68V8.5a4.34,4.34,0,0,1,.24-1.43l31.1,31.1L4.19,69.32A4.53,4.53,0,0,1,4,68Zm4.5,4.51a4.21,4.21,0,0,1-1.57-.3L38.17,41l11.1,11.09a10.49,10.49,0,0,0,14.84,0h0L75.22,41l31.24,31.24a4.27,4.27,0,0,1-1.58.3Z"/></g></g></svg>