<svg id="レイヤー_1" data-name="レイヤー 1" xmlns="http://www.w3.org/2000/svg" viewBox="0 0 60 60"><defs><style>.cls-1{fill:#100697;}.cls-2{fill:#fff;}</style></defs><title>アートボード 2</title><circle class="cls-1" cx="30" cy="30" r="30"/><path class="cls-2" d="M18.85,35.68H15.94V34h7.92v1.73H20.92v8.64H18.85Z"/><path class="cls-2" d="M25.72,39.09c0-3.37,1.89-5.33,4.64-5.33s4.64,2,4.64,5.33-1.89,5.43-4.64,5.43S25.72,42.46,25.72,39.09Zm7.16,0c0-2.22-1-3.55-2.52-3.55s-2.52,1.33-2.52,3.55,1,3.63,2.52,3.63S32.88,41.31,32.88,39.09Z"/><path class="cls-2" d="M37.72,34h3.41c2.29,0,4.06.8,4.06,3.25s-1.78,3.44-4,3.44H39.79v3.68H37.72ZM41,39c1.43,0,2.12-.61,2.12-1.8S42.4,35.59,41,35.59H39.79V39Z"/><path class="cls-2" d="M23,23c-1.65,0-2.05-.95-.88-2.12l5.76-5.76a3,3,0,0,1,4.24,0l5.76,5.76C39.05,22.05,38.65,23,37,23Z"/></svg>