<svg xmlns="http://www.w3.org/2000/svg" viewBox="0 0 113.39 76.51"><g data-name="レイヤー 2"><path d="M104.88 0H8.5A8.53 8.53 0 000 8.5V68a8.53 8.53 0 008.5 8.51h96.38a8.55 8.55 0 008.51-8.51V8.5a8.53 8.53 0 00-8.51-8.5zm4.51 8.5V68a4.68 4.68 0 01-.19 1.29L78 38.17l31.11-31.1a4.66 4.66 0 01.28 1.43zM104.88 4a4.4 4.4 0 011.44.24l-45 45a6.52 6.52 0 01-9.2 0l-45-45A4.6 4.6 0 018.5 4zM4 68V8.5a4.34 4.34 0 01.24-1.43l31.1 31.1L4.19 69.32A4.53 4.53 0 014 68zm4.5 4.51a4.21 4.21 0 01-1.57-.3L38.17 41l11.1 11.09a10.49 10.49 0 0014.84 0L75.22 41l31.24 31.24a4.27 4.27 0 01-1.58.3z" fill="#10e2d0" data-name="レイヤー 1"/></g></svg>