<svg data-name="レイヤー 1" xmlns="http://www.w3.org/2000/svg" viewBox="0 0 60 60"><circle cx="30" cy="30" r="30" fill="#100697"/><path d="M18.85 35.68h-2.91V34h7.92v1.73h-2.94v8.64h-2.07zm6.87 3.41c0-3.37 1.89-5.33 4.64-5.33s4.64 2 4.64 5.33-1.89 5.43-4.64 5.43-4.64-2.06-4.64-5.43zm7.16 0c0-2.22-1-3.55-2.52-3.55s-2.52 1.33-2.52 3.55 1 3.63 2.52 3.63 2.52-1.41 2.52-3.63zM37.72 34h3.41c2.29 0 4.06.8 4.06 3.25s-1.78 3.44-4 3.44h-1.4v3.68h-2.07zM41 39c1.43 0 2.12-.61 2.12-1.8s-.72-1.61-2.12-1.61h-1.21V39zM23 23c-1.65 0-2.05-.95-.88-2.12l5.76-5.76a3 3 0 014.24 0l5.76 5.76c1.17 1.17.77 2.12-.88 2.12z" fill="#fff"/></svg>