<svg viewBox="0 0 113.39 76.54" xmlns="http://www.w3.org/2000/svg"><path d="m104.88 0h-96.38a8.53 8.53 0 0 0 -8.5 8.5v59.5a8.53 8.53 0 0 0 8.5 8.51h96.38a8.54 8.54 0 0 0 8.51-8.51v-59.5a8.53 8.53 0 0 0 -8.51-8.5zm4.51 8.5v59.5a4.57 4.57 0 0 1 -.19 1.29l-31.2-31.12 31.11-31.1a4.52 4.52 0 0 1 .28 1.43zm-4.51-4.5a4.58 4.58 0 0 1 1.44.24l-45 45a6.52 6.52 0 0 1 -9.2 0l-45-45a4.52 4.52 0 0 1 1.38-.24zm-100.88 64v-59.5a4.52 4.52 0 0 1 .24-1.43l31.1 31.1-31.15 31.15a4.57 4.57 0 0 1 -.19-1.32zm4.5 4.51a4.34 4.34 0 0 1 -1.57-.3l31.24-31.21 11.1 11.09a10.49 10.49 0 0 0 14.85 0l11.1-11.09 31.24 31.24a4.35 4.35 0 0 1 -1.58.3z" fill="#162789"/></svg>