<svg xmlns="http://www.w3.org/2000/svg" viewBox="0 0 113.39 113.39"><defs><style>.cls-1{fill:#162789;}</style></defs><title>アセット 2</title><g id="レイヤー_2" data-name="レイヤー 2"><g id="レイヤー_1-2" data-name="レイヤー 1"><rect class="cls-1" x="8.5" y="9.92" width="45.35" height="8.5" rx="2.75"/><rect class="cls-1" x="8.5" y="24.09" width="45.35" height="8.5" rx="2.75"/><rect class="cls-1" x="8.5" y="38.27" width="45.35" height="8.5" rx="2.75"/><path class="cls-1" d="M100.46,30.76V13H80.79v2.5H62.36v-7A8.52,8.52,0,0,0,53.86,0H8.5A8.53,8.53,0,0,0,0,8.5V113.39H62.36V21.46H80.79V24h8.67v6.8C82,31.57,76.54,34,76.54,36.85h0v76.54h36.85V36.86h0C113.39,34,108,31.57,100.46,30.76Zm-42.1,78.63H4V8.5A4.51,4.51,0,0,1,8.5,4H53.86a4.51,4.51,0,0,1,4.5,4.5Zm51,0H80.54v-72c1.3-1.11,6.46-3,14.42-3s13.12,1.85,14.43,3Z"/></g></g></svg>