<svg xmlns="http://www.w3.org/2000/svg" viewBox="0 0 113.39 113.39"><defs><style>.cls-1{fill:#162789;}</style></defs><title>アセット 1</title><g id="レイヤー_2" data-name="レイヤー 2"><g id="レイヤー_1-2" data-name="レイヤー 1"><path class="cls-1" d="M56.69,0C37.51,0,22,5.39,22,12.05c0,2.27,1.81,4.39,5,6.2v2.14c4.86,2.73,15.46,5.31,29.76,5.31s24.9-2.58,29.77-5.31V18.25c3.14-1.81,5-3.93,5-6.2C91.42,5.39,75.87,0,56.69,0Zm0,23.29a10.42,10.42,0,0,1-6.3-10.83l6.3-3,6.31,3A10.43,10.43,0,0,1,56.69,23.29Z"/><path class="cls-1" d="M111.63,93.87l0-.16C110.15,88.13,104.81,83,99.4,81.94L71.45,77.1V67.89h0a31.58,31.58,0,0,0,11.21-16.3l.38,0a7.67,7.67,0,0,0,.84-15.29c-.09-.7-.2-1.38-.32-2.06a11.43,11.43,0,0,0,2.9-7.33h0v-2.1c-7,3.22-18.44,4.87-29.77,4.87S34,28.05,26.93,24.83v2.1h0a11.38,11.38,0,0,0,2.9,7.33c-.13.68-.23,1.36-.33,2.06a7.67,7.67,0,0,0,.84,15.29l.39,0a31.56,31.56,0,0,0,11.21,16.3h0V77.1L14,82C8.58,83,3.24,88.13,1.8,93.71l0,.16L0,113.39H4L5.71,94.56c1.11-4,5.19-8,9-8.68l19.15-3.31L48.39,101.3l4-5.62v6.37l-2.55,11.34H63.5l-2.56-11.34V95.68L65,101.3,79.57,82.57l19.12,3.31c3.8.71,7.88,4.67,9,8.68l1.73,18.83h4ZM84.21,41.1c0-.22,0-.43,0-.65a3.67,3.67,0,0,1-.56,7.1A35.9,35.9,0,0,0,84.21,41.1ZM83,34.88a3.33,3.33,0,0,1,.25-.28C83.17,34.69,83.09,34.79,83,34.88ZM26.67,43.94a3.68,3.68,0,0,1,2.53-3.49c0,.22,0,.43,0,.65a36.84,36.84,0,0,0,.57,6.45A3.67,3.67,0,0,1,26.67,43.94Zm3.45-9.35.26.29Zm4.41,15.76a32.09,32.09,0,0,1-1-4.58,35,35,0,0,1-.33-4.14c0-.18,0-.35,0-.53a30.53,30.53,0,0,1,.21-3.6c5.45,3.92,13.86,6.44,23.3,6.44S74.55,41.42,80,37.5a32.83,32.83,0,0,1,.21,3.6,34.1,34.1,0,0,1-.34,4.67,32.85,32.85,0,0,1-1,4.59c-3.24,10.77-12,18.51-22.17,18.51S37.76,61.13,34.53,50.35ZM48.31,97.13l-11.7-15,5.78-1,12,7.67ZM45.94,78.6V70.34a24.14,24.14,0,0,0,22.56-.55l-1,.55V78.6L56.69,85.5ZM65.07,97.13l-6-8.38,12-7.67,5.79,1Z"/></g></g></svg>