<svg xmlns="http://www.w3.org/2000/svg" viewBox="0 0 95.42 113.39"><defs><style>.cls-1{fill:#162789;}</style></defs><title>アセット 2</title><g id="レイヤー_2" data-name="レイヤー 2"><g id="レイヤー_1-2" data-name="レイヤー 1"><circle class="cls-1" cx="47.71" cy="41.39" r="6"/><path class="cls-1" d="M47.71,113.39a2,2,0,0,1-2-2V54.69a2,2,0,0,1,4,0v56.7A2,2,0,0,1,47.71,113.39Z"/><path class="cls-1" d="M63.3,69.46a2,2,0,0,1-1-3.72,28.47,28.47,0,0,0,0-48.93,2,2,0,0,1,2-3.44,32.48,32.48,0,0,1,0,55.81A2,2,0,0,1,63.3,69.46Z"/><path class="cls-1" d="M32.12,69.46a2,2,0,0,1-1-.28,32.49,32.49,0,0,1,0-55.81,2,2,0,1,1,2.05,3.44,28.48,28.48,0,0,0,0,48.93,2,2,0,0,1-1,3.72Z"/><path class="cls-1" d="M71.1,82.55a2,2,0,0,1-1-3.72,43.7,43.7,0,0,0,0-75.11A2,2,0,0,1,72.12.28a47.71,47.71,0,0,1,0,82A2,2,0,0,1,71.1,82.55Z"/><path class="cls-1" d="M24.32,82.55a2,2,0,0,1-1-.28,47.71,47.71,0,0,1,0-82,2,2,0,0,1,2.05,3.44,43.7,43.7,0,0,0,0,75.11,2,2,0,0,1-1,3.72Z"/></g></g></svg>