<svg xmlns="http://www.w3.org/2000/svg" viewBox="0 0 112.13 113.55"><defs><style>.cls-1{fill:#162789;}</style></defs><title>食品加工の人</title><g id="レイヤー_2" data-name="レイヤー 2"><g id="レイヤー_1-2" data-name="レイヤー 1"><path class="cls-1" d="M110.56,93.88l0-.16c-1.42-5.59-6.73-10.76-12.1-11.78L75.7,78l-4.82-6.06-.06,0V67.33A29.61,29.61,0,0,0,87.24,41.1v-29c0-6.66-14-12-31.18-12S24.88,5.39,24.88,12.05V41.1h0A29.62,29.62,0,0,0,41.31,67.33v4.6l-.07,0L36.42,78,13.67,82C8.33,83,3,88.13,1.61,93.72l-.05.16L0,113.22l4,.33,1.53-19c1.1-4,5.14-8,8.87-8.67l24.22-4.23,4-5a46.92,46.92,0,0,0,12.23,1.91v34.83h2.5V78.56a46.76,46.76,0,0,0,12.23-1.91l4,5L97.7,85.88c3.76.71,7.8,4.66,8.9,8.67l1.54,19,4-.33ZM28.88,41.1v-29c0-.87,1.79-2.94,6.58-4.79C40.9,5.16,48.21,4,56.06,4S71.23,5.16,76.67,7.26c4.79,1.85,6.57,3.92,6.57,4.79V41.17h0A25.3,25.3,0,0,1,72.48,61.62,35.07,35.07,0,0,0,78.74,41.1a40.22,40.22,0,0,0-.24-4.29,18.45,18.45,0,0,0,4-2.51,1.26,1.26,0,0,0,.27-1.55c-3.69-6.63-14.34-11.08-26.49-11.08s-22.8,4.45-26.49,11.08a1.26,1.26,0,0,0,.27,1.55,18.09,18.09,0,0,0,3.56,2.29,39.18,39.18,0,0,0-.26,4.51,35,35,0,0,0,6.26,20.52A25.3,25.3,0,0,1,28.88,41.1Zm8.27,9.5h0l18.5,3,.4.07.41-.07,18.5-3h0C72.11,61,64.72,68.37,56.06,68.37S40,61,37.15,50.6Zm-1.1-13a7.16,7.16,0,0,0,2.16.54,12,12,0,0,0,7-2.15c2.21-1.31,4.73-2.8,11.14-2.8s8.92,1.49,11.14,2.8a12,12,0,0,0,7,2.15,5.77,5.77,0,0,0,1.68-.37c.1,1.08.15,2.18.15,3.29A36.64,36.64,0,0,1,75.59,48L56.06,51.18,36.54,48a35.82,35.82,0,0,1-.65-6.87C35.89,39.93,35.94,38.78,36.05,37.64Zm-3.48-4.57c3.71-5.29,13.22-8.9,23.74-8.9s20,3.61,23.74,8.9a19.14,19.14,0,0,1-5.65,2.61,9.68,9.68,0,0,1-5.68-1.8c-2.37-1.4-5.32-3.15-12.41-3.15s-10.05,1.75-12.42,3.15a9.64,9.64,0,0,1-5.67,1.8A18.72,18.72,0,0,1,32.57,33.07ZM56.06,74.58a44,44,0,0,1-10.75-1.33V67.31a18,18,0,0,0,21.51,0v5.94A44.05,44.05,0,0,1,56.06,74.58Z"/></g></g></svg>