<svg xmlns="http://www.w3.org/2000/svg" viewBox="0 0 73.7 113.39"><defs><style>.cls-1{fill:#162789;}</style></defs><title>アセット 2</title><g id="レイヤー_2" data-name="レイヤー 2"><g id="レイヤー_1-2" data-name="レイヤー 1"><path class="cls-1" d="M65.2,4a4.51,4.51,0,0,1,4.5,4.5v96.38a4.51,4.51,0,0,1-4.5,4.51H8.5A4.51,4.51,0,0,1,4,104.88V8.5A4.51,4.51,0,0,1,8.5,4H65.2m0-4H8.5A8.53,8.53,0,0,0,0,8.5v96.38a8.53,8.53,0,0,0,8.5,8.51H65.2a8.53,8.53,0,0,0,8.5-8.51V8.5A8.53,8.53,0,0,0,65.2,0Z"/><rect class="cls-1" x="45.35" y="20.96" width="18.43" height="8"/><rect class="cls-1" x="45.35" y="36.55" width="18.43" height="8"/><rect class="cls-1" x="45.35" y="52.14" width="18.43" height="8"/><path class="cls-1" d="M36.85,29V21h8.5V18.43a8.53,8.53,0,0,0-8.5-8.51h0a8.53,8.53,0,0,0-8.5,8.51V68.7a18.43,18.43,0,1,0,17,0V60.14h-8.5v-8h8.5V44.55h-8.5v-8h8.5V29Z"/></g></g></svg>