<svg xmlns="http://www.w3.org/2000/svg" viewBox="0 0 113.39 113.39"><defs><style>.cls-1{fill:#162789;}</style></defs><title>アセット 6</title><g id="レイヤー_2" data-name="レイヤー 2"><g id="レイヤー_1-2" data-name="レイヤー 1"><path class="cls-1" d="M105.42,96.34c-1.5-5.5-6.73-10.55-12-11.55L68.61,79.58V69.73A30.28,30.28,0,0,0,81.7,54.31a7.51,7.51,0,0,0,1.34.13,7.67,7.67,0,0,0,1.11-15.25,33.72,33.72,0,0,0-.34-3.37,67.28,67.28,0,0,0-.39-11.41C81.77,11,71.36,0,56.49,0s-26,11-26.93,24.41a68.92,68.92,0,0,0,0,11.85c-.13,1-.22,1.94-.27,2.93a7.66,7.66,0,0,0,.09,15.18A10.15,10.15,0,0,0,43.45,68.93c.44.28.87.55,1.32.8v9.85L20,84.78c-5.27,1-10.5,6.06-12,11.56l-8,17H4.15l7.63-15.85c1-4.06,5.13-8.1,9-8.84l4-.85v25.54H88.58V87.85l4.08.86c3.81.73,7.91,4.77,9,8.83l7.63,15.85h4.15ZM83,50.27c.13-.48.25-1,.35-1.46,0-.16.07-.33.1-.49.08-.4.16-.79.22-1.2l.09-.58c.06-.37.11-.75.16-1.13L84,44.8c0-.38.07-.77.1-1.16l0-.37A3.67,3.67,0,0,1,83,50.44H83A.85.85,0,0,0,83,50.27ZM39,14.88a3.54,3.54,0,0,1,3.54-3.54,3.59,3.59,0,0,1,2.13.71h0a4.25,4.25,0,0,1,7.1-3.15,5,5,0,0,1,9.89,0,4.25,4.25,0,0,1,7.1,3.15h0a3.54,3.54,0,0,1,5.67,2.83v8.51s-9.92-5.67-17.72-5.67S39,23.39,39,23.39ZM30.34,50.44a3.67,3.67,0,0,1-1.09-7.17c0,.12,0,.24,0,.36,0,.4.06.79.1,1.18l.06.59c0,.39.1.77.16,1.15,0,.19,0,.38.08.57.07.4.15.8.23,1.19,0,.17.06.34.1.5.1.48.22,1,.34,1.43,0,.07,0,.14,0,.2Zm4.41.62c-.1-.3-.19-.6-.28-.91l-.09-.33c-.09-.29-.17-.59-.24-.89l-.09-.39c-.07-.28-.13-.57-.19-.86l-.09-.44c-.06-.28-.11-.55-.15-.82s0-.34-.08-.51-.08-.53-.11-.79l-.06-.56c0-.25,0-.51-.08-.76l0-.57c0-.64-.07-1.29-.07-1.94,6.43-1.52,26-6.63,38.51-15.46,1.91-1.34,5.56,5.26,8.19,10.78A32.31,32.31,0,0,1,80.2,41v.13c0,.19,0,.38,0,.58,0,.48,0,1-.06,1.46,0,.19,0,.39,0,.59s0,.51-.07.76l-.06.56-.12.79c0,.17,0,.34-.07.5l-.15.84-.09.43c-.06.29-.12.58-.19.87l-.09.37-.24.91-.09.31c-.09.31-.19.62-.29.93-2.43,7.44-7.49,13.34-13.84,16.1h0l-1.07.43h0l-1.1.37h0q-.56.17-1.11.3h0c-.36.09-.72.16-1.09.23l-.07,0c-.34.06-.69.11-1,.15l-.14,0q-.48.06-1,.09l-.2,0c-.4,0-.8,0-1.2,0s-.8,0-1.19,0l-.2,0c-.33,0-.67,0-1-.09h-.12l-1.06-.16h0q-.55-.11-1.11-.24h0a21.44,21.44,0,0,1-2.24-.68s0,0,0,0l-1.07-.43,0,0C42.25,64.4,37.18,58.5,34.75,51.06ZM64.61,71.53v7.22l-7.92,6.53-7.92-6.53V71.53a24.14,24.14,0,0,0,5.08,1.17H54c.37,0,.75.08,1.13.1l.3,0c.43,0,.86,0,1.28,0s.86,0,1.28,0l.31,0c.38,0,.75-.06,1.13-.1h.13A24.06,24.06,0,0,0,64.61,71.53Zm14.76,29.1H34V85.92L47.7,83.05l9,7.42,9-7.42,13.68,2.87Z"/></g></g></svg>