<svg xmlns="http://www.w3.org/2000/svg" viewBox="0 0 113.39 113.39"><defs><style>.cls-1{fill:#162789;}</style></defs><title>金型</title><g id="レイヤー_2" data-name="レイヤー 2"><g id="レイヤー_1-2" data-name="レイヤー 1"><path class="cls-1" d="M60.84,43.69,74.13,86.23,75,89H95.17L96,86.11l6.27-22.58h7.14v45.86H4V63.53h7.13l6.28,22.58L18.22,89H38.37l.88-2.81,13.3-42.54h8.29m2.94-4H49.61L35.43,85H21.26L14.17,59.53H0v53.86H113.39V59.53H99.21L92.13,85H78L63.78,39.69Z"/><path class="cls-1" d="M59.53,8.5V0H53.86V8.5H0V53.86H18.43l7.08,25.51h5.67L45.36,34H68L82.21,79.37h5.66L95,53.86h18.43V8.5ZM42.41,30l-.87,2.8-13.13,42L22.28,52.79l-.81-2.93H4V12.5H53.86V30H42.41Zm67,19.84H91.92l-.81,2.93L85,74.84l-13.13-42L71,30H59.53V12.5h49.86Z"/></g></g></svg>