<svg xmlns="http://www.w3.org/2000/svg" viewBox="0 0 113.39 113.39"><defs><style>.cls-1{fill:#162789;}</style></defs><title>アセット 1</title><g id="レイヤー_2" data-name="レイヤー 2"><g id="レイヤー_1-2" data-name="レイヤー 1"><polygon class="cls-1" points="93.54 70.58 19.26 70.58 19.26 18.98 23.26 18.98 23.26 66.58 93.54 66.58 93.54 70.58"/><path class="cls-1" d="M38.34,58.15a3.39,3.39,0,0,1-2.61-1.35L27,46.13l3.1-2.53L38,53.3l9.91-26a3,3,0,0,1,5.56-.69l14,20.11L76.09,36.2a4.54,4.54,0,0,1,5.87-1l12.65,7.94-2.13,3.39-12.65-8a.57.57,0,0,0-.63.11l-8.85,10.9a3.56,3.56,0,0,1-5.84-.21L51.12,30.23,41.33,55.89a3.31,3.31,0,0,1-2.52,2.22A3.73,3.73,0,0,1,38.34,58.15Z"/><path class="cls-1" d="M97.07,79.05H16.31a5.56,5.56,0,0,1-5.55-5.55V16a5.56,5.56,0,0,1,5.55-5.56H97.07A5.56,5.56,0,0,1,102.63,16V73.5A5.56,5.56,0,0,1,97.07,79.05ZM16.31,14.42A1.56,1.56,0,0,0,14.76,16V73.5a1.56,1.56,0,0,0,1.55,1.55H97.07a1.56,1.56,0,0,0,1.56-1.55V16a1.56,1.56,0,0,0-1.56-1.56Z"/><path class="cls-1" d="M104.88,0H8.5A8.49,8.49,0,0,0,0,8.42V87a8.5,8.5,0,0,0,8.5,8.43h34v13.94H31.8v4H81.59v-4H70.87V95.45h34A8.5,8.5,0,0,0,113.39,87V8.42A8.49,8.49,0,0,0,104.88,0Zm4.51,87a4.48,4.48,0,0,1-4.51,4.43h-38v17.94H46.52V91.45H8.5A4.47,4.47,0,0,1,4,87V8.42A4.46,4.46,0,0,1,8.5,4h96.38a4.47,4.47,0,0,1,4.51,4.42Z"/></g></g></svg>