<svg xmlns="http://www.w3.org/2000/svg" viewBox="0 0 113.39 113.39"><defs><style>.cls-1{fill:#162789;}</style></defs><title>アセット 4</title><g id="レイヤー_2" data-name="レイヤー 2"><g id="レイヤー_1-2" data-name="レイヤー 1"><path class="cls-1" d="M109.65,94.21c-1.23-4.8-6-9.43-10.59-10.3L82.8,81.1l-9.86,22.58L56.7,96.89h0l-16.24,6.79L30.58,81.1,14.33,83.91c-4.59.87-9.36,5.5-10.59,10.3L0,113.39H113.39Z"/><path class="cls-1" d="M55.25,94.78,44.52,79.08V69.6a25.94,25.94,0,0,0,3.75,1.74l.33.12.9.3.54.16.8.22.69.16.73.15.79.13.66.1c.31,0,.63.06.95.09l.53,0c.5,0,1,.05,1.5.05s1,0,1.51-.05l.52,0,1-.09.65-.1.8-.13.73-.15.68-.16.8-.22.55-.16.9-.3.33-.12a25.94,25.94,0,0,0,3.75-1.74v9.48L58.14,94.78l13.49,5.64,8.64-19.76-7.4-1.28V66.77a31.91,31.91,0,0,0,9.75-15l.42,0a7.67,7.67,0,0,0,3.15-14.66V19.61a12,12,0,0,0-6.2-10L62.91,1.24A15,15,0,0,0,51,1.24L33.89,9.64a12,12,0,0,0-6.2,10V36.88a7.67,7.67,0,0,0,2.65,14.86l.43,0a31.83,31.83,0,0,0,9.75,15V79.38l-7.4,1.28,8.64,19.76ZM83.61,47.69a37.63,37.63,0,0,0,.56-4.91v0c0-.55,0-1.11,0-1.66v-.51a3.67,3.67,0,0,1-.59,7.1ZM26.67,44.07a3.67,3.67,0,0,1,2.52-3.48c0,.17,0,.34,0,.51,0,.55,0,1.11,0,1.66v0a37.32,37.32,0,0,0,.56,4.89h0A3.67,3.67,0,0,1,26.67,44.07Zm5-10.9V19.61a8,8,0,0,1,4-6.38L52.73,4.82a11.13,11.13,0,0,1,8.41,0l17.08,8.41a8,8,0,0,1,4,6.38V33.17c-4.86-5.39-14.49-8.86-25.25-8.86S36.54,27.78,31.69,33.17Zm47.9,3.1A19.14,19.14,0,0,1,75,38.33a9,9,0,0,1-5.25-1.7c-2.44-1.45-5.49-3.26-12.79-3.26s-10.35,1.81-12.8,3.26a9,9,0,0,1-5.25,1.7,19.29,19.29,0,0,1-4.6-2.06c3.85-4.76,12.79-8,22.65-8S75.74,31.51,79.59,36.27ZM34.26,49.4l-.08-.29c0-.12,0-.23-.08-.35-.13-.53-.25-1.08-.35-1.62l0-.16c0-.25-.09-.5-.13-.75s-.05-.3-.07-.45l-.09-.67c0-.35-.08-.71-.11-1.06,0-.15,0-.29,0-.43s0-.58-.05-.87c0-.13,0-.27,0-.4,0-.42,0-.83,0-1.25h0c0-.27,0-.53,0-.8a.13.13,0,0,0,0-.06c2.1,1.15,4.48,2.09,5.64,2.09a12.8,12.8,0,0,0,7.34-2.26c2.24-1.33,4.55-2.7,10.76-2.7s8.52,1.37,10.75,2.7A12.83,12.83,0,0,0,75,42.33,14.71,14.71,0,0,0,80.2,40.5v.6c0,.42,0,.83,0,1.25,0,.13,0,.27,0,.4,0,.29,0,.58,0,.86s0,.29,0,.44c0,.35-.07.7-.11,1.05s-.06.47-.1.7l-.06.41c0,.26-.09.53-.13.78,0,0,0,.06,0,.08-.11.58-.23,1.16-.37,1.74a2.33,2.33,0,0,1-.07.25l-.08.35A27.36,27.36,0,0,1,68,65.46l-.17.11-.8.49-.17.1c-.64.36-1.29.68-2,1l-.23.1-.8.31-.23.09c-.34.12-.67.24-1,.34l-.14,0c-.29.09-.58.17-.88.24l-.31.08-.81.17-.25,0c-.34.06-.68.11-1,.15l-.26,0c-.28,0-.55.06-.83.07l-.31,0c-.36,0-.72,0-1.08,0s-.72,0-1.07,0l-.31,0c-.28,0-.56,0-.83-.07l-.26,0c-.35,0-.7-.09-1-.16l-.24,0-.81-.17-.31-.08c-.3-.07-.6-.15-.89-.24l-.13,0c-.34-.1-.68-.22-1-.34l-.23-.08-.81-.33-.22-.09a21.33,21.33,0,0,1-2-1l-.15-.08c-.28-.16-.55-.33-.82-.5l-.15-.1A27.34,27.34,0,0,1,34.26,49.4Z"/></g></g></svg>