<svg viewBox="0 0 63.14 113.39" xmlns="http://www.w3.org/2000/svg"><g fill="#162789"><path d="m55.15 0h-47.15a8 8 0 0 0 -8 8v97.4a8 8 0 0 0 8 8h47.15a8 8 0 0 0 8-8v-97.4a8 8 0 0 0 -8-8zm-47.15 4h47.15a4 4 0 0 1 4 4v1.18h-55.15v-1.18a4 4 0 0 1 4-4zm51.15 9.18v85h-55.15v-85zm-4 96.21h-47.15a4 4 0 0 1 -4-4v-3.23h55.14v3.23a4 4 0 0 1 -3.99 4z"/><path d="m53.17 54.7h-45.37v-31.77h4v27.77h41.37z"/><path d="m19.91 46.8a3.39 3.39 0 0 1 -2.61-1.35l-4.68-5.72 3.09-2.53 3.89 4.8 5.14-13.47a3 3 0 0 1 5.56-.68l7.31 10.47 3.91-4.83a4.55 4.55 0 0 1 5.87-1l6.84 4.3-2.13 3.37-6.84-4.3a.56.56 0 0 0 -.63.1l-4.2 5.18a3.56 3.56 0 0 1 -5.84-.21l-6.67-9.55-5 13.16a3.31 3.31 0 0 1 -2.52 2.22 3.57 3.57 0 0 1 -.49.04z"/><path d="m50.17 89.77v-25.21h-8.93v25.21h-5.21v-18.41h-8.92v18.41h-5.21v-11.6h-8.93v11.6h-5.21v4h47.62v-4z"/></g></svg>