<svg xmlns="http://www.w3.org/2000/svg" viewBox="0 0 113.39 113.39"><defs><style>.cls-1{fill:#162789;}</style></defs><title>アセット 1</title><g id="レイヤー_2" data-name="レイヤー 2"><g id="レイヤー_1-2" data-name="レイヤー 1"><path class="cls-1" d="M53.36,84.48a9,9,0,0,1-7.25,10.34h0a9,9,0,0,1-10.35-7.24l-1.4-8L52,76.5Z"/><path class="cls-1" d="M52.05,46.2c-1.68-9.52-7.66-16.63-15.4-15.27S23.3,43.66,24.61,51.1,33,71.75,33,71.75l17.59-3.11S53.73,55.73,52.05,46.2Z"/><path class="cls-1" d="M60,72.13a9,9,0,0,0,7.24,10.35h0a9,9,0,0,0,10.35-7.24l1.41-8-17.6-3.11Z"/><path class="cls-1" d="M61.34,33.86C63,24.34,69,17.23,76.73,18.59s13.36,12.73,12,20.17S80.42,59.4,80.42,59.4l-17.6-3.1S59.66,43.39,61.34,33.86Z"/><polygon class="cls-1" points="0 0 0 12.05 10.11 0 0 0"/><polygon class="cls-1" points="2.64 42.67 12.76 30.61 12.76 13.73 12.25 14.34 0 28.93 0 45.81 2.64 42.67 2.64 42.67"/><polygon class="cls-1" points="27.74 12.76 38.44 0 24.28 0 13.57 12.76 27.74 12.76"/><polygon class="cls-1" points="7.2 71 12.76 64.37 12.76 47.49 0 62.69 0 79.58 7.2 71 7.2 71"/><polygon class="cls-1" points="56.07 12.76 66.77 0 52.61 0 41.9 12.76 56.07 12.76"/><polygon class="cls-1" points="12.76 98.14 12.76 81.25 0 96.46 0 113.34 11.76 99.33 12.76 98.14"/><polygon class="cls-1" points="84.4 12.76 95.1 0 80.94 0 70.23 12.76 84.4 12.76"/><polygon class="cls-1" points="24.83 100.63 14.13 113.39 28.29 113.39 38.99 100.63 24.83 100.63"/><polygon class="cls-1" points="100.63 12.76 100.63 27.18 111.4 14.34 113.39 11.97 113.39 0 109.27 0 98.56 12.76 100.63 12.76"/><polygon class="cls-1" points="53.16 100.63 42.46 113.39 56.62 113.39 67.33 100.63 53.16 100.63"/><polygon class="cls-1" points="101.8 42.67 100.63 44.06 100.63 60.94 113.39 45.74 113.39 28.86 101.8 42.67 101.8 42.67"/><polygon class="cls-1" points="81.49 100.63 70.79 113.39 84.95 113.39 95.66 100.63 81.49 100.63"/><polygon class="cls-1" points="100.63 77.82 100.63 94.7 113.39 79.5 113.39 62.62 106.36 71 100.63 77.82"/><polygon class="cls-1" points="99.12 113.39 113.39 113.39 113.39 96.38 99.12 113.39"/></g></g></svg>