<svg xmlns="http://www.w3.org/2000/svg" viewBox="0 0 113.39 113.39"><defs><style>.cls-1{fill:#162789;}</style></defs><title>アセット 1</title><g id="レイヤー_2" data-name="レイヤー 2"><g id="レイヤー_1-2" data-name="レイヤー 1"><path class="cls-1" d="M98,42.5V14.17h3.34V0H73V14.17h3.35V42.5c-8.83,2.85-15.4,12.87-15.4,24.7v46.19h52.45V67.2C113.39,55.37,106.82,45.35,98,42.5ZM77,4H97.34v6.17H77Zm32.4,105.39H64.94V67.2a25.65,25.65,0,0,1,3.77-13.58,17,17,0,0,1,8.85-7.32l2.78-.89V14.17H94V45.41l2.77.89c7.31,2.37,12.62,11.15,12.62,20.9Z"/><path class="cls-1" d="M52.4,65.72c0-.12,0-.24,0-.36,0-.48-.06-1-.11-1.45h0c-.05-.48-.12-.95-.19-1.42l0-.33c-.08-.47-.16-.94-.26-1.4h0c-.1-.46-.21-.92-.33-1.37,0-.1,0-.19-.08-.29-.24-.91-.53-1.79-.85-2.65,0-.09-.07-.18-.1-.26-2.6-6.69-7.48-11.77-13.36-13.67V14.17h3.34V0H12.05V14.17h3.34V42.5C7,45.2.7,54.34.06,65.35c0,.09,0,.17,0,.26,0,.52,0,1,0,1.59v46.19H52.44V67.2C52.44,66.7,52.43,66.21,52.4,65.72ZM16.05,4H36.39v6.17H16.05Zm.57,42.3,2.77-.89V14.17H33.05V45.41l2.77.89a16.7,16.7,0,0,1,8.54,6.88,31.16,31.16,0,0,0-5.6-.47c-17.08,0-17.08,11.34-34.17,11.34h-.4A24.92,24.92,0,0,1,7.77,53.62,17,17,0,0,1,16.62,46.3Z"/></g></g></svg>