<svg xmlns="http://www.w3.org/2000/svg" viewBox="0 0 113.55 113.39"><defs><style>.cls-1{fill:#162789}</style></defs><g id="レイヤー_2" data-name="レイヤー 2"><g id="レイヤー_1-2" data-name="レイヤー 1"><path class="cls-1" d="M106.75 76a14.88 14.88 0 00-13.31-21.62 15.18 15.18 0 00-3.18.34A24 24 0 0051.6 44.58 28.35 28.35 0 100 28.35a28.19 28.19 0 0010.86 22.3 2 2 0 002.47-3.14 24.35 24.35 0 1130.05 0 2 2 0 102.47 3.14c.65-.51 1.26-1 1.86-1.6a23.8 23.8 0 00-4.08 13.37 24.06 24.06 0 001.29 7.76 21.34 21.34 0 00-4.87 1.14l-9.77-45.83a2 2 0 00-3.91 0L10.51 99.86a2 2 0 003.91.83L16.91 89h9a21.66 21.66 0 0021.5 24.37h44.46A21.67 21.67 0 00106.75 76zm-67.87 9h-7.82a17.75 17.75 0 016.17-7.76zM28.32 35.5l7.69 36H20.64zM17.76 85l2-9.49H33A21.68 21.68 0 0026.8 85zm74.11 24.37H47.42a17.7 17.7 0 01-17.67-17.66A18.31 18.31 0 0130 89h9.79l2.49 11.67a2 2 0 003.91-.83L40.9 75.28a17.53 17.53 0 014.48-1.13l4.94-.56-1.61-4.71a19.77 19.77 0 01-1.08-6.46A20 20 0 0186.48 56l1.14 3.39 3.49-.76a10.91 10.91 0 0113.23 10.64 10.72 10.72 0 01-1.16 4.88l-1.34 2.66 2.16 2a17.5 17.5 0 015.55 12.85 17.7 17.7 0 01-17.68 17.73z"/><path class="cls-1" d="M39.25 38.27A2 2 0 0137.72 35 12.22 12.22 0 1019 35a2 2 0 11-3.06 2.57 16.22 16.22 0 1124.87 0 2 2 0 01-1.56.7z"/></g></g></svg>