<svg xmlns="http://www.w3.org/2000/svg" viewBox="0 0 113.39 113.39"><defs><style>.cls-1{fill:#162789}</style></defs><g id="レイヤー_2" data-name="レイヤー 2"><g id="レイヤー_1-2" data-name="レイヤー 1"><path class="cls-1" d="M2 45.3a2 2 0 01-2-2A43.36 43.36 0 0143.3 0a2 2 0 010 4A39.34 39.34 0 004 43.3a2 2 0 01-2 2z"/><path class="cls-1" d="M14.05 45.3a2 2 0 01-2-2A31.29 31.29 0 0143.3 12.05a2 2 0 010 4A27.29 27.29 0 0016.05 43.3a2 2 0 01-2 2z"/><path class="cls-1" d="M26.09 45.3a2 2 0 01-2-2A19.23 19.23 0 0143.3 24.09a2 2 0 010 4A15.24 15.24 0 0028.09 43.3a2 2 0 01-2 2zm56.29 20.55a11.52 11.52 0 11-23 0c0-6.37 11.52-28.15 11.52-28.15s11.48 21.78 11.48 28.15z"/><path class="cls-1" d="M70.86 28.35a42.34 42.34 0 00-25 8.13 6.88 6.88 0 00-9.38 9.39 42.52 42.52 0 1034.38-17.52zm0 81a38.58 38.58 0 01-36.06-25c1.91.42 3.1 1.57 4.53 3 2 1.89 4.38 4.25 9 4.25s7-2.36 9-4.25c1.8-1.75 3.22-3.12 6.21-3.12s4.41 1.37 6.21 3.12c2 1.89 4.38 4.25 9 4.25s7-2.36 9-4.25c1.4-1.36 2.57-2.48 4.42-2.92v10l12.75-11.33-12.79-11.38v8.62c-3.48.52-5.52 2.48-7.2 4.11s-3.22 3.13-6.21 3.13-4.41-1.38-6.21-3.13c-2-1.89-4.38-4.24-9-4.24s-7 2.35-9 4.25c-1.8 1.74-3.22 3.12-6.21 3.12s-4.41-1.38-6.21-3.12-4.25-4.12-8.61-4.24a38.47 38.47 0 015.94-31.59 6.77 6.77 0 003 .71 6.89 6.89 0 006.89-6.88 6.78 6.78 0 00-.71-3 38.51 38.51 0 1122.23 70z"/></g></g></svg>