<svg xmlns="http://www.w3.org/2000/svg" viewBox="0 0 113.39 113.39"><g data-name="レイヤー 2"><path d="M56.69 0h-2.28l-1.34.12h-.47c-.59 0-1.18.09-1.76.15h-.11l-1.64.2-.44.06-1.41.26-.34.06c-.59.1-1.18.21-1.76.33h-.08c-.55.11-1.1.24-1.64.37l-.33.08c-.52.12-1 .26-1.56.4h-.13c-.59.16-1.19.34-1.77.53-.56.18-1.12.36-1.68.56l-.19.07c-1.72.61-3.41 1.3-5 2.06h-.07a53.92 53.92 0 00-4.87 2.59 56.7 56.7 0 1077.98 77.21c.29-.51.57-1 .85-1.53l.09-.17c.24-.44.46-.88.69-1.33l.15-.3c.23-.47.45-.93.67-1.4a.61.61 0 010-.12c.24-.53.48-1.06.7-1.6l.06-.16q.3-.71.57-1.41c0-.11.09-.23.13-.35.17-.45.34-.91.5-1.37 0-.07 0-.15.08-.23q.28-.82.54-1.65a1.54 1.54 0 01.05-.17l.42-1.45c0-.14.07-.27.11-.41.12-.44.23-.88.34-1.33 0-.11 0-.23.08-.35.13-.55.26-1.11.37-1.68v-.16c.1-.5.19-1 .28-1.5 0-.16 0-.32.08-.48.07-.42.13-.85.19-1.28 0-.15 0-.3.07-.45.07-.57.14-1.14.2-1.71a.57.57 0 010-.13c0-.52.09-1 .13-1.58v-.52c0-.42 0-.85.07-1.27V56.7A56.7 56.7 0 0056.69 0zm2 109.34V99.21a2 2 0 10-4 0v10.13A52.76 52.76 0 014 58.69h10.17a2 2 0 100-4H4a52.74 52.74 0 0125.8-43.3l26.89 45.3L102.31 83a52.71 52.71 0 01-43.62 26.34zm22.38-48A26.94 26.94 0 0173.72 8.5 23.55 23.55 0 00107 41.77a27 27 0 01-25.93 19.58z" fill="#162789" data-name="レイヤー 1"/></g></svg>