<svg xmlns="http://www.w3.org/2000/svg" viewBox="0 0 113.11 113.82"><defs><style>.cls-1{fill:#162789}</style></defs><g id="レイヤー_2" data-name="レイヤー 2"><g id="レイヤー_1-2" data-name="レイヤー 1"><path class="cls-1" d="M100.37 7.9H35.46a4.84 4.84 0 00-4.84 4.84v20.51A20.94 20.94 0 0133.9 33h.72V12.74a.85.85 0 01.84-.84h64.91a.85.85 0 01.84.84v45.7a.85.85 0 01-.84.84H54.59a21 21 0 01-1.39 4h47.17a4.84 4.84 0 004.84-4.84v-45.7a4.84 4.84 0 00-4.84-4.84z"/><path class="cls-1" d="M106.33 0H29.5a6.8 6.8 0 00-6.78 6.78v29.38a21.34 21.34 0 014-1.92V6.78A2.82 2.82 0 0129.5 4h76.83a2.79 2.79 0 012.78 2.78v63.27a2.78 2.78 0 01-2.78 2.77H75.21v14.45H60.62V72.82H44.36a21.17 21.17 0 01-10.46 2.76c-3.87 0-7.17 1.24-4.4 1.24h27.12v9.49a36.47 36.47 0 013.59 5h27.55v-4h-8.55V76.82h27.12a6.8 6.8 0 006.78-6.77V6.78A6.8 6.8 0 00106.33 0z"/><path class="cls-1" d="M44.06 75.24a23.29 23.29 0 10-20.32 0C10 80.13 0 94.68 0 111.82a2 2 0 004 0c0-18.35 12.59-33.39 28.37-34.3.51 0 1 .06 1.53.06s1 0 1.53-.06c15.78.92 28.37 16 28.37 34.3a2 2 0 004 0c0-17.14-10-31.69-23.74-36.58zM14.61 54.29a19.29 19.29 0 1120.72 19.23h-2.87a19.32 19.32 0 01-17.85-19.23z"/></g></g></svg>