<svg xmlns="http://www.w3.org/2000/svg" viewBox="0 0 113.39 113.38"><g data-name="レイヤー 2"><path d="M29.49 4a25.48 25.48 0 0123.64 35 4 4 0 00.87 4.29l29.29 29.3a4 4 0 002.83 1.17 4.22 4.22 0 00.93-.11 18.12 18.12 0 11-13.4 13.42 4 4 0 00-1.06-3.76L43.29 54a4 4 0 00-2.83-1.17 4 4 0 00-1.48.28 25.49 25.49 0 01-34.33-29.4l14.08 14.08A4 4 0 0021.55 39h.24l12.66-.74a4 4 0 003.76-3.76L39 21.79a4 4 0 00-1.16-3.06L23.72 4.66A25.47 25.47 0 0129.49 4m61.78 95.48a8.21 8.21 0 10-5.8-2.4 8.15 8.15 0 005.8 2.4M29.49 0a29.42 29.42 0 00-13 3L35 21.56l-.75 12.65-12.7.79L3 16.44a29.5 29.5 0 0037.47 40.41l29.29 29.29a22.09 22.09 0 1016.38-16.38l-29.29-29.3A29.48 29.48 0 0029.49 0zm61.78 95.48a4.21 4.21 0 113-1.23 4.22 4.22 0 01-3 1.23z" fill="#162789" data-name="レイヤー 1"/></g></svg>