<svg xmlns="http://www.w3.org/2000/svg" viewBox="0 0 113.39 113.39"><defs><style>.cls-1{fill:#162789}</style></defs><g id="レイヤー_2" data-name="レイヤー 2"><g id="レイヤー_1-2" data-name="レイヤー 1"><path class="cls-1" d="M4 30.35H0V0h30.35v4H4v26.35zm109.39 0h-4V4H83.04V0h30.35v30.35zm-83.04 83.04H0V83.04h4v26.35h26.35v4zm83.04 0H83.04v-4h26.35V83.04h4v30.35zm0-58.7h-17.9a38.9 38.9 0 00-36.8-36.8V0h-4v17.89a38.91 38.91 0 00-36.8 36.8H0v4h17.89a38.9 38.9 0 0036.8 36.8v17.9h4v-17.9a38.9 38.9 0 0036.8-36.8h17.9zm-54.7 36.79v-15c-.65.06-1.32.1-2 .1s-1.34 0-2-.1v15A34.9 34.9 0 0121.9 58.69H37a18.73 18.73 0 01-.1-2 19 19 0 01.1-2H21.9A34.92 34.92 0 0154.69 21.9V37a19 19 0 012-.1 18.73 18.73 0 012 .1V21.9a34.9 34.9 0 0132.79 32.79h-15a19 19 0 01.11 2 18.71 18.71 0 01-.11 2h15a34.89 34.89 0 01-32.79 32.79z"/><path class="cls-1" d="M54.69 37A19.85 19.85 0 0037 54.69h17.69zm2-.15h-.01.02-.01zm19.85 19.84zm-.11-2A19.84 19.84 0 0058.69 37v17.69zm-39.43 4a19.86 19.86 0 0017.69 17.75V58.69zm21.69 17.75a19.85 19.85 0 0017.74-17.75H58.69zm-4 .1h2c-.67 0-1.34 0-2-.1zm0-39.69V37c.66-.06 1.32-.1 2-.1zm4 39.69v-.1c-.65.06-1.32.1-2 .1zM37 54.69h-.1v4h.1a18.73 18.73 0 01-.1-2 19 19 0 01.1-2zm21.69-17.84h-2c.67 0 1.34 0 2 .1zm17.84 19.86a18.49 18.49 0 01-.1 2h.1zm0-2.02h-.1a18.49 18.49 0 01.1 2z"/></g></g></svg>