<svg xmlns="http://www.w3.org/2000/svg" viewBox="0 0 113.39 113.39"><defs><style>.cls-1{fill:#162789}</style></defs><g id="レイヤー_2" data-name="レイヤー 2"><g id="レイヤー_1-2" data-name="レイヤー 1"><path class="cls-1" d="M90.55 17.27L80.58 0l-10 17.27h7.93c-.62 9.61-4.29 17.49-11 23.44C47.46 58.59 6.64 54.06 6.23 54a2 2 0 00-.46 4 121.92 121.92 0 0012.78.62c14.34 0 37.38-2.21 51.65-14.91C77.78 37 81.91 28.08 82.54 17.27z"/><path class="cls-1" d="M103.08 109.39V28.35H92.77v81.04h-10.3V42.52H72.16v66.87H61.85v-52.7H51.54v52.7H41.23V70.87h-10.3v38.52H20.62V85.04H10.31v24.35H0v4h113.39v-4h-10.31z"/></g></g></svg>