<svg xmlns="http://www.w3.org/2000/svg" viewBox="0 0 113.39 113.39"><g data-name="レイヤー 2"><path d="M104.88 0H8.5A8.49 8.49 0 000 8.42V87a8.5 8.5 0 008.5 8.43h34v13.94H31.8v4h49.79v-4H70.87V99.5a88.11 88.11 0 009.49 1.68l2.24 1.88-1.26 1.49a2 2 0 00.24 2.74l6.72 5.64a2 2 0 002.75-.24l14.5-17.28a8.48 8.48 0 007.84-8.41V8.42A8.49 8.49 0 00104.88 0zm-38 109.39H46.52V91.45H8.5A4.47 4.47 0 014 87V8.42A4.46 4.46 0 018.5 4h96.38a4.47 4.47 0 014.51 4.42v76.41l-5.26-4.41a2 2 0 00-2.74.24l-1.26 1.5-2.24-1.88s.17-.5.38-1.37a5.55 5.55 0 004.36-5.41V16a5.56 5.56 0 00-5.56-5.56H16.31A5.56 5.56 0 0010.76 16v57.5a5.56 5.56 0 005.55 5.55H56a7 7 0 00.49 1.12 4.61 4.61 0 00-3.2 1.52 3.9 3.9 0 00-.65 1.1c-2.47 6.11 6.21 11.82 6.21 11.82a24 24 0 008 3.81zm20.9-71.91a2.68 2.68 0 00-2.4-1 2.65 2.65 0 00-2 1.68l-4.09 9.45-7.13-19.14c-.56-1.51-1.45-1.67-1.94-1.63s-1.34.34-1.66 1.91l-3.72 19.06-5.58-4.68L56.7 41a6.89 6.89 0 00-1.49-.82l.21.08h.06l.25.11V22h-2.5v17.7a5.13 5.13 0 00-4.49 2 6.76 6.76 0 00-.78 1.13 14.9 14.9 0 10-.12 4.8 6.65 6.65 0 001.28 1.81l4.11 3.44v15.69h6.07a5.47 5.47 0 00.94 2.52 7.29 7.29 0 00-3.44 2 2.61 2.61 0 00-.34.46 6.12 6.12 0 00-.66 1.47H16.31a1.56 1.56 0 01-1.55-1.55V16a1.56 1.56 0 011.55-1.56h80.76A1.56 1.56 0 0198.63 16v48.91c-1-6.3-2.47-13.71-2.47-13.71s-.93-4.77-5.19-3.86a3.92 3.92 0 00-2.2 1.36 8.84 8.84 0 00-1.65 4.43l-2.23 11.51-17.89-15 3.56-18.26 6.68 17.93c.57 1.49 1.55 1.69 1.95 1.69a2.15 2.15 0 002-1.57l4.46-10.29a.53.53 0 01.08-.15l.12.12 6.31 7.44 1.91-1.62zm-54.85 8.76L42 53.69a12.37 12.37 0 01-20.78-5.92zm-12-1v-.36a12.4 12.4 0 0111.13-12.27v11.22zm12.38-.36zm1.25-.59V32.61a12.38 12.38 0 019.07 19.15zm25.15 21.78h-3.89V55L65 62.69a5.74 5.74 0 00-4.34 1.8 3.54 3.54 0 00-.41.58 6.56 6.56 0 00-.54 1zm22.41 33a2.71 2.71 0 00-1.46-.63c-4.14-.45-15.79-2.4-20-5.94l-.25-.19c-.07 0-6.73-4.65-5.17-8.49a1 1 0 01.21-.37 1.84 1.84 0 011.16-.53 2.68 2.68 0 002.12-1 2.42 2.42 0 00.29-.42 2.71 2.71 0 00-.12-2.81 3.84 3.84 0 010-3.72l.1-.14a4.63 4.63 0 012-1.12 2.87 2.87 0 001.55-.92 2.7 2.7 0 000-3.42 2.7 2.7 0 010-2.94 2 2 0 01.17-.23 3 3 0 012.09-.81 2.67 2.67 0 002.27-1 3 3 0 00.45-.73 2.8 2.8 0 00-.82-3.17L51.06 47.45a4 4 0 01-.77-1.24 2.46 2.46 0 01.65-2.69 2.36 2.36 0 012.44-1 4.49 4.49 0 011.63.68l2.48 2.08 25.64 21.47a2.74 2.74 0 002.68.49 2.79 2.79 0 001.19-.83 2.7 2.7 0 00.59-1.24l2.23-11.52v-.32a6.2 6.2 0 011-2.86 1.16 1.16 0 01.66-.44 1.09 1.09 0 011.32.42 3.77 3.77 0 01.6 1.3c.06.29 1.94 9.68 2.83 16.08a29.55 29.55 0 01-1 11.59 2.75 2.75 0 00.85 3l2.24 1.88L84.36 101zm7.34 11.24L84 105.7 103 83l5.49 4.61z" fill="#162789" data-name="レイヤー 1"/></g></svg>