<svg xmlns="http://www.w3.org/2000/svg" viewBox="0 0 113.39 113.39"><path d="M113.39 17V8.5h-4.26V4.25A4.26 4.26 0 00104.88 0H56.69a4.26 4.26 0 00-4.25 4.25V8.5h-4.25V17h4.25v46.78h-4.25v8.5h4.25v4.26a4.26 4.26 0 004.25 4.25h1.42v3.84a4.22 4.22 0 001.42 3.15v6.77h.83v4.08a10.76 10.76 0 11-21.51 0V14.76a14.76 14.76 0 10-29.51 0V32.6H8.5v6.76a4.27 4.27 0 00-1.41 3.16v11.34H2.83L0 56.69v53.86l2.83 2.84h17l2.84-2.84V56.69l-2.84-2.83h-4.24V42.52a4.24 4.24 0 00-1.42-3.16V32.6h-.83V14.76a10.76 10.76 0 1121.51 0v83.87a14.76 14.76 0 1029.51 0v-4.08h.84v-6.77a4.25 4.25 0 001.41-3.15v-3.84h38.27a4.26 4.26 0 004.25-4.25v-4.26h4.26v-8.5h-4.26V17zm-94.71 91.89l-.49.5H4.49l-.49-.5v-7.68h14.68zm0-50.54v38.86H4V58.35l.49-.49h13.7zm86.45 18.19a.26.26 0 01-.25.25H56.69a.26.26 0 01-.25-.25V4.25a.26.26 0 01.25-.25h48.19a.26.26 0 01.25.25z" fill="#162789" data-name="レイヤー 2"/></svg>