<svg xmlns="http://www.w3.org/2000/svg" viewBox="0 0 113.39 113.39"><defs><style>.cls-1{fill:#162789}</style></defs><g id="レイヤー_2" data-name="レイヤー 2"><g id="レイヤー_1-2" data-name="レイヤー 1"><path class="cls-1" d="M19.48 37.84a5.14 5.14 0 11-5.13-5.24 5.19 5.19 0 015.13 5.24zm14.11 0a5.13 5.13 0 11-5.13-5.24 5.19 5.19 0 015.13 5.24zm14.12 0a5.14 5.14 0 11-5.13-5.24 5.19 5.19 0 015.13 5.24zm14.12 0a5.14 5.14 0 11-5.14-5.24 5.19 5.19 0 015.14 5.24zm14.11 0a5.13 5.13 0 11-5.13-5.24 5.19 5.19 0 015.13 5.24zm14.12 0a5.14 5.14 0 11-5.14-5.24 5.19 5.19 0 015.14 5.24zm14.11 0A5.13 5.13 0 1199 32.6a5.19 5.19 0 015.17 5.24zM19.48 54.85a5.14 5.14 0 11-5.13-5.24 5.18 5.18 0 015.13 5.24zm14.11 0a5.13 5.13 0 11-5.13-5.24 5.18 5.18 0 015.13 5.24zm14.12 0a5.14 5.14 0 11-5.13-5.24 5.18 5.18 0 015.13 5.24zm14.12 0a5.14 5.14 0 11-5.14-5.24 5.19 5.19 0 015.14 5.24zm14.11 0a5.13 5.13 0 11-5.13-5.24 5.18 5.18 0 015.13 5.24zm14.12 0a5.14 5.14 0 11-5.14-5.24 5.19 5.19 0 015.14 5.24zm14.11 0A5.13 5.13 0 1199 49.61a5.18 5.18 0 015.17 5.24zM19.48 71.86a5.14 5.14 0 11-5.13-5.24 5.18 5.18 0 015.13 5.24zm14.11 0a5.13 5.13 0 11-5.13-5.24 5.18 5.18 0 015.13 5.24zm14.12 0a5.14 5.14 0 11-5.13-5.24 5.18 5.18 0 015.13 5.24zm14.12 0a5.14 5.14 0 11-5.14-5.24 5.19 5.19 0 015.14 5.24zm14.11 0a5.13 5.13 0 11-5.13-5.24 5.18 5.18 0 015.13 5.24zm14.12 0a5.14 5.14 0 11-5.14-5.24 5.19 5.19 0 015.14 5.24zm14.11 0A5.13 5.13 0 1199 66.62a5.18 5.18 0 015.17 5.24zM19.48 88.87a5.14 5.14 0 11-5.13-5.25 5.19 5.19 0 015.13 5.25zm14.11 0a5.13 5.13 0 11-5.13-5.25 5.18 5.18 0 015.13 5.25zm14.12 0a5.14 5.14 0 11-5.13-5.25 5.19 5.19 0 015.13 5.25z"/><path class="cls-1" d="M0 0v113.39h113.39V0zm85.47 109.39c7.87-4.08 18.84-11.26 23.92-21.42v21.42zM86 84.74a38.24 38.24 0 007.38.74 33.17 33.17 0 0015.7-3.84c-3.21 13.45-18.48 22.54-27.21 26.74 2.54-5.88 5.49-14.99 4.13-23.64zm23.41-6.18a30.4 30.4 0 01-16 4.42 37.08 37.08 0 01-10.81-1.67c3.51 10-1 22-3.91 28.08H4V19h105.39zM4 15V4h105.39v11z"/></g></g></svg>