<svg xmlns="http://www.w3.org/2000/svg" viewBox="0 0 113.39 113.39"><g data-name="レイヤー 2"><path d="M54.82 4.37A23.87 23.87 0 0178.4 24.19l.6 3.37 3.4.24a16.54 16.54 0 01-1.19 33h-60.3a16.54 16.54 0 01-7.8-31.13l2.42-1.3-.12-2.75v-.52a11.44 11.44 0 0115.75-10.56l3 1.23 2-2.52a23.85 23.85 0 0118.66-8.88m0-4.37a28.25 28.25 0 00-22 10.5A15.82 15.82 0 0011 25.13v.72a20.91 20.91 0 009.91 39.35H81.2a20.91 20.91 0 001.5-41.76A28.3 28.3 0 0054.82 0zm56.57 113.39a2 2 0 01-1.8-1.13L90.83 73.69a2 2 0 013.6-1.75l18.75 38.57a2 2 0 01-.92 2.67 2 2 0 01-.87.21zm-31.29 0a2 2 0 01-1.8-1.13L59.54 73.69a2 2 0 013.6-1.75l18.75 38.57a2 2 0 01-.92 2.67 2 2 0 01-.87.21zm-31.29 0a2 2 0 01-1.8-1.13L28.25 73.69a2 2 0 013.6-1.75l18.76 38.57a2 2 0 01-.93 2.67 2 2 0 01-.87.21zm46.93 0a2 2 0 01-1.8-1.13L80.16 83.91a2 2 0 113.59-1.75l13.79 28.35a2 2 0 01-1.8 2.88zm-31.29 0a2 2 0 01-1.8-1.13L48.87 83.91a2 2 0 113.59-1.74l13.79 28.34a2 2 0 01-.92 2.68 2.13 2.13 0 01-.88.2zm-31.28 0a2 2 0 01-1.8-1.13L17.58 83.91a2 2 0 013.6-1.75L35 110.51a2 2 0 01-.92 2.67 2 2 0 01-.91.21z" fill="#162789" data-name="レイヤー 1"/></g></svg>