<svg xmlns="http://www.w3.org/2000/svg" viewBox="0 0 591.9 423.1"><defs><style>.cls-1{fill:#10069f;}.cls-2{fill:#fff;}.cls-3,.cls-4,.cls-5,.cls-6,.cls-7{fill:none;}.cls-3,.cls-4,.cls-6,.cls-7{stroke:#10069f;stroke-linecap:round;}.cls-3,.cls-6,.cls-7{stroke-linejoin:round;}.cls-3,.cls-4,.cls-6{stroke-width:3px;}.cls-4,.cls-5{stroke-miterlimit:10;}.cls-5{stroke:#fff;stroke-width:11px;}.cls-6{stroke-dasharray:0 5.27;}.cls-7{stroke-width:1.88px;}</style></defs><title>sp-system-img01</title><g id="レイヤー_2" data-name="レイヤー 2"><g id="レイヤー_2-2" data-name="レイヤー 2"><path class="cls-1" d="M500,117.4a47.9,47.9,0,0,1,47.3,39.8l.9,5.4,5.5.4a33.6,33.6,0,0,1-2.4,67.2H434a33.7,33.7,0,0,1-15.9-63.3l3.9-2.1-.2-4.4v-1.1a23.8,23.8,0,0,1,23.7-23.8,23,23,0,0,1,9,1.8l4.8,2,3.3-4.1A48,48,0,0,1,500,117.4m0-7a55.1,55.1,0,0,0-42.8,20.4,32.1,32.1,0,0,0-11.7-2.3,30.8,30.8,0,0,0-30.7,30.8v1.4A40.6,40.6,0,0,0,434,237.2H551.3a40.7,40.7,0,0,0,2.9-81.2A55.1,55.1,0,0,0,500,110.4Z" transform="translate(0 -1.3)"/><path class="cls-1" d="M458.1,159.6a5.2,5.2,0,0,0-3.7-2,9.3,9.3,0,0,0-3.2.5c-.6.3-.5.7-.3,1.1a.7.7,0,0,0,.7.6,10.4,10.4,0,0,1,2.8-.3c2.4.5,2.4,3.2,2.4,3.2s-4.1,0-5.3.6c-2.8,1.5-2.8,5.9.2,7a5.1,5.1,0,0,0,5.1-1.1c0,.8-.1,1.1.5,1.1h1.5v-7.5a4.9,4.9,0,0,0-.7-3.1m-4.3,9.3a2.3,2.3,0,0,1-2.2-1.5,2.1,2.1,0,0,1,.4-2c.6-.7,1.3-.8,4.7-1a7.2,7.2,0,0,1-.4,3.2,2.9,2.9,0,0,1-2.5,1.3" transform="translate(0 -1.3)"/><path class="cls-1" d="M479.3,161.6a4.3,4.3,0,0,0-1.9-3.1,4.8,4.8,0,0,0-2.7-.7,4.5,4.5,0,0,0-2.7.7l-.9.7a3.1,3.1,0,0,0-.9-.7,4,4,0,0,0-2.6-.7,5.5,5.5,0,0,0-2.8.7,5,5,0,0,0-1.9,3.1v7.9c0,.8.6.8.7.8H465v-7.3c0-1.6.4-3.2,2.6-3.2s2.6,1,2.6,3.2v6.6c0,.6.5.7.9.7s1-.1,1-.7v-6.6c-.1-2.2.9-3.2,2.6-3.2s2.5,1.6,2.5,3.2v7.3h1.4c.2,0,.7,0,.7-.8Z" transform="translate(0 -1.3)"/><path class="cls-1" d="M521.1,161.6a4.3,4.3,0,0,0-1.9-3.1,4.8,4.8,0,0,0-2.7-.7,4.5,4.5,0,0,0-2.7.7l-.9.7c-.3-.2-.6-.6-.9-.7a4.2,4.2,0,0,0-2.6-.7,5.2,5.2,0,0,0-2.8.7,5,5,0,0,0-1.9,3.1v7.9c0,.8.5.8.7.8h1.4v-7.3c0-1.6.4-3.2,2.6-3.2s2.6,1,2.6,3.2v6.6c0,.6.5.7.9.7s1-.1,1-.7v-6.6c-.1-2.2.9-3.2,2.6-3.2s2.5,1.6,2.5,3.2v7.3h1.4c.2,0,.7,0,.7-.8Z" transform="translate(0 -1.3)"/><path class="cls-1" d="M492.6,159.9a4.5,4.5,0,0,0-1.9-1.7,5.5,5.5,0,0,0-4.6,0,4.5,4.5,0,0,0-1.9,1.7,5.5,5.5,0,0,0-.7,2.4v7.3c0,.5.3.7.6.7h1.5v-7.4a3.7,3.7,0,0,1,.8-2.4,2.9,2.9,0,0,1,4,0,3.7,3.7,0,0,1,.8,2.4v7.4h1.5c.3,0,.6-.2.6-.7v-7.3a4.8,4.8,0,0,0-.7-2.4" transform="translate(0 -1.3)"/><path class="cls-1" d="M499,154.7a1.6,1.6,0,0,1-1.5-1,1.6,1.6,0,0,1,.4-1.6,1.6,1.6,0,0,1,1.6-.4,1.4,1.4,0,0,1,1,1.6,1.5,1.5,0,0,1-1.5,1.4" transform="translate(0 -1.3)"/><path class="cls-1" d="M500,169.6V158.1h-2v11.5c0,.4-.1.6.3.8h1.4c.4-.2.3-.4.3-.8" transform="translate(0 -1.3)"/><path class="cls-1" d="M532.5,157.9a7.7,7.7,0,0,0-2-.3,7.9,7.9,0,0,0-2.1.3c-1.5.6-3.4,2.1-3.4,6.3s1.9,5.7,3.4,6.3a7.9,7.9,0,0,0,2.1.3,7.7,7.7,0,0,0,2-.3c1.5-.6,3.4-2.1,3.4-6.3s-1.9-5.7-3.4-6.3m1.2,7.3c-.2,2.1-.8,3.2-2.2,3.5l-1,.2-1.1-.2c-1.4-.3-2-1.4-2.2-3.5v-2c.2-2.1.8-3.1,2.2-3.5h2.1c1.4.4,2,1.4,2.2,3.5v2" transform="translate(0 -1.3)"/><path class="cls-1" d="M468.9,183.1c0-4.2,2.7-6.7,5.9-6.7a5,5,0,0,1,3.7,1.7l-1.3,1.6a3.4,3.4,0,0,0-2.3-1.1c-1.9,0-3.4,1.7-3.4,4.4s1.3,4.4,3.3,4.4a3.2,3.2,0,0,0,2.6-1.3l1.4,1.6a5.3,5.3,0,0,1-4.1,1.9C471.5,189.6,468.9,187.3,468.9,183.1Z" transform="translate(0 -1.3)"/><path class="cls-1" d="M480.6,186.7v-11h2.5v11.1c0,.5.3.7.5.7h.4l.3,1.9-1.3.2C481.2,189.6,480.6,188.4,480.6,186.7Z" transform="translate(0 -1.3)"/><path class="cls-1" d="M485.4,184.6c0-3.2,2.2-5.1,4.6-5.1s4.6,1.9,4.6,5.1a4.6,4.6,0,1,1-9.2,0Zm6.6,0c0-1.8-.7-3-2-3s-2,1.2-2,3,.7,2.9,2,2.9S492,186.4,492,184.6Z" transform="translate(0 -1.3)"/><path class="cls-1" d="M496.6,185.8v-6h2.5v5.6c0,1.5.4,2,1.3,2s1.3-.3,2-1.2v-6.4h2.5v9.5h-2l-.2-1.3h-.1a3.7,3.7,0,0,1-3.1,1.6C497.5,189.6,496.6,188.1,496.6,185.8Z" transform="translate(0 -1.3)"/><path class="cls-1" d="M507,184.6c0-3.2,2-5.1,4.1-5.1a3.2,3.2,0,0,1,2.4,1.1v-4.9h2.5v13.6h-2l-.2-.9h-.1a4.2,4.2,0,0,1-2.6,1.2C508.6,189.6,507,187.7,507,184.6Zm6.4,1.9v-4.2a2.7,2.7,0,0,0-1.8-.7c-1.1,0-2,1-2,2.9s.7,3,2,3A2.2,2.2,0,0,0,513.4,186.5Z" transform="translate(0 -1.3)"/><path class="cls-1" d="M416.4,201.5h2.4c2.7,0,4.4,1.4,4.4,4.4s-1.7,4.4-4.3,4.4h-2.5Zm2.3,7.4c1.6,0,2.7-.9,2.7-3s-1.1-3-2.7-3h-.6v6Z" transform="translate(0 -1.3)"/><path class="cls-1" d="M423.9,207a3.3,3.3,0,0,1,3.1-3.6c1.9,0,2.8,1.4,2.8,3.3a1.9,1.9,0,0,1-.1.8h-4.1a1.7,1.7,0,0,0,1.9,1.6,2.8,2.8,0,0,0,1.5-.4l.6,1.1a5.1,5.1,0,0,1-2.4.7A3.2,3.2,0,0,1,423.9,207Zm4.4-.7c0-.9-.4-1.5-1.3-1.5s-1.3.5-1.4,1.5Z" transform="translate(0 -1.3)"/><path class="cls-1" d="M430,203.6h1.8l1,3.4a19.4,19.4,0,0,0,.5,2h.1a11.7,11.7,0,0,1,.5-2l1-3.4h1.7l-2.3,6.7h-2Z" transform="translate(0 -1.3)"/><path class="cls-1" d="M437.1,201.6a.9.9,0,0,1,1-1,1,1,0,1,1,0,1.9A.9.9,0,0,1,437.1,201.6Zm.1,2H439v6.7h-1.8Z" transform="translate(0 -1.3)"/><path class="cls-1" d="M440,207a3.4,3.4,0,0,1,3.4-3.6,3.3,3.3,0,0,1,2,.8l-.9,1.1a1.3,1.3,0,0,0-1-.4c-1,0-1.7.8-1.7,2.1s.7,2.1,1.6,2.1a2,2,0,0,0,1.3-.6l.7,1.2a3.5,3.5,0,0,1-2.2.8A3.2,3.2,0,0,1,440,207Z" transform="translate(0 -1.3)"/><path class="cls-1" d="M445.8,207a3.3,3.3,0,0,1,3.1-3.6c1.9,0,2.8,1.4,2.8,3.3v.8h-4.2a1.8,1.8,0,0,0,1.9,1.6,2.8,2.8,0,0,0,1.5-.4l.6,1.1a4.8,4.8,0,0,1-2.4.7A3.3,3.3,0,0,1,445.8,207Zm4.4-.7c0-.9-.4-1.5-1.2-1.5a1.5,1.5,0,0,0-1.5,1.5Z" transform="translate(0 -1.3)"/><path class="cls-1" d="M455.1,201.5h2l1.5,4.1.5,1.7h.1l.5-1.7,1.5-4.1h2v8.8h-1.6v-3.7c0-.8.1-2,.2-2.9h-.1l-.7,2.1-1.4,3.7h-1l-1.4-3.7-.7-2.1h0c.1.9.2,2.1.2,2.9v3.7h-1.6Z" transform="translate(0 -1.3)"/><path class="cls-1" d="M464.4,208.5c0-1.4,1.2-2.2,3.9-2.5-.1-.6-.3-1.1-1.2-1.1a3.2,3.2,0,0,0-1.8.6l-.7-1.2a5.5,5.5,0,0,1,2.8-.9c1.7,0,2.6,1.1,2.6,3v3.9h-1.4v-.7h-.1a3.1,3.1,0,0,1-2,.9A1.9,1.9,0,0,1,464.4,208.5Zm3.9,0v-1.4c-1.7.2-2.2.7-2.2,1.3s.4.7.9.7A1.9,1.9,0,0,0,468.3,208.5Z" transform="translate(0 -1.3)"/><path class="cls-1" d="M471.3,203.6h1.5v.9h.1a2.7,2.7,0,0,1,2.1-1.1c1.5,0,2.1,1.1,2.1,2.7v4.2h-1.8v-3.9c0-1.1-.2-1.4-.9-1.4a1.9,1.9,0,0,0-1.4.7v4.6h-1.8Z" transform="translate(0 -1.3)"/><path class="cls-1" d="M478.2,208.5c0-1.4,1.2-2.2,3.9-2.5,0-.6-.3-1.1-1.2-1.1a3.2,3.2,0,0,0-1.8.6l-.6-1.2a5.2,5.2,0,0,1,2.8-.9c1.7,0,2.5,1.1,2.5,3v3.9h-1.4v-.7h-.1a2.9,2.9,0,0,1-2,.9A1.9,1.9,0,0,1,478.2,208.5Zm3.9,0v-1.4c-1.6.2-2.2.7-2.2,1.3s.4.7.9.7A1.8,1.8,0,0,0,482.1,208.5Z" transform="translate(0 -1.3)"/><path class="cls-1" d="M484.7,211.5a1.9,1.9,0,0,1,1-1.4h0a1.3,1.3,0,0,1-.6-1.2,1.5,1.5,0,0,1,.7-1.2h0a2.2,2.2,0,0,1-.9-1.7,2.5,2.5,0,0,1,2.7-2.5l1,.2h2.5v1.3h-1.2a1.5,1.5,0,0,1,.3,1c0,1.5-1.1,2.3-2.6,2.3h-.8a.5.5,0,0,0-.3.5c0,.4.3.6,1,.6h1.2c1.6,0,2.5.5,2.5,1.7s-1.4,2.3-3.7,2.3S484.7,212.7,484.7,211.5Zm4.8-.3c0-.5-.4-.6-1.1-.6h-1.8a.9.9,0,0,0-.4.7c0,.6.6.9,1.6.9S489.5,211.7,489.5,211.2Zm-.8-5.3a1.2,1.2,0,0,0-1.1-1.3c-.6,0-1,.5-1,1.3a1.1,1.1,0,0,0,1,1.2A1.1,1.1,0,0,0,488.7,205.9Z" transform="translate(0 -1.3)"/><path class="cls-1" d="M491.4,207a3.4,3.4,0,0,1,3.2-3.6c1.8,0,2.8,1.4,2.8,3.3,0,.3-.1.6-.1.8h-4.2a1.8,1.8,0,0,0,1.9,1.6,2.6,2.6,0,0,0,1.5-.4l.6,1.1a4.5,4.5,0,0,1-2.3.7A3.3,3.3,0,0,1,491.4,207Zm4.5-.7c0-.9-.4-1.5-1.3-1.5s-1.3.5-1.5,1.5Z" transform="translate(0 -1.3)"/><path class="cls-1" d="M498.3,203.6h1.5v.9h.1a2.6,2.6,0,0,1,2-1.1,2,2,0,0,1,1.9,1.2,3,3,0,0,1,2.1-1.2c1.4,0,2.1,1.1,2.1,2.7v4.2h-1.8v-3.9c0-1.1-.3-1.4-.9-1.4a1.9,1.9,0,0,0-1.3.7v4.6h-1.8v-3.9c0-1.1-.3-1.4-.9-1.4a1.9,1.9,0,0,0-1.3.7v4.6h-1.8Z" transform="translate(0 -1.3)"/><path class="cls-1" d="M509,207a3.3,3.3,0,0,1,3.1-3.6c1.9,0,2.9,1.4,2.9,3.3,0,.3-.1.6-.1.8h-4.2a1.8,1.8,0,0,0,1.9,1.6,2.8,2.8,0,0,0,1.5-.4l.6,1.1a4.8,4.8,0,0,1-2.4.7A3.3,3.3,0,0,1,509,207Zm4.4-.7c0-.9-.4-1.5-1.2-1.5a1.5,1.5,0,0,0-1.5,1.5Z" transform="translate(0 -1.3)"/><path class="cls-1" d="M515.9,203.6h1.5v.9h0a3.1,3.1,0,0,1,2.2-1.1c1.5,0,2.1,1.1,2.1,2.7v4.2H520v-3.9c0-1.1-.3-1.4-.9-1.4a1.7,1.7,0,0,0-1.4.7v4.6h-1.8Z" transform="translate(0 -1.3)"/><path class="cls-1" d="M523.4,208v-3h-1v-1.3h1.1l.2-1.8h1.5v1.8h1.6V205h-1.6v3c0,.7.3,1.1.9,1.1h.6l.3,1.2a2.6,2.6,0,0,1-1.4.3C524,210.5,523.4,209.5,523.4,208Z" transform="translate(0 -1.3)"/><path class="cls-1" d="M529.5,209.2l1-1.2a3.7,3.7,0,0,0,2.3,1c.9,0,1.4-.4,1.4-1.1s-.6-.8-1.3-1.2l-1.2-.5a2.5,2.5,0,0,1-1.8-2.3,2.7,2.7,0,0,1,3-2.6,3.9,3.9,0,0,1,2.8,1.1l-.9,1.1a2.9,2.9,0,0,0-1.9-.7c-.7,0-1.2.4-1.2.9s.6.9,1.3,1.2l1.2.5a2.4,2.4,0,0,1,1.8,2.4c0,1.5-1.2,2.7-3.3,2.7A4.8,4.8,0,0,1,529.5,209.2Z" transform="translate(0 -1.3)"/><path class="cls-1" d="M536.6,212.9l.3-1.4h.5a1.3,1.3,0,0,0,1.3-1v-.4l-2.6-6.6h1.7l1.1,3.1.6,1.9h0a10.5,10.5,0,0,0,.5-1.9l.9-3.1h1.7l-2.4,6.9c-.5,1.6-1.3,2.5-2.8,2.5Z" transform="translate(0 -1.3)"/><path class="cls-1" d="M542.7,209.6l.8-1.2a2.9,2.9,0,0,0,1.8.8c.7,0,1-.3,1-.7s-.7-.8-1.4-1-1.8-.9-1.8-2,.9-2.1,2.5-2.1a3.7,3.7,0,0,1,2.2.9l-.7,1a3,3,0,0,0-1.5-.5q-.9,0-.9.6c0,.5.7.7,1.4.9s1.9.8,1.9,2.1-1,2.1-2.7,2.1A4.8,4.8,0,0,1,542.7,209.6Z" transform="translate(0 -1.3)"/><path class="cls-1" d="M549.1,208v-3h-1v-1.3h1.1l.2-1.8h1.4v1.8h1.7V205h-1.7v3c0,.7.3,1.1.9,1.1h.7l.3,1.2a2.9,2.9,0,0,1-1.4.3C549.7,210.5,549.1,209.5,549.1,208Z" transform="translate(0 -1.3)"/><path class="cls-1" d="M553,207a3.3,3.3,0,0,1,3.1-3.6c1.8,0,2.8,1.4,2.8,3.3a1.9,1.9,0,0,1-.1.8h-4.1a1.6,1.6,0,0,0,1.8,1.6,2.4,2.4,0,0,0,1.5-.4l.6,1.1a4.5,4.5,0,0,1-2.3.7A3.2,3.2,0,0,1,553,207Zm4.4-.7c0-.9-.4-1.5-1.3-1.5s-1.3.5-1.5,1.5Z" transform="translate(0 -1.3)"/><path class="cls-1" d="M559.9,203.6h1.4v.9h.1a2.7,2.7,0,0,1,2-1.1,1.9,1.9,0,0,1,1.9,1.2,3,3,0,0,1,2.1-1.2c1.4,0,2.1,1.1,2.1,2.7v4.2h-1.8v-3.9c0-1.1-.3-1.4-.9-1.4a1.9,1.9,0,0,0-1.3.7v4.6h-1.7v-3.9c0-1.1-.3-1.4-1-1.4a1.9,1.9,0,0,0-1.3.7v4.6h-1.7Z" transform="translate(0 -1.3)"/><path class="cls-1" d="M333,259.7a4.7,4.7,0,0,1,4.7,4.7v68.1a4.7,4.7,0,0,1-4.7,4.7H157.8a4.7,4.7,0,0,1-4.7-4.7V264.4a4.7,4.7,0,0,1,4.7-4.7H333m0-5H157.8a9.7,9.7,0,0,0-9.7,9.7v68.1a9.7,9.7,0,0,0,9.7,9.7H333a9.6,9.6,0,0,0,9.7-9.7V264.4a9.6,9.6,0,0,0-9.7-9.7Z" transform="translate(0 -1.3)"/><rect class="cls-1" x="165.1" y="304.5" width="29.2" height="19.46"/><rect class="cls-1" x="194.3" y="314.2" width="19.5" height="9.73"/><rect class="cls-1" x="212.6" y="253.4" width="4.9" height="17.03"/><rect class="cls-1" x="224.7" y="253.4" width="4.9" height="17.03"/><rect class="cls-1" x="236.9" y="253.4" width="4.9" height="17.03"/><rect class="cls-1" x="249.1" y="253.4" width="4.9" height="17.03"/><rect class="cls-1" x="261.2" y="253.4" width="4.9" height="17.03"/><rect class="cls-1" x="273.4" y="253.4" width="4.9" height="17.03"/><path class="cls-1" d="M263.8,295.2v1h-1.5c-.1-.1-.1-.4-.1-.7v-.2h-.1a4.5,4.5,0,0,1-2.7,1.1l-1.4-.3a2.9,2.9,0,0,1-1.8-2.5,3.3,3.3,0,0,1,1.7-3.1c.9-.5,4.2-.5,4.3-.5h.1s-.1-2.3-2-2.7h-.5l-1.4.2h-.5c-.2,0-.4-.3-.5-.5s-.2-.6.2-.8a9.7,9.7,0,0,1,2.3-.4h.3a4,4,0,0,1,3,1.7,4,4,0,0,1,.6,2.4v5.1m-3.2-10.8a8.2,8.2,0,0,0-2.7-.1,4.9,4.9,0,0,1-3.1-.5,4.2,4.2,0,0,0-2.7-.3,3.6,3.6,0,0,0-1.8.7l1,.3a3.9,3.9,0,0,1,2.3,2.4,4.5,4.5,0,0,1-.2,2.5l-.6,2c-.4,1.3-.7,2.4-.9,2.9a.4.4,0,0,1-.1.3,7.6,7.6,0,0,0,14.7-2,7.7,7.7,0,0,0-5.9-8.2" transform="translate(0 -1.3)"/><path class="cls-1" d="M252,289.1h.1s.6-2.3-1.2-3.3a5.1,5.1,0,0,0-1.7-.3,4.3,4.3,0,0,0-.9,2.2v.7a20.3,20.3,0,0,1,3.6.8Z" transform="translate(0 -1.3)"/><path class="cls-1" d="M262.2,291.4h-.1l-1.9.2h-.1a2.3,2.3,0,0,0-1.9.7,1.7,1.7,0,0,0-.3,1.7,1.8,1.8,0,0,0,1.9,1.3,2.6,2.6,0,0,0,1.7-.7.5.5,0,0,0,.3-.4,4.3,4.3,0,0,0,.4-2.7Z" transform="translate(0 -1.3)"/><path class="cls-1" d="M315.5,288.3a4.5,4.5,0,0,0-1.3-1.7,3.9,3.9,0,0,0-2.3-.6,3.6,3.6,0,0,0-2.2.6l-.8.6-.7-.6a3.8,3.8,0,0,0-2.2-.6,3.9,3.9,0,0,0-2.3.6,3.7,3.7,0,0,0-1.3,1.7,1.8,1.8,0,0,0-.2,1c-.1.8,0,3.4,0,5.1v1.3c0,.2,0,.6.5.6h1.2v-6a2.9,2.9,0,0,1,.7-2.2,2,2,0,0,1,1.4-.5,3,3,0,0,1,1.5.5,2.9,2.9,0,0,1,.6,2.2v5.4a.7.7,0,0,0,.8.6.7.7,0,0,0,.9-.6v-5.4a2.9,2.9,0,0,1,.6-2.2,3,3,0,0,1,1.5-.5,2,2,0,0,1,1.4.5,2.9,2.9,0,0,1,.7,2.2v6h1.2c.5,0,.5-.4.5-.6v-6.4a3.6,3.6,0,0,0-.2-1" transform="translate(0 -1.3)"/><path class="cls-1" d="M281,288.3a4.5,4.5,0,0,0-1.3-1.7,3.9,3.9,0,0,0-2.3-.6,3.6,3.6,0,0,0-2.2.6l-.8.6-.7-.6a3.8,3.8,0,0,0-2.2-.6,3.9,3.9,0,0,0-2.3.6,3.7,3.7,0,0,0-1.3,1.7,1.8,1.8,0,0,0-.2,1c-.1.8,0,3.4,0,5.1v1.3c0,.2,0,.6.5.6h1.2v-6a2.9,2.9,0,0,1,.7-2.2,2,2,0,0,1,1.4-.5,3,3,0,0,1,1.5.5,2.9,2.9,0,0,1,.6,2.2v5.4a.7.7,0,0,0,.8.6.7.7,0,0,0,.9-.6v-5.4a2.9,2.9,0,0,1,.6-2.2,3,3,0,0,1,1.5-.5,2,2,0,0,1,1.4.5,2.9,2.9,0,0,1,.7,2.2v6h1.1c.6,0,.6-.4.6-.6v-6.4a3.6,3.6,0,0,0-.2-1" transform="translate(0 -1.3)"/><path class="cls-1" d="M326.1,292.1c-.1,1.7-.7,2.6-1.8,2.9h-1.7c-1.2-.3-1.7-1.2-1.9-2.9v-1.6c.2-1.7.7-2.6,1.9-2.9h1.7c1.1.3,1.7,1.2,1.8,2.9v1.6m1.8-1.1c0-1-.3-4-2.8-4.9a4.5,4.5,0,0,0-1.6-.3h-.1a4.7,4.7,0,0,0-1.7.3c-2.5.9-2.7,3.9-2.7,4.9v.6c0,1,.2,4,2.7,4.8a4.7,4.7,0,0,0,1.7.3h.1l1.6-.2c2.5-.9,2.8-3.9,2.8-4.9V291" transform="translate(0 -1.3)"/><path class="cls-1" d="M297.8,281a1,1,0,0,0-1.2.3,1.2,1.2,0,0,0-.4,1.3,1.4,1.4,0,0,0,1.2.9,1.3,1.3,0,0,0,1.3-1.2,1.2,1.2,0,0,0-.9-1.3" transform="translate(0 -1.3)"/><path class="cls-1" d="M297.5,286.3h-.9V296c0,.4.4.5.9.5s.8-.1.8-.5v-9.8h-.8" transform="translate(0 -1.3)"/><path class="cls-1" d="M290.6,286.3a4.3,4.3,0,0,0-1.9-.4,4.1,4.1,0,0,0-1.9.4,3.9,3.9,0,0,0-1.6,1.5,4.7,4.7,0,0,0-.6,1.9v6a.6.6,0,0,0,.6.6h1.2v-6.1a2.7,2.7,0,0,1,.7-2,2.4,2.4,0,0,1,3.2,0,2.7,2.7,0,0,1,.7,2v6.1h1.2a.6.6,0,0,0,.6-.6v-6a3.6,3.6,0,0,0-.6-1.9,3.9,3.9,0,0,0-1.6-1.5" transform="translate(0 -1.3)"/><path class="cls-1" d="M251.5,290.1l-1.9-.4h-.1l-.9-.2h-.1a1.7,1.7,0,0,0-1,.3,1.8,1.8,0,0,0-.9,1.6,1.9,1.9,0,0,0,1.5,1.8h.8l1.1-.2.4-.3a.5.5,0,0,0,.3-.4,4.7,4.7,0,0,0,.9-2.2h-.1Z" transform="translate(0 -1.3)"/><path class="cls-1" d="M138.6,2.2h1.5l1.8,6c.4,1.3.6,2.3,1,3.6h.1l1.1-3.6,1.7-6h1.4l-3.5,11h-1.6Z" transform="translate(0 -1.3)"/><path class="cls-1" d="M148.4,11.1c0-1.8,1.6-2.7,5-3.1,0-1-.3-2-1.7-2a3.9,3.9,0,0,0-2.4.9l-.5-1A5.8,5.8,0,0,1,152,4.8c1.9,0,2.8,1.4,2.8,3.4v5h-1.1l-.2-1h0a4.2,4.2,0,0,1-2.7,1.2A2.2,2.2,0,0,1,148.4,11.1Zm5,.1V8.9c-2.7.4-3.7,1-3.7,2.1s.7,1.3,1.5,1.3A3.3,3.3,0,0,0,153.4,11.2Z" transform="translate(0 -1.3)"/><path class="cls-1" d="M157.7,5.1h1.1V6.5h.1a2.8,2.8,0,0,1,2.3-1.7l.9.2-.3,1.2h-.8c-.7,0-1.5.5-2.1,1.9v5.2h-1.3Z" transform="translate(0 -1.3)"/><path class="cls-1" d="M163.5,2.5a.9.9,0,0,1,1-.9.8.8,0,0,1,.9.9.9.9,0,0,1-.9.9A1,1,0,0,1,163.5,2.5Zm.3,2.6h1.4v8.1h-1.4Z" transform="translate(0 -1.3)"/><path class="cls-1" d="M167.6,9.1c0-2.7,1.8-4.3,3.8-4.3s3.8,1.6,3.8,4.3-1.8,4.3-3.8,4.3S167.6,11.8,167.6,9.1Zm6.2,0c0-1.8-1-3.1-2.4-3.1S169,7.3,169,9.1s1,3.2,2.4,3.2S173.8,11,173.8,9.1Z" transform="translate(0 -1.3)"/><path class="cls-1" d="M177.5,10.2V5.1h1.4v5c0,1.5.4,2.1,1.5,2.1s1.4-.4,2.2-1.4V5.1H184v8.1h-1.2V11.9h0a3.6,3.6,0,0,1-2.7,1.5C178.3,13.4,177.5,12.3,177.5,10.2Z" transform="translate(0 -1.3)"/><path class="cls-1" d="M186.1,12.3l.7-.9a3.9,3.9,0,0,0,2.4.9c1.1,0,1.6-.5,1.6-1.2s-1-1.2-1.9-1.6-2.4-1-2.4-2.3,1-2.4,2.8-2.4a4.6,4.6,0,0,1,2.6,1l-.7.8a3.2,3.2,0,0,0-1.9-.7c-1,0-1.5.6-1.5,1.2s.9,1.1,1.8,1.4,2.5.9,2.5,2.5-1,2.4-2.9,2.4A5.3,5.3,0,0,1,186.1,12.3Z" transform="translate(0 -1.3)"/><path class="cls-1" d="M197.4,9.1c0-2.6,1.7-4.3,3.5-4.3a3.3,3.3,0,0,1,2.3,1V1.3h1.3V13.2h-1.1v-1h0a3.5,3.5,0,0,1-2.5,1.2C198.7,13.4,197.4,11.9,197.4,9.1Zm5.8,2V6.9a2.6,2.6,0,0,0-2-.9c-1.3,0-2.4,1.3-2.4,3.1s.8,3.2,2.3,3.2A2.9,2.9,0,0,0,203.2,11.1Z" transform="translate(0 -1.3)"/><path class="cls-1" d="M207,9.1c0-2.6,1.8-4.3,3.7-4.3s3.2,1.5,3.2,3.9a1.9,1.9,0,0,1-.1.8h-5.4a2.6,2.6,0,0,0,2.7,2.8,3.6,3.6,0,0,0,2-.6l.5.9a5.4,5.4,0,0,1-2.7.8C208.7,13.4,207,11.8,207,9.1Zm5.7-.6c0-1.7-.7-2.6-2-2.6s-2.2,1-2.4,2.6Z" transform="translate(0 -1.3)"/><path class="cls-1" d="M215,5.1h1.5L218,9.7c.2.8.5,1.6.7,2.4h.1a22.5,22.5,0,0,1,.8-2.4l1.5-4.6h1.4l-2.9,8.1H218Z" transform="translate(0 -1.3)"/><path class="cls-1" d="M224.1,2.5a.8.8,0,0,1,.9-.9c.6,0,1,.3,1,.9a.9.9,0,0,1-1,.9A.9.9,0,0,1,224.1,2.5Zm.2,2.6h1.4v8.1h-1.4Z" transform="translate(0 -1.3)"/><path class="cls-1" d="M228.1,9.1a4,4,0,0,1,4-4.3,3.8,3.8,0,0,1,2.4,1l-.8.9a2.2,2.2,0,0,0-1.6-.7c-1.5,0-2.5,1.3-2.5,3.1s1,3.2,2.5,3.2a2.8,2.8,0,0,0,1.9-.9l.6,1a4.2,4.2,0,0,1-2.6,1C229.8,13.4,228.1,11.8,228.1,9.1Z" transform="translate(0 -1.3)"/><path class="cls-1" d="M236.1,9.1c0-2.6,1.8-4.3,3.6-4.3S243,6.3,243,8.7a1.9,1.9,0,0,1-.1.8h-5.5a2.7,2.7,0,0,0,2.7,2.8,3.7,3.7,0,0,0,2.1-.6l.5.9a5.4,5.4,0,0,1-2.7.8C237.8,13.4,236.1,11.8,236.1,9.1Zm5.7-.6c0-1.7-.8-2.6-2-2.6s-2.2,1-2.4,2.6Z" transform="translate(0 -1.3)"/><path class="cls-1" d="M244.4,12.3l.7-.9a3.9,3.9,0,0,0,2.4.9c1.1,0,1.6-.5,1.6-1.2s-1-1.2-1.9-1.6-2.4-1-2.4-2.3,1-2.4,2.8-2.4a4,4,0,0,1,2.5,1l-.6.8a3.4,3.4,0,0,0-1.9-.7c-1,0-1.5.6-1.5,1.2s.9,1.1,1.8,1.4,2.5.9,2.5,2.5-1.1,2.4-3,2.4A5.2,5.2,0,0,1,244.4,12.3Z" transform="translate(0 -1.3)"/><path class="cls-1" d="M291.2,375.4v-7.1h.9v7.1c0,3,1.4,3.9,3.1,3.9s3-.9,3-3.9v-7.1h1v7.1c0,3.7-1.9,4.8-4,4.8S291.2,379.1,291.2,375.4Z" transform="translate(0 -1.3)"/><path class="cls-1" d="M302.4,371.5h.8v1h0a5.1,5.1,0,0,1,2.9-1.3c2.2,0,3.4,1.8,3.4,4.4s-1.8,4.6-3.8,4.6a4.7,4.7,0,0,1-2.5-1v4.6h-.9Zm6.2,4.1c0-2.1-.7-3.5-2.6-3.5a4.2,4.2,0,0,0-2.7,1.3v4.9a3.9,3.9,0,0,0,2.4,1.1C307.4,379.4,308.6,377.9,308.6,375.6Z" transform="translate(0 -1.3)"/><path class="cls-1" d="M315.8,377.6v-5.4h-1.3v-.7h1.4V369h.8v2.5h2.4v.7h-2.4v5.4c0,1.1.3,1.8,1.4,1.8l1-.2.3.7a4.4,4.4,0,0,1-1.5.3C316.4,380.2,315.8,379.1,315.8,377.6Z" transform="translate(0 -1.3)"/><path class="cls-1" d="M320.6,375.7c0-2.8,1.8-4.5,3.8-4.5s3.9,1.7,3.9,4.5-1.8,4.5-3.9,4.5S320.6,378.6,320.6,375.7Zm6.7,0c0-2.1-1.2-3.6-2.9-3.6s-2.9,1.5-2.9,3.6,1.3,3.7,2.9,3.7S327.3,377.9,327.3,375.7Z" transform="translate(0 -1.3)"/><path class="cls-1" d="M340.7,376.7h-1.6V380h-.9v-3.3H333v-.6l5.2-7.8h.9v7.6h1.6Zm-2.5-.8v-4.3a13.4,13.4,0,0,1,.1-2h-.1l-.9,1.7-3.2,4.6Z" transform="translate(0 -1.3)"/><path class="cls-1" d="M346.6,377.6v-5.4h-1.3v-.7h1.4V369h.8v2.5H350v.7h-2.4v5.4c0,1.1.3,1.8,1.4,1.8l1-.2.3.7a4.4,4.4,0,0,1-1.5.3C347.2,380.2,346.6,379.1,346.6,377.6Z" transform="translate(0 -1.3)"/><path class="cls-1" d="M350.9,383.7l.2-.8h.7c1,0,1.7-.9,2.1-2.2l.3-.7-3.5-8.6h1l2,5.2c.2.7.6,1.6.9,2.4h0l.8-2.4,1.8-5.2h.9l-3.3,9.5c-.5,1.5-1.4,2.8-3,2.8Z" transform="translate(0 -1.3)"/><path class="cls-1" d="M359.9,371.5h.8v1h0a5.1,5.1,0,0,1,2.9-1.3c2.2,0,3.4,1.8,3.4,4.4s-1.8,4.6-3.8,4.6a4.7,4.7,0,0,1-2.5-1v4.6h-.9Zm6.2,4.1c0-2.1-.7-3.5-2.6-3.5a4.2,4.2,0,0,0-2.7,1.3v4.9a3.9,3.9,0,0,0,2.4,1.1C364.9,379.4,366.1,377.9,366.1,375.6Z" transform="translate(0 -1.3)"/><path class="cls-1" d="M368.9,375.7c0-2.7,1.8-4.5,3.7-4.5s3.3,1.5,3.3,4v.7h-6.1c.1,2.1,1.3,3.5,3.1,3.5a3.9,3.9,0,0,0,2.3-.7l.4.7a5.2,5.2,0,0,1-2.8.8C370.7,380.2,368.9,378.5,368.9,375.7Zm6.2-.6c0-2-1-3.1-2.5-3.1s-2.6,1.2-2.8,3.1Z" transform="translate(0 -1.3)"/><path class="cls-1" d="M377.2,379l.4-.6a4.3,4.3,0,0,0,2.7,1c1.3,0,2-.7,2-1.6s-1.1-1.5-2.1-1.8-2.6-1-2.6-2.5,1-2.3,2.8-2.3a3.9,3.9,0,0,1,2.4.9l-.4.7a3.6,3.6,0,0,0-2.1-.8c-1.2,0-1.8.7-1.8,1.5s1,1.3,2,1.7,2.7.9,2.7,2.6-1,2.4-2.9,2.4A4.4,4.4,0,0,1,377.2,379Z" transform="translate(0 -1.3)"/><path class="cls-1" d="M388.3,375.7c0-2.8,1.8-4.5,3.8-4.5s3.9,1.7,3.9,4.5-1.8,4.5-3.9,4.5S388.3,378.6,388.3,375.7Zm6.7,0c0-2.1-1.2-3.6-2.9-3.6s-2.9,1.5-2.9,3.6,1.3,3.7,2.9,3.7S395,377.9,395,375.7Z" transform="translate(0 -1.3)"/><path class="cls-1" d="M401.9,368.1l-1-.3c-.9,0-1.3.7-1.3,1.9v1.8h1.9v.7h-1.9V380h-1v-7.8h-1.2v-.7h1.2v-1.8c0-1.7.8-2.6,2.2-2.6l1.3.2Z" transform="translate(0 -1.3)"/><path class="cls-1" d="M406,378.5l.6-.7a4.9,4.9,0,0,0,3.4,1.5c1.7,0,2.8-.9,2.8-2.2s-.9-1.9-2.1-2.4L409,374c-1.1-.5-2.4-1.2-2.4-3s1.5-2.9,3.5-2.9a4.6,4.6,0,0,1,3.3,1.4l-.6.6a3.7,3.7,0,0,0-2.7-1.1c-1.5,0-2.5.8-2.5,2s1.1,1.8,2,2.2l1.7.7c1.3.6,2.5,1.4,2.5,3.1s-1.5,3.2-3.8,3.2A5.3,5.3,0,0,1,406,378.5Z" transform="translate(0 -1.3)"/><path class="cls-1" d="M416.2,368.3h.9V380h-.9Z" transform="translate(0 -1.3)"/><path class="cls-1" d="M420.5,368.3h1.3l2.4,6.7.9,2.6h.1a25.8,25.8,0,0,0,.8-2.6l2.5-6.7h1.2V380h-.9v-7.4c0-1,.1-2.2.1-3.2h0L428,372l-2.5,6.7h-.8l-2.4-6.7-.9-2.6h-.1c0,1,.1,2.2.1,3.2V380h-.9Z" transform="translate(0 -1.3)"/><path class="cls-1" d="M435.9,375.7c0-2.8,1.8-4.5,3.9-4.5a3.3,3.3,0,0,1,2.5,1.1l-.5.6a2.8,2.8,0,0,0-2-.8c-1.7,0-3,1.5-3,3.6s1.2,3.7,3,3.7a3.2,3.2,0,0,0,2.2-.9l.5.6a4.4,4.4,0,0,1-2.7,1.1C437.6,380.2,435.9,378.6,435.9,375.7Z" transform="translate(0 -1.3)"/><path class="cls-1" d="M444,377.8c0-1.8,1.6-2.7,5.4-3.2,0-1.2-.3-2.5-1.9-2.5a4.8,4.8,0,0,0-2.7.9l-.5-.6a5.9,5.9,0,0,1,3.3-1.2c2,0,2.7,1.5,2.7,3.4V380h-.7v-1.1h-.1a4.8,4.8,0,0,1-3,1.3A2.3,2.3,0,0,1,444,377.8Zm5.4.3v-2.8c-3.4.4-4.5,1.2-4.5,2.5a1.5,1.5,0,0,0,1.7,1.6A4,4,0,0,0,449.4,378.1Z" transform="translate(0 -1.3)"/><path class="cls-1" d="M453.3,371.5h.8v1.3h0a4.3,4.3,0,0,1,2.9-1.6c1.8,0,2.6,1.1,2.6,3.3V380h-.9v-5.3c0-1.8-.6-2.6-1.9-2.6s-1.7.5-2.7,1.5V380h-.9Z" transform="translate(0 -1.3)"/><path class="cls-1" d="M467.2,379.1h0v.9h-.8V367.3h1v5.2a5.1,5.1,0,0,1,2.9-1.3c2.3,0,3.4,1.8,3.4,4.4s-1.7,4.6-3.7,4.6A4.2,4.2,0,0,1,467.2,379.1Zm5.3-3.5c0-2.1-.7-3.5-2.6-3.5a3.8,3.8,0,0,0-2.6,1.3v4.9a3.9,3.9,0,0,0,2.4,1.1C471.4,379.4,472.5,377.9,472.5,375.6Z" transform="translate(0 -1.3)"/><path class="cls-1" d="M475.3,375.7c0-2.7,1.8-4.5,3.7-4.5s3.3,1.5,3.3,4v.7h-6.1c.1,2.1,1.3,3.5,3.2,3.5a3.8,3.8,0,0,0,2.2-.7l.4.7a5.1,5.1,0,0,1-2.7.8C477.1,380.2,475.3,378.5,475.3,375.7Zm6.2-.6c0-2-1-3.1-2.4-3.1a3.1,3.1,0,0,0-2.9,3.1Z" transform="translate(0 -1.3)"/><path class="cls-1" d="M487.9,368.7a.6.6,0,0,1,.7-.7c.5,0,.8.2.8.7a.7.7,0,0,1-.8.8A.7.7,0,0,1,487.9,368.7Zm.3,2.8h.9V380h-.9Z" transform="translate(0 -1.3)"/><path class="cls-1" d="M492.3,371.5h.7v1.3h.1a3.9,3.9,0,0,1,2.9-1.6c1.8,0,2.6,1.1,2.6,3.3V380h-.9v-5.3c0-1.8-.6-2.6-1.9-2.6s-1.7.5-2.7,1.5V380h-.9Z" transform="translate(0 -1.3)"/><path class="cls-1" d="M500.7,379l.5-.6a3.9,3.9,0,0,0,2.7,1c1.3,0,2-.7,2-1.6s-1.1-1.5-2.1-1.8-2.7-1-2.7-2.5,1-2.3,2.8-2.3a4.2,4.2,0,0,1,2.5.9l-.5.7a3.6,3.6,0,0,0-2-.8c-1.3,0-1.9.7-1.9,1.5s1,1.3,2,1.7,2.8.9,2.8,2.6-1.1,2.4-2.9,2.4A4.8,4.8,0,0,1,500.7,379Z" transform="translate(0 -1.3)"/><path class="cls-1" d="M509.2,377.6v-5.4h-1.3v-.7h1.3V369h.8v2.5h2.5v.7h-2.5v5.4c0,1.1.3,1.8,1.4,1.8l1.1-.2.2.7-1.4.3C509.7,380.2,509.2,379.1,509.2,377.6Z" transform="translate(0 -1.3)"/><path class="cls-1" d="M514,377.8c0-1.8,1.7-2.7,5.5-3.2,0-1.2-.4-2.5-2-2.5a5.1,5.1,0,0,0-2.7.9l-.4-.6a5.8,5.8,0,0,1,3.2-1.2c2.1,0,2.8,1.5,2.8,3.4V380h-.8v-1.1h0a5.1,5.1,0,0,1-3,1.3A2.3,2.3,0,0,1,514,377.8Zm5.5.3v-2.8c-3.4.4-4.5,1.2-4.5,2.5a1.5,1.5,0,0,0,1.7,1.6A4.2,4.2,0,0,0,519.5,378.1Z" transform="translate(0 -1.3)"/><path class="cls-1" d="M523.4,378.7V367.3h.9v11.5c0,.4.2.6.4.6h.3v.7h-.6C523.7,380.2,523.4,379.7,523.4,378.7Z" transform="translate(0 -1.3)"/><path class="cls-1" d="M527.6,378.7V367.3h1v11.5c0,.4.1.6.4.6h.3v.7h-.6Q527.6,380.2,527.6,378.7Z" transform="translate(0 -1.3)"/><path class="cls-1" d="M531.2,375.7c0-2.7,1.8-4.5,3.8-4.5s3.3,1.5,3.3,4c0,.2-.1.5-.1.7h-6c0,2.1,1.2,3.5,3.1,3.5a4.5,4.5,0,0,0,2.3-.7l.3.7a5.1,5.1,0,0,1-2.7.8C533,380.2,531.2,378.5,531.2,375.7Zm6.2-.6c0-2-.9-3.1-2.4-3.1a3,3,0,0,0-2.8,3.1Z" transform="translate(0 -1.3)"/><path class="cls-1" d="M539.8,375.7c0-2.7,1.8-4.5,3.8-4.5a3.6,3.6,0,0,1,2.5,1.1v-5h.9V380h-.8v-1.1h0a3.9,3.9,0,0,1-2.7,1.3C541.2,380.2,539.8,378.6,539.8,375.7Zm6.3,2.3v-4.9a3.3,3.3,0,0,0-2.4-1c-1.6,0-2.9,1.5-2.9,3.6s1,3.7,2.7,3.7A3.8,3.8,0,0,0,546.1,378Z" transform="translate(0 -1.3)"/><path class="cls-1" d="M549.5,382.2a2.6,2.6,0,0,0,1.4-2.1h-.2a.8.8,0,1,1,0-1.6c.6,0,.9.5.9,1.3a3.2,3.2,0,0,1-1.9,3Z" transform="translate(0 -1.3)"/><path class="cls-1" d="M290.5,399c0-1.8,1.7-2.7,5.5-3.2,0-1.2-.4-2.5-2-2.5a5.1,5.1,0,0,0-2.7.9l-.4-.6a5.8,5.8,0,0,1,3.2-1.2c2.1,0,2.8,1.5,2.8,3.4v5.4h-.8v-1.1h0a5.1,5.1,0,0,1-3,1.3A2.3,2.3,0,0,1,290.5,399Zm5.5.3v-2.8c-3.4.4-4.5,1.2-4.5,2.5a1.5,1.5,0,0,0,1.7,1.6A4.2,4.2,0,0,0,296,399.3Z" transform="translate(0 -1.3)"/><path class="cls-1" d="M299.9,392.7h.7l.2,1.3h0a4.1,4.1,0,0,1,2.9-1.6c1.8,0,2.6,1.1,2.6,3.3v5.5h-.9v-5.3c0-1.8-.6-2.6-1.9-2.6s-1.7.5-2.7,1.5v6.4h-.9Z" transform="translate(0 -1.3)"/><path class="cls-1" d="M308.7,396.9c0-2.7,1.7-4.5,3.7-4.5a3.8,3.8,0,0,1,2.6,1.1v-5h.9v12.7h-.7v-1.1h-.1a3.9,3.9,0,0,1-2.7,1.3C310.1,401.4,308.7,399.8,308.7,396.9Zm6.2,2.3v-4.9a3.2,3.2,0,0,0-2.4-1c-1.6,0-2.8,1.5-2.8,3.6s.9,3.7,2.7,3.7A3.4,3.4,0,0,0,314.9,399.2Z" transform="translate(0 -1.3)"/><path class="cls-1" d="M329,397.9h-1.6v3.3h-.9v-3.3h-5.2v-.6l5.2-7.8h.9v7.6H329Zm-2.5-.8v-6.3h0l-1,1.7-3.1,4.6Z" transform="translate(0 -1.3)"/><path class="cls-1" d="M334,396.9c0-2.8,1.8-4.5,4-4.5a3.4,3.4,0,0,1,2.5,1.1l-.6.6a2.6,2.6,0,0,0-1.9-.8c-1.7,0-3,1.5-3,3.6s1.2,3.7,3,3.7a3.6,3.6,0,0,0,2.2-.9l.4.6a4.1,4.1,0,0,1-2.7,1.1C335.7,401.4,334,399.8,334,396.9Z" transform="translate(0 -1.3)"/><path class="cls-1" d="M342.1,399c0-1.8,1.7-2.7,5.4-3.2.1-1.2-.3-2.5-1.9-2.5a5.1,5.1,0,0,0-2.7.9l-.4-.6a5.3,5.3,0,0,1,3.2-1.2c2,0,2.8,1.5,2.8,3.4v5.4h-.8v-1.1h0a5.1,5.1,0,0,1-3,1.3A2.3,2.3,0,0,1,342.1,399Zm5.4.3v-2.8c-3.3.4-4.5,1.2-4.5,2.5s.8,1.6,1.8,1.6A4,4,0,0,0,347.5,399.3Z" transform="translate(0 -1.3)"/><path class="cls-1" d="M351.4,392.7h.8v1.5h.1a2.9,2.9,0,0,1,2.4-1.8l.8.2-.2.9a.8.8,0,0,0-.7-.2c-.8,0-1.7.6-2.3,2.2v5.7h-1Z" transform="translate(0 -1.3)"/><path class="cls-1" d="M357.2,392.7h.8v1.5h0a3.1,3.1,0,0,1,2.4-1.8l.9.2-.2.9a1.2,1.2,0,0,0-.8-.2c-.8,0-1.7.6-2.3,2.2v5.7h-.9Z" transform="translate(0 -1.3)"/><path class="cls-1" d="M362.6,389.9a.8.8,0,0,1,1.6,0,.8.8,0,1,1-1.6,0Zm.3,2.8h1v8.5h-1Z" transform="translate(0 -1.3)"/><path class="cls-1" d="M366.3,396.9c0-2.7,1.8-4.5,3.8-4.5s3.3,1.5,3.3,4a1.7,1.7,0,0,1-.1.7h-6c0,2.1,1.3,3.5,3.1,3.5a4.5,4.5,0,0,0,2.3-.7l.3.7a5.1,5.1,0,0,1-2.7.8C368.1,401.4,366.3,399.7,366.3,396.9Zm6.2-.6c0-2-.9-3.1-2.4-3.1s-2.6,1.2-2.8,3.1Z" transform="translate(0 -1.3)"/><path class="cls-1" d="M375.6,392.7h.8v1.5h.1a2.9,2.9,0,0,1,2.4-1.8l.8.2-.2.9a.8.8,0,0,0-.7-.2c-.8,0-1.7.6-2.3,2.2v5.7h-1Z" transform="translate(0 -1.3)"/><path class="cls-1" d="M384.9,392.7h.8V394h.1a3.9,3.9,0,0,1,2.9-1.6c1.7,0,2.6,1.1,2.6,3.3v5.5h-1v-5.3c0-1.8-.5-2.6-1.8-2.6s-1.7.5-2.7,1.5v6.4h-1Z" transform="translate(0 -1.3)"/><path class="cls-1" d="M393.7,396.9c0-2.7,1.8-4.5,3.8-4.5s3.3,1.5,3.3,4a1.7,1.7,0,0,1-.1.7h-6c0,2.1,1.3,3.5,3.1,3.5a4.5,4.5,0,0,0,2.3-.7l.3.7a5.1,5.1,0,0,1-2.7.8C395.5,401.4,393.7,399.7,393.7,396.9Zm6.2-.6c0-2-.9-3.1-2.4-3.1a3,3,0,0,0-2.8,3.1Z" transform="translate(0 -1.3)"/><path class="cls-1" d="M403.2,398.8v-5.4h-1.3v-.7h1.4v-2.5h.8v2.5h2.4v.7h-2.4v5.4c0,1.1.3,1.8,1.4,1.8l1-.2.3.7a4.4,4.4,0,0,1-1.5.3C403.8,401.4,403.2,400.3,403.2,398.8Z" transform="translate(0 -1.3)"/><path class="cls-1" d="M407.5,392.7h1L410,398c.2.9.4,1.6.5,2.4h.1l.6-2.4,1.5-5.3h1l1.6,5.3.6,2.4h.1c.1-.8.3-1.5.5-2.4l1.5-5.3h.9l-2.4,8.5h-1.2l-1.4-5.1c-.3-.9-.4-1.6-.7-2.5h0a18.2,18.2,0,0,1-.7,2.5l-1.4,5.1H410Z" transform="translate(0 -1.3)"/><path class="cls-1" d="M420.2,396.9c0-2.8,1.8-4.5,3.9-4.5s3.8,1.7,3.8,4.5-1.8,4.5-3.8,4.5S420.2,399.8,420.2,396.9Zm6.8,0c0-2.1-1.3-3.6-2.9-3.6s-2.9,1.5-2.9,3.6,1.2,3.7,2.9,3.7S427,399.1,427,396.9Z" transform="translate(0 -1.3)"/><path class="cls-1" d="M430.4,392.7h.8v1.5h0a3.2,3.2,0,0,1,2.5-1.8l.8.2-.2.9a1.1,1.1,0,0,0-.8-.2c-.7,0-1.6.6-2.2,2.2v5.7h-1Z" transform="translate(0 -1.3)"/><path class="cls-1" d="M436.2,388.5h.9v9.2h0l4.1-5h1.1l-2.8,3.3,3.2,5.2h-1l-2.8-4.5-1.8,2.2v2.3h-.9Z" transform="translate(0 -1.3)"/><path class="cls-1" d="M443.5,400.2l.5-.6a3.9,3.9,0,0,0,2.7,1c1.3,0,1.9-.7,1.9-1.6s-1.1-1.5-2.1-1.8-2.6-1-2.6-2.5,1-2.3,2.8-2.3a4.5,4.5,0,0,1,2.5.9l-.5.7a3.6,3.6,0,0,0-2.1-.8c-1.2,0-1.8.7-1.8,1.5s1,1.3,2,1.7,2.7.9,2.7,2.6-1,2.4-2.9,2.4A4.6,4.6,0,0,1,443.5,400.2Z" transform="translate(0 -1.3)"/><path class="cls-1" d="M454.6,396.9c0-2.8,1.8-4.5,3.9-4.5a3.3,3.3,0,0,1,2.5,1.1l-.5.6a2.6,2.6,0,0,0-1.9-.8c-1.7,0-3,1.5-3,3.6s1.2,3.7,2.9,3.7a3.6,3.6,0,0,0,2.3-.9l.4.6a4.1,4.1,0,0,1-2.7,1.1C456.3,401.4,454.6,399.8,454.6,396.9Z" transform="translate(0 -1.3)"/><path class="cls-1" d="M462.7,399c0-1.8,1.7-2.7,5.4-3.2.1-1.2-.3-2.5-1.9-2.5a5.1,5.1,0,0,0-2.7.9l-.4-.6a5.3,5.3,0,0,1,3.2-1.2c2,0,2.8,1.5,2.8,3.4v5.4h-.8v-1.1h-.1a4.6,4.6,0,0,1-2.9,1.3A2.3,2.3,0,0,1,462.7,399Zm5.4.3v-2.8c-3.3.4-4.5,1.2-4.5,2.5s.8,1.6,1.8,1.6A4,4,0,0,0,468.1,399.3Z" transform="translate(0 -1.3)"/><path class="cls-1" d="M472,392.7h.8V394h0a4.3,4.3,0,0,1,3-1.6c1.7,0,2.5,1.1,2.5,3.3v5.5h-.9v-5.3c0-1.8-.5-2.6-1.9-2.6s-1.6.5-2.6,1.5v6.4h-1Z" transform="translate(0 -1.3)"/><path class="cls-1" d="M486,400.3h-.1v.9h-.7V388.5h.9v5.2a4.5,4.5,0,0,1,2.8-1.3c2.3,0,3.5,1.8,3.5,4.4s-1.8,4.6-3.8,4.6A4,4,0,0,1,486,400.3Zm5.3-3.5c0-2.1-.7-3.5-2.6-3.5a4,4,0,0,0-2.7,1.3v4.9a3.9,3.9,0,0,0,2.4,1.1C490.1,400.6,491.3,399.1,491.3,396.8Z" transform="translate(0 -1.3)"/><path class="cls-1" d="M494,396.9c0-2.7,1.8-4.5,3.8-4.5s3.3,1.5,3.3,4c0,.2-.1.5-.1.7h-6c0,2.1,1.2,3.5,3.1,3.5a4.5,4.5,0,0,0,2.3-.7l.3.7a5.1,5.1,0,0,1-2.7.8C495.8,401.4,494,399.7,494,396.9Zm6.2-.6c0-2-.9-3.1-2.4-3.1a3,3,0,0,0-2.8,3.1Z" transform="translate(0 -1.3)"/><path class="cls-1" d="M506.8,398.1v-5.4h.9V398c0,1.8.5,2.6,1.8,2.6s1.7-.5,2.7-1.7v-6.2h.9v8.5h-.8v-1.4h-.1a3.9,3.9,0,0,1-2.9,1.6C507.6,401.4,506.8,400.3,506.8,398.1Z" transform="translate(0 -1.3)"/><path class="cls-1" d="M515.3,400.2l.5-.6a3.9,3.9,0,0,0,2.7,1c1.3,0,1.9-.7,1.9-1.6s-1.1-1.5-2-1.8-2.7-1-2.7-2.5,1-2.3,2.8-2.3a4.5,4.5,0,0,1,2.5.9l-.5.7a3.6,3.6,0,0,0-2.1-.8c-1.2,0-1.8.7-1.8,1.5s1,1.3,2,1.7,2.7.9,2.7,2.6-1,2.4-2.9,2.4A4.6,4.6,0,0,1,515.3,400.2Z" transform="translate(0 -1.3)"/><path class="cls-1" d="M522.8,396.9c0-2.7,1.9-4.5,3.8-4.5s3.3,1.5,3.3,4a1.7,1.7,0,0,1-.1.7h-6c0,2.1,1.3,3.5,3.1,3.5a4.5,4.5,0,0,0,2.3-.7l.3.7a5.1,5.1,0,0,1-2.7.8C524.6,401.4,522.8,399.7,522.8,396.9Zm6.2-.6c0-2-.9-3.1-2.4-3.1s-2.6,1.2-2.8,3.1Z" transform="translate(0 -1.3)"/><path class="cls-1" d="M531.5,396.9c0-2.7,1.7-4.5,3.7-4.5a3.8,3.8,0,0,1,2.6,1.1v-5h.9v12.7h-.7v-1.1h-.1a3.9,3.9,0,0,1-2.7,1.3C532.8,401.4,531.5,399.8,531.5,396.9Zm6.2,2.3v-4.9a3.3,3.3,0,0,0-2.4-1c-1.6,0-2.9,1.5-2.9,3.6s1,3.7,2.8,3.7A3.4,3.4,0,0,0,537.7,399.2Z" transform="translate(0 -1.3)"/><path class="cls-1" d="M92.5,319.4a2.7,2.7,0,0,0,2.8,2.7H97V316H92.5Z" transform="translate(0 -1.3)"/><path class="cls-1" d="M97,299.4H95.3a2.8,2.8,0,0,0-2.8,2.8v3.4H97Z" transform="translate(0 -1.3)"/><rect class="cls-1" x="104.4" y="298.2" width="5.1" height="6.16"/><rect class="cls-1" x="98.2" y="298.2" width="5.1" height="6.16"/><rect class="cls-1" x="98.2" y="314.7" width="5.1" height="6.16"/><path class="cls-1" d="M112.4,299.4h-1.7v6.2h4.5v-3.4A2.9,2.9,0,0,0,112.4,299.4Z" transform="translate(0 -1.3)"/><path class="cls-1" d="M119.6,291h-7.2v.4a2.7,2.7,0,1,1-5.3,0,.8.8,0,0,1,.1-.4h-6.7v.4a2.6,2.6,0,0,1-2.6,2.7,2.7,2.7,0,0,1-2.6-2.7V291H88a4,4,0,0,0-3.9,4v38.2l10.5,10.5h25a4,4,0,0,0,4-3.9V295A4,4,0,0,0,119.6,291Zm-3.2,14.6v13.8a4,4,0,0,1-4,3.9H95.3a4,4,0,0,1-4-3.9V302.2a4,4,0,0,1,4-3.9h17.1a4,4,0,0,1,4,3.9Z" transform="translate(0 -1.3)"/><rect class="cls-1" x="104.4" y="314.7" width="5.1" height="6.16"/><path class="cls-1" d="M92.5,314.8h18.2v7.3h1.7a2.8,2.8,0,0,0,2.8-2.7V306.8H92.5Z" transform="translate(0 -1.3)"/><path class="cls-1" d="M51.4,291.5a2.1,2.1,0,0,1,2.1,2.1v44.8a2.1,2.1,0,0,1-2.1,2.1H27.2L17.7,331V293.6a2.1,2.1,0,0,1,2.1-2.1h5.6a4.5,4.5,0,0,0,8.5,0h3.4a4.5,4.5,0,0,0,8.5,0h5.6m0-1.9H44.1c0,.2.1.3.1.5a2.7,2.7,0,0,1-5.3,0v-.5H32.3v.5a2.7,2.7,0,0,1-5.3,0c0-.2.1-.3.1-.5H19.8a4,4,0,0,0-4,4v38.2l10.6,10.5h25a4,4,0,0,0,4-3.9V293.6a4,4,0,0,0-4-4Z" transform="translate(0 -1.3)"/><path class="cls-1" d="M44.2,296.9H27a4,4,0,0,0-3.9,3.9V318a4,4,0,0,0,3.9,3.9H44.2a4,4,0,0,0,3.9-3.9V300.8A4,4,0,0,0,44.2,296.9ZM41.3,298v6.2H36.2V298ZM35,298v6.2H29.9V298Zm-10.8,2.8A2.9,2.9,0,0,1,27,298h1.8v6.2H24.2ZM27,320.7a2.8,2.8,0,0,1-2.8-2.7v-3.4h4.6v6.1Zm2.9,0v-6.1H35v6.1Zm6.3,0v-6.1h5.1v6.1ZM47,318a2.8,2.8,0,0,1-2.8,2.7H42.4v-7.3H24.2v-8H47Zm-4.6-13.8V298h1.8a2.9,2.9,0,0,1,2.8,2.8v3.4Z" transform="translate(0 -1.3)"/><path class="cls-1" d="M44.3,378.2v21.5H32.9l-4.1-4.1V378.2H44.3m1.1-1H27.7V396l4.7,4.7h13V377.2Z" transform="translate(0 -1.3)"/><path class="cls-1" d="M58.4,373v1.7H51.3V381h7.1v1.1H51.3v6.3h7.1v1.1H51.3v6.3h7.1v1.1H51.3v6.3h7.1v1.7H14.7v-1.7h7.1v-6.3H14.7v-1.1h7.1v-6.3H14.7v-1.1h7.1v-6.3H14.7V381h7.1v-6.3H14.7V373H58.4m.5-1.7H14.2a1.2,1.2,0,0,0-1.1,1.2v2.7a1.2,1.2,0,0,0,1.1,1.2h5.9v2.9H14.2a1.1,1.1,0,0,0-1.1,1.2v2.1a1.2,1.2,0,0,0,1.1,1.2h5.9v2.9H14.2a1.1,1.1,0,0,0-1.1,1.2V390a1.2,1.2,0,0,0,1.1,1.2h5.9v2.9H14.2a1.1,1.1,0,0,0-1.1,1.2v2.1a1.2,1.2,0,0,0,1.1,1.2h5.9v2.9H14.2a1.1,1.1,0,0,0-1.1,1.2v2.7a1.2,1.2,0,0,0,1.1,1.2H58.9a1.2,1.2,0,0,0,1.1-1.2v-2.7a1.1,1.1,0,0,0-1.1-1.2H53v-2.9h5.9a1.2,1.2,0,0,0,1.1-1.2v-2.1a1.1,1.1,0,0,0-1.1-1.2H53v-2.9h5.9A1.2,1.2,0,0,0,60,390v-2.1a1.1,1.1,0,0,0-1.1-1.2H53v-2.9h5.9a1.2,1.2,0,0,0,1.1-1.2v-2.1a1.1,1.1,0,0,0-1.1-1.2H53v-2.9h5.9a1.2,1.2,0,0,0,1.1-1.2v-2.7a1.2,1.2,0,0,0-1.1-1.2Z" transform="translate(0 -1.3)"/><path class="cls-1" d="M125.3,376.4a1.2,1.2,0,0,0,1.1-1.2v-2.7a1.2,1.2,0,0,0-1.1-1.2H80.6a1.2,1.2,0,0,0-1.1,1.2v2.7a1.2,1.2,0,0,0,1.1,1.2h5.9v2.9H80.6a1.1,1.1,0,0,0-1.1,1.2v2.1a1.2,1.2,0,0,0,1.1,1.2h5.9v2.9H80.6a1.1,1.1,0,0,0-1.1,1.2V390a1.2,1.2,0,0,0,1.1,1.2h5.9v2.9H80.6a1.1,1.1,0,0,0-1.1,1.2v2.1a1.2,1.2,0,0,0,1.1,1.2h5.9v2.9H80.6a1.1,1.1,0,0,0-1.1,1.2v2.7a1.2,1.2,0,0,0,1.1,1.2h44.7a1.2,1.2,0,0,0,1.1-1.2v-2.7a1.1,1.1,0,0,0-1.1-1.2h-5.9v-2.9h5.9a1.2,1.2,0,0,0,1.1-1.2v-2.1a1.1,1.1,0,0,0-1.1-1.2h-5.9v-2.9h5.9a1.2,1.2,0,0,0,1.1-1.2v-2.1a1.1,1.1,0,0,0-1.1-1.2h-5.9v-2.9h5.9a1.2,1.2,0,0,0,1.1-1.2v-2.1a1.1,1.1,0,0,0-1.1-1.2h-5.9v-2.9Zm-13.5,24.3h-13L94.1,396V377.2h17.7Z" transform="translate(0 -1.3)"/><path class="cls-1" d="M24.4,358.6l.7-.9A4.6,4.6,0,0,0,28,359c1.3,0,2.1-.7,2.1-1.7s-.7-1.4-1.7-1.8l-1.4-.7a2.8,2.8,0,0,1-2.1-2.6,2.9,2.9,0,0,1,3.2-2.8,4.4,4.4,0,0,1,3,1.3l-.7.8a3.4,3.4,0,0,0-2.3-.9c-1.2,0-1.9.6-1.9,1.5s.9,1.4,1.7,1.7l1.4.6c1.2.5,2.2,1.2,2.2,2.8s-1.4,2.9-3.5,2.9A5,5,0,0,1,24.4,358.6Z" transform="translate(0 -1.3)"/><path class="cls-1" d="M33.5,349.6h1.3v10.3H33.5Z" transform="translate(0 -1.3)"/><path class="cls-1" d="M37.6,349.6h1.5l2,5.5a18.7,18.7,0,0,1,.7,2.2h.1a18.7,18.7,0,0,0,.7-2.2l2-5.5h1.5v10.3H44.9v-5.7c0-.9.1-2.1.2-3H45l-.8,2.3-1.9,5.4h-.9l-1.9-5.4-.8-2.3h-.1c.1.9.2,2.1.2,3v5.7H37.6Z" transform="translate(0 -1.3)"/><path class="cls-1" d="M92.4,358.6l.8-.9A4.3,4.3,0,0,0,96,359c1.4,0,2.2-.7,2.2-1.7s-.7-1.4-1.7-1.8l-1.5-.7a2.9,2.9,0,0,1-2.1-2.6c0-1.6,1.4-2.8,3.3-2.8a4.4,4.4,0,0,1,3,1.3l-.7.8a3.6,3.6,0,0,0-2.3-.9c-1.2,0-2,.6-2,1.5s.9,1.4,1.7,1.7l1.5.6a2.8,2.8,0,0,1,2.1,2.8c0,1.6-1.3,2.9-3.5,2.9A5.1,5.1,0,0,1,92.4,358.6Z" transform="translate(0 -1.3)"/><path class="cls-1" d="M101.5,349.6h1.3v10.3h-1.3Z" transform="translate(0 -1.3)"/><path class="cls-1" d="M105.6,349.6h1.6l2,5.5.7,2.2h.1a18.7,18.7,0,0,1,.7-2.2l1.9-5.5h1.6v10.3H113v-5.7c0-.9.1-2.1.2-3h-.1l-.8,2.3-2,5.4h-.8l-2-5.4-.8-2.3h0c0,.9.1,2.1.1,3v5.7h-1.2Z" transform="translate(0 -1.3)"/><path class="cls-1" d="M20.6,420.4c0-2.5,1.6-4,3.4-4s3,1.4,3,3.6v.7H21.8a2.5,2.5,0,0,0,2.5,2.6,3.4,3.4,0,0,0,2-.6l.4.9a4.9,4.9,0,0,1-2.5.8C22.2,424.4,20.6,422.9,20.6,420.4Zm5.3-.6c0-1.6-.7-2.4-1.9-2.4s-2,.9-2.2,2.4Z" transform="translate(0 -1.3)"/><path class="cls-1" d="M28.3,422.8l.7-.8a4.5,4.5,0,0,0,2.9,1.2c1.3,0,2.1-.6,2.1-1.7s-.7-1.3-1.7-1.8l-1.5-.6a3.1,3.1,0,0,1-2.1-2.7c0-1.5,1.4-2.7,3.3-2.7a4,4,0,0,1,3,1.3l-.7.8a3.2,3.2,0,0,0-2.3-.9c-1.2,0-1.9.5-1.9,1.5s.9,1.3,1.7,1.7l1.4.6a2.8,2.8,0,0,1,2.1,2.7c0,1.7-1.3,3-3.4,3A4.5,4.5,0,0,1,28.3,422.8Z" transform="translate(0 -1.3)"/><path class="cls-1" d="M37.4,413.9h1.3v10.3H37.4Z" transform="translate(0 -1.3)"/><path class="cls-1" d="M41.5,413.9H43l2,5.5c.2.7.5,1.4.7,2.1h.1c.2-.7.5-1.4.7-2.1l2-5.5H50v10.3H48.8v-5.7c0-.9.1-2.1.2-3h-.1l-.8,2.3-1.9,5.3h-.9l-2-5.3-.8-2.3h0c0,.9.1,2.1.1,3v5.7H41.5Z" transform="translate(0 -1.3)"/><path class="cls-1" d="M88.6,420.4c0-2.5,1.7-4,3.4-4s3.1,1.4,3.1,3.6c0,.2-.1.5-.1.7H89.9a2.5,2.5,0,0,0,2.5,2.6,3.1,3.1,0,0,0,1.9-.6l.5.9a4.9,4.9,0,0,1-2.5.8A3.7,3.7,0,0,1,88.6,420.4Zm5.3-.6c0-1.6-.7-2.4-1.8-2.4a2.3,2.3,0,0,0-2.2,2.4Z" transform="translate(0 -1.3)"/><path class="cls-1" d="M96.3,422.8l.8-.8a4.2,4.2,0,0,0,2.8,1.2c1.4,0,2.2-.6,2.2-1.7s-.8-1.3-1.7-1.8l-1.5-.6a2.8,2.8,0,0,1,1.1-5.4,4.2,4.2,0,0,1,3.1,1.3l-.7.8a3.4,3.4,0,0,0-2.4-.9c-1.1,0-1.9.5-1.9,1.5s.9,1.3,1.7,1.7l1.5.6a2.8,2.8,0,0,1,2.1,2.7c0,1.7-1.3,3-3.5,3A4.8,4.8,0,0,1,96.3,422.8Z" transform="translate(0 -1.3)"/><path class="cls-1" d="M105.4,413.9h1.3v10.3h-1.3Z" transform="translate(0 -1.3)"/><path class="cls-1" d="M109.5,413.9h1.6l2,5.5a17.2,17.2,0,0,0,.7,2.1h.1a17.2,17.2,0,0,1,.7-2.1l1.9-5.5h1.6v10.3h-1.2v-5.7c0-.9.1-2.1.1-3h0l-.8,2.3-2,5.3h-.8l-2-5.3-.8-2.3h-.1c.1.9.2,2.1.2,3v5.7h-1.2Z" transform="translate(0 -1.3)"/><rect class="cls-1" x="320.8" y="30.9" width="68.7" height="68.72" rx="12"/><path class="cls-2" d="M382.5,60.7l-10.4-.4.4-1.5a2.9,2.9,0,0,0-2-3.5l-35.2-9.4h-.7a2.9,2.9,0,0,0-2.8,2.1L328,62.1a2.8,2.8,0,0,0,2,3.5l10.4,2.8a7.6,7.6,0,0,0,5.4,8.5h0V88.7h2V77.1a7.4,7.4,0,0,0,6.9-4.8l10.5,2.8h.7a2.9,2.9,0,0,0,2.8-2.2l.5-1.8,9.2,4.8ZM366.8,72.5a1,1,0,0,1-.9.7h-.2l-35.2-9.4c-.3-.1-.5-.3-.5-.5s-.2-.3-.1-.7l3.8-14.2a1,1,0,0,1,.9-.7h.2L370,57.2a.8.8,0,0,1,.6,1.1Zm2.9-3.2,1.9-7.1,8.4.3-2.8,10.7Z" transform="translate(0 -1.3)"/><rect class="cls-1" x="213.9" y="30.9" width="68.7" height="68.72" rx="12"/><path class="cls-2" d="M267.3,44.1H229.2a3.4,3.4,0,0,0-3.4,3.4V89h44.9V47.5A3.4,3.4,0,0,0,267.3,44.1Zm1.8,41.5a1.8,1.8,0,0,1-1.8,1.8h-7.4a12.4,12.4,0,0,0-6.7-6.4,5.1,5.1,0,0,0-1.4-4.6h-.1l-3.5-14.9-3.5,14.9h0a5.1,5.1,0,0,0-1.4,4.6,12.4,12.4,0,0,0-6.7,6.4h-7.4a1.8,1.8,0,0,1-1.8-1.8V60a30.8,30.8,0,0,1,4.4-3.7l3.4,5.8a.5.5,0,0,0,.4.3h.3a.6.6,0,0,0,.2-.7l-3.4-5.8a17.2,17.2,0,0,1,3.8-2,14.5,14.5,0,0,1,2.9-1.1l1.1,4.1a.5.5,0,0,0,.5.3h.1a.5.5,0,0,0,.4-.6l-1.1-4.1a26,26,0,0,1,7.4-1.1v7.2a.5.5,0,0,0,.4.5.5.5,0,0,0,.5-.5V51.3a26,26,0,0,1,7.4,1.1L255,56.5a.5.5,0,0,0,.4.6h.1a.5.5,0,0,0,.5-.3l1.1-4.1a14.5,14.5,0,0,1,2.9,1.1,17.2,17.2,0,0,1,3.8,2l-3.4,5.8a.6.6,0,0,0,.2.7h.3a.5.5,0,0,0,.4-.3l3.4-5.8a37.5,37.5,0,0,1,4.4,3.7Zm-23.3-8a3.4,3.4,0,0,1,2.4-1.1,3.4,3.4,0,0,1,2.5,1.1,3.1,3.1,0,0,1,1,2.4,3.5,3.5,0,0,1-1,2.5,3.7,3.7,0,0,1-2.5,1,3.7,3.7,0,0,1-2.4-1A3.4,3.4,0,0,1,245.8,77.6Zm23.3-19.8a30.9,30.9,0,0,0-41.7,0V47.5a1.8,1.8,0,0,1,1.8-1.8h38.1a1.8,1.8,0,0,1,1.8,1.8Z" transform="translate(0 -1.3)"/><rect class="cls-1" y="30.9" width="68.7" height="68.72" rx="12"/><path class="cls-2" d="M37.4,50.7V76.2H18.6V50.7H37.4m1-.9H17.6V77.2H38.4V49.8Z" transform="translate(0 -1.3)"/><polygon class="cls-2" points="44.5 67.5 44.5 69.2 42.5 69.2 42.5 74.2 44.5 74.2 44.5 75.9 50.9 75.9 50.9 67.5 44.5 67.5"/><polygon class="cls-2" points="44.5 57.3 44.5 59 42.5 59 42.5 64 44.5 64 44.5 65.7 50.9 65.7 50.9 57.3 44.5 57.3"/><path class="cls-2" d="M53.4,44.2H15.3A3.3,3.3,0,0,0,12,47.5V80.9h0v8H56.7V47.5A3.3,3.3,0,0,0,53.4,44.2ZM16,87.1a2.2,2.2,0,1,1,2.2-2.2A2.2,2.2,0,0,1,16,87.1Zm9.2,0a2.2,2.2,0,1,1,0-4.4,2.2,2.2,0,0,1,0,4.4Zm9.2,0a2.2,2.2,0,1,1,0-4.4,2.2,2.2,0,0,1,0,4.4Zm9.1,0a2.2,2.2,0,0,1,0-4.4,2.2,2.2,0,1,1,0,4.4Zm9.2,0a2.2,2.2,0,0,1,0-4.4,2.2,2.2,0,1,1,0,4.4Zm2.5-6.2H48.7v6.4H47.6V80.9H39.5v6.4H38.4V80.9H30.3v6.4H29.2V80.9h-8v6.4H20V80.9H13.6V47.5a1.7,1.7,0,0,1,1.7-1.8H53.4a1.8,1.8,0,0,1,1.8,1.8Z" transform="translate(0 -1.3)"/><circle class="cls-1" cx="326.9" cy="211.4" r="3"/><path class="cls-1" d="M325.9,219.4a1,1,0,1,1,2,0v28.3a1,1,0,0,1-2,0" transform="translate(0 -1.3)"/><path class="cls-1" d="M334.7,226.7a1,1,0,0,1-.9-.5,1,1,0,0,1,.4-1.3,14.3,14.3,0,0,0,0-24.5,1.1,1.1,0,0,1-.4-1.4,1.1,1.1,0,0,1,1.4-.3,16.3,16.3,0,0,1,0,27.9Z" transform="translate(0 -1.3)"/><path class="cls-1" d="M319.1,226.7h-.5a16.3,16.3,0,0,1,0-27.9,1.1,1.1,0,0,1,1.4.3,1.1,1.1,0,0,1-.4,1.4,14.3,14.3,0,0,0,0,24.5,1,1,0,0,1,.4,1.3A1,1,0,0,1,319.1,226.7Z" transform="translate(0 -1.3)"/><path class="cls-1" d="M338.6,233.3a1.2,1.2,0,0,1-.9-.5,1,1,0,0,1,.4-1.4,21.8,21.8,0,0,0,0-37.5,1,1,0,0,1-.4-1.4,1.1,1.1,0,0,1,1.4-.4,23.8,23.8,0,0,1,0,41Z" transform="translate(0 -1.3)"/><path class="cls-1" d="M315.2,233.3l-.5-.2a23.8,23.8,0,0,1,0-41,1,1,0,1,1,1,1.8,21.8,21.8,0,0,0,0,37.5,1.1,1.1,0,0,1,.4,1.4A1.2,1.2,0,0,1,315.2,233.3Z" transform="translate(0 -1.3)"/><polyline class="cls-3" points="141.7 388.4 273.4 388.4 273.4 356.7"/><polygon class="cls-1" points="280.4 358.8 273.4 346.6 266.4 358.8 280.4 358.8"/><polyline class="cls-4" points="179.7 256.9 179.7 179.5 34.4 179.5 34.4 99.6"/><polyline class="cls-4" points="229.6 256.9 229.6 179.5 355.2 179.5 355.2 99.6"/><polyline class="cls-4" points="249.9 99.6 249.9 165.3 212.6 165.3 212.6 256.9"/><polyline class="cls-4" points="137.9 99.6 137.9 165.3 196.7 165.3 196.7 256.9"/><rect class="cls-1" x="105.9" y="30.9" width="68.7" height="68.72" rx="12"/><path class="cls-2" d="M149.2,84.6h-1.1V84a7.8,7.8,0,0,0-15.6,0v.6h-1.1V84a8.9,8.9,0,0,1,17.8,0Z" transform="translate(0 -1.3)"/><path class="cls-2" d="M141.4,63l-11.7-7.1,7,11.7a3.4,3.4,0,0,0,1,1.6h0a3.5,3.5,0,0,0,2.6,1.1,3.8,3.8,0,0,0,3.8-3.8A3.7,3.7,0,0,0,141.4,63Z" transform="translate(0 -1.3)"/><path class="cls-2" d="M141.4,85.1c.2-.1.3-.4.4-.6l2.8-4.8-4.7,2.9-.7.4h0a1.2,1.2,0,0,0-.4,1,1.6,1.6,0,0,0,1.5,1.6,1.6,1.6,0,0,0,1.1-.5Z" transform="translate(0 -1.3)"/><path class="cls-2" d="M140.3,41.5a25.1,25.1,0,1,0,25,25A25,25,0,0,0,140.3,41.5Zm16.8,41.1-4.6-4.7a.6.6,0,0,0-.8.8l4.6,4.7a23.2,23.2,0,0,1-32,0l4.6-4.7a.6.6,0,0,0-.8-.8l-4.6,4.7a22.9,22.9,0,0,1-6.4-15.5h6.5a.6.6,0,0,0,.6-.6.6.6,0,0,0-.6-.5h-6.5a22.9,22.9,0,0,1,6.4-15.5l4.6,4.6.4.2.4-.2a.5.5,0,0,0,0-.7l-4.6-4.7a23.2,23.2,0,0,1,15.5-6.4v6.6a.5.5,0,0,0,.5.5.6.6,0,0,0,.6-.5V43.3a23.1,23.1,0,0,1,15.4,6.4l-4.6,4.7a.5.5,0,0,0,0,.7l.4.2.4-.2,4.6-4.6A22.9,22.9,0,0,1,163.5,66H157a.6.6,0,0,0-.6.5.6.6,0,0,0,.6.6h6.5A22.9,22.9,0,0,1,157.1,82.6Z" transform="translate(0 -1.3)"/><path class="cls-5" d="M232.4,119.1l-.6,1.4h5v.8h-1.7a6.8,6.8,0,0,1-1.3,2.7,16.7,16.7,0,0,1,2.7,1.4l-.6.8a17.7,17.7,0,0,0-2.8-1.5,12.3,12.3,0,0,1-4.8,1.5l-.4-.9a10.1,10.1,0,0,0,4.1-1.1l-1.8-.7-.2.4-.9-.3a16.1,16.1,0,0,0,1.2-2.3h-2.1v-.7l-1.2.3v4c0,.6-.1.9-.5,1.1a3.9,3.9,0,0,1-1.8.2l-.3-1h1.4c.1,0,.2-.1.2-.3v-3.6l-1.9.5-.2-1,2.1-.6v-3h-1.9v-1H226v-2.8h1v2.8h1.4v1H227v2.7l1.3-.4.2,1h2.2l.6-1.4h-3.2v-.9h2.5a9.8,9.8,0,0,0-.6-2.3h-1.3v-.9H232v-1.5h1v1.5h3.4v.9h-1.2l-.9,2.3h2.5v.9Zm-1,2.2-.8,1.5,2.3.8a6.2,6.2,0,0,0,1.2-2.3Zm-.5-5.5a7.1,7.1,0,0,1,.6,2.3h1.8a15.5,15.5,0,0,0,.8-2.3Z" transform="translate(0 -1.3)"/><path class="cls-5" d="M238.1,125.7a8.6,8.6,0,0,0,1.9-2.8l1,.3a9.3,9.3,0,0,1-2,3Zm11-3.6h-9.3v-4.4h4v-4.3h1.1v1.5h5.2v1h-5.2v1.8h4.2Zm-1-3.5h-7.3v2.5h7.3Zm-4.9,4.6c.2.9.3,2.1.4,2.7l-1.1.2a14.9,14.9,0,0,0-.3-2.8Zm2.8-.1a14,14,0,0,1,1.1,2.7l-1,.2c-.2-.6-.6-1.8-1-2.7Zm2.8-.2a9.3,9.3,0,0,1,1.9,2.8l-1,.4a13.5,13.5,0,0,0-1.8-2.9Z" transform="translate(0 -1.3)"/><path class="cls-5" d="M256.3,113.7a25.9,25.9,0,0,1-1.4,2.9v9.6h-1v-8.1l-1.5,1.9-.6-1a16.2,16.2,0,0,0,3.5-5.5Zm8.6,2.3v.9h-9.1V116Zm-8.1,5.8h7.1v4.4h-1v-.7h-5.1v.7h-1Zm7-3H257v-.9h6.8Zm-6.8,1.1h6.8v.8H257Zm6.5-5h-6.4v-.8h6.4Zm-5.7,7.7v2.1h5.1v-2.1Z" transform="translate(0 -1.3)"/><path class="cls-5" d="M270.3,120.1a5.6,5.6,0,0,1-.4,1.2H277v.5c-.4,2.5-.7,3.6-1.2,4a1.6,1.6,0,0,1-1.2.4h-2.4a1.7,1.7,0,0,0-.3-1h2.4c.3,0,.5,0,.6-.2s.7-1.1,1-2.8h-6.2a6.9,6.9,0,0,0-.4,1l-1.1-.2c.3-.8.8-2,1.1-3h-3v-.9h12.5v.9Zm6.6-2h-8.8V114h8.8Zm-1-3.2h-6.8v2.2h6.8Z" transform="translate(0 -1.3)"/><path class="cls-5" d="M235.9,138a12.9,12.9,0,0,1,2.1-7.1l.8.3A13.3,13.3,0,0,0,237,138a12.9,12.9,0,0,0,1.8,6.7l-.8.4A13.2,13.2,0,0,1,235.9,138Z" transform="translate(0 -1.3)"/><path class="cls-5" d="M240.8,132.1h2.6c3.1,0,4.8,1.8,4.8,5.1s-1.7,5.1-4.8,5.1h-2.6Zm2.5,9.2c2.4,0,3.6-1.5,3.6-4.1s-1.2-4.1-3.6-4.1h-1.2v8.2Z" transform="translate(0 -1.3)"/><path class="cls-5" d="M250.4,132.1h1.3v10.2h-1.3Z" transform="translate(0 -1.3)"/><path class="cls-5" d="M253.9,137.2c0-3.3,1.8-5.3,4.4-5.3s4.4,2,4.4,5.3-1.8,5.3-4.4,5.3S253.9,140.5,253.9,137.2Zm7.5,0c0-2.6-1.3-4.2-3.1-4.2s-3,1.6-3,4.2,1.2,4.2,3,4.2S261.4,139.7,261.4,137.2Z" transform="translate(0 -1.3)"/><path class="cls-5" d="M264.1,144.7a12.9,12.9,0,0,0,1.8-6.7,13.3,13.3,0,0,0-1.8-6.8l.8-.3A12.9,12.9,0,0,1,267,138a13.2,13.2,0,0,1-2.1,7.1Z" transform="translate(0 -1.3)"/><path class="cls-5" d="M123.3,134.7l-2.5-4.3H119v4.3h-1.3V124.5h3.2c2.1,0,3.6.7,3.6,2.9a2.7,2.7,0,0,1-2.4,2.8l2.7,4.5Zm-4.3-5.4h1.7c1.6,0,2.5-.6,2.5-1.9s-.9-1.9-2.5-1.9H119Z" transform="translate(0 -1.3)"/><path class="cls-5" d="M125.8,133.4l.8-.9a3.9,3.9,0,0,0,2.8,1.3c1.4,0,2.2-.7,2.2-1.7s-.8-1.4-1.7-1.8l-1.5-.7a2.8,2.8,0,0,1-2.1-2.6c0-1.6,1.4-2.7,3.2-2.7a4.6,4.6,0,0,1,3.1,1.2l-.7.9a3.3,3.3,0,0,0-2.4-1c-1.1,0-1.9.6-1.9,1.5s.9,1.4,1.7,1.7l1.5.7a2.8,2.8,0,0,1,2.1,2.7c0,1.6-1.3,2.9-3.5,2.9A5.1,5.1,0,0,1,125.8,133.4Z" transform="translate(0 -1.3)"/><path class="cls-5" d="M134.2,130.3h3.5v1h-3.5Z" transform="translate(0 -1.3)"/><path class="cls-5" d="M139,134c3.2-2.8,4.7-4.9,4.7-6.6a1.8,1.8,0,0,0-1.9-2.1,2.7,2.7,0,0,0-2.1,1.2l-.8-.7a4.2,4.2,0,0,1,3.1-1.5,2.8,2.8,0,0,1,2.9,3c0,2.1-1.6,4.1-4,6.4h4.5v1.1H139Z" transform="translate(0 -1.3)"/><path class="cls-5" d="M146.5,133.5l.7-.8a3.5,3.5,0,0,0,2.5,1.2,1.9,1.9,0,0,0,2.1-2c0-1.2-.8-2-3.2-2v-1c2.2,0,2.9-.8,2.9-2a1.6,1.6,0,0,0-1.8-1.6,3,3,0,0,0-2.1,1l-.7-.8a4.3,4.3,0,0,1,2.9-1.2c1.7,0,3,.9,3,2.5a2.6,2.6,0,0,1-1.9,2.5h0a2.6,2.6,0,0,1,2.2,2.6c0,1.8-1.4,2.9-3.3,2.9A4.4,4.4,0,0,1,146.5,133.5Z" transform="translate(0 -1.3)"/><path class="cls-5" d="M154.5,134c3.3-2.8,4.7-4.9,4.7-6.6a1.8,1.8,0,0,0-1.9-2.1,2.9,2.9,0,0,0-2.1,1.2l-.7-.7a3.8,3.8,0,0,1,3-1.5,2.8,2.8,0,0,1,3,3c0,2.1-1.6,4.1-4,6.4H161v1.1h-6.5Z" transform="translate(0 -1.3)"/><path class="cls-5" d="M24,130.5v-6h1.3v6c0,2.5,1.1,3.3,2.4,3.3s2.5-.8,2.5-3.3v-6h1.2v6c0,3.3-1.6,4.4-3.7,4.4S24,133.8,24,130.5Z" transform="translate(0 -1.3)"/><path class="cls-5" d="M33.4,133.4l.8-.9a3.9,3.9,0,0,0,2.8,1.3c1.4,0,2.2-.7,2.2-1.7s-.7-1.4-1.7-1.8l-1.5-.7a2.9,2.9,0,0,1-2.1-2.6c0-1.6,1.4-2.7,3.3-2.7a4.3,4.3,0,0,1,3,1.2l-.7.9a3.3,3.3,0,0,0-2.3-1c-1.2,0-2,.6-2,1.5s.9,1.4,1.7,1.7l1.5.7a2.8,2.8,0,0,1,2.1,2.7c0,1.6-1.3,2.9-3.5,2.9A5.1,5.1,0,0,1,33.4,133.4Z" transform="translate(0 -1.3)"/><path class="cls-5" d="M42.5,124.5h3.1c2.1,0,3.5.7,3.5,2.5a2.2,2.2,0,0,1-1.5,2.2h0a2.3,2.3,0,0,1,2.1,2.4c0,2-1.6,3-3.9,3H42.5Zm2.9,4.3c1.7,0,2.4-.6,2.4-1.7s-.8-1.6-2.4-1.6H43.8v3.3Zm.2,4.9c1.8,0,2.8-.6,2.8-2s-1-1.9-2.8-1.9H43.8v3.9Z" transform="translate(0 -1.3)"/><path class="cls-5" d="M327.9,114.9h5.9V116h-4.6v3.2h3.9v1.1h-3.9V124H334v1.1h-6.1Z" transform="translate(0 -1.3)"/><path class="cls-5" d="M336.2,122.8v-4.2h-1.1v-1h1.2v-2.1h1.1v2.1h2.1v1.1h-2.1v4.2c0,.9.3,1.5,1.2,1.5l.9-.2.2.9a3.2,3.2,0,0,1-1.4.3C336.8,125.3,336.2,124.3,336.2,122.8Z" transform="translate(0 -1.3)"/><path class="cls-5" d="M341.3,114h1.3v4.6a3.6,3.6,0,0,1,2.5-1.3c1.6,0,2.4,1.1,2.4,3v4.8h-1.3v-4.6c0-1.4-.4-2-1.4-2a2.6,2.6,0,0,0-2.1,1.1v5.5h-1.3Z" transform="translate(0 -1.3)"/><path class="cls-5" d="M349.2,121.3a3.7,3.7,0,0,1,3.4-4c2,0,3.1,1.4,3.1,3.6,0,.3-.1.5-.1.7h-5.1c.1,1.7,1.1,2.7,2.5,2.7a2.9,2.9,0,0,0,1.9-.6l.5.8a4.1,4.1,0,0,1-2.5.8A3.7,3.7,0,0,1,349.2,121.3Zm5.4-.6c0-1.5-.7-2.3-1.9-2.3a2.2,2.2,0,0,0-2.2,2.3Z" transform="translate(0 -1.3)"/><path class="cls-5" d="M357.5,117.5h1.1v1.4h.1a2.5,2.5,0,0,1,2.1-1.6l.8.2-.2,1.1h-.8c-.6,0-1.4.4-1.9,1.7v4.9h-1.3Z" transform="translate(0 -1.3)"/><path class="cls-5" d="M363,117.5h1v1.1h.1a3.6,3.6,0,0,1,2.5-1.3c1.6,0,2.4,1.1,2.4,3v4.8h-1.3v-4.6c0-1.4-.5-2-1.5-2a2.6,2.6,0,0,0-2,1.1v5.5H363Z" transform="translate(0 -1.3)"/><path class="cls-5" d="M371,121.3c0-2.4,1.6-4,3.4-4s3,1.4,3,3.6v.7h-5.2a2.5,2.5,0,0,0,2.6,2.7,3.3,3.3,0,0,0,1.9-.6l.4.8a4.1,4.1,0,0,1-2.5.8C372.6,125.3,371,123.8,371,121.3Zm5.3-.6c0-1.5-.7-2.3-1.9-2.3s-2,.8-2.2,2.3Z" transform="translate(0 -1.3)"/><path class="cls-5" d="M379.5,122.8v-4.2h-1.1v-1h1.2v-2.1h1.1v2.1h2v1.1h-2v4.2c0,.9.3,1.5,1.2,1.5l.8-.2.3.9-1.4.3C380.1,125.3,379.5,124.3,379.5,122.8Z" transform="translate(0 -1.3)"/><path class="cls-5" d="M338.7,138a12.8,12.8,0,0,1,2-7.1l.8.3a13.3,13.3,0,0,0-1.8,6.8,12.9,12.9,0,0,0,1.8,6.7l-.8.4A13.1,13.1,0,0,1,338.7,138Z" transform="translate(0 -1.3)"/><path class="cls-5" d="M343.5,132.1h2.9c2.3,0,3.9.7,3.9,3s-1.6,3.2-3.8,3.2h-1.7v4h-1.3Zm2.8,5.1q2.7,0,2.7-2.1c0-1.5-.9-2-2.7-2h-1.5v4.1Z" transform="translate(0 -1.3)"/><path class="cls-5" d="M351.7,138.5c0-2.5,1.6-4,3.5-4s3.5,1.5,3.5,4-1.6,4-3.5,4S351.7,141.1,351.7,138.5Zm5.7,0c0-1.7-.9-2.9-2.2-2.9s-2.2,1.2-2.2,2.9.9,3,2.2,3S357.4,140.3,357.4,138.5Z" transform="translate(0 -1.3)"/><path class="cls-5" d="M360.8,132.1h6v1.1h-4.7v3.2H366v1.1h-3.9v3.7h4.8v1.1h-6.1Z" transform="translate(0 -1.3)"/><path class="cls-5" d="M368.3,144.7a12.9,12.9,0,0,0,1.8-6.7,13.3,13.3,0,0,0-1.8-6.8l.8-.3a12.8,12.8,0,0,1,2,7.1,13.1,13.1,0,0,1-2,7.1Z" transform="translate(0 -1.3)"/><path class="cls-1" d="M327.9,114.9h5.9V116h-4.6v3.2h3.9v1.1h-3.9V124H334v1.1h-6.1Z" transform="translate(0 -1.3)"/><path class="cls-1" d="M336.2,122.8v-4.2h-1.1v-1h1.2v-2.1h1.1v2.1h2.1v1.1h-2.1v4.2c0,.9.3,1.5,1.2,1.5l.9-.2.2.9a3.2,3.2,0,0,1-1.4.3C336.8,125.3,336.2,124.3,336.2,122.8Z" transform="translate(0 -1.3)"/><path class="cls-1" d="M341.3,114h1.3v4.6a3.6,3.6,0,0,1,2.5-1.3c1.6,0,2.4,1.1,2.4,3v4.8h-1.3v-4.6c0-1.4-.4-2-1.4-2a2.6,2.6,0,0,0-2.1,1.1v5.5h-1.3Z" transform="translate(0 -1.3)"/><path class="cls-1" d="M349.2,121.3a3.7,3.7,0,0,1,3.4-4c2,0,3.1,1.4,3.1,3.6,0,.3-.1.5-.1.7h-5.1c.1,1.7,1.1,2.7,2.5,2.7a2.9,2.9,0,0,0,1.9-.6l.5.8a4.1,4.1,0,0,1-2.5.8A3.7,3.7,0,0,1,349.2,121.3Zm5.4-.6c0-1.5-.7-2.3-1.9-2.3a2.2,2.2,0,0,0-2.2,2.3Z" transform="translate(0 -1.3)"/><path class="cls-1" d="M357.5,117.5h1.1v1.4h.1a2.5,2.5,0,0,1,2.1-1.6l.8.2-.2,1.1h-.8c-.6,0-1.4.4-1.9,1.7v4.9h-1.3Z" transform="translate(0 -1.3)"/><path class="cls-1" d="M363,117.5h1v1.1h.1a3.6,3.6,0,0,1,2.5-1.3c1.6,0,2.4,1.1,2.4,3v4.8h-1.3v-4.6c0-1.4-.5-2-1.5-2a2.6,2.6,0,0,0-2,1.1v5.5H363Z" transform="translate(0 -1.3)"/><path class="cls-1" d="M371,121.3c0-2.4,1.6-4,3.4-4s3,1.4,3,3.6v.7h-5.2a2.5,2.5,0,0,0,2.6,2.7,3.3,3.3,0,0,0,1.9-.6l.4.8a4.1,4.1,0,0,1-2.5.8C372.6,125.3,371,123.8,371,121.3Zm5.3-.6c0-1.5-.7-2.3-1.9-2.3s-2,.8-2.2,2.3Z" transform="translate(0 -1.3)"/><path class="cls-1" d="M379.5,122.8v-4.2h-1.1v-1h1.2v-2.1h1.1v2.1h2v1.1h-2v4.2c0,.9.3,1.5,1.2,1.5l.8-.2.3.9-1.4.3C380.1,125.3,379.5,124.3,379.5,122.8Z" transform="translate(0 -1.3)"/><path class="cls-1" d="M338.7,138a12.8,12.8,0,0,1,2-7.1l.8.3a13.3,13.3,0,0,0-1.8,6.8,12.9,12.9,0,0,0,1.8,6.7l-.8.4A13.1,13.1,0,0,1,338.7,138Z" transform="translate(0 -1.3)"/><path class="cls-1" d="M343.5,132.1h2.9c2.3,0,3.9.7,3.9,3s-1.6,3.2-3.8,3.2h-1.7v4h-1.3Zm2.8,5.1q2.7,0,2.7-2.1c0-1.5-.9-2-2.7-2h-1.5v4.1Z" transform="translate(0 -1.3)"/><path class="cls-1" d="M351.7,138.5c0-2.5,1.6-4,3.5-4s3.5,1.5,3.5,4-1.6,4-3.5,4S351.7,141.1,351.7,138.5Zm5.7,0c0-1.7-.9-2.9-2.2-2.9s-2.2,1.2-2.2,2.9.9,3,2.2,3S357.4,140.3,357.4,138.5Z" transform="translate(0 -1.3)"/><path class="cls-1" d="M360.8,132.1h6v1.1h-4.7v3.2H366v1.1h-3.9v3.7h4.8v1.1h-6.1Z" transform="translate(0 -1.3)"/><path class="cls-1" d="M368.3,144.7a12.9,12.9,0,0,0,1.8-6.7,13.3,13.3,0,0,0-1.8-6.8l.8-.3a12.8,12.8,0,0,1,2,7.1,13.1,13.1,0,0,1-2,7.1Z" transform="translate(0 -1.3)"/><path class="cls-1" d="M204,120c0-3.3,1.9-5.3,4.5-5.3a4.1,4.1,0,0,1,2.9,1.2l-.7.9a3,3,0,0,0-2.2-1c-1.9,0-3.2,1.6-3.2,4.2s1.2,4.2,3.2,4.2a3.3,3.3,0,0,0,2.4-1.2l.7.8a3.7,3.7,0,0,1-3.1,1.5C205.9,125.3,204,123.3,204,120Z" transform="translate(0 -1.3)"/><path class="cls-1" d="M212.8,121.3a3.6,3.6,0,1,1,7.1,0c0,2.6-1.7,4-3.6,4S212.8,123.9,212.8,121.3Zm5.8,0c0-1.7-.9-2.9-2.3-2.9s-2.2,1.2-2.2,2.9.9,2.9,2.2,2.9S218.6,123.1,218.6,121.3Z" transform="translate(0 -1.3)"/><path class="cls-1" d="M221.9,117.5h1v1.1h.1a3.6,3.6,0,0,1,2.5-1.3c1.6,0,2.4,1.1,2.4,3v4.8h-1.3v-4.6c0-1.4-.5-2-1.5-2a2.9,2.9,0,0,0-2.1,1.1v5.5h-1.2Z" transform="translate(0 -1.3)"/><path class="cls-1" d="M230.7,122.8v-4.2h-1.2v-1h1.2l.2-2.1h1v2.1H234v1.1h-2.1v4.2c0,.9.3,1.5,1.2,1.5l.9-.2.2.9a3.2,3.2,0,0,1-1.4.3C231.2,125.3,230.7,124.3,230.7,122.8Z" transform="translate(0 -1.3)"/><path class="cls-1" d="M235.2,123.2c0-1.7,1.5-2.5,4.7-2.9,0-1-.3-1.9-1.6-1.9a4.2,4.2,0,0,0-2.2.8l-.5-.9a5.9,5.9,0,0,1,2.9-1c1.9,0,2.7,1.3,2.7,3.2v4.6h-1.1v-.9h0a4.1,4.1,0,0,1-2.5,1.1A2.1,2.1,0,0,1,235.2,123.2Zm4.7.1v-2.1c-2.6.3-3.4.9-3.4,1.9a1.2,1.2,0,0,0,1.3,1.2A3.2,3.2,0,0,0,239.9,123.3Z" transform="translate(0 -1.3)"/><path class="cls-1" d="M243,121.3a3.8,3.8,0,0,1,3.7-4,3.4,3.4,0,0,1,2.2.9l-.6.9a2.4,2.4,0,0,0-1.6-.7c-1.3,0-2.3,1.2-2.3,2.9s.9,2.9,2.3,2.9a2.9,2.9,0,0,0,1.8-.7l.6.8a3.5,3.5,0,0,1-2.5,1C244.6,125.3,243,123.9,243,121.3Z" transform="translate(0 -1.3)"/><path class="cls-1" d="M251,122.8v-4.2h-1.2v-1H251l.2-2.1h1v2.1h2.1v1.1h-2.1v4.2c0,.9.3,1.5,1.2,1.5l.9-.2.2.9a3.2,3.2,0,0,1-1.4.3C251.5,125.3,251,124.3,251,122.8Z" transform="translate(0 -1.3)"/><path class="cls-1" d="M258.3,124.3l.6-.9a3.3,3.3,0,0,0,2.3.9c1,0,1.5-.5,1.5-1.2s-.9-1.1-1.8-1.4-2.2-.9-2.2-2.2.9-2.2,2.6-2.2a4.2,4.2,0,0,1,2.4.9l-.7.8a2.6,2.6,0,0,0-1.7-.7c-1,0-1.4.5-1.4,1.1s.8,1,1.7,1.3,2.3.9,2.3,2.4-1,2.2-2.8,2.2A4.5,4.5,0,0,1,258.3,124.3Z" transform="translate(0 -1.3)"/><path class="cls-1" d="M265.5,115.1a.7.7,0,0,1,.8-.8.8.8,0,0,1,.9.8.9.9,0,0,1-.9.9A.8.8,0,0,1,265.5,115.1Zm.2,2.4H267v7.6h-1.3Z" transform="translate(0 -1.3)"/><path class="cls-1" d="M269,126.6a2,2,0,0,1,1.1-1.7h0a1.3,1.3,0,0,1-.7-1.2,2.2,2.2,0,0,1,.8-1.5h0a2.6,2.6,0,0,1-.9-2.1,2.7,2.7,0,0,1,2.8-2.7l1.1.2h2.6v1h-1.5a2.6,2.6,0,0,1,.6,1.6,2.6,2.6,0,0,1-2.8,2.6l-1.1-.2a.9.9,0,0,0-.5.9c0,.5.3.8,1.3.8h1.5c1.8,0,2.6.6,2.6,1.8s-1.4,2.6-3.8,2.6S269,127.9,269,126.6Zm5.7-.4c0-.7-.5-.9-1.5-.9h-1.4l-.9-.2a1.6,1.6,0,0,0-.8,1.3c0,.8.8,1.4,2.2,1.4S274.7,127,274.7,126.2Zm-1-6.2a1.6,1.6,0,1,0-3.2,0c0,1.2.7,1.9,1.6,1.9S273.7,121.2,273.7,120Z" transform="translate(0 -1.3)"/><path class="cls-1" d="M277.4,117.5h1.1v1.1h0a3.8,3.8,0,0,1,2.6-1.3c1.6,0,2.3,1.1,2.3,3v4.8h-1.3v-4.6c0-1.4-.4-2-1.4-2a2.7,2.7,0,0,0-2.1,1.1v5.5h-1.3Z" transform="translate(0 -1.3)"/><path class="cls-1" d="M285.5,123.2c0-1.7,1.4-2.5,4.7-2.9,0-1-.3-1.9-1.6-1.9a4.2,4.2,0,0,0-2.3.8l-.5-.9a6.3,6.3,0,0,1,3-1c1.9,0,2.7,1.3,2.7,3.2v4.6h-1.1v-.9h0a4.3,4.3,0,0,1-2.6,1.1A2.1,2.1,0,0,1,285.5,123.2Zm4.7.1v-2.1c-2.6.3-3.4.9-3.4,1.9s.5,1.2,1.3,1.2A3.7,3.7,0,0,0,290.2,123.3Z" transform="translate(0 -1.3)"/><path class="cls-1" d="M293.9,123.6V114h1.3v9.7c0,.4.1.5.3.5h.3l.2,1h-.8C294.3,125.3,293.9,124.7,293.9,123.6Z" transform="translate(0 -1.3)"/><path class="cls-1" d="M235.9,138a12.9,12.9,0,0,1,2.1-7.1l.8.3A13.3,13.3,0,0,0,237,138a12.9,12.9,0,0,0,1.8,6.7l-.8.4A13.2,13.2,0,0,1,235.9,138Z" transform="translate(0 -1.3)"/><path class="cls-1" d="M240.8,132.1h2.6c3.1,0,4.8,1.8,4.8,5.1s-1.7,5.1-4.8,5.1h-2.6Zm2.5,9.2c2.4,0,3.6-1.5,3.6-4.1s-1.2-4.1-3.6-4.1h-1.2v8.2Z" transform="translate(0 -1.3)"/><path class="cls-1" d="M250.4,132.1h1.3v10.2h-1.3Z" transform="translate(0 -1.3)"/><path class="cls-1" d="M253.9,137.2c0-3.3,1.8-5.3,4.4-5.3s4.4,2,4.4,5.3-1.8,5.3-4.4,5.3S253.9,140.5,253.9,137.2Zm7.5,0c0-2.6-1.3-4.2-3.1-4.2s-3,1.6-3,4.2,1.2,4.2,3,4.2S261.4,139.7,261.4,137.2Z" transform="translate(0 -1.3)"/><path class="cls-1" d="M264.1,144.7a12.9,12.9,0,0,0,1.8-6.7,13.3,13.3,0,0,0-1.8-6.8l.8-.3A12.9,12.9,0,0,1,267,138a13.2,13.2,0,0,1-2.1,7.1Z" transform="translate(0 -1.3)"/><path class="cls-1" d="M123.3,134.7l-2.5-4.3H119v4.3h-1.3V124.5h3.2c2.1,0,3.6.7,3.6,2.9a2.7,2.7,0,0,1-2.4,2.8l2.7,4.5Zm-4.3-5.4h1.7c1.6,0,2.5-.6,2.5-1.9s-.9-1.9-2.5-1.9H119Z" transform="translate(0 -1.3)"/><path class="cls-1" d="M125.8,133.4l.8-.9a3.9,3.9,0,0,0,2.8,1.3c1.4,0,2.2-.7,2.2-1.7s-.8-1.4-1.7-1.8l-1.5-.7a2.8,2.8,0,0,1-2.1-2.6c0-1.6,1.4-2.7,3.2-2.7a4.6,4.6,0,0,1,3.1,1.2l-.7.9a3.3,3.3,0,0,0-2.4-1c-1.1,0-1.9.6-1.9,1.5s.9,1.4,1.7,1.7l1.5.7a2.8,2.8,0,0,1,2.1,2.7c0,1.6-1.3,2.9-3.5,2.9A5.1,5.1,0,0,1,125.8,133.4Z" transform="translate(0 -1.3)"/><path class="cls-1" d="M134.2,130.3h3.5v1h-3.5Z" transform="translate(0 -1.3)"/><path class="cls-1" d="M139,134c3.2-2.8,4.7-4.9,4.7-6.6a1.8,1.8,0,0,0-1.9-2.1,2.7,2.7,0,0,0-2.1,1.2l-.8-.7a4.2,4.2,0,0,1,3.1-1.5,2.8,2.8,0,0,1,2.9,3c0,2.1-1.6,4.1-4,6.4h4.5v1.1H139Z" transform="translate(0 -1.3)"/><path class="cls-1" d="M146.5,133.5l.7-.8a3.5,3.5,0,0,0,2.5,1.2,1.9,1.9,0,0,0,2.1-2c0-1.2-.8-2-3.2-2v-1c2.2,0,2.9-.8,2.9-2a1.6,1.6,0,0,0-1.8-1.6,3,3,0,0,0-2.1,1l-.7-.8a4.3,4.3,0,0,1,2.9-1.2c1.7,0,3,.9,3,2.5a2.6,2.6,0,0,1-1.9,2.5h0a2.6,2.6,0,0,1,2.2,2.6c0,1.8-1.4,2.9-3.3,2.9A4.4,4.4,0,0,1,146.5,133.5Z" transform="translate(0 -1.3)"/><path class="cls-1" d="M154.5,134c3.3-2.8,4.7-4.9,4.7-6.6a1.8,1.8,0,0,0-1.9-2.1,2.9,2.9,0,0,0-2.1,1.2l-.7-.7a3.8,3.8,0,0,1,3-1.5,2.8,2.8,0,0,1,3,3c0,2.1-1.6,4.1-4,6.4H161v1.1h-6.5Z" transform="translate(0 -1.3)"/><path class="cls-1" d="M24,130.5v-6h1.3v6c0,2.5,1.1,3.3,2.4,3.3s2.5-.8,2.5-3.3v-6h1.2v6c0,3.3-1.6,4.4-3.7,4.4S24,133.8,24,130.5Z" transform="translate(0 -1.3)"/><path class="cls-1" d="M33.4,133.4l.8-.9a3.9,3.9,0,0,0,2.8,1.3c1.4,0,2.2-.7,2.2-1.7s-.7-1.4-1.7-1.8l-1.5-.7a2.9,2.9,0,0,1-2.1-2.6c0-1.6,1.4-2.7,3.3-2.7a4.3,4.3,0,0,1,3,1.2l-.7.9a3.3,3.3,0,0,0-2.3-1c-1.2,0-2,.6-2,1.5s.9,1.4,1.7,1.7l1.5.7a2.8,2.8,0,0,1,2.1,2.7c0,1.6-1.3,2.9-3.5,2.9A5.1,5.1,0,0,1,33.4,133.4Z" transform="translate(0 -1.3)"/><path class="cls-1" d="M42.5,124.5h3.1c2.1,0,3.5.7,3.5,2.5a2.2,2.2,0,0,1-1.5,2.2h0a2.3,2.3,0,0,1,2.1,2.4c0,2-1.6,3-3.9,3H42.5Zm2.9,4.3c1.7,0,2.4-.6,2.4-1.7s-.8-1.6-2.4-1.6H43.8v3.3Zm.2,4.9c1.8,0,2.8-.6,2.8-2s-1-1.9-2.8-1.9H43.8v3.9Z" transform="translate(0 -1.3)"/><path class="cls-4" d="M352.6,240.3c7.9,3.8-.1,20.1,7.7,23.9s15.8-12.5,23.6-8.7-.1,20.1,7.7,23.9" transform="translate(0 -1.3)"/><line class="cls-3" x1="561.7" y1="290.2" x2="561.7" y2="290.2"/><line class="cls-6" x1="561.7" y1="284.9" x2="561.7" y2="255.9"/><line class="cls-3" x1="561.7" y1="253.3" x2="561.7" y2="253.3"/><polygon class="cls-1" points="569.2 255.5 561.7 242.5 554.2 255.5 569.2 255.5"/><path class="cls-7" d="M570,309.2a18.3,18.3,0,0,0,0-32.6" transform="translate(0 -1.3)"/><path class="cls-7" d="M567.1,282.4a11.8,11.8,0,0,1,0,21" transform="translate(0 -1.3)"/><path class="cls-7" d="M556.2,303.4a11.9,11.9,0,0,1-6.3-10.5,11.8,11.8,0,0,1,6.3-10.4" transform="translate(0 -1.3)"/><path class="cls-7" d="M553.2,276.7a18.3,18.3,0,0,0,0,32.4" transform="translate(0 -1.3)"/><polyline class="cls-7" points="553.6 333.2 561.9 297.6 570.1 333.2"/><line class="cls-7" x1="557.3" y1="319.7" x2="566.9" y2="319.7"/><line class="cls-7" x1="555.8" y1="326.1" x2="568.2" y2="326.1"/><line class="cls-3" x1="516.6" y1="290.2" x2="516.6" y2="290.2"/><line class="cls-6" x1="516.6" y1="284.9" x2="516.6" y2="255.9"/><line class="cls-3" x1="516.6" y1="253.3" x2="516.6" y2="253.3"/><polygon class="cls-1" points="524.1 255.5 516.6 242.5 509.1 255.5 524.1 255.5"/><path class="cls-7" d="M524.9,309.2a18.3,18.3,0,0,0,0-32.6" transform="translate(0 -1.3)"/><path class="cls-7" d="M522,282.4a11.8,11.8,0,0,1,0,21" transform="translate(0 -1.3)"/><path class="cls-7" d="M511.1,303.4a11.9,11.9,0,0,1-6.3-10.5,11.8,11.8,0,0,1,6.3-10.4" transform="translate(0 -1.3)"/><path class="cls-7" d="M508.1,276.7a18.4,18.4,0,0,0,0,32.4" transform="translate(0 -1.3)"/><polyline class="cls-7" points="508.5 333.2 516.8 297.6 525 333.2"/><line class="cls-7" x1="512.3" y1="319.7" x2="521.8" y2="319.7"/><line class="cls-7" x1="510.8" y1="326.1" x2="523.2" y2="326.1"/><line class="cls-3" x1="471.6" y1="290.2" x2="471.6" y2="290.2"/><line class="cls-6" x1="471.6" y1="284.9" x2="471.6" y2="255.9"/><line class="cls-3" x1="471.6" y1="253.3" x2="471.6" y2="253.3"/><polygon class="cls-1" points="479 255.5 471.6 242.5 464.1 255.5 479 255.5"/><path class="cls-7" d="M479.9,309.2a18.4,18.4,0,0,0,0-32.6" transform="translate(0 -1.3)"/><path class="cls-7" d="M476.9,282.4a11.7,11.7,0,0,1,0,21" transform="translate(0 -1.3)"/><path class="cls-7" d="M466.1,303.4a11.7,11.7,0,0,1-6.3-10.5,11.6,11.6,0,0,1,6.3-10.4" transform="translate(0 -1.3)"/><path class="cls-7" d="M463.1,276.7a18.3,18.3,0,0,0,0,32.4" transform="translate(0 -1.3)"/><polyline class="cls-7" points="463.5 333.2 471.7 297.6 480 333.2"/><line class="cls-7" x1="467.2" y1="319.7" x2="476.8" y2="319.7"/><line class="cls-7" x1="465.7" y1="326.1" x2="478.1" y2="326.1"/><line class="cls-3" x1="426.5" y1="290.2" x2="426.5" y2="290.2"/><line class="cls-6" x1="426.5" y1="284.9" x2="426.5" y2="255.9"/><line class="cls-3" x1="426.5" y1="253.3" x2="426.5" y2="253.3"/><polygon class="cls-1" points="434 255.5 426.5 242.5 419 255.5 434 255.5"/><path class="cls-7" d="M434.8,309.2a18.4,18.4,0,0,0,0-32.6" transform="translate(0 -1.3)"/><path class="cls-7" d="M431.8,282.4a11.7,11.7,0,0,1,0,21" transform="translate(0 -1.3)"/><path class="cls-7" d="M421,303.4a11.9,11.9,0,0,1-6.3-10.5,11.8,11.8,0,0,1,6.3-10.4" transform="translate(0 -1.3)"/><path class="cls-7" d="M418,276.7a18.3,18.3,0,0,0,0,32.4" transform="translate(0 -1.3)"/><polyline class="cls-7" points="418.4 333.2 426.7 297.6 434.9 333.2"/><line class="cls-7" x1="422.1" y1="319.7" x2="431.7" y2="319.7"/><line class="cls-7" x1="420.6" y1="326.1" x2="433" y2="326.1"/></g></g></svg>