<svg xmlns="http://www.w3.org/2000/svg" viewBox="0 0 692.8 368.8"><defs><style>.cls-1{fill:#10069f;}.cls-2{fill:#fff;}.cls-3,.cls-4,.cls-5,.cls-6{fill:none;stroke:#10069f;stroke-linecap:round;}.cls-3,.cls-5,.cls-6{stroke-linejoin:round;}.cls-3,.cls-4,.cls-5{stroke-width:3px;}.cls-4{stroke-miterlimit:10;}.cls-5{stroke-dasharray:0 5.27;}.cls-6{stroke-width:1.88px;}</style></defs><title>system-img01</title><g id="レイヤー_2" data-name="レイヤー 2"><g id="レイヤー_2-2" data-name="レイヤー 2"><path class="cls-1" d="M600.8,7a47.9,47.9,0,0,1,47.4,39.8l.9,5.4,5.5.4a33.6,33.6,0,0,1-2.5,67.2H534.9A33.6,33.6,0,0,1,519,56.5l3.9-2.1-.2-4.4V48.9a23.8,23.8,0,0,1,23.7-23.8,23.3,23.3,0,0,1,9,1.8l4.8,2,3.3-4.1A48,48,0,0,1,600.8,7m0-7a55,55,0,0,0-42.7,20.4,32.5,32.5,0,0,0-11.7-2.3,30.7,30.7,0,0,0-30.7,30.8v1.4a40.6,40.6,0,0,0,19.2,76.5H652.1a40.7,40.7,0,0,0,3-81.2A55.1,55.1,0,0,0,600.8,0Z" transform="translate(0)"/><path class="cls-1" d="M559.9,48.2a4.8,4.8,0,0,0-3.6-2,8.9,8.9,0,0,0-3.2.5c-.6.3-.5.7-.4,1.1a1,1,0,0,0,.7.6,11.2,11.2,0,0,1,2.9-.3c2.3.5,2.3,3.2,2.3,3.2s-4,0-5.3.6-2.8,5.9.3,7a4.9,4.9,0,0,0,5-1.1c0,.8-.1,1.1.5,1.1h1.5V51.3a4.9,4.9,0,0,0-.7-3.1m-4.2,9.3a2.2,2.2,0,0,1-2.2-1.5,1.9,1.9,0,0,1,.4-2c.6-.7,1.2-.8,4.6-1a5.2,5.2,0,0,1-.4,3.2,2.7,2.7,0,0,1-2.4,1.3" transform="translate(0)"/><path class="cls-1" d="M581.2,50.2a5,5,0,0,0-1.9-3.1,5.2,5.2,0,0,0-2.8-.7,4.2,4.2,0,0,0-2.6.7c-.3.1-.6.5-.9.7l-.9-.7a4.5,4.5,0,0,0-2.7-.7,4.8,4.8,0,0,0-2.7.7,4.3,4.3,0,0,0-1.9,3.1v7.9c0,.8.5.8.7.8h1.4V51.4c0-1.5.3-3.1,2.5-3.1s2.7,1,2.6,3.1v6.7c0,.6.5.7,1,.7s.9-.1.9-.7V51.4c0-2.1.9-3.1,2.6-3.1s2.6,1.6,2.6,3.1v7.4h1.4c.2,0,.7,0,.7-.8Z" transform="translate(0)"/><path class="cls-1" d="M623,50.2a5,5,0,0,0-1.9-3.1,5.5,5.5,0,0,0-2.8-.7,4,4,0,0,0-2.6.7c-.3.1-.6.5-.9.7l-.9-.7a4.5,4.5,0,0,0-2.7-.7,4.8,4.8,0,0,0-2.7.7,4.3,4.3,0,0,0-1.9,3.1v7.9c0,.8.5.8.7.8h1.4V51.4c0-1.5.3-3.1,2.5-3.1s2.7,1,2.6,3.1v6.7c0,.6.5.7,1,.7s.9-.1.9-.7V51.4c0-2.1.9-3.1,2.6-3.1s2.6,1.6,2.6,3.1v7.4h1.4c.1,0,.7,0,.7-.8Z" transform="translate(0)"/><path class="cls-1" d="M594.5,48.5a5.2,5.2,0,0,0-1.9-1.7,4.9,4.9,0,0,0-2.4-.5,4.8,4.8,0,0,0-2.3.5,6.1,6.1,0,0,0-1.9,1.7,5.3,5.3,0,0,0-.6,2.4v7.3c0,.5.2.7.6.7h1.5V51.4a3.7,3.7,0,0,1,.8-2.4,2.6,2.6,0,0,1,1.9-.8,2.7,2.7,0,0,1,2,.8,3.2,3.2,0,0,1,.8,2.4v7.4h1.5a.6.6,0,0,0,.7-.7V50.9a4.8,4.8,0,0,0-.7-2.4" transform="translate(0)"/><path class="cls-1" d="M600.8,43.3a1.5,1.5,0,0,1-1.4-1,1.6,1.6,0,0,1,1.9-2,1.5,1.5,0,0,1,1.1,1.6,1.6,1.6,0,0,1-1.6,1.4" transform="translate(0)"/><path class="cls-1" d="M601.9,58.2V46.7h-2.1V58.2c0,.4,0,.6.4.8h1.4c.3-.2.3-.4.3-.8" transform="translate(0)"/><path class="cls-1" d="M634.4,46.5a7.9,7.9,0,0,0-2.1-.3,8.6,8.6,0,0,0-2.1.3c-1.5.6-3.3,2.1-3.3,6.3s1.8,5.7,3.3,6.3a8.6,8.6,0,0,0,2.1.3,7.9,7.9,0,0,0,2.1-.3c1.5-.6,3.3-2.1,3.3-6.3s-1.8-5.7-3.3-6.3m1.1,7.3c-.1,2.1-.8,3.2-2.1,3.5l-1.1.2-1-.2c-1.4-.3-2.1-1.4-2.2-3.5a6.7,6.7,0,0,1,0-2c.1-2.1.8-3.1,2.2-3.5h2.1c1.3.4,2,1.4,2.1,3.5a6.7,6.7,0,0,1,0,2" transform="translate(0)"/><path class="cls-1" d="M570.8,71.7c0-4.2,2.7-6.7,5.9-6.7a5,5,0,0,1,3.7,1.7l-1.3,1.6a3.6,3.6,0,0,0-2.4-1.1c-1.9,0-3.3,1.7-3.3,4.4s1.3,4.4,3.3,4.4a3.3,3.3,0,0,0,2.6-1.3l1.3,1.6a5.1,5.1,0,0,1-4,1.9C573.4,78.2,570.8,75.9,570.8,71.7Z" transform="translate(0)"/><path class="cls-1" d="M582.5,75.3v-11H585V75.4c0,.5.2.7.5.7h.3l.3,1.9-1.3.2C583.1,78.2,582.5,77,582.5,75.3Z" transform="translate(0)"/><path class="cls-1" d="M587.3,73.2c0-3.2,2.2-5.1,4.6-5.1a5.1,5.1,0,0,1,0,10.1A4.7,4.7,0,0,1,587.3,73.2Zm6.6,0c0-1.8-.7-3-2-3s-2.1,1.2-2.1,3,.8,2.9,2.1,2.9S593.9,75,593.9,73.2Z" transform="translate(0)"/><path class="cls-1" d="M598.5,74.4v-6H601V74c0,1.5.4,2,1.3,2s1.3-.3,2-1.2V68.4h2.5v9.5h-2.1l-.2-1.3h0a4,4,0,0,1-3.1,1.6C599.3,78.2,598.5,76.7,598.5,74.4Z" transform="translate(0)"/><path class="cls-1" d="M608.9,73.2c0-3.2,2-5.1,4-5.1a2.9,2.9,0,0,1,2.4,1.1V64.3h2.6V77.9h-2.1l-.2-.9h0a4.5,4.5,0,0,1-2.7,1.2C610.4,78.2,608.9,76.3,608.9,73.2Zm6.3,1.9V70.9a2.3,2.3,0,0,0-1.7-.7c-1.1,0-2,1-2,2.9s.7,3,2,3A2.1,2.1,0,0,0,615.2,75.1Z" transform="translate(0)"/><path class="cls-1" d="M517.2,89.1h2.5c2.7,0,4.4,1.4,4.4,4.4s-1.7,4.4-4.3,4.4h-2.6Zm2.4,7.4c1.6,0,2.6-.9,2.6-3s-1-3-2.6-3H519v6Z" transform="translate(0)"/><path class="cls-1" d="M524.8,94.6a3.3,3.3,0,0,1,3.1-3.6c1.8,0,2.8,1.4,2.8,3.3a1.9,1.9,0,0,1-.1.8h-4.1a1.6,1.6,0,0,0,1.8,1.6,2.4,2.4,0,0,0,1.5-.4l.6,1.1a4.5,4.5,0,0,1-2.3.7A3.2,3.2,0,0,1,524.8,94.6Zm4.4-.7c0-.9-.4-1.5-1.3-1.5s-1.3.5-1.5,1.5Z" transform="translate(0)"/><path class="cls-1" d="M530.9,91.2h1.8l.9,3.4.6,2h0l.6-2,1-3.4h1.7l-2.3,6.7h-2Z" transform="translate(0)"/><path class="cls-1" d="M537.9,89.2a1,1,0,0,1,1.1-1,.9.9,0,0,1,1,1,.9.9,0,0,1-1,.9A1,1,0,0,1,537.9,89.2Zm.2,2h1.8v6.7h-1.8Z" transform="translate(0)"/><path class="cls-1" d="M540.9,94.6a3.4,3.4,0,0,1,3.4-3.6,3,3,0,0,1,1.9.8l-.8,1.1a1.4,1.4,0,0,0-1-.4c-1.1,0-1.8.8-1.8,2.1s.7,2.1,1.7,2.1a2,2,0,0,0,1.3-.6l.7,1.2a3.5,3.5,0,0,1-2.2.8A3.2,3.2,0,0,1,540.9,94.6Z" transform="translate(0)"/><path class="cls-1" d="M546.7,94.6a3.3,3.3,0,0,1,3.1-3.6c1.9,0,2.8,1.4,2.8,3.3a1.9,1.9,0,0,1-.1.8h-4.1a1.8,1.8,0,0,0,1.9,1.6,2.8,2.8,0,0,0,1.5-.4l.6,1.1a4.8,4.8,0,0,1-2.4.7A3.3,3.3,0,0,1,546.7,94.6Zm4.4-.7c0-.9-.4-1.5-1.3-1.5s-1.3.5-1.4,1.5Z" transform="translate(0)"/><path class="cls-1" d="M556,89.1h2l1.5,4.1.5,1.7h.1l.5-1.7,1.5-4.1h2v8.8h-1.7V94.2c0-.8.2-2.1.2-2.9h0l-.7,2.1-1.4,3.7h-1l-1.4-3.7-.7-2.1h0c0,.8.2,2.1.2,2.9v3.7H556Z" transform="translate(0)"/><path class="cls-1" d="M565.3,96.1c0-1.4,1.1-2.2,3.8-2.5a1,1,0,0,0-1.1-1.1,3.2,3.2,0,0,0-1.8.6l-.7-1.2a5.5,5.5,0,0,1,2.8-.9c1.7,0,2.6,1.1,2.6,3v3.9h-1.4l-.2-.7h0a3.3,3.3,0,0,1-2,.9A1.9,1.9,0,0,1,565.3,96.1Zm3.8,0V94.7c-1.6.2-2.1.7-2.1,1.3s.3.7.8.7A1.6,1.6,0,0,0,569.1,96.1Z" transform="translate(0)"/><path class="cls-1" d="M572.2,91.2h1.5v.9h0A3.1,3.1,0,0,1,576,91c1.5,0,2.1,1.1,2.1,2.7v4.2h-1.8V94c0-1.1-.3-1.4-.9-1.4a1.7,1.7,0,0,0-1.4.7v4.6h-1.8Z" transform="translate(0)"/><path class="cls-1" d="M579.1,96.1c0-1.4,1.2-2.2,3.9-2.5-.1-.6-.3-1.1-1.2-1.1a3.2,3.2,0,0,0-1.8.6l-.7-1.2a5.5,5.5,0,0,1,2.9-.9c1.7,0,2.5,1.1,2.5,3v3.9h-1.4v-.7h-.1a3.1,3.1,0,0,1-2,.9A1.9,1.9,0,0,1,579.1,96.1Zm3.9,0V94.7c-1.7.2-2.2.7-2.2,1.3s.4.7.9.7A1.9,1.9,0,0,0,583,96.1Z" transform="translate(0)"/><path class="cls-1" d="M585.6,99.1a1.9,1.9,0,0,1,1-1.4h0a1.3,1.3,0,0,1-.6-1.2,1.5,1.5,0,0,1,.7-1.2h0a1.9,1.9,0,0,1-.9-1.7,2.5,2.5,0,0,1,2.7-2.5l1,.2H592v1.3h-1.2a1.5,1.5,0,0,1,.3,1c0,1.5-1.1,2.3-2.6,2.3h-.8a.5.5,0,0,0-.3.5c0,.4.2.6,1,.6h1.2c1.6,0,2.5.5,2.5,1.7s-1.4,2.3-3.7,2.3S585.6,100.3,585.6,99.1Zm4.8-.3c0-.5-.4-.6-1.1-.6h-1.8a.9.9,0,0,0-.4.7c0,.6.6.9,1.6.9S590.4,99.3,590.4,98.8Zm-.8-5.3a1.2,1.2,0,0,0-1.1-1.3c-.6,0-1,.5-1,1.3s.4,1.2,1,1.2A1.1,1.1,0,0,0,589.6,93.5Z" transform="translate(0)"/><path class="cls-1" d="M592.3,94.6a3.3,3.3,0,0,1,3.1-3.6c1.9,0,2.9,1.4,2.9,3.3,0,.3-.1.6-.1.8H594a1.8,1.8,0,0,0,1.9,1.6,2.8,2.8,0,0,0,1.5-.4l.6,1.1a4.8,4.8,0,0,1-2.3.7A3.3,3.3,0,0,1,592.3,94.6Zm4.4-.7c0-.9-.4-1.5-1.2-1.5a1.5,1.5,0,0,0-1.5,1.5Z" transform="translate(0)"/><path class="cls-1" d="M599.2,91.2h1.5v.9h0a2.9,2.9,0,0,1,2.1-1.1,1.8,1.8,0,0,1,1.8,1.2,3.5,3.5,0,0,1,2.2-1.2c1.4,0,2.1,1.1,2.1,2.7v4.2h-1.8V94c0-1.1-.3-1.4-.9-1.4a1.9,1.9,0,0,0-1.3.7v4.6h-1.8V94c0-1.1-.3-1.4-.9-1.4a1.9,1.9,0,0,0-1.3.7v4.6h-1.8Z" transform="translate(0)"/><path class="cls-1" d="M609.9,94.6A3.3,3.3,0,0,1,613,91c1.9,0,2.8,1.4,2.8,3.3a1.9,1.9,0,0,1-.1.8h-4.1a1.8,1.8,0,0,0,1.9,1.6,2.8,2.8,0,0,0,1.5-.4l.6,1.1a4.8,4.8,0,0,1-2.4.7A3.3,3.3,0,0,1,609.9,94.6Zm4.4-.7c0-.9-.4-1.5-1.2-1.5a1.5,1.5,0,0,0-1.5,1.5Z" transform="translate(0)"/><path class="cls-1" d="M616.8,91.2h1.4l.2.9h0a3.1,3.1,0,0,1,2.2-1.1c1.4,0,2.1,1.1,2.1,2.7v4.2h-1.8V94c0-1.1-.3-1.4-.9-1.4a1.7,1.7,0,0,0-1.4.7v4.6h-1.8Z" transform="translate(0)"/><path class="cls-1" d="M624.3,95.6v-3h-1V91.3h1.1l.2-1.8H626v1.8h1.7v1.4H626v3c0,.7.3,1.1.9,1.1h.7l.3,1.2a2.9,2.9,0,0,1-1.4.3C624.9,98.1,624.3,97.1,624.3,95.6Z" transform="translate(0)"/><path class="cls-1" d="M630.4,96.8l1-1.2a3.4,3.4,0,0,0,2.3,1c.9,0,1.4-.4,1.4-1.1s-.6-.8-1.4-1.2l-1.1-.5a2.5,2.5,0,0,1-1.8-2.3,2.7,2.7,0,0,1,3-2.6,3.9,3.9,0,0,1,2.8,1.1l-.9,1.1a3.2,3.2,0,0,0-1.9-.7c-.8,0-1.3.4-1.3.9s.7.9,1.4,1.2l1.2.5a2.4,2.4,0,0,1,1.8,2.4c0,1.5-1.2,2.7-3.3,2.7A4.6,4.6,0,0,1,630.4,96.8Z" transform="translate(0)"/><path class="cls-1" d="M637.5,100.5l.3-1.4h.5a1.1,1.1,0,0,0,1.2-1l.2-.4-2.6-6.6h1.7l1.1,3.1.6,1.9h0c.2-.6.3-1.2.5-1.9l.9-3.1h1.7l-2.4,6.9c-.6,1.6-1.3,2.5-2.8,2.5Z" transform="translate(0)"/><path class="cls-1" d="M643.6,97.1l.8-1.1a2.9,2.9,0,0,0,1.8.8c.7,0,1-.3,1-.7s-.7-.8-1.4-1-1.9-.9-1.9-2a2.2,2.2,0,0,1,2.5-2.1,3.7,3.7,0,0,1,2.3.9l-.8,1a2.4,2.4,0,0,0-1.4-.5q-.9,0-.9.6c0,.5.7.7,1.4.9s1.8.8,1.8,2.1-.9,2.1-2.6,2.1A4.2,4.2,0,0,1,643.6,97.1Z" transform="translate(0)"/><path class="cls-1" d="M650,95.6v-3h-1V91.3h1l.2-1.8h1.5v1.8h1.7v1.4h-1.7v3c0,.7.3,1.1.9,1.1h.7l.3,1.2a3.2,3.2,0,0,1-1.4.3C650.6,98.1,650,97.1,650,95.6Z" transform="translate(0)"/><path class="cls-1" d="M653.8,94.6A3.4,3.4,0,0,1,657,91c1.8,0,2.8,1.4,2.8,3.3,0,.3-.1.6-.1.8h-4.1a1.6,1.6,0,0,0,1.8,1.6,2.6,2.6,0,0,0,1.5-.4l.6,1.1a4.5,4.5,0,0,1-2.3.7A3.3,3.3,0,0,1,653.8,94.6Zm4.5-.7c0-.9-.4-1.5-1.3-1.5s-1.3.5-1.5,1.5Z" transform="translate(0)"/><path class="cls-1" d="M660.8,91.2h1.4v.9h.1a2.6,2.6,0,0,1,2-1.1,2,2,0,0,1,1.9,1.2,3,3,0,0,1,2.1-1.2c1.4,0,2.1,1.1,2.1,2.7v4.2h-1.8V94c0-1.1-.3-1.4-.9-1.4a1.9,1.9,0,0,0-1.3.7v4.6h-1.8V94c0-1.1-.3-1.4-.9-1.4a1.9,1.9,0,0,0-1.3.7v4.6h-1.7Z" transform="translate(0)"/><path class="cls-1" d="M423.9,163.3a4.7,4.7,0,0,1,4.7,4.7v68.1a4.7,4.7,0,0,1-4.7,4.7H248.7a4.7,4.7,0,0,1-4.7-4.7V168a4.7,4.7,0,0,1,4.7-4.7H423.9m0-5H248.7A9.7,9.7,0,0,0,239,168v68.1a9.7,9.7,0,0,0,9.7,9.7H423.9a9.7,9.7,0,0,0,9.7-9.7V168a9.7,9.7,0,0,0-9.7-9.7Z" transform="translate(0)"/><rect class="cls-1" x="256" y="209.3" width="29.2" height="19.46"/><rect class="cls-1" x="285.2" y="219.1" width="19.5" height="9.73"/><rect class="cls-1" x="303.5" y="158.3" width="4.9" height="17.03"/><rect class="cls-1" x="315.6" y="158.3" width="4.9" height="17.03"/><rect class="cls-1" x="327.8" y="158.3" width="4.9" height="17.03"/><rect class="cls-1" x="339.9" y="158.3" width="4.9" height="17.03"/><rect class="cls-1" x="352.1" y="158.3" width="4.9" height="17.03"/><rect class="cls-1" x="364.3" y="158.3" width="4.9" height="17.03"/><path class="cls-1" d="M354.7,198.8v1h-1.5c-.1-.1-.1-.4-.1-.7V199H353a4.5,4.5,0,0,1-2.7,1.1,3.5,3.5,0,0,1-1.4-.3,2.7,2.7,0,0,1-1.8-2.5,3.2,3.2,0,0,1,1.6-3.1c1-.5,4.3-.5,4.4-.5h0s0-2.3-2-2.7h-.4l-1.4.2h-.5c-.3,0-.4-.3-.5-.5s-.3-.6.2-.8a8.8,8.8,0,0,1,2.3-.4h.3a4.2,4.2,0,0,1,3,1.6,4.6,4.6,0,0,1,.6,2.5v5.1M351.5,188a8.2,8.2,0,0,0-2.7-.1,4.8,4.8,0,0,1-3.1-.5,4.2,4.2,0,0,0-2.7-.3,3.6,3.6,0,0,0-1.8.7l.9.3a3.8,3.8,0,0,1,2.4,2.4,4.5,4.5,0,0,1-.2,2.5l-.6,2c-.4,1.3-.7,2.4-.9,2.9v.3a7.5,7.5,0,0,0,6,5,7.7,7.7,0,0,0,2.8-15.2" transform="translate(0)"/><path class="cls-1" d="M342.9,192.7h0s.7-2.3-1.1-3.3a5.1,5.1,0,0,0-1.7-.3,4.3,4.3,0,0,0-.9,2.2v.7a22.9,22.9,0,0,1,3.6.8Z" transform="translate(0)"/><path class="cls-1" d="M353,195h0l-1.9.2H351a2.3,2.3,0,0,0-1.9.7,1.8,1.8,0,0,0-.4,1.7,2,2,0,0,0,2,1.3,2.6,2.6,0,0,0,1.7-.7l.3-.4a5.1,5.1,0,0,0,.4-2.7Z" transform="translate(0)"/><path class="cls-1" d="M406.4,191.9a3.9,3.9,0,0,0-1.4-1.7,3.5,3.5,0,0,0-2.3-.6,3.3,3.3,0,0,0-2.1.6,2.4,2.4,0,0,0-.8.6l-.7-.6a3.8,3.8,0,0,0-2.2-.6,3.9,3.9,0,0,0-2.3.6,4.7,4.7,0,0,0-1.4,1.7,3.4,3.4,0,0,0-.1,1c-.1.8-.1,3.4-.1,5.1a7.8,7.8,0,0,1,.1,1.3c0,.2,0,.6.5.6h1.2v-6a2.9,2.9,0,0,1,.6-2.2,2.3,2.3,0,0,1,1.5-.5,2.2,2.2,0,0,1,2.1,2.7v5.4a.7.7,0,0,0,.8.6.7.7,0,0,0,.9-.6v-5.4a2.3,2.3,0,0,1,.6-2.2,2.6,2.6,0,0,1,1.4-.5,2.1,2.1,0,0,1,1.5.5,2.9,2.9,0,0,1,.7,2.2v6H406a.6.6,0,0,0,.6-.6v-6.4a3.6,3.6,0,0,0-.2-1" transform="translate(0)"/><path class="cls-1" d="M371.9,191.9a3.9,3.9,0,0,0-1.4-1.7,3.5,3.5,0,0,0-2.3-.6,3.3,3.3,0,0,0-2.1.6,2.4,2.4,0,0,0-.8.6l-.7-.6a3.8,3.8,0,0,0-2.2-.6,3.9,3.9,0,0,0-2.3.6,4.7,4.7,0,0,0-1.4,1.7,3.4,3.4,0,0,0-.1,1c-.1.8-.1,3.4-.1,5.1a7.8,7.8,0,0,1,.1,1.3c0,.2,0,.6.5.6h1.2v-6a2.9,2.9,0,0,1,.6-2.2,2.3,2.3,0,0,1,1.5-.5,2.2,2.2,0,0,1,2.1,2.7v5.4a.7.7,0,0,0,.8.6.7.7,0,0,0,.9-.6v-5.4a2.3,2.3,0,0,1,.6-2.2,2.6,2.6,0,0,1,1.4-.5,2.1,2.1,0,0,1,1.5.5,2.9,2.9,0,0,1,.7,2.2v6h1.1a.6.6,0,0,0,.6-.6v-6.4a3.6,3.6,0,0,0-.2-1" transform="translate(0)"/><path class="cls-1" d="M417,195.7c-.2,1.7-.7,2.6-1.8,2.9h-1.8c-1.1-.3-1.7-1.2-1.8-2.9v-1.6c.1-1.7.7-2.6,1.8-2.9h1.8c1.1.3,1.6,1.2,1.8,2.9v1.6m1.8-1.1c-.1-1-.3-4-2.8-4.9a4.5,4.5,0,0,0-1.6-.3h-.2a4.5,4.5,0,0,0-1.6.3c-2.5.9-2.8,3.9-2.8,4.9v.6c.1,1,.3,4,2.8,4.8a4.5,4.5,0,0,0,1.6.3h.2l1.6-.2c2.5-.9,2.7-3.9,2.8-4.9v-.6" transform="translate(0)"/><path class="cls-1" d="M388.7,184.6a1.1,1.1,0,0,0-1.3.3,1.4,1.4,0,0,0-.3,1.3,1.4,1.4,0,0,0,1.2.9,1.3,1.3,0,0,0,1.3-1.2,1.2,1.2,0,0,0-.9-1.3" transform="translate(0)"/><path class="cls-1" d="M388.3,189.9h-.8v9.8c0,.4.4.5.8.5s.9-.1.9-.5v-9.8h-.9" transform="translate(0)"/><path class="cls-1" d="M381.5,189.9a4.3,4.3,0,0,0-1.9-.4,4.1,4.1,0,0,0-1.9.4,3.9,3.9,0,0,0-1.6,1.5,4.7,4.7,0,0,0-.6,1.9v6a.6.6,0,0,0,.6.6h1.2v-6.1a2.7,2.7,0,0,1,.7-2,2,2,0,0,1,1.6-.6,2.2,2.2,0,0,1,1.6.6,2.7,2.7,0,0,1,.7,2v6.1h1.2c.3,0,.5-.2.5-.6v-6a3.6,3.6,0,0,0-.5-1.9,4.6,4.6,0,0,0-1.6-1.5" transform="translate(0)"/><path class="cls-1" d="M342.4,193.7l-1.9-.4h-.1l-1-.2h0a1.5,1.5,0,0,0-1,.3,1.6,1.6,0,0,0-.9,1.6,1.9,1.9,0,0,0,1.5,1.8h.8l1.1-.2.4-.3.3-.4a6,6,0,0,0,.9-2.2h-.1Z" transform="translate(0)"/><path class="cls-1" d="M0,8.9H1.5l1.8,5.9c.3,1.3.6,2.4,1,3.6h.1c.4-1.2.7-2.3,1-3.6L7.2,8.9H8.6l-3.5,11H3.5Z" transform="translate(0)"/><path class="cls-1" d="M9.8,17.7c0-1.7,1.5-2.6,5-3,0-1.1-.3-2.1-1.7-2.1a4.6,4.6,0,0,0-2.4.9l-.6-.9a6.1,6.1,0,0,1,3.2-1.1c2,0,2.9,1.3,2.9,3.3v5.1H15v-1h0A4.6,4.6,0,0,1,12.2,20,2.2,2.2,0,0,1,9.8,17.7Zm5,.2V15.6c-2.7.3-3.7,1-3.7,2A1.3,1.3,0,0,0,12.6,19,3.3,3.3,0,0,0,14.8,17.9Z" transform="translate(0)"/><path class="cls-1" d="M19.1,11.7h1.1v1.5h.1a2.8,2.8,0,0,1,2.3-1.7,1.1,1.1,0,0,1,.8.2l-.2,1.2-.8-.2c-.7,0-1.5.5-2.1,1.9v5.3H19.1Z" transform="translate(0)"/><path class="cls-1" d="M24.9,9.1c0-.5.4-.8,1-.8a.8.8,0,0,1,.9.8.8.8,0,0,1-.9.9C25.3,10,24.9,9.7,24.9,9.1Zm.3,2.6h1.3v8.2H25.2Z" transform="translate(0)"/><path class="cls-1" d="M29,15.8c0-2.7,1.8-4.3,3.8-4.3s3.8,1.6,3.8,4.3S34.8,20,32.8,20,29,18.5,29,15.8Zm6.1,0c0-1.9-.9-3.2-2.3-3.2s-2.4,1.3-2.4,3.2,1,3.1,2.4,3.1S35.1,17.7,35.1,15.8Z" transform="translate(0)"/><path class="cls-1" d="M38.9,16.9V11.7h1.4v5c0,1.5.4,2.2,1.5,2.2s1.4-.4,2.2-1.4V11.7h1.4v8.2H44.2V18.6h0A3.5,3.5,0,0,1,41.4,20C39.7,20,38.9,18.9,38.9,16.9Z" transform="translate(0)"/><path class="cls-1" d="M47.5,18.9l.7-.9a3.5,3.5,0,0,0,2.4,1c1.1,0,1.6-.6,1.6-1.3s-1-1.2-1.9-1.5-2.4-1-2.4-2.4,1-2.3,2.8-2.3a4,4,0,0,1,2.5.9l-.6.9a3.4,3.4,0,0,0-1.9-.7c-1,0-1.5.5-1.5,1.1s.9,1.1,1.8,1.5,2.5.9,2.5,2.4-1,2.4-3,2.4A4.6,4.6,0,0,1,47.5,18.9Z" transform="translate(0)"/><path class="cls-1" d="M58.8,15.8c0-2.7,1.7-4.3,3.5-4.3a3.3,3.3,0,0,1,2.3,1V7.9h1.4v12H64.8v-1h-.1A3.6,3.6,0,0,1,62.2,20C60.1,20,58.8,18.5,58.8,15.8Zm5.7,2V13.5a2.6,2.6,0,0,0-1.9-.8c-1.4,0-2.4,1.2-2.4,3.1s.8,3.1,2.3,3.1A2.7,2.7,0,0,0,64.5,17.8Z" transform="translate(0)"/><path class="cls-1" d="M68.4,15.8c0-2.7,1.8-4.3,3.6-4.3s3.3,1.5,3.3,3.8a1.9,1.9,0,0,1-.1.8H69.7A2.8,2.8,0,0,0,72.4,19a3.8,3.8,0,0,0,2.1-.7l.5.9a4.8,4.8,0,0,1-2.7.8C70.1,20,68.4,18.5,68.4,15.8Zm5.7-.7c0-1.6-.8-2.5-2-2.5a2.5,2.5,0,0,0-2.4,2.5Z" transform="translate(0)"/><path class="cls-1" d="M76.4,11.7h1.4l1.6,4.6c.2.8.5,1.7.7,2.4h.1c.2-.7.5-1.6.7-2.4l1.6-4.6h1.3l-2.9,8.2H79.3Z" transform="translate(0)"/><path class="cls-1" d="M85.5,9.1a.9.9,0,0,1,1.8,0,.9.9,0,1,1-1.8,0Zm.2,2.6h1.4v8.2H85.7Z" transform="translate(0)"/><path class="cls-1" d="M89.5,15.8a4,4,0,0,1,3.9-4.3,3.1,3.1,0,0,1,2.4,1l-.7.9a2.1,2.1,0,0,0-1.6-.8c-1.5,0-2.6,1.3-2.6,3.2s1.1,3.1,2.6,3.1a2.7,2.7,0,0,0,1.9-.8l.6.9a3.9,3.9,0,0,1-2.7,1C91.2,20,89.5,18.5,89.5,15.8Z" transform="translate(0)"/><path class="cls-1" d="M97.5,15.8c0-2.7,1.7-4.3,3.6-4.3s3.3,1.5,3.3,3.8c0,.3-.1.6-.1.8H98.8a2.8,2.8,0,0,0,2.7,2.9,3.8,3.8,0,0,0,2.1-.7l.5.9a4.8,4.8,0,0,1-2.7.8C99.2,20,97.5,18.5,97.5,15.8Zm5.7-.7c0-1.6-.8-2.5-2.1-2.5s-2.1.9-2.3,2.5Z" transform="translate(0)"/><path class="cls-1" d="M105.8,18.9l.6-.9a3.7,3.7,0,0,0,2.5,1c1,0,1.6-.6,1.6-1.3s-1-1.2-1.9-1.5-2.4-1-2.4-2.4,1-2.3,2.8-2.3a4,4,0,0,1,2.5.9l-.7.9a2.9,2.9,0,0,0-1.8-.7c-1,0-1.5.5-1.5,1.1s.9,1.1,1.8,1.5,2.5.9,2.5,2.4-1.1,2.4-3,2.4A4.4,4.4,0,0,1,105.8,18.9Z" transform="translate(0)"/><path class="cls-1" d="M426.5,262.2v-6.7h.9v6.6c0,2.9,1.3,3.7,2.8,3.7s2.9-.8,2.9-3.7v-6.6h.9v6.7c0,3.4-1.8,4.5-3.8,4.5S426.5,265.6,426.5,262.2Z" transform="translate(0)"/><path class="cls-1" d="M437,258.5h.8v.9h0a4.6,4.6,0,0,1,2.7-1.1c2.1,0,3.2,1.6,3.2,4s-1.7,4.4-3.5,4.4a4.2,4.2,0,0,1-2.4-1V270H437Zm5.8,3.8c0-1.9-.6-3.3-2.4-3.3a4.1,4.1,0,0,0-2.5,1.3v4.6a4,4,0,0,0,2.3,1C441.7,265.9,442.8,264.5,442.8,262.3Z" transform="translate(0)"/><path class="cls-1" d="M449.6,264.2v-5h-1.2v-.7h1.3v-2.3h.7v2.3h2.3v.7h-2.3v5c0,1,.3,1.7,1.3,1.7l1-.2.2.7-1.3.3C450.1,266.7,449.6,265.7,449.6,264.2Z" transform="translate(0)"/><path class="cls-1" d="M454.1,262.5c0-2.7,1.6-4.2,3.6-4.2s3.6,1.5,3.6,4.2-1.7,4.2-3.6,4.2S454.1,265.1,454.1,262.5Zm6.3,0c0-2.1-1.2-3.5-2.7-3.5s-2.7,1.4-2.7,3.5,1.1,3.4,2.7,3.4S460.4,264.5,460.4,262.5Z" transform="translate(0)"/><path class="cls-1" d="M473,263.3h-1.6v3.2h-.8v-3.2h-4.8v-.5l4.8-7.3h.8v7.1H473Zm-2.4-.7v-4a10.9,10.9,0,0,1,.1-1.8h-.1l-.9,1.5-2.9,4.3Z" transform="translate(0)"/><path class="cls-1" d="M478.5,264.2v-5h-1.2v-.7h1.2v-2.3h.8v2.3h2.3v.7h-2.3v5c0,1,.3,1.7,1.3,1.7l1-.2.2.7-1.3.3C479,266.7,478.5,265.7,478.5,264.2Z" transform="translate(0)"/><path class="cls-1" d="M482.5,269.9l.2-.7h.7c.9,0,1.6-.9,2-2l.2-.7-3.3-8.1h.9l1.9,4.9a14.3,14.3,0,0,1,.8,2.2h.1c.3-.7.5-1.6.7-2.2l1.7-4.9h.9l-3.2,8.9c-.4,1.4-1.3,2.7-2.7,2.7Z" transform="translate(0)"/><path class="cls-1" d="M490.9,258.5h.8v.9h0a4.6,4.6,0,0,1,2.7-1.1c2.1,0,3.2,1.6,3.2,4s-1.7,4.4-3.5,4.4a4.2,4.2,0,0,1-2.4-1V270h-.9Zm5.9,3.8c0-1.9-.7-3.3-2.5-3.3a4.1,4.1,0,0,0-2.5,1.3v4.6a4,4,0,0,0,2.3,1C495.6,265.9,496.8,264.5,496.8,262.3Z" transform="translate(0)"/><path class="cls-1" d="M499.4,262.5c0-2.6,1.7-4.2,3.5-4.2s3.1,1.3,3.1,3.7c0,.2-.1.4-.1.6h-5.7c.1,2,1.2,3.3,3,3.3a3.1,3.1,0,0,0,2.1-.7l.3.7a4.4,4.4,0,0,1-2.5.8C501,266.7,499.4,265.1,499.4,262.5Zm5.8-.6c0-1.9-.9-2.9-2.3-2.9a2.9,2.9,0,0,0-2.7,2.9Z" transform="translate(0)"/><path class="cls-1" d="M507.1,265.6l.5-.7a3.6,3.6,0,0,0,2.5,1c1.2,0,1.8-.7,1.8-1.5s-1-1.4-1.9-1.7-2.5-.9-2.5-2.3.9-2.1,2.6-2.1a3.6,3.6,0,0,1,2.3.8l-.4.6a2.9,2.9,0,0,0-1.9-.7c-1.2,0-1.7.7-1.7,1.4s.9,1.2,1.8,1.5,2.6.9,2.6,2.5a2.4,2.4,0,0,1-2.7,2.3A4.7,4.7,0,0,1,507.1,265.6Z" transform="translate(0)"/><path class="cls-1" d="M517.5,262.5c0-2.7,1.7-4.2,3.7-4.2s3.6,1.5,3.6,4.2-1.7,4.2-3.6,4.2S517.5,265.1,517.5,262.5Zm6.4,0c0-2.1-1.2-3.5-2.7-3.5s-2.7,1.4-2.7,3.5,1.1,3.4,2.7,3.4S523.9,264.5,523.9,262.5Z" transform="translate(0)"/><path class="cls-1" d="M530.3,255.3l-1-.2c-.8,0-1.2.6-1.2,1.7v1.7h1.8v.7h-1.8v7.3h-.9v-7.3h-1.1v-.7h1.1v-1.7c0-1.6.8-2.5,2.1-2.5a2.7,2.7,0,0,1,1.2.3Z" transform="translate(0)"/><path class="cls-1" d="M534.2,265l.5-.6a4.3,4.3,0,0,0,3.2,1.4c1.6,0,2.6-.8,2.6-2.1s-.8-1.7-1.9-2.2l-1.6-.7c-1-.4-2.3-1.1-2.3-2.7s1.4-2.8,3.3-2.8a4.1,4.1,0,0,1,3.1,1.4l-.5.5a3.9,3.9,0,0,0-2.6-1.1c-1.4,0-2.4.8-2.4,1.9s1.1,1.7,1.9,2.1l1.6.7c1.3.5,2.3,1.2,2.3,2.9s-1.4,3-3.5,3A4.7,4.7,0,0,1,534.2,265Z" transform="translate(0)"/><path class="cls-1" d="M543.7,255.5h.9v11h-.9Z" transform="translate(0)"/><path class="cls-1" d="M547.8,255.5H549l2.2,6.3.9,2.4h0l.9-2.4,2.2-6.3h1.2v11h-.8v-7c0-.9,0-2.1.1-3h-.1l-.9,2.5-2.3,6.3h-.7l-2.3-6.3-.8-2.5h-.1c0,.9.1,2.1.1,3v7h-.8Z" transform="translate(0)"/><path class="cls-1" d="M562.2,262.5c0-2.7,1.7-4.2,3.7-4.2a3.2,3.2,0,0,1,2.3.9l-.5.6a3,3,0,0,0-1.8-.8c-1.6,0-2.8,1.4-2.8,3.5s1.1,3.4,2.8,3.4a3.3,3.3,0,0,0,2.1-.9l.4.6a4.1,4.1,0,0,1-2.6,1.1C563.7,266.7,562.2,265.1,562.2,262.5Z" transform="translate(0)"/><path class="cls-1" d="M569.8,264.5c0-1.8,1.5-2.7,5.1-3.1,0-1.1-.4-2.4-1.9-2.4a4.7,4.7,0,0,0-2.5.9l-.4-.6a5.6,5.6,0,0,1,3-1c2,0,2.6,1.3,2.6,3.1v5.1H575v-1.1h0a4.5,4.5,0,0,1-2.8,1.3A2.1,2.1,0,0,1,569.8,264.5Zm5.1.2v-2.6c-3.2.3-4.3,1.1-4.3,2.3s.8,1.5,1.7,1.5A4.3,4.3,0,0,0,574.9,264.7Z" transform="translate(0)"/><path class="cls-1" d="M578.5,258.5h.7v1.2h.1a3.8,3.8,0,0,1,2.7-1.4c1.7,0,2.4,1,2.4,3v5.2h-.8v-5c0-1.7-.6-2.5-1.8-2.5a3.4,3.4,0,0,0-2.5,1.5v6h-.9Z" transform="translate(0)"/><path class="cls-1" d="M591.6,265.7h0l-.2.8h-.7v-12h.9v5a4.2,4.2,0,0,1,2.7-1.2c2.1,0,3.2,1.6,3.2,4s-1.7,4.4-3.5,4.4A3.9,3.9,0,0,1,591.6,265.7Zm4.9-3.4c0-1.9-.6-3.3-2.4-3.3a4.1,4.1,0,0,0-2.5,1.3v4.6a3.8,3.8,0,0,0,2.3,1C595.4,265.9,596.5,264.5,596.5,262.3Z" transform="translate(0)"/><path class="cls-1" d="M599.1,262.5c0-2.6,1.7-4.2,3.5-4.2s3.1,1.3,3.1,3.7v.6H600c.1,2,1.2,3.3,2.9,3.3a3.2,3.2,0,0,0,2.2-.7l.3.7a4.5,4.5,0,0,1-2.6.8C600.8,266.7,599.1,265.1,599.1,262.5Zm5.8-.6c0-1.9-.9-2.9-2.2-2.9s-2.5,1.1-2.7,2.9Z" transform="translate(0)"/><path class="cls-1" d="M610.9,255.9a.7.7,0,0,1,.7-.7.7.7,0,1,1,0,1.4A.7.7,0,0,1,610.9,255.9Zm.3,2.6h.9v8h-.9Z" transform="translate(0)"/><path class="cls-1" d="M615,258.5h.8v1.2h0a3.8,3.8,0,0,1,2.7-1.4c1.7,0,2.5,1,2.5,3v5.2h-.9v-5c0-1.7-.5-2.5-1.8-2.5a3.4,3.4,0,0,0-2.5,1.5v6H615Z" transform="translate(0)"/><path class="cls-1" d="M623,265.6l.4-.7a3.7,3.7,0,0,0,2.5,1c1.3,0,1.9-.7,1.9-1.5s-1-1.4-2-1.7-2.5-.9-2.5-2.3,1-2.1,2.7-2.1a3.8,3.8,0,0,1,2.3.8l-.5.6a2.9,2.9,0,0,0-1.9-.7c-1.2,0-1.7.7-1.7,1.4s.9,1.2,1.9,1.5,2.5.9,2.5,2.5-.9,2.3-2.7,2.3A4.5,4.5,0,0,1,623,265.6Z" transform="translate(0)"/><path class="cls-1" d="M630.9,264.2v-5h-1.2v-.7h1.2v-2.3h.8v2.3h2.3v.7h-2.3v5c0,1,.3,1.7,1.3,1.7l1-.2.2.7-1.3.3C631.4,266.7,630.9,265.7,630.9,264.2Z" transform="translate(0)"/><path class="cls-1" d="M635.4,264.5c0-1.8,1.6-2.7,5.1-3.1.1-1.1-.3-2.4-1.8-2.4a4.4,4.4,0,0,0-2.5.9l-.4-.6a5.6,5.6,0,0,1,3-1c1.9,0,2.6,1.3,2.6,3.1v5.1h-.7v-1.1h0a4.8,4.8,0,0,1-2.8,1.3A2.2,2.2,0,0,1,635.4,264.5Zm5.1.2v-2.6c-3.1.3-4.2,1.1-4.2,2.3a1.4,1.4,0,0,0,1.6,1.5A3.9,3.9,0,0,0,640.5,264.7Z" transform="translate(0)"/><path class="cls-1" d="M644.2,265.3V254.5h.9v10.9c0,.3.1.5.3.5h.3l.2.7h-.6C644.5,266.7,644.2,266.2,644.2,265.3Z" transform="translate(0)"/><path class="cls-1" d="M648.2,265.3V254.5h.9v10.9c0,.3.1.5.3.5h.3l.2.7h-.6C648.5,266.7,648.2,266.2,648.2,265.3Z" transform="translate(0)"/><path class="cls-1" d="M651.5,262.5c0-2.6,1.7-4.2,3.6-4.2s3,1.3,3,3.7v.6h-5.7c.1,2,1.2,3.3,3,3.3a3.1,3.1,0,0,0,2.1-.7l.3.7a4.4,4.4,0,0,1-2.5.8C653.2,266.7,651.5,265.1,651.5,262.5Zm5.9-.6c0-1.9-.9-2.9-2.3-2.9a2.9,2.9,0,0,0-2.7,2.9Z" transform="translate(0)"/><path class="cls-1" d="M659.6,262.5c0-2.6,1.7-4.2,3.6-4.2a3.3,3.3,0,0,1,2.3.9v-4.7h.9v12h-.8v-1h0a3.8,3.8,0,0,1-2.6,1.2C660.9,266.7,659.6,265.2,659.6,262.5Zm5.9,2.1V260a3.4,3.4,0,0,0-2.3-1c-1.5,0-2.7,1.5-2.7,3.5s1,3.4,2.6,3.4A3.2,3.2,0,0,0,665.5,264.6Z" transform="translate(0)"/><path class="cls-1" d="M668.6,268.5a2.3,2.3,0,0,0,1.4-2h-.2a.7.7,0,0,1-.8-.7.8.8,0,0,1,.8-.8c.5,0,.9.5.9,1.3a3,3,0,0,1-1.8,2.8Z" transform="translate(0)"/><path class="cls-1" d="M433.4,281.5c0-1.8,1.5-2.7,5.1-3.1,0-1.1-.3-2.4-1.9-2.4a4.7,4.7,0,0,0-2.5.9l-.4-.6a6,6,0,0,1,3.1-1c1.9,0,2.5,1.3,2.5,3.1v5.1h-.7v-1.1h0a4.5,4.5,0,0,1-2.8,1.3A2.1,2.1,0,0,1,433.4,281.5Zm5.1.2v-2.6c-3.2.3-4.3,1.1-4.3,2.3s.8,1.5,1.7,1.5A4.1,4.1,0,0,0,438.5,281.7Z" transform="translate(0)"/><path class="cls-1" d="M442.1,275.5h.8v1.2h0a3.8,3.8,0,0,1,2.7-1.4c1.7,0,2.4,1,2.4,3v5.2h-.8v-5c0-1.7-.5-2.5-1.8-2.5a3.4,3.4,0,0,0-2.5,1.5v6h-.9Z" transform="translate(0)"/><path class="cls-1" d="M450.4,279.5c0-2.6,1.6-4.2,3.5-4.2a3.6,3.6,0,0,1,2.4.9v-4.7h.9v12h-.7v-1h-.1a3.7,3.7,0,0,1-2.5,1.2C451.7,283.7,450.4,282.2,450.4,279.5Zm5.8,2.1V277a3.3,3.3,0,0,0-2.2-1c-1.5,0-2.7,1.5-2.7,3.5s.9,3.4,2.5,3.4A3.1,3.1,0,0,0,456.2,281.6Z" transform="translate(0)"/><path class="cls-1" d="M469.4,280.3h-1.5v3.2H467v-3.2h-4.8v-.5l4.8-7.3h.9v7.1h1.5Zm-2.4-.7v-4c0-.5.1-1.3.1-1.8h0l-.9,1.5-3,4.3Z" transform="translate(0)"/><path class="cls-1" d="M474.1,279.5c0-2.7,1.8-4.2,3.7-4.2a3.5,3.5,0,0,1,2.4.9l-.5.6a3,3,0,0,0-1.9-.8c-1.5,0-2.8,1.4-2.8,3.5s1.2,3.4,2.8,3.4a2.9,2.9,0,0,0,2.1-.9l.4.6a3.8,3.8,0,0,1-2.5,1.1C475.7,283.7,474.1,282.1,474.1,279.5Z" transform="translate(0)"/><path class="cls-1" d="M481.7,281.5c0-1.8,1.6-2.7,5.1-3.1,0-1.1-.3-2.4-1.8-2.4a4.1,4.1,0,0,0-2.5.9l-.4-.6a5.6,5.6,0,0,1,3-1c1.9,0,2.6,1.3,2.6,3.1v5.1H487v-1.1h-.1a4.3,4.3,0,0,1-2.8,1.3A2.2,2.2,0,0,1,481.7,281.5Zm5.1.2v-2.6c-3.1.3-4.2,1.1-4.2,2.3s.7,1.5,1.6,1.5A3.9,3.9,0,0,0,486.8,281.7Z" transform="translate(0)"/><path class="cls-1" d="M490.5,275.5h.7V277h0a2.7,2.7,0,0,1,2.3-1.7h.8l-.2.8h-.7c-.7,0-1.6.5-2.2,2v5.4h-.8Z" transform="translate(0)"/><path class="cls-1" d="M495.9,275.5h.7V277h0a2.7,2.7,0,0,1,2.3-1.7h.8l-.2.8h-.7c-.7,0-1.6.5-2.2,2v5.4h-.8Z" transform="translate(0)"/><path class="cls-1" d="M501,272.9a.7.7,0,1,1,.7.7A.7.7,0,0,1,501,272.9Zm.2,2.6h.9v8h-.9Z" transform="translate(0)"/><path class="cls-1" d="M504.4,279.5c0-2.6,1.7-4.2,3.6-4.2s3,1.3,3,3.7v.6h-5.7c.1,2,1.2,3.3,3,3.3a3.1,3.1,0,0,0,2.1-.7l.3.7a4.4,4.4,0,0,1-2.5.8C506.1,283.7,504.4,282.1,504.4,279.5Zm5.8-.6c0-1.9-.8-2.9-2.2-2.9a2.9,2.9,0,0,0-2.7,2.9Z" transform="translate(0)"/><path class="cls-1" d="M513.2,275.5h.7V277h0a2.7,2.7,0,0,1,2.3-1.7h.8l-.2.8h-.7c-.7,0-1.6.5-2.2,2v5.4h-.8Z" transform="translate(0)"/><path class="cls-1" d="M521.9,275.5h.7v1.2h0a4.2,4.2,0,0,1,2.8-1.4q2.4,0,2.4,3v5.2H527v-5c0-1.7-.5-2.5-1.7-2.5s-1.6.5-2.5,1.5v6h-.9Z" transform="translate(0)"/><path class="cls-1" d="M530.1,279.5c0-2.6,1.7-4.2,3.5-4.2s3.1,1.3,3.1,3.7v.6H531c.1,2,1.2,3.3,2.9,3.3a3.2,3.2,0,0,0,2.2-.7l.3.7a4.7,4.7,0,0,1-2.6.8C531.8,283.7,530.1,282.1,530.1,279.5Zm5.8-.6c0-1.9-.9-2.9-2.3-2.9s-2.4,1.1-2.6,2.9Z" transform="translate(0)"/><path class="cls-1" d="M539,281.2v-5h-1.2v-.7h1.3v-2.3h.7v2.3h2.3v.7h-2.3v5c0,1,.3,1.7,1.4,1.7l.9-.2.2.7-1.3.3C539.5,283.7,539,282.7,539,281.2Z" transform="translate(0)"/><path class="cls-1" d="M543,275.5h1l1.3,5,.6,2.2h0l.6-2.2,1.4-5h1l1.4,5,.6,2.2h.1a22.5,22.5,0,0,1,.5-2.2l1.4-5h.8l-2.2,8h-1.1l-1.4-4.9-.6-2.2h-.1a11.2,11.2,0,0,1-.6,2.3l-1.3,4.8h-1Z" transform="translate(0)"/><path class="cls-1" d="M555,279.5c0-2.7,1.6-4.2,3.6-4.2s3.6,1.5,3.6,4.2-1.7,4.2-3.6,4.2S555,282.1,555,279.5Zm6.3,0c0-2.1-1.2-3.5-2.7-3.5s-2.7,1.4-2.7,3.5,1.1,3.4,2.7,3.4S561.3,281.5,561.3,279.5Z" transform="translate(0)"/><path class="cls-1" d="M564.5,275.5h.8V277h0a2.5,2.5,0,0,1,2.2-1.7h.9l-.2.8h-.8c-.7,0-1.5.5-2.1,2v5.4h-.9Z" transform="translate(0)"/><path class="cls-1" d="M569.9,271.5h.9v8.7h0l3.8-4.7h1l-2.6,3.1,3.1,4.9h-1l-2.6-4.2-1.7,2v2.2h-.9Z" transform="translate(0)"/><path class="cls-1" d="M576.8,282.6l.4-.7a3.6,3.6,0,0,0,2.5,1c1.3,0,1.9-.7,1.9-1.5s-1-1.4-2-1.7-2.5-.9-2.5-2.3,1-2.1,2.7-2.1a3.8,3.8,0,0,1,2.3.8l-.5.6a2.9,2.9,0,0,0-1.9-.7c-1.2,0-1.7.7-1.7,1.4s.9,1.2,1.9,1.5,2.5.9,2.5,2.5-.9,2.3-2.7,2.3A4.5,4.5,0,0,1,576.8,282.6Z" transform="translate(0)"/><path class="cls-1" d="M587.2,279.5c0-2.7,1.7-4.2,3.7-4.2a3.2,3.2,0,0,1,2.3.9l-.5.6a3,3,0,0,0-1.8-.8c-1.6,0-2.8,1.4-2.8,3.5s1.1,3.4,2.8,3.4a3.3,3.3,0,0,0,2.1-.9l.4.6a4.1,4.1,0,0,1-2.6,1.1C588.8,283.7,587.2,282.1,587.2,279.5Z" transform="translate(0)"/><path class="cls-1" d="M594.8,281.5c0-1.8,1.5-2.7,5.1-3.1,0-1.1-.3-2.4-1.9-2.4a4.7,4.7,0,0,0-2.5.9l-.4-.6a6,6,0,0,1,3.1-1c1.9,0,2.5,1.3,2.5,3.1v5.1H600v-1.1h0a4.5,4.5,0,0,1-2.8,1.3A2.1,2.1,0,0,1,594.8,281.5Zm5.1.2v-2.6c-3.2.3-4.3,1.1-4.3,2.3s.8,1.5,1.7,1.5A4.1,4.1,0,0,0,599.9,281.7Z" transform="translate(0)"/><path class="cls-1" d="M603.5,275.5h.7l.2,1.2h0a3.8,3.8,0,0,1,2.7-1.4c1.7,0,2.4,1,2.4,3v5.2h-.8v-5c0-1.7-.6-2.5-1.8-2.5a3.4,3.4,0,0,0-2.5,1.5v6h-.9Z" transform="translate(0)"/><path class="cls-1" d="M616.6,282.7h0v.8h-.7v-12h.8v5a4.2,4.2,0,0,1,2.7-1.2c2.1,0,3.2,1.6,3.2,4s-1.7,4.4-3.5,4.4A3.9,3.9,0,0,1,616.6,282.7Zm5-3.4c0-1.9-.7-3.3-2.5-3.3a4.1,4.1,0,0,0-2.5,1.3v4.6a3.8,3.8,0,0,0,2.3,1C620.4,282.9,621.6,281.5,621.6,279.3Z" transform="translate(0)"/><path class="cls-1" d="M624.1,279.5c0-2.6,1.7-4.2,3.5-4.2s3.1,1.3,3.1,3.7v.6H625c.1,2,1.2,3.3,2.9,3.3a3.2,3.2,0,0,0,2.2-.7l.3.7a4.4,4.4,0,0,1-2.5.8C625.8,283.7,624.1,282.1,624.1,279.5Zm5.8-.6c0-1.9-.8-2.9-2.2-2.9a2.9,2.9,0,0,0-2.7,2.9Z" transform="translate(0)"/><path class="cls-1" d="M636.1,280.6v-5.1h.8v5q0,2.4,1.8,2.4c.9,0,1.6-.5,2.5-1.6v-5.8h.8v8h-.7v-1.4h0a3.7,3.7,0,0,1-2.7,1.6C636.8,283.7,636.1,282.6,636.1,280.6Z" transform="translate(0)"/><path class="cls-1" d="M644.1,282.6l.4-.7a3.8,3.8,0,0,0,2.6,1c1.2,0,1.8-.7,1.8-1.5s-1-1.4-1.9-1.7-2.6-.9-2.6-2.3,1-2.1,2.7-2.1a3.8,3.8,0,0,1,2.3.8l-.5.6a2.9,2.9,0,0,0-1.9-.7,1.5,1.5,0,0,0-1.7,1.4c0,.9.9,1.2,1.9,1.5s2.6.9,2.6,2.5-1,2.3-2.8,2.3A4.5,4.5,0,0,1,644.1,282.6Z" transform="translate(0)"/><path class="cls-1" d="M651.2,279.5c0-2.6,1.7-4.2,3.5-4.2s3.1,1.3,3.1,3.7a1.3,1.3,0,0,1-.1.6h-5.6c0,2,1.2,3.3,2.9,3.3a3.1,3.1,0,0,0,2.1-.7l.3.7a4.4,4.4,0,0,1-2.5.8C652.8,283.7,651.2,282.1,651.2,279.5Zm5.8-.6c0-1.9-.9-2.9-2.3-2.9a2.8,2.8,0,0,0-2.6,2.9Z" transform="translate(0)"/><path class="cls-1" d="M659.2,279.5c0-2.6,1.7-4.2,3.6-4.2a3.8,3.8,0,0,1,2.4.9v-4.7h.9v12h-.7l-.2-1h0a3.7,3.7,0,0,1-2.5,1.2C660.5,283.7,659.2,282.2,659.2,279.5Zm5.9,2.1V277a3.3,3.3,0,0,0-2.2-1c-1.6,0-2.7,1.5-2.7,3.5s.9,3.4,2.5,3.4A3.1,3.1,0,0,0,665.1,281.6Z" transform="translate(0)"/><path class="cls-1" d="M501.8,325.1a2.8,2.8,0,0,0,2.8,2.8h1.7v-6.2h-4.5Z" transform="translate(0)"/><path class="cls-1" d="M506.3,305.2h-1.7a2.8,2.8,0,0,0-2.8,2.8v3.4h4.5Z" transform="translate(0)"/><rect class="cls-1" x="513.7" y="305.2" width="5.1" height="6.16"/><rect class="cls-1" x="507.5" y="305.2" width="5.1" height="6.16"/><rect class="cls-1" x="507.5" y="321.7" width="5.1" height="6.16"/><path class="cls-1" d="M521.7,305.2H520v6.2h4.5V308A2.7,2.7,0,0,0,521.7,305.2Z" transform="translate(0)"/><path class="cls-1" d="M529,296.8h-7.3v.4a2.6,2.6,0,0,1-5.2,0v-.4h-6.7a.6.6,0,0,1,.1.4,2.7,2.7,0,0,1-5.3,0v-.4h-7.2a4,4,0,0,0-4,3.9v38.2l10.5,10.6H529a4,4,0,0,0,3.9-4V300.7A4,4,0,0,0,529,296.8Zm-3.3,14.6v13.7a4,4,0,0,1-4,4H504.6a3.9,3.9,0,0,1-3.9-4V308a3.9,3.9,0,0,1,3.9-4h17.1a4,4,0,0,1,4,4Z" transform="translate(0)"/><rect class="cls-1" x="513.7" y="321.7" width="5.1" height="6.16"/><path class="cls-1" d="M501.8,320.6H520v7.3h1.7a2.7,2.7,0,0,0,2.8-2.8V312.5H501.8Z" transform="translate(0)"/><path class="cls-1" d="M468.7,297.3a2,2,0,0,1,2.1,2v44.8a2.1,2.1,0,0,1-2.1,2.1H444.5l-9.5-9.4V299.3a2.1,2.1,0,0,1,2.1-2h5.6a4.6,4.6,0,0,0,8.6,0h3.3a4.5,4.5,0,0,0,8.5,0h5.6m0-1.9h-7.2v.4a2.7,2.7,0,1,1-5.3,0,.6.6,0,0,1,.1-.4h-6.7v.4a2.6,2.6,0,1,1-5.2,0v-.4h-7.3a3.9,3.9,0,0,0-3.9,3.9v38.2l10.5,10.6h25a4,4,0,0,0,4-4V299.3a4,4,0,0,0-4-3.9Z" transform="translate(0)"/><path class="cls-1" d="M461.5,302.6H444.4a4,4,0,0,0-4,4v17.1a4,4,0,0,0,4,4h17.1a3.9,3.9,0,0,0,3.9-4V306.6A3.9,3.9,0,0,0,461.5,302.6Zm-2.9,1.2V310h-5.1v-6.2Zm-6.3,0V310h-5v-6.2Zm-10.7,2.8a2.8,2.8,0,0,1,2.8-2.8h1.7V310h-4.5Zm2.8,19.9a2.7,2.7,0,0,1-2.8-2.8v-3.4h4.5v6.2Zm2.9,0v-6.2h5v6.2Zm6.2,0v-6.2h5.1v6.2Zm10.8-2.8a2.8,2.8,0,0,1-2.8,2.8h-1.7v-7.3H441.6v-8.1h22.7ZM459.8,310v-6.2h1.7a2.9,2.9,0,0,1,2.8,2.8V310Z" transform="translate(0)"/><path class="cls-1" d="M584.1,312.7v21.4H572.7l-4.1-4.1V312.7h15.5m1.1-1H567.6v18.8l4.7,4.7h12.9V311.7Z" transform="translate(0)"/><path class="cls-1" d="M598.2,307.5v1.7h-7v6.3h7v1.1h-7v6.3h7V324h-7v6.3h7v1.1h-7v6.3h7v1.7H554.5v-1.7h7.1v-6.3h-7.1v-1.1h7.1V324h-7.1v-1.1h7.1v-6.3h-7.1v-1.1h7.1v-6.3h-7.1v-1.7h43.7m.5-1.7H554.1a1.2,1.2,0,0,0-1.2,1.2v2.7a1.2,1.2,0,0,0,1.2,1.2h5.8v2.9h-5.8a1.2,1.2,0,0,0-1.2,1.2v2.1a1.2,1.2,0,0,0,1.2,1.2h5.8v2.9h-5.8a1.2,1.2,0,0,0-1.2,1.2v2.1a1.2,1.2,0,0,0,1.2,1.2h5.8v2.9h-5.8a1.2,1.2,0,0,0-1.2,1.2v2.1a1.2,1.2,0,0,0,1.2,1.2h5.8V336h-5.8a1.2,1.2,0,0,0-1.2,1.2v2.7a1.1,1.1,0,0,0,1.2,1.1h44.6a1.2,1.2,0,0,0,1.2-1.1v-2.7a1.2,1.2,0,0,0-1.2-1.2h-5.9v-2.9h5.9a1.3,1.3,0,0,0,1.2-1.2v-2.1a1.2,1.2,0,0,0-1.2-1.2h-5.9v-2.9h5.9a1.3,1.3,0,0,0,1.2-1.2v-2.1a1.2,1.2,0,0,0-1.2-1.2h-5.9v-2.9h5.9a1.3,1.3,0,0,0,1.2-1.2V315a1.2,1.2,0,0,0-1.2-1.2h-5.9v-2.9h5.9a1.3,1.3,0,0,0,1.2-1.2V307a1.2,1.2,0,0,0-1.2-1.2Z" transform="translate(0)"/><path class="cls-1" d="M665.1,310.9a1.3,1.3,0,0,0,1.2-1.2V307a1.2,1.2,0,0,0-1.2-1.2H620.5a1.2,1.2,0,0,0-1.2,1.2v2.7a1.2,1.2,0,0,0,1.2,1.2h5.8v2.9h-5.8a1.2,1.2,0,0,0-1.2,1.2v2.1a1.2,1.2,0,0,0,1.2,1.2h5.8v2.9h-5.8a1.2,1.2,0,0,0-1.2,1.2v2.1a1.2,1.2,0,0,0,1.2,1.2h5.8v2.9h-5.8a1.2,1.2,0,0,0-1.2,1.2v2.1a1.2,1.2,0,0,0,1.2,1.2h5.8V336h-5.8a1.2,1.2,0,0,0-1.2,1.2v2.7a1.1,1.1,0,0,0,1.2,1.1h44.6a1.2,1.2,0,0,0,1.2-1.1v-2.7a1.2,1.2,0,0,0-1.2-1.2h-5.9v-2.9h5.9a1.3,1.3,0,0,0,1.2-1.2v-2.1a1.2,1.2,0,0,0-1.2-1.2h-5.9v-2.9h5.9a1.3,1.3,0,0,0,1.2-1.2v-2.1a1.2,1.2,0,0,0-1.2-1.2h-5.9v-2.9h5.9a1.3,1.3,0,0,0,1.2-1.2V315a1.2,1.2,0,0,0-1.2-1.2h-5.9v-2.9Zm-13.5,24.3H638.7l-4.7-4.7V311.7h17.6Z" transform="translate(0)"/><path class="cls-1" d="M440.8,367.3l.8-.9a3.7,3.7,0,0,0,2.8,1.3c1.3,0,2.2-.7,2.2-1.7s-.8-1.4-1.8-1.8l-1.4-.6a2.9,2.9,0,0,1-2.1-2.7c0-1.5,1.3-2.7,3.2-2.7a4,4,0,0,1,3,1.3l-.6.8a3.5,3.5,0,0,0-2.4-1c-1.1,0-1.9.6-1.9,1.5s.9,1.4,1.7,1.8l1.5.6a2.9,2.9,0,0,1,2.1,2.7c0,1.7-1.4,2.9-3.5,2.9A4.6,4.6,0,0,1,440.8,367.3Z" transform="translate(0)"/><path class="cls-1" d="M449.9,358.4h1.3v10.3h-1.3Z" transform="translate(0)"/><path class="cls-1" d="M454,358.4h1.6l1.9,5.5.8,2.1h0a17.2,17.2,0,0,0,.7-2.1l2-5.5h1.6v10.3h-1.3V363a28.3,28.3,0,0,1,.2-3h0l-.9,2.3-1.9,5.3h-.9l-1.9-5.3-.8-2.3H455a28.3,28.3,0,0,1,.2,3v5.7H454Z" transform="translate(0)"/><path class="cls-1" d="M502.5,367.3l.8-.9a3.7,3.7,0,0,0,2.8,1.3c1.4,0,2.2-.7,2.2-1.7s-.8-1.4-1.7-1.8l-1.5-.6a2.8,2.8,0,0,1,1.1-5.4,4,4,0,0,1,3,1.3l-.6.8a3.5,3.5,0,0,0-2.4-1c-1.1,0-1.9.6-1.9,1.5s.9,1.4,1.7,1.8l1.5.6a2.8,2.8,0,0,1,2.1,2.7c0,1.7-1.4,2.9-3.5,2.9A4.6,4.6,0,0,1,502.5,367.3Z" transform="translate(0)"/><path class="cls-1" d="M511.6,358.4h1.3v10.3h-1.3Z" transform="translate(0)"/><path class="cls-1" d="M515.7,358.4h1.6l1.9,5.5.8,2.1h0a17.2,17.2,0,0,0,.7-2.1l2-5.5h1.6v10.3H523V363a28.3,28.3,0,0,1,.2-3h0l-.9,2.3-1.9,5.3h-.9l-1.9-5.3-.8-2.3h-.1a28.3,28.3,0,0,1,.2,3v5.7h-1.2Z" transform="translate(0)"/><path class="cls-1" d="M561.3,364.9c0-2.5,1.7-4,3.4-4s3.1,1.4,3.1,3.5c0,.3-.1.6-.1.8h-5.1a2.4,2.4,0,0,0,2.5,2.6,3.3,3.3,0,0,0,1.9-.6l.5.9a5,5,0,0,1-2.6.7A3.6,3.6,0,0,1,561.3,364.9Zm5.3-.6c0-1.6-.7-2.4-1.9-2.4a2.3,2.3,0,0,0-2.1,2.4Z" transform="translate(0)"/><path class="cls-1" d="M569,367.3l.8-.9a3.7,3.7,0,0,0,2.8,1.3c1.4,0,2.2-.7,2.2-1.7s-.8-1.4-1.7-1.8l-1.5-.6a2.8,2.8,0,0,1,1.1-5.4,4,4,0,0,1,3,1.3l-.6.8a3.5,3.5,0,0,0-2.4-1c-1.1,0-1.9.6-1.9,1.5s.9,1.4,1.7,1.8l1.5.6a2.8,2.8,0,0,1,2.1,2.7c0,1.7-1.4,2.9-3.5,2.9A4.6,4.6,0,0,1,569,367.3Z" transform="translate(0)"/><path class="cls-1" d="M578.1,358.4h1.3v10.3h-1.3Z" transform="translate(0)"/><path class="cls-1" d="M582.2,358.4h1.6l1.9,5.5.8,2.1h0a17.2,17.2,0,0,0,.7-2.1l2-5.5h1.6v10.3h-1.3V363a28.3,28.3,0,0,1,.2-3h0l-.9,2.3-1.9,5.3H586l-1.9-5.3-.8-2.3h-.1a28.3,28.3,0,0,1,.2,3v5.7h-1.2Z" transform="translate(0)"/><path class="cls-1" d="M627.7,364.9c0-2.5,1.7-4,3.4-4s3.1,1.4,3.1,3.5c0,.3-.1.6-.1.8H629a2.5,2.5,0,0,0,2.5,2.6,3.3,3.3,0,0,0,1.9-.6l.5.9a5,5,0,0,1-2.6.7A3.6,3.6,0,0,1,627.7,364.9Zm5.3-.6c0-1.6-.7-2.4-1.9-2.4a2.3,2.3,0,0,0-2.1,2.4Z" transform="translate(0)"/><path class="cls-1" d="M635.4,367.3l.8-.9a3.9,3.9,0,0,0,2.8,1.3c1.4,0,2.2-.7,2.2-1.7s-.8-1.4-1.7-1.8l-1.5-.6a2.8,2.8,0,0,1,1.1-5.4,4.4,4.4,0,0,1,3.1,1.3l-.7.8a3.5,3.5,0,0,0-2.4-1c-1.1,0-1.9.6-1.9,1.5s.9,1.4,1.7,1.8l1.5.6a2.8,2.8,0,0,1,2.1,2.7c0,1.7-1.4,2.9-3.5,2.9A4.6,4.6,0,0,1,635.4,367.3Z" transform="translate(0)"/><path class="cls-1" d="M644.5,358.4h1.3v10.3h-1.3Z" transform="translate(0)"/><path class="cls-1" d="M648.6,358.4h1.6l1.9,5.5.8,2.1h0a17.2,17.2,0,0,0,.7-2.1l2-5.5h1.6v10.3H656V363c0-.9.1-2.2.1-3h0l-.8,2.3-2,5.3h-.9l-1.9-5.3-.8-2.3h-.1a28.3,28.3,0,0,1,.2,3v5.7h-1.2Z" transform="translate(0)"/><rect class="cls-1" x="20.4" y="38.4" width="68.7" height="68.72" rx="12"/><path class="cls-2" d="M82.1,66.9l-10.4-.4.4-1.5A2.9,2.9,0,0,0,70,61.5L34.9,52.1h-.8a2.9,2.9,0,0,0-2.7,2.1L27.6,68.3a2.8,2.8,0,0,0,2,3.5L40,74.6a7.4,7.4,0,0,0,5.4,8.5h0V94.9h1.9V83.3a7.5,7.5,0,0,0,7-4.8l10.5,2.8h.7a3,3,0,0,0,2.8-2.2l.5-1.8L78,82.2ZM66.4,78.7a1,1,0,0,1-.9.7h-.2L30.1,70a1,1,0,0,1-.6-.5c-.1-.1-.2-.3-.1-.7l3.8-14.2a1,1,0,0,1,.9-.7h.3l35.2,9.4a.9.9,0,0,1,.6,1.1Zm2.9-3.2,1.9-7.1,8.4.3L76.7,79.4Z" transform="translate(0)"/><rect class="cls-1" x="20.4" y="121.6" width="68.7" height="68.72" rx="12"/><path class="cls-2" d="M73.8,133.5H35.7a3.4,3.4,0,0,0-3.4,3.4v38.9a2.6,2.6,0,0,0,2.6,2.6H74.6a2.6,2.6,0,0,0,2.6-2.6V136.9A3.4,3.4,0,0,0,73.8,133.5Zm1.8,41.6a1.8,1.8,0,0,1-1.8,1.7H66.4a13.1,13.1,0,0,0-6.7-6.4,4.8,4.8,0,0,0-1.4-4.5h0l-3.5-14.9-3.5,14.9h-.1a5.1,5.1,0,0,0-1.4,4.5,13.9,13.9,0,0,0-6.7,6.4H35.7a1.8,1.8,0,0,1-1.8-1.7V149.5a26,26,0,0,1,4.5-3.7l3.3,5.8.4.2h.3a.5.5,0,0,0,.2-.6l-3.4-5.9,3.8-2,2.9-1.1,1.1,4.1a.7.7,0,0,0,.5.4h.1a.6.6,0,0,0,.4-.7l-1.1-4.1a30.1,30.1,0,0,1,7.4-1.1v7.2a.5.5,0,0,0,.5.5.5.5,0,0,0,.5-.5v-7.2a30.8,30.8,0,0,1,7.4,1.1l-1.2,4.1a.7.7,0,0,0,.4.7H62a.7.7,0,0,0,.5-.4l1.1-4.1,3,1.1c1.3.6,2.5,1.3,3.7,2L67,151.1a.4.4,0,0,0,.1.6h.3l.4-.2,3.4-5.8a22.2,22.2,0,0,1,4.4,3.7ZM52.3,167a3.3,3.3,0,0,1,2.5-1,3.4,3.4,0,0,1,3.4,3.4,3.3,3.3,0,0,1-1,2.5,3.5,3.5,0,0,1-2.4,1,3.7,3.7,0,0,1-2.5-1A3.6,3.6,0,0,1,52.3,167Zm23.3-19.7a30.6,30.6,0,0,0-41.7,0V136.9a1.8,1.8,0,0,1,1.8-1.8H73.8a1.8,1.8,0,0,1,1.8,1.8Z" transform="translate(0)"/><rect class="cls-1" x="20.4" y="288.1" width="68.7" height="68.72" rx="12"/><path class="cls-2" d="M57.8,306.6v25.5H39V306.6H57.8m1-.9H38v27.4H58.8V305.7Z" transform="translate(0)"/><polygon class="cls-2" points="64.9 324.7 64.9 326.4 62.9 326.4 62.9 331.4 64.9 331.4 64.9 333.1 71.3 333.1 71.3 324.7 64.9 324.7"/><polygon class="cls-2" points="64.9 314.5 64.9 316.2 62.9 316.2 62.9 321.2 64.9 321.2 64.9 322.9 71.3 322.9 71.3 314.5 64.9 314.5"/><path class="cls-2" d="M73.8,300.1H35.7a3.3,3.3,0,0,0-3.3,3.3v33.4h0v8H77.2V303.4A3.4,3.4,0,0,0,73.8,300.1ZM36.4,343a2.2,2.2,0,1,1,2.2-2.2A2.2,2.2,0,0,1,36.4,343Zm9.2,0a2.2,2.2,0,1,1,0-4.4,2.2,2.2,0,1,1,0,4.4Zm9.2,0a2.2,2.2,0,1,1,0-4.4,2.2,2.2,0,1,1,0,4.4Zm9.1,0a2.2,2.2,0,0,1,0-4.4,2.2,2.2,0,1,1,0,4.4Zm9.2,0a2.2,2.2,0,1,1,0-4.4,2.2,2.2,0,1,1,0,4.4Zm2.5-6.2H69.1v6.5H68v-6.5H59.9v6.5H58.8v-6.5H50.7v6.5H49.6v-6.5h-8v6.5H40.4v-6.5H34V303.4a1.8,1.8,0,0,1,1.7-1.8H73.8a1.8,1.8,0,0,1,1.8,1.8Z" transform="translate(0)"/><circle class="cls-1" cx="409.8" cy="114" r="3"/><path class="cls-1" d="M408.8,120.6a1.1,1.1,0,0,1,1-1,1,1,0,0,1,1,1V149a1,1,0,0,1-1,1,1.1,1.1,0,0,1-1-1" transform="translate(0)"/><path class="cls-1" d="M417.6,128a1,1,0,0,1-.8-.5,1,1,0,0,1,.3-1.4,14.1,14.1,0,0,0,0-24.4,1,1,0,0,1-.3-1.4.9.9,0,0,1,1.3-.3,16.3,16.3,0,0,1,8,13.9,16.5,16.5,0,0,1-8,14Z" transform="translate(0)"/><path class="cls-1" d="M402,128h-.5a16.4,16.4,0,0,1-7.9-14,16.2,16.2,0,0,1,7.9-13.9,1,1,0,0,1,1.4.3,1.1,1.1,0,0,1-.3,1.4,14.1,14.1,0,0,0,0,24.4,1.1,1.1,0,0,1,.3,1.4A1.1,1.1,0,0,1,402,128Z" transform="translate(0)"/><path class="cls-1" d="M421.5,134.5a.9.9,0,0,1-.8-.4,1,1,0,0,1,.3-1.4,21.9,21.9,0,0,0,10.7-18.8A22.2,22.2,0,0,0,421,95.1a.9.9,0,0,1-.3-1.3.9.9,0,0,1,1.3-.4,23.8,23.8,0,0,1,0,41Z" transform="translate(0)"/><path class="cls-1" d="M398.1,134.5h-.5a23.9,23.9,0,0,1,0-41,1,1,0,0,1,1.4.4,1,1,0,0,1-.3,1.3A22.2,22.2,0,0,0,388,113.9a21.9,21.9,0,0,0,10.7,18.8,1.1,1.1,0,0,1,.3,1.4A1,1,0,0,1,398.1,134.5Z" transform="translate(0)"/><polyline class="cls-3" points="418.9 316.7 364.3 316.7 364.3 265.6"/><polygon class="cls-1" points="371.3 267.7 364.3 255.5 357.2 267.7 371.3 267.7"/><path class="cls-1" d="M97.5,52.6h6v1.1H98.8v3.2h3.9v1.2H98.8v3.7h4.8v1.1H97.5Z" transform="translate(0)"/><path class="cls-1" d="M105.9,60.5V56.3h-1.1v-.9h1.1l.2-2.1h1.1v2.1h2v1h-2v4.3c0,.9.3,1.4,1.1,1.4h.9l.3.9-1.4.3C106.4,63.1,105.9,62.1,105.9,60.5Z" transform="translate(0)"/><path class="cls-1" d="M110.9,51.8h1.3v4.6a3.6,3.6,0,0,1,2.5-1.3c1.6,0,2.3,1,2.3,3v4.8h-1.3V58.3c0-1.5-.4-2.1-1.4-2.1s-1.3.4-2.1,1.2v5.5h-1.3Z" transform="translate(0)"/><path class="cls-1" d="M118.9,59.1c0-2.5,1.6-4,3.4-4s3,1.4,3,3.6v.7h-5.2a2.6,2.6,0,0,0,2.6,2.7,4.2,4.2,0,0,0,1.9-.6l.4.8a4.6,4.6,0,0,1-2.5.8C120.5,63.1,118.9,61.6,118.9,59.1Zm5.3-.6c0-1.6-.7-2.4-1.9-2.4s-2,.9-2.2,2.4Z" transform="translate(0)"/><path class="cls-1" d="M127.2,55.3h1l.2,1.4h0a2.5,2.5,0,0,1,2.2-1.6,1.2,1.2,0,0,1,.8.2l-.3,1.1h-.7c-.6,0-1.4.4-1.9,1.7v4.9h-1.3Z" transform="translate(0)"/><path class="cls-1" d="M132.6,55.3h1.1v1.1h0a3.8,3.8,0,0,1,2.6-1.3c1.6,0,2.3,1,2.3,3v4.8h-1.3V58.3c0-1.5-.4-2.1-1.4-2.1s-1.3.4-2.1,1.2v5.5h-1.3Z" transform="translate(0)"/><path class="cls-1" d="M140.6,59.1c0-2.5,1.7-4,3.4-4s3.1,1.4,3.1,3.6c0,.3-.1.5-.1.7h-5.1a2.6,2.6,0,0,0,2.5,2.7,4.2,4.2,0,0,0,1.9-.6l.5.8a5,5,0,0,1-2.6.8C142.2,63.1,140.6,61.6,140.6,59.1Zm5.3-.6c0-1.6-.7-2.4-1.8-2.4a2.3,2.3,0,0,0-2.2,2.4Z" transform="translate(0)"/><path class="cls-1" d="M149.2,60.5V56.3H148v-.9h1.2l.2-2.1h1v2.1h2.1v1h-2.1v4.3c0,.9.3,1.4,1.2,1.4h.9l.2.9a5.8,5.8,0,0,1-1.4.3C149.7,63.1,149.2,62.1,149.2,60.5Z" transform="translate(0)"/><path class="cls-1" d="M154.2,58.5a13.2,13.2,0,0,1,2.1-7.1l.8.4a13.6,13.6,0,0,0,0,13.5l-.8.4A13.2,13.2,0,0,1,154.2,58.5Z" transform="translate(0)"/><path class="cls-1" d="M159.1,52.6H162c2.3,0,3.8.8,3.8,3s-1.5,3.2-3.7,3.2h-1.7v4.1h-1.3Zm2.8,5.2c1.8,0,2.6-.7,2.6-2.2s-.9-1.9-2.7-1.9h-1.4v4.1Z" transform="translate(0)"/><path class="cls-1" d="M167.2,59.1a3.6,3.6,0,1,1,7.1,0,3.6,3.6,0,1,1-7.1,0Zm5.8,0c0-1.7-.9-2.9-2.2-2.9s-2.2,1.2-2.2,2.9.8,2.9,2.2,2.9S173,60.9,173,59.1Z" transform="translate(0)"/><path class="cls-1" d="M176.4,52.6h5.9v1.1h-4.6v3.2h3.9v1.2h-3.9v3.7h4.8v1.1h-6.1Z" transform="translate(0)"/><path class="cls-1" d="M183.8,65.3a13.6,13.6,0,0,0,0-13.5l.8-.4a13.2,13.2,0,0,1,0,14.3Z" transform="translate(0)"/><path class="cls-1" d="M96.2,126.6c0-3.4,1.9-5.4,4.5-5.4a3.6,3.6,0,0,1,2.8,1.3l-.7.8a2.9,2.9,0,0,0-2.1-.9c-1.9,0-3.2,1.6-3.2,4.1s1.2,4.2,3.2,4.2a3.2,3.2,0,0,0,2.4-1.1l.7.8a4.1,4.1,0,0,1-3.2,1.5C98.1,131.9,96.2,129.9,96.2,126.6Z" transform="translate(0)"/><path class="cls-1" d="M105,127.9a3.6,3.6,0,1,1,3.5,4A3.7,3.7,0,0,1,105,127.9Zm5.7,0c0-1.8-.9-3-2.2-3s-2.2,1.2-2.2,3,.9,2.9,2.2,2.9S110.7,129.6,110.7,127.9Z" transform="translate(0)"/><path class="cls-1" d="M114,124.1h1.1v1.1h.1a3.6,3.6,0,0,1,2.5-1.3c1.6,0,2.3,1,2.3,3v4.8h-1.2V127c0-1.4-.5-2-1.5-2s-1.3.4-2.1,1.2v5.5H114Z" transform="translate(0)"/><path class="cls-1" d="M122.8,129.3v-4.2h-1.1v-1h1.2v-2.2h1.1v2.2h2.1v1h-2.1v4.3c0,.9.3,1.4,1.2,1.4l.8-.2.3,1a5.8,5.8,0,0,1-1.4.3C123.4,131.9,122.8,130.9,122.8,129.3Z" transform="translate(0)"/><path class="cls-1" d="M127.4,129.7c0-1.6,1.4-2.5,4.7-2.8,0-1-.3-2-1.6-2a4.3,4.3,0,0,0-2.3.9l-.5-.9a5.4,5.4,0,0,1,3-1c1.9,0,2.7,1.2,2.7,3.1v4.7h-1.1v-.9h0a4.3,4.3,0,0,1-2.6,1.1A2.1,2.1,0,0,1,127.4,129.7Zm4.7.1v-2.1c-2.6.3-3.4.9-3.4,1.9s.5,1.2,1.3,1.2A3.1,3.1,0,0,0,132.1,129.8Z" transform="translate(0)"/><path class="cls-1" d="M135.2,127.9a3.7,3.7,0,0,1,3.7-4,3,3,0,0,1,2.2.9l-.7.8a2.1,2.1,0,0,0-1.5-.7c-1.4,0-2.4,1.2-2.4,3s1,2.9,2.4,2.9a2.5,2.5,0,0,0,1.8-.8l.5.9a3.5,3.5,0,0,1-2.4,1C136.8,131.9,135.2,130.4,135.2,127.9Z" transform="translate(0)"/><path class="cls-1" d="M143.1,129.3v-4.2H142v-1h1.2v-2.2h1.1v2.2h2.1v1h-2.1v4.3c0,.9.3,1.4,1.2,1.4l.8-.2.3,1a5.8,5.8,0,0,1-1.4.3C143.7,131.9,143.1,130.9,143.1,129.3Z" transform="translate(0)"/><path class="cls-1" d="M150.5,130.8l.6-.8a3.6,3.6,0,0,0,2.2.9c1.1,0,1.5-.6,1.5-1.2s-.8-1.1-1.7-1.5-2.3-.9-2.3-2.2,1-2.1,2.7-2.1a4.2,4.2,0,0,1,2.3.8l-.6.9a2.8,2.8,0,0,0-1.7-.7c-1,0-1.4.5-1.4,1.1s.8,1,1.7,1.3,2.3.9,2.3,2.3-1,2.3-2.8,2.3A4.4,4.4,0,0,1,150.5,130.8Z" transform="translate(0)"/><path class="cls-1" d="M157.6,121.7a.9.9,0,1,1,.9.8A.8.8,0,0,1,157.6,121.7Zm.3,2.4h1.2v7.6h-1.2Z" transform="translate(0)"/><path class="cls-1" d="M161.1,133.1a2.4,2.4,0,0,1,1.2-1.7h0a1.6,1.6,0,0,1-.7-1.3,1.8,1.8,0,0,1,.8-1.4h0a2.6,2.6,0,0,1-1-2,2.7,2.7,0,0,1,2.9-2.7l1,.2H168v1h-1.6a2,2,0,0,1,.7,1.5,2.7,2.7,0,0,1-2.8,2.7l-1.2-.3a1.3,1.3,0,0,0-.4.9c0,.5.3.8,1.3.8h1.5c1.7,0,2.6.6,2.6,1.9s-1.5,2.6-3.8,2.6S161.1,134.5,161.1,133.1Zm5.8-.4c0-.7-.6-.9-1.6-.9H163a1.6,1.6,0,0,0-.7,1.3c0,.8.8,1.3,2.2,1.3S166.9,133.5,166.9,132.7Zm-1-6.1a1.6,1.6,0,1,0-1.6,1.8A1.6,1.6,0,0,0,165.9,126.6Z" transform="translate(0)"/><path class="cls-1" d="M169.6,124.1h1.1v1.1h0a3.6,3.6,0,0,1,2.6-1.3c1.6,0,2.3,1,2.3,3v4.8h-1.3V127c0-1.4-.4-2-1.4-2a2.7,2.7,0,0,0-2.1,1.2v5.5h-1.3Z" transform="translate(0)"/><path class="cls-1" d="M177.7,129.7c0-1.6,1.4-2.5,4.7-2.8,0-1-.4-2-1.6-2a4.3,4.3,0,0,0-2.3.9l-.5-.9a5.4,5.4,0,0,1,3-1c1.8,0,2.6,1.2,2.6,3.1v4.7h-1v-.9h-.1a4.1,4.1,0,0,1-2.5,1.1A2,2,0,0,1,177.7,129.7Zm4.7.1v-2.1c-2.6.3-3.5.9-3.5,1.9s.6,1.2,1.4,1.2A3.1,3.1,0,0,0,182.4,129.8Z" transform="translate(0)"/><path class="cls-1" d="M186.1,130.2v-9.7h1.2v9.8a.5.5,0,0,0,.4.5h.3v1h-.7C186.4,131.9,186.1,131.2,186.1,130.2Z" transform="translate(0)"/><path class="cls-1" d="M126.6,143.3a13.1,13.1,0,0,1,2-7.1l.8.4a12.9,12.9,0,0,0-1.8,6.7,13.3,13.3,0,0,0,1.8,6.8l-.8.3A12.8,12.8,0,0,1,126.6,143.3Z" transform="translate(0)"/><path class="cls-1" d="M131.4,137.4H134c3.1,0,4.8,1.9,4.8,5.1s-1.7,5.2-4.8,5.2h-2.6Zm2.5,9.2c2.4,0,3.6-1.5,3.6-4.1s-1.2-4-3.6-4h-1.2v8.1Z" transform="translate(0)"/><path class="cls-1" d="M141,137.4h1.3v10.3H141Z" transform="translate(0)"/><path class="cls-1" d="M144.5,142.5c0-3.3,1.8-5.3,4.4-5.3s4.4,2,4.4,5.3-1.8,5.4-4.4,5.4S144.5,145.8,144.5,142.5Zm7.5,0c0-2.6-1.3-4.1-3.1-4.1s-3,1.5-3,4.1,1.2,4.2,3,4.2S152,145.1,152,142.5Z" transform="translate(0)"/><path class="cls-1" d="M154.7,150.1a13.3,13.3,0,0,0,1.8-6.8,12.9,12.9,0,0,0-1.8-6.7l.8-.4a13.2,13.2,0,0,1,2.1,7.1,12.9,12.9,0,0,1-2.1,7.1Z" transform="translate(0)"/><path class="cls-1" d="M126.4,231.8l-2.5-4.3H122v4.3h-1.3V221.5H124c2.1,0,3.5.8,3.5,2.9a2.8,2.8,0,0,1-2.3,2.9l2.7,4.5Zm-4.4-5.4h1.8c1.6,0,2.5-.6,2.5-2s-.9-1.8-2.5-1.8H122Z" transform="translate(0)"/><path class="cls-1" d="M128.9,230.5l.8-.9a3.7,3.7,0,0,0,2.8,1.3c1.3,0,2.2-.7,2.2-1.7s-.8-1.4-1.7-1.8l-1.5-.7a2.8,2.8,0,0,1-2.1-2.6,3,3,0,0,1,3.2-2.8,4.4,4.4,0,0,1,3,1.3l-.6.8a3.9,3.9,0,0,0-2.4-.9c-1.1,0-1.9.6-1.9,1.5s.9,1.4,1.7,1.7l1.5.6c1.2.6,2.1,1.3,2.1,2.8s-1.4,2.9-3.5,2.9A5,5,0,0,1,128.9,230.5Z" transform="translate(0)"/><path class="cls-1" d="M137.2,227.4h3.6v1h-3.6Z" transform="translate(0)"/><path class="cls-1" d="M142.1,231.1c3.2-2.9,4.7-4.9,4.7-6.7a1.8,1.8,0,0,0-1.9-2,2.6,2.6,0,0,0-2.1,1.2l-.8-.7a3.7,3.7,0,0,1,3-1.6,2.9,2.9,0,0,1,3,3.1c0,2-1.6,4.1-4,6.4h4.5v1.1h-6.4Z" transform="translate(0)"/><path class="cls-1" d="M149.6,230.6l.7-.8a3.4,3.4,0,0,0,2.5,1.1,1.9,1.9,0,0,0,2.1-1.9c0-1.2-.8-2-3.2-2v-1c2.1,0,2.9-.9,2.9-2a1.6,1.6,0,0,0-1.8-1.6,3,3,0,0,0-2.1,1l-.7-.8a4.3,4.3,0,0,1,2.9-1.3c1.7,0,3,1,3,2.6a2.6,2.6,0,0,1-1.9,2.5h0a2.6,2.6,0,0,1,2.2,2.6,3,3,0,0,1-3.3,2.9A4.4,4.4,0,0,1,149.6,230.6Z" transform="translate(0)"/><path class="cls-1" d="M157.6,231.1c3.2-2.9,4.7-4.9,4.7-6.7a1.8,1.8,0,0,0-1.9-2,2.9,2.9,0,0,0-2.1,1.2l-.8-.7a4,4,0,0,1,3.1-1.6,2.9,2.9,0,0,1,3,3.1c0,2-1.7,4.1-4.1,6.4h4.6v1.1h-6.5Z" transform="translate(0)"/><path class="cls-1" d="M129.6,311.3v-6.1h1.3v6.1c0,2.5,1,3.2,2.4,3.2s2.4-.7,2.4-3.2v-6.1H137v6.1c0,3.3-1.6,4.4-3.7,4.4S129.6,314.6,129.6,311.3Z" transform="translate(0)"/><path class="cls-1" d="M139,314.2l.7-.9a4.5,4.5,0,0,0,2.9,1.2c1.3,0,2.1-.6,2.1-1.6s-.7-1.4-1.7-1.9l-1.4-.6a2.8,2.8,0,0,1-2.1-2.6,2.9,2.9,0,0,1,3.2-2.8,4.4,4.4,0,0,1,3,1.3l-.7.8a3.4,3.4,0,0,0-2.3-.9c-1.2,0-1.9.6-1.9,1.5s.9,1.4,1.7,1.7l1.4.6c1.2.5,2.2,1.2,2.2,2.8s-1.4,2.9-3.5,2.9A5,5,0,0,1,139,314.2Z" transform="translate(0)"/><path class="cls-1" d="M148.1,305.2h3c2.1,0,3.6.7,3.6,2.5a2.3,2.3,0,0,1-1.6,2.3h0a2.4,2.4,0,0,1,2.1,2.5c0,2-1.5,3-3.8,3h-3.3Zm2.8,4.4c1.8,0,2.5-.7,2.5-1.7s-.8-1.6-2.4-1.6h-1.6v3.3Zm.3,4.9c1.7,0,2.8-.7,2.8-2.1s-1-1.8-2.8-1.8h-1.8v3.9Z" transform="translate(0)"/><polyline class="cls-4" points="89.3 153.9 194.3 153.9 194.3 197.1 241.2 197.1"/><rect class="cls-1" x="20.4" y="204.9" width="68.7" height="68.72" rx="12"/><path class="cls-2" d="M63.7,257.3H62.6v-.6a7.8,7.8,0,0,0-15.6,0v.6H45.9v-.6a8.9,8.9,0,0,1,17.8,0Z" transform="translate(0)"/><path class="cls-2" d="M55.9,235.6l-11.7-7,7,11.7a5.1,5.1,0,0,0,.9,1.6h0a4.1,4.1,0,0,0,2.7,1.1,3.8,3.8,0,0,0,1.1-7.4Z" transform="translate(0)"/><path class="cls-2" d="M55.8,257.8a2.1,2.1,0,0,0,.4-.6l2.9-4.8-4.8,2.9-.6.3h0a1.6,1.6,0,0,0-.5,1.1,1.5,1.5,0,0,0,1.6,1.5,1.2,1.2,0,0,0,1-.4Z" transform="translate(0)"/><path class="cls-2" d="M54.8,214.2a25,25,0,1,0,25,25A25,25,0,0,0,54.8,214.2Zm16.8,41-4.7-4.6a.5.5,0,0,0-.7,0,.6.6,0,0,0,0,.8l4.6,4.6a23.1,23.1,0,0,1-16,6.5A23.4,23.4,0,0,1,38.7,256l4.7-4.6a.6.6,0,0,0-.8-.8l-4.7,4.6a23.4,23.4,0,0,1-6.4-15.4h6.6a.6.6,0,0,0,.5-.6.5.5,0,0,0-.5-.5H31.5a23.7,23.7,0,0,1,6.4-15.5l4.7,4.6.4.2.4-.2a.6.6,0,0,0,0-.8l-4.7-4.6A22.9,22.9,0,0,1,54.2,216v6.5a.6.6,0,0,0,.6.6.6.6,0,0,0,.5-.6V216a22.7,22.7,0,0,1,15.5,6.4L66.2,227a.6.6,0,0,0,0,.8l.4.2.3-.2,4.7-4.6A23.2,23.2,0,0,1,78,238.7H71.4a.5.5,0,0,0-.5.5.6.6,0,0,0,.5.6H78A22.9,22.9,0,0,1,71.6,255.2Z" transform="translate(0)"/><line class="cls-3" x1="658" y1="179.4" x2="658" y2="179.4"/><line class="cls-5" x1="658" y1="174.2" x2="658" y2="145.1"/><line class="cls-3" x1="658" y1="142.5" x2="658" y2="142.5"/><polygon class="cls-1" points="665.5 144.7 658 131.7 650.6 144.7 665.5 144.7"/><path class="cls-4" d="M450.4,127.6c7.8,3.8-.1,20.1,7.7,23.9s15.8-12.5,23.6-8.7-.1,20.1,7.7,23.9" transform="translate(0)"/><polyline class="cls-4" points="241.2 184.5 206 184.5 206 70.6 87.9 70.6"/><polyline class="cls-4" points="89.3 239.2 194.3 239.2 194.3 207.5 241.2 207.5"/><polyline class="cls-4" points="241.2 219.1 206 219.1 206 323.1 87.9 323.1"/><path class="cls-6" d="M666.4,197.1a18.3,18.3,0,0,0,0-32.5" transform="translate(0)"/><path class="cls-6" d="M663.4,170.4a11.8,11.8,0,0,1,6.5,10.5,12,12,0,0,1-6.5,10.5" transform="translate(0)"/><path class="cls-6" d="M652.6,191.3a11.8,11.8,0,0,1,0-20.9" transform="translate(0)"/><path class="cls-6" d="M649.6,164.7a18.2,18.2,0,0,0,0,32.3" transform="translate(0)"/><polyline class="cls-6" points="650 222.4 658.2 186.8 666.5 222.4"/><line class="cls-6" x1="653.7" y1="209" x2="663.3" y2="209"/><line class="cls-6" x1="652.2" y1="215.3" x2="664.6" y2="215.3"/><line class="cls-3" x1="613" y1="179.4" x2="613" y2="179.4"/><line class="cls-5" x1="613" y1="174.2" x2="613" y2="145.1"/><line class="cls-3" x1="613" y1="142.5" x2="613" y2="142.5"/><polygon class="cls-1" points="620.5 144.7 613 131.7 605.5 144.7 620.5 144.7"/><path class="cls-6" d="M621.3,197.1a18.2,18.2,0,0,0,0-32.5" transform="translate(0)"/><path class="cls-6" d="M618.4,170.4a11.7,11.7,0,0,1,6.4,10.5,11.9,11.9,0,0,1-6.4,10.5" transform="translate(0)"/><path class="cls-6" d="M607.5,191.3a11.8,11.8,0,0,1,0-20.9" transform="translate(0)"/><path class="cls-6" d="M604.5,164.7a18.2,18.2,0,0,0,0,32.3" transform="translate(0)"/><polyline class="cls-6" points="604.9 222.4 613.1 186.8 621.4 222.4"/><line class="cls-6" x1="608.6" y1="209" x2="618.2" y2="209"/><line class="cls-6" x1="607.1" y1="215.3" x2="619.5" y2="215.3"/><line class="cls-3" x1="567.9" y1="179.4" x2="567.9" y2="179.4"/><line class="cls-5" x1="567.9" y1="174.2" x2="567.9" y2="145.1"/><line class="cls-3" x1="567.9" y1="142.5" x2="567.9" y2="142.5"/><polygon class="cls-1" points="575.4 144.7 567.9 131.7 560.4 144.7 575.4 144.7"/><path class="cls-6" d="M576.2,197.1a18.2,18.2,0,0,0,0-32.5" transform="translate(0)"/><path class="cls-6" d="M573.3,170.4a11.7,11.7,0,0,1,6.4,10.5,11.9,11.9,0,0,1-6.4,10.5" transform="translate(0)"/><path class="cls-6" d="M562.5,191.3a11.7,11.7,0,0,1,0-20.9" transform="translate(0)"/><path class="cls-6" d="M559.4,164.7a18.3,18.3,0,0,0,0,32.3" transform="translate(0)"/><polyline class="cls-6" points="559.8 222.4 568.1 186.8 576.3 222.4"/><line class="cls-6" x1="563.5" y1="209" x2="573.1" y2="209"/><line class="cls-6" x1="562.1" y1="215.3" x2="574.4" y2="215.3"/><line class="cls-3" x1="522.8" y1="179.4" x2="522.8" y2="179.4"/><line class="cls-5" x1="522.8" y1="174.2" x2="522.8" y2="145.1"/><line class="cls-3" x1="522.8" y1="142.5" x2="522.8" y2="142.5"/><polygon class="cls-1" points="530.3 144.7 522.8 131.7 515.4 144.7 530.3 144.7"/><path class="cls-6" d="M531.2,197.1a18.3,18.3,0,0,0,0-32.5" transform="translate(0)"/><path class="cls-6" d="M528.2,170.4a11.8,11.8,0,0,1,6.5,10.5,12,12,0,0,1-6.5,10.5" transform="translate(0)"/><path class="cls-6" d="M517.4,191.3a11.8,11.8,0,0,1,0-20.9" transform="translate(0)"/><path class="cls-6" d="M514.4,164.7a18.2,18.2,0,0,0,0,32.3" transform="translate(0)"/><polyline class="cls-6" points="514.8 222.4 523 186.8 531.3 222.4"/><line class="cls-6" x1="518.5" y1="209" x2="528" y2="209"/><line class="cls-6" x1="517" y1="215.3" x2="529.4" y2="215.3"/></g></g></svg>