<svg xmlns="http://www.w3.org/2000/svg" viewBox="0 0 113.39 113.39"><switch><g><path d="M71.9 0L41.48 14.17C41.46 14.18 0 32.37 0 56.34v57.05h82.97l30.42-28.35v-48.9C113.39 15.6 71.9 0 71.9 0zM41.53 67.91l.03.11h-.06l.03-.11zm37.44 41.48H43.42V69.8c4.26 4.14 14.26 13.3 24.18 10.27 4.36-1.34 9.28-5.48 7.61-11.7-1.49-5.55-4.12-7.42-8.71-7.98l-.03-.11c2.78.91 7.08-1.24 5.28-4.79-1.21-2.39-6.85-3.99-11.14-2.68-6.89 2.11-18.2 12.63-19.08 15.1-.88-2.47-12.19-12.99-19.08-15.1-4.29-1.31-9.92.29-11.14 2.68-1.8 3.54 2.5 5.69 5.28 4.79l-.03.11c-4.58.56-7.21 2.43-8.7 7.98-1.67 6.23 3.24 10.37 7.61 11.7 9.75 2.99 19.59-5.83 23.97-10.07v39.39H4V56.34C4 45.67 14.33 35.9 22.99 29.58c7.57-5.52 15.25-9.44 18.5-11C44.71 20.13 52.31 24 59.87 29.5c8.71 6.34 19.09 16.14 19.09 26.84v53.05zM41.48 14.17s.01 0 .02.01c-.01 0-.02-.01-.02-.01zm.07.03c.01 0 .01 0 .02.01-.01 0-.01 0-.02-.01zm.12.06zm4.45 2.16l10.37-4.83c3.98 1.75 37.45 17.03 37.45 35.92v50.17l-10.98 10.23V56.34c.01-18.99-26.01-34.35-36.84-39.92zm63.27 66.88L97.94 93.96V47.52c0-18.83-26.75-33.39-36.69-38.14l10.78-5.02c3.19 1.3 10.87 4.64 18.5 9.4 8.6 5.36 18.86 13.6 18.86 22.38V83.3z" fill="#10069f"/></g></switch></svg>