<svg xmlns="http://www.w3.org/2000/svg" viewBox="0 0 113.39 113.39"><defs><style>.cls-1{fill:#162789}</style></defs><g id="レイヤー_2" data-name="レイヤー 2"><g id="レイヤー_1-2" data-name="レイヤー 1"><path class="cls-1" d="M31.84 107.76l-2.35-.87 2.33-6.29-7.51-2.68 2.77-7.48-6.31-2.26.84-2.35 8.7 3.11-2.77 7.48 7.51 2.68-3.21 8.66z"/><path class="cls-1" d="M39.67 103.71l-2.35-.87 2.33-6.29-7.5-2.69 2.77-7.47-6.32-2.26.84-2.36 8.7 3.12-2.77 7.47 7.51 2.69-3.21 8.66zm-25.97 9.68h-11l6.49-8.83H0L20.01 82.2l-7.39 16.23h6.31l-5.23 14.96zm13.45-85.55l-8.7-3.11 2.77-7.48-7.51-2.68 3.21-8.66 2.35.87-2.34 6.29 7.51 2.68-2.77 7.48 6.32 2.26-.84 2.35zm-7.83 3.77l-8.7-3.11 2.77-7.48-7.51-2.68 3.21-8.66 2.34.87-2.33 6.29 7.51 2.68L13.84 27l6.32 2.26-.84 2.35zM36.19 0h11L40.7 8.83h9.19l-20 22.35 7.38-16.22h-6.31L36.19 0z"/><path class="cls-1" d="M96.38 92.13h17V21.26H90.71v-9.92A11.37 11.37 0 0079.37 0h-2.83A11.37 11.37 0 0065.2 11.34v9.92H51a8.54 8.54 0 00-8.52 8.52V34H25.71a7.31 7.31 0 00-7.28 7.28v5.47H0v4h18.43v11.87H0v4h18.43v5.47a7.31 7.31 0 007.28 7.29h16.81v4.24A8.55 8.55 0 0051 92.13h14.2v8.5H42.52v12.76h70.87v-12.76H90.71v-8.5zm0-36.69H46.52V46.6h49.86zm0 2.5v8.84H46.52v-8.84zm0-13.84H46.52v-8.83h49.86zM46.52 69.28h49.86v8.84H46.52zm53.86-44h9v62.85h-9zM69.2 11.34A7.34 7.34 0 0176.54 4h2.83a7.34 7.34 0 017.34 7.34v9.92H69.2zM51 25.26h45.38v7.51H46.52v-3A4.53 4.53 0 0151 25.26zM22.43 72.08V41.3a3.28 3.28 0 013.28-3.3H30v37.37h-4.29a3.28 3.28 0 01-3.28-3.29zm10 3.29V38h10.09v37.37zm14.13 8.24v-3h49.82v7.51H51a4.53 4.53 0 01-4.48-4.51zm44.19 21h18.68v4.76H46.52v-4.76H69.2V92.13h17.51v12.5z"/><path class="cls-1" d="M78 7.09a5.67 5.67 0 105.67 5.67A5.67 5.67 0 0078 7.09zm0 8.84a3.17 3.17 0 113.17-3.17A3.18 3.18 0 0178 15.93z"/></g></g></svg>