<svg xmlns="http://www.w3.org/2000/svg" viewBox="0 0 113.39 113.39"><g data-name="レイヤー 2"><path d="M98 42.5V14.17h3.34V0H73v14.17h3.35V42.5c-8.83 2.85-15.4 12.87-15.4 24.7v46.19h52.45V67.2c-.01-11.83-6.58-21.85-15.4-24.7zM77 4h20.34v6.17H77zm32.4 105.39H64.94V67.2a25.65 25.65 0 013.77-13.58 17 17 0 018.85-7.32l2.78-.89V14.17H94v31.24l2.77.89c7.31 2.37 12.62 11.15 12.62 20.9zm-57-43.67v-.36c0-.48-.06-1-.11-1.45-.05-.48-.12-.95-.19-1.42v-.33c-.08-.47-.16-.94-.26-1.4-.1-.46-.21-.92-.33-1.37 0-.1 0-.19-.08-.29-.24-.91-.53-1.79-.85-2.65 0-.09-.07-.18-.1-.26-2.6-6.69-7.48-11.77-13.36-13.67V14.17h3.34V0H12.05v14.17h3.34V42.5C7 45.2.7 54.34.06 65.35v48.04h52.38V67.2c0-.5-.01-.99-.04-1.48zM16.05 4h20.34v6.17H16.05zm.57 42.3l2.77-.89V14.17h13.66v31.24l2.77.89a16.7 16.7 0 018.54 6.88 31.16 31.16 0 00-5.6-.47c-17.08 0-17.08 11.34-34.17 11.34h-.4a24.92 24.92 0 013.58-10.43 17 17 0 018.85-7.32z" fill="#162789" data-name="レイヤー 1"/></g></svg>