<svg xmlns="http://www.w3.org/2000/svg" viewBox="0 0 104.05 113.39"><defs><style>.cls-1{fill:#162789}</style></defs><g id="レイヤー_2" data-name="レイヤー 2"><g id="レイヤー_1-2" data-name="レイヤー 1"><path class="cls-1" d="M89.29 75.38h-1.42v-52.7h4.26V8.5H65.2V4h4.25V0H43.94v4h4.25v4.5H21.26v14.18h4.25v4.61H17v5.5H0v6h17v5.5h8.5v31.09h-1.4A14.77 14.77 0 009.34 90.13v23.26h12.5V90.13a2.28 2.28 0 012.26-2.25h1.41v6.64c0 4.14 3.83 7.53 8.51 7.53h45.35c4.68 0 8.5-3.39 8.5-7.53v-6.64h1.42a2.29 2.29 0 012.26 2.25v23.26h12.5V90.13a14.77 14.77 0 00-14.76-14.75zM52.19 4h9v4.5h-9zm-26.93 8.5h62.87v6.18H25.26zM21 40.29v-9h4.5v9zm3.1 43.59a6.26 6.26 0 00-6.26 6.25v19.26h-4.5V90.13A10.77 10.77 0 0124.1 79.38h1.41v4.5zm55.27 14.17H34c-2.45 0-4.51-1.62-4.51-3.53V22.68h54.38v71.84c0 1.91-2.06 3.53-4.5 3.53zm20.68 11.34h-4.5V90.13a6.26 6.26 0 00-6.26-6.25h-1.42v-4.5h1.42a10.77 10.77 0 0110.76 10.75z"/><path class="cls-1" d="M56.69 70.87a8.51 8.51 0 108.51 8.5 8.52 8.52 0 00-8.51-8.5zm0 13a4.51 4.51 0 114.51-4.51 4.52 4.52 0 01-4.51 4.52z"/></g></g></svg>