<svg xmlns="http://www.w3.org/2000/svg" viewBox="0 0 113.39 113.39"><defs><style>.cls-1{fill:#162789}</style></defs><g id="レイヤー_2" data-name="レイヤー 2"><g id="レイヤー_1-2" data-name="レイヤー 1"><path class="cls-1" d="M109.65 94.21c-1.23-4.8-6-9.43-10.59-10.3L82.8 81.1l-9.86 22.58-16.24-6.79-16.24 6.79-9.88-22.58-16.25 2.81c-4.59.87-9.36 5.5-10.59 10.3L0 113.39h113.39z"/><path class="cls-1" d="M55.25 94.78l-10.73-15.7V69.6a25.94 25.94 0 003.75 1.74l.33.12.9.3.54.16.8.22.69.16.73.15.79.13.66.1c.31 0 .63.06.95.09h.53c.5 0 1 .05 1.5.05s1 0 1.51-.05h.52l1-.09.65-.1.8-.13.73-.15.68-.16.8-.22.55-.16.9-.3.33-.12a25.94 25.94 0 003.75-1.74v9.48l-10.77 15.7 13.49 5.64 8.64-19.76-7.4-1.28V66.77a31.91 31.91 0 009.75-15h.42a7.67 7.67 0 003.15-14.66v-17.5a12 12 0 00-6.2-10L62.91 1.24a15 15 0 00-11.91 0l-17.11 8.4a12 12 0 00-6.2 10v17.24a7.67 7.67 0 002.65 14.86h.43a31.83 31.83 0 009.75 15v12.64l-7.4 1.28 8.64 19.76zm28.36-47.09a37.63 37.63 0 00.56-4.91v-2.17a3.67 3.67 0 01-.59 7.1zm-56.94-3.62a3.67 3.67 0 012.52-3.48v2.17a37.32 37.32 0 00.56 4.89 3.67 3.67 0 01-3.08-3.58zm5-10.9V19.61a8 8 0 014-6.38l17.06-8.41a11.13 11.13 0 018.41 0l17.08 8.41a8 8 0 014 6.38v13.56c-4.86-5.39-14.49-8.86-25.25-8.86s-20.43 3.47-25.28 8.86zm47.9 3.1A19.14 19.14 0 0175 38.33a9 9 0 01-5.25-1.7c-2.44-1.45-5.49-3.26-12.79-3.26s-10.35 1.81-12.8 3.26a9 9 0 01-5.25 1.7 19.29 19.29 0 01-4.6-2.06c3.85-4.76 12.79-8 22.65-8s18.78 3.24 22.63 8zM34.26 49.4l-.08-.29c0-.12 0-.23-.08-.35-.13-.53-.25-1.08-.35-1.62v-.16c0-.25-.09-.5-.13-.75s-.05-.3-.07-.45l-.09-.67c0-.35-.08-.71-.11-1.06v-.43c0-.14 0-.58-.05-.87V40.3a.13.13 0 000-.06c2.1 1.15 4.48 2.09 5.64 2.09a12.8 12.8 0 007.34-2.26c2.24-1.33 4.55-2.7 10.76-2.7s8.52 1.37 10.75 2.7A12.83 12.83 0 0075 42.33a14.71 14.71 0 005.2-1.83v3.55c0 .35-.07.7-.11 1.05s-.06.47-.1.7l-.06.41c0 .26-.09.53-.13.78v.08c-.11.58-.23 1.16-.37 1.74a2.33 2.33 0 01-.07.25l-.08.35A27.36 27.36 0 0168 65.46l-.17.11-.8.49-.17.1c-.64.36-1.29.68-2 1l-.23.1-.8.31-.23.09c-.34.12-.67.24-1 .34h-.14c-.29.09-.58.17-.88.24l-.31.08-.81.17h-.25c-.34.06-.68.11-1 .15h-.26c-.28 0-.55.06-.83.07h-2.77c-.28 0-.56 0-.83-.07h-.26c-.35 0-.7-.09-1-.16h-.24l-.81-.17-.31-.08c-.3-.07-.6-.15-.89-.24h-.13c-.34-.1-.68-.22-1-.34l-.23-.08-.81-.33-.22-.09a21.33 21.33 0 01-2-1l-.15-.08c-.28-.16-.55-.33-.82-.5l-.15-.1A27.34 27.34 0 0134.26 49.4z"/></g></g></svg>