<svg version="1.1" id="レイヤー_1" xmlns="http://www.w3.org/2000/svg" x="0" y="0" viewBox="0 0 113.28 110.36" xml:space="preserve"><style>.st0{fill:#10069f}</style><switch><g><path class="st0" d="M65.04 84.14H2c-1.1 0-2-.9-2-2V36.79c0-1.1.9-2 2-2h93.54c1.1 0 2 .9 2 2v7.39c0 1.1-.9 2-2 2s-2-.9-2-2v-5.39H4v41.35h61.04c1.1 0 2 .9 2 2s-.9 2-2 2zm17.97-51.37c-.15 0-.3-.02-.45-.05L9.98 15.97 6.65 30.4a1.997 1.997 0 01-2.4 1.5 1.997 1.997 0 01-1.5-2.4l3.78-16.38c.12-.52.44-.96.89-1.25a2 2 0 011.51-.25l74.52 17.2c1.08.25 1.75 1.32 1.5 2.4-.21.93-1.03 1.55-1.94 1.55zm-9.48-9.9c-.26 0-.53-.05-.78-.16L30.13 4.62l-2.61 6.15a1.994 1.994 0 01-2.62 1.06 1.998 1.998 0 01-1.06-2.62l3.39-7.99A1.998 1.998 0 0129.85.16l44.46 18.87c1.02.43 1.49 1.61 1.06 2.62-.32.77-1.06 1.22-1.84 1.22z"/><path class="st0" d="M31.06 76.35H17.9l-9.89-9.89V52.47l9.89-9.89h13.16c1.1 0 2 .9 2 2s-.9 2-2 2h-11.5l-7.55 7.55V64.8l7.55 7.55h11.5c1.1 0 2 .9 2 2s-.9 2-2 2z"/><path class="st0" d="M48.77 76.35c-9.31 0-16.88-7.57-16.88-16.88s7.57-16.88 16.88-16.88c9.31 0 16.88 7.57 16.88 16.88s-7.57 16.88-16.88 16.88zm0-29.77c-7.1 0-12.88 5.78-12.88 12.88 0 7.1 5.78 12.88 12.88 12.88 7.1 0 12.88-5.78 12.88-12.88 0-7.1-5.77-12.88-12.88-12.88zm28.63 0H65.07c-1.1 0-2-.9-2-2s.9-2 2-2H77.4a2 2 0 110 4zm14.03 1.67c-1.01 0-2.12.03-3.27.08-.58.03-1.17.06-1.76.11-.6.04-1.2.1-1.81.16-.61.06-1.22.13-1.83.21-.91.12-1.82.26-2.71.43-5.63 1.06-10.47 3.09-10.47 6.68v46.77c0 6.05 13.73 7.67 21.84 7.67s21.84-1.62 21.84-7.67V55.92c.02-6.05-13.72-7.67-21.83-7.67zm17.85 41.63c-.62 1.32-7.21 3.73-17.84 3.73-10.64 0-17.22-2.41-17.84-3.73v-6.53c4.69 2.22 12.49 2.93 17.84 2.93 5.36 0 13.16-.71 17.84-2.93v6.53zM91.43 63.59c5.36 0 13.16-.71 17.84-2.93v6.53c-.62 1.32-7.21 3.73-17.84 3.73-10.64 0-17.22-2.41-17.84-3.73v-6.53c4.69 2.23 12.49 2.93 17.84 2.93zm17.85 14.95c-.62 1.32-7.21 3.73-17.84 3.73-10.64 0-17.22-2.41-17.84-3.73V72c4.69 2.22 12.49 2.92 17.84 2.92 5.36 0 13.16-.71 17.84-2.92v6.54zM92.41 52.26c.1 0 .2 0 .3.01.22 0 .44.01.66.01.12 0 .23.01.35.01.19.01.39.01.58.02.13.01.26.01.39.02l.51.03.4.03.48.03.39.03c.15.01.31.02.46.04.13.01.25.02.38.04.15.01.3.03.45.04.12.01.24.03.36.04.15.02.3.03.44.05.12.01.24.03.36.04.14.02.28.03.42.05.12.02.24.03.36.05.13.02.26.04.39.05.12.02.23.04.35.05l.38.06c.12.02.23.04.34.06l.36.06.32.06c.12.02.24.04.35.07l.31.06c.11.02.23.05.33.07.1.02.2.04.3.07.11.02.21.05.32.07.09.02.19.04.28.07.1.02.21.05.31.07.09.02.18.05.27.07.1.02.19.05.29.08.09.02.17.05.25.07.09.03.18.05.27.08.08.02.16.05.24.07.09.03.17.05.26.08.08.02.15.05.23.07.08.03.16.05.24.08.07.02.14.05.21.07.08.03.15.05.23.08.07.02.13.05.2.07.07.03.14.05.21.08.06.03.12.05.19.08.06.03.13.05.19.08s.11.05.17.07c.06.03.12.05.18.08.05.02.1.05.15.07.05.03.11.05.16.08.05.02.1.05.14.07.05.03.1.05.14.08.04.02.09.05.13.07.04.03.08.05.12.08.04.02.07.05.11.07.04.02.07.05.11.07.03.02.06.05.1.07.03.02.06.05.09.07.03.02.05.05.08.07.03.02.05.05.07.07.02.02.04.04.06.07.02.02.04.04.06.07.02.02.03.04.04.06.01.01.01.02.02.04-.8 1.33-7.34 3.67-17.81 3.67-10.47 0-17.01-2.33-17.81-3.67.01-.01.01-.02.02-.03.01-.02.03-.04.05-.07.02-.02.03-.04.05-.06.02-.02.04-.05.07-.07.02-.02.04-.04.07-.06.03-.02.05-.05.08-.07a.5.5 0 00.08-.07c.03-.03.07-.05.1-.08.03-.02.06-.04.1-.07.04-.03.08-.05.12-.08.04-.02.07-.05.11-.07.05-.03.09-.05.14-.08.04-.02.08-.05.12-.07.05-.03.1-.05.16-.08.04-.02.09-.05.14-.07.06-.03.12-.06.18-.08.05-.02.1-.05.15-.07.06-.03.13-.06.19-.08.05-.02.11-.05.17-.07l.21-.09c.06-.02.12-.05.18-.07.08-.03.15-.06.23-.08.06-.02.13-.05.19-.07.08-.03.16-.06.24-.08.07-.02.14-.05.21-.07.08-.03.17-.06.26-.08.07-.02.15-.05.23-.07.09-.03.18-.05.27-.08.08-.02.16-.05.24-.07.09-.03.19-.05.29-.08.08-.02.17-.04.25-.07.1-.03.2-.05.3-.08l.27-.06c.1-.02.21-.05.32-.08l.28-.06c.11-.02.22-.05.33-.07l.3-.06c.11-.02.23-.05.34-.07.1-.02.21-.04.32-.06.12-.02.24-.04.35-.07l.33-.06c.12-.02.24-.04.37-.06.11-.02.23-.04.34-.05.12-.02.25-.04.38-.06.12-.02.25-.03.37-.05.13-.02.25-.04.38-.05.13-.02.26-.03.4-.05.13-.02.25-.03.38-.05.14-.02.28-.03.42-.05.13-.01.25-.03.38-.04.14-.01.28-.03.43-.04.13-.01.27-.03.41-.04.15-.01.3-.02.45-.04l.41-.03.48-.03.4-.03.51-.03c.13-.01.26-.01.39-.02.18-.01.36-.01.54-.02.13 0 .26-.01.39-.01.21-.01.41-.01.62-.01.11 0 .22-.01.33-.01.32 0 .65-.01.98-.01.33 0 .66.01.98.01zm-.98 54.1c-10.64 0-17.22-2.41-17.84-3.73v-7.95c4.69 2.22 12.49 2.92 17.84 2.92 5.36 0 13.16-.71 17.84-2.92v7.95c-.62 1.32-7.2 3.73-17.84 3.73z"/></g></switch></svg>