<svg xmlns="http://www.w3.org/2000/svg" viewBox="0 0 113.39 82.2"><defs><style>.cls-1{fill:#162789}</style></defs><g id="レイヤー_2" data-name="レイヤー 2"><g id="レイヤー_1-2" data-name="レイヤー 1"><path class="cls-1" d="M104.88 4a4.51 4.51 0 014.51 4.5v65.2a4.51 4.51 0 01-4.51 4.5H8.5A4.51 4.51 0 014 73.7V8.5A4.51 4.51 0 018.5 4h96.38m0-4H8.5A8.53 8.53 0 000 8.5v65.2a8.52 8.52 0 008.5 8.5h96.38a8.53 8.53 0 008.51-8.5V8.5a8.53 8.53 0 00-8.51-8.5z"/><path class="cls-1" d="M102.3 19.59v43H11.09v-43h91.21m1.16-4H9.92a2.84 2.84 0 00-2.83 2.83v45.36a2.83 2.83 0 002.83 2.83h93.54a2.84 2.84 0 002.84-2.83V18.42a2.85 2.85 0 00-2.84-2.83z"/><path class="cls-1" d="M92.38 28.09v6.18H42.27v-6.18h50.11m1.16-4H41.1a2.84 2.84 0 00-2.83 2.84v8.5a2.84 2.84 0 002.83 2.84h52.44a2.85 2.85 0 002.84-2.84v-8.5a2.85 2.85 0 00-2.84-2.84zM49.61 52.44a5.67 5.67 0 11-5.67-5.67 5.67 5.67 0 015.67 5.67zm15.59 0a5.67 5.67 0 11-5.67-5.67 5.67 5.67 0 015.67 5.67zm15.59 0a5.67 5.67 0 11-5.67-5.67 5.67 5.67 0 015.67 5.67zm15.59 0a5.67 5.67 0 11-5.67-5.67 5.67 5.67 0 015.67 5.67zm-68.74-28.7a5 5 0 00-5 5v19.12h-2.05a5 5 0 000 10h7.05c4.32 0 5-3.51 5-7.83V28.74a5 5 0 00-5-5zm2.5 29.38a2.5 2.5 0 01-5 0V28.74a2.5 2.5 0 115 0z"/></g></g></svg>