<svg xmlns="http://www.w3.org/2000/svg" viewBox="0 0 113.39 113.39"><defs><style>.cls-1{fill:#162789}</style></defs><g id="レイヤー_2" data-name="レイヤー 2"><g id="レイヤー_1-2" data-name="レイヤー 1"><rect class="cls-1" x="8.5" y="9.92" width="45.35" height="8.5" rx="2.75"/><rect class="cls-1" x="8.5" y="24.09" width="45.35" height="8.5" rx="2.75"/><rect class="cls-1" x="8.5" y="38.27" width="45.35" height="8.5" rx="2.75"/><path class="cls-1" d="M100.46 30.76V13H80.79v2.5H62.36v-7a8.52 8.52 0 00-8.5-8.5H8.5A8.53 8.53 0 000 8.5v104.89h62.36V21.46h18.43V24h8.67v6.8c-7.46.77-12.92 3.2-12.92 6.05v76.54h36.85V36.86c0-2.86-5.39-5.29-12.93-6.1zm-42.1 78.63H4V8.5A4.51 4.51 0 018.5 4h45.36a4.51 4.51 0 014.5 4.5zm51 0H80.54v-72c1.3-1.11 6.46-3 14.42-3s13.12 1.85 14.43 3z"/></g></g></svg>