<svg xmlns="http://www.w3.org/2000/svg" viewBox="0 0 99.89 95.97"><switch><g><path d="M36.76.008c-.24.01-.47.06-.69.16l-35 16c-1.13.51-1.39 2.15-.69 3.12l10.87 12.72L.39 44.698c-.65.92-.44 2.61.69 3.13l10.84 4.97v25.2c.01.76.49 1.5 1.19 1.81l35.97 16c.51.23 1.12.23 1.62 0l36.03-16c.7-.31 1.18-1.05 1.19-1.81v-25.2l10.84-4.97c1.13-.51 1.49-2.19.69-3.13l-10.88-12.69 10.88-12.72c.81-.94.44-2.61-.69-3.12l-35-16c-.31-.14-.66-.19-1-.16-.49.04-.97.26-1.31.62l-11.53 12.41L38.39.638c-.41-.44-1.03-.68-1.63-.63zm-.31 4.41l10.09 10.88-32.06 14.28-9.31-10.84 31.28-14.32zm26.94 0l31.28 14.31-9.31 10.84-32.06-14.28 10.09-10.87zm-13.47 13.78l31.06 13.81-31.06 13.78-31.06-13.78 31.06-13.81zm-35.44 16.22l32.06 14.28-10.09 10.88-31.28-14.32 9.31-10.84zm70.88 0l9.31 10.84-31.28 14.31-10.09-10.88 32.06-14.27zm-37.44 18.69v37.79l-32-14.22v-22.08l20.16 9.22c.76.35 1.75.15 2.31-.47l9.53-10.24zm4 0l9.53 10.25c.57.62 1.55.82 2.31.47l20.16-9.22v22.08l-32 14.19v-37.77z" fill="#10069f"/></g></switch></svg>