<svg xmlns="http://www.w3.org/2000/svg" viewBox="0 0 70.87 113.39"><defs><style>.cls-1{fill:#162789}</style></defs><g id="レイヤー_2" data-name="レイヤー 2"><g id="レイヤー_1-2" data-name="レイヤー 1"><path class="cls-1" d="M62.36 4a4.51 4.51 0 014.51 4.5v96.38a4.51 4.51 0 01-4.51 4.51H8.5a4.51 4.51 0 01-4.5-4.51V8.5A4.51 4.51 0 018.5 4h53.86m0-4H8.5A8.53 8.53 0 000 8.5v96.38a8.53 8.53 0 008.5 8.51h53.86a8.54 8.54 0 008.51-8.51V8.5A8.53 8.53 0 0062.36 0z"/><path class="cls-1" d="M55.53 15.34v33.1H15.34v-33.1h40.19m1.06-4H14.27a2.94 2.94 0 00-2.93 2.94v35.23a2.94 2.94 0 002.93 2.93h42.32a2.94 2.94 0 002.94-2.93V14.28a2.94 2.94 0 00-2.94-2.94zM22.1 68.16a.85.85 0 01-.84 1.29h-9.92a.85.85 0 01-.84-1.29l5.22-11.59c.32-.71.84-.71 1.16 0zm0 8.25a.85.85 0 00-.84-1.29h-9.92a.85.85 0 00-.84 1.29L15.72 88c.32.71.84.71 1.16 0zM34 61.32a5.3 5.3 0 11-5.3 5.3 5.3 5.3 0 015.3-5.3m0-2.5a7.8 7.8 0 107.79 7.8 7.8 7.8 0 00-7.79-7.8zm27 7.8a7.8 7.8 0 11-7.8-7.8 7.8 7.8 0 017.8 7.8zm-19.21 35.12a12.55 12.55 0 005.15 1.66V78a12.55 12.55 0 00-5.15 1.66zm12.8-22.06A12.6 12.6 0 0049.44 78v25.4a12.6 12.6 0 005.15-1.66zm-15.3 1.9a12.73 12.73 0 000 18.26zm17.8 0v18.26a12.73 12.73 0 000-18.26z"/><path class="cls-1" d="M21.51 31.05c0-6.75 3.78-10.67 9.27-10.67S40 24.33 40 31.05s-3.78 10.83-9.26 10.83-9.23-4.11-9.23-10.83zm14.31 0c0-4.45-2-7.11-5-7.11s-5 2.66-5 7.11 2 7.25 5 7.25 5-2.83 5-7.25zm6.37 8.41c2.78-2.54 4.66-4.56 4.66-6.18a1.4 1.4 0 00-1.46-1.58 2.67 2.67 0 00-1.88 1.08l-1.46-1.44a4.68 4.68 0 013.71-1.72 3.4 3.4 0 013.66 3.51c0 1.92-1.65 4-3.37 5.76a14.86 14.86 0 011.82-.15h2.06V41h-7.74z"/></g></g></svg>