<svg xmlns="http://www.w3.org/2000/svg" viewBox="0 0 113.39 113.39"><defs><style>.cls-1{fill:#162789}</style></defs><g id="レイヤー_2" data-name="レイヤー 2"><g id="レイヤー_1-2" data-name="レイヤー 1"><path class="cls-1" d="M67.68 79.95l10.08-2.22v-6.09l-10.08 2.22v6.09zM2 45.3a2 2 0 01-2-2A43.36 43.36 0 0143.3 0a2 2 0 010 4A39.34 39.34 0 004 43.3a2 2 0 01-2 2z"/><path class="cls-1" d="M14.05 45.3a2 2 0 01-2-2A31.29 31.29 0 0143.3 12.05a2 2 0 010 4A27.28 27.28 0 0016.05 43.3a2 2 0 01-2 2z"/><path class="cls-1" d="M26.09 45.3a2 2 0 01-2-2A19.23 19.23 0 0143.3 24.09a2 2 0 010 4A15.24 15.24 0 0028.09 43.3a2 2 0 01-2 2zm87.3-7.03a8.54 8.54 0 00-8.51-8.51H51a8.53 8.53 0 00-8.48 8.07 6.87 6.87 0 000 13.21v42.5a8.53 8.53 0 008.5 8.51h7.66v4.47a6.49 6.49 0 006.56 6.87 8.15 8.15 0 001.74-.2l38.1-8.39a11.09 11.09 0 008.31-10.33v-56.2zM58.68 50.82v47.23H51a4.51 4.51 0 01-4.5-4.51V51a6.88 6.88 0 000-13.11 4.51 4.51 0 014.5-4.13h46.51L67 40.49a11.08 11.08 0 00-8.32 10.33zm50.71 43.65a7.09 7.09 0 01-5.17 6.43l-38.1 8.39a4.57 4.57 0 01-.88.1c-1.58 0-2.56-1.1-2.56-2.87v-55.7a7.08 7.08 0 015.16-6.43l38.1-8.39a4.57 4.57 0 01.88-.1c1.58 0 2.57 1.1 2.57 2.87z"/></g></g></svg>