<svg xmlns="http://www.w3.org/2000/svg" viewBox="0 0 113.39 113.39"><defs><style>.cls-1{fill:#162789}</style></defs><g id="レイヤー_2" data-name="レイヤー 2"><g id="レイヤー_1-2" data-name="レイヤー 1"><path class="cls-1" d="M19.84 53.86a7.09 7.09 0 107.09 7.08 7.08 7.08 0 00-7.09-7.08zm0 11.67a4.59 4.59 0 114.59-4.59 4.59 4.59 0 01-4.59 4.59zm22.68-11.67a7.09 7.09 0 107.09 7.08 7.09 7.09 0 00-7.09-7.08zm0 11.67a4.59 4.59 0 114.59-4.59 4.6 4.6 0 01-4.59 4.59zM65.2 53.86a7.09 7.09 0 107.08 7.08 7.09 7.09 0 00-7.08-7.08zm0 11.67a4.59 4.59 0 114.58-4.59 4.6 4.6 0 01-4.58 4.59zm22.67-11.67A7.09 7.09 0 1095 60.94a7.08 7.08 0 00-7.13-7.08zm0 11.67a4.59 4.59 0 114.59-4.59 4.59 4.59 0 01-4.59 4.59z"/><path class="cls-1" d="M113.39 4V0H99.21v21.8a9.93 9.93 0 00-1.76-.16c-6.62 0-7.27 1.84-7.27 1.84a4.52 4.52 0 011.7-.31 5.1 5.1 0 012.43.63c2 1.08 4.44 3.91 4.9 6.44v2.94c-.14 1.35-.5 2.08-1.32 2.08-1.2 0-3-5.08-4.34-7.24s-5.1-5-7.6-5-6.67 2.43-8.57 4.32c-.57.56-.72.76-.6.76.28 0 2-1.08 3.31-1.08 1.85 0 5.21 1.51 6.19 4.1s1.3 5.08.11 5.08-5.16-3.8-6.39-5.05c-1-1-2.53-2.21-3.93-2.21a2.29 2.29 0 00-.85.16C73.58 29.75 71 33 71 33s-3.6 4.64-3.6 8.2c0 2.74 2.3 4.77 4.2 5.57H59.47a6.56 6.56 0 003.92-6.11c0-5.19-8.14-13.83-10.42-14.37a18.73 18.73 0 00-3.9-.54s4.12 1.3 4.12 4 0 6.16-1.52 6.16-.67-2.91-1.3-5.52-4-8.75-10.63-8.75-7.27 1.84-7.27 1.84a4.43 4.43 0 011.69-.31 5 5 0 012.43.63c2.17 1.19 5 4.54 5 7.24s-.22 4.22-1.41 4.22-3-5.08-4.34-7.24-5.1-5-7.59-5-6.68 2.43-8.57 4.32c-.57.56-.72.76-.61.76.28 0 2-1.08 3.32-1.08 1.84 0 5.2 1.51 6.18 4.1s1.3 5.08.11 5.08-5.15-3.83-6.4-5.08c-1-1-2.52-2.21-3.93-2.21a2.24 2.24 0 00-.84.16c-1.63.65-4.24 3.89-4.24 3.89s-3.58 4.68-3.58 8.24c0 2.8 2.31 4.8 4.21 5.58A14.21 14.21 0 000 61a14.23 14.23 0 0012.76 14.1v34.34H8.5v4h22.68v-4h-4.25V75.12h72.28v38.27h14.18v-4h-10.18V4zM69.9 41.2c0-2 1.86-5.12 3-6.67a16 16 0 013.14-3.09 5 5 0 012.13 1.48c5.83 5.81 7.29 5.81 8.17 5.81A3.1 3.1 0 0089 37.38c.37-.54 1.5-2.17-.36-7.11a8.83 8.83 0 00-4.07-4.42 4.58 4.58 0 011.4-.3c1.37 0 4.48 2.14 5.46 3.76.35.59.82 1.58 1.27 2.53 1.64 3.44 2.82 5.92 5.21 5.92a3.8 3.8 0 001.32-.22v7.11h-26c-.86-.04-3.33-1.53-3.33-3.45zm-57.71 0c0-2 1.86-5.12 3-6.67a16 16 0 013.14-3.09 5 5 0 012.14 1.48c5.83 5.81 7.29 5.81 8.16 5.81a3.13 3.13 0 002.6-1.35c.37-.54 1.49-2.17-.37-7.11a8.78 8.78 0 00-4.07-4.42 4.64 4.64 0 011.41-.3c1.37 0 4.47 2.14 5.45 3.76.36.59.82 1.58 1.28 2.53 1.63 3.44 2.81 5.92 5.2 5.92 3.91 0 3.91-4.54 3.91-6.72 0-2.42-1.41-4.91-3.1-6.8 4.52.74 6.63 5.43 7 6.76a10.92 10.92 0 01.23 2.4 10.1 10.1 0 00.25 2.44 3.33 3.33 0 003.25 2.57c3.35 0 3.91-3.48 4-6.76.53.58 1.08 1.22 1.65 1.94 2.2 2.8 3.57 5.51 3.57 7.07a4.13 4.13 0 01-2.78 4H15.45c-.79-.05-3.26-1.54-3.26-3.46zm10.74 68.19h-6.17V75.12h6.17zm-8.76-38.27a10.18 10.18 0 010-20.35h85v20.35z"/></g></g></svg>