<svg version="1.1" id="レイヤー_1" xmlns="http://www.w3.org/2000/svg" x="0" y="0" viewBox="0 0 112.83 98.4" xml:space="preserve"><style>.st0{fill:#10069f}</style><switch><g><path class="st0" d="M112.81 12.26c-.08-.62-.44-1.17-.98-1.48L93.71.27a2 2 0 00-2.42.32L76.85 15.03H35.98L21.54.59c-.64-.64-1.63-.77-2.42-.32L1 10.78c-.54.31-.9.86-.98 1.48-.08.62.14 1.24.58 1.68l18.38 18.11V96.4c0 1.1.9 2 2 2h70.87c1.1 0 2-.9 2-2V32.04l18.38-18.11c.45-.43.66-1.05.58-1.67zM33.15 29.21h-7.34l7.34-7.34v7.34zm46.52-7.35l7.35 7.35h-7.35v-7.35zm-42.52-2.83h38.52V29.2H37.15V19.03zM19.8 4.5l12.53 12.53-11.36 11.36-15.7-15.47L19.8 4.5zm70.05 89.9H22.98V33.2h66.87v61.2zm2.01-66.01L80.5 17.03 93.03 4.5l14.52 8.42-15.69 15.47z"/><path class="st0" d="M64.19 57.33c-1.48.15-3.02.31-4.04 1.48-.88 1.01-1.19 2.52-.76 3.76.57 1.63 2.08 2.63 4.03 2.63 1.42 0 2.83-.52 3.74-1.45.25-.26.5-.58.68-.89.96-1.74.88-4.13.67-5.88-.53.04-4.32.35-4.32.35z"/><path class="st0" d="M65.36 42.13c-1.96-.44-3.9-.49-5.76-.22-2.01.3-4.02.02-5.9-.71-.26-.1-.52-.22-.78-.33-1.25-.57-2.69-.98-4.71-.85-1.86.12-3.53.87-4.7 1.68.67.12 1.32.3 1.83.53 2.55 1.14 4.17 2.74 4.96 5.2.42 1.32.34 3.25-.31 5.38-.66 2.17-3.35 10.96-3.35 10.96 1.93 5.51 6.7 9.77 12.77 10.65 9.11 1.32 17.58-5.47 18.38-15 .69-8.1-4.68-15.56-12.43-17.29zm6.59 25.01s-.46.28-.78.29h-1.58c-1.17 0-.98-.38-.98-2.07-2.47 2.28-5.68 3.21-8.82 2.02-5.31-2.02-5.06-9.32-.41-11.83 2.08-1.12 9.33-1.11 9.33-1.11s-.05-5.34-4.5-5.96c-1.66-.23-3.87.46-4.59.57-.57.09-.93-.29-1.13-.76-.27-.63-.67-1.32.42-1.84.86-.41 3.74-1.13 5.52-.91 2.77.35 4.78 1.4 6.26 3.52.79 1.14 1.26 3.01 1.26 5.24v12.84z"/><path class="st0" d="M46.91 52.05c-.05-.01-4.52-1.38-7.43-1.67l-.13-.01-.01-.13c-.15-2.69.62-4.58 1.62-6.13l.05-.08.09.01c1.04.08 2.35.24 3.36.71 4.15 1.93 2.66 7.15 2.64 7.2l-.04.15-.15-.05zm-6.47 9.08c-.59 0-1.18-.09-1.75-.26-1.93-.59-3.13-2.02-3.2-3.83-.05-1.36.71-2.77 1.9-3.51.6-.37 1.29-.55 2.11-.55.21 0 .42.01.65.03.56.05 1.11.16 1.65.27l4.38.96-.03.15c-.28 1.58-.7 2.9-1.25 3.93a6.53 6.53 0 01-1.16 1.58c-.26.25-.6.5-.94.68-.67.35-1.5.55-2.36.55zm-1.2 20.94c-.37-.58-1.01-.92-1.81-1.02-.52-.06-1.34.15-1.6.26-.29.13-.25.34-.16.54.08.18.21.31.34.3.23-.02.95-.26 1.42-.16 1.16.25 1.16 1.59 1.16 1.59s-2.01.01-2.62.32c-1.39.72-1.41 2.92.12 3.46.9.32 1.74.11 2.5-.54 0 .38-.04.56.26.56h.53c.09 0 .21-.08.21-.08s.01-2.83 0-3.72c0-.75-.05-1.02-.35-1.51zm-2.1 4.59c-.54 0-.95-.27-1.11-.71-.12-.34-.04-.75.21-1.02.3-.33.61-.39 2.3-.51.03.46.08 1.13-.19 1.61-.3.47-.82.63-1.21.63zm12.65-3.59c-.06-.83-.66-1.37-.93-1.55-.32-.21-.77-.38-1.38-.38-.54 0-.98.14-1.32.36-.13.08-.31.24-.44.38-.14-.13-.32-.29-.44-.38-.34-.22-.77-.36-1.32-.36-.61 0-1.05.17-1.38.38-.27.18-.87.72-.93 1.55l-.01 3.91c-.01.41.26.41.34.41h.49c.1 0 .22-.08.22-.08v-3.64c0-.77.17-1.58 1.27-1.59.83 0 1.31.51 1.28 1.59v3.3c0 .3.25.38.48.38.23 0 .48-.07.48-.38v-3.3c-.03-1.08.45-1.59 1.28-1.59 1.1 0 1.27.81 1.27 1.59v3.64s.12.08.22.08h.49c.07 0 .35 0 .33-.41v-3.91zm20.77 0c-.06-.83-.66-1.37-.93-1.55-.32-.21-.77-.38-1.38-.38-.55 0-.98.14-1.32.36-.13.08-.31.24-.44.38-.14-.13-.32-.29-.44-.38-.34-.22-.77-.36-1.32-.36-.61 0-1.05.17-1.38.38-.26.18-.87.72-.93 1.55l-.01 3.91c-.01.41.26.41.34.41h.49c.1 0 .22-.08.22-.08v-3.64c0-.77.17-1.58 1.27-1.59.83 0 1.31.51 1.28 1.59v3.3c0 .3.25.38.48.38.23 0 .48-.07.48-.38v-3.3c-.03-1.08.45-1.59 1.28-1.59 1.1 0 1.27.81 1.27 1.59v3.64s.12.08.22.08h.49c.07 0 .35 0 .34-.41l-.01-3.91zm-14.16-.85c-.23-.37-.55-.68-.94-.87-.36-.17-.76-.23-1.16-.24-.39.01-.78.07-1.14.24-.4.19-.72.5-.94.87-.21.34-.35.84-.35 1.17v3.64c0 .22.14.35.33.35h.51c.1 0 .23-.08.23-.08v-3.69c0-.63.23-1 .4-1.19.27-.3.7-.37.96-.37s.72.08.98.37c.17.19.4.56.4 1.19 0 1.12.01 3.69.01 3.69s.13.08.23.08h.51c.18 0 .32-.14.32-.35V83.4c0-.46-.14-.84-.35-1.18zm3.17-2.59c-.33 0-.61-.21-.71-.53-.1-.29-.03-.57.19-.78.22-.21.48-.28.76-.19.36.11.59.43.54.81-.06.39-.4.69-.78.69m.52 7.39v-5.74c-.31.05-.51.04-.51.04s-.2.01-.51-.04v5.74c0 .18-.01.31.16.41.06.04.21.07.35.07.14 0 .29-.03.35-.07.17-.1.16-.23.16-.41zm16.15-5.8c-.15-.06-.59-.16-1.03-.16-.44.01-.88.11-1.03.16-.75.27-1.66 1.04-1.66 3.12s.91 2.85 1.66 3.11c.15.05.59.16 1.03.17.44-.01.87-.11 1.03-.17.75-.26 1.66-1.03 1.66-3.11s-.92-2.85-1.66-3.12zm.58 3.61c-.07 1.04-.4 1.59-1.09 1.77-.15.04-.33.06-.52.06s-.37-.02-.52-.06c-.69-.18-1.01-.73-1.09-1.77-.02-.25-.02-.72 0-.96.07-1.04.4-1.57 1.09-1.74.15-.04.33-.06.52-.06s.37.02.52.06c.69.17 1.01.7 1.09 1.74.01.24.01.71 0 .96z"/></g></switch></svg>