<svg xmlns="http://www.w3.org/2000/svg" viewBox="0 0 85.47 113.39"><defs><style>.cls-1{fill:#162789}</style></defs><g id="レイヤー_2" data-name="レイヤー 2"><g id="レイヤー_1-2" data-name="レイヤー 1"><path class="cls-1" d="M73.66 9.19c-2-5.33-4.32-9-9-9.19H20.87c-4.74.18-7.09 3.86-9.06 9.19C11.81 9.19 0 48 0 70.46s9.36 36.72 9.36 36.72c1.94 2.86 4.32 6 7.86 6.21h51c3.54-.17 5.92-3.35 7.86-6.21 0 0 9.36-14.28 9.36-36.72S73.66 9.19 73.66 9.19zm-58 1.28C17.75 4.7 19.43 4.08 21 4h43.52c1.53.08 3.2.7 5.34 6.47.69 2.28 11.61 39 11.61 60a76 76 0 01-.78 10.84c-1.14.1-2.84.23-5 .38V61.76a2 2 0 00-2-2H58a2 2 0 00-2 2v20.82c-4.08.11-8.5.18-13.18.18-18.82 0-33.43-1.08-38-1.47A74.35 74.35 0 014 70.46c0-21.02 10.92-57.72 11.61-59.99zm56 71.46c-3.28.19-7.22.38-11.68.53v-18.7h11.66zm1.14 23c-1.42 2.08-3 4.28-4.65 4.42H17.34c-1.59-.14-3.23-2.34-4.64-4.41-.29-.46-4.79-7.75-7.2-19.61 5.56.44 19.59 1.39 37.28 1.39s31.57-.9 37.22-1.35c-2.45 11.91-7 19.2-7.22 19.63z"/><path class="cls-1" d="M73.28 53.38H57.6a2 2 0 010-4h15.68a2 2 0 010 4z"/></g></g></svg>