<svg xmlns="http://www.w3.org/2000/svg" viewBox="0 0 113.39 113.39"><defs><style>.cls-1{fill:#162789}</style></defs><g id="レイヤー_2" data-name="レイヤー 2"><g id="レイヤー_1-2" data-name="レイヤー 1"><path class="cls-1" d="M93.54 70.58H19.26v-51.6h4v47.6h70.28v4z"/><path class="cls-1" d="M38.34 58.15a3.39 3.39 0 01-2.61-1.35L27 46.13l3.1-2.53 7.9 9.7 9.91-26a3 3 0 015.56-.69l14 20.11 8.62-10.52a4.54 4.54 0 015.87-1l12.65 7.94-2.13 3.39-12.65-8a.57.57 0 00-.63.11l-8.85 10.9a3.56 3.56 0 01-5.84-.21l-13.39-19.1-9.79 25.66a3.31 3.31 0 01-2.52 2.22 3.73 3.73 0 01-.47.04z"/><path class="cls-1" d="M97.07 79.05H16.31a5.56 5.56 0 01-5.55-5.55V16a5.56 5.56 0 015.55-5.56h80.76a5.56 5.56 0 015.56 5.56v57.5a5.56 5.56 0 01-5.56 5.55zM16.31 14.42A1.56 1.56 0 0014.76 16v57.5a1.56 1.56 0 001.55 1.55h80.76a1.56 1.56 0 001.56-1.55V16a1.56 1.56 0 00-1.56-1.56z"/><path class="cls-1" d="M104.88 0H8.5A8.49 8.49 0 000 8.42V87a8.5 8.5 0 008.5 8.43h34v13.94H31.8v4h49.79v-4H70.87V95.45h34a8.5 8.5 0 008.52-8.45V8.42A8.49 8.49 0 00104.88 0zm4.51 87a4.48 4.48 0 01-4.51 4.43h-38v17.94H46.52V91.45H8.5A4.47 4.47 0 014 87V8.42A4.46 4.46 0 018.5 4h96.38a4.47 4.47 0 014.51 4.42z"/></g></g></svg>