<svg xmlns="http://www.w3.org/2000/svg" viewBox="0 0 113.39 113.39"><defs><style>.cls-1{fill:#162789}</style></defs><g id="レイヤー_2" data-name="レイヤー 2"><g id="レイヤー_1-2" data-name="レイヤー 1"><path class="cls-1" d="M59.69 36.25v5h-6v-5H35.6v12.42h18.09v-5h6v5h18.1V36.25zm-8.5 9.92H38.1v-7.42h13.09v7.42zm24.1 0h-13.1v-7.42h13.1z"/><path class="cls-1" d="M111.59 93.71C110.15 88.13 104.81 83 99.43 82l-28-4.85v-9.26a31.56 31.56 0 0011.21-16.3h.38a7.67 7.67 0 00.85-15.29c0-.18 0-.35-.08-.52a67 67 0 00-.39-11.39C81.77 11 71.36 0 56.49 0s-26 11-26.93 24.41c-.14 1.95-.65 9.21-.85 12a7.67 7.67 0 001.63 15.16h.39a31.56 31.56 0 0011.21 16.3v9.23L14 82C8.58 83 3.23 88.13 1.8 93.71L0 113.39h4l1.71-18.83c1.11-4 5.19-8 9-8.68l19.1-3.31L45.1 98.15l7.34-5.66v9.56l-2.55 11.34H63.5l-2.56-11.34v-9.56l7.35 5.66 11.33-15.58 19.1 3.31c3.77.71 7.85 4.67 9 8.68l1.73 18.83h4zM84.2 40.45a3.67 3.67 0 01-.57 7.11 36.1 36.1 0 00.57-6.46zm-57.53 3.49a3.69 3.69 0 012.52-3.49v.65a37 37 0 00.57 6.46 3.68 3.68 0 01-3.09-3.62zm7.58 5.43v-.21l-.12-.46c-.2-.84-.37-1.69-.5-2.54l-.06-.39c0-.23-.07-.47-.1-.7l-.09-.9v-.55c0-.18 0-.58-.05-.88v-2.93c0-.43 0-.85.08-1.3v-.38c0-.53.11-1.05.18-1.57 8.67-2 26.91-6.85 38.2-14.79 1.79-1.25 5.13 5.79 7.72 12.21a33.09 33.09 0 01.65 4.16v.37c0 .45.06.88.08 1.3s0 .86 0 1.29v1.64c0 .3 0 .59-.06.88s0 .36 0 .54-.06.61-.1.91l-.09.69-.06.41c-.14.84-.3 1.67-.5 2.5 0 .2-.09.4-.14.6v.08a27.43 27.43 0 01-11 16l-.47.31-.35.21c-.29.17-.59.35-.89.51l-.27.14c-.64.33-1.28.63-1.93.89l-.16.07c-.66.25-1.32.48-2 .67l-.25.06c-.31.09-.62.16-.93.23l-.46.09c-.16 0-.33.06-.5.09l-.59.09h-.37q-.48.06-1 .09h-2.64q-.48 0-1-.09h-.38l-.59-.09-.5-.09-.48-.1c-.3-.06-.61-.14-.91-.22l-.25-.06c-.67-.19-1.34-.42-2-.67l-.16-.07a20.77 20.77 0 01-1.92-.89l-.27-.14-1.02-.55-.33-.2-.48-.32a27.38 27.38 0 01-10.94-15.94zm12 21.13l.92.43a24.6 24.6 0 008.08 1.9h2.78a24.54 24.54 0 008.08-1.9l.29-.14c.32-.14.63-.27 1-.43v8.24l-10.71 6.9-10.75-6.9v-8.26h.05zm-.69 24.1l-9.1-12.5 5.88-1 11.33 7.27zm22.17 0l-8.12-6.25L71 81.08l5.88 1z"/></g></g></svg>